<?xml version="1.0" encoding="UTF-8" standalone="no"?>
<!DOCTYPE svg PUBLIC "-//W3C//DTD SVG 1.1//EN"
"http://www.w3.org/Graphics/SVG/1.1/DTD/svg11.dtd">
<svg viewBox="0 0 909 1286" version="1.1" xmlns="http://www.w3.org/2000/svg" xmlns:xlink="http://www.w3.org/1999/xlink">
<defs>
<clipPath id="c0_18"><path d="M27.5,1223.8L27.5,27.5l854,0l0,1196.3Z" /></clipPath>
<style type="text/css"><![CDATA[
.g1_18{
}
]]></style>
</defs>
<g clip-path="url(#c0_18)">
<g fill="#000000" >
<use xlink:href="#f0_1s" transform="matrix(12,0,0,12,183.9,125)" />
<use xlink:href="#f0_1z" transform="matrix(12,0,0,12,193,125)" />
<use xlink:href="#f0_23" transform="matrix(12,0,0,12,202.2,125)" />
<use xlink:href="#f0_24" transform="matrix(12,0,0,12,209.4,125)" />
<use xlink:href="#f0_1p" transform="matrix(12,0,0,12,214.4,125)" />
<use xlink:href="#f0_1o" transform="matrix(12,0,0,12,222.6,125)" />
<use xlink:href="#f0_24" transform="matrix(12,0,0,12,236.3,125)" />
<use xlink:href="#f0_1s" transform="matrix(12,0,0,12,241.4,125)" />
<use xlink:href="#f0_22" transform="matrix(12,0,0,12,250.6,125)" />
<use xlink:href="#f0_1z" transform="matrix(12,0,0,12,256.7,125)" />
<use xlink:href="#f0_25" transform="matrix(12,0,0,12,265.9,125)" />
<use xlink:href="#f0_1r" transform="matrix(12,0,0,12,275,125)" />
<use xlink:href="#f0_1s" transform="matrix(12,0,0,12,284.2,125)" />
<use xlink:href="#f0_1z" transform="matrix(12,0,0,12,297.9,125)" />
<use xlink:href="#f0_25" transform="matrix(12,0,0,12,307.1,125)" />
<use xlink:href="#f0_22" transform="matrix(12,0,0,12,316.3,125)" />
<use xlink:href="#f0_20" transform="matrix(12,0,0,12,327,125)" />
<use xlink:href="#f0_1w" transform="matrix(12,0,0,12,336.1,125)" />
<use xlink:href="#f0_1l" transform="matrix(12,0,0,12,341.2,125)" />
<use xlink:href="#f0_24" transform="matrix(12,0,0,12,349.4,125)" />
<use xlink:href="#f0_1q" transform="matrix(12,0,0,12,354.5,125)" />
<use xlink:href="#f0_1z" transform="matrix(12,0,0,12,360.6,125)" />
<use xlink:href="#f0_22" transform="matrix(12,0,0,12,369.7,125)" />
<use xlink:href="#f0_1x" transform="matrix(12,0,0,12,375.8,125)" />
<use xlink:href="#f0_27" transform="matrix(12,0,0,12,394.7,125)" />
<use xlink:href="#f0_1p" transform="matrix(12,0,0,12,407.9,125)" />
<use xlink:href="#f0_1n" transform="matrix(12,0,0,12,420.6,125)" />
<use xlink:href="#f0_1l" transform="matrix(12,0,0,12,428.8,125)" />
<use xlink:href="#f0_1y" transform="matrix(12,0,0,12,436.9,125)" />
<use xlink:href="#f0_26" transform="matrix(12,0,0,12,450.7,125)" />
<use xlink:href="#f0_1p" transform="matrix(12,0,0,12,459.8,125)" />
<use xlink:href="#f0_22" transform="matrix(12,0,0,12,468,125)" />
<use xlink:href="#f0_1t" transform="matrix(12,0,0,12,474.1,125)" />
<use xlink:href="#f0_1q" transform="matrix(12,0,0,12,479.2,125)" />
<use xlink:href="#f0_29" transform="matrix(12,0,0,12,485.3,125)" />
<use xlink:href="#f0_1z" transform="matrix(12,0,0,12,499,125)" />
<use xlink:href="#f0_27" transform="matrix(12,0,0,12,508.2,125)" />
<use xlink:href="#f0_1y" transform="matrix(12,0,0,12,521.4,125)" />
<use xlink:href="#f0_1p" transform="matrix(12,0,0,12,530.6,125)" />
<use xlink:href="#f0_22" transform="matrix(12,0,0,12,538.7,125)" />
<use xlink:href="#f0_23" transform="matrix(12,0,0,12,544.8,125)" />
<use xlink:href="#f0_1s" transform="matrix(12,0,0,12,552,125)" />
<use xlink:href="#f0_1t" transform="matrix(12,0,0,12,561.1,125)" />
<use xlink:href="#f0_20" transform="matrix(12,0,0,12,566.2,125)" />
<use xlink:href="#f0_1l" transform="matrix(12,0,0,12,580,125)" />
<use xlink:href="#f0_1y" transform="matrix(12,0,0,12,588.1,125)" />
<use xlink:href="#f0_1o" transform="matrix(12,0,0,12,597.3,125)" />
<use xlink:href="#f0_23" transform="matrix(12,0,0,12,611,125)" />
<use xlink:href="#f0_1l" transform="matrix(12,0,0,12,618.2,125)" />
<use xlink:href="#f0_1q" transform="matrix(12,0,0,12,626.3,125)" />
<use xlink:href="#f0_1p" transform="matrix(12,0,0,12,632.4,125)" />
<use xlink:href="#f0_1w" transform="matrix(12,0,0,12,640.6,125)" />
<use xlink:href="#f0_29" transform="matrix(12,0,0,12,645.6,125)" />
<use xlink:href="#f0_1o" transform="matrix(12,0,0,12,659.4,125)" />
<use xlink:href="#f0_1t" transform="matrix(12,0,0,12,668.6,125)" />
<use xlink:href="#f0_23" transform="matrix(12,0,0,12,673.7,125)" />
<use xlink:href="#f0_1m" transform="matrix(12,0,0,12,680.8,125)" />
<use xlink:href="#f0_25" transform="matrix(12,0,0,12,690,125)" />
<use xlink:href="#f0_22" transform="matrix(12,0,0,12,699.1,125)" />
<use xlink:href="#f0_23" transform="matrix(12,0,0,12,705.2,125)" />
<use xlink:href="#f0_1p" transform="matrix(12,0,0,12,712.4,125)" />
<use xlink:href="#f0_22" transform="matrix(12,0,0,12,183.9,156.6)" />
<use xlink:href="#f0_1p" transform="matrix(12,0,0,12,190,156.6)" />
<use xlink:href="#f0_26" transform="matrix(12,0,0,12,198.1,156.6)" />
<use xlink:href="#f0_1p" transform="matrix(12,0,0,12,207.3,156.6)" />
<use xlink:href="#f0_1y" transform="matrix(12,0,0,12,215.4,156.6)" />
<use xlink:href="#f0_25" transform="matrix(12,0,0,12,224.6,156.6)" />
<use xlink:href="#f0_1p" transform="matrix(12,0,0,12,233.8,156.6)" />
<use xlink:href="#f0_24" transform="matrix(12,0,0,12,246.5,156.6)" />
<use xlink:href="#f0_1z" transform="matrix(12,0,0,12,251.6,156.6)" />
<use xlink:href="#f0_24" transform="matrix(12,0,0,12,265.3,156.6)" />
<use xlink:href="#f0_1s" transform="matrix(12,0,0,12,270.4,156.6)" />
<use xlink:href="#f0_1p" transform="matrix(12,0,0,12,279.6,156.6)" />
<use xlink:href="#f0_22" transform="matrix(12,0,0,12,292.3,156.6)" />
<use xlink:href="#f0_1t" transform="matrix(12,0,0,12,298.4,156.6)" />
<use xlink:href="#f0_1r" transform="matrix(12,0,0,12,303.5,156.6)" />
<use xlink:href="#f0_1s" transform="matrix(12,0,0,12,312.7,156.6)" />
<use xlink:href="#f0_24" transform="matrix(12,0,0,12,321.8,156.6)" />
<use xlink:href="#f0_1q" transform="matrix(12,0,0,12,326.9,156.6)" />
<use xlink:href="#f0_25" transform="matrix(12,0,0,12,333,156.6)" />
<use xlink:href="#f0_1w" transform="matrix(12,0,0,12,342.2,156.6)" />
<use xlink:href="#f0_1z" transform="matrix(12,0,0,12,351.9,156.6)" />
<use xlink:href="#f0_27" transform="matrix(12,0,0,12,361,156.6)" />
<use xlink:href="#f0_1y" transform="matrix(12,0,0,12,374.3,156.6)" />
<use xlink:href="#f0_1p" transform="matrix(12,0,0,12,383.4,156.6)" />
<use xlink:href="#f0_22" transform="matrix(12,0,0,12,391.6,156.6)" />
<use xlink:href="#f0_f" transform="matrix(12,0,0,12,397.7,156.6)" />
<use xlink:href="#f0_1e" transform="matrix(12,0,0,12,406.9,156.6)" />
<use xlink:href="#f0_1s" transform="matrix(12,0,0,12,418.1,156.6)" />
<use xlink:href="#f0_1t" transform="matrix(12,0,0,12,427.2,156.6)" />
<use xlink:href="#f0_23" transform="matrix(12,0,0,12,432.3,156.6)" />
<use xlink:href="#f0_1o" transform="matrix(12,0,0,12,444,156.6)" />
<use xlink:href="#f0_1p" transform="matrix(12,0,0,12,453.2,156.6)" />
<use xlink:href="#f0_1n" transform="matrix(12,0,0,12,461.3,156.6)" />
<use xlink:href="#f0_1p" transform="matrix(12,0,0,12,469.5,156.6)" />
<use xlink:href="#f0_1y" transform="matrix(12,0,0,12,477.6,156.6)" />
<use xlink:href="#f0_24" transform="matrix(12,0,0,12,486.8,156.6)" />
<use xlink:href="#f0_22" transform="matrix(12,0,0,12,491.9,156.6)" />
<use xlink:href="#f0_1l" transform="matrix(12,0,0,12,498,156.6)" />
<use xlink:href="#f0_1w" transform="matrix(12,0,0,12,506.1,156.6)" />
<use xlink:href="#f0_1t" transform="matrix(12,0,0,12,511.2,156.6)" />
<use xlink:href="#f0_2a" transform="matrix(12,0,0,12,516.3,156.6)" />
<use xlink:href="#f0_1p" transform="matrix(12,0,0,12,524.4,156.6)" />
<use xlink:href="#f0_1o" transform="matrix(12,0,0,12,532.6,156.6)" />
<use xlink:href="#f0_1l" transform="matrix(12,0,0,12,546.3,156.6)" />
<use xlink:href="#f0_20" transform="matrix(12,0,0,12,554.5,156.6)" />
<use xlink:href="#f0_20" transform="matrix(12,0,0,12,563.6,156.6)" />
<use xlink:href="#f0_22" transform="matrix(12,0,0,12,572.8,156.6)" />
<use xlink:href="#f0_1z" transform="matrix(12,0,0,12,578.9,156.6)" />
<use xlink:href="#f0_1l" transform="matrix(12,0,0,12,588.1,156.6)" />
<use xlink:href="#f0_1n" transform="matrix(12,0,0,12,596.2,156.6)" />
<use xlink:href="#f0_1s" transform="matrix(12,0,0,12,604.3,156.6)" />
<use xlink:href="#f0_1l" transform="matrix(12,0,0,12,618.1,156.6)" />
<use xlink:href="#f0_1w" transform="matrix(12,0,0,12,626.2,156.6)" />
<use xlink:href="#f0_1w" transform="matrix(12,0,0,12,631.3,156.6)" />
<use xlink:href="#f0_1z" transform="matrix(12,0,0,12,636.4,156.6)" />
<use xlink:href="#f0_27" transform="matrix(12,0,0,12,645.6,156.6)" />
<use xlink:href="#f0_23" transform="matrix(12,0,0,12,658.8,156.6)" />
<use xlink:href="#f0_25" transform="matrix(12,0,0,12,670.5,156.6)" />
<use xlink:href="#f0_23" transform="matrix(12,0,0,12,679.7,156.6)" />
<use xlink:href="#f0_1p" transform="matrix(12,0,0,12,686.8,156.6)" />
<use xlink:href="#f0_22" transform="matrix(12,0,0,12,695,156.6)" />
<use xlink:href="#f0_23" transform="matrix(12,0,0,12,701.1,156.6)" />
<use xlink:href="#f0_24" transform="matrix(12,0,0,12,712.8,156.6)" />
<use xlink:href="#f0_1z" transform="matrix(12,0,0,12,717.9,156.6)" />
<use xlink:href="#f0_1q" transform="matrix(12,0,0,12,731.6,156.6)" />
<use xlink:href="#f0_22" transform="matrix(12,0,0,12,737.7,156.6)" />
<use xlink:href="#f0_1p" transform="matrix(12,0,0,12,743.8,156.6)" />
<use xlink:href="#f0_1p" transform="matrix(12,0,0,12,752,156.6)" />
<use xlink:href="#f0_1w" transform="matrix(12,0,0,12,760.1,156.6)" />
<use xlink:href="#f0_29" transform="matrix(12,0,0,12,765.2,156.6)" />
<use xlink:href="#f0_1x" transform="matrix(12,0,0,12,183.9,188.5)" />
<use xlink:href="#f0_1l" transform="matrix(12,0,0,12,198.1,188.5)" />
<use xlink:href="#f0_1y" transform="matrix(12,0,0,12,206.3,188.5)" />
<use xlink:href="#f0_1l" transform="matrix(12,0,0,12,215.4,188.5)" />
<use xlink:href="#f0_1r" transform="matrix(12,0,0,12,223.6,188.5)" />
<use xlink:href="#f0_1p" transform="matrix(12,0,0,12,232.7,188.5)" />
<use xlink:href="#f0_24" transform="matrix(12,0,0,12,245.5,188.5)" />
<use xlink:href="#f0_1s" transform="matrix(12,0,0,12,250.6,188.5)" />
<use xlink:href="#f0_1p" transform="matrix(12,0,0,12,259.7,188.5)" />
<use xlink:href="#f0_1t" transform="matrix(12,0,0,12,267.9,188.5)" />
<use xlink:href="#f0_22" transform="matrix(12,0,0,12,273,188.5)" />
<use xlink:href="#f0_1l" transform="matrix(12,0,0,12,283.6,188.5)" />
<use xlink:href="#f0_23" transform="matrix(12,0,0,12,291.8,188.5)" />
<use xlink:href="#f0_23" transform="matrix(12,0,0,12,298.9,188.5)" />
<use xlink:href="#f0_1p" transform="matrix(12,0,0,12,306.1,188.5)" />
<use xlink:href="#f0_24" transform="matrix(12,0,0,12,314.2,188.5)" />
<use xlink:href="#f0_23" transform="matrix(12,0,0,12,319.3,188.5)" />
<use xlink:href="#f0_27" transform="matrix(12,0,0,12,331,188.5)" />
<use xlink:href="#f0_1t" transform="matrix(12,0,0,12,344.2,188.5)" />
<use xlink:href="#f0_24" transform="matrix(12,0,0,12,349.3,188.5)" />
<use xlink:href="#f0_1s" transform="matrix(12,0,0,12,354.4,188.5)" />
<use xlink:href="#f0_1z" transform="matrix(12,0,0,12,363.6,188.5)" />
<use xlink:href="#f0_25" transform="matrix(12,0,0,12,372.8,188.5)" />
<use xlink:href="#f0_24" transform="matrix(12,0,0,12,381.9,188.5)" />
<use xlink:href="#f0_22" transform="matrix(12,0,0,12,391.6,188.5)" />
<use xlink:href="#f0_1p" transform="matrix(12,0,0,12,397.7,188.5)" />
<use xlink:href="#f0_1w" transform="matrix(12,0,0,12,405.9,188.5)" />
<use xlink:href="#f0_29" transform="matrix(12,0,0,12,410.9,188.5)" />
<use xlink:href="#f0_1t" transform="matrix(12,0,0,12,420.1,188.5)" />
<use xlink:href="#f0_1y" transform="matrix(12,0,0,12,425.2,188.5)" />
<use xlink:href="#f0_1r" transform="matrix(12,0,0,12,434.4,188.5)" />
<use xlink:href="#f0_1z" transform="matrix(12,0,0,12,448.1,188.5)" />
<use xlink:href="#f0_1y" transform="matrix(12,0,0,12,457.3,188.5)" />
<use xlink:href="#f0_24" transform="matrix(12,0,0,12,471,188.5)" />
<use xlink:href="#f0_1s" transform="matrix(12,0,0,12,476.1,188.5)" />
<use xlink:href="#f0_1p" transform="matrix(12,0,0,12,485.3,188.5)" />
<use xlink:href="#f0_12" transform="matrix(12,0,0,12,498,188.5)" />
<use xlink:href="#f0_1l" transform="matrix(12,0,0,12,511.3,188.5)" />
<use xlink:href="#f0_1y" transform="matrix(12,0,0,12,519.4,188.5)" />
<use xlink:href="#f0_1o" transform="matrix(12,0,0,12,528.6,188.5)" />
<use xlink:href="#f0_23" transform="matrix(12,0,0,12,537.7,188.5)" />
<use xlink:href="#f0_20" transform="matrix(12,0,0,12,549.4,188.5)" />
<use xlink:href="#f0_1w" transform="matrix(12,0,0,12,558.6,188.5)" />
<use xlink:href="#f0_1l" transform="matrix(12,0,0,12,563.7,188.5)" />
<use xlink:href="#f0_24" transform="matrix(12,0,0,12,571.8,188.5)" />
<use xlink:href="#f0_1q" transform="matrix(12,0,0,12,576.9,188.5)" />
<use xlink:href="#f0_1z" transform="matrix(12,0,0,12,583,188.5)" />
<use xlink:href="#f0_22" transform="matrix(12,0,0,12,592.2,188.5)" />
<use xlink:href="#f0_1x" transform="matrix(12,0,0,12,598.3,188.5)" />
<use xlink:href="#f0_1t" transform="matrix(12,0,0,12,617.2,188.5)" />
<use xlink:href="#f0_1q" transform="matrix(12,0,0,12,622.3,188.5)" />
<use xlink:href="#f0_24" transform="matrix(12,0,0,12,632.9,188.5)" />
<use xlink:href="#f0_1s" transform="matrix(12,0,0,12,638,188.5)" />
<use xlink:href="#f0_1p" transform="matrix(12,0,0,12,647.2,188.5)" />
<use xlink:href="#f0_29" transform="matrix(12,0,0,12,655.3,188.5)" />
<use xlink:href="#f0_23" transform="matrix(12,0,0,12,669.1,188.5)" />
<use xlink:href="#f0_1z" transform="matrix(12,0,0,12,676.2,188.5)" />
<use xlink:href="#f0_1n" transform="matrix(12,0,0,12,690,188.5)" />
<use xlink:href="#f0_1s" transform="matrix(12,0,0,12,698.1,188.5)" />
<use xlink:href="#f0_1z" transform="matrix(12,0,0,12,707.3,188.5)" />
<use xlink:href="#f0_1z" transform="matrix(12,0,0,12,716.4,188.5)" />
<use xlink:href="#f0_23" transform="matrix(12,0,0,12,725.6,188.5)" />
<use xlink:href="#f0_1p" transform="matrix(12,0,0,12,732.7,188.5)" />
<use xlink:href="#f0_f" transform="matrix(12,0,0,12,740.9,188.5)" />
<use xlink:href="#f0_10" transform="matrix(12,0,0,12,183.9,220)" />
<use xlink:href="#f0_25" transform="matrix(12,0,0,12,194.1,220)" />
<use xlink:href="#f0_22" transform="matrix(12,0,0,12,203.2,220)" />
<use xlink:href="#f0_24" transform="matrix(12,0,0,12,209.4,220)" />
<use xlink:href="#f0_1s" transform="matrix(12,0,0,12,214.4,220)" />
<use xlink:href="#f0_1p" transform="matrix(12,0,0,12,223.6,220)" />
<use xlink:href="#f0_22" transform="matrix(12,0,0,12,231.7,220)" />
<use xlink:href="#f0_1x" transform="matrix(12,0,0,12,237.9,220)" />
<use xlink:href="#f0_1z" transform="matrix(12,0,0,12,252.1,220)" />
<use xlink:href="#f0_22" transform="matrix(12,0,0,12,261.3,220)" />
<use xlink:href="#f0_1p" transform="matrix(12,0,0,12,267.4,220)" />
<use xlink:href="#f0_d" transform="matrix(12,0,0,12,275.5,220)" />
<use xlink:href="#f0_1y" transform="matrix(12,0,0,12,284.7,220)" />
<use xlink:href="#f0_1z" transform="matrix(12,0,0,12,293.9,220)" />
<use xlink:href="#f0_1y" transform="matrix(12,0,0,12,303,220)" />
<use xlink:href="#f0_e" transform="matrix(12,0,0,12,312.2,220)" />
<use xlink:href="#f0_24" transform="matrix(12,0,0,12,318.3,220)" />
<use xlink:href="#f0_1p" transform="matrix(12,0,0,12,323.4,220)" />
<use xlink:href="#f0_1n" transform="matrix(12,0,0,12,331.5,220)" />
<use xlink:href="#f0_1s" transform="matrix(12,0,0,12,339.7,220)" />
<use xlink:href="#f0_1y" transform="matrix(12,0,0,12,348.8,220)" />
<use xlink:href="#f0_1t" transform="matrix(12,0,0,12,358,220)" />
<use xlink:href="#f0_1n" transform="matrix(12,0,0,12,363.1,220)" />
<use xlink:href="#f0_1l" transform="matrix(12,0,0,12,371.2,220)" />
<use xlink:href="#f0_1w" transform="matrix(12,0,0,12,379.4,220)" />
<use xlink:href="#f0_25" transform="matrix(12,0,0,12,389,220)" />
<use xlink:href="#f0_23" transform="matrix(12,0,0,12,398.2,220)" />
<use xlink:href="#f0_1p" transform="matrix(12,0,0,12,405.3,220)" />
<use xlink:href="#f0_22" transform="matrix(12,0,0,12,413.5,220)" />
<use xlink:href="#f0_23" transform="matrix(12,0,0,12,419.6,220)" />
<use xlink:href="#f0_1s" transform="matrix(12,0,0,12,431.3,220)" />
<use xlink:href="#f0_1l" transform="matrix(12,0,0,12,440.5,220)" />
<use xlink:href="#f0_26" transform="matrix(12,0,0,12,448.6,220)" />
<use xlink:href="#f0_1p" transform="matrix(12,0,0,12,457.8,220)" />
<use xlink:href="#f0_24" transform="matrix(12,0,0,12,470.5,220)" />
<use xlink:href="#f0_1s" transform="matrix(12,0,0,12,475.6,220)" />
<use xlink:href="#f0_1p" transform="matrix(12,0,0,12,484.7,220)" />
<use xlink:href="#f0_1l" transform="matrix(12,0,0,12,497.5,220)" />
<use xlink:href="#f0_1m" transform="matrix(12,0,0,12,505.6,220)" />
<use xlink:href="#f0_1t" transform="matrix(12,0,0,12,514.8,220)" />
<use xlink:href="#f0_1w" transform="matrix(12,0,0,12,519.9,220)" />
<use xlink:href="#f0_1t" transform="matrix(12,0,0,12,525,220)" />
<use xlink:href="#f0_24" transform="matrix(12,0,0,12,530,220)" />
<use xlink:href="#f0_29" transform="matrix(12,0,0,12,535.1,220)" />
<use xlink:href="#f0_24" transform="matrix(12,0,0,12,548.9,220)" />
<use xlink:href="#f0_1z" transform="matrix(12,0,0,12,554,220)" />
<use xlink:href="#f0_1l" transform="matrix(12,0,0,12,567.7,220)" />
<use xlink:href="#f0_25" transform="matrix(12,0,0,12,575.9,220)" />
<use xlink:href="#f0_24" transform="matrix(12,0,0,12,585,220)" />
<use xlink:href="#f0_1z" transform="matrix(12,0,0,12,590.1,220)" />
<use xlink:href="#f0_1x" transform="matrix(12,0,0,12,599.3,220)" />
<use xlink:href="#f0_1l" transform="matrix(12,0,0,12,613.6,220)" />
<use xlink:href="#f0_24" transform="matrix(12,0,0,12,621.7,220)" />
<use xlink:href="#f0_1p" transform="matrix(12,0,0,12,626.8,220)" />
<use xlink:href="#f0_24" transform="matrix(12,0,0,12,639.5,220)" />
<use xlink:href="#f0_1s" transform="matrix(12,0,0,12,644.6,220)" />
<use xlink:href="#f0_1p" transform="matrix(12,0,0,12,653.8,220)" />
<use xlink:href="#f0_22" transform="matrix(12,0,0,12,666.5,220)" />
<use xlink:href="#f0_1z" transform="matrix(12,0,0,12,672.6,220)" />
<use xlink:href="#f0_29" transform="matrix(12,0,0,12,681.8,220)" />
<use xlink:href="#f0_1l" transform="matrix(12,0,0,12,690.9,220)" />
<use xlink:href="#f0_1w" transform="matrix(12,0,0,12,699.1,220)" />
<use xlink:href="#f0_24" transform="matrix(12,0,0,12,704.2,220)" />
<use xlink:href="#f0_29" transform="matrix(12,0,0,12,709.3,220)" />
<use xlink:href="#f0_1o" transform="matrix(12,0,0,12,183.9,251.5)" />
<use xlink:href="#f0_1t" transform="matrix(12,0,0,12,193,251.5)" />
<use xlink:href="#f0_23" transform="matrix(12,0,0,12,198.1,251.5)" />
<use xlink:href="#f0_24" transform="matrix(12,0,0,12,205.3,251.5)" />
<use xlink:href="#f0_22" transform="matrix(12,0,0,12,210.4,251.5)" />
<use xlink:href="#f0_1t" transform="matrix(12,0,0,12,216.5,251.5)" />
<use xlink:href="#f0_1m" transform="matrix(12,0,0,12,221.6,251.5)" />
<use xlink:href="#f0_25" transform="matrix(12,0,0,12,230.7,251.5)" />
<use xlink:href="#f0_24" transform="matrix(12,0,0,12,239.9,251.5)" />
<use xlink:href="#f0_1t" transform="matrix(12,0,0,12,245,251.5)" />
<use xlink:href="#f0_1z" transform="matrix(12,0,0,12,250.1,251.5)" />
<use xlink:href="#f0_1y" transform="matrix(12,0,0,12,259.3,251.5)" />
<use xlink:href="#f0_1m" transform="matrix(12,0,0,12,273,251.5)" />
<use xlink:href="#f0_29" transform="matrix(12,0,0,12,282.2,251.5)" />
<use xlink:href="#f0_25" transform="matrix(12,0,0,12,295.9,251.5)" />
<use xlink:href="#f0_23" transform="matrix(12,0,0,12,305.1,251.5)" />
<use xlink:href="#f0_1t" transform="matrix(12,0,0,12,312.2,251.5)" />
<use xlink:href="#f0_1y" transform="matrix(12,0,0,12,317.3,251.5)" />
<use xlink:href="#f0_1r" transform="matrix(12,0,0,12,326.5,251.5)" />
<use xlink:href="#f0_12" transform="matrix(12,0,0,12,340.2,251.5)" />
<use xlink:href="#f0_1l" transform="matrix(12,0,0,12,353.5,251.5)" />
<use xlink:href="#f0_1y" transform="matrix(12,0,0,12,361.6,251.5)" />
<use xlink:href="#f0_1o" transform="matrix(12,0,0,12,370.8,251.5)" />
<use xlink:href="#f0_23" transform="matrix(12,0,0,12,379.9,251.5)" />
<use xlink:href="#f0_f" transform="matrix(12,0,0,12,387.1,251.5)" />
<use xlink:href="#f1_t" transform="matrix(12,0,0,12,183.9,315)" />
<use xlink:href="#f1_19" transform="matrix(12,0,0,12,198.1,315)" />
<use xlink:href="#f1_1m" transform="matrix(12,0,0,12,207.3,315)" />
<use xlink:href="#f1_1c" transform="matrix(12,0,0,12,217.5,315)" />
<use xlink:href="#f1_1q" transform="matrix(12,0,0,12,227.7,315)" />
<use xlink:href="#f1_12" transform="matrix(12,0,0,12,239.4,315)" />
<use xlink:href="#f1_1d" transform="matrix(12,0,0,12,252.7,315)" />
<use xlink:href="#f1_1t" transform="matrix(12,0,0,12,260.8,315)" />
<use xlink:href="#f1_1d" transform="matrix(12,0,0,12,270,315)" />
<use xlink:href="#f1_1m" transform="matrix(12,0,0,12,278.1,315)" />
<use xlink:href="#f1_1s" transform="matrix(12,0,0,12,288.3,315)" />
<use xlink:href="#f1_1d" transform="matrix(12,0,0,12,298.5,315)" />
<use xlink:href="#f1_4" transform="matrix(12,0,0,12,311.2,315)" />
<use xlink:href="#f1_12" transform="matrix(12,0,0,12,331.1,315)" />
<use xlink:href="#f1_1n" transform="matrix(12,0,0,12,344.3,315)" />
<use xlink:href="#f1_1w" transform="matrix(12,0,0,12,353.5,315)" />
<use xlink:href="#f1_19" transform="matrix(12,0,0,12,362.6,315)" />
<use xlink:href="#f1_1k" transform="matrix(12,0,0,12,371.8,315)" />
<use xlink:href="#f1_1r" transform="matrix(12,0,0,12,376.9,315)" />
<use xlink:href="#f1_1w" transform="matrix(12,0,0,12,383,315)" />
<use xlink:href="#f1_x" transform="matrix(12,0,0,12,396.8,315)" />
<use xlink:href="#f1_1n" transform="matrix(12,0,0,12,414.1,315)" />
<use xlink:href="#f1_1c" transform="matrix(12,0,0,12,423.2,315)" />
<use xlink:href="#f1_1d" transform="matrix(12,0,0,12,433.4,315)" />
<use xlink:href="#f1_1k" transform="matrix(12,0,0,12,441.6,315)" />
<use xlink:href="#f1_r" transform="matrix(12,0,0,12,451.2,315)" />
<use xlink:href="#f1_1k" transform="matrix(12,0,0,12,462.4,315)" />
<use xlink:href="#f1_1n" transform="matrix(12,0,0,12,467.5,315)" />
<use xlink:href="#f1_1u" transform="matrix(12,0,0,12,476.7,315)" />
</g>
</g>
<path d="M183.7,319l306.2,0l0,-1.5l-306.2,0l0,1.5Z" class="g1_18" />
<image preserveAspectRatio="none" x="184" y="393" width="605" height="696" xlink:href="img/1.png" />
<defs>
	<path d="M19.6,0l0,26.4c0,0,45.5,0,71.7,14.2c0,0,14.9,7.5,23.9,28.5c0,0,9,21,9,85.4l0,619c0,0,0,116.8,-5.6,143.6c0,0,-5.6,26.9,-17.1,36.5c0,0,-11.5,9.7,-30.8,9.7c0,0,-15.6,0,-50.5,-11.9L9.8,977.8l204.3,83.1l34.3,0l0,-500c0,0,82.7,90.8,131.1,116.4c0,0,48.4,25.7,96.8,25.7c0,0,58.1,0,99.9,-32c0,0,41.7,-32.1,61.8,-100.6c0,0,14.2,-47.7,14.2,-174.4l0,-241.5c0,0,0,-65.2,10.4,-89.2c0,0,7.5,-17.9,25.5,-28.4c0,0,17.9,-10.5,65.8,-10.5L753.9,0L417.5,0l0,26.4l15.7,0c0,0,47.8,0,66.4,14.6c0,0,18.7,14.6,26.2,43.1c0,0,2.2,12,2.2,70.4l0,241.6c0,0,0,111.8,-11.5,146.9c0,0,-11.6,35,-36.8,52.5c0,0,-25.3,17.6,-61,17.6c0,0,-36.5,0,-75.9,-19.4c0,0,-39.4,-19.4,-94.4,-78.3l0,-360.9c0,0,0,-70.4,7.8,-87.7c0,0,7.8,-17.2,29.1,-28.8c0,0,21.3,-11.6,73.5,-11.6L358.8,0Z" 
	id="f0_1s"
	transform="scale(0.001,-0.001)" />

	<path d="M405.9,32.3c0,0,72.3,0,119.2,59.6c0,0,47,59.5,47,204.8c0,0,0,181.7,-78.3,285.9c0,0,-52.9,71.5,-134.8,71.5c0,0,-39.5,0,-79.4,-23.4c0,0,-39.8,-23.5,-64.4,-82.3c0,0,-24.6,-58.9,-24.6,-151.2c0,0,0,-149,59.2,-256.9c0,0,59.3,-108,156.1,-108Zm-32,-52.7c0,0,-154.4,0,-245.3,122.8c0,0,-76.8,103.6,-76.8,232.5c0,0,0,93.9,46.6,186.7c0,0,46.6,92.7,122.7,137.1c0,0,76,44.3,161,44.3c0,0,155,0,249,-117.7c0,0,79.7,-100.6,79.7,-231c0,0,0,-91.7,-43.9,-185.6c0,0,-44,-93.9,-121.2,-141.5c0,0,-77.1,-47.6,-171.8,-47.6Z" 
	id="f0_1z"
	transform="scale(0.001,-0.001)" />

	<path d="M312.2,-20.4c0,0,-62.7,0,-143.3,22.6c0,0,-24.6,7.6,-40.3,7.6c0,0,-17.2,0,-26.9,-19.5l-24.5,0l0,243.4l24.5,0c0,0,20.9,-104.4,79.9,-157.3c0,0,59,-52.9,132.1,-52.9c0,0,51.6,0,84.1,30.1c0,0,32.4,30.2,32.4,72.6c0,0,0,51.4,-36.2,86.4c0,0,-36.1,35.1,-144.4,88.6c0,0,-108.2,53.6,-141.8,96.8c0,0,-33.5,42.5,-33.5,107.4c0,0,0,84.3,57.8,140.9c0,0,57.8,56.7,149.6,56.7c0,0,40.3,0,97.7,-17.1c0,0,38.1,-11.2,50.7,-11.2c0,0,12,0,18.7,5.2c0,0,6.7,5.2,15.7,23.1l24.4,0l0,-232.7l-24.4,0c0,0,-28.4,109.7,-72.8,149.2c0,0,-44.4,39.5,-113,39.5c0,0,-52.2,0,-84.3,-27.5c0,0,-32.1,-27.6,-32.1,-61.1c0,0,0,-41.8,23.9,-71.6c0,0,23.2,-30.5,94.1,-64.8L389.2,381.1c0,0,151.5,-73.8,151.5,-194.5c0,0,0,-93.1,-70.5,-150.1c0,0,-70.6,-56.9,-158,-56.9Z" 
	id="f0_23"
	transform="scale(0.001,-0.001)" />

	<path d="M254.7,-10.6c0,0,-34.3,0,-67.2,18.9c0,0,-32.9,19,-48.6,54.4c0,0,-15.7,35.5,-15.7,109.3l0,459.7l-108.5,0l0,24.4c0,0,41.2,16.4,84.2,55.5c0,0,43.1,39.1,76.9,92.9c0,0,17.3,28.4,48.1,103.9l23.5,0l0,-224.9l159.6,0l0,-51.8l-159.6,0l0,-443.6c0,0,0,-66.5,18.9,-89.6c0,0,18.9,-23.2,48.6,-23.2c0,0,24.5,0,47.5,15.3c0,0,23.1,15.4,35.7,45.3l29.3,0c0,0,-26.2,-73,-74,-109.8c0,0,-47.8,-36.7,-98.7,-36.7Z" 
	id="f0_24"
	transform="scale(0.001,-0.001)" />

	<path d="M479.1,469.3c0,0,-3.7,65.6,-15.7,92.5c0,0,-18.6,41.7,-55.6,65.6c0,0,-37,23.8,-77.4,23.8c0,0,-62,0,-110.9,-48.1c0,0,-49,-48.1,-57.2,-133.8ZM354.9,-20.4c0,0,-123,0,-210.6,95.7c0,0,-87.6,95.7,-87.6,257.5c0,0,0,175.2,89.9,273.2c0,0,89.8,98,225.5,98c0,0,114.8,0,188.7,-75.6c0,0,73.8,-75.5,73.8,-202.1l-472.3,0c0,0,-0.7,-152.3,73.8,-238.9c0,0,74.6,-86.7,175.2,-86.7c0,0,67.1,0,116.7,36.7c0,0,49.6,36.6,83.1,126.6l23.5,-14.9c0,0,-15.7,-102.5,-91,-186.1c0,0,-75.3,-83.4,-188.7,-83.4Z" 
	id="f0_1p"
	transform="scale(0.001,-0.001)" />

	<path d="M399,61.6c0,0,67.7,0,131,68.3l0,351c0,0,-4.5,51.1,-26.8,92.9c0,0,-22.3,41.8,-59.2,63c0,0,-36.8,21.3,-71.8,21.3c0,0,-65.4,0,-116.8,-58.9c0,0,-67.7,-77.6,-67.7,-226.7c0,0,0,-150.6,65.5,-230.7c0,0,65.5,-80.2,145.8,-80.2Zm-69.5,-82c0,0,-111.7,0,-195.2,93.4c0,0,-83.5,93.6,-83.5,240.4c0,0,0,146.8,92.4,268.7c0,0,92.4,121.9,237.7,121.9c0,0,90.2,0,149.1,-57.6l0,127.1c0,0,0,116.8,-5.6,143.6c0,0,-5.7,26.9,-17.6,36.5c0,0,-12,9.7,-29.9,9.7c0,0,-19.5,0,-51.6,-11.9l-9.7,26.4l203.9,83.1l33.7,0l0,-791c0,0,0,-119.9,5.6,-146.3c0,0,5.6,-26.4,17.9,-36.9c0,0,12.3,-10.4,28.8,-10.4c0,0,20.2,0,53.8,12.7l8.3,-26.4l-203.3,-83l-34.3,0l0,98.1C530,77.7,480,25,432.3,2.2c0,0,-47.7,-22.6,-102.8,-22.6Z" 
	id="f0_1o"
	transform="scale(0.001,-0.001)" />

	<path d="M16.6,0l0,26.4c0,0,52.3,0,77.7,16.6c0,0,18.7,12,26.1,38.4c0,0,3.8,12.8,3.8,73.1l0,264c0,0,0,119.7,-4.8,142.5c0,0,-4.9,22.8,-17.9,33.3c0,0,-13,10.4,-32.3,10.4c0,0,-23,0,-52,-11.2L9.8,619.9L216.9,703l31.5,0l0,-154c0,0,85.5,154,175.6,154c0,0,40.9,0,67.7,-25c0,0,26.8,-25.1,26.8,-58c0,0,0,-29.1,-19.3,-49.3c0,0,-19.4,-20.2,-46.2,-20.2c0,0,-26.1,0,-58.4,25.9c0,0,-32.4,25.9,-48.1,25.9c0,0,-13.3,0,-29,-14.9c0,0,-33.4,-30.7,-69.1,-101l0,-327c0,0,0,-56.6,14.1,-85.7c0,0,9.7,-20.1,34.3,-33.7c0,0,24.6,-13.6,70.8,-13.6L367.6,0Z" 
	id="f0_22"
	transform="scale(0.001,-0.001)" />

	<path d="M292,-20.4c0,0,-57.5,0,-99.7,33.1c0,0,-42.1,33.1,-58.5,85.3c0,0,-16.5,52.2,-16.5,147.6l0,304.9c0,0,0,49.1,-10.4,68c0,0,-10.4,18.9,-30.9,29.1c0,0,-19,9.5,-68.5,9.5c-1.8,0,-3.6,0,-5.5,0l0,26.4l239.5,0l0,-457.1c0,0,0,-95.4,33.2,-125.2c0,0,33.2,-29.8,80.1,-29.8c0,0,32.1,0,72.7,20.1c0,0,40.7,20.1,96.6,76.8l0,387.1c0,0,0,58.7,-21.4,79.5c0,0,-21.4,20.7,-89.1,22.2l0,26.4l233.7,0l0,-414.6c0,0,0,-118.7,5.6,-145.2c0,0,5.6,-26.5,18,-36.9c0,0,12.3,-10.5,28.8,-10.5c0,0,23.2,0,52.5,12.7L762.7,62.6l-204.9,-83l-33.7,0l0,144.7c0,0,-88.1,-95.6,-134.3,-120.2c0,0,-46.3,-24.5,-97.8,-24.5Z" 
	id="f0_25"
	transform="scale(0.001,-0.001)" />

	<path d="M411.3,-239.4c0,0,134.2,0,197.9,47.1c0,0,63.8,47.1,63.8,100.6c0,0,0,38.6,-38.1,54.9c0,0,-38.7,16.3,-153.6,19.3c0,0,-167.8,4.6,-258,17.5c0,0,-35,-37.8,-52.9,-70.6c0,0,-17.9,-32.7,-17.9,-60.2c0,0,0,-35.8,43.3,-62.5c0,0,74.6,-46.1,215.5,-46.1ZM379.8,257.2c0,0,56.6,0,93.1,42.3c0,0,36.5,42.4,36.5,133.1c0,0,0,118.3,-51.4,185.2c0,0,-38,49.1,-97.6,49.1c0,0,-55.1,0,-92.4,-43.9c0,0,-37.2,-43.9,-37.2,-134.6c0,0,0,-117.5,50.6,-182.2c0,0,38.8,-49,98.4,-49ZM345.1,-329.4c0,0,-144,0,-243.2,64.9c0,0,-55.9,37.2,-55.9,77.5c0,0,0,17.9,8.1,35.8c0,0,12.7,27.6,52.2,76.8c0,0,5.2,6.7,75.9,80.4c0,0,-38.7,23.1,-54.7,41.4c0,0,-16,18.4,-16,41.5c0,0,0,26.2,21.2,61.3c0,0,21.2,35.1,97.9,99.4c0,0,-62.7,30.5,-96.3,85.2c0,0,-33.6,54.8,-33.6,121c0,0,0,101.3,76.6,174.3c0,0,76.6,72.9,196.1,72.9c0,0,97.9,0,169.6,-47.9l144.9,0c0,0,32.2,0,37.4,-1.8c0,0,5.2,-1.9,7.5,-6.4c0,0,4.4,-6.8,4.4,-24c0,0,0,-19.5,-3.7,-27c0,0,-2.3,-3.7,-7.9,-6c0,0,-5.6,-2.2,-37.9,-2.2l-89,0c0,0,41.7,-53.6,41.7,-137c0,0,0,-95.2,-73.1,-163c0,0,-73.2,-67.7,-196.4,-67.7c0,0,-50.7,0,-103.7,15.2c0,0,-32.9,-28.4,-44.4,-49.7c0,0,-11.6,-21.2,-11.6,-36.1c0,0,0,-12.7,12.3,-24.7c0,0,12.3,-11.9,48.2,-17.1c0,0,20.9,-3.2,104.5,-5.6c0,0,153.7,-3.9,199.3,-11.1c0,0,69.4,-9.6,110.8,-51.3c0,0,41.4,-41.6,41.4,-102.6c0,0,0,-84.1,-79,-157.8c0,0,-116.4,-108.6,-303.6,-108.6Z" 
	id="f0_1r"
	transform="scale(0.001,-0.001)" />

	<path d="M397.8,24.5c0,0,74.5,0,120.7,58c0,0,60.4,75.9,60.4,213.6c0,0,0,156.3,-68.6,240.3c0,0,-47.7,58.1,-113.2,58.1c0,0,-35.8,0,-70.8,-17.9c0,0,-26.9,-13.4,-88.7,-80.3l0,-254.6c0,0,0,-82.6,6.7,-108.6c0,0,10.4,-43.2,51,-75.9c0,0,40.7,-32.7,102.5,-32.7ZM-4.8,-326.5l0,26.4l18.5,0c0,0,0.3,0,0.8,0c5.9,0,42.5,0.7,69.2,15.8c0,0,14.1,8.3,21.9,26.6c0,0,7.8,18.4,7.8,93.5l0,645.3c0,0,0,66.9,-5.9,84.9c0,0,-6,18.1,-19,27c0,0,-13,9,-35.3,9c0,0,-17.8,0,-45.3,-10.4L-0.9,615l210.2,85.1l28.3,0l0,-159.9c0,0,52.9,90.4,106.2,126.6c0,0,53.4,36.2,112.3,36.2c0,0,102.9,0,171.5,-80.5c0,0,84.2,-98.3,84.2,-256.3c0,0,0,-176.6,-101.4,-292.1c0,0,-83.5,-94.5,-210.3,-94.5c0,0,-55.1,0,-95.4,15.7c0,0,-29.8,11.1,-67.1,44.8l0,-208.2c0,0,0,-70.9,8.6,-90.1c0,0,8.5,-19.2,29.7,-30.5c0,0,21.3,-11.4,77.1,-11.4l0,-26.4Z" 
	id="f0_20"
	transform="scale(0.001,-0.001)" />

	<path d="M57.7,0l0,26.4c0,0,47.4,0,64.8,9.7c0,0,17.3,9.8,27.1,32.2c0,0,9.8,22.5,9.8,86.2l0,620.9c0,0,0,115.6,-5.2,142.1c0,0,-5.3,26.5,-16.8,36.1c0,0,-11.6,9.7,-29.5,9.7c0,0,-19.4,0,-49.2,-11.9L46,977.8l203.9,83.1l33.7,0l0,-906.4c0,0,0,-64.4,9.3,-85.4c0,0,9.3,-21,28.7,-31.8c0,0,19.4,-10.9,72.4,-10.9L394,0Z" 
	id="f0_1w"
	transform="scale(0.001,-0.001)" />

	<path d="M285.9,72.4c0,0,56.7,0,149.2,74.5l0,259.9c0,0,-112.7,-44.7,-145.5,-63.3c0,0,-59,-32.8,-84.3,-68.5c0,0,-25.4,-35.8,-25.4,-78.3c0,0,0,-53.6,32.1,-88.9c0,0,32.1,-35.4,73.9,-35.4Zm-68.6,-86c0,0,-70.8,0,-116.7,48.3c0,0,-45.8,48.5,-45.8,127.4c0,0,0,50,22.3,86.5c0,0,30.6,50.6,106.3,95.3c0,0,75.7,44.7,251.7,108.8l0,26.7c0,0,0,101.9,-32.2,139.8c0,0,-32.3,37.9,-93.8,37.9c0,0,-46.7,0,-74.1,-25.3c0,0,-28.2,-25.2,-28.2,-57.9l1.5,-43c0,0,0,-34.2,-17.7,-52.8c0,0,-17.7,-18.5,-46.3,-18.5c0,0,-27.8,0,-45.5,19.3c0,0,-17.6,19.4,-17.6,52.9c0,0,0,64,65.6,117.6c0,0,65.6,53.6,184.1,53.6c0,0,91,0,149.1,-30.5c0,0,44,-23.1,64.9,-72.3c0,0,13.4,-32,13.4,-131l0,-231.6c0,0,0,-97.6,3.7,-119.6c0,0,3.8,-21.9,12.4,-29.4c0,0,8.6,-7.4,19.8,-7.4c0,0,11.9,0,20.9,5.2c0,0,15.7,9.7,60.5,54.4l0,-41.7c0,0,-83.6,-111.7,-159.8,-111.7c0,0,-36.6,0,-58.3,25.1c0,0,-21.6,25.2,-22.4,85.9c0,0,-105.1,-80.9,-132,-93.5c0,0,-40.3,-18.5,-85.8,-18.5Z" 
	id="f0_1l"
	transform="scale(0.001,-0.001)" />

	<path d="M62.6,0l0,26.4l30.5,0c0,0,29.8,0,54.4,15c0,0,24.5,15,33.8,40.5c0,0,9.4,25.5,9.4,99l0,448.8l-133,0l0,53.8l133,0l0,44.7c0,0,0,102,32.9,172.8c0,0,32.9,70.8,100.5,114.3c0,0,67.7,43.6,152.2,43.6c0,0,78.5,0,144.2,-50.6c0,0,43.4,-33.6,43.4,-75.3c0,0,0,-22.3,-19.4,-42.1c0,0,-19.4,-19.7,-41.8,-19.7c0,0,-17.1,0,-36.1,12.3c0,0,-19,12.3,-46.6,52.8c0,0,-27.6,40.6,-50.8,54.7c0,0,-23.1,14.2,-51.4,14.2c0,0,-34.3,0,-58.2,-18.3c0,0,-23.9,-18.2,-34.3,-56.6c0,0,-10.5,-38.3,-10.5,-197.7l0,-49.1l176,0l0,-53.8l-176,0l0,-448.8c0,0,0,-96,20.9,-121.5c0,0,27.6,-33,73.8,-33l61.8,0L471.3,0Z" 
	id="f0_1q"
	transform="scale(0.001,-0.001)" />

	<path d="M23.5,0l0,26.4c0,0,46.9,0,65.6,10.1c0,0,18.6,10.1,28.3,32.2c0,0,9.7,22.1,9.7,85.8l0,261.1c0,0,0,112.9,-6.7,145.8c0,0,-5.3,24.7,-16.5,34c0,0,-11.3,9.3,-30.7,9.3c0,0,-21,0,-50.2,-11.2L11.7,619.9L219,703l32.3,0l0,-145.8c0,0,74.5,74.8,87.9,86c0,0,33.5,28.4,72.2,44.1c0,0,38.7,15.7,76.7,15.7c0,0,64.1,0,110.3,-37.4c0,0,46.1,-37.4,61.8,-108.4c0,0,76.8,89.7,129.7,117.8c0,0,53,28,108.9,28c0,0,54.4,0,96.5,-27.9c0,0,42.2,-28,66.8,-91.3c0,0,16.4,-43.3,16.4,-135.7l0,-293.6c0,0,0,-64.4,9.7,-88.4c0,0,7.4,-16.5,27.5,-28.1c0,0,20.1,-11.6,65.5,-11.6l0,-26.4L843.8,0l0,26.4l14.2,0c0,0,44.1,0,68.7,17.2c0,0,17.1,12,24.6,38.2c0,0,3,12.8,3,72.7l0,293.3c0,0,0,83.4,-20.1,117.6c0,0,-29,47.7,-93.1,47.7c0,0,-39.4,0,-79.3,-19.8c0,0,-39.8,-19.7,-96.4,-73.3l-1.5,-8.2l2,-32.1l0,-325.2c0,0,0,-70.4,7.7,-87.7c0,0,7.8,-17.2,29.3,-28.8c0,0,21.5,-11.6,73.5,-11.6L776.4,0L431.2,0l0,26.4c0,0,56.4,0,77.5,13.5c0,0,21.1,13.5,29.3,40.4c0,0,3.7,12.8,3.7,74.2l0,293.3c0,0,0,83.3,-24.5,120.1c0,0,-32.7,48.1,-91.4,48.1c0,0,-40.1,0,-79.5,-21.8c0,0,-61.6,-33,-95,-74.2l0,-365.5c0,0,0,-67.4,9.2,-87.7c0,0,9.3,-20.2,27.5,-30.3c0,0,18.2,-10.1,73.8,-10.1L361.8,0Z" 
	id="f0_1x"
	transform="scale(0.001,-0.001)" />

	<path d="M336.4,-20.4L117.3,553.7c0,0,-21.6,55.1,-42.5,74.3c0,0,-20.9,19.3,-65.6,29.1l0,26.4l286.4,0l0,-26.4c0,0,-39.5,-3,-51.8,-14.4c0,0,-12.3,-11.3,-12.3,-32.4c0,0,0,-23.5,12.7,-56.7L390.3,162.1L537,481L497.7,581.3c0,0,-17.9,45.5,-47,62.9c0,0,-16.4,10.6,-61.2,12.9l0,26.4l326.6,0l0,-26.4c0,0,-54.1,-2.3,-76.7,-19.9c0,0,-15,-12.3,-15,-39.1c0,0,0,-14.7,5.9,-30.2L785,177.2L928.9,553.7c0,0,14.7,40.7,14.7,64.9c0,0,0,14.3,-14.5,25.6c0,0,-14.5,11.4,-56.9,12.9l0,26.4l216,0l0,-26.4c0,0,-64.9,-9.9,-95.5,-89.3L763.8,-20.4l-30.5,0L562.8,415.2L363.5,-20.4Z" 
	id="f0_27"
	transform="scale(0.001,-0.001)" />

	<path d="M342.2,-20.4c0,0,-116.3,0,-202.9,97.5c0,0,-86.5,97.6,-86.5,263.8c0,0,0,160.9,95.8,261.5c0,0,95.9,100.6,230.1,100.6c0,0,100.7,0,165.6,-53.4c0,0,64.9,-53.4,64.9,-110.9c0,0,0,-28.4,-18.3,-45.9c0,0,-18.3,-17.6,-51,-17.6c0,0,-44,0,-65.9,28.4c0,0,-13.1,15.7,-17.2,59.8c0,0,-4.1,44.2,-30.2,67.3c0,0,-26.1,22.5,-72.2,22.5c0,0,-74.6,0,-120,-55.2c0,0,-60.4,-73,-60.4,-192.9c0,0,0,-122.2,60.1,-215.7c0,0,60,-93.6,162.1,-93.6c0,0,73.1,0,131.2,49.6c0,0,41,34.5,79.8,125.5l21.5,-10c0,0,-27.6,-136,-108.2,-208.7c0,0,-80.5,-72.6,-178.3,-72.6Z" 
	id="f0_1n"
	transform="scale(0.001,-0.001)" />

	<path d="M20.5,0l0,26.4l15,0c0,0,52.1,0,70.4,26.6c0,0,18.3,26.6,18.3,101.5l0,253.3c0,0,0,123.6,-5.6,150.5c0,0,-5.6,27,-17.1,36.7c0,0,-11.5,9.7,-30.8,9.7c0,0,-20.8,0,-49.8,-11.2L9.8,619.9L216.2,703l32.2,0l0,-144.8c0,0,119.7,144.8,228.4,144.8c0,0,55.8,0,96,-27.9c0,0,40.2,-28,64,-92.1c0,0,16.4,-44.7,16.4,-137.1l0,-291.4c0,0,0,-65.2,10.4,-88.4c0,0,8.2,-18.7,26.5,-29.2c0,0,18.3,-10.5,67.7,-10.5L757.8,0L418.5,0l0,26.4l14.2,0c0,0,47.8,0,66.8,14.6c0,0,19,14.6,26.5,43.1c0,0,3,11.2,3,70.4l0,279.3c0,0,0,93.1,-24.1,135.2c0,0,-24,42.1,-81.1,42.1c0,0,-88.1,0,-175.4,-96.9l0,-359.7c0,0,0,-69.7,8.2,-86.2c0,0,10.5,-21.7,28.8,-31.8c0,0,18.3,-10.1,74.4,-10.1L359.8,0Z" 
	id="f0_1y"
	transform="scale(0.001,-0.001)" />

	<path d="M376.4,-20.4L132.8,555.7c0,0,-16.4,40.8,-31.3,58.6c0,0,-14.9,17.8,-38,29.9c0,0,-12.7,6.8,-50,12.9l0,26.4l321.1,0l0,-26.4l-20.8,0c0,0,-29.1,0,-44.3,-14.2c0,0,-15.1,-14.2,-14.5,-38c0,0,-0.6,-26.1,14.9,-62L428.8,165.5L587.6,557.1c0,0,17.2,41.8,17.2,63.4c0,0,0,10.5,-6,17.2c0,0,-8.2,11.2,-20.9,15.3c0,0,-12.6,4.1,-51.4,4.1l0,26.4l223.6,0l0,-26.4c0,0,-38.8,-3.1,-53.7,-15.9c0,0,-26.1,-22.8,-47,-75.8L408.6,-20.4Z" 
	id="f0_26"
	transform="scale(0.001,-0.001)" />

	<path d="M54.8,0l0,26.4c0,0,50,0,67.2,9.7c0,0,17.2,9.8,27.3,32.2c0,0,10.1,22.5,10.1,86.2l0,263c0,0,0,111.6,-6.7,144.6c0,0,-5.2,24,-16.3,33.3c0,0,-11.2,9.3,-30.5,9.3c0,0,-20.8,0,-50.5,-11.2L45,619.9L250.7,703l32.9,0l0,-548.5c0,0,0,-64.4,9.3,-85.8c0,0,9.3,-21.3,27.6,-31.8c0,0,18.2,-10.5,66.7,-10.5L387.2,0Zm167,909.3c0,0,-31.3,0,-53.7,22.4c0,0,-22.4,22.4,-22.4,53.8c0,0,0,31.3,22,53.4c0,0,22,22,54.1,22c0,0,31.4,0,53.4,-22c0,0,22,-22.1,22,-53.4c0,0,0,-31.4,-22,-53.8c0,0,-22,-22.4,-53.4,-22.4Z" 
	id="f0_1t"
	transform="scale(0.001,-0.001)" />

	<path d="M144.9,-329.4c0,0,-44.1,0,-72.5,25.3c0,0,-28.4,25.3,-28.4,58c0,0,0,31.3,20.6,50.2c0,0,20.5,19,56.4,19c0,0,24.7,0,67.4,-16.2c0,0,29.9,-11.1,37.3,-11.1c0,0,22.4,0,48.9,23c0,0,26.5,23.1,53.4,89.4L376.1,28L131,542.4c0,0,-11.2,23.4,-35.8,58.1c0,0,-18.7,26.4,-30.6,35.5c0,0,-17.2,12,-55.2,21.1l0,26.4l318.7,0l0,-26.4l-15.7,0c0,0,-33.6,0,-50.4,-14.7c0,0,-16.7,-14.7,-16.7,-36.5c0,0,0,-29.4,24.6,-81.4L436.7,179.1L588.6,557.3c0,0,12.7,31,12.7,61.2c0,0,0,13.6,-5.2,20.4c0,0,-6,8.3,-18.7,13.3c0,0,-12.6,4.9,-44.7,4.9l0,26.4l221.5,0l0,-26.4c0,0,-27.6,-3,-42.5,-12.1c0,0,-14.9,-9,-32.8,-33.9c0,0,-6.7,-10.5,-25.4,-58L376.4,-129.1c0,0,-40.3,-99.1,-105.6,-149.7c0,0,-65.4,-50.6,-125.9,-50.6Z" 
	id="f0_29"
	transform="scale(0.001,-0.001)" />

	<path d="M396.7,34.2c0,0,67.6,0,125.8,74.4c0,0,58.3,74.4,58.3,216.4c0,0,0,130.9,-58.3,201.2c0,0,-58.2,70.3,-132.5,70.3c0,0,-39.3,0,-78.7,-20.1c0,0,-29.6,-14.9,-75.7,-59.5l0,-407.5c0,0,37.9,-37.2,78.3,-56.2c0,0,40.5,-19,82.8,-19ZM358.1,-20.4c0,0,-59.6,0,-121.1,21.6c0,0,-61.5,21.6,-125.5,65l0,707.3c0,0,0,116.6,-5.6,143.5c0,0,-5.6,26.9,-17.5,36.6c0,0,-11.9,9.7,-29.8,9.7c0,0,-20.8,0,-52.1,-11.9L-3.8,977.8L202,1060.9l33.6,0l0,-496.4c0,0,98.9,138.5,213.4,138.5c0,0,104.8,0,182.8,-89.8c0,0,78.1,-89.8,78.1,-245.5c0,0,0,-181.8,-120.8,-292.9c0,0,-103.5,-95.2,-231,-95.2Z" 
	id="f0_1m"
	transform="scale(0.001,-0.001)" />

	<path d="M191.2,-20.4c0,0,-34.3,0,-58.5,24.1c0,0,-24.2,24.2,-24.2,58.4c0,0,0,35,24.2,58.8c0,0,24.2,23.8,58.5,23.8c0,0,34.9,0,58.7,-24.2c0,0,23.9,-24.2,23.9,-58.4c0,0,0,-34.2,-24.2,-58.4c0,0,-24.2,-24.1,-58.4,-24.1Z" 
	id="f0_f"
	transform="scale(0.001,-0.001)" />

	<path d="M253.3,0l0,27.4l35.6,0c0,0,64,0,90.7,38.7c0,0,16.4,23.9,16.4,108.9l0,773.5l-121.7,0c0,0,-70.9,0,-100.7,-10.5c0,0,-38.8,-14.2,-66.4,-54.4c0,0,-27.6,-40.3,-32.9,-109l-28.3,0L57.7,1012l825.2,0L893.7,774.6l-28.4,0c0,0,-8.2,62.7,-22.3,89.6c0,0,-23,43.2,-61.4,63.7c0,0,-38.3,20.6,-100.8,20.6l-142,0l0,-773.5c0,0,0,-93.2,20.1,-116.3c0,0,28.4,-31.3,87.5,-31.3l35.1,0L681.5,0Z" 
	id="f0_1e"
	transform="scale(0.001,-0.001)" />

	<path d="M30.3,0l0,27.3L485.2,631.7l-225.1,0c0,0,-72,0,-94.2,-9.3c0,0,-22.3,-9.3,-36.3,-35.4c0,0,-20.1,-37.2,-23,-92.2l-30.3,0l4.9,188.7l572.5,0l0,-27.4L195.7,50.8l249.7,0c0,0,78.2,0,106.1,13.1c0,0,27.8,13,45,45.8c0,0,11.9,23.8,20.1,100.5l25.4,0L634.2,0Z" 
	id="f0_2a"
	transform="scale(0.001,-0.001)" />

	<path d="M26.4,0l0,27.4l35.8,0c0,0,62.7,0,91,36.5c0,0,17.9,23.9,17.9,115l0,654.2c0,0,0,77.2,-9.7,101.8c0,0,-7.4,18.5,-30.6,31.9c0,0,-32.8,17.8,-68.6,17.8l-35.8,0l0,27.4l432.2,0l0,-27.4l-36.4,0c0,0,-35.6,0,-67.5,-17.1c0,0,-23,-11.8,-31.9,-36c0,0,-8.9,-24.1,-8.9,-98.4l0,-291.4l469.7,0l0,291.4c0,0,0,77.2,-9.7,101.8c0,0,-7.5,18.5,-31.3,31.9c0,0,-32.1,17.8,-67.9,17.8l-35.8,0l0,27.4l432.2,0l0,-27.4l-35.8,0c0,0,-35.8,0,-67.9,-17.1c0,0,-23.9,-11.8,-32.5,-36c0,0,-8.5,-24.1,-8.5,-98.4l0,-654.2c0,0,0,-76.9,9.6,-101.5c0,0,7.5,-18.7,30.6,-32.1c0,0,32.9,-17.9,68.7,-17.9l35.8,0l0,-27.4L638.9,0l0,27.4l35.8,0c0,0,61.9,0,90.3,36.5c0,0,18.6,23.9,18.6,115l0,308l-469.7,0l0,-308c0,0,0,-76.9,9.6,-101.5c0,0,7.4,-18.7,31.2,-32.1c0,0,31.9,-17.9,67.5,-17.9l36.4,0L458.6,0Z" 
	id="f0_12"
	transform="scale(0.001,-0.001)" />

	<path d="M24.5,0l0,27.4l35.8,0c0,0,62.6,0,91,36.5c0,0,17.9,23.9,17.9,115l0,654.2c0,0,0,76.9,-9.7,101.5c0,0,-7.5,18.7,-30.6,32.1c0,0,-32.1,17.9,-68.6,17.9l-35.8,0l0,27.4l751.9,0L787.1,790.1l-26.4,0c0,0,-19.3,70.9,-45,104.1c0,0,-25.6,33.2,-63.4,48.1c0,0,-37.7,15,-116.9,15l-223.5,0l0,-399l184.8,0c0,0,63.4,0,92.9,28.1c0,0,29.4,28,39.1,110.8l27.4,0l0,-342.3l-27.4,0c0,0,-0.7,59,-15.3,86.6c0,0,-14.5,27.6,-40.2,41.4c0,0,-25.8,13.8,-76.5,13.8l-184.8,0l0,-317.8c0,0,0,-76.9,9.7,-101.5c0,0,7.5,-18.7,31.5,-32.1c0,0,32.9,-17.9,68.8,-17.9l36.7,0L458.6,0Z" 
	id="f0_10"
	transform="scale(0.001,-0.001)" />

	<path d="M82.1,-254.1l0,32.8c0,0,76.5,25.4,118.5,78.8c0,0,41.9,53.4,41.9,113.1c0,0,0,14.2,-6.7,23.9c0,0,-5.2,6.6,-10.4,6.6c0,0,-8.1,0,-35.6,-14.8c0,0,-13.4,-6.7,-28.2,-6.7c0,0,-36.4,0,-57.9,21.5c0,0,-21.6,21.6,-21.6,59.7c0,0,0,36.6,28,62.7c0,0,27.9,26.1,68.1,26.1c0,0,49.2,0,87.5,-42.9c0,0,38.4,-42.9,38.4,-113.7c0,0,0,-76.9,-53.3,-143c0,0,-53.2,-66,-168.7,-104.1Z" 
	id="f0_d"
	transform="scale(0.001,-0.001)" />

	<path d="M61.6,286.5l0,112.4l386.2,0l0,-112.4Z" 
	id="f0_e"
	transform="scale(0.001,-0.001)" />

	<path d="M32.3,0l0,27.4l33.6,0c0,0,44.1,0,71,15.7c0,0,19.4,10.4,29.9,35.8c0,0,8.2,18,8.2,94.2l0,665.8c0,0,0,77.8,-8.2,97.2c0,0,-8.2,19.4,-33.3,34c0,0,-25,14.5,-67.6,14.5l-33.6,0l0,27.4l528.9,0l0,-27.4l-33.4,0c0,0,-43.9,0,-70.7,-15.7c0,0,-19.3,-10.4,-30.4,-35.8c0,0,-8.2,-18,-8.2,-94.2l0,-286.5l356.3,0l0,286.5c0,0,0,77.8,-8.2,97.2c0,0,-8.3,19.4,-33.7,34c0,0,-25.4,14.5,-68,14.5l-32.9,0l0,27.4l529,0l0,-27.4l-32.9,0c0,0,-44.9,0,-71,-15.7c0,0,-19.4,-10.4,-30.6,-35.8c0,0,-8.3,-18,-8.3,-94.2l0,-665.8c0,0,0,-77.8,8.3,-97.2c0,0,8.2,-19.4,33.6,-34c0,0,25.4,-14.5,68,-14.5l32.9,0L1161,0L632,0l0,27.4l32.9,0c0,0,44.9,0,71,15.7c0,0,19.4,10.4,30.7,35.8c0,0,8.2,18,8.2,94.2l0,313.8l-356.3,0l0,-313.8c0,0,0,-77.8,8.5,-97.2c0,0,8.6,-19.4,33.5,-34c0,0,24.9,-14.5,67.3,-14.5l33.4,0L561.2,0Z" 
	id="f1_t"
	transform="scale(0.001,-0.001)" />

	<path d="M349.7,115.4c0,0,37.4,0,86.6,42l0,233.9c0,0,-90.3,-53.1,-134.4,-113.7c0,0,-29.1,-40.3,-29.1,-81.4c0,0,0,-34.5,24.6,-60.6c0,0,18.7,-20.2,52.3,-20.2ZM207.2,-9.7c0,0,-59.7,0,-99.2,39.1c0,0,-39.6,39.2,-39.6,98.2c0,0,0,79.9,68.7,143.8c0,0,68.7,63.9,299.2,169.9l0,70.1c0,0,0,79,-8.5,99.5c0,0,-8.6,20.5,-32.4,35.8c0,0,-23.8,15.3,-53.6,15.3c0,0,-48.3,0,-79.6,-21.7c0,0,-19.5,-13.4,-19.5,-31.3c0,0,0,-15.6,20.9,-38.7c0,0,28.4,-32.1,28.4,-61.9c0,0,0,-36.5,-27.2,-62.2c0,0,-27.3,-25.8,-71.3,-25.8c0,0,-47,0,-78.7,28.4c0,0,-31.7,28.3,-31.7,66.3c0,0,0,53.7,42.5,102.5c0,0,42.5,48.9,118.6,75c0,0,76,26.1,158,26.1c0,0,99.2,0,157,-42.2c0,0,57.8,-42.1,75,-91.4c0,0,10.4,-31.3,10.4,-144l0,-270.7c0,0,0,-47.8,3.7,-60.1c0,0,3.8,-12.3,11.2,-18.3c0,0,7.5,-5.9,17.4,-5.9c0,0,19.2,0,39.2,28.1L738.5,95.9c0,0,-37.3,-55.4,-77.2,-80.5c0,0,-39.9,-25.1,-90.7,-25.1c0,0,-59.6,0,-93.2,27.9c0,0,-33.6,27.9,-41.1,84.5c0,0,-127.6,-112.4,-229.1,-112.4Z" 
	id="f1_19"
	transform="scale(0.001,-0.001)" />

	<path d="M51.8,0l0,26.4c0,0,44,4.5,62.6,28.3c0,0,12.7,16.4,12.7,96.9l0,394c0,0,0,79.3,-14.5,98.7c0,0,-14.6,19.5,-60.8,25.5l0,27.4l284.6,0l0,-90c0,0,53.8,58.4,103.1,84.9c0,0,49.4,26.6,106.2,26.6c0,0,68.1,0,112.9,-37.8c0,0,44.9,-37.7,59.8,-93.7c0,0,12,-42.6,12,-163.7l0,-271.9c0,0,0,-80.5,14.5,-100.2c0,0,14.6,-19.8,60.8,-25L805.7,0l-354,0l0,26.4c0,0,40,5.2,57.4,32.8c0,0,12.1,18.6,12.1,92.4l0,310.9c0,0,0,86,-6.8,108.4c0,0,-6.7,22.4,-22.8,34.7c0,0,-16.1,12.4,-35.5,12.4c0,0,-64.4,0,-119.7,-91.9l0,-374.5c0,0,0,-78.3,14.7,-99.1c0,0,14.7,-20.9,54.7,-26.1L405.8,0Z" 
	id="f1_1m"
	transform="scale(0.001,-0.001)" />

	<path d="M396.7,69.4c0,0,65.5,0,123.5,102.8l0,366.6c0,0,-55.1,105.6,-134.7,105.6c0,0,-27.5,0,-45.3,-14.9c0,0,-27.6,-23.1,-45,-81.2c0,0,-17.5,-58.1,-17.5,-178c0,0,0,-131.8,19.3,-195.1c0,0,19.4,-63.3,52.8,-91.6c0,0,17.1,-14.2,46.9,-14.2ZM332.3,-20.4c0,0,-133.5,0,-211,119.2c0,0,-62.6,97,-62.6,238c0,0,0,112.6,38.7,201.7c0,0,38.8,89.2,106.3,134.7c0,0,67.5,45.5,145,45.5c0,0,50,0,88.7,-19.4c0,0,38.8,-19.3,82.8,-67.6l0,210.2c0,0,0,79.9,-6.7,96.3c0,0,-9,21.6,-26.9,32.1c0,0,-17.9,10.4,-67.1,10.4l0,31.3l309.9,0l0,-802.7c0,0,0,-81.3,4.5,-96.2c0,0,5.9,-24.6,22.5,-36.6c0,0,16.7,-11.9,58.1,-14.9l0,-24.4L520.2,-20.4l0,110.3c0,0,-53,-64.2,-94.3,-87.3c0,0,-41.4,-23,-93.6,-23Z" 
	id="f1_1c"
	transform="scale(0.001,-0.001)" />

	<path d="M311.6,-20.4c0,0,-49.9,0,-133.4,30.9c0,0,-22.4,8.1,-30.6,8.1c0,0,-24.6,0,-41,-37.1l-24.5,0L70.4,231.7l26.4,0c0,0,33.4,-98.2,91.6,-147.4c0,0,58.2,-49.1,110.2,-49.1c0,0,35.6,0,58.2,22c0,0,22.7,22,22.7,53.4c0,0,0,35.8,-22.4,61.9c0,0,-22.3,26.1,-99.8,79.1c0,0,-114,79.1,-147.5,120.9c0,0,-49.2,61.1,-49.2,135c0,0,0,80.6,55.5,145.9c0,0,55.5,65.3,160.5,65.3c0,0,56.6,0,109.5,-27.9c0,0,20.1,-11.2,32.8,-11.2c0,0,13.4,0,21.5,5.5c0,0,8.2,5.6,26.1,31.6l26.4,0L503.6,479.1l-26.3,0c0,0,-45.3,106.1,-93.9,145c0,0,-48.6,38.8,-96.8,38.8c0,0,-30.4,0,-51.9,-20.5c0,0,-21.5,-20.5,-21.5,-47.4c0,0,0,-20.1,14.8,-38.8c0,0,23.8,-30.6,133.2,-104.8c0,0,109.4,-74.2,144,-126.1c0,0,34.6,-51.9,34.6,-116c0,0,0,-58.2,-29.1,-114.2c0,0,-29.1,-56,-82,-85.8c0,0,-53,-29.7,-117.1,-29.7Z" 
	id="f1_1q"
	transform="scale(0.001,-0.001)" />

	<path d="M448.3,514.3c0,0,103.6,0,155.1,19c0,0,51.5,19,80.9,68.6c0,0,29.5,49.6,29.5,129.4c0,0,0,115.6,-54.1,170.8c0,0,-54.1,55.2,-174.1,55.2l-79.8,0l0,-443ZM28.4,0l0,27.4c0,0,69.9,0,94.8,13.1c0,0,24.9,13.1,34.9,34.1c0,0,10.1,20.9,10.1,103.4l0,656.1c0,0,0,82.4,-10.1,103.7c0,0,-10,21.4,-35.3,34.1c0,0,-25.3,12.7,-94.4,12.7l0,27.4l469.9,0c0,0,183.4,0,268.5,-25.3c0,0,85,-25.4,138.7,-93.6c0,0,53.7,-68.2,53.7,-159.9c0,0,0,-111.9,-80.7,-184.9c0,0,-51.5,-46.3,-144.1,-69.4L977.1,135.4c0,0,48,-66.3,68.2,-82.7c0,0,30.8,-23.1,71.3,-25.3l0,-27.4L798.1,0l-326,461.5l-66.3,0l0,-283.5c0,0,0,-82.5,10,-103.8c0,0,10.1,-21.4,35.3,-34.1c0,0,25.3,-12.7,94.5,-12.7L545.6,0Z" 
	id="f1_12"
	transform="scale(0.001,-0.001)" />

	<path d="M458.1,424.4c0,0,0,119.7,-13,164.3c0,0,-13,44.6,-40.4,67.7c0,0,-15.6,13.4,-41.6,13.4c0,0,-38.6,0,-63.1,-38c0,0,-43.8,-66.1,-43.8,-181.4l0,-26ZM357.8,-20.4c0,0,-155.2,0,-235,119.2c0,0,-64.1,96.2,-64.1,238.7c0,0,0,174.6,94.3,277.9c0,0,94.4,103.3,221.2,103.3c0,0,105.9,0,183.8,-86.8c0,0,78,-86.8,83.9,-257.4l-382.8,0c0,0,6.7,-138.9,73.9,-219.6c0,0,51.5,-62,123.9,-62c0,0,44.7,0,81.3,25.1c0,0,36.6,25.1,78.4,90.3l25.3,-16.6c0,0,-56.7,-115.8,-125.3,-164c0,0,-68.6,-48.1,-158.8,-48.1Z" 
	id="f1_1d"
	transform="scale(0.001,-0.001)" />

	<path d="M367.4,-20.4L132.8,520.3c0,0,-42.5,97.4,-66.4,123.4c0,0,-17.1,19.4,-50.7,26.1l0,27.4l370.1,0l0,-27.4c0,0,-35.1,0,-47.7,-12.7c0,0,-17.9,-16.4,-17.9,-38.8c0,0,0,-27.6,32.8,-103.7L467.5,253l91.8,225.8c0,0,39.5,97,39.5,137.3c0,0,0,23.1,-16.8,37.6c0,0,-16.8,14.6,-59.3,16.1l0,27.4l227.4,0l0,-27.4c0,0,-32.8,-4.5,-53.7,-24.6c0,0,-20.9,-20.1,-62.6,-118.4L401.8,-20.4Z" 
	id="f1_1t"
	transform="scale(0.001,-0.001)" />

	<path d="M304.3,-20.4c0,0,-59,0,-104.8,36c0,0,-45.9,36.1,-61.6,84.5c0,0,-15.7,48.5,-15.7,169.1l0,276.4c0,0,0,79.3,-14.5,98.7c0,0,-14.6,19.5,-60.8,25.5l0,27.4l284.6,0l0,-476c0,0,0,-74.5,7,-96.1c0,0,7.1,-21.6,22.4,-32.8c0,0,15.3,-11.1,35.4,-11.1c0,0,26.8,0,48.4,14.1c0,0,29.8,19.4,71.6,78.2l0,372.1c0,0,0,79.3,-14.6,98.7c0,0,-14.5,19.5,-60.7,25.5l0,27.4l284.5,0l0,-545.6c0,0,0,-80.2,14.9,-100.1c0,0,14.9,-19.9,60.4,-25.1L800.8,0L516.3,0l0,93.3c0,0,-50,-59.7,-100,-86.8c0,0,-50,-26.9,-112,-26.9Z" 
	id="f1_1s"
	transform="scale(0.001,-0.001)" />

	<path d="M527.7,91.9c0,0,28.4,0,63.9,12.3c0,0,35.4,12.3,77.3,37c0,0,-180.1,184.3,-275.7,382.8c0,0,-59.7,-25.4,-84.3,-53.7c0,0,-35.1,-41.8,-35.1,-93.3c0,0,0,-70.2,40.7,-139.6c0,0,40.7,-69.4,98.2,-107.4c0,0,57.5,-38.1,115,-38.1Zm44.9,557.9c0,0,77.9,29.1,104.7,62.2c0,0,26.7,33.2,26.7,80.1c0,0,0,83.5,-44,140.9c0,0,-29,37.9,-71.5,37.9c0,0,-35,0,-60,-27.5c0,0,-24.9,-27.6,-24.9,-74.5c0,0,0,-36.5,11.9,-78.3c0,0,12.1,-41.7,57.1,-140.8ZM369.6,-23.4c0,0,-141.8,0,-225.4,76.8c0,0,-83.6,76.8,-83.6,180.5c0,0,0,111.9,79.8,194.7c0,0,79.8,82.8,231.9,143.2c0,0,-19.4,48.5,-29.2,94.8c0,0,-9.7,46.2,-9.7,89.5c0,0,0,119.4,83.8,198.9c0,0,83.9,79.5,214.2,79.5c0,0,105.1,0,166.6,-52.5c0,0,61.5,-52.6,61.5,-122.6c0,0,0,-84.2,-62.7,-144.2c0,0,-62.7,-60,-198.5,-109.9c0,0,84.2,-148.4,246.8,-320.1c0,0,109.2,122.6,109.2,210.3c0,0,0,31.2,-21.6,53.1c0,0,-21.7,21.9,-63.4,26.3l0,29.4l310.9,0l0,-29.4c0,0,-52.3,-7.4,-82.2,-30.8c0,0,-29.9,-23.5,-77.8,-109c0,0,-47.8,-85.6,-134.5,-191.2c0,0,76.1,-69.1,123.9,-96.1c0,0,33.6,-18.7,65.7,-18.7c0,0,55.2,0,100,72.3L1205.6,185c0,0,-61.1,-119.9,-130.4,-170.5c0,0,-52.9,-37.9,-120.8,-37.9c0,0,-58.1,0,-110.6,24.9c0,0,-52.6,24.9,-127.9,93.4c0,0,-93.3,-62.5,-175.4,-90.4c0,0,-82.1,-27.9,-170.9,-27.9Z" 
	id="f1_4"
	transform="scale(0.001,-0.001)" />

	<path d="M381,31.3c0,0,33.4,0,55.7,18.6c0,0,28.9,25.4,38.6,70.9c0,0,14.8,70.8,14.8,286.3c0,0,0,126.8,-14.1,174.1c0,0,-14.1,47.4,-41.6,69c0,0,-19.3,15.7,-50.5,15.7c0,0,-37.9,0,-65,-28.7c0,0,-27.1,-28.7,-35.6,-113.4c0,0,-8.5,-84.6,-8.5,-235.2c0,0,0,-79.8,10.4,-149.2c0,0,8.1,-52.9,34.9,-80.5c0,0,26.7,-27.6,60.9,-27.6Zm1.8,-51.7c0,0,-157.2,0,-242.1,110.3c0,0,-85,110.3,-85,255.8c0,0,0,149.9,86.8,261.5c0,0,86.8,111.5,238.1,111.5c0,0,90.9,0,169.1,-47c0,0,78.2,-47,118.8,-133.5c0,0,40.6,-86.6,40.6,-189.5c0,0,0,-148.5,-75.2,-248.4c0,0,-90.9,-120.7,-251.1,-120.7Z" 
	id="f1_1n"
	transform="scale(0.001,-0.001)" />

	<path d="M181.6,-329.4c0,0,-61.8,0,-100.2,35.5c0,0,-38.4,35.4,-38.4,85.4c0,0,0,43.3,26.4,71.7c0,0,26.5,28.4,65.2,28.4c0,0,37.2,0,59.9,-23.9c0,0,22.8,-24,23.5,-74c0,0,0.8,-28.4,6.8,-36.7c0,0,5.9,-8.2,17.1,-8.2c0,0,17.9,0,38.1,21.7c0,0,29.8,31.3,70.1,143.3L372,-29L146.5,488.4c0,0,-50.7,117.2,-75,144c0,0,-24.2,26.9,-58.5,37.4l0,27.4l371.3,0l0,-27.4c0,0,-36.5,-1.5,-51.4,-14.2c0,0,-15,-12.6,-15,-30.5c0,0,0,-28.3,37.3,-111.8L474.8,239l81.3,211.8c0,0,44,112.8,44,156.9c0,0,0,27.7,-18.3,44.1c0,0,-18.3,16.5,-64.5,18l0,27.4l232.6,0l0,-27.4c0,0,-34.3,-3.7,-55.9,-26.5c0,0,-21.7,-22.8,-72.4,-154.9L422.4,-28.2c0,0,-75.3,-193.9,-111.8,-238.6c0,0,-51.5,-62.6,-129,-62.6Z" 
	id="f1_1w"
	transform="scale(0.001,-0.001)" />

	<path d="M32.3,0l0,26.4c0,0,46,1.5,68.2,27c0,0,14.9,17.2,14.9,91.3l0,722.6c0,0,0,73.2,-17.1,93.8c0,0,-17.1,20.5,-66,23.5l0,27.4l292.3,0l0,-867.3c0,0,0,-74.1,17.3,-94.7c0,0,17.3,-20.6,67.8,-23.6L409.7,0Z" 
	id="f1_1k"
	transform="scale(0.001,-0.001)" />

	<path d="M297.7,-9.7c0,0,-66.4,0,-112.3,36.9c0,0,-46,36.9,-58.7,82.4c0,0,-7.4,25.4,-7.4,137.4l0,376.8l-90.9,0l0,26.1c0,0,94.1,66.3,160.1,139.3c0,0,66.1,73,115.4,163.2l24.6,0l0,-255.2l165.3,0l0,-73.4l-165.3,0l0,-430.4c0,0,0,-60.4,5.6,-77.9c0,0,5.6,-17.6,19.8,-28.4c0,0,14.2,-10.8,26.1,-10.8c0,0,48.5,0,91.7,74.3l22.4,-16.5c0,0,-60.5,-143.8,-196.4,-143.8Z" 
	id="f1_1r"
	transform="scale(0.001,-0.001)" />

	<path d="M30,0l0,27.4l10.5,0c0,0,0.4,0,1.3,0c6.4,0,35.8,0.6,61.8,10.8c0,0,29.3,11.6,44.3,31.1c0,0,15.1,19.5,23.3,54.7c0,0,1.5,8.3,1.5,76.4l0,640.5c0,0,0,76.7,-8.2,95.7c0,0,-8.3,19,-33.9,33.5c0,0,-25.5,14.5,-68.3,14.5l-32.3,0l0,27.4l414.5,0l284,-666L1003,1012l411.6,0l0,-27.4l-32.9,0c0,0,-44.8,0,-71.7,-15.6c0,0,-18.7,-10.4,-29.9,-35c0,0,-8.2,-17.9,-8.2,-93.1l0,-667.8c0,0,0,-77.8,8.2,-97.2c0,0,8.2,-19.4,33.6,-34c0,0,25.4,-14.5,68,-14.5l32.9,0l0,-27.4L885.7,0l0,27.4l32.8,0c0,0,44.9,0,71.8,15.7c0,0,18.7,10.4,29.9,35.8c0,0,8.2,18,8.2,94.2l0,749.7L640.8,0L622.9,0L229.4,915.8l0,-712.4c0,0,0,-74.6,3.7,-91.8c0,0,9.7,-37.2,42.2,-60.7c0,0,32.4,-23.5,101.8,-23.5L377.1,0Z" 
	id="f1_x"
	transform="scale(0.001,-0.001)" />

	<path d="M34.2,0l0,27.4l33.7,0c0,0,44.1,0,71,15.7c0,0,19.4,10.4,29.9,35.8c0,0,8.2,18,8.2,94.2l0,665.8c0,0,0,77.8,-8.2,97.2c0,0,-8.3,19.4,-33.3,34c0,0,-25,14.5,-67.6,14.5l-33.7,0l0,27.4l853.1,0l0,-290.4l-30.3,0c0,0,-10.5,102.1,-53.4,151.3c0,0,-42.9,49.2,-124.2,69.3c0,0,-44.7,11.1,-165.6,11.1l-93.4,0l0,-415.5l28.4,0c0,0,67.1,0,109.6,20.1c0,0,42.5,20.2,72,67.9c0,0,29.5,47.7,38.4,129l26.4,0l0,-507.4l-26.4,0c0,0,-14.2,143.9,-77.2,189.8c0,0,-63,45.8,-142.8,45.8l-28.4,0l0,-309.9c0,0,0,-77.8,8.6,-97.2c0,0,8.5,-19.4,33.4,-34c0,0,25,-14.5,67.3,-14.5l33.5,0L563.2,0Z" 
	id="f1_r"
	transform="scale(0.001,-0.001)" />

	<path d="M325.4,-20.4L139.1,484.4c0,0,-41.8,115.9,-70.9,151c0,0,-18.7,23.9,-56.7,34.4l0,27.4l352.9,0l0,-27.4c0,0,-35.8,0,-49.2,-10.5c0,0,-13.5,-10.4,-13.5,-23.9c0,0,0,-12.7,23.9,-76.1l102.1,-272L526,558.7l-6.9,18.6c0,0,-22.4,55.9,-39.2,71.2c0,0,-16.8,15.3,-51.8,21.3l0,27.4l357.2,0l0,-27.4c0,0,-41.8,-2.3,-53,-11.6c0,0,-11.2,-9.3,-11.2,-26.5c0,0,0,-16.4,21.6,-72.4l98.6,-272l89.4,250.4c0,0,19.4,53.7,19.4,73.1c0,0,0,29.1,-14.2,42.6c0,0,-14.1,13.4,-55.2,16.4l0,27.4l207,0l0,-27.4c0,0,-34.3,-4.5,-54.4,-24.3c0,0,-20.2,-19.8,-52.2,-112.4L785.4,-20.4l-42.5,0L551.5,490.7L364.2,-20.4Z" 
	id="f1_1u"
	transform="scale(0.001,-0.001)" />


</defs>
</svg>