<?xml version="1.0" encoding="UTF-8" standalone="no"?>
<!DOCTYPE svg PUBLIC "-//W3C//DTD SVG 1.1//EN"
"http://www.w3.org/Graphics/SVG/1.1/DTD/svg11.dtd">
<svg viewBox="0 0 909 1286" version="1.1" xmlns="http://www.w3.org/2000/svg" xmlns:xlink="http://www.w3.org/1999/xlink">
<defs>
<clipPath id="c0_3"><path d="M770,1223.8v-18.9h9.2v18.9Z" /></clipPath>
<clipPath id="c1_3"><path d="M27.5,1223.8V27.5h854V1223.8Z" /></clipPath>
</defs>
<g clip-path="url(#c0_3)">
<g fill="#000000" >
<use xlink:href="#f0_i" transform="matrix(12,0,0,12,770,1221.7)" />
</g>
</g>
<g clip-path="url(#c1_3)">
<g fill="#000000" >
<use xlink:href="#f1_j" transform="matrix(15.8,0,0,15.8,129.8,130.9)" />
<use xlink:href="#f1_9" transform="matrix(15.8,0,0,15.8,142,130.9)" />
<use xlink:href="#f1_15" transform="matrix(15.8,0,0,15.8,157.3,130.9)" />
<use xlink:href="#f1_1e" transform="matrix(15.8,0,0,15.8,173.6,130.9)" />
<use xlink:href="#f1_1c" transform="matrix(15.8,0,0,15.8,184.5,130.9)" />
<use xlink:href="#f1_1h" transform="matrix(15.8,0,0,15.8,195.3,130.9)" />
<use xlink:href="#f1_1n" transform="matrix(15.8,0,0,15.8,208.9,130.9)" />
<use xlink:href="#f1_1i" transform="matrix(15.8,0,0,15.8,222.5,130.9)" />
<use xlink:href="#f1_1c" transform="matrix(15.8,0,0,15.8,229.3,130.9)" />
<use xlink:href="#f1_1a" transform="matrix(15.8,0,0,15.8,240.1,130.9)" />
<use xlink:href="#f1_1l" transform="matrix(15.8,0,0,15.8,252.4,130.9)" />
<use xlink:href="#f1_18" transform="matrix(15.8,0,0,15.8,265.3,130.9)" />
<use xlink:href="#f1_1h" transform="matrix(15.8,0,0,15.8,289.7,130.9)" />
<use xlink:href="#f1_1i" transform="matrix(15.8,0,0,15.8,303.3,130.9)" />
<use xlink:href="#f1_1t" transform="matrix(15.8,0,0,15.8,310.1,130.9)" />
<use xlink:href="#f1_1e" transform="matrix(15.8,0,0,15.8,318.2,130.9)" />
<use xlink:href="#f1_1p" transform="matrix(15.8,0,0,15.8,329.1,130.9)" />
<use xlink:href="#f1_1a" transform="matrix(15.8,0,0,15.8,342.7,130.9)" />
<use xlink:href="#f1_1p" transform="matrix(15.8,0,0,15.8,354.9,130.9)" />
<use xlink:href="#f1_1e" transform="matrix(15.8,0,0,15.8,368.5,130.9)" />
<use xlink:href="#f1_1r" transform="matrix(15.8,0,0,15.8,379.4,130.9)" />
<use xlink:href="#f0_n" transform="matrix(13.9,0,0,13.9,157.3,156.2)" />
<use xlink:href="#f0_d" transform="matrix(13.9,0,0,13.9,168,156.2)" />
<use xlink:href="#f0_g" transform="matrix(13.9,0,0,13.9,173.3,156.2)" />
<use xlink:href="#f0_d" transform="matrix(13.9,0,0,13.9,184,156.2)" />
<use xlink:href="#f0_u" transform="matrix(13.9,0,0,13.9,190.3,156.2)" />
<use xlink:href="#f0_1l" transform="matrix(13.9,0,0,13.9,205.7,156.2)" />
<use xlink:href="#f0_22" transform="matrix(13.9,0,0,13.9,216.4,156.2)" />
<use xlink:href="#f0_23" transform="matrix(13.9,0,0,13.9,224.8,156.2)" />
<use xlink:href="#f0_21" transform="matrix(13.9,0,0,13.9,230.7,156.2)" />
<use xlink:href="#f0_1k" transform="matrix(13.9,0,0,13.9,237.8,156.2)" />
<use xlink:href="#f0_1m" transform="matrix(13.9,0,0,13.9,247.3,156.2)" />
<use xlink:href="#f0_23" transform="matrix(13.9,0,0,13.9,256.8,156.2)" />
<use xlink:href="#f0_n" transform="matrix(13.9,0,0,13.9,157.3,180.8)" />
<use xlink:href="#f0_d" transform="matrix(13.9,0,0,13.9,168,180.8)" />
<use xlink:href="#f0_h" transform="matrix(13.9,0,0,13.9,173.3,180.8)" />
<use xlink:href="#f0_d" transform="matrix(13.9,0,0,13.9,184,180.8)" />
<use xlink:href="#f0_11" transform="matrix(13.9,0,0,13.9,190.3,180.8)" />
<use xlink:href="#f0_1k" transform="matrix(13.9,0,0,13.9,205.7,180.8)" />
<use xlink:href="#f0_1x" transform="matrix(13.9,0,0,13.9,215.2,180.8)" />
<use xlink:href="#f0_1n" transform="matrix(13.9,0,0,13.9,225.9,180.8)" />
<use xlink:href="#f0_22" transform="matrix(13.9,0,0,13.9,236.6,180.8)" />
<use xlink:href="#f0_d" transform="matrix(13.9,0,0,13.9,245,180.8)" />
<use xlink:href="#f0_u" transform="matrix(13.9,0,0,13.9,250.3,180.8)" />
<use xlink:href="#f0_12" transform="matrix(13.9,0,0,13.9,265.8,180.8)" />
<use xlink:href="#f0_19" transform="matrix(13.9,0,0,13.9,278.2,180.8)" />
<use xlink:href="#f0_1v" transform="matrix(13.9,0,0,13.9,290.1,180.8)" />
<use xlink:href="#f0_1k" transform="matrix(13.9,0,0,13.9,296.1,180.8)" />
<use xlink:href="#f0_23" transform="matrix(13.9,0,0,13.9,305.6,180.8)" />
<use xlink:href="#f0_1p" transform="matrix(13.9,0,0,13.9,311.5,180.8)" />
<use xlink:href="#f0_1y" transform="matrix(13.9,0,0,13.9,318.6,180.8)" />
<use xlink:href="#f0_21" transform="matrix(13.9,0,0,13.9,329.3,180.8)" />
<use xlink:href="#f0_1w" transform="matrix(13.9,0,0,13.9,336.5,180.8)" />
<use xlink:href="#f0_n" transform="matrix(13.9,0,0,13.9,157.3,205.3)" />
<use xlink:href="#f0_d" transform="matrix(13.9,0,0,13.9,168,205.3)" />
<use xlink:href="#f0_i" transform="matrix(13.9,0,0,13.9,173.3,205.3)" />
<use xlink:href="#f0_d" transform="matrix(13.9,0,0,13.9,184,205.3)" />
<use xlink:href="#f0_11" transform="matrix(13.9,0,0,13.9,190.3,205.3)" />
<use xlink:href="#f0_1k" transform="matrix(13.9,0,0,13.9,205.7,205.3)" />
<use xlink:href="#f0_1x" transform="matrix(13.9,0,0,13.9,215.2,205.3)" />
<use xlink:href="#f0_1n" transform="matrix(13.9,0,0,13.9,225.9,205.3)" />
<use xlink:href="#f0_22" transform="matrix(13.9,0,0,13.9,236.6,205.3)" />
<use xlink:href="#f0_d" transform="matrix(13.9,0,0,13.9,245,205.3)" />
<use xlink:href="#f0_u" transform="matrix(13.9,0,0,13.9,250.3,205.3)" />
<use xlink:href="#f0_12" transform="matrix(13.9,0,0,13.9,265.8,205.3)" />
<use xlink:href="#f0_u" transform="matrix(13.9,0,0,13.9,278.2,205.3)" />
<use xlink:href="#f0_22" transform="matrix(13.9,0,0,13.9,293.7,205.3)" />
<use xlink:href="#f0_22" transform="matrix(13.9,0,0,13.9,302,205.3)" />
<use xlink:href="#f0_1o" transform="matrix(13.9,0,0,13.9,310.3,205.3)" />
<use xlink:href="#f0_23" transform="matrix(13.9,0,0,13.9,319.8,205.3)" />
<use xlink:href="#f0_1s" transform="matrix(13.9,0,0,13.9,325.8,205.3)" />
<use xlink:href="#f0_29" transform="matrix(13.9,0,0,13.9,331.7,205.3)" />
<use xlink:href="#f0_1k" transform="matrix(13.9,0,0,13.9,341.2,205.3)" />
<use xlink:href="#f0_23" transform="matrix(13.9,0,0,13.9,350.7,205.3)" />
<use xlink:href="#f0_1s" transform="matrix(13.9,0,0,13.9,356.6,205.3)" />
<use xlink:href="#f0_1y" transform="matrix(13.9,0,0,13.9,362.6,205.3)" />
<use xlink:href="#f0_1x" transform="matrix(13.9,0,0,13.9,373.3,205.3)" />
<use xlink:href="#f0_n" transform="matrix(13.9,0,0,13.9,157.3,229.9)" />
<use xlink:href="#f0_d" transform="matrix(13.9,0,0,13.9,168,229.9)" />
<use xlink:href="#f0_j" transform="matrix(13.9,0,0,13.9,173.3,229.9)" />
<use xlink:href="#f0_d" transform="matrix(13.9,0,0,13.9,184,229.9)" />
<use xlink:href="#f0_y" transform="matrix(13.9,0,0,13.9,190.3,229.9)" />
<use xlink:href="#f0_1b" transform="matrix(13.9,0,0,13.9,203.4,229.9)" />
<use xlink:href="#f0_w" transform="matrix(13.9,0,0,13.9,217.6,229.9)" />
<use xlink:href="#f0_h" transform="matrix(13.9,0,0,13.9,231.9,229.9)" />
<use xlink:href="#f0_h" transform="matrix(13.9,0,0,13.9,242.6,229.9)" />
<use xlink:href="#f0_i" transform="matrix(13.9,0,0,13.9,253.2,229.9)" />
<use xlink:href="#f0_w" transform="matrix(13.9,0,0,13.9,269.3,229.9)" />
<use xlink:href="#f0_1y" transform="matrix(13.9,0,0,13.9,283.5,229.9)" />
<use xlink:href="#f0_1w" transform="matrix(13.9,0,0,13.9,294.2,229.9)" />
<use xlink:href="#f0_1z" transform="matrix(13.9,0,0,13.9,310.9,229.9)" />
<use xlink:href="#f0_1k" transform="matrix(13.9,0,0,13.9,321.5,229.9)" />
<use xlink:href="#f0_23" transform="matrix(13.9,0,0,13.9,331,229.9)" />
<use xlink:href="#f0_1s" transform="matrix(13.9,0,0,13.9,337,229.9)" />
<use xlink:href="#f0_1l" transform="matrix(13.9,0,0,13.9,342.9,229.9)" />
<use xlink:href="#f0_1s" transform="matrix(13.9,0,0,13.9,353.6,229.9)" />
<use xlink:href="#f0_1v" transform="matrix(13.9,0,0,13.9,359.5,229.9)" />
<use xlink:href="#f0_1s" transform="matrix(13.9,0,0,13.9,365.5,229.9)" />
<use xlink:href="#f0_23" transform="matrix(13.9,0,0,13.9,371.4,229.9)" />
<use xlink:href="#f0_28" transform="matrix(13.9,0,0,13.9,377.4,229.9)" />
<use xlink:href="#f0_n" transform="matrix(13.9,0,0,13.9,157.3,254.5)" />
<use xlink:href="#f0_d" transform="matrix(13.9,0,0,13.9,168,254.5)" />
<use xlink:href="#f0_k" transform="matrix(13.9,0,0,13.9,173.3,254.5)" />
<use xlink:href="#f0_d" transform="matrix(13.9,0,0,13.9,184,254.5)" />
<use xlink:href="#f0_11" transform="matrix(13.9,0,0,13.9,190.3,254.5)" />
<use xlink:href="#f0_1k" transform="matrix(13.9,0,0,13.9,205.7,254.5)" />
<use xlink:href="#f0_1x" transform="matrix(13.9,0,0,13.9,215.2,254.5)" />
<use xlink:href="#f0_1n" transform="matrix(13.9,0,0,13.9,225.9,254.5)" />
<use xlink:href="#f0_22" transform="matrix(13.9,0,0,13.9,236.6,254.5)" />
<use xlink:href="#f0_d" transform="matrix(13.9,0,0,13.9,245,254.5)" />
<use xlink:href="#f0_u" transform="matrix(13.9,0,0,13.9,250.3,254.5)" />
<use xlink:href="#f0_12" transform="matrix(13.9,0,0,13.9,265.8,254.5)" />
<use xlink:href="#f0_x" transform="matrix(13.9,0,0,13.9,278.2,254.5)" />
<use xlink:href="#f0_1s" transform="matrix(13.9,0,0,13.9,293.7,254.5)" />
<use xlink:href="#f0_22" transform="matrix(13.9,0,0,13.9,299.6,254.5)" />
<use xlink:href="#f0_23" transform="matrix(13.9,0,0,13.9,307.9,254.5)" />
<use xlink:href="#f0_21" transform="matrix(13.9,0,0,13.9,313.9,254.5)" />
<use xlink:href="#f0_1s" transform="matrix(13.9,0,0,13.9,321,254.5)" />
<use xlink:href="#f0_1l" transform="matrix(13.9,0,0,13.9,326.9,254.5)" />
<use xlink:href="#f0_24" transform="matrix(13.9,0,0,13.9,337.7,254.5)" />
<use xlink:href="#f0_23" transform="matrix(13.9,0,0,13.9,348.4,254.5)" />
<use xlink:href="#f0_1s" transform="matrix(13.9,0,0,13.9,354.3,254.5)" />
<use xlink:href="#f0_1y" transform="matrix(13.9,0,0,13.9,360.2,254.5)" />
<use xlink:href="#f0_1x" transform="matrix(13.9,0,0,13.9,370.9,254.5)" />
<use xlink:href="#f0_n" transform="matrix(13.9,0,0,13.9,157.3,279)" />
<use xlink:href="#f0_d" transform="matrix(13.9,0,0,13.9,168,279)" />
<use xlink:href="#f0_l" transform="matrix(13.9,0,0,13.9,173.3,279)" />
<use xlink:href="#f0_d" transform="matrix(13.9,0,0,13.9,184,279)" />
<use xlink:href="#f0_1c" transform="matrix(13.9,0,0,13.9,190.3,279)" />
<use xlink:href="#f0_1w" transform="matrix(13.9,0,0,13.9,202.2,279)" />
<use xlink:href="#f0_1k" transform="matrix(13.9,0,0,13.9,218.8,279)" />
<use xlink:href="#f0_21" transform="matrix(13.9,0,0,13.9,228.3,279)" />
<use xlink:href="#f0_23" transform="matrix(13.9,0,0,13.9,235.5,279)" />
<use xlink:href="#f0_19" transform="matrix(13.9,0,0,13.9,246.7,279)" />
<use xlink:href="#f0_24" transform="matrix(13.9,0,0,13.9,258.6,279)" />
<use xlink:href="#f0_1l" transform="matrix(13.9,0,0,13.9,269.3,279)" />
<use xlink:href="#f0_1v" transform="matrix(13.9,0,0,13.9,280,279)" />
<use xlink:href="#f0_1s" transform="matrix(13.9,0,0,13.9,286,279)" />
<use xlink:href="#f0_22" transform="matrix(13.9,0,0,13.9,291.9,279)" />
<use xlink:href="#f0_1r" transform="matrix(13.9,0,0,13.9,300.2,279)" />
<use xlink:href="#f0_1s" transform="matrix(13.9,0,0,13.9,310.9,279)" />
<use xlink:href="#f0_1x" transform="matrix(13.9,0,0,13.9,316.9,279)" />
<use xlink:href="#f0_1q" transform="matrix(13.9,0,0,13.9,327.6,279)" />
<use xlink:href="#f0_1d" transform="matrix(13.9,0,0,13.9,343.6,279)" />
<use xlink:href="#f0_21" transform="matrix(13.9,0,0,13.9,356.7,279)" />
<use xlink:href="#f0_1k" transform="matrix(13.9,0,0,13.9,363.8,279)" />
<use xlink:href="#f0_1x" transform="matrix(13.9,0,0,13.9,373.3,279)" />
<use xlink:href="#f0_22" transform="matrix(13.9,0,0,13.9,384,279)" />
<use xlink:href="#f0_1k" transform="matrix(13.9,0,0,13.9,392.3,279)" />
<use xlink:href="#f0_1m" transform="matrix(13.9,0,0,13.9,401.8,279)" />
<use xlink:href="#f0_23" transform="matrix(13.9,0,0,13.9,411.3,279)" />
<use xlink:href="#f0_1s" transform="matrix(13.9,0,0,13.9,417.3,279)" />
<use xlink:href="#f0_1y" transform="matrix(13.9,0,0,13.9,423.2,279)" />
<use xlink:href="#f0_1x" transform="matrix(13.9,0,0,13.9,433.9,279)" />
<use xlink:href="#f0_n" transform="matrix(13.9,0,0,13.9,157.3,303.6)" />
<use xlink:href="#f0_d" transform="matrix(13.9,0,0,13.9,168,303.6)" />
<use xlink:href="#f0_m" transform="matrix(13.9,0,0,13.9,173.3,303.6)" />
<use xlink:href="#f0_d" transform="matrix(13.9,0,0,13.9,184,303.6)" />
<use xlink:href="#f0_11" transform="matrix(13.9,0,0,13.9,190.3,303.6)" />
<use xlink:href="#f0_1k" transform="matrix(13.9,0,0,13.9,205.7,303.6)" />
<use xlink:href="#f0_1x" transform="matrix(13.9,0,0,13.9,215.2,303.6)" />
<use xlink:href="#f0_1n" transform="matrix(13.9,0,0,13.9,225.9,303.6)" />
<use xlink:href="#f0_22" transform="matrix(13.9,0,0,13.9,236.6,303.6)" />
<use xlink:href="#f0_d" transform="matrix(13.9,0,0,13.9,245,303.6)" />
<use xlink:href="#f0_u" transform="matrix(13.9,0,0,13.9,250.3,303.6)" />
<use xlink:href="#f0_12" transform="matrix(13.9,0,0,13.9,265.8,303.6)" />
<use xlink:href="#f0_1c" transform="matrix(13.9,0,0,13.9,278.2,303.6)" />
<use xlink:href="#f0_1w" transform="matrix(13.9,0,0,13.9,290.1,303.6)" />
<use xlink:href="#f0_1k" transform="matrix(13.9,0,0,13.9,306.7,303.6)" />
<use xlink:href="#f0_21" transform="matrix(13.9,0,0,13.9,316.2,303.6)" />
<use xlink:href="#f0_23" transform="matrix(13.9,0,0,13.9,323.4,303.6)" />
<use xlink:href="#f0_19" transform="matrix(13.9,0,0,13.9,334.7,303.6)" />
<use xlink:href="#f0_24" transform="matrix(13.9,0,0,13.9,346.5,303.6)" />
<use xlink:href="#f0_1l" transform="matrix(13.9,0,0,13.9,357.3,303.6)" />
<use xlink:href="#f0_1v" transform="matrix(13.9,0,0,13.9,368,303.6)" />
<use xlink:href="#f0_1s" transform="matrix(13.9,0,0,13.9,373.9,303.6)" />
<use xlink:href="#f0_22" transform="matrix(13.9,0,0,13.9,379.8,303.6)" />
<use xlink:href="#f0_1r" transform="matrix(13.9,0,0,13.9,388.2,303.6)" />
<use xlink:href="#f0_1s" transform="matrix(13.9,0,0,13.9,398.9,303.6)" />
<use xlink:href="#f0_1x" transform="matrix(13.9,0,0,13.9,404.8,303.6)" />
<use xlink:href="#f0_1q" transform="matrix(13.9,0,0,13.9,415.5,303.6)" />
<use xlink:href="#f0_y" transform="matrix(13.9,0,0,13.9,431.6,303.6)" />
<use xlink:href="#f0_1x" transform="matrix(13.9,0,0,13.9,444.6,303.6)" />
<use xlink:href="#f0_1q" transform="matrix(13.9,0,0,13.9,455.3,303.6)" />
<use xlink:href="#f0_1s" transform="matrix(13.9,0,0,13.9,466,303.6)" />
<use xlink:href="#f0_1x" transform="matrix(13.9,0,0,13.9,472,303.6)" />
<use xlink:href="#f0_1o" transform="matrix(13.9,0,0,13.9,482.7,303.6)" />
<use xlink:href="#f0_n" transform="matrix(13.9,0,0,13.9,157.3,328.2)" />
<use xlink:href="#f0_d" transform="matrix(13.9,0,0,13.9,168,328.2)" />
<use xlink:href="#f0_n" transform="matrix(13.9,0,0,13.9,173.3,328.2)" />
<use xlink:href="#f0_d" transform="matrix(13.9,0,0,13.9,184,328.2)" />
<use xlink:href="#f0_w" transform="matrix(13.9,0,0,13.9,190.3,328.2)" />
<use xlink:href="#f0_1y" transform="matrix(13.9,0,0,13.9,204.6,328.2)" />
<use xlink:href="#f0_1x" transform="matrix(13.9,0,0,13.9,215.3,328.2)" />
<use xlink:href="#f0_1m" transform="matrix(13.9,0,0,13.9,226,328.2)" />
<use xlink:href="#f0_1v" transform="matrix(13.9,0,0,13.9,235.5,328.2)" />
<use xlink:href="#f0_24" transform="matrix(13.9,0,0,13.9,241.4,328.2)" />
<use xlink:href="#f0_22" transform="matrix(13.9,0,0,13.9,252.1,328.2)" />
<use xlink:href="#f0_1s" transform="matrix(13.9,0,0,13.9,260.4,328.2)" />
<use xlink:href="#f0_1y" transform="matrix(13.9,0,0,13.9,266.4,328.2)" />
<use xlink:href="#f0_1x" transform="matrix(13.9,0,0,13.9,277.1,328.2)" />
</g>
</g>
<defs>
<path d="M238,-17c0,0,-103,0,-139,25C99,8,62,33,62,62c0,0,0,22,17,38c0,0,18,16,42,16c0,0,19,0,38,-6c0,0,13,-3,58,-27c0,0,45,-23,62,-28c0,0,27,-8,59,-8c0,0,76,0,132,59c0,0,56,59,56,140c0,0,0,59,-26,115c0,0,-19,41,-42,63c0,0,-32,30,-88,54c0,0,-56,25,-114,25H232v22c0,0,59,8,118,42c0,0,59,35,86,85c0,0,27,49,27,108c0,0,0,76,-48,124c0,0,-48,47,-120,47c0,0,-116,0,-193,-124L77,819c0,0,44,102,110,158c0,0,66,56,164,56c0,0,122,0,187,-80c0,0,49,-58,49,-126c0,0,0,-110,-139,-228c0,0,93,-36,141,-104c0,0,48,-68,48,-160c0,0,0,-131,-84,-227C553,108,444,-17,238,-17Z" 
id="f0_i"
transform="scale(0.001,-0.001)" />

<path d="M381,27c0,0,54,0,91,40c0,0,38,40,38,110c0,0,0,144,-194,276c0,0,-23,-21,-33,-38c0,0,-15,-26,-27,-76c0,0,-13,-50,-13,-105c0,0,0,-70,18,-117c0,0,18,-48,51,-69c0,0,34,-21,69,-21Zm83,582c0,0,27,37,40,83c0,0,14,47,14,102c0,0,0,97,-42,149c0,0,-31,40,-86,40c0,0,-50,0,-84,-37c0,0,-35,-36,-35,-90c0,0,0,-54,39,-113c0,0,39,-58,154,-134ZM368,-20c0,0,-150,0,-232,73c0,0,-82,74,-82,181c0,0,0,81,47,142c0,0,48,62,159,112c0,0,-121,92,-155,150c0,0,-34,58,-34,135c0,0,0,101,86,178c0,0,86,78,236,78c0,0,144,0,222,-69c0,0,78,-68,78,-163c0,0,0,-72,-43,-127c0,0,-42,-54,-130,-98c0,0,107,-79,149,-146c0,0,41,-68,41,-155c0,0,0,-122,-92,-207c0,0,-92,-84,-250,-84Z" 
id="f1_j"
transform="scale(0.001,-0.001)" />

<path d="M191,-18c0,0,-51,0,-87,36c0,0,-37,36,-37,87c0,0,0,52,37,88c0,0,36,37,87,37c0,0,52,0,89,-37c0,0,36,-36,36,-88c0,0,0,-51,-37,-87c0,0,-36,-36,-88,-36Z" 
id="f1_9"
transform="scale(0.001,-0.001)" />

<path d="M244,0V27h34c0,0,44,0,71,16c0,0,19,11,30,36c0,0,8,18,8,94V953H314c0,0,-103,0,-149,-43c0,0,-66,-60,-83,-172H55v274H965V738H938c0,0,-24,95,-53,136c0,0,-29,41,-80,66c0,0,-28,13,-99,13H631V173c0,0,0,-78,8,-97c0,0,9,-20,34,-34c0,0,25,-15,68,-15h33V0Z" 
id="f1_15"
transform="scale(0.001,-0.001)" />

<path d="M458,424c0,0,0,120,-13,165c0,0,-13,44,-40,67c0,0,-16,14,-42,14c0,0,-39,0,-63,-38c0,0,-44,-66,-44,-182V424ZM358,-20c0,0,-155,0,-235,119c0,0,-64,96,-64,239c0,0,0,174,94,277c0,0,94,104,221,104c0,0,106,0,184,-87c0,0,78,-87,84,-257H259c0,0,7,-139,74,-220c0,0,51,-62,124,-62c0,0,45,0,81,25c0,0,37,25,79,90l25,-16C642,192,585,76,517,28c0,0,-69,-48,-159,-48Z" 
id="f1_1e"
transform="scale(0.001,-0.001)" />

<path d="M365,-20c0,0,-139,0,-223,105c0,0,-83,105,-83,253c0,0,0,142,76,250c0,0,92,131,253,131c0,0,108,0,172,-55c0,0,63,-54,63,-121c0,0,0,-43,-25,-68c0,0,-26,-25,-68,-25c0,0,-44,0,-73,29c0,0,-28,29,-35,104c0,0,-5,47,-22,65c0,0,-17,19,-40,19c0,0,-36,0,-61,-38c0,0,-39,-58,-39,-176c0,0,0,-99,31,-188c0,0,32,-90,86,-134c0,0,41,-32,97,-32c0,0,36,0,69,17c0,0,33,17,78,65l23,-18C644,163,595,70,521,25c0,0,-73,-45,-156,-45Z" 
id="f1_1c"
transform="scale(0.001,-0.001)" />

<path d="M52,0V26c0,0,44,5,62,29c0,0,13,16,13,97V860c0,0,0,80,-14,99c0,0,-15,20,-61,26v27H336V608c0,0,58,61,106,86c0,0,47,25,99,25c0,0,65,0,112,-38c0,0,47,-37,62,-87c0,0,15,-51,15,-170V152c0,0,0,-81,15,-100c0,0,15,-20,61,-26V0H452V26c0,0,37,6,56,30c0,0,13,20,13,96V463c0,0,0,86,-7,108c0,0,-6,22,-22,35c0,0,-16,12,-36,12c0,0,-30,0,-59,-21c0,0,-28,-20,-61,-72V152c0,0,0,-75,12,-94c0,0,14,-26,58,-32V0Z" 
id="f1_1h"
transform="scale(0.001,-0.001)" />

<path d="M52,0V26c0,0,44,5,62,29c0,0,13,16,13,97V546c0,0,0,79,-14,98c0,0,-15,20,-61,26v27H336V607c0,0,54,59,104,85c0,0,49,27,106,27c0,0,68,0,113,-38c0,0,44,-38,59,-94c0,0,12,-42,12,-163V152c0,0,0,-81,15,-101c0,0,14,-19,61,-25V0H452V26c0,0,40,6,57,33c0,0,12,19,12,93V462c0,0,0,86,-7,109c0,0,-6,22,-22,35c0,0,-16,12,-36,12c0,0,-64,0,-120,-92V152c0,0,0,-79,15,-100c0,0,15,-20,55,-26V0Z" 
id="f1_1n"
transform="scale(0.001,-0.001)" />

<path d="M32,0V26c0,0,46,2,69,27c0,0,14,18,14,92V551c0,0,0,75,-17,95c0,0,-17,21,-66,24v27H325V145c0,0,0,-74,17,-95c0,0,17,-21,68,-24V0ZM220,804c0,0,-48,0,-82,33c0,0,-33,34,-33,82c0,0,0,48,33,82c0,0,34,33,82,33c0,0,48,0,82,-33c0,0,33,-34,33,-82c0,0,0,-48,-34,-82c0,0,-34,-33,-81,-33Z" 
id="f1_1i"
transform="scale(0.001,-0.001)" />

<path d="M350,115c0,0,37,0,86,42V391c0,0,-90,-53,-134,-113c0,0,-29,-41,-29,-82c0,0,0,-34,24,-60c0,0,19,-21,53,-21ZM207,-9c0,0,-59,0,-99,38c0,0,-40,40,-40,99c0,0,0,80,69,143c0,0,69,64,299,170v70c0,0,0,79,-8,100c0,0,-9,20,-33,36c0,0,-23,15,-53,15c0,0,-49,0,-80,-22c0,0,-19,-13,-19,-31c0,0,0,-16,21,-39c0,0,28,-32,28,-62c0,0,0,-36,-27,-62c0,0,-27,-26,-71,-26c0,0,-47,0,-79,29c0,0,-32,28,-32,66c0,0,0,54,43,103c0,0,42,48,118,75c0,0,76,26,158,26c0,0,99,0,157,-42c0,0,58,-43,75,-92c0,0,11,-31,11,-144V170c0,0,0,-47,3,-60c0,0,4,-12,11,-18c0,0,8,-6,18,-6c0,0,19,0,39,28L738,96c0,0,-37,-56,-77,-81c0,0,-40,-24,-90,-24c0,0,-60,0,-94,27c0,0,-33,28,-41,85C436,103,309,-9,207,-9Z" 
id="f1_1a"
transform="scale(0.001,-0.001)" />

<path d="M32,0V26c0,0,46,2,69,27c0,0,14,18,14,92V867c0,0,0,74,-17,94c0,0,-17,21,-66,24v27H325V145c0,0,0,-74,17,-95c0,0,17,-21,68,-24V0Z" 
id="f1_1l"
transform="scale(0.001,-0.001)" />

<path d="M485,-21L152,803c0,0,-51,125,-71,151c0,0,-20,26,-68,31v27H452V985c0,0,-53,-2,-71,-16c0,0,-17,-15,-17,-37c0,0,0,-28,36,-120L599,321L758,705L717,812c0,0,-35,88,-53,118c0,0,-19,29,-43,42c0,0,-25,13,-72,13v27h490V985c0,0,-52,-1,-74,-9c0,0,-16,-5,-25,-17c0,0,-9,-12,-9,-28c0,0,0,-17,34,-105L1149,347l165,433c0,0,26,67,32,92c0,0,6,25,6,45c0,0,0,31,-21,49c0,0,-21,17,-79,19v27h262V985c0,0,-28,-3,-47,-16c0,0,-20,-14,-35,-41c0,0,-4,-9,-46,-116L1068,-21h-29L789,632L512,-21Z" 
id="f1_18"
transform="scale(0.001,-0.001)" />

<path d="M298,-9c0,0,-67,0,-113,36c0,0,-46,37,-58,83c0,0,-8,25,-8,137V624H28v26c0,0,94,66,161,139c0,0,66,73,115,163h25V697H494V624H329V193c0,0,0,-60,5,-78c0,0,6,-17,20,-28c0,0,14,-11,26,-11c0,0,48,0,92,75l22,-17C494,134,434,-9,298,-9Z" 
id="f1_1t"
transform="scale(0.001,-0.001)" />

<path d="M459,56c0,0,40,0,66,42c0,0,39,63,39,239c0,0,0,180,-42,247c0,0,-29,44,-76,44c0,0,-76,0,-124,-109V147c0,0,64,-91,137,-91ZM29,-326v28c0,0,46,1,69,26c0,0,14,17,14,89V551c0,0,0,75,-17,95c0,0,-17,21,-66,24v27H322V605c0,0,36,54,74,78c0,0,55,36,119,36c0,0,77,0,140,-49c0,0,63,-48,95,-134c0,0,33,-85,33,-184c0,0,0,-106,-34,-193c0,0,-34,-88,-98,-134c0,0,-65,-45,-144,-45c0,0,-57,0,-107,25c0,0,-37,19,-78,66V-188c0,0,0,-53,8,-73c0,0,9,-19,27,-28c0,0,18,-9,70,-9v-28Z" 
id="f1_1p"
transform="scale(0.001,-0.001)" />

<path d="M57,0V26c0,0,45,4,61,25c0,0,16,22,16,113V550c0,0,0,59,-6,76c0,0,-7,21,-22,30c0,0,-14,10,-49,14v27H342l1,-158c0,0,69,109,121,144c0,0,52,36,100,36c0,0,42,0,66,-26c0,0,25,-26,25,-73c0,0,0,-50,-24,-77c0,0,-25,-28,-59,-28c0,0,-39,0,-68,25c0,0,-28,26,-33,29c0,0,-8,4,-17,4c0,0,-22,0,-41,-16c0,0,-31,-26,-46,-73c0,0,-24,-72,-24,-159V122c0,0,0,-42,5,-54c0,0,9,-21,27,-30c0,0,17,-9,59,-12V0Z" 
id="f1_1r"
transform="scale(0.001,-0.001)" />

<path d="M394,23c0,0,80,0,129,45c0,0,48,45,48,110c0,0,0,54,-28,97c0,0,-53,79,-214,206c0,0,-62,-52,-92,-114c0,0,-30,-61,-30,-133c0,0,0,-96,53,-154c0,0,52,-57,134,-57Zm17,566c0,0,90,81,114,128c0,0,24,46,24,105c0,0,0,79,-44,123c0,0,-44,45,-121,45c0,0,-76,0,-124,-45c0,0,-48,-44,-48,-103c0,0,0,-38,20,-77c0,0,20,-39,56,-74L411,589ZM382,-17c0,0,-144,0,-225,90c0,0,-64,72,-64,158c0,0,0,67,45,133c0,0,45,66,156,146c0,0,-121,98,-156,158c0,0,-34,59,-34,124c0,0,0,98,76,169c0,0,76,72,202,72c0,0,123,0,198,-67c0,0,74,-66,74,-151c0,0,0,-57,-40,-116c0,0,-40,-59,-168,-139c0,0,132,-101,174,-159c0,0,57,-76,57,-161c0,0,0,-106,-82,-182c0,0,-81,-75,-213,-75Z" 
id="f0_n"
transform="scale(0.001,-0.001)" />

<path d="M191,-20c0,0,-34,0,-58,24c0,0,-24,24,-24,58c0,0,0,35,24,59c0,0,24,24,58,24c0,0,35,0,59,-24c0,0,24,-25,24,-59c0,0,0,-34,-24,-58c0,0,-25,-24,-59,-24Z" 
id="f0_d"
transform="scale(0.001,-0.001)" />

<path d="M197,0V27c0,0,71,2,92,13c0,0,21,10,29,29c0,0,9,18,9,109V725c0,0,0,110,-8,141c0,0,-5,24,-19,35c0,0,-14,11,-33,11c0,0,-28,0,-77,-23l-11,23l246,121h25V178c0,0,0,-85,7,-106c0,0,7,-21,29,-32c0,0,23,-11,91,-13V0Z" 
id="f0_g"
transform="scale(0.001,-0.001)" />

<path d="M678,393L506,802L330,393ZM11,0V27c0,0,63,12,82,30c0,0,38,35,84,145l356,832h27L912,193c0,0,43,-101,77,-132c0,0,35,-30,97,-34V0H687V27c0,0,60,3,82,21c0,0,21,17,21,41c0,0,0,33,-30,104L700,338H307L239,179c0,0,-26,-59,-26,-88c0,0,0,-23,22,-41c0,0,22,-17,95,-23V0Z" 
id="f0_u"
transform="scale(0.001,-0.001)" />

<path d="M397,34c0,0,67,0,126,75c0,0,58,74,58,216c0,0,0,131,-58,201c0,0,-59,70,-133,70c0,0,-39,0,-79,-20c0,0,-29,-14,-75,-59V109c0,0,37,-37,78,-56c0,0,40,-19,83,-19ZM358,-20c0,0,-59,0,-121,21c0,0,-61,22,-126,65V773c0,0,0,117,-5,144c0,0,-6,27,-18,37c0,0,-12,9,-29,9c0,0,-21,0,-53,-12l-9,27l205,83h34V564c0,0,98,139,213,139c0,0,105,0,183,-90c0,0,78,-90,78,-245c0,0,0,-182,-121,-293c0,0,-103,-95,-231,-95Z" 
id="f0_1l"
transform="scale(0.001,-0.001)" />

<path d="M312,-20c0,0,-62,0,-143,22c0,0,-25,8,-40,8c0,0,-18,0,-27,-19H77V234h25c0,0,21,-105,80,-158c0,0,59,-53,132,-53c0,0,51,0,84,31c0,0,32,30,32,72c0,0,0,52,-36,87c0,0,-36,35,-144,88c0,0,-109,54,-142,97c0,0,-34,43,-34,107c0,0,0,85,58,141c0,0,58,57,150,57c0,0,40,0,97,-17c0,0,38,-11,51,-11c0,0,12,0,19,5c0,0,7,5,15,23h25V470H464c0,0,-28,110,-72,149c0,0,-45,40,-113,40c0,0,-53,0,-85,-28c0,0,-32,-27,-32,-61c0,0,0,-41,24,-71c0,0,23,-31,94,-65L389,381c0,0,152,-74,152,-194c0,0,0,-94,-71,-151c0,0,-70,-56,-158,-56Z" 
id="f0_22"
transform="scale(0.001,-0.001)" />

<path d="M255,-10c0,0,-35,0,-68,18c0,0,-32,19,-48,55c0,0,-16,35,-16,109V632H15v24c0,0,41,16,84,56c0,0,43,39,77,92c0,0,17,29,48,104h23V683H407V632H247V188c0,0,0,-66,19,-90c0,0,19,-23,49,-23c0,0,24,0,47,16c0,0,23,15,36,45h29c0,0,-26,-73,-74,-110c0,0,-47,-36,-98,-36Z" 
id="f0_23"
transform="scale(0.001,-0.001)" />

<path d="M17,0V26c0,0,52,0,77,17c0,0,19,12,26,38c0,0,4,13,4,73V419c0,0,0,119,-5,142c0,0,-4,23,-17,33c0,0,-13,11,-33,11c0,0,-23,0,-52,-11l-7,26l207,83h31V549c0,0,86,154,176,154c0,0,41,0,68,-25c0,0,27,-25,27,-58c0,0,0,-29,-20,-49c0,0,-19,-20,-46,-20c0,0,-26,0,-58,25c0,0,-33,26,-48,26c0,0,-14,0,-29,-15c0,0,-34,-30,-70,-101V159c0,0,0,-56,15,-85c0,0,9,-20,34,-34c0,0,24,-14,71,-14V0Z" 
id="f0_21"
transform="scale(0.001,-0.001)" />

<path d="M286,72c0,0,57,0,149,75V407c0,0,-113,-45,-145,-64c0,0,-59,-32,-85,-68c0,0,-25,-36,-25,-78c0,0,0,-54,32,-89c0,0,32,-36,74,-36ZM217,-13c0,0,-71,0,-116,48c0,0,-46,48,-46,127c0,0,0,50,22,87c0,0,31,50,106,95c0,0,76,45,252,109v26c0,0,0,102,-32,140c0,0,-32,38,-94,38c0,0,-47,0,-74,-25c0,0,-28,-25,-28,-58l1,-43c0,0,0,-34,-17,-53c0,0,-18,-18,-47,-18c0,0,-28,0,-45,19c0,0,-18,19,-18,53c0,0,0,64,66,117c0,0,65,54,184,54c0,0,91,0,149,-31c0,0,44,-23,65,-72c0,0,13,-32,13,-131V238c0,0,0,-98,4,-120c0,0,4,-22,12,-29c0,0,9,-8,20,-8c0,0,12,0,21,5c0,0,16,10,61,55V99C676,99,592,-12,516,-12c0,0,-37,0,-58,24c0,0,-22,26,-23,86C435,98,330,17,303,5c0,0,-40,-18,-86,-18Z" 
id="f0_1k"
transform="scale(0.001,-0.001)" />

<path d="M342,-20c0,0,-116,0,-203,97c0,0,-86,98,-86,264c0,0,0,161,96,261c0,0,95,101,230,101c0,0,100,0,165,-53c0,0,65,-54,65,-111c0,0,0,-29,-18,-46c0,0,-18,-18,-51,-18c0,0,-44,0,-66,29c0,0,-13,15,-17,59c0,0,-4,45,-30,68c0,0,-26,22,-73,22c0,0,-74,0,-120,-55c0,0,-60,-73,-60,-193c0,0,0,-122,60,-216c0,0,60,-93,162,-93c0,0,73,0,131,49c0,0,41,35,80,126l22,-10C629,261,601,125,521,52c0,0,-81,-72,-179,-72Z" 
id="f0_1m"
transform="scale(0.001,-0.001)" />

<path d="M33,0V27c0,0,264,241,371,393c0,0,108,152,108,278c0,0,0,96,-59,158c0,0,-59,62,-141,62c0,0,-75,0,-134,-43c0,0,-59,-44,-88,-128H63c0,0,18,138,95,212c0,0,77,74,193,74c0,0,123,0,205,-80c0,0,83,-79,83,-186c0,0,0,-77,-36,-154c0,0,-55,-121,-179,-256C424,357,238,154,191,112H455c0,0,81,0,114,6c0,0,32,6,58,25c0,0,27,18,46,52h27L630,0Z" 
id="f0_h"
transform="scale(0.001,-0.001)" />

<path d="M26,0V27H62c0,0,63,0,91,37c0,0,18,24,18,115V833c0,0,0,77,-10,102c0,0,-7,18,-30,32c0,0,-33,18,-69,18H26v27H459V985H422c0,0,-35,0,-67,-17c0,0,-23,-12,-32,-36c0,0,-9,-25,-9,-99V542H784V833c0,0,0,77,-10,102c0,0,-8,18,-31,32c0,0,-33,18,-68,18H639v27h432V985h-36c0,0,-36,0,-68,-17c0,0,-24,-12,-32,-36c0,0,-9,-25,-9,-99V179c0,0,0,-77,10,-102c0,0,7,-18,31,-32c0,0,32,-18,68,-18h36V0H639V27h36c0,0,62,0,90,37c0,0,19,24,19,115V487H314V179c0,0,0,-77,9,-102c0,0,8,-18,32,-32c0,0,32,-18,67,-18h37V0Z" 
id="f0_11"
transform="scale(0.001,-0.001)" />

<path d="M21,0V26H35c0,0,53,0,71,27c0,0,18,27,18,101V408c0,0,0,123,-5,150c0,0,-6,27,-17,37c0,0,-12,10,-31,10c0,0,-21,0,-50,-11L10,620l206,83h32V558c0,0,120,145,229,145c0,0,56,0,96,-28c0,0,40,-28,64,-92c0,0,16,-45,16,-137V154c0,0,0,-65,11,-88c0,0,8,-19,26,-29c0,0,18,-11,68,-11V0H419V26h14c0,0,47,0,66,15c0,0,20,15,27,43c0,0,3,11,3,70V434c0,0,0,93,-24,135c0,0,-24,42,-81,42c0,0,-88,0,-176,-97V154c0,0,0,-69,9,-86c0,0,10,-21,28,-31c0,0,19,-11,75,-11V0Z" 
id="f0_1x"
transform="scale(0.001,-0.001)" />

<path d="M399,62c0,0,68,0,131,68V481c0,0,-5,51,-27,93c0,0,-22,42,-59,63c0,0,-37,21,-72,21c0,0,-65,0,-117,-59c0,0,-67,-77,-67,-226c0,0,0,-151,65,-231c0,0,66,-80,146,-80ZM330,-20c0,0,-112,0,-196,93c0,0,-83,94,-83,240c0,0,0,147,92,269c0,0,93,122,238,122c0,0,90,0,149,-58V773c0,0,0,117,-6,144c0,0,-5,27,-17,37c0,0,-12,9,-30,9c0,0,-20,0,-52,-12l-9,27l204,83h33V270c0,0,0,-120,6,-146c0,0,5,-27,18,-37c0,0,12,-11,28,-11c0,0,21,0,54,13l9,-26L564,-20H530V78C530,78,480,25,432,2c0,0,-47,-22,-102,-22Z" 
id="f0_1n"
transform="scale(0.001,-0.001)" />

<path d="M38,0V27H74c0,0,63,0,91,37c0,0,18,24,18,115V833c0,0,0,77,-10,102c0,0,-7,18,-30,32c0,0,-33,18,-69,18H38v27H470V985H434c0,0,-62,0,-90,-37c0,0,-18,-24,-18,-115V179c0,0,0,-77,9,-102c0,0,8,-18,31,-32c0,0,32,-18,68,-18h36V0Z" 
id="f0_12"
transform="scale(0.001,-0.001)" />

<path d="M435,502c0,0,78,0,134,60c0,0,57,60,57,155c0,0,0,66,-27,122c0,0,-27,56,-76,84c0,0,-50,28,-112,28c0,0,-38,0,-98,-14V517c0,0,39,-8,70,-12c0,0,31,-3,52,-3ZM25,0V27H63c0,0,65,0,92,42c0,0,15,23,15,110V833c0,0,0,96,-20,119c0,0,-29,33,-87,33H25v27H396c0,0,136,0,214,-28c0,0,78,-28,132,-94c0,0,54,-67,54,-158c0,0,0,-124,-82,-202c0,0,-82,-77,-231,-77c0,0,-36,0,-79,5c0,0,-43,5,-91,16V179c0,0,0,-96,21,-119c0,0,28,-33,85,-33h39V0Z" 
id="f0_19"
transform="scale(0.001,-0.001)" />

<path d="M58,0V26c0,0,47,0,64,10c0,0,18,10,28,32c0,0,9,23,9,86V775c0,0,0,116,-5,142c0,0,-5,27,-17,37c0,0,-11,9,-29,9c0,0,-20,0,-49,-12L46,978l204,83h34V154c0,0,0,-64,9,-85c0,0,9,-21,29,-32c0,0,19,-11,72,-11V0Z" 
id="f0_1v"
transform="scale(0.001,-0.001)" />

<path d="M63,0V26H93c0,0,30,0,54,15c0,0,25,15,34,41c0,0,10,25,10,99V630H58v53H191v45c0,0,0,102,33,173c0,0,32,71,100,114c0,0,68,44,152,44c0,0,79,0,145,-51c0,0,43,-33,43,-75c0,0,0,-22,-19,-42c0,0,-20,-20,-42,-20c0,0,-17,0,-36,12c0,0,-19,13,-47,53c0,0,-28,41,-51,55c0,0,-23,14,-51,14c0,0,-35,0,-58,-18c0,0,-24,-18,-35,-57c0,0,-10,-38,-10,-197V683H491V630H315V181c0,0,0,-96,21,-122c0,0,27,-33,73,-33h62V0Z" 
id="f0_1p"
transform="scale(0.001,-0.001)" />

<path d="M406,32c0,0,72,0,119,60c0,0,47,59,47,205c0,0,0,181,-78,286c0,0,-53,71,-135,71c0,0,-40,0,-79,-23c0,0,-40,-24,-65,-83c0,0,-24,-58,-24,-151c0,0,0,-149,59,-257c0,0,59,-108,156,-108ZM374,-20c0,0,-154,0,-245,122c0,0,-77,104,-77,233c0,0,0,94,46,187c0,0,47,92,123,137c0,0,76,44,161,44c0,0,155,0,249,-118c0,0,80,-100,80,-231c0,0,0,-91,-44,-185C667,169,623,75,546,27c0,0,-77,-47,-172,-47Z" 
id="f0_1y"
transform="scale(0.001,-0.001)" />

<path d="M23,0V26c0,0,47,0,66,10c0,0,19,11,28,33c0,0,10,22,10,85V416c0,0,0,112,-7,145c0,0,-5,25,-16,34c0,0,-11,10,-31,10c0,0,-21,0,-50,-11L12,620l207,83h32V557c0,0,75,75,88,86c0,0,34,29,72,44c0,0,39,16,77,16c0,0,64,0,110,-37c0,0,47,-38,62,-109c0,0,77,90,130,118c0,0,53,28,109,28c0,0,54,0,96,-28c0,0,42,-28,67,-91c0,0,16,-43,16,-136V154c0,0,0,-64,10,-88c0,0,8,-16,28,-28c0,0,20,-12,65,-12V0H844V26h14c0,0,44,0,69,18c0,0,17,12,24,38c0,0,3,13,3,72V448c0,0,0,83,-20,117c0,0,-29,48,-93,48c0,0,-39,0,-79,-20c0,0,-40,-19,-97,-73l-1,-8l2,-32V154c0,0,0,-70,8,-87c0,0,7,-17,29,-29c0,0,21,-12,73,-12V0H431V26c0,0,57,0,78,14c0,0,21,13,29,40c0,0,4,13,4,74V448c0,0,0,83,-25,120c0,0,-33,48,-91,48c0,0,-40,0,-80,-22c0,0,-61,-33,-95,-74V154c0,0,0,-67,10,-87c0,0,9,-20,27,-30c0,0,18,-11,74,-11V0Z" 
id="f0_1w"
transform="scale(0.001,-0.001)" />

<path d="M479,469c0,0,-4,66,-16,93c0,0,-18,42,-55,65c0,0,-37,24,-78,24c0,0,-62,0,-111,-48c0,0,-48,-48,-57,-134ZM355,-20c0,0,-123,0,-211,95c0,0,-87,96,-87,258c0,0,0,175,90,273c0,0,89,98,225,98c0,0,115,0,189,-76c0,0,74,-75,74,-202H162c0,0,0,-152,74,-239c0,0,75,-86,175,-86c0,0,67,0,117,36c0,0,50,37,83,127l24,-15c0,0,-16,-102,-91,-186c0,0,-76,-83,-189,-83Z" 
id="f0_1o"
transform="scale(0.001,-0.001)" />

<path d="M55,0V26c0,0,50,0,67,10c0,0,17,10,27,32c0,0,10,23,10,86V418c0,0,0,111,-6,144c0,0,-6,24,-17,33c0,0,-11,10,-30,10c0,0,-21,0,-51,-11L45,620l206,83h33V154c0,0,0,-64,9,-85c0,0,9,-22,27,-32c0,0,19,-11,67,-11V0ZM222,909c0,0,-32,0,-54,23c0,0,-22,22,-22,53c0,0,0,32,22,54c0,0,22,22,54,22c0,0,31,0,53,-22c0,0,22,-22,22,-54c0,0,0,-31,-22,-53c0,0,-22,-23,-53,-23Z" 
id="f0_1s"
transform="scale(0.001,-0.001)" />

<path d="M30,0V27L485,632H260c0,0,-72,0,-94,-10c0,0,-22,-9,-36,-35c0,0,-20,-37,-23,-92H76l5,188H654V656L196,51H445c0,0,79,0,106,13c0,0,28,13,45,46c0,0,12,23,21,100h25L634,0Z" 
id="f0_29"
transform="scale(0.001,-0.001)" />

<path d="M452,373V875L97,373ZM452,0V267H23v95l470,671h82V373H711V267H575V0Z" 
id="f0_j"
transform="scale(0.001,-0.001)" />

<path d="M31,0V27H67c0,0,36,0,68,18c0,0,24,12,32,36c0,0,9,24,9,98V836c0,0,0,96,-19,119c0,0,-27,30,-90,30H31v27H811L822,790H792c0,0,-15,80,-34,110c0,0,-19,30,-57,46c0,0,-29,11,-105,11H319V557H541c0,0,87,0,116,26c0,0,39,35,44,121h27V352H701c0,0,-11,74,-21,95c0,0,-14,26,-45,41c0,0,-30,15,-94,15H319V168c0,0,0,-67,6,-81c0,0,6,-15,21,-24c0,0,15,-8,56,-8H574c0,0,86,0,124,12c0,0,39,12,75,47c0,0,46,46,95,139h30L811,0Z" 
id="f0_y"
transform="scale(0.001,-0.001)" />

<path d="M356,519c0,0,145,0,218,63c0,0,74,63,74,160c0,0,0,95,-60,154c0,0,-59,59,-157,59c0,0,-43,0,-117,-13V520c0,0,14,0,25,0c0,0,10,-1,17,-1ZM26,0V27H64c0,0,64,0,92,42c0,0,15,23,15,110V833c0,0,0,96,-21,119c0,0,-29,33,-86,33H26v27H395c0,0,161,0,238,-24c0,0,76,-23,129,-86c0,0,54,-63,54,-151c0,0,0,-93,-61,-162c0,0,-61,-68,-189,-97L775,202c0,0,72,-100,123,-133c0,0,52,-33,134,-42V0H762L419,473c0,0,-38,-1,-61,-1c0,0,-10,0,-21,0c0,0,-11,0,-23,1V179c0,0,0,-96,21,-119c0,0,28,-33,84,-33h40V0Z" 
id="f0_1b"
transform="scale(0.001,-0.001)" />

<path d="M548,-21c0,0,-251,0,-389,185C159,164,56,303,56,490c0,0,0,152,68,278c0,0,67,127,186,197c0,0,119,69,260,69c0,0,109,0,216,-53c0,0,31,-17,44,-17c0,0,20,0,35,14c0,0,20,21,28,56h26L943,690H919c0,0,-46,155,-131,224c0,0,-86,68,-206,68c0,0,-100,0,-181,-51c0,0,-81,-52,-128,-163c0,0,-46,-112,-46,-279c0,0,0,-137,44,-238c0,0,44,-101,132,-154c0,0,88,-54,201,-54c0,0,99,0,174,42c0,0,75,42,165,167l23,-14C966,238,890,103,789,40c0,0,-102,-61,-241,-61Z" 
id="f0_w"
transform="scale(0.001,-0.001)" />

<path d="M398,24c0,0,74,0,120,58c0,0,61,76,61,214c0,0,0,156,-69,240c0,0,-47,59,-113,59c0,0,-36,0,-71,-18c0,0,-27,-14,-88,-81V242c0,0,0,-83,6,-109c0,0,11,-43,51,-76c0,0,41,-33,103,-33ZM-4,-326v27H15c5,0,42,0,69,16c0,0,14,8,22,26c0,0,7,19,7,94V481c0,0,0,67,-6,85c0,0,-5,18,-18,27c0,0,-13,9,-36,9c0,0,-18,0,-45,-10L0,615l209,85h29V540c0,0,53,91,106,127c0,0,53,36,112,36c0,0,103,0,172,-80c0,0,84,-99,84,-257c0,0,0,-176,-102,-292c0,0,-83,-94,-210,-94c0,0,-55,0,-95,16c0,0,-30,10,-67,44V-167c0,0,0,-71,8,-90c0,0,9,-20,30,-31c0,0,21,-11,77,-11v-27Z" 
id="f0_1z"
transform="scale(0.001,-0.001)" />

<path d="M145,-328c0,0,-44,0,-73,25c0,0,-28,25,-28,58c0,0,0,31,21,50c0,0,20,19,56,19c0,0,25,0,67,-16c0,0,30,-11,38,-11c0,0,22,0,49,23c0,0,26,23,53,89L376,28L131,542c0,0,-11,24,-36,58c0,0,-19,27,-30,36c0,0,-18,12,-56,21v26H328V657H312c0,0,-33,0,-50,-15c0,0,-17,-14,-17,-36c0,0,0,-30,25,-81L437,179L589,557c0,0,12,31,12,62c0,0,0,13,-5,20c0,0,-6,8,-19,13c0,0,-12,5,-44,5v26H754V657c0,0,-27,-3,-42,-12c0,0,-15,-9,-33,-34c0,0,-7,-10,-25,-58L376,-128c0,0,-40,-99,-105,-150c0,0,-66,-50,-126,-50Z" 
id="f0_28"
transform="scale(0.001,-0.001)" />

<path d="M247,-17c0,0,-91,0,-132,30c0,0,-42,31,-42,68c0,0,0,21,17,37c0,0,18,16,44,17c0,0,19,0,34,-6c0,0,14,-7,49,-31c0,0,56,-39,113,-39c0,0,88,0,154,66c0,0,66,66,66,161c0,0,0,92,-59,171c0,0,-59,80,-163,123c0,0,-81,34,-221,39l194,393H663L605,885H301L234,750c0,0,198,-29,313,-147c0,0,100,-102,100,-239c0,0,0,-80,-33,-148c0,0,-32,-68,-81,-116c0,0,-50,-47,-110,-77c0,0,-86,-40,-176,-40Z" 
id="f0_k"
transform="scale(0.001,-0.001)" />

<path d="M473,53c0,0,173,0,287,121c0,0,114,122,114,330c0,0,0,210,-114,330c0,0,-114,121,-293,121c0,0,-67,0,-153,-21V74c0,0,95,-21,159,-21ZM26,0V27H64c0,0,64,0,91,41c0,0,16,25,16,111V833c0,0,0,95,-21,119c0,0,-29,33,-86,33H26v27H438c0,0,226,0,345,-51c0,0,118,-52,190,-172c0,0,72,-120,72,-278c0,0,0,-211,-129,-353C916,158,773,0,478,0Z" 
id="f0_x"
transform="scale(0.001,-0.001)" />

<path d="M292,-20c0,0,-57,0,-100,33c0,0,-42,33,-58,85c0,0,-17,52,-17,148V551c0,0,0,49,-10,68c0,0,-11,18,-31,29c0,0,-19,9,-68,9c-2,0,-4,0,-6,0v26H242V226c0,0,0,-95,33,-125c0,0,33,-30,80,-30c0,0,32,0,73,21c0,0,40,20,96,76V555c0,0,0,59,-21,80c0,0,-22,21,-89,22v26H647V269c0,0,0,-119,6,-145c0,0,6,-27,18,-37c0,0,12,-11,29,-11c0,0,23,0,52,13L763,63L558,-20H524V124C524,124,436,29,390,4c0,0,-47,-24,-98,-24Z" 
id="f0_24"
transform="scale(0.001,-0.001)" />

<path d="M405,24c0,0,65,0,116,62c0,0,51,61,51,174c0,0,0,128,-50,221c0,0,-51,93,-144,93c0,0,-29,0,-61,-12c0,0,-33,-12,-96,-51c0,0,-14,-101,-14,-163c0,0,0,-72,27,-155c0,0,26,-84,79,-134c0,0,38,-35,92,-35ZM384,-17c0,0,-104,0,-177,68C207,51,66,185,66,397c0,0,0,136,54,258c0,0,54,122,156,217c0,0,101,95,193,128c0,0,93,33,172,33h44v-28c0,0,-99,-10,-161,-39c0,0,-62,-29,-123,-90c0,0,-61,-60,-101,-135c0,0,-39,-74,-66,-176c0,0,107,73,215,73c0,0,104,0,180,-83c0,0,76,-84,76,-215c0,0,0,-126,-77,-231c0,0,-92,-126,-244,-126Z" 
id="f0_l"
transform="scale(0.001,-0.001)" />

<path d="M107,-21V325h27c0,0,19,-109,52,-163c0,0,33,-54,100,-90c0,0,68,-36,148,-36c0,0,93,0,148,49c0,0,54,50,54,117c0,0,0,37,-21,75c0,0,-20,38,-64,71c0,0,-29,22,-159,95c0,0,-130,72,-185,115c0,0,-55,44,-83,96c0,0,-28,52,-28,114c0,0,0,109,83,188c0,0,84,78,213,78c0,0,81,0,171,-39c0,0,42,-19,59,-19c0,0,20,0,32,11c0,0,12,12,20,47h27V684H674c0,0,-14,101,-48,161c0,0,-35,60,-100,95c0,0,-64,35,-133,35c0,0,-77,0,-128,-47c0,0,-51,-48,-51,-108c0,0,0,-46,32,-84c0,0,47,-56,221,-149c0,0,142,-76,194,-117c0,0,51,-41,80,-96c0,0,28,-55,28,-115c0,0,0,-115,-90,-198c0,0,-89,-82,-229,-82c0,0,-44,0,-83,6c0,0,-23,4,-95,27c0,0,-73,24,-93,24c0,0,-18,0,-29,-11c0,0,-11,-12,-16,-46Z" 
id="f0_1c"
transform="scale(0.001,-0.001)" />

<path d="M20,0V26c0,0,45,0,71,15c0,0,15,7,24,28c0,0,9,21,9,85V773c0,0,0,117,-5,144c0,0,-6,27,-17,37c0,0,-12,9,-31,9c0,0,-16,0,-51,-12L10,978l204,83h34V561c0,0,83,91,131,116c0,0,49,26,97,26c0,0,58,0,100,-32c0,0,42,-32,62,-101c0,0,14,-47,14,-174V154c0,0,0,-65,11,-89c0,0,7,-18,25,-28c0,0,18,-11,66,-11V0H418V26h15c0,0,48,0,67,15c0,0,18,15,26,43c0,0,2,12,2,70V396c0,0,0,112,-12,147c0,0,-11,35,-36,53c0,0,-26,17,-61,17c0,0,-37,0,-76,-19c0,0,-40,-20,-95,-79V154c0,0,0,-70,8,-87c0,0,8,-17,29,-29c0,0,22,-12,74,-12V0Z" 
id="f0_1r"
transform="scale(0.001,-0.001)" />

<path d="M411,-239c0,0,134,0,198,48c0,0,64,47,64,100c0,0,0,39,-38,55c0,0,-39,16,-154,19c0,0,-167,5,-258,17c0,0,-35,-37,-53,-70c0,0,-17,-32,-17,-60c0,0,0,-36,43,-62c0,0,74,-47,215,-47ZM380,257c0,0,56,0,93,43c0,0,36,42,36,133c0,0,0,118,-51,185c0,0,-38,49,-98,49c0,0,-55,0,-92,-44c0,0,-37,-44,-37,-135c0,0,0,-117,50,-182c0,0,39,-49,99,-49ZM345,-328c0,0,-144,0,-243,64c0,0,-56,38,-56,78c0,0,0,18,8,36c0,0,13,27,52,76c0,0,5,7,76,80c0,0,-39,23,-55,41c0,0,-16,19,-16,42c0,0,0,26,22,61c0,0,21,35,98,100c0,0,-63,30,-97,85c0,0,-33,55,-33,121c0,0,0,101,76,174c0,0,77,73,196,73c0,0,98,0,170,-48H688c0,0,32,0,37,-2c0,0,6,-2,8,-6c0,0,4,-7,4,-24c0,0,0,-20,-4,-27c0,0,-2,-4,-7,-6c0,0,-6,-2,-38,-2H599c0,0,41,-54,41,-137c0,0,0,-96,-73,-163c0,0,-73,-68,-196,-68c0,0,-51,0,-104,15c0,0,-33,-28,-44,-49c0,0,-12,-22,-12,-37c0,0,0,-12,13,-24c0,0,12,-12,48,-17c0,0,21,-4,104,-6c0,0,154,-4,199,-11c0,0,70,-10,111,-51c0,0,42,-41,42,-102c0,0,0,-84,-79,-158c0,0,-117,-108,-304,-108Z" 
id="f0_1q"
transform="scale(0.001,-0.001)" />

<path d="M253,0V27h36c0,0,64,0,91,39c0,0,16,24,16,109V948H274c0,0,-71,0,-100,-10c0,0,-39,-14,-67,-54c0,0,-27,-41,-33,-109H46l12,237H883L894,775H865c0,0,-8,62,-22,89c0,0,-23,43,-61,64c0,0,-39,20,-101,20H539V175c0,0,0,-93,20,-116c0,0,28,-32,87,-32h36V0Z" 
id="f0_1d"
transform="scale(0.001,-0.001)" />

<path d="M275,-20L578,891H299c0,0,-84,0,-120,-20c0,0,-63,-35,-101,-106l-21,8l97,239H696V983L359,-20Z" 
id="f0_m"
transform="scale(0.001,-0.001)" />


</defs>
</svg>