<?xml version="1.0" encoding="UTF-8" standalone="no"?>
<!DOCTYPE svg PUBLIC "-//W3C//DTD SVG 1.1//EN"
"http://www.w3.org/Graphics/SVG/1.1/DTD/svg11.dtd">
<svg viewBox="0 0 909 1286" version="1.1" xmlns="http://www.w3.org/2000/svg" xmlns:xlink="http://www.w3.org/1999/xlink">
<defs>
<clipPath id="c0_39"><path d="M760.8,1223.8v-18.9h18.4v18.9Z" /></clipPath>
<clipPath id="c1_39"><path d="M27.5,1223.8V27.5h854V1223.8Z" /></clipPath>
<style type="text/css"><![CDATA[
.g0_39{
}
]]></style>
</defs>
<g clip-path="url(#c0_39)">
<g fill="#000000" >
<use xlink:href="#f0_i" transform="matrix(12,0,0,12,760.8,1221.7)" />
<use xlink:href="#f0_o" transform="matrix(12,0,0,12,770,1221.7)" />
</g>
</g>
<g clip-path="url(#c1_39)">
<g fill="#000000" >
<use xlink:href="#f1_j" transform="matrix(13.9,0,0,13.9,157.3,128)" />
<use xlink:href="#f1_9" transform="matrix(13.9,0,0,13.9,168,128)" />
<use xlink:href="#f1_j" transform="matrix(13.9,0,0,13.9,173.3,128)" />
<use xlink:href="#f1_9" transform="matrix(13.9,0,0,13.9,184,128)" />
<use xlink:href="#f1_p" transform="matrix(13.9,0,0,13.9,190.3,128)" />
<use xlink:href="#f1_1o" transform="matrix(13.9,0,0,13.9,205.7,128)" />
<use xlink:href="#f1_1n" transform="matrix(13.9,0,0,13.9,216.4,128)" />
<use xlink:href="#f1_1c" transform="matrix(13.9,0,0,13.9,228.3,128)" />
<use xlink:href="#f1_1l" transform="matrix(13.9,0,0,13.9,237.8,128)" />
<use xlink:href="#f1_1u" transform="matrix(13.9,0,0,13.9,243.8,128)" />
<use xlink:href="#f1_1s" transform="matrix(13.9,0,0,13.9,255.7,128)" />
<use xlink:href="#f1_1i" transform="matrix(13.9,0,0,13.9,264,128)" />
<use xlink:href="#f1_1o" transform="matrix(13.9,0,0,13.9,269.9,128)" />
<use xlink:href="#f1_1n" transform="matrix(13.9,0,0,13.9,280.6,128)" />
</g>
</g>
<path d="M190.3,130.9H292.6v1.8H190.3Z" class="g0_39" />
<g clip-path="url(#c1_39)">
<g fill="#000000" >
<use xlink:href="#f0_11" transform="matrix(13.9,0,0,13.9,183.9,177.1)" />
<use xlink:href="#f0_1k" transform="matrix(13.9,0,0,13.9,199.3,177.1)" />
<use xlink:href="#f0_1x" transform="matrix(13.9,0,0,13.9,208.8,177.1)" />
<use xlink:href="#f0_1n" transform="matrix(13.9,0,0,13.9,219.5,177.1)" />
<use xlink:href="#f0_22" transform="matrix(13.9,0,0,13.9,230.2,177.1)" />
<use xlink:href="#f0_d" transform="matrix(13.9,0,0,13.9,238.5,177.1)" />
<use xlink:href="#f0_u" transform="matrix(13.9,0,0,13.9,243.9,177.1)" />
<use xlink:href="#f0_12" transform="matrix(13.9,0,0,13.9,259.3,177.1)" />
<use xlink:href="#f0_1z" transform="matrix(13.9,0,0,13.9,271.8,177.1)" />
<use xlink:href="#f0_21" transform="matrix(13.9,0,0,13.9,282.5,177.1)" />
<use xlink:href="#f0_1y" transform="matrix(13.9,0,0,13.9,289.6,177.1)" />
<use xlink:href="#f0_25" transform="matrix(13.9,0,0,13.9,300.4,177.1)" />
<use xlink:href="#f0_1s" transform="matrix(13.9,0,0,13.9,311.1,177.1)" />
<use xlink:href="#f0_1n" transform="matrix(13.9,0,0,13.9,317,177.1)" />
<use xlink:href="#f0_1o" transform="matrix(13.9,0,0,13.9,327.7,177.1)" />
<use xlink:href="#f0_1k" transform="matrix(13.9,0,0,13.9,342.5,177.1)" />
<use xlink:href="#f0_1w" transform="matrix(13.9,0,0,13.9,357.4,177.1)" />
<use xlink:href="#f0_1y" transform="matrix(13.9,0,0,13.9,374,177.1)" />
<use xlink:href="#f0_21" transform="matrix(13.9,0,0,13.9,384.7,177.1)" />
<use xlink:href="#f0_1o" transform="matrix(13.9,0,0,13.9,391.8,177.1)" />
<use xlink:href="#f0_1k" transform="matrix(13.9,0,0,13.9,406.7,177.1)" />
<use xlink:href="#f0_1m" transform="matrix(13.9,0,0,13.9,416.2,177.1)" />
<use xlink:href="#f0_1m" transform="matrix(13.9,0,0,13.9,425.7,177.1)" />
<use xlink:href="#f0_24" transform="matrix(13.9,0,0,13.9,435.2,177.1)" />
<use xlink:href="#f0_21" transform="matrix(13.9,0,0,13.9,445.9,177.1)" />
<use xlink:href="#f0_1k" transform="matrix(13.9,0,0,13.9,453,177.1)" />
<use xlink:href="#f0_23" transform="matrix(13.9,0,0,13.9,462.5,177.1)" />
<use xlink:href="#f0_1o" transform="matrix(13.9,0,0,13.9,468.4,177.1)" />
<use xlink:href="#f0_1w" transform="matrix(13.9,0,0,13.9,483.3,177.1)" />
<use xlink:href="#f0_1k" transform="matrix(13.9,0,0,13.9,499.9,177.1)" />
<use xlink:href="#f0_23" transform="matrix(13.9,0,0,13.9,509.4,177.1)" />
<use xlink:href="#f0_1m" transform="matrix(13.9,0,0,13.9,515.3,177.1)" />
<use xlink:href="#f0_1r" transform="matrix(13.9,0,0,13.9,524.8,177.1)" />
<use xlink:href="#f0_1l" transform="matrix(13.9,0,0,13.9,540.9,177.1)" />
<use xlink:href="#f0_1o" transform="matrix(13.9,0,0,13.9,551.6,177.1)" />
<use xlink:href="#f0_23" transform="matrix(13.9,0,0,13.9,561.1,177.1)" />
<use xlink:href="#f0_26" transform="matrix(13.9,0,0,13.9,567,177.1)" />
<use xlink:href="#f0_1o" transform="matrix(13.9,0,0,13.9,582.4,177.1)" />
<use xlink:href="#f0_1o" transform="matrix(13.9,0,0,13.9,591.9,177.1)" />
<use xlink:href="#f0_1x" transform="matrix(13.9,0,0,13.9,601.4,177.1)" />
<use xlink:href="#f0_24" transform="matrix(13.9,0,0,13.9,617.5,177.1)" />
<use xlink:href="#f0_22" transform="matrix(13.9,0,0,13.9,628.2,177.1)" />
<use xlink:href="#f0_1o" transform="matrix(13.9,0,0,13.9,636.5,177.1)" />
<use xlink:href="#f0_21" transform="matrix(13.9,0,0,13.9,646,177.1)" />
<use xlink:href="#f0_22" transform="matrix(13.9,0,0,13.9,653.1,177.1)" />
<use xlink:href="#f0_1l" transform="matrix(13.9,0,0,13.9,666.8,177.1)" />
<use xlink:href="#f0_28" transform="matrix(13.9,0,0,13.9,677.5,177.1)" />
<use xlink:href="#f0_22" transform="matrix(13.9,0,0,13.9,183.9,201.7)" />
<use xlink:href="#f0_1o" transform="matrix(13.9,0,0,13.9,192.2,201.7)" />
<use xlink:href="#f0_1q" transform="matrix(13.9,0,0,13.9,201.7,201.7)" />
<use xlink:href="#f0_1w" transform="matrix(13.9,0,0,13.9,212.4,201.7)" />
<use xlink:href="#f0_1o" transform="matrix(13.9,0,0,13.9,229,201.7)" />
<use xlink:href="#f0_1x" transform="matrix(13.9,0,0,13.9,238.5,201.7)" />
<use xlink:href="#f0_23" transform="matrix(13.9,0,0,13.9,249.2,201.7)" />
<use xlink:href="#f0_1s" transform="matrix(13.9,0,0,13.9,255.2,201.7)" />
<use xlink:href="#f0_1x" transform="matrix(13.9,0,0,13.9,261.1,201.7)" />
<use xlink:href="#f0_1q" transform="matrix(13.9,0,0,13.9,271.8,201.7)" />
<use xlink:href="#f0_23" transform="matrix(13.9,0,0,13.9,287.9,201.7)" />
<use xlink:href="#f0_1r" transform="matrix(13.9,0,0,13.9,293.8,201.7)" />
<use xlink:href="#f0_1o" transform="matrix(13.9,0,0,13.9,304.5,201.7)" />
<use xlink:href="#f0_1w" transform="matrix(13.9,0,0,13.9,314,201.7)" />
<use xlink:href="#f0_26" transform="matrix(13.9,0,0,13.9,336,201.7)" />
<use xlink:href="#f0_1s" transform="matrix(13.9,0,0,13.9,351.5,201.7)" />
<use xlink:href="#f0_23" transform="matrix(13.9,0,0,13.9,357.4,201.7)" />
<use xlink:href="#f0_1r" transform="matrix(13.9,0,0,13.9,363.3,201.7)" />
<use xlink:href="#f0_22" transform="matrix(13.9,0,0,13.9,379.4,201.7)" />
<use xlink:href="#f0_1s" transform="matrix(13.9,0,0,13.9,387.7,201.7)" />
<use xlink:href="#f0_1w" transform="matrix(13.9,0,0,13.9,393.7,201.7)" />
<use xlink:href="#f0_1z" transform="matrix(13.9,0,0,13.9,410.3,201.7)" />
<use xlink:href="#f0_1v" transform="matrix(13.9,0,0,13.9,421,201.7)" />
<use xlink:href="#f0_1o" transform="matrix(13.9,0,0,13.9,426.9,201.7)" />
<use xlink:href="#f0_1z" transform="matrix(13.9,0,0,13.9,441.8,201.7)" />
<use xlink:href="#f0_21" transform="matrix(13.9,0,0,13.9,452.5,201.7)" />
<use xlink:href="#f0_1o" transform="matrix(13.9,0,0,13.9,459.6,201.7)" />
<use xlink:href="#f0_22" transform="matrix(13.9,0,0,13.9,469.1,201.7)" />
<use xlink:href="#f0_1o" transform="matrix(13.9,0,0,13.9,477.4,201.7)" />
<use xlink:href="#f0_23" transform="matrix(13.9,0,0,13.9,486.9,201.7)" />
<use xlink:href="#f0_1q" transform="matrix(13.9,0,0,13.9,498.2,201.7)" />
<use xlink:href="#f0_1o" transform="matrix(13.9,0,0,13.9,508.9,201.7)" />
<use xlink:href="#f0_1y" transform="matrix(13.9,0,0,13.9,518.4,201.7)" />
<use xlink:href="#f0_1v" transform="matrix(13.9,0,0,13.9,529.1,201.7)" />
<use xlink:href="#f0_1y" transform="matrix(13.9,0,0,13.9,535.1,201.7)" />
<use xlink:href="#f0_1m" transform="matrix(13.9,0,0,13.9,545.8,201.7)" />
<use xlink:href="#f0_1k" transform="matrix(13.9,0,0,13.9,555.3,201.7)" />
<use xlink:href="#f0_23" transform="matrix(13.9,0,0,13.9,564.7,201.7)" />
<use xlink:href="#f0_1o" transform="matrix(13.9,0,0,13.9,570.7,201.7)" />
<use xlink:href="#f0_1n" transform="matrix(13.9,0,0,13.9,580.2,201.7)" />
<use xlink:href="#f0_20" transform="matrix(13.9,0,0,13.9,596.2,201.7)" />
<use xlink:href="#f0_24" transform="matrix(13.9,0,0,13.9,606.9,201.7)" />
<use xlink:href="#f0_1o" transform="matrix(13.9,0,0,13.9,617.6,201.7)" />
<use xlink:href="#f0_22" transform="matrix(13.9,0,0,13.9,627.1,201.7)" />
<use xlink:href="#f0_23" transform="matrix(13.9,0,0,13.9,635.5,201.7)" />
<use xlink:href="#f0_1s" transform="matrix(13.9,0,0,13.9,641.4,201.7)" />
<use xlink:href="#f0_1y" transform="matrix(13.9,0,0,13.9,647.3,201.7)" />
<use xlink:href="#f0_1x" transform="matrix(13.9,0,0,13.9,658,201.7)" />
<use xlink:href="#f0_22" transform="matrix(13.9,0,0,13.9,668.8,201.7)" />
<use xlink:href="#f0_d" transform="matrix(13.9,0,0,13.9,677.1,201.7)" />
<use xlink:href="#f0_1g" transform="matrix(13.9,0,0,13.9,687.8,201.7)" />
<use xlink:href="#f0_1o" transform="matrix(13.9,0,0,13.9,708,201.7)" />
<use xlink:href="#f0_1r" transform="matrix(13.9,0,0,13.9,722.8,201.7)" />
<use xlink:href="#f0_1k" transform="matrix(13.9,0,0,13.9,733.5,201.7)" />
<use xlink:href="#f0_25" transform="matrix(13.9,0,0,13.9,743,201.7)" />
<use xlink:href="#f0_1o" transform="matrix(13.9,0,0,13.9,753.7,201.7)" />
<use xlink:href="#f0_1n" transform="matrix(13.9,0,0,13.9,183.9,226.6)" />
<use xlink:href="#f0_1o" transform="matrix(13.9,0,0,13.9,194.6,226.6)" />
<use xlink:href="#f0_25" transform="matrix(13.9,0,0,13.9,204.1,226.6)" />
<use xlink:href="#f0_1o" transform="matrix(13.9,0,0,13.9,214.8,226.6)" />
<use xlink:href="#f0_1v" transform="matrix(13.9,0,0,13.9,224.2,226.6)" />
<use xlink:href="#f0_1y" transform="matrix(13.9,0,0,13.9,230.2,226.6)" />
<use xlink:href="#f0_1z" transform="matrix(13.9,0,0,13.9,240.9,226.6)" />
<use xlink:href="#f0_1o" transform="matrix(13.9,0,0,13.9,251.6,226.6)" />
<use xlink:href="#f0_1n" transform="matrix(13.9,0,0,13.9,261,226.6)" />
<use xlink:href="#f0_1k" transform="matrix(13.9,0,0,13.9,277.1,226.6)" />
<use xlink:href="#f0_1x" transform="matrix(13.9,0,0,13.9,286.6,226.6)" />
<use xlink:href="#f0_1c" transform="matrix(13.9,0,0,13.9,302.6,226.6)" />
<use xlink:href="#f0_x" transform="matrix(13.9,0,0,13.9,314.5,226.6)" />
<use xlink:href="#f0_14" transform="matrix(13.9,0,0,13.9,329.9,226.6)" />
<use xlink:href="#f0_1s" transform="matrix(13.9,0,0,13.9,350.7,226.6)" />
<use xlink:href="#f0_1x" transform="matrix(13.9,0,0,13.9,356.6,226.6)" />
<use xlink:href="#f0_23" transform="matrix(13.9,0,0,13.9,367.3,226.6)" />
<use xlink:href="#f0_1o" transform="matrix(13.9,0,0,13.9,373.2,226.6)" />
<use xlink:href="#f0_1q" transform="matrix(13.9,0,0,13.9,382.7,226.6)" />
<use xlink:href="#f0_21" transform="matrix(13.9,0,0,13.9,393.4,226.6)" />
<use xlink:href="#f0_1k" transform="matrix(13.9,0,0,13.9,400.5,226.6)" />
<use xlink:href="#f0_23" transform="matrix(13.9,0,0,13.9,410,226.6)" />
<use xlink:href="#f0_1s" transform="matrix(13.9,0,0,13.9,416,226.6)" />
<use xlink:href="#f0_1x" transform="matrix(13.9,0,0,13.9,421.9,226.6)" />
<use xlink:href="#f0_1q" transform="matrix(13.9,0,0,13.9,432.6,226.6)" />
<use xlink:href="#f0_p" transform="matrix(13.9,0,0,13.9,443.3,226.6)" />
<use xlink:href="#f0_1a" transform="matrix(13.9,0,0,13.9,454.5,226.6)" />
<use xlink:href="#f0_6" transform="matrix(13.9,0,0,13.9,470,226.6)" />
<use xlink:href="#f0_u" transform="matrix(13.9,0,0,13.9,486.6,226.6)" />
<use xlink:href="#f0_22" transform="matrix(13.9,0,0,13.9,507.4,226.6)" />
<use xlink:href="#f0_28" transform="matrix(13.9,0,0,13.9,515.7,226.6)" />
<use xlink:href="#f0_22" transform="matrix(13.9,0,0,13.9,526.4,226.6)" />
<use xlink:href="#f0_23" transform="matrix(13.9,0,0,13.9,534.7,226.6)" />
<use xlink:href="#f0_1o" transform="matrix(13.9,0,0,13.9,540.6,226.6)" />
<use xlink:href="#f0_1w" transform="matrix(13.9,0,0,13.9,550.1,226.6)" />
<use xlink:href="#f0_a" transform="matrix(13.9,0,0,13.9,572.1,226.6)" />
<use xlink:href="#f0_1m" transform="matrix(13.9,0,0,13.9,589.5,226.6)" />
<use xlink:href="#f0_1r" transform="matrix(13.9,0,0,13.9,599,226.6)" />
<use xlink:href="#f0_1k" transform="matrix(13.9,0,0,13.9,609.7,226.6)" />
<use xlink:href="#f0_23" transform="matrix(13.9,0,0,13.9,619.1,226.6)" />
<use xlink:href="#f0_a" transform="matrix(13.9,0,0,13.9,630.4,226.6)" />
<use xlink:href="#f0_1p" transform="matrix(13.9,0,0,13.9,647.8,226.6)" />
<use xlink:href="#f0_1v" transform="matrix(13.9,0,0,13.9,654.9,226.6)" />
<use xlink:href="#f0_24" transform="matrix(13.9,0,0,13.9,660.8,226.6)" />
<use xlink:href="#f0_1s" transform="matrix(13.9,0,0,13.9,671.5,226.6)" />
<use xlink:href="#f0_1n" transform="matrix(13.9,0,0,13.9,677.5,226.6)" />
<use xlink:href="#f0_1w" transform="matrix(13.9,0,0,13.9,183.9,251.2)" />
<use xlink:href="#f0_1k" transform="matrix(13.9,0,0,13.9,200.5,251.2)" />
<use xlink:href="#f0_23" transform="matrix(13.9,0,0,13.9,210,251.2)" />
<use xlink:href="#f0_1m" transform="matrix(13.9,0,0,13.9,216,251.2)" />
<use xlink:href="#f0_1r" transform="matrix(13.9,0,0,13.9,225.4,251.2)" />
<use xlink:href="#f0_1w" transform="matrix(13.9,0,0,13.9,236.1,251.2)" />
<use xlink:href="#f0_1k" transform="matrix(13.9,0,0,13.9,252.8,251.2)" />
<use xlink:href="#f0_1u" transform="matrix(13.9,0,0,13.9,262.3,251.2)" />
<use xlink:href="#f0_1s" transform="matrix(13.9,0,0,13.9,273,251.2)" />
<use xlink:href="#f0_1x" transform="matrix(13.9,0,0,13.9,278.9,251.2)" />
<use xlink:href="#f0_1q" transform="matrix(13.9,0,0,13.9,289.6,251.2)" />
<use xlink:href="#f0_1l" transform="matrix(13.9,0,0,13.9,305.7,251.2)" />
<use xlink:href="#f0_1k" transform="matrix(13.9,0,0,13.9,316.4,251.2)" />
<use xlink:href="#f0_22" transform="matrix(13.9,0,0,13.9,325.9,251.2)" />
<use xlink:href="#f0_1o" transform="matrix(13.9,0,0,13.9,334.2,251.2)" />
<use xlink:href="#f0_1n" transform="matrix(13.9,0,0,13.9,343.7,251.2)" />
<use xlink:href="#f0_1y" transform="matrix(13.9,0,0,13.9,359.7,251.2)" />
<use xlink:href="#f0_1x" transform="matrix(13.9,0,0,13.9,370.4,251.2)" />
<use xlink:href="#f0_1q" transform="matrix(13.9,0,0,13.9,386.4,251.2)" />
<use xlink:href="#f0_1o" transform="matrix(13.9,0,0,13.9,397.1,251.2)" />
<use xlink:href="#f0_1y" transform="matrix(13.9,0,0,13.9,406.6,251.2)" />
<use xlink:href="#f0_1v" transform="matrix(13.9,0,0,13.9,417.3,251.2)" />
<use xlink:href="#f0_1y" transform="matrix(13.9,0,0,13.9,423.2,251.2)" />
<use xlink:href="#f0_1m" transform="matrix(13.9,0,0,13.9,433.9,251.2)" />
<use xlink:href="#f0_1k" transform="matrix(13.9,0,0,13.9,443.4,251.2)" />
<use xlink:href="#f0_23" transform="matrix(13.9,0,0,13.9,452.9,251.2)" />
<use xlink:href="#f0_1s" transform="matrix(13.9,0,0,13.9,458.8,251.2)" />
<use xlink:href="#f0_1y" transform="matrix(13.9,0,0,13.9,464.7,251.2)" />
<use xlink:href="#f0_1x" transform="matrix(13.9,0,0,13.9,475.4,251.2)" />
<use xlink:href="#f0_b" transform="matrix(13.9,0,0,13.9,486.1,251.2)" />
<use xlink:href="#f0_1z" transform="matrix(13.9,0,0,13.9,496.8,251.2)" />
<use xlink:href="#f0_22" transform="matrix(13.9,0,0,13.9,507.5,251.2)" />
<use xlink:href="#f0_28" transform="matrix(13.9,0,0,13.9,515.8,251.2)" />
<use xlink:href="#f0_1m" transform="matrix(13.9,0,0,13.9,526.5,251.2)" />
<use xlink:href="#f0_1r" transform="matrix(13.9,0,0,13.9,536,251.2)" />
<use xlink:href="#f0_1y" transform="matrix(13.9,0,0,13.9,546.7,251.2)" />
<use xlink:href="#f0_1v" transform="matrix(13.9,0,0,13.9,557.4,251.2)" />
<use xlink:href="#f0_1y" transform="matrix(13.9,0,0,13.9,563.3,251.2)" />
<use xlink:href="#f0_1q" transform="matrix(13.9,0,0,13.9,574,251.2)" />
<use xlink:href="#f0_1s" transform="matrix(13.9,0,0,13.9,584.7,251.2)" />
<use xlink:href="#f0_1m" transform="matrix(13.9,0,0,13.9,590.6,251.2)" />
<use xlink:href="#f0_1z" transform="matrix(13.9,0,0,13.9,605.5,251.2)" />
<use xlink:href="#f0_21" transform="matrix(13.9,0,0,13.9,616.2,251.2)" />
<use xlink:href="#f0_1y" transform="matrix(13.9,0,0,13.9,623.3,251.2)" />
<use xlink:href="#f0_1p" transform="matrix(13.9,0,0,13.9,634,251.2)" />
<use xlink:href="#f0_1s" transform="matrix(13.9,0,0,13.9,641.1,251.2)" />
<use xlink:href="#f0_1v" transform="matrix(13.9,0,0,13.9,647,251.2)" />
<use xlink:href="#f0_1o" transform="matrix(13.9,0,0,13.9,653,251.2)" />
<use xlink:href="#f0_b" transform="matrix(13.9,0,0,13.9,662.4,251.2)" />
<use xlink:href="#f0_1k" transform="matrix(13.9,0,0,13.9,673.1,251.2)" />
<use xlink:href="#f0_1q" transform="matrix(13.9,0,0,13.9,682.6,251.2)" />
<use xlink:href="#f0_1o" transform="matrix(13.9,0,0,13.9,693.3,251.2)" />
<use xlink:href="#f0_b" transform="matrix(13.9,0,0,13.9,702.8,251.2)" />
<use xlink:href="#f0_1x" transform="matrix(13.9,0,0,13.9,713.4,251.2)" />
<use xlink:href="#f0_1o" transform="matrix(13.9,0,0,13.9,724.1,251.2)" />
<use xlink:href="#f0_1o" transform="matrix(13.9,0,0,13.9,733.6,251.2)" />
<use xlink:href="#f0_1n" transform="matrix(13.9,0,0,13.9,743.1,251.2)" />
<use xlink:href="#f0_22" transform="matrix(13.9,0,0,13.9,753.8,251.2)" />
<use xlink:href="#f0_b" transform="matrix(13.9,0,0,13.9,762.1,251.2)" />
<use xlink:href="#f0_1s" transform="matrix(13.9,0,0,13.9,183.9,275.7)" />
<use xlink:href="#f0_1x" transform="matrix(13.9,0,0,13.9,189.8,275.7)" />
<use xlink:href="#f0_23" transform="matrix(13.9,0,0,13.9,200.5,275.7)" />
<use xlink:href="#f0_1o" transform="matrix(13.9,0,0,13.9,206.5,275.7)" />
<use xlink:href="#f0_21" transform="matrix(13.9,0,0,13.9,216,275.7)" />
<use xlink:href="#f0_1o" transform="matrix(13.9,0,0,13.9,223.1,275.7)" />
<use xlink:href="#f0_22" transform="matrix(13.9,0,0,13.9,232.6,275.7)" />
<use xlink:href="#f0_23" transform="matrix(13.9,0,0,13.9,240.9,275.7)" />
<use xlink:href="#f0_22" transform="matrix(13.9,0,0,13.9,246.9,275.7)" />
<use xlink:href="#f0_b" transform="matrix(13.9,0,0,13.9,255.2,275.7)" />
<use xlink:href="#f0_22" transform="matrix(13.9,0,0,13.9,265.9,275.7)" />
<use xlink:href="#f0_1u" transform="matrix(13.9,0,0,13.9,274.2,275.7)" />
<use xlink:href="#f0_1s" transform="matrix(13.9,0,0,13.9,284.9,275.7)" />
<use xlink:href="#f0_1v" transform="matrix(13.9,0,0,13.9,290.8,275.7)" />
<use xlink:href="#f0_1v" transform="matrix(13.9,0,0,13.9,296.8,275.7)" />
<use xlink:href="#f0_22" transform="matrix(13.9,0,0,13.9,302.7,275.7)" />
<use xlink:href="#f0_a" transform="matrix(13.9,0,0,13.9,316.4,275.7)" />
<use xlink:href="#f0_21" transform="matrix(13.9,0,0,13.9,333.8,275.7)" />
<use xlink:href="#f0_1o" transform="matrix(13.9,0,0,13.9,340.9,275.7)" />
<use xlink:href="#f0_1k" transform="matrix(13.9,0,0,13.9,350.4,275.7)" />
<use xlink:href="#f0_1v" transform="matrix(13.9,0,0,13.9,359.9,275.7)" />
<use xlink:href="#f0_c" transform="matrix(13.9,0,0,13.9,365.8,275.7)" />
<use xlink:href="#f0_23" transform="matrix(13.9,0,0,13.9,373,275.7)" />
<use xlink:href="#f0_1s" transform="matrix(13.9,0,0,13.9,378.9,275.7)" />
<use xlink:href="#f0_1w" transform="matrix(13.9,0,0,13.9,384.8,275.7)" />
<use xlink:href="#f0_1o" transform="matrix(13.9,0,0,13.9,401.5,275.7)" />
<use xlink:href="#f0_1k" transform="matrix(13.9,0,0,13.9,416.3,275.7)" />
<use xlink:href="#f0_1z" transform="matrix(13.9,0,0,13.9,425.8,275.7)" />
<use xlink:href="#f0_1z" transform="matrix(13.9,0,0,13.9,436.5,275.7)" />
<use xlink:href="#f0_1v" transform="matrix(13.9,0,0,13.9,447.2,275.7)" />
<use xlink:href="#f0_1s" transform="matrix(13.9,0,0,13.9,453.2,275.7)" />
<use xlink:href="#f0_1m" transform="matrix(13.9,0,0,13.9,459.1,275.7)" />
<use xlink:href="#f0_1k" transform="matrix(13.9,0,0,13.9,468.6,275.7)" />
<use xlink:href="#f0_23" transform="matrix(13.9,0,0,13.9,478.1,275.7)" />
<use xlink:href="#f0_1s" transform="matrix(13.9,0,0,13.9,484,275.7)" />
<use xlink:href="#f0_1y" transform="matrix(13.9,0,0,13.9,490,275.7)" />
<use xlink:href="#f0_1x" transform="matrix(13.9,0,0,13.9,500.7,275.7)" />
<use xlink:href="#f0_22" transform="matrix(13.9,0,0,13.9,516.7,275.7)" />
<use xlink:href="#f0_1o" transform="matrix(13.9,0,0,13.9,525.1,275.7)" />
<use xlink:href="#f0_21" transform="matrix(13.9,0,0,13.9,534.6,275.7)" />
<use xlink:href="#f0_25" transform="matrix(13.9,0,0,13.9,541.7,275.7)" />
<use xlink:href="#f0_1o" transform="matrix(13.9,0,0,13.9,552.4,275.7)" />
<use xlink:href="#f0_21" transform="matrix(13.9,0,0,13.9,561.9,275.7)" />
<use xlink:href="#f0_a" transform="matrix(13.9,0,0,13.9,574.4,275.7)" />
<use xlink:href="#f0_1v" transform="matrix(13.9,0,0,13.9,591.8,275.7)" />
<use xlink:href="#f0_1s" transform="matrix(13.9,0,0,13.9,597.7,275.7)" />
<use xlink:href="#f0_1l" transform="matrix(13.9,0,0,13.9,603.7,275.7)" />
<use xlink:href="#f0_21" transform="matrix(13.9,0,0,13.9,614.4,275.7)" />
<use xlink:href="#f0_1k" transform="matrix(13.9,0,0,13.9,621.5,275.7)" />
<use xlink:href="#f0_21" transform="matrix(13.9,0,0,13.9,631,275.7)" />
<use xlink:href="#f0_28" transform="matrix(13.9,0,0,13.9,638.1,275.7)" />
<use xlink:href="#f0_1p" transform="matrix(13.9,0,0,13.9,654.2,275.7)" />
<use xlink:href="#f0_1y" transform="matrix(13.9,0,0,13.9,661.3,275.7)" />
<use xlink:href="#f0_21" transform="matrix(13.9,0,0,13.9,672,275.7)" />
<use xlink:href="#f0_1x" transform="matrix(13.9,0,0,13.9,684.5,275.7)" />
<use xlink:href="#f0_24" transform="matrix(13.9,0,0,13.9,695.2,275.7)" />
<use xlink:href="#f0_1w" transform="matrix(13.9,0,0,13.9,705.9,275.7)" />
<use xlink:href="#f0_1o" transform="matrix(13.9,0,0,13.9,722.5,275.7)" />
<use xlink:href="#f0_21" transform="matrix(13.9,0,0,13.9,732,275.7)" />
<use xlink:href="#f0_1s" transform="matrix(13.9,0,0,13.9,739.2,275.7)" />
<use xlink:href="#f0_1m" transform="matrix(13.9,0,0,13.9,745.1,275.7)" />
<use xlink:href="#f0_1k" transform="matrix(13.9,0,0,13.9,754.6,275.7)" />
<use xlink:href="#f0_1v" transform="matrix(13.9,0,0,13.9,764.1,275.7)" />
<use xlink:href="#f0_1m" transform="matrix(13.9,0,0,13.9,183.9,300.3)" />
<use xlink:href="#f0_1y" transform="matrix(13.9,0,0,13.9,193.4,300.3)" />
<use xlink:href="#f0_1w" transform="matrix(13.9,0,0,13.9,204.1,300.3)" />
<use xlink:href="#f0_1z" transform="matrix(13.9,0,0,13.9,220.7,300.3)" />
<use xlink:href="#f0_24" transform="matrix(13.9,0,0,13.9,231.4,300.3)" />
<use xlink:href="#f0_23" transform="matrix(13.9,0,0,13.9,242.1,300.3)" />
<use xlink:href="#f0_1k" transform="matrix(13.9,0,0,13.9,248.1,300.3)" />
<use xlink:href="#f0_23" transform="matrix(13.9,0,0,13.9,257.6,300.3)" />
<use xlink:href="#f0_1s" transform="matrix(13.9,0,0,13.9,263.5,300.3)" />
<use xlink:href="#f0_1y" transform="matrix(13.9,0,0,13.9,269.5,300.3)" />
<use xlink:href="#f0_1x" transform="matrix(13.9,0,0,13.9,280.2,300.3)" />
<use xlink:href="#f0_24" transform="matrix(13.9,0,0,13.9,296.2,300.3)" />
<use xlink:href="#f0_22" transform="matrix(13.9,0,0,13.9,306.9,300.3)" />
<use xlink:href="#f0_1s" transform="matrix(13.9,0,0,13.9,315.2,300.3)" />
<use xlink:href="#f0_1x" transform="matrix(13.9,0,0,13.9,321.2,300.3)" />
<use xlink:href="#f0_1q" transform="matrix(13.9,0,0,13.9,331.9,300.3)" />
<use xlink:href="#f0_1n" transform="matrix(13.9,0,0,13.9,347.9,300.3)" />
<use xlink:href="#f0_1k" transform="matrix(13.9,0,0,13.9,358.6,300.3)" />
<use xlink:href="#f0_23" transform="matrix(13.9,0,0,13.9,368.1,300.3)" />
<use xlink:href="#f0_1k" transform="matrix(13.9,0,0,13.9,374.1,300.3)" />
<use xlink:href="#f0_1p" transform="matrix(13.9,0,0,13.9,388.9,300.3)" />
<use xlink:href="#f0_1v" transform="matrix(13.9,0,0,13.9,396,300.3)" />
<use xlink:href="#f0_1y" transform="matrix(13.9,0,0,13.9,402,300.3)" />
<use xlink:href="#f0_26" transform="matrix(13.9,0,0,13.9,412.7,300.3)" />
<use xlink:href="#f0_1q" transform="matrix(13.9,0,0,13.9,433.5,300.3)" />
<use xlink:href="#f0_21" transform="matrix(13.9,0,0,13.9,444.2,300.3)" />
<use xlink:href="#f0_1k" transform="matrix(13.9,0,0,13.9,451.3,300.3)" />
<use xlink:href="#f0_1z" transform="matrix(13.9,0,0,13.9,460.8,300.3)" />
<use xlink:href="#f0_1r" transform="matrix(13.9,0,0,13.9,471.5,300.3)" />
<use xlink:href="#f0_22" transform="matrix(13.9,0,0,13.9,482.2,300.3)" />
<use xlink:href="#f0_1p" transform="matrix(13.9,0,0,13.9,495.9,300.3)" />
<use xlink:href="#f0_1y" transform="matrix(13.9,0,0,13.9,503,300.3)" />
<use xlink:href="#f0_21" transform="matrix(13.9,0,0,13.9,513.7,300.3)" />
<use xlink:href="#f0_1a" transform="matrix(13.9,0,0,13.9,526.1,300.3)" />
<use xlink:href="#f0_6" transform="matrix(13.9,0,0,13.9,541.6,300.3)" />
<use xlink:href="#f0_u" transform="matrix(13.9,0,0,13.9,558.2,300.3)" />
<use xlink:href="#f0_1k" transform="matrix(13.9,0,0,13.9,579,300.3)" />
<use xlink:href="#f0_1x" transform="matrix(13.9,0,0,13.9,588.5,300.3)" />
<use xlink:href="#f0_1n" transform="matrix(13.9,0,0,13.9,599.2,300.3)" />
<use xlink:href="#f0_16" transform="matrix(13.9,0,0,13.9,615.3,300.3)" />
<use xlink:href="#f0_1k" transform="matrix(13.9,0,0,13.9,634.3,300.3)" />
<use xlink:href="#f0_23" transform="matrix(13.9,0,0,13.9,643.8,300.3)" />
<use xlink:href="#f0_1m" transform="matrix(13.9,0,0,13.9,649.7,300.3)" />
<use xlink:href="#f0_1r" transform="matrix(13.9,0,0,13.9,659.2,300.3)" />
<use xlink:href="#f0_1w" transform="matrix(13.9,0,0,13.9,669.9,300.3)" />
<use xlink:href="#f0_1k" transform="matrix(13.9,0,0,13.9,686.6,300.3)" />
<use xlink:href="#f0_1u" transform="matrix(13.9,0,0,13.9,696.1,300.3)" />
<use xlink:href="#f0_1s" transform="matrix(13.9,0,0,13.9,706.8,300.3)" />
<use xlink:href="#f0_1x" transform="matrix(13.9,0,0,13.9,712.7,300.3)" />
<use xlink:href="#f0_1q" transform="matrix(13.9,0,0,13.9,723.4,300.3)" />
<use xlink:href="#f0_a" transform="matrix(13.9,0,0,13.9,739.5,300.3)" />
<use xlink:href="#f0_1l" transform="matrix(13.9,0,0,13.9,183.9,324.9)" />
<use xlink:href="#f0_1v" transform="matrix(13.9,0,0,13.9,194.6,324.9)" />
<use xlink:href="#f0_1y" transform="matrix(13.9,0,0,13.9,200.5,324.9)" />
<use xlink:href="#f0_1m" transform="matrix(13.9,0,0,13.9,211.2,324.9)" />
<use xlink:href="#f0_1u" transform="matrix(13.9,0,0,13.9,220.7,324.9)" />
<use xlink:href="#f0_1m" transform="matrix(13.9,0,0,13.9,231.4,324.9)" />
<use xlink:href="#f0_1r" transform="matrix(13.9,0,0,13.9,240.9,324.9)" />
<use xlink:href="#f0_1k" transform="matrix(13.9,0,0,13.9,251.6,324.9)" />
<use xlink:href="#f0_1s" transform="matrix(13.9,0,0,13.9,261,324.9)" />
<use xlink:href="#f0_1x" transform="matrix(13.9,0,0,13.9,267,324.9)" />
<use xlink:href="#f0_a" transform="matrix(13.9,0,0,13.9,283,324.9)" />
<use xlink:href="#f0_y" transform="matrix(13.9,0,0,13.9,300.4,324.9)" />
<use xlink:href="#f0_23" transform="matrix(13.9,0,0,13.9,313.5,324.9)" />
<use xlink:href="#f0_1r" transform="matrix(13.9,0,0,13.9,319.4,324.9)" />
<use xlink:href="#f0_1o" transform="matrix(13.9,0,0,13.9,330.1,324.9)" />
<use xlink:href="#f0_21" transform="matrix(13.9,0,0,13.9,339.6,324.9)" />
<use xlink:href="#f0_1o" transform="matrix(13.9,0,0,13.9,346.7,324.9)" />
<use xlink:href="#f0_24" transform="matrix(13.9,0,0,13.9,356.2,324.9)" />
<use xlink:href="#f0_1w" transform="matrix(13.9,0,0,13.9,366.9,324.9)" />
<use xlink:href="#f0_a" transform="matrix(13.9,0,0,13.9,388.8,324.9)" />
<use xlink:href="#f0_15" transform="matrix(13.9,0,0,13.9,406.2,324.9)" />
<use xlink:href="#f0_1s" transform="matrix(13.9,0,0,13.9,419.3,324.9)" />
<use xlink:href="#f0_1q" transform="matrix(13.9,0,0,13.9,425.2,324.9)" />
<use xlink:href="#f0_1r" transform="matrix(13.9,0,0,13.9,435.9,324.9)" />
<use xlink:href="#f0_23" transform="matrix(13.9,0,0,13.9,446.6,324.9)" />
<use xlink:href="#f0_1x" transform="matrix(13.9,0,0,13.9,452.6,324.9)" />
<use xlink:href="#f0_1s" transform="matrix(13.9,0,0,13.9,463.3,324.9)" />
<use xlink:href="#f0_1x" transform="matrix(13.9,0,0,13.9,469.2,324.9)" />
<use xlink:href="#f0_1q" transform="matrix(13.9,0,0,13.9,479.9,324.9)" />
<use xlink:href="#f0_17" transform="matrix(13.9,0,0,13.9,495.9,324.9)" />
<use xlink:href="#f0_1o" transform="matrix(13.9,0,0,13.9,511.4,324.9)" />
<use xlink:href="#f0_23" transform="matrix(13.9,0,0,13.9,520.8,324.9)" />
<use xlink:href="#f0_26" transform="matrix(13.9,0,0,13.9,526.8,324.9)" />
<use xlink:href="#f0_1y" transform="matrix(13.9,0,0,13.9,542.2,324.9)" />
<use xlink:href="#f0_21" transform="matrix(13.9,0,0,13.9,552.9,324.9)" />
<use xlink:href="#f0_1u" transform="matrix(13.9,0,0,13.9,560,324.9)" />
<use xlink:href="#f0_d" transform="matrix(13.9,0,0,13.9,570.7,324.9)" />
<use xlink:href="#f0_11" transform="matrix(13.9,0,0,13.9,183.9,367.8)" />
<use xlink:href="#f0_1k" transform="matrix(13.9,0,0,13.9,199.3,367.8)" />
<use xlink:href="#f0_1x" transform="matrix(13.9,0,0,13.9,208.8,367.8)" />
<use xlink:href="#f0_1n" transform="matrix(13.9,0,0,13.9,219.5,367.8)" />
<use xlink:href="#f0_22" transform="matrix(13.9,0,0,13.9,230.2,367.8)" />
<use xlink:href="#f0_d" transform="matrix(13.9,0,0,13.9,238.5,367.8)" />
<use xlink:href="#f0_u" transform="matrix(13.9,0,0,13.9,243.9,367.8)" />
<use xlink:href="#f0_12" transform="matrix(13.9,0,0,13.9,259.3,367.8)" />
<use xlink:href="#f0_1r" transform="matrix(13.9,0,0,13.9,271.8,367.8)" />
<use xlink:href="#f0_1o" transform="matrix(13.9,0,0,13.9,282.5,367.8)" />
<use xlink:href="#f0_1v" transform="matrix(13.9,0,0,13.9,292,367.8)" />
<use xlink:href="#f0_1z" transform="matrix(13.9,0,0,13.9,297.9,367.8)" />
<use xlink:href="#f0_22" transform="matrix(13.9,0,0,13.9,308.6,367.8)" />
<use xlink:href="#f0_23" transform="matrix(13.9,0,0,13.9,322.3,367.8)" />
<use xlink:href="#f0_1r" transform="matrix(13.9,0,0,13.9,328.2,367.8)" />
<use xlink:href="#f0_1o" transform="matrix(13.9,0,0,13.9,338.9,367.8)" />
<use xlink:href="#f0_24" transform="matrix(13.9,0,0,13.9,353.8,367.8)" />
<use xlink:href="#f0_22" transform="matrix(13.9,0,0,13.9,364.5,367.8)" />
<use xlink:href="#f0_1o" transform="matrix(13.9,0,0,13.9,372.8,367.8)" />
<use xlink:href="#f0_21" transform="matrix(13.9,0,0,13.9,382.3,367.8)" />
<use xlink:href="#f0_23" transform="matrix(13.9,0,0,13.9,394.8,367.8)" />
<use xlink:href="#f0_1y" transform="matrix(13.9,0,0,13.9,400.7,367.8)" />
<use xlink:href="#f0_1m" transform="matrix(13.9,0,0,13.9,416.8,367.8)" />
<use xlink:href="#f0_1y" transform="matrix(13.9,0,0,13.9,426.3,367.8)" />
<use xlink:href="#f0_1x" transform="matrix(13.9,0,0,13.9,437,367.8)" />
<use xlink:href="#f0_1x" transform="matrix(13.9,0,0,13.9,447.7,367.8)" />
<use xlink:href="#f0_1o" transform="matrix(13.9,0,0,13.9,458.4,367.8)" />
<use xlink:href="#f0_1m" transform="matrix(13.9,0,0,13.9,467.9,367.8)" />
<use xlink:href="#f0_23" transform="matrix(13.9,0,0,13.9,477.4,367.8)" />
<use xlink:href="#f0_1r" transform="matrix(13.9,0,0,13.9,488.7,367.8)" />
<use xlink:href="#f0_1s" transform="matrix(13.9,0,0,13.9,499.4,367.8)" />
<use xlink:href="#f0_1w" transform="matrix(13.9,0,0,13.9,505.3,367.8)" />
<use xlink:href="#f0_22" transform="matrix(13.9,0,0,13.9,522,367.8)" />
<use xlink:href="#f0_1o" transform="matrix(13.9,0,0,13.9,530.3,367.8)" />
<use xlink:href="#f0_1v" transform="matrix(13.9,0,0,13.9,539.8,367.8)" />
<use xlink:href="#f0_1p" transform="matrix(13.9,0,0,13.9,545.6,367.8)" />
<use xlink:href="#f0_26" transform="matrix(13.9,0,0,13.9,558.1,367.8)" />
<use xlink:href="#f0_1s" transform="matrix(13.9,0,0,13.9,573.5,367.8)" />
<use xlink:href="#f0_23" transform="matrix(13.9,0,0,13.9,579.5,367.8)" />
<use xlink:href="#f0_1r" transform="matrix(13.9,0,0,13.9,585.4,367.8)" />
<use xlink:href="#f0_1y" transform="matrix(13.9,0,0,13.9,601.4,367.8)" />
<use xlink:href="#f0_23" transform="matrix(13.9,0,0,13.9,612.1,367.8)" />
<use xlink:href="#f0_1r" transform="matrix(13.9,0,0,13.9,618,367.8)" />
<use xlink:href="#f0_1o" transform="matrix(13.9,0,0,13.9,628.7,367.8)" />
<use xlink:href="#f0_21" transform="matrix(13.9,0,0,13.9,638.2,367.8)" />
<use xlink:href="#f0_22" transform="matrix(13.9,0,0,13.9,645.4,367.8)" />
<use xlink:href="#f0_1s" transform="matrix(13.9,0,0,13.9,659,367.8)" />
<use xlink:href="#f0_1x" transform="matrix(13.9,0,0,13.9,665,367.8)" />
<use xlink:href="#f0_1k" transform="matrix(13.9,0,0,13.9,681,367.8)" />
<use xlink:href="#f0_1x" transform="matrix(13.9,0,0,13.9,695.8,367.8)" />
<use xlink:href="#f0_1o" transform="matrix(13.9,0,0,13.9,706.5,367.8)" />
<use xlink:href="#f0_26" transform="matrix(13.9,0,0,13.9,716,367.8)" />
<use xlink:href="#f0_26" transform="matrix(13.9,0,0,13.9,736.8,367.8)" />
<use xlink:href="#f0_1k" transform="matrix(13.9,0,0,13.9,752.2,367.8)" />
<use xlink:href="#f0_28" transform="matrix(13.9,0,0,13.9,761.7,367.8)" />
<use xlink:href="#f0_d" transform="matrix(13.9,0,0,13.9,772.4,367.8)" />
<use xlink:href="#f0_1g" transform="matrix(13.9,0,0,13.9,183.9,392.3)" />
<use xlink:href="#f0_1s" transform="matrix(13.9,0,0,13.9,204.1,392.3)" />
<use xlink:href="#f0_23" transform="matrix(13.9,0,0,13.9,210,392.3)" />
<use xlink:href="#f0_1r" transform="matrix(13.9,0,0,13.9,216,392.3)" />
<use xlink:href="#f0_1k" transform="matrix(13.9,0,0,13.9,232,392.3)" />
<use xlink:href="#f0_1x" transform="matrix(13.9,0,0,13.9,241.5,392.3)" />
<use xlink:href="#f0_1k" transform="matrix(13.9,0,0,13.9,257.5,392.3)" />
<use xlink:href="#f0_21" transform="matrix(13.9,0,0,13.9,267,392.3)" />
<use xlink:href="#f0_23" transform="matrix(13.9,0,0,13.9,274.2,392.3)" />
<use xlink:href="#f0_1s" transform="matrix(13.9,0,0,13.9,280.1,392.3)" />
<use xlink:href="#f0_1p" transform="matrix(13.9,0,0,13.9,286,392.3)" />
<use xlink:href="#f0_1s" transform="matrix(13.9,0,0,13.9,293.2,392.3)" />
<use xlink:href="#f0_1m" transform="matrix(13.9,0,0,13.9,299.1,392.3)" />
<use xlink:href="#f0_1s" transform="matrix(13.9,0,0,13.9,308.6,392.3)" />
<use xlink:href="#f0_1k" transform="matrix(13.9,0,0,13.9,314.5,392.3)" />
<use xlink:href="#f0_1v" transform="matrix(13.9,0,0,13.9,324,392.3)" />
<use xlink:href="#f0_1s" transform="matrix(13.9,0,0,13.9,335.3,392.3)" />
<use xlink:href="#f0_1x" transform="matrix(13.9,0,0,13.9,341.3,392.3)" />
<use xlink:href="#f0_23" transform="matrix(13.9,0,0,13.9,352,392.3)" />
<use xlink:href="#f0_1o" transform="matrix(13.9,0,0,13.9,357.9,392.3)" />
<use xlink:href="#f0_1v" transform="matrix(13.9,0,0,13.9,367.4,392.3)" />
<use xlink:href="#f0_1v" transform="matrix(13.9,0,0,13.9,373.3,392.3)" />
<use xlink:href="#f0_1s" transform="matrix(13.9,0,0,13.9,379.3,392.3)" />
<use xlink:href="#f0_1q" transform="matrix(13.9,0,0,13.9,385.2,392.3)" />
<use xlink:href="#f0_1o" transform="matrix(13.9,0,0,13.9,395.9,392.3)" />
<use xlink:href="#f0_1x" transform="matrix(13.9,0,0,13.9,405.4,392.3)" />
<use xlink:href="#f0_1m" transform="matrix(13.9,0,0,13.9,416.1,392.3)" />
<use xlink:href="#f0_1o" transform="matrix(13.9,0,0,13.9,425.6,392.3)" />
<use xlink:href="#f0_26" transform="matrix(13.9,0,0,13.9,440.4,392.3)" />
<use xlink:href="#f0_1r" transform="matrix(13.9,0,0,13.9,455.9,392.3)" />
<use xlink:href="#f0_1y" transform="matrix(13.9,0,0,13.9,466.6,392.3)" />
<use xlink:href="#f0_26" transform="matrix(13.9,0,0,13.9,482.6,392.3)" />
<use xlink:href="#f0_1s" transform="matrix(13.9,0,0,13.9,498.1,392.3)" />
<use xlink:href="#f0_1v" transform="matrix(13.9,0,0,13.9,504,392.3)" />
<use xlink:href="#f0_1v" transform="matrix(13.9,0,0,13.9,510,392.3)" />
<use xlink:href="#f0_1s" transform="matrix(13.9,0,0,13.9,521.2,392.3)" />
<use xlink:href="#f0_1x" transform="matrix(13.9,0,0,13.9,527.2,392.3)" />
<use xlink:href="#f0_23" transform="matrix(13.9,0,0,13.9,537.9,392.3)" />
<use xlink:href="#f0_21" transform="matrix(13.9,0,0,13.9,543.8,392.3)" />
<use xlink:href="#f0_1y" transform="matrix(13.9,0,0,13.9,551,392.3)" />
<use xlink:href="#f0_1n" transform="matrix(13.9,0,0,13.9,561.7,392.3)" />
<use xlink:href="#f0_24" transform="matrix(13.9,0,0,13.9,572.4,392.3)" />
<use xlink:href="#f0_1m" transform="matrix(13.9,0,0,13.9,583.1,392.3)" />
<use xlink:href="#f0_1o" transform="matrix(13.9,0,0,13.9,592.6,392.3)" />
<use xlink:href="#f0_1r" transform="matrix(13.9,0,0,13.9,607.4,392.3)" />
<use xlink:href="#f0_1s" transform="matrix(13.9,0,0,13.9,618.1,392.3)" />
<use xlink:href="#f0_1w" transform="matrix(13.9,0,0,13.9,624,392.3)" />
<use xlink:href="#f0_23" transform="matrix(13.9,0,0,13.9,646,392.3)" />
<use xlink:href="#f0_1y" transform="matrix(13.9,0,0,13.9,652,392.3)" />
<use xlink:href="#f0_1z" transform="matrix(13.9,0,0,13.9,668,392.3)" />
<use xlink:href="#f0_1o" transform="matrix(13.9,0,0,13.9,678.7,392.3)" />
<use xlink:href="#f0_1y" transform="matrix(13.9,0,0,13.9,688.2,392.3)" />
<use xlink:href="#f0_1z" transform="matrix(13.9,0,0,13.9,698.9,392.3)" />
<use xlink:href="#f0_1v" transform="matrix(13.9,0,0,13.9,709.6,392.3)" />
<use xlink:href="#f0_1o" transform="matrix(13.9,0,0,13.9,715.5,392.3)" />
<use xlink:href="#f0_23" transform="matrix(13.9,0,0,13.9,730.4,392.3)" />
<use xlink:href="#f0_1r" transform="matrix(13.9,0,0,13.9,736.3,392.3)" />
<use xlink:href="#f0_1k" transform="matrix(13.9,0,0,13.9,747,392.3)" />
<use xlink:href="#f0_23" transform="matrix(13.9,0,0,13.9,756.5,392.3)" />
<use xlink:href="#f0_1m" transform="matrix(13.9,0,0,13.9,183.9,416.9)" />
<use xlink:href="#f0_1k" transform="matrix(13.9,0,0,13.9,193.4,416.9)" />
<use xlink:href="#f0_1x" transform="matrix(13.9,0,0,13.9,202.9,416.9)" />
<use xlink:href="#f0_1r" transform="matrix(13.9,0,0,13.9,218.9,416.9)" />
<use xlink:href="#f0_1o" transform="matrix(13.9,0,0,13.9,229.6,416.9)" />
<use xlink:href="#f0_1v" transform="matrix(13.9,0,0,13.9,239.1,416.9)" />
<use xlink:href="#f0_1z" transform="matrix(13.9,0,0,13.9,245.1,416.9)" />
<use xlink:href="#f0_1r" transform="matrix(13.9,0,0,13.9,261.1,416.9)" />
<use xlink:href="#f0_1s" transform="matrix(13.9,0,0,13.9,271.8,416.9)" />
<use xlink:href="#f0_1w" transform="matrix(13.9,0,0,13.9,277.8,416.9)" />
<use xlink:href="#f0_1k" transform="matrix(13.9,0,0,13.9,299.7,416.9)" />
<use xlink:href="#f0_1x" transform="matrix(13.9,0,0,13.9,309.2,416.9)" />
<use xlink:href="#f0_1n" transform="matrix(13.9,0,0,13.9,319.9,416.9)" />
<use xlink:href="#f0_26" transform="matrix(13.9,0,0,13.9,336,416.9)" />
<use xlink:href="#f0_1s" transform="matrix(13.9,0,0,13.9,351.4,416.9)" />
<use xlink:href="#f0_1v" transform="matrix(13.9,0,0,13.9,357.4,416.9)" />
<use xlink:href="#f0_1v" transform="matrix(13.9,0,0,13.9,363.3,416.9)" />
<use xlink:href="#f0_1l" transform="matrix(13.9,0,0,13.9,374.6,416.9)" />
<use xlink:href="#f0_21" transform="matrix(13.9,0,0,13.9,385.3,416.9)" />
<use xlink:href="#f0_1s" transform="matrix(13.9,0,0,13.9,392.4,416.9)" />
<use xlink:href="#f0_1x" transform="matrix(13.9,0,0,13.9,398.4,416.9)" />
<use xlink:href="#f0_1q" transform="matrix(13.9,0,0,13.9,409.1,416.9)" />
<use xlink:href="#f0_1r" transform="matrix(13.9,0,0,13.9,425.1,416.9)" />
<use xlink:href="#f0_1s" transform="matrix(13.9,0,0,13.9,435.8,416.9)" />
<use xlink:href="#f0_1w" transform="matrix(13.9,0,0,13.9,441.8,416.9)" />
<use xlink:href="#f0_1m" transform="matrix(13.9,0,0,13.9,463.8,416.9)" />
<use xlink:href="#f0_1v" transform="matrix(13.9,0,0,13.9,473.3,416.9)" />
<use xlink:href="#f0_1y" transform="matrix(13.9,0,0,13.9,479.2,416.9)" />
<use xlink:href="#f0_22" transform="matrix(13.9,0,0,13.9,489.9,416.9)" />
<use xlink:href="#f0_1o" transform="matrix(13.9,0,0,13.9,498.2,416.9)" />
<use xlink:href="#f0_21" transform="matrix(13.9,0,0,13.9,507.7,416.9)" />
<use xlink:href="#f0_23" transform="matrix(13.9,0,0,13.9,520.2,416.9)" />
<use xlink:href="#f0_1y" transform="matrix(13.9,0,0,13.9,526.1,416.9)" />
<use xlink:href="#f0_1z" transform="matrix(13.9,0,0,13.9,542.2,416.9)" />
<use xlink:href="#f0_1o" transform="matrix(13.9,0,0,13.9,552.9,416.9)" />
<use xlink:href="#f0_1y" transform="matrix(13.9,0,0,13.9,562.4,416.9)" />
<use xlink:href="#f0_1z" transform="matrix(13.9,0,0,13.9,573.1,416.9)" />
<use xlink:href="#f0_1v" transform="matrix(13.9,0,0,13.9,583.8,416.9)" />
<use xlink:href="#f0_1o" transform="matrix(13.9,0,0,13.9,589.7,416.9)" />
<use xlink:href="#f0_23" transform="matrix(13.9,0,0,13.9,604.6,416.9)" />
<use xlink:href="#f0_1r" transform="matrix(13.9,0,0,13.9,610.5,416.9)" />
<use xlink:href="#f0_1k" transform="matrix(13.9,0,0,13.9,621.2,416.9)" />
<use xlink:href="#f0_23" transform="matrix(13.9,0,0,13.9,630.7,416.9)" />
<use xlink:href="#f0_1w" transform="matrix(13.9,0,0,13.9,642,416.9)" />
<use xlink:href="#f0_1k" transform="matrix(13.9,0,0,13.9,658.6,416.9)" />
<use xlink:href="#f0_28" transform="matrix(13.9,0,0,13.9,668.1,416.9)" />
<use xlink:href="#f0_1x" transform="matrix(13.9,0,0,13.9,684.2,416.9)" />
<use xlink:href="#f0_1o" transform="matrix(13.9,0,0,13.9,694.9,416.9)" />
<use xlink:href="#f0_1o" transform="matrix(13.9,0,0,13.9,704.4,416.9)" />
<use xlink:href="#f0_1n" transform="matrix(13.9,0,0,13.9,713.9,416.9)" />
<use xlink:href="#f0_1r" transform="matrix(13.9,0,0,13.9,729.9,416.9)" />
<use xlink:href="#f0_1s" transform="matrix(13.9,0,0,13.9,740.6,416.9)" />
<use xlink:href="#f0_22" transform="matrix(13.9,0,0,13.9,746.6,416.9)" />
<use xlink:href="#f0_1r" transform="matrix(13.9,0,0,13.9,183.9,441.5)" />
<use xlink:href="#f0_1o" transform="matrix(13.9,0,0,13.9,194.6,441.5)" />
<use xlink:href="#f0_1v" transform="matrix(13.9,0,0,13.9,204.1,441.5)" />
<use xlink:href="#f0_1z" transform="matrix(13.9,0,0,13.9,210,441.5)" />
<use xlink:href="#f0_d" transform="matrix(13.9,0,0,13.9,220.7,441.5)" />
<use xlink:href="#f0_1d" transform="matrix(13.9,0,0,13.9,231.4,441.5)" />
<use xlink:href="#f0_1r" transform="matrix(13.9,0,0,13.9,244.4,441.5)" />
<use xlink:href="#f0_1o" transform="matrix(13.9,0,0,13.9,255.1,441.5)" />
<use xlink:href="#f0_24" transform="matrix(13.9,0,0,13.9,269.9,441.5)" />
<use xlink:href="#f0_22" transform="matrix(13.9,0,0,13.9,280.6,441.5)" />
<use xlink:href="#f0_1o" transform="matrix(13.9,0,0,13.9,289,441.5)" />
<use xlink:href="#f0_21" transform="matrix(13.9,0,0,13.9,298.4,441.5)" />
<use xlink:href="#f0_1m" transform="matrix(13.9,0,0,13.9,310.9,441.5)" />
<use xlink:href="#f0_1k" transform="matrix(13.9,0,0,13.9,320.4,441.5)" />
<use xlink:href="#f0_1x" transform="matrix(13.9,0,0,13.9,329.9,441.5)" />
<use xlink:href="#f0_1n" transform="matrix(13.9,0,0,13.9,345.9,441.5)" />
<use xlink:href="#f0_1s" transform="matrix(13.9,0,0,13.9,356.6,441.5)" />
<use xlink:href="#f0_22" transform="matrix(13.9,0,0,13.9,362.5,441.5)" />
<use xlink:href="#f0_1m" transform="matrix(13.9,0,0,13.9,370.8,441.5)" />
<use xlink:href="#f0_1y" transform="matrix(13.9,0,0,13.9,380.3,441.5)" />
<use xlink:href="#f0_25" transform="matrix(13.9,0,0,13.9,391,441.5)" />
<use xlink:href="#f0_1o" transform="matrix(13.9,0,0,13.9,401.7,441.5)" />
<use xlink:href="#f0_21" transform="matrix(13.9,0,0,13.9,411.2,441.5)" />
<use xlink:href="#f0_23" transform="matrix(13.9,0,0,13.9,423.6,441.5)" />
<use xlink:href="#f0_1r" transform="matrix(13.9,0,0,13.9,429.6,441.5)" />
<use xlink:href="#f0_1o" transform="matrix(13.9,0,0,13.9,440.3,441.5)" />
<use xlink:href="#f0_1m" transform="matrix(13.9,0,0,13.9,455.1,441.5)" />
<use xlink:href="#f0_1y" transform="matrix(13.9,0,0,13.9,464.6,441.5)" />
<use xlink:href="#f0_1x" transform="matrix(13.9,0,0,13.9,475.3,441.5)" />
<use xlink:href="#f0_1x" transform="matrix(13.9,0,0,13.9,486,441.5)" />
<use xlink:href="#f0_1o" transform="matrix(13.9,0,0,13.9,496.7,441.5)" />
<use xlink:href="#f0_1m" transform="matrix(13.9,0,0,13.9,506.1,441.5)" />
<use xlink:href="#f0_23" transform="matrix(13.9,0,0,13.9,515.6,441.5)" />
<use xlink:href="#f0_1s" transform="matrix(13.9,0,0,13.9,521.6,441.5)" />
<use xlink:href="#f0_1y" transform="matrix(13.9,0,0,13.9,527.5,441.5)" />
<use xlink:href="#f0_1x" transform="matrix(13.9,0,0,13.9,538.2,441.5)" />
<use xlink:href="#f0_22" transform="matrix(13.9,0,0,13.9,548.9,441.5)" />
<use xlink:href="#f0_1r" transform="matrix(13.9,0,0,13.9,562.5,441.5)" />
<use xlink:href="#f0_1o" transform="matrix(13.9,0,0,13.9,573.2,441.5)" />
<use xlink:href="#f0_22" transform="matrix(13.9,0,0,13.9,588,441.5)" />
<use xlink:href="#f0_1r" transform="matrix(13.9,0,0,13.9,596.4,441.5)" />
<use xlink:href="#f0_1k" transform="matrix(13.9,0,0,13.9,607,441.5)" />
<use xlink:href="#f0_21" transform="matrix(13.9,0,0,13.9,616.5,441.5)" />
<use xlink:href="#f0_1o" transform="matrix(13.9,0,0,13.9,623.7,441.5)" />
<use xlink:href="#f0_22" transform="matrix(13.9,0,0,13.9,633.1,441.5)" />
<use xlink:href="#f0_26" transform="matrix(13.9,0,0,13.9,646.8,441.5)" />
<use xlink:href="#f0_1s" transform="matrix(13.9,0,0,13.9,662.2,441.5)" />
<use xlink:href="#f0_23" transform="matrix(13.9,0,0,13.9,668.2,441.5)" />
<use xlink:href="#f0_1r" transform="matrix(13.9,0,0,13.9,674.1,441.5)" />
<use xlink:href="#f0_1y" transform="matrix(13.9,0,0,13.9,690.1,441.5)" />
<use xlink:href="#f0_23" transform="matrix(13.9,0,0,13.9,700.8,441.5)" />
<use xlink:href="#f0_1r" transform="matrix(13.9,0,0,13.9,706.7,441.5)" />
<use xlink:href="#f0_1o" transform="matrix(13.9,0,0,13.9,717.4,441.5)" />
<use xlink:href="#f0_21" transform="matrix(13.9,0,0,13.9,726.9,441.5)" />
<use xlink:href="#f0_22" transform="matrix(13.9,0,0,13.9,734,441.5)" />
<use xlink:href="#f0_b" transform="matrix(13.9,0,0,13.9,742.4,441.5)" />
<use xlink:href="#f0_22" transform="matrix(13.9,0,0,13.9,183.9,466)" />
<use xlink:href="#f0_1r" transform="matrix(13.9,0,0,13.9,192.2,466)" />
<use xlink:href="#f0_1k" transform="matrix(13.9,0,0,13.9,202.9,466)" />
<use xlink:href="#f0_21" transform="matrix(13.9,0,0,13.9,212.4,466)" />
<use xlink:href="#f0_1o" transform="matrix(13.9,0,0,13.9,219.5,466)" />
<use xlink:href="#f0_1r" transform="matrix(13.9,0,0,13.9,234.4,466)" />
<use xlink:href="#f0_1s" transform="matrix(13.9,0,0,13.9,245.1,466)" />
<use xlink:href="#f0_22" transform="matrix(13.9,0,0,13.9,251,466)" />
<use xlink:href="#f0_1u" transform="matrix(13.9,0,0,13.9,264.7,466)" />
<use xlink:href="#f0_1x" transform="matrix(13.9,0,0,13.9,275.4,466)" />
<use xlink:href="#f0_1y" transform="matrix(13.9,0,0,13.9,286.1,466)" />
<use xlink:href="#f0_26" transform="matrix(13.9,0,0,13.9,296.8,466)" />
<use xlink:href="#f0_1v" transform="matrix(13.9,0,0,13.9,312.2,466)" />
<use xlink:href="#f0_1o" transform="matrix(13.9,0,0,13.9,318.2,466)" />
<use xlink:href="#f0_1n" transform="matrix(13.9,0,0,13.9,327.7,466)" />
<use xlink:href="#f0_1q" transform="matrix(13.9,0,0,13.9,338.4,466)" />
<use xlink:href="#f0_1o" transform="matrix(13.9,0,0,13.9,349.1,466)" />
<use xlink:href="#f0_1k" transform="matrix(13.9,0,0,13.9,363.9,466)" />
<use xlink:href="#f0_1x" transform="matrix(13.9,0,0,13.9,373.4,466)" />
<use xlink:href="#f0_1n" transform="matrix(13.9,0,0,13.9,384.1,466)" />
<use xlink:href="#f0_22" transform="matrix(13.9,0,0,13.9,400.1,466)" />
<use xlink:href="#f0_1u" transform="matrix(13.9,0,0,13.9,408.4,466)" />
<use xlink:href="#f0_1s" transform="matrix(13.9,0,0,13.9,419.1,466)" />
<use xlink:href="#f0_1v" transform="matrix(13.9,0,0,13.9,425.1,466)" />
<use xlink:href="#f0_1v" transform="matrix(13.9,0,0,13.9,431,466)" />
<use xlink:href="#f0_22" transform="matrix(13.9,0,0,13.9,436.9,466)" />
<use xlink:href="#f0_b" transform="matrix(13.9,0,0,13.9,445.3,466)" />
<use xlink:href="#f0_1w" transform="matrix(13.9,0,0,13.9,456,466)" />
<use xlink:href="#f0_1o" transform="matrix(13.9,0,0,13.9,472.6,466)" />
<use xlink:href="#f0_1o" transform="matrix(13.9,0,0,13.9,482.1,466)" />
<use xlink:href="#f0_23" transform="matrix(13.9,0,0,13.9,491.6,466)" />
<use xlink:href="#f0_1x" transform="matrix(13.9,0,0,13.9,502.9,466)" />
<use xlink:href="#f0_1o" transform="matrix(13.9,0,0,13.9,513.6,466)" />
<use xlink:href="#f0_26" transform="matrix(13.9,0,0,13.9,523.1,466)" />
<use xlink:href="#f0_1z" transform="matrix(13.9,0,0,13.9,543.9,466)" />
<use xlink:href="#f0_1o" transform="matrix(13.9,0,0,13.9,554.6,466)" />
<use xlink:href="#f0_1y" transform="matrix(13.9,0,0,13.9,564.1,466)" />
<use xlink:href="#f0_1z" transform="matrix(13.9,0,0,13.9,574.8,466)" />
<use xlink:href="#f0_1v" transform="matrix(13.9,0,0,13.9,585.5,466)" />
<use xlink:href="#f0_1o" transform="matrix(13.9,0,0,13.9,591.4,466)" />
<use xlink:href="#f0_26" transform="matrix(13.9,0,0,13.9,606.3,466)" />
<use xlink:href="#f0_1r" transform="matrix(13.9,0,0,13.9,621.7,466)" />
<use xlink:href="#f0_1y" transform="matrix(13.9,0,0,13.9,632.4,466)" />
<use xlink:href="#f0_1m" transform="matrix(13.9,0,0,13.9,648.5,466)" />
<use xlink:href="#f0_1k" transform="matrix(13.9,0,0,13.9,658,466)" />
<use xlink:href="#f0_1x" transform="matrix(13.9,0,0,13.9,667.5,466)" />
<use xlink:href="#f0_1r" transform="matrix(13.9,0,0,13.9,683.5,466)" />
<use xlink:href="#f0_1o" transform="matrix(13.9,0,0,13.9,694.2,466)" />
<use xlink:href="#f0_1v" transform="matrix(13.9,0,0,13.9,703.7,466)" />
<use xlink:href="#f0_1z" transform="matrix(13.9,0,0,13.9,709.6,466)" />
<use xlink:href="#f0_1r" transform="matrix(13.9,0,0,13.9,725.7,466)" />
<use xlink:href="#f0_1s" transform="matrix(13.9,0,0,13.9,736.4,466)" />
<use xlink:href="#f0_1w" transform="matrix(13.9,0,0,13.9,742.3,466)" />
<use xlink:href="#f0_1k" transform="matrix(13.9,0,0,13.9,183.9,490.6)" />
<use xlink:href="#f0_1m" transform="matrix(13.9,0,0,13.9,193.4,490.6)" />
<use xlink:href="#f0_1r" transform="matrix(13.9,0,0,13.9,202.9,490.6)" />
<use xlink:href="#f0_1s" transform="matrix(13.9,0,0,13.9,213.6,490.6)" />
<use xlink:href="#f0_1o" transform="matrix(13.9,0,0,13.9,219.5,490.6)" />
<use xlink:href="#f0_25" transform="matrix(13.9,0,0,13.9,229,490.6)" />
<use xlink:href="#f0_1o" transform="matrix(13.9,0,0,13.9,239.7,490.6)" />
<use xlink:href="#f0_1r" transform="matrix(13.9,0,0,13.9,254.6,490.6)" />
<use xlink:href="#f0_1s" transform="matrix(13.9,0,0,13.9,265.3,490.6)" />
<use xlink:href="#f0_22" transform="matrix(13.9,0,0,13.9,271.2,490.6)" />
<use xlink:href="#f0_1q" transform="matrix(13.9,0,0,13.9,284.9,490.6)" />
<use xlink:href="#f0_1y" transform="matrix(13.9,0,0,13.9,295.6,490.6)" />
<use xlink:href="#f0_1k" transform="matrix(13.9,0,0,13.9,306.3,490.6)" />
<use xlink:href="#f0_1v" transform="matrix(13.9,0,0,13.9,315.8,490.6)" />
<use xlink:href="#f0_22" transform="matrix(13.9,0,0,13.9,321.7,490.6)" />
<use xlink:href="#f0_b" transform="matrix(13.9,0,0,13.9,330,490.6)" />
<use xlink:href="#f0_1o" transform="matrix(13.9,0,0,13.9,340.7,490.6)" />
<use xlink:href="#f0_27" transform="matrix(13.9,0,0,13.9,350.2,490.6)" />
<use xlink:href="#f0_1z" transform="matrix(13.9,0,0,13.9,360.9,490.6)" />
<use xlink:href="#f0_1v" transform="matrix(13.9,0,0,13.9,371.6,490.6)" />
<use xlink:href="#f0_1y" transform="matrix(13.9,0,0,13.9,377.6,490.6)" />
<use xlink:href="#f0_1s" transform="matrix(13.9,0,0,13.9,388.3,490.6)" />
<use xlink:href="#f0_23" transform="matrix(13.9,0,0,13.9,394.2,490.6)" />
<use xlink:href="#f0_1r" transform="matrix(13.9,0,0,13.9,405.5,490.6)" />
<use xlink:href="#f0_1s" transform="matrix(13.9,0,0,13.9,416.2,490.6)" />
<use xlink:href="#f0_22" transform="matrix(13.9,0,0,13.9,422.2,490.6)" />
<use xlink:href="#f0_1z" transform="matrix(13.9,0,0,13.9,435.8,490.6)" />
<use xlink:href="#f0_1y" transform="matrix(13.9,0,0,13.9,446.5,490.6)" />
<use xlink:href="#f0_23" transform="matrix(13.9,0,0,13.9,457.2,490.6)" />
<use xlink:href="#f0_1o" transform="matrix(13.9,0,0,13.9,463.2,490.6)" />
<use xlink:href="#f0_1x" transform="matrix(13.9,0,0,13.9,472.7,490.6)" />
<use xlink:href="#f0_23" transform="matrix(13.9,0,0,13.9,483.4,490.6)" />
<use xlink:href="#f0_1s" transform="matrix(13.9,0,0,13.9,489.3,490.6)" />
<use xlink:href="#f0_1k" transform="matrix(13.9,0,0,13.9,495.3,490.6)" />
<use xlink:href="#f0_1v" transform="matrix(13.9,0,0,13.9,504.8,490.6)" />
<use xlink:href="#f0_1k" transform="matrix(13.9,0,0,13.9,516.1,490.6)" />
<use xlink:href="#f0_1x" transform="matrix(13.9,0,0,13.9,525.5,490.6)" />
<use xlink:href="#f0_1n" transform="matrix(13.9,0,0,13.9,536.3,490.6)" />
<use xlink:href="#f0_1o" transform="matrix(13.9,0,0,13.9,552.3,490.6)" />
<use xlink:href="#f0_27" transform="matrix(13.9,0,0,13.9,561.8,490.6)" />
<use xlink:href="#f0_1z" transform="matrix(13.9,0,0,13.9,572.5,490.6)" />
<use xlink:href="#f0_1v" transform="matrix(13.9,0,0,13.9,583.2,490.6)" />
<use xlink:href="#f0_1y" transform="matrix(13.9,0,0,13.9,589.2,490.6)" />
<use xlink:href="#f0_21" transform="matrix(13.9,0,0,13.9,599.9,490.6)" />
<use xlink:href="#f0_1o" transform="matrix(13.9,0,0,13.9,607,490.6)" />
<use xlink:href="#f0_1x" transform="matrix(13.9,0,0,13.9,621.8,490.6)" />
<use xlink:href="#f0_1o" transform="matrix(13.9,0,0,13.9,632.5,490.6)" />
<use xlink:href="#f0_26" transform="matrix(13.9,0,0,13.9,642,490.6)" />
<use xlink:href="#f0_1z" transform="matrix(13.9,0,0,13.9,662.8,490.6)" />
<use xlink:href="#f0_1o" transform="matrix(13.9,0,0,13.9,673.5,490.6)" />
<use xlink:href="#f0_21" transform="matrix(13.9,0,0,13.9,683,490.6)" />
<use xlink:href="#f0_22" transform="matrix(13.9,0,0,13.9,690.1,490.6)" />
<use xlink:href="#f0_1z" transform="matrix(13.9,0,0,13.9,698.4,490.6)" />
<use xlink:href="#f0_1o" transform="matrix(13.9,0,0,13.9,709.1,490.6)" />
<use xlink:href="#f0_1m" transform="matrix(13.9,0,0,13.9,718.6,490.6)" />
<use xlink:href="#f0_23" transform="matrix(13.9,0,0,13.9,728.1,490.6)" />
<use xlink:href="#f0_1s" transform="matrix(13.9,0,0,13.9,734.1,490.6)" />
<use xlink:href="#f0_25" transform="matrix(13.9,0,0,13.9,740,490.6)" />
<use xlink:href="#f0_1o" transform="matrix(13.9,0,0,13.9,750.7,490.6)" />
<use xlink:href="#f0_22" transform="matrix(13.9,0,0,13.9,760.2,490.6)" />
<use xlink:href="#f0_d" transform="matrix(13.9,0,0,13.9,768.5,490.6)" />
</g>
</g>
<defs>
<path d="M238,-17c0,0,-103,0,-139,25C99,8,62,33,62,62c0,0,0,22,17,38c0,0,18,16,42,16c0,0,19,0,38,-6c0,0,13,-3,58,-27c0,0,45,-23,62,-28c0,0,27,-8,59,-8c0,0,76,0,132,59c0,0,56,59,56,140c0,0,0,59,-26,115c0,0,-19,41,-42,63c0,0,-32,30,-88,54c0,0,-56,25,-114,25H232v22c0,0,59,8,118,42c0,0,59,35,86,85c0,0,27,49,27,108c0,0,0,76,-48,124c0,0,-48,47,-120,47c0,0,-116,0,-193,-124L77,819c0,0,44,102,110,158c0,0,66,56,164,56c0,0,122,0,187,-80c0,0,49,-58,49,-126c0,0,0,-110,-139,-228c0,0,93,-36,141,-104c0,0,48,-68,48,-160c0,0,0,-131,-84,-227C553,108,444,-17,238,-17Z" 
id="f0_i"
transform="scale(0.001,-0.001)" />

<path d="M379,437c0,0,34,0,81,16c0,0,47,17,83,47c0,0,14,97,14,155c0,0,0,72,-25,156c0,0,-25,83,-70,128c0,0,-45,45,-103,45c0,0,-66,0,-116,-60c0,0,-50,-59,-50,-177c0,0,0,-157,66,-246c0,0,49,-64,120,-64ZM80,-20V7c0,0,97,1,181,45c0,0,83,44,161,153c0,0,78,109,109,240c0,0,-117,-75,-212,-75c0,0,-107,0,-183,82c0,0,-76,82,-76,219c0,0,0,132,76,236c0,0,92,126,240,126c0,0,124,0,213,-103c0,0,109,-128,109,-315c0,0,0,-169,-82,-314C616,301,533,155,385,59c0,0,-120,-79,-262,-79Z" 
id="f0_o"
transform="scale(0.001,-0.001)" />

<path d="M381,27c0,0,54,0,91,40c0,0,38,40,38,110c0,0,0,144,-194,276c0,0,-23,-21,-33,-38c0,0,-15,-26,-27,-76c0,0,-13,-50,-13,-105c0,0,0,-70,18,-117c0,0,18,-48,51,-69c0,0,34,-21,69,-21Zm83,582c0,0,27,37,40,83c0,0,14,47,14,102c0,0,0,97,-42,149c0,0,-31,40,-86,40c0,0,-50,0,-84,-37c0,0,-35,-36,-35,-90c0,0,0,-54,39,-113c0,0,39,-58,154,-134ZM368,-20c0,0,-150,0,-232,73c0,0,-82,74,-82,181c0,0,0,81,47,142c0,0,48,62,159,112c0,0,-121,92,-155,150c0,0,-34,58,-34,135c0,0,0,101,86,178c0,0,86,78,236,78c0,0,144,0,222,-69c0,0,78,-68,78,-163c0,0,0,-72,-43,-127c0,0,-42,-54,-130,-98c0,0,107,-79,149,-146c0,0,41,-68,41,-155c0,0,0,-122,-92,-207c0,0,-92,-84,-250,-84Z" 
id="f1_j"
transform="scale(0.001,-0.001)" />

<path d="M191,-18c0,0,-51,0,-87,36c0,0,-37,36,-37,87c0,0,0,52,37,88c0,0,36,37,87,37c0,0,52,0,89,-37c0,0,36,-36,36,-88c0,0,0,-51,-37,-87c0,0,-36,-36,-88,-36Z" 
id="f1_9"
transform="scale(0.001,-0.001)" />

<path d="M610,-21c0,0,-162,0,-287,63c0,0,-126,65,-194,187c0,0,-68,121,-68,258c0,0,0,145,75,275c0,0,76,129,205,201c0,0,128,71,273,71c0,0,107,0,225,-46c0,0,69,-27,88,-27c0,0,24,0,41,18c0,0,18,17,23,55h29V683H991c0,0,-33,138,-122,211c0,0,-90,73,-203,73c0,0,-95,0,-174,-54c0,0,-79,-55,-116,-143c0,0,-47,-112,-47,-250c0,0,0,-135,34,-247c0,0,35,-111,108,-168c0,0,73,-57,189,-57c0,0,96,0,175,42c0,0,80,41,168,144V146c0,0,-85,-89,-178,-129c0,0,-92,-38,-215,-38Z" 
id="f1_p"
transform="scale(0.001,-0.001)" />

<path d="M381,31c0,0,33,0,56,19c0,0,29,25,38,71c0,0,15,71,15,286c0,0,0,127,-14,174c0,0,-14,48,-42,69c0,0,-19,16,-50,16c0,0,-38,0,-65,-29c0,0,-27,-29,-36,-113c0,0,-8,-85,-8,-235c0,0,0,-80,10,-150c0,0,8,-53,35,-80c0,0,27,-28,61,-28Zm2,-51c0,0,-157,0,-242,110c0,0,-85,110,-85,256c0,0,0,150,87,261c0,0,86,112,238,112c0,0,90,0,169,-47c0,0,78,-47,119,-134c0,0,40,-86,40,-189c0,0,0,-149,-75,-249c0,0,-91,-120,-251,-120Z" 
id="f1_1o"
transform="scale(0.001,-0.001)" />

<path d="M52,0V26c0,0,44,5,62,29c0,0,13,16,13,97V546c0,0,0,79,-14,98c0,0,-15,20,-61,26v27H336V607c0,0,54,59,104,85c0,0,49,27,106,27c0,0,68,0,113,-38c0,0,44,-38,59,-94c0,0,12,-42,12,-163V152c0,0,0,-81,15,-101c0,0,14,-19,61,-25V0H452V26c0,0,40,6,57,33c0,0,12,19,12,93V462c0,0,0,86,-7,109c0,0,-6,22,-22,35c0,0,-16,12,-36,12c0,0,-64,0,-120,-92V152c0,0,0,-79,15,-100c0,0,15,-20,55,-26V0Z" 
id="f1_1n"
transform="scale(0.001,-0.001)" />

<path d="M365,-20c0,0,-139,0,-223,105c0,0,-83,105,-83,253c0,0,0,142,76,250c0,0,92,131,253,131c0,0,108,0,172,-55c0,0,63,-54,63,-121c0,0,0,-43,-25,-68c0,0,-26,-25,-68,-25c0,0,-44,0,-73,29c0,0,-28,29,-35,104c0,0,-5,47,-22,65c0,0,-17,19,-40,19c0,0,-36,0,-61,-38c0,0,-39,-58,-39,-176c0,0,0,-99,31,-188c0,0,32,-90,86,-134c0,0,41,-32,97,-32c0,0,36,0,69,17c0,0,33,17,78,65l23,-18C644,163,595,70,521,25c0,0,-73,-45,-156,-45Z" 
id="f1_1c"
transform="scale(0.001,-0.001)" />

<path d="M32,0V26c0,0,46,2,69,27c0,0,14,18,14,92V867c0,0,0,74,-17,94c0,0,-17,21,-66,24v27H325V145c0,0,0,-74,17,-95c0,0,17,-21,68,-24V0Z" 
id="f1_1l"
transform="scale(0.001,-0.001)" />

<path d="M304,-20c0,0,-59,0,-105,36c0,0,-45,36,-61,84c0,0,-16,49,-16,169V546c0,0,0,79,-14,98c0,0,-15,20,-61,26v27H331V221c0,0,0,-74,8,-96c0,0,7,-21,22,-33c0,0,15,-11,35,-11c0,0,27,0,49,14c0,0,30,20,71,78V546c0,0,0,79,-14,98c0,0,-15,20,-61,26v27H726V152c0,0,0,-81,14,-100c0,0,15,-20,61,-26V0H516V93C516,93,466,34,416,7c0,0,-50,-27,-112,-27Z" 
id="f1_1u"
transform="scale(0.001,-0.001)" />

<path d="M312,-20c0,0,-50,0,-134,30c0,0,-22,9,-30,9c0,0,-25,0,-41,-37H82L70,232H97c0,0,33,-99,91,-148c0,0,59,-49,111,-49c0,0,35,0,58,22c0,0,22,22,22,54c0,0,0,35,-22,61c0,0,-22,27,-100,80c0,0,-114,79,-147,120c0,0,-49,62,-49,136c0,0,0,80,55,145c0,0,56,66,161,66c0,0,56,0,109,-28c0,0,20,-11,33,-11c0,0,13,0,21,5c0,0,9,6,27,32h26L504,479H477c0,0,-45,106,-94,145c0,0,-48,39,-96,39c0,0,-31,0,-52,-21c0,0,-22,-20,-22,-47c0,0,0,-20,15,-39c0,0,24,-30,133,-105c0,0,110,-74,144,-126c0,0,35,-52,35,-116c0,0,0,-58,-29,-114C511,95,482,39,429,9c0,0,-53,-29,-117,-29Z" 
id="f1_1s"
transform="scale(0.001,-0.001)" />

<path d="M32,0V26c0,0,46,2,69,27c0,0,14,18,14,92V551c0,0,0,75,-17,95c0,0,-17,21,-66,24v27H325V145c0,0,0,-74,17,-95c0,0,17,-21,68,-24V0ZM220,804c0,0,-48,0,-82,33c0,0,-33,34,-33,82c0,0,0,48,33,82c0,0,34,33,82,33c0,0,48,0,82,-33c0,0,33,-34,33,-82c0,0,0,-48,-34,-82c0,0,-34,-33,-81,-33Z" 
id="f1_1i"
transform="scale(0.001,-0.001)" />

<path d="M26,0V27H62c0,0,63,0,91,37c0,0,18,24,18,115V833c0,0,0,77,-10,102c0,0,-7,18,-30,32c0,0,-33,18,-69,18H26v27H459V985H422c0,0,-35,0,-67,-17c0,0,-23,-12,-32,-36c0,0,-9,-25,-9,-99V542H784V833c0,0,0,77,-10,102c0,0,-8,18,-31,32c0,0,-33,18,-68,18H639v27h432V985h-36c0,0,-36,0,-68,-17c0,0,-24,-12,-32,-36c0,0,-9,-25,-9,-99V179c0,0,0,-77,10,-102c0,0,7,-18,31,-32c0,0,32,-18,68,-18h36V0H639V27h36c0,0,62,0,90,37c0,0,19,24,19,115V487H314V179c0,0,0,-77,9,-102c0,0,8,-18,32,-32c0,0,32,-18,67,-18h37V0Z" 
id="f0_11"
transform="scale(0.001,-0.001)" />

<path d="M286,72c0,0,57,0,149,75V407c0,0,-113,-45,-145,-64c0,0,-59,-32,-85,-68c0,0,-25,-36,-25,-78c0,0,0,-54,32,-89c0,0,32,-36,74,-36ZM217,-13c0,0,-71,0,-116,48c0,0,-46,48,-46,127c0,0,0,50,22,87c0,0,31,50,106,95c0,0,76,45,252,109v26c0,0,0,102,-32,140c0,0,-32,38,-94,38c0,0,-47,0,-74,-25c0,0,-28,-25,-28,-58l1,-43c0,0,0,-34,-17,-53c0,0,-18,-18,-47,-18c0,0,-28,0,-45,19c0,0,-18,19,-18,53c0,0,0,64,66,117c0,0,65,54,184,54c0,0,91,0,149,-31c0,0,44,-23,65,-72c0,0,13,-32,13,-131V238c0,0,0,-98,4,-120c0,0,4,-22,12,-29c0,0,9,-8,20,-8c0,0,12,0,21,5c0,0,16,10,61,55V99C676,99,592,-12,516,-12c0,0,-37,0,-58,24c0,0,-22,26,-23,86C435,98,330,17,303,5c0,0,-40,-18,-86,-18Z" 
id="f0_1k"
transform="scale(0.001,-0.001)" />

<path d="M21,0V26H35c0,0,53,0,71,27c0,0,18,27,18,101V408c0,0,0,123,-5,150c0,0,-6,27,-17,37c0,0,-12,10,-31,10c0,0,-21,0,-50,-11L10,620l206,83h32V558c0,0,120,145,229,145c0,0,56,0,96,-28c0,0,40,-28,64,-92c0,0,16,-45,16,-137V154c0,0,0,-65,11,-88c0,0,8,-19,26,-29c0,0,18,-11,68,-11V0H419V26h14c0,0,47,0,66,15c0,0,20,15,27,43c0,0,3,11,3,70V434c0,0,0,93,-24,135c0,0,-24,42,-81,42c0,0,-88,0,-176,-97V154c0,0,0,-69,9,-86c0,0,10,-21,28,-31c0,0,19,-11,75,-11V0Z" 
id="f0_1x"
transform="scale(0.001,-0.001)" />

<path d="M399,62c0,0,68,0,131,68V481c0,0,-5,51,-27,93c0,0,-22,42,-59,63c0,0,-37,21,-72,21c0,0,-65,0,-117,-59c0,0,-67,-77,-67,-226c0,0,0,-151,65,-231c0,0,66,-80,146,-80ZM330,-20c0,0,-112,0,-196,93c0,0,-83,94,-83,240c0,0,0,147,92,269c0,0,93,122,238,122c0,0,90,0,149,-58V773c0,0,0,117,-6,144c0,0,-5,27,-17,37c0,0,-12,9,-30,9c0,0,-20,0,-52,-12l-9,27l204,83h33V270c0,0,0,-120,6,-146c0,0,5,-27,18,-37c0,0,12,-11,28,-11c0,0,21,0,54,13l9,-26L564,-20H530V78C530,78,480,25,432,2c0,0,-47,-22,-102,-22Z" 
id="f0_1n"
transform="scale(0.001,-0.001)" />

<path d="M312,-20c0,0,-62,0,-143,22c0,0,-25,8,-40,8c0,0,-18,0,-27,-19H77V234h25c0,0,21,-105,80,-158c0,0,59,-53,132,-53c0,0,51,0,84,31c0,0,32,30,32,72c0,0,0,52,-36,87c0,0,-36,35,-144,88c0,0,-109,54,-142,97c0,0,-34,43,-34,107c0,0,0,85,58,141c0,0,58,57,150,57c0,0,40,0,97,-17c0,0,38,-11,51,-11c0,0,12,0,19,5c0,0,7,5,15,23h25V470H464c0,0,-28,110,-72,149c0,0,-45,40,-113,40c0,0,-53,0,-85,-28c0,0,-32,-27,-32,-61c0,0,0,-41,24,-71c0,0,23,-31,94,-65L389,381c0,0,152,-74,152,-194c0,0,0,-94,-71,-151c0,0,-70,-56,-158,-56Z" 
id="f0_22"
transform="scale(0.001,-0.001)" />

<path d="M191,-20c0,0,-34,0,-58,24c0,0,-24,24,-24,58c0,0,0,35,24,59c0,0,24,24,58,24c0,0,35,0,59,-24c0,0,24,-25,24,-59c0,0,0,-34,-24,-58c0,0,-25,-24,-59,-24Z" 
id="f0_d"
transform="scale(0.001,-0.001)" />

<path d="M678,393L506,802L330,393ZM11,0V27c0,0,63,12,82,30c0,0,38,35,84,145l356,832h27L912,193c0,0,43,-101,77,-132c0,0,35,-30,97,-34V0H687V27c0,0,60,3,82,21c0,0,21,17,21,41c0,0,0,33,-30,104L700,338H307L239,179c0,0,-26,-59,-26,-88c0,0,0,-23,22,-41c0,0,22,-17,95,-23V0Z" 
id="f0_u"
transform="scale(0.001,-0.001)" />

<path d="M38,0V27H74c0,0,63,0,91,37c0,0,18,24,18,115V833c0,0,0,77,-10,102c0,0,-7,18,-30,32c0,0,-33,18,-69,18H38v27H470V985H434c0,0,-62,0,-90,-37c0,0,-18,-24,-18,-115V179c0,0,0,-77,9,-102c0,0,8,-18,31,-32c0,0,32,-18,68,-18h36V0Z" 
id="f0_12"
transform="scale(0.001,-0.001)" />

<path d="M398,24c0,0,74,0,120,58c0,0,61,76,61,214c0,0,0,156,-69,240c0,0,-47,59,-113,59c0,0,-36,0,-71,-18c0,0,-27,-14,-88,-81V242c0,0,0,-83,6,-109c0,0,11,-43,51,-76c0,0,41,-33,103,-33ZM-4,-326v27H15c5,0,42,0,69,16c0,0,14,8,22,26c0,0,7,19,7,94V481c0,0,0,67,-6,85c0,0,-5,18,-18,27c0,0,-13,9,-36,9c0,0,-18,0,-45,-10L0,615l209,85h29V540c0,0,53,91,106,127c0,0,53,36,112,36c0,0,103,0,172,-80c0,0,84,-99,84,-257c0,0,0,-176,-102,-292c0,0,-83,-94,-210,-94c0,0,-55,0,-95,16c0,0,-30,10,-67,44V-167c0,0,0,-71,8,-90c0,0,9,-20,30,-31c0,0,21,-11,77,-11v-27Z" 
id="f0_1z"
transform="scale(0.001,-0.001)" />

<path d="M17,0V26c0,0,52,0,77,17c0,0,19,12,26,38c0,0,4,13,4,73V419c0,0,0,119,-5,142c0,0,-4,23,-17,33c0,0,-13,11,-33,11c0,0,-23,0,-52,-11l-7,26l207,83h31V549c0,0,86,154,176,154c0,0,41,0,68,-25c0,0,27,-25,27,-58c0,0,0,-29,-20,-49c0,0,-19,-20,-46,-20c0,0,-26,0,-58,25c0,0,-33,26,-48,26c0,0,-14,0,-29,-15c0,0,-34,-30,-70,-101V159c0,0,0,-56,15,-85c0,0,9,-20,34,-34c0,0,24,-14,71,-14V0Z" 
id="f0_21"
transform="scale(0.001,-0.001)" />

<path d="M406,32c0,0,72,0,119,60c0,0,47,59,47,205c0,0,0,181,-78,286c0,0,-53,71,-135,71c0,0,-40,0,-79,-23c0,0,-40,-24,-65,-83c0,0,-24,-58,-24,-151c0,0,0,-149,59,-257c0,0,59,-108,156,-108ZM374,-20c0,0,-154,0,-245,122c0,0,-77,104,-77,233c0,0,0,94,46,187c0,0,47,92,123,137c0,0,76,44,161,44c0,0,155,0,249,-118c0,0,80,-100,80,-231c0,0,0,-91,-44,-185C667,169,623,75,546,27c0,0,-77,-47,-172,-47Z" 
id="f0_1y"
transform="scale(0.001,-0.001)" />

<path d="M376,-20L133,556c0,0,-17,41,-31,58c0,0,-15,18,-39,30c0,0,-12,7,-50,13v26H335V657H314c0,0,-29,0,-44,-14c0,0,-16,-14,-15,-38c0,0,-1,-26,15,-62L429,165L588,557c0,0,17,42,17,64c0,0,0,10,-6,17c0,0,-8,11,-21,15c0,0,-13,4,-52,4v26H750V657c0,0,-39,-3,-54,-16c0,0,-26,-23,-47,-76L409,-20Z" 
id="f0_25"
transform="scale(0.001,-0.001)" />

<path d="M55,0V26c0,0,50,0,67,10c0,0,17,10,27,32c0,0,10,23,10,86V418c0,0,0,111,-6,144c0,0,-6,24,-17,33c0,0,-11,10,-30,10c0,0,-21,0,-51,-11L45,620l206,83h33V154c0,0,0,-64,9,-85c0,0,9,-22,27,-32c0,0,19,-11,67,-11V0ZM222,909c0,0,-32,0,-54,23c0,0,-22,22,-22,53c0,0,0,32,22,54c0,0,22,22,54,22c0,0,31,0,53,-22c0,0,22,-22,22,-54c0,0,0,-31,-22,-53c0,0,-22,-23,-53,-23Z" 
id="f0_1s"
transform="scale(0.001,-0.001)" />

<path d="M479,469c0,0,-4,66,-16,93c0,0,-18,42,-55,65c0,0,-37,24,-78,24c0,0,-62,0,-111,-48c0,0,-48,-48,-57,-134ZM355,-20c0,0,-123,0,-211,95c0,0,-87,96,-87,258c0,0,0,175,90,273c0,0,89,98,225,98c0,0,115,0,189,-76c0,0,74,-75,74,-202H162c0,0,0,-152,74,-239c0,0,75,-86,175,-86c0,0,67,0,117,36c0,0,50,37,83,127l24,-15c0,0,-16,-102,-91,-186c0,0,-76,-83,-189,-83Z" 
id="f0_1o"
transform="scale(0.001,-0.001)" />

<path d="M23,0V26c0,0,47,0,66,10c0,0,19,11,28,33c0,0,10,22,10,85V416c0,0,0,112,-7,145c0,0,-5,25,-16,34c0,0,-11,10,-31,10c0,0,-21,0,-50,-11L12,620l207,83h32V557c0,0,75,75,88,86c0,0,34,29,72,44c0,0,39,16,77,16c0,0,64,0,110,-37c0,0,47,-38,62,-109c0,0,77,90,130,118c0,0,53,28,109,28c0,0,54,0,96,-28c0,0,42,-28,67,-91c0,0,16,-43,16,-136V154c0,0,0,-64,10,-88c0,0,8,-16,28,-28c0,0,20,-12,65,-12V0H844V26h14c0,0,44,0,69,18c0,0,17,12,24,38c0,0,3,13,3,72V448c0,0,0,83,-20,117c0,0,-29,48,-93,48c0,0,-39,0,-79,-20c0,0,-40,-19,-97,-73l-1,-8l2,-32V154c0,0,0,-70,8,-87c0,0,7,-17,29,-29c0,0,21,-12,73,-12V0H431V26c0,0,57,0,78,14c0,0,21,13,29,40c0,0,4,13,4,74V448c0,0,0,83,-25,120c0,0,-33,48,-91,48c0,0,-40,0,-80,-22c0,0,-61,-33,-95,-74V154c0,0,0,-67,10,-87c0,0,9,-20,27,-30c0,0,18,-11,74,-11V0Z" 
id="f0_1w"
transform="scale(0.001,-0.001)" />

<path d="M342,-20c0,0,-116,0,-203,97c0,0,-86,98,-86,264c0,0,0,161,96,261c0,0,95,101,230,101c0,0,100,0,165,-53c0,0,65,-54,65,-111c0,0,0,-29,-18,-46c0,0,-18,-18,-51,-18c0,0,-44,0,-66,29c0,0,-13,15,-17,59c0,0,-4,45,-30,68c0,0,-26,22,-73,22c0,0,-74,0,-120,-55c0,0,-60,-73,-60,-193c0,0,0,-122,60,-216c0,0,60,-93,162,-93c0,0,73,0,131,49c0,0,41,35,80,126l22,-10C629,261,601,125,521,52c0,0,-81,-72,-179,-72Z" 
id="f0_1m"
transform="scale(0.001,-0.001)" />

<path d="M292,-20c0,0,-57,0,-100,33c0,0,-42,33,-58,85c0,0,-17,52,-17,148V551c0,0,0,49,-10,68c0,0,-11,18,-31,29c0,0,-19,9,-68,9c-2,0,-4,0,-6,0v26H242V226c0,0,0,-95,33,-125c0,0,33,-30,80,-30c0,0,32,0,73,21c0,0,40,20,96,76V555c0,0,0,59,-21,80c0,0,-22,21,-89,22v26H647V269c0,0,0,-119,6,-145c0,0,6,-27,18,-37c0,0,12,-11,29,-11c0,0,23,0,52,13L763,63L558,-20H524V124C524,124,436,29,390,4c0,0,-47,-24,-98,-24Z" 
id="f0_24"
transform="scale(0.001,-0.001)" />

<path d="M255,-10c0,0,-35,0,-68,18c0,0,-32,19,-48,55c0,0,-16,35,-16,109V632H15v24c0,0,41,16,84,56c0,0,43,39,77,92c0,0,17,29,48,104h23V683H407V632H247V188c0,0,0,-66,19,-90c0,0,19,-23,49,-23c0,0,24,0,47,16c0,0,23,15,36,45h29c0,0,-26,-73,-74,-110c0,0,-47,-36,-98,-36Z" 
id="f0_23"
transform="scale(0.001,-0.001)" />

<path d="M20,0V26c0,0,45,0,71,15c0,0,15,7,24,28c0,0,9,21,9,85V773c0,0,0,117,-5,144c0,0,-6,27,-17,37c0,0,-12,9,-31,9c0,0,-16,0,-51,-12L10,978l204,83h34V561c0,0,83,91,131,116c0,0,49,26,97,26c0,0,58,0,100,-32c0,0,42,-32,62,-101c0,0,14,-47,14,-174V154c0,0,0,-65,11,-89c0,0,7,-18,25,-28c0,0,18,-11,66,-11V0H418V26h15c0,0,48,0,67,15c0,0,18,15,26,43c0,0,2,12,2,70V396c0,0,0,112,-12,147c0,0,-11,35,-36,53c0,0,-26,17,-61,17c0,0,-37,0,-76,-19c0,0,-40,-20,-95,-79V154c0,0,0,-70,8,-87c0,0,8,-17,29,-29c0,0,22,-12,74,-12V0Z" 
id="f0_1r"
transform="scale(0.001,-0.001)" />

<path d="M397,34c0,0,67,0,126,75c0,0,58,74,58,216c0,0,0,131,-58,201c0,0,-59,70,-133,70c0,0,-39,0,-79,-20c0,0,-29,-14,-75,-59V109c0,0,37,-37,78,-56c0,0,40,-19,83,-19ZM358,-20c0,0,-59,0,-121,21c0,0,-61,22,-126,65V773c0,0,0,117,-5,144c0,0,-6,27,-18,37c0,0,-12,9,-29,9c0,0,-21,0,-53,-12l-9,27l205,83h34V564c0,0,98,139,213,139c0,0,105,0,183,-90c0,0,78,-90,78,-245c0,0,0,-182,-121,-293c0,0,-103,-95,-231,-95Z" 
id="f0_1l"
transform="scale(0.001,-0.001)" />

<path d="M336,-20L117,554c0,0,-21,55,-42,74c0,0,-21,19,-66,29v26H296V657c0,0,-40,-3,-52,-14c0,0,-13,-12,-13,-33c0,0,0,-23,13,-56L390,162L537,481L498,581c0,0,-18,46,-47,63c0,0,-17,11,-61,13v26H716V657c0,0,-54,-2,-77,-20c0,0,-15,-12,-15,-39c0,0,0,-15,6,-30L785,177L929,554c0,0,15,40,15,65c0,0,0,14,-15,25c0,0,-14,12,-57,13v26h216V657c0,0,-65,-10,-95,-89L764,-20H733L563,415L363,-20Z" 
id="f0_26"
transform="scale(0.001,-0.001)" />

<path d="M145,-328c0,0,-44,0,-73,25c0,0,-28,25,-28,58c0,0,0,31,21,50c0,0,20,19,56,19c0,0,25,0,67,-16c0,0,30,-11,38,-11c0,0,22,0,49,23c0,0,26,23,53,89L376,28L131,542c0,0,-11,24,-36,58c0,0,-19,27,-30,36c0,0,-18,12,-56,21v26H328V657H312c0,0,-33,0,-50,-15c0,0,-17,-14,-17,-36c0,0,0,-30,25,-81L437,179L589,557c0,0,12,31,12,62c0,0,0,13,-5,20c0,0,-6,8,-19,13c0,0,-12,5,-44,5v26H754V657c0,0,-27,-3,-42,-12c0,0,-15,-9,-33,-34c0,0,-7,-10,-25,-58L376,-128c0,0,-40,-99,-105,-150c0,0,-66,-50,-126,-50Z" 
id="f0_28"
transform="scale(0.001,-0.001)" />

<path d="M411,-239c0,0,134,0,198,48c0,0,64,47,64,100c0,0,0,39,-38,55c0,0,-39,16,-154,19c0,0,-167,5,-258,17c0,0,-35,-37,-53,-70c0,0,-17,-32,-17,-60c0,0,0,-36,43,-62c0,0,74,-47,215,-47ZM380,257c0,0,56,0,93,43c0,0,36,42,36,133c0,0,0,118,-51,185c0,0,-38,49,-98,49c0,0,-55,0,-92,-44c0,0,-37,-44,-37,-135c0,0,0,-117,50,-182c0,0,39,-49,99,-49ZM345,-328c0,0,-144,0,-243,64c0,0,-56,38,-56,78c0,0,0,18,8,36c0,0,13,27,52,76c0,0,5,7,76,80c0,0,-39,23,-55,41c0,0,-16,19,-16,42c0,0,0,26,22,61c0,0,21,35,98,100c0,0,-63,30,-97,85c0,0,-33,55,-33,121c0,0,0,101,76,174c0,0,77,73,196,73c0,0,98,0,170,-48H688c0,0,32,0,37,-2c0,0,6,-2,8,-6c0,0,4,-7,4,-24c0,0,0,-20,-4,-27c0,0,-2,-4,-7,-6c0,0,-6,-2,-38,-2H599c0,0,41,-54,41,-137c0,0,0,-96,-73,-163c0,0,-73,-68,-196,-68c0,0,-51,0,-104,15c0,0,-33,-28,-44,-49c0,0,-12,-22,-12,-37c0,0,0,-12,13,-24c0,0,12,-12,48,-17c0,0,21,-4,104,-6c0,0,154,-4,199,-11c0,0,70,-10,111,-51c0,0,42,-41,42,-102c0,0,0,-84,-79,-158c0,0,-117,-108,-304,-108Z" 
id="f0_1q"
transform="scale(0.001,-0.001)" />

<path d="M58,0V26c0,0,47,0,64,10c0,0,18,10,28,32c0,0,9,23,9,86V775c0,0,0,116,-5,142c0,0,-5,27,-17,37c0,0,-11,9,-29,9c0,0,-20,0,-49,-12L46,978l204,83h34V154c0,0,0,-64,9,-85c0,0,9,-21,29,-32c0,0,19,-11,72,-11V0Z" 
id="f0_1v"
transform="scale(0.001,-0.001)" />

<path d="M384,85c0,0,44,0,78,19c0,0,35,19,68,62V487c0,0,0,55,-15,87c0,0,-14,33,-51,55c0,0,-38,22,-85,22c0,0,-84,0,-143,-71c0,0,-60,-70,-60,-214c0,0,0,-138,61,-209c0,0,61,-72,147,-72Zm35,-411v27h15c0,0,41,0,63,12c0,0,15,8,24,30c0,0,9,21,9,83V119C530,119,462,39,411,9c0,0,-50,-29,-105,-29c0,0,-99,0,-177,90c0,0,-78,90,-78,241c0,0,0,174,103,283c0,0,103,109,248,109c0,0,43,0,78,-12c0,0,36,-12,65,-35c0,0,43,20,83,47h25V-174c0,0,0,-66,9,-85c0,0,9,-19,28,-30c0,0,19,-10,74,-10v-27Z" 
id="f0_20"
transform="scale(0.001,-0.001)" />

<path d="M474,-21L174,817c0,0,-34,94,-42,112c0,0,-15,28,-41,42c0,0,-26,14,-70,14v27H395V985H377c0,0,-40,0,-60,-18c0,0,-21,-18,-21,-44c0,0,0,-26,33,-120L528,235L696,718l-30,85l-24,68c0,0,-16,37,-35,66c0,0,-10,14,-24,24c0,0,-19,13,-38,19c0,0,-14,5,-44,5v27H894V985H867c0,0,-41,0,-61,-18c0,0,-19,-18,-19,-49c0,0,0,-38,33,-133L1015,235l193,557c0,0,32,93,32,129c0,0,0,17,-10,32c0,0,-11,15,-28,21c0,0,-28,11,-74,11v27h302V985c0,0,-39,0,-64,-15c0,0,-25,-14,-47,-53c0,0,-15,-26,-47,-124L990,-21H960L729,624L501,-21Z" 
id="f0_1g"
transform="scale(0.001,-0.001)" />

<path d="M107,-21V325h27c0,0,19,-109,52,-163c0,0,33,-54,100,-90c0,0,68,-36,148,-36c0,0,93,0,148,49c0,0,54,50,54,117c0,0,0,37,-21,75c0,0,-20,38,-64,71c0,0,-29,22,-159,95c0,0,-130,72,-185,115c0,0,-55,44,-83,96c0,0,-28,52,-28,114c0,0,0,109,83,188c0,0,84,78,213,78c0,0,81,0,171,-39c0,0,42,-19,59,-19c0,0,20,0,32,11c0,0,12,12,20,47h27V684H674c0,0,-14,101,-48,161c0,0,-35,60,-100,95c0,0,-64,35,-133,35c0,0,-77,0,-128,-47c0,0,-51,-48,-51,-108c0,0,0,-46,32,-84c0,0,47,-56,221,-149c0,0,142,-76,194,-117c0,0,51,-41,80,-96c0,0,28,-55,28,-115c0,0,0,-115,-90,-198c0,0,-89,-82,-229,-82c0,0,-44,0,-83,6c0,0,-23,4,-95,27c0,0,-73,24,-93,24c0,0,-18,0,-29,-11c0,0,-11,-12,-16,-46Z" 
id="f0_1c"
transform="scale(0.001,-0.001)" />

<path d="M473,53c0,0,173,0,287,121c0,0,114,122,114,330c0,0,0,210,-114,330c0,0,-114,121,-293,121c0,0,-67,0,-153,-21V74c0,0,95,-21,159,-21ZM26,0V27H64c0,0,64,0,91,41c0,0,16,25,16,111V833c0,0,0,95,-21,119c0,0,-29,33,-86,33H26v27H438c0,0,226,0,345,-51c0,0,118,-52,190,-172c0,0,72,-120,72,-278c0,0,0,-211,-129,-353C916,158,773,0,478,0Z" 
id="f0_x"
transform="scale(0.001,-0.001)" />

<path d="M25,0V27H61c0,0,63,0,91,37c0,0,18,24,18,115V833c0,0,0,77,-10,102c0,0,-7,18,-30,32c0,0,-33,18,-69,18H25v27H456V985H421c0,0,-35,0,-67,-18c0,0,-23,-11,-32,-35c0,0,-9,-24,-9,-99V523c0,0,15,15,102,95c0,0,222,203,268,271c0,0,20,30,20,52c0,0,0,18,-15,31c0,0,-16,13,-53,13H611v27H983V985c0,0,-33,-1,-60,-9c0,0,-26,-9,-65,-32c0,0,-39,-24,-96,-76c0,0,-16,-15,-151,-153L456,561L829,190c0,0,92,-92,157,-125c0,0,65,-33,130,-38V0H634V27c0,0,43,0,62,15c0,0,19,15,19,32c0,0,0,18,-7,33c0,0,-7,14,-46,53L313,506V179c0,0,0,-77,10,-102c0,0,7,-18,31,-32c0,0,32,-18,67,-18h35V0Z" 
id="f0_14"
transform="scale(0.001,-0.001)" />

<path d="M213,-20c0,0,-34,0,-58,24c0,0,-24,24,-24,58c0,0,0,34,24,58c0,0,24,25,58,25c0,0,35,0,59,-25c0,0,24,-24,24,-58c0,0,0,-34,-24,-58c0,0,-25,-24,-59,-24Zm3,559c0,0,-35,0,-59,24c0,0,-24,24,-24,58c0,0,0,35,24,59c0,0,24,24,59,24c0,0,34,0,58,-24c0,0,24,-24,24,-59c0,0,0,-34,-24,-58c0,0,-24,-24,-58,-24Z" 
id="f0_p"
transform="scale(0.001,-0.001)" />

<path d="M547,28c0,0,140,0,226,102c0,0,101,121,101,357c0,0,0,181,-56,304c0,0,-42,96,-112,141c0,0,-71,45,-159,45c0,0,-135,0,-218,-97C329,880,225,758,225,508c0,0,0,-245,106,-378c0,0,82,-102,216,-102Zm491,-326c0,0,-103,4,-220,41c0,0,-117,38,-222,105c0,0,-104,67,-180,142c0,0,-108,42,-171,91c0,0,-91,72,-141,178c0,0,-50,105,-50,249c0,0,0,227,147,377c0,0,147,149,355,149c0,0,199,0,344,-150c0,0,145,-150,145,-379c0,0,0,-185,-104,-326C941,179,838,39,673,-10c0,0,76,-131,164,-194c0,0,88,-62,201,-71v-23Z" 
id="f0_1a"
transform="scale(0.001,-0.001)" />

<path d="M400,67c0,0,47,0,91,18c0,0,44,19,119,80c0,0,-98,134,-136,196c0,0,-38,62,-84,154c0,0,-89,-51,-135,-113c0,0,-45,-62,-45,-135c0,0,0,-80,52,-140c0,0,51,-60,138,-60Zm95,565c0,0,92,44,138,100c0,0,46,56,46,124c0,0,0,54,-34,89c0,0,-33,35,-82,35c0,0,-65,0,-99,-45c0,0,-33,-45,-33,-89c0,0,0,-36,13,-81c0,0,13,-45,51,-133ZM324,-22c0,0,-124,0,-196,64c0,0,-72,66,-72,157c0,0,0,90,65,180c0,0,65,90,244,186c0,0,-35,78,-48,127c0,0,-13,50,-13,96c0,0,0,127,94,194c0,0,73,52,167,52c0,0,89,0,145,-52c0,0,56,-53,56,-130c0,0,0,-79,-54,-138c0,0,-55,-60,-192,-131c0,0,95,-169,198,-309c0,0,131,157,131,264c0,0,0,34,-23,61c0,0,-16,20,-47,24v28h313V623c0,0,-65,-5,-96,-29c0,0,-30,-23,-96,-142c0,0,-65,-119,-147,-221c0,0,66,-78,118,-109c0,0,52,-31,105,-31c0,0,52,0,88,28c0,0,36,28,50,82l28,-20c0,0,-28,-105,-89,-155c0,0,-61,-48,-142,-48c0,0,-61,0,-124,32c0,0,-63,33,-138,112C649,122,556,40,482,8c0,0,-74,-30,-158,-30Z" 
id="f0_6"
transform="scale(0.001,-0.001)" />

<path d="M399,105V477H27v62H399V909h60V539H831V477H459V105Z" 
id="f0_a"
transform="scale(0.001,-0.001)" />

<path d="M63,0V26H93c0,0,30,0,54,15c0,0,25,15,34,41c0,0,10,25,10,99V630H58v53H191v45c0,0,0,102,33,173c0,0,32,71,100,114c0,0,68,44,152,44c0,0,79,0,145,-51c0,0,43,-33,43,-75c0,0,0,-22,-19,-42c0,0,-20,-20,-42,-20c0,0,-17,0,-36,12c0,0,-19,13,-47,53c0,0,-28,41,-51,55c0,0,-23,14,-51,14c0,0,-35,0,-58,-18c0,0,-24,-18,-35,-57c0,0,-10,-38,-10,-197V683H491V630H315V181c0,0,0,-96,21,-122c0,0,27,-33,73,-33h62V0Z" 
id="f0_1p"
transform="scale(0.001,-0.001)" />

<path d="M441,0V26c0,0,28,1,38,9c0,0,10,8,10,22c0,0,0,17,-29,56L250,381L424,540c0,0,55,50,64,64c0,0,6,9,6,18c0,0,0,15,-12,26c0,0,-13,11,-41,12v23H738V660c0,0,-62,-1,-102,-19c0,0,-41,-17,-89,-61L372,418L547,196c0,0,73,-92,98,-117c0,0,36,-35,63,-45c0,0,18,-8,65,-8V0ZM13,0V26c0,0,52,0,78,13c0,0,16,8,24,25c0,0,11,25,11,86V773c0,0,0,118,-5,145c0,0,-5,26,-17,36c0,0,-12,10,-32,10c0,0,-15,0,-47,-13L13,978l203,83h34V154c0,0,0,-67,10,-88c0,0,9,-21,26,-30c0,0,17,-9,75,-10V0Z" 
id="f0_1u"
transform="scale(0.001,-0.001)" />

<path d="M82,-253v33c0,0,77,25,119,78c0,0,42,54,42,114c0,0,0,14,-7,23c0,0,-5,6,-11,6c0,0,-8,0,-35,-14c0,0,-14,-7,-28,-7c0,0,-37,0,-58,21C104,1,82,23,82,61c0,0,0,36,28,62c0,0,28,27,68,27c0,0,49,0,88,-43c0,0,38,-43,38,-113c0,0,0,-77,-53,-143c0,0,-53,-66,-169,-104Z" 
id="f0_b"
transform="scale(0.001,-0.001)" />

<path d="M62,286V399H448V286Z" 
id="f0_c"
transform="scale(0.001,-0.001)" />

<path d="M25,0V27H61c0,0,64,0,91,39c0,0,16,24,16,109V837c0,0,0,67,-15,97c0,0,-10,22,-38,36c0,0,-28,15,-90,15v27H312L678,220l363,792h285V985h-35c0,0,-64,0,-91,-39c0,0,-17,-24,-17,-109V175c0,0,0,-93,21,-116c0,0,28,-32,87,-32h35V0H898V27h36c0,0,64,0,90,39c0,0,17,24,17,109V852L649,0H625L234,852V175c0,0,0,-93,20,-116c0,0,27,-32,87,-32h35V0Z" 
id="f0_16"
transform="scale(0.001,-0.001)" />

<path d="M31,0V27H67c0,0,36,0,68,18c0,0,24,12,32,36c0,0,9,24,9,98V836c0,0,0,96,-19,119c0,0,-27,30,-90,30H31v27H811L822,790H792c0,0,-15,80,-34,110c0,0,-19,30,-57,46c0,0,-29,11,-105,11H319V557H541c0,0,87,0,116,26c0,0,39,35,44,121h27V352H701c0,0,-11,74,-21,95c0,0,-14,26,-45,41c0,0,-30,15,-94,15H319V168c0,0,0,-67,6,-81c0,0,6,-15,21,-24c0,0,15,-8,56,-8H574c0,0,86,0,124,12c0,0,39,12,75,47c0,0,46,46,95,139h30L811,0Z" 
id="f0_y"
transform="scale(0.001,-0.001)" />

<path d="M31,0V27H69c0,0,64,0,91,42c0,0,16,24,16,110V833c0,0,0,95,-21,119c0,0,-29,33,-86,33H31v27H488V985c0,0,-1,0,-2,0c-12,0,-81,-1,-111,-15c0,0,-32,-16,-44,-40c0,0,-12,-24,-12,-115V180c0,0,0,-62,12,-85c0,0,9,-16,27,-23c0,0,19,-7,117,-7h74c0,0,116,0,163,17c0,0,48,17,86,61c0,0,39,43,78,138l25,-6L814,0Z" 
id="f0_15"
transform="scale(0.001,-0.001)" />

<path d="M911,-16L244,799V175c0,0,0,-93,21,-116c0,0,28,-32,86,-32h36V0H36V27H71c0,0,65,0,92,39c0,0,16,24,16,109V879c0,0,-44,52,-67,68c0,0,-23,17,-67,31c0,0,-21,7,-64,7v27H253L873,253V837c0,0,0,93,-21,116c0,0,-28,32,-87,32H730v27h351V985h-36c0,0,-64,0,-91,-39c0,0,-16,-24,-16,-109V-16Z" 
id="f0_17"
transform="scale(0.001,-0.001)" />

<path d="M253,0V27h36c0,0,64,0,91,39c0,0,16,24,16,109V948H274c0,0,-71,0,-100,-10c0,0,-39,-14,-67,-54c0,0,-27,-41,-33,-109H46l12,237H883L894,775H865c0,0,-8,62,-22,89c0,0,-23,43,-61,64c0,0,-39,20,-101,20H539V175c0,0,0,-93,20,-116c0,0,28,-32,87,-32h36V0Z" 
id="f0_1d"
transform="scale(0.001,-0.001)" />

<path d="M25,0V26c0,0,27,4,47,19c0,0,29,22,96,111L311,346L182,535c0,0,-55,81,-86,102c0,0,-30,20,-75,20v26H341V657c0,0,-30,0,-42,-10c0,0,-13,-11,-13,-28c0,0,0,-19,27,-56c0,0,8,-12,25,-37l48,-78l56,77c0,0,55,74,55,94c0,0,0,16,0,27c0,0,0,11,0,11v26H674V657c0,0,-37,-2,-64,-20c0,0,-37,-26,-100,-111L416,402L587,156c0,0,63,-91,89,-109c0,0,27,-18,70,-21V0H423V26c0,0,34,0,53,15c0,0,14,11,14,28c0,0,0,17,-48,87L341,302L232,157c0,0,-50,-69,-50,-82c0,0,0,-18,17,-32c0,0,17,-15,50,-17V0Z" 
id="f0_27"
transform="scale(0.001,-0.001)" />


</defs>
</svg>