<?xml version="1.0" encoding="UTF-8" standalone="no"?>
<!DOCTYPE svg PUBLIC "-//W3C//DTD SVG 1.1//EN"
"http://www.w3.org/Graphics/SVG/1.1/DTD/svg11.dtd">
<svg viewBox="0 0 909 1286" version="1.1" xmlns="http://www.w3.org/2000/svg" xmlns:xlink="http://www.w3.org/1999/xlink">
<defs>
<clipPath id="c0_1"><path d="M770,1223.8v-18.9h9.2v18.9Z" /></clipPath>
<clipPath id="c1_1"><path d="M27.5,1223.8V27.5h854V1223.8Z" /></clipPath>
<style type="text/css"><![CDATA[
.g0_1{
fill: #0000FF;
}
]]></style>
</defs>
<g clip-path="url(#c0_1)">
<g fill="#000000" >
<use xlink:href="#f0_g" transform="matrix(12,0,0,12,770,1221.7)" />
</g>
</g>
<g clip-path="url(#c1_1)">
<g fill="#002060" >
<use xlink:href="#f1_9" transform="matrix(18,0,0,18,232,351.6)" />
<use xlink:href="#f1_10" transform="matrix(18,0,0,18,248.8,351.6)" />
<use xlink:href="#f1_p" transform="matrix(18,0,0,18,262.6,351.6)" />
<use xlink:href="#f1_r" transform="matrix(18,0,0,18,270.2,351.6)" />
<use xlink:href="#f1_k" transform="matrix(18,0,0,18,277.8,351.6)" />
<use xlink:href="#f1_p" transform="matrix(18,0,0,18,291.6,351.6)" />
<use xlink:href="#f1_t" transform="matrix(18,0,0,18,299.2,351.6)" />
<use xlink:href="#f1_n" transform="matrix(18,0,0,18,313,351.6)" />
<use xlink:href="#f1_z" transform="matrix(18,0,0,18,333.6,351.6)" />
<use xlink:href="#f1_u" transform="matrix(18,0,0,18,341.2,351.6)" />
<use xlink:href="#f1_n" transform="matrix(18,0,0,18,355,351.6)" />
<use xlink:href="#f1_l" transform="matrix(18,0,0,18,368.7,351.6)" />
<use xlink:href="#f1_z" transform="matrix(18,0,0,18,380.9,351.6)" />
<use xlink:href="#f1_o" transform="matrix(18,0,0,18,388.6,351.6)" />
<use xlink:href="#f1_l" transform="matrix(18,0,0,18,402.3,351.6)" />
<use xlink:href="#f1_x" transform="matrix(18,0,0,18,414.5,351.6)" />
<use xlink:href="#f1_h" transform="matrix(18,0,0,18,432.1,351.6)" />
<use xlink:href="#f1_t" transform="matrix(18,0,0,18,452.7,351.6)" />
<use xlink:href="#f1_l" transform="matrix(18,0,0,18,466.5,351.6)" />
<use xlink:href="#f1_12" transform="matrix(18,0,0,18,478.7,351.6)" />
<use xlink:href="#f1_y" transform="matrix(18,0,0,18,503.9,351.6)" />
<use xlink:href="#f1_l" transform="matrix(18,0,0,18,514.6,351.6)" />
<use xlink:href="#f1_t" transform="matrix(18,0,0,18,526.8,351.6)" />
<use xlink:href="#f1_y" transform="matrix(18,0,0,18,540.6,351.6)" />
<use xlink:href="#f1_l" transform="matrix(18,0,0,18,551.3,351.6)" />
<use xlink:href="#f1_u" transform="matrix(18,0,0,18,570.4,351.6)" />
<use xlink:href="#f1_m" transform="matrix(18,0,0,18,584.1,351.6)" />
<use xlink:href="#f1_y" transform="matrix(18,0,0,18,598.6,351.6)" />
<use xlink:href="#f1_o" transform="matrix(18,0,0,18,609.3,351.6)" />
<use xlink:href="#f1_h" transform="matrix(18,0,0,18,623.1,351.6)" />
<use xlink:href="#f1_x" transform="matrix(18,0,0,18,636.8,351.6)" />
<use xlink:href="#f1_l" transform="matrix(18,0,0,18,647.5,351.6)" />
<use xlink:href="#f1_k" transform="matrix(18,0,0,18,659.7,351.6)" />
<use xlink:href="#f1_l" transform="matrix(18,0,0,18,680.4,351.6)" />
<use xlink:href="#f1_j" transform="matrix(18,0,0,18,692.6,351.6)" />
<use xlink:href="#f1_u" transform="matrix(18,0,0,18,704.8,351.6)" />
<use xlink:href="#f1_t" transform="matrix(18,0,0,18,718.5,351.6)" />
<use xlink:href="#f1_u" transform="matrix(18,0,0,18,732.3,351.6)" />
<use xlink:href="#f1_s" transform="matrix(18,0,0,18,746,351.6)" />
<use xlink:href="#f1_14" transform="matrix(18,0,0,18,765.9,351.6)" />
</g>
<g fill="#000000" >
<use xlink:href="#f0_1f" transform="matrix(18,0,0,18,417.3,826.1)" />
<use xlink:href="#f0_1o" transform="matrix(18,0,0,18,437.1,826.1)" />
<use xlink:href="#f0_21" transform="matrix(18,0,0,18,449.3,826.1)" />
<use xlink:href="#f0_22" transform="matrix(18,0,0,18,458.5,826.1)" />
<use xlink:href="#f0_1s" transform="matrix(18,0,0,18,469.2,826.1)" />
<use xlink:href="#f0_1y" transform="matrix(18,0,0,18,476.8,826.1)" />
<use xlink:href="#f0_1x" transform="matrix(18,0,0,18,490.6,826.1)" />
<use xlink:href="#f0_g" transform="matrix(18,0,0,18,511.2,826.1)" />
<use xlink:href="#f0_d" transform="matrix(18,0,0,18,525,826.1)" />
<use xlink:href="#f0_g" transform="matrix(18,0,0,18,531.8,826.1)" />
<use xlink:href="#f0_u" transform="matrix(18,0,0,18,390.1,873.4)" />
<use xlink:href="#f0_1z" transform="matrix(18,0,0,18,410,873.4)" />
<use xlink:href="#f0_21" transform="matrix(18,0,0,18,423.7,873.4)" />
<use xlink:href="#f0_1s" transform="matrix(18,0,0,18,432.9,873.4)" />
<use xlink:href="#f0_1v" transform="matrix(18,0,0,18,440.5,873.4)" />
<use xlink:href="#f0_h" transform="matrix(18,0,0,18,455.1,873.4)" />
<use xlink:href="#f0_f" transform="matrix(18,0,0,18,468.8,873.4)" />
<use xlink:href="#f0_23" transform="matrix(18,0,0,18,482.6,873.4)" />
<use xlink:href="#f0_1r" transform="matrix(18,0,0,18,490.2,873.4)" />
<use xlink:href="#f0_b" transform="matrix(18,0,0,18,503.9,873.4)" />
<use xlink:href="#f0_h" transform="matrix(18,0,0,18,517.7,873.4)" />
<use xlink:href="#f0_f" transform="matrix(18,0,0,18,531.4,873.4)" />
<use xlink:href="#f0_g" transform="matrix(18,0,0,18,545.2,873.4)" />
<use xlink:href="#f0_n" transform="matrix(18,0,0,18,558.9,873.4)" />
<use xlink:href="#f0_w" transform="matrix(18,0,0,18,328.3,921.1)" />
<use xlink:href="#f0_1k" transform="matrix(18,0,0,18,346.6,921.1)" />
<use xlink:href="#f0_21" transform="matrix(18,0,0,18,358.8,921.1)" />
<use xlink:href="#f0_1y" transform="matrix(18,0,0,18,368,921.1)" />
<use xlink:href="#f0_1v" transform="matrix(18,0,0,18,381.7,921.1)" />
<use xlink:href="#f0_1s" transform="matrix(18,0,0,18,389.4,921.1)" />
<use xlink:href="#f0_1x" transform="matrix(18,0,0,18,397,921.1)" />
<use xlink:href="#f0_1k" transform="matrix(18,0,0,18,410.8,921.1)" />
<use xlink:href="#f0_x" transform="matrix(18,0,0,18,429.9,921.1)" />
<use xlink:href="#f0_1o" transform="matrix(18,0,0,18,449.7,921.1)" />
<use xlink:href="#f0_1v" transform="matrix(18,0,0,18,461.9,921.1)" />
<use xlink:href="#f0_1f" transform="matrix(18,0,0,18,476.4,921.1)" />
<use xlink:href="#f0_1k" transform="matrix(18,0,0,18,496.3,921.1)" />
<use xlink:href="#f0_1v" transform="matrix(18,0,0,18,508.5,921.1)" />
<use xlink:href="#f0_1v" transform="matrix(18,0,0,18,516.1,921.1)" />
<use xlink:href="#f0_1o" transform="matrix(18,0,0,18,523.8,921.1)" />
<use xlink:href="#f0_z" transform="matrix(18,0,0,18,542.9,921.1)" />
<use xlink:href="#f0_1y" transform="matrix(18,0,0,18,558.2,921.1)" />
<use xlink:href="#f0_1q" transform="matrix(18,0,0,18,571.9,921.1)" />
<use xlink:href="#f0_1v" transform="matrix(18,0,0,18,585.7,921.1)" />
<use xlink:href="#f0_1s" transform="matrix(18,0,0,18,593.3,921.1)" />
<use xlink:href="#f0_1k" transform="matrix(18,0,0,18,600.9,921.1)" />
<use xlink:href="#f0_23" transform="matrix(18,0,0,18,613.1,921.1)" />
<use xlink:href="#f0_1y" transform="matrix(18,0,0,18,620.8,921.1)" />
</g>
<g fill="#0000FF" >
<use xlink:href="#f0_1m" transform="matrix(18,0,0,18,399.7,968.4)" />
<use xlink:href="#f0_1k" transform="matrix(18,0,0,18,411.9,968.4)" />
<use xlink:href="#f0_21" transform="matrix(18,0,0,18,424.1,968.4)" />
<use xlink:href="#f0_1y" transform="matrix(18,0,0,18,433.2,968.4)" />
<use xlink:href="#f0_t" transform="matrix(18,0,0,18,447,968.4)" />
<use xlink:href="#f0_1r" transform="matrix(18,0,0,18,472.3,968.4)" />
<use xlink:href="#f0_1k" transform="matrix(18,0,0,18,486,968.4)" />
<use xlink:href="#f0_1x" transform="matrix(18,0,0,18,498.3,968.4)" />
<use xlink:href="#f0_1n" transform="matrix(18,0,0,18,512,968.4)" />
<use xlink:href="#f0_22" transform="matrix(18,0,0,18,525.8,968.4)" />
<use xlink:href="#f0_d" transform="matrix(18,0,0,18,536.5,968.4)" />
<use xlink:href="#f0_1k" transform="matrix(18,0,0,18,543.3,968.4)" />
<use xlink:href="#f0_1s" transform="matrix(18,0,0,18,555.5,968.4)" />
</g>
</g>
<path d="M399.7,972H563.2v1.1H399.7Z" class="g0_1" />
<g clip-path="url(#c1_1)">
<g fill="#000000" >
<use xlink:href="#f0_w" transform="matrix(18,0,0,18,360.4,1015.7)" />
<use xlink:href="#f0_1k" transform="matrix(18,0,0,18,378.7,1015.7)" />
<use xlink:href="#f0_21" transform="matrix(18,0,0,18,390.9,1015.7)" />
<use xlink:href="#f0_1v" transform="matrix(18,0,0,18,400.1,1015.7)" />
<use xlink:href="#f0_1y" transform="matrix(18,0,0,18,407.7,1015.7)" />
<use xlink:href="#f0_22" transform="matrix(18,0,0,18,421.5,1015.7)" />
<use xlink:href="#f0_16" transform="matrix(18,0,0,18,439,1015.7)" />
<use xlink:href="#f0_1k" transform="matrix(18,0,0,18,463.5,1015.7)" />
<use xlink:href="#f0_23" transform="matrix(18,0,0,18,475.7,1015.7)" />
<use xlink:href="#f0_1s" transform="matrix(18,0,0,18,483.3,1015.7)" />
<use xlink:href="#f0_1k" transform="matrix(18,0,0,18,491,1015.7)" />
<use xlink:href="#f0_22" transform="matrix(18,0,0,18,503.2,1015.7)" />
<use xlink:href="#f0_v" transform="matrix(18,0,0,18,520.8,1015.7)" />
<use xlink:href="#f0_1k" transform="matrix(18,0,0,18,539.1,1015.7)" />
<use xlink:href="#f0_1q" transform="matrix(18,0,0,18,551.3,1015.7)" />
<use xlink:href="#f0_1v" transform="matrix(18,0,0,18,565.1,1015.7)" />
<use xlink:href="#f0_1s" transform="matrix(18,0,0,18,572.7,1015.7)" />
<use xlink:href="#f0_1o" transform="matrix(18,0,0,18,580.3,1015.7)" />
<use xlink:href="#f0_21" transform="matrix(18,0,0,18,592.5,1015.7)" />
<use xlink:href="#f0_1s" transform="matrix(18,0,0,18,601.7,1015.7)" />
</g>
<g fill="#0000FF" >
<use xlink:href="#f0_1w" transform="matrix(18,0,0,18,387.4,1063.3)" />
<use xlink:href="#f0_1k" transform="matrix(18,0,0,18,408.8,1063.3)" />
<use xlink:href="#f0_23" transform="matrix(18,0,0,18,421,1063.3)" />
<use xlink:href="#f0_1s" transform="matrix(18,0,0,18,428.7,1063.3)" />
<use xlink:href="#f0_1k" transform="matrix(18,0,0,18,436.3,1063.3)" />
<use xlink:href="#f0_22" transform="matrix(18,0,0,18,448.5,1063.3)" />
<use xlink:href="#f0_t" transform="matrix(18,0,0,18,459.2,1063.3)" />
<use xlink:href="#f0_1r" transform="matrix(18,0,0,18,484.5,1063.3)" />
<use xlink:href="#f0_1k" transform="matrix(18,0,0,18,498.3,1063.3)" />
<use xlink:href="#f0_1x" transform="matrix(18,0,0,18,510.5,1063.3)" />
<use xlink:href="#f0_1n" transform="matrix(18,0,0,18,524.2,1063.3)" />
<use xlink:href="#f0_22" transform="matrix(18,0,0,18,538,1063.3)" />
<use xlink:href="#f0_d" transform="matrix(18,0,0,18,548.7,1063.3)" />
<use xlink:href="#f0_1k" transform="matrix(18,0,0,18,555.6,1063.3)" />
<use xlink:href="#f0_1s" transform="matrix(18,0,0,18,567.8,1063.3)" />
</g>
</g>
<path d="M387.6,1067H575.3v1.1H387.6Z" class="g0_1" />
<image preserveAspectRatio="none" x="295" y="162" width="375" height="98" xlink:href="img/1.png" />
<defs>
<path d="M197,0V27c0,0,71,2,92,13c0,0,21,10,29,29c0,0,9,18,9,109V725c0,0,0,110,-8,141c0,0,-5,24,-19,35c0,0,-14,11,-33,11c0,0,-28,0,-77,-23l-11,23l246,121h25V178c0,0,0,-85,7,-106c0,0,7,-21,29,-32c0,0,23,-11,91,-13V0Z" 
id="f0_g"
transform="scale(0.001,-0.001)" />

<path d="M357,55c0,0,117,0,206,70c0,0,90,70,90,191c0,0,0,92,-56,144c0,0,-57,51,-182,51c0,0,-24,0,-59,-3L231,65c0,0,81,-10,126,-10Zm86,508c0,0,158,0,234,68c0,0,77,67,77,169c0,0,0,76,-48,119c0,0,-48,43,-153,43c0,0,-28,0,-71,-9L372,564c0,0,49,-1,71,-1ZM-34,0l10,26c0,0,57,2,78,12c0,0,30,12,42,33c0,0,18,29,48,131L318,816c0,0,23,78,23,109c0,0,0,28,-20,44c0,0,-21,16,-78,16c0,0,-13,0,-24,1l10,26H594c0,0,92,0,164,-28c0,0,72,-29,108,-79c0,0,36,-51,36,-108c0,0,0,-87,-66,-157c0,0,-66,-71,-216,-104c0,0,99,-35,146,-91c0,0,46,-57,46,-125c0,0,0,-76,-39,-144c0,0,-39,-69,-99,-107C674,69,613,31,527,13C527,13,466,0,336,0Z" 
id="f1_9"
transform="scale(0.001,-0.001)" />

<path d="M153,-17c0,0,-35,0,-59,23C94,6,69,30,69,66c0,0,0,56,39,172l77,230c0,0,28,83,28,103c0,0,0,9,-8,15c0,0,-7,7,-16,7c0,0,-18,0,-37,-12c0,0,-18,-11,-84,-82L45,515c0,0,61,87,128,128c0,0,52,32,96,32c0,0,30,0,48,-21c0,0,19,-20,19,-53c0,0,0,-40,-34,-142L221,220c0,0,-34,-97,-34,-123c0,0,0,-14,10,-23c0,0,10,-8,26,-8c0,0,26,0,67,24c0,0,41,25,109,110c0,0,69,85,114,159c0,0,44,75,92,237l18,61H735L601,207c0,0,-30,-101,-30,-127c0,0,0,-13,3,-19c0,0,4,-6,10,-6c0,0,10,0,22,11c0,0,12,11,59,91l22,-17C687,140,636,49,581,9c0,0,-35,-26,-69,-26c0,0,-25,0,-40,17c0,0,-15,15,-15,41c0,0,0,25,9,67c0,0,12,52,70,237C536,345,405,137,316,60c0,0,-88,-77,-163,-77Z" 
id="f1_10"
transform="scale(0.001,-0.001)" />

<path d="M145,-17c0,0,-29,0,-48,18C97,1,79,19,79,46c0,0,0,28,20,93L201,475c0,0,24,82,24,103c0,0,0,17,-11,27c0,0,-12,10,-32,10c0,0,-16,0,-68,-8v30l260,42L218,149c0,0,-16,-53,-16,-64c0,0,0,-11,6,-19c0,0,7,-7,15,-7c0,0,11,0,25,12c0,0,39,33,78,95l26,-17C352,149,304,72,238,20c0,0,-49,-37,-93,-37ZM342,825c0,0,-31,0,-53,22c0,0,-22,22,-22,53c0,0,0,31,22,53c0,0,21,22,53,22c0,0,31,0,53,-22c0,0,22,-22,22,-53c0,0,0,-31,-23,-53c0,0,-22,-22,-52,-22Z" 
id="f1_p"
transform="scale(0.001,-0.001)" />

<path d="M122,-17c0,0,-27,0,-45,19C77,2,59,21,59,46c0,0,0,27,25,111L291,859c0,0,25,86,25,98c0,0,0,18,-14,30c0,0,-14,12,-44,12c0,0,-18,0,-53,-6v27l257,42L200,170c0,0,-19,-67,-19,-82c0,0,0,-11,6,-18c0,0,7,-8,16,-8c0,0,13,0,28,13c0,0,35,31,73,98l22,-23C326,150,259,50,202,11c0,0,-42,-28,-80,-28Z" 
id="f1_r"
transform="scale(0.001,-0.001)" />

<path d="M252,70c0,0,90,0,212,168c0,0,123,168,123,294c0,0,0,47,-30,76c0,0,-30,30,-77,30c0,0,-103,0,-214,-156C266,482,155,327,155,185c0,0,0,-56,28,-85c0,0,29,-30,69,-30ZM185,-17c0,0,-63,0,-109,50C76,33,29,83,29,169c0,0,0,111,77,237c0,0,77,126,203,205c0,0,99,64,182,64c0,0,44,0,75,-17c0,0,32,-16,62,-54l71,247c0,0,11,40,18,64c0,0,9,31,9,50c0,0,0,16,-11,27c0,0,-16,13,-40,13c0,0,-17,0,-57,-6v27l255,42L615,170c0,0,-21,-73,-21,-95c0,0,0,-7,4,-13c0,0,4,-6,8,-6c0,0,7,0,16,9c0,0,16,16,56,88l25,-16c0,0,-43,-73,-88,-114c0,0,-44,-40,-83,-40c0,0,-20,0,-35,17c0,0,-16,18,-16,51c0,0,0,42,22,114l29,94C532,259,413,91,315,27c0,0,-68,-44,-130,-44Z" 
id="f1_k"
transform="scale(0.001,-0.001)" />

<path d="M504,-17c0,0,-27,0,-42,17c0,0,-16,16,-16,44c0,0,0,36,29,123l98,300c0,0,18,56,18,87c0,0,0,15,-10,24c0,0,-11,10,-26,10c0,0,-23,0,-54,-18c0,0,-60,-34,-124,-111c0,0,-65,-77,-137,-197c0,0,-38,-63,-63,-139L141,0H29L163,467c0,0,24,85,24,102c0,0,0,16,-13,28c0,0,-13,13,-32,13c0,0,-9,0,-30,-3L84,602l-7,27l257,46L238,340c0,0,149,205,228,270c0,0,79,65,152,65c0,0,40,0,66,-27c0,0,26,-27,26,-70c0,0,0,-44,-25,-118L584,149c0,0,-17,-54,-17,-66c0,0,0,-10,5,-17c0,0,5,-7,11,-7c0,0,8,0,20,9c0,0,35,31,77,95l23,-14C703,149,637,51,578,10c0,0,-42,-27,-74,-27Z" 
id="f1_t"
transform="scale(0.001,-0.001)" />

<path d="M290,-283c0,0,107,0,183,37c0,0,76,36,76,93c0,0,0,29,-28,55c0,0,-28,27,-109,43c0,0,-44,9,-232,55c0,0,-60,-27,-91,-70c0,0,-31,-43,-31,-85c0,0,0,-49,44,-81c0,0,65,-47,188,-47Zm53,531c0,0,39,0,76,22c0,0,37,22,63,60c0,0,25,38,40,96c0,0,15,59,15,85c0,0,0,60,-33,94c0,0,-33,34,-87,34c0,0,-85,0,-139,-84c0,0,-55,-85,-55,-176c0,0,0,-58,35,-94c0,0,35,-37,85,-37ZM269,-328c0,0,-92,0,-168,21c0,0,-76,22,-108,60c0,0,-33,37,-33,76c0,0,0,32,21,67c0,0,21,35,53,57c0,0,20,14,114,66c0,0,-35,27,-35,59c0,0,0,30,31,63c0,0,30,34,127,74c0,0,-82,16,-130,69c0,0,-48,53,-48,118c0,0,0,106,93,189c0,0,93,84,247,84c0,0,56,0,92,-11c0,0,36,-12,70,-35H796L774,551H650c0,0,14,-40,14,-75c0,0,0,-99,-84,-176c0,0,-84,-77,-231,-85c0,0,-79,-24,-118,-57c0,0,-15,-12,-15,-25c0,0,0,-14,13,-27c0,0,14,-12,68,-25L442,48c0,0,120,-28,159,-66c0,0,38,-39,38,-91c0,0,0,-61,-46,-111c0,0,-45,-51,-132,-80c0,0,-87,-28,-192,-28Z" 
id="f1_n"
transform="scale(0.001,-0.001)" />

<path d="M133,-17c0,0,-31,0,-50,20C83,3,63,23,63,55c0,0,0,40,25,123L228,609H104l8,30c0,0,82,23,139,67c0,0,57,44,128,154h33L351,657H456L443,609H337L203,171c0,0,-25,-75,-25,-97c0,0,0,-12,5,-19c0,0,5,-6,13,-6c0,0,16,0,44,25c0,0,15,15,71,92l24,-19C335,147,270,48,213,9c0,0,-40,-26,-80,-26Z" 
id="f1_z"
transform="scale(0.001,-0.001)" />

<path d="M293,20c0,0,105,0,197,156c0,0,92,156,92,317c0,0,0,69,-34,106c0,0,-33,37,-87,37c0,0,-110,0,-202,-157c0,0,-92,-157,-92,-312c0,0,0,-71,36,-109c0,0,36,-38,90,-38ZM276,-17c0,0,-102,0,-167,65c0,0,-64,65,-64,168c0,0,0,110,63,220c0,0,63,111,168,175c0,0,106,64,204,64c0,0,99,0,162,-65c0,0,64,-65,64,-169c0,0,0,-111,-59,-221C647,220,588,111,482,46c0,0,-106,-63,-206,-63Z" 
id="f1_u"
transform="scale(0.001,-0.001)" />

<path d="M187,318c0,0,111,12,181,43c0,0,92,41,138,98c0,0,46,57,46,108c0,0,0,32,-20,51c0,0,-20,20,-56,20c0,0,-77,0,-163,-81c0,0,-85,-81,-126,-239ZM268,-17c0,0,-110,0,-165,68c0,0,-55,69,-55,151c0,0,0,111,69,228c0,0,68,116,172,180c0,0,104,65,213,65c0,0,79,0,118,-32c0,0,38,-32,38,-76c0,0,0,-62,-50,-119c0,0,-65,-73,-191,-119c0,0,-84,-30,-235,-47c0,0,-5,-38,-5,-62c0,0,0,-67,47,-114c0,0,47,-46,114,-46c0,0,54,0,104,22c0,0,50,22,148,97l15,-21C605,158,428,-17,268,-17Z" 
id="f1_l"
transform="scale(0.001,-0.001)" />

<path d="M505,-17c0,0,-26,0,-43,17c0,0,-17,17,-17,45c0,0,0,33,30,122l97,298c0,0,18,56,18,88c0,0,0,15,-10,24c0,0,-10,9,-26,9c0,0,-24,0,-54,-17c0,0,-55,-31,-127,-116c0,0,-20,-23,-130,-186c0,0,-34,-52,-54,-114L142,0H30L274,854l27,92c0,0,0,19,-16,34c0,0,-17,15,-40,15c0,0,-13,0,-41,-4l-16,-2v29l257,43L239,338c0,0,144,203,225,270c0,0,81,67,155,67c0,0,38,0,63,-27c0,0,26,-27,26,-71c0,0,0,-49,-24,-118L583,149c0,0,-19,-57,-19,-62c0,0,0,-11,6,-17c0,0,5,-6,13,-6c0,0,8,0,20,9c0,0,38,32,75,90l23,-14c0,0,-24,-39,-67,-85C634,64,591,18,560,0c0,0,-31,-17,-55,-17Z" 
id="f1_o"
transform="scale(0.001,-0.001)" />

<path d="M31,0L164,463c0,0,24,81,24,115c0,0,0,14,-12,23c0,0,-14,12,-37,12c0,0,-15,0,-54,-7L74,633l255,42L220,312c0,0,134,223,243,312c0,0,62,51,102,51c0,0,25,0,39,-15c0,0,15,-15,15,-42c0,0,0,-50,-25,-94c0,0,-18,-34,-52,-34c0,0,-17,0,-30,11c0,0,-12,11,-15,35c0,0,-1,14,-7,18c0,0,-6,6,-14,6c0,0,-13,0,-24,-6c0,0,-19,-10,-59,-58c0,0,-62,-73,-134,-189c0,0,-32,-49,-54,-111c0,0,-32,-85,-36,-102L145,0Z" 
id="f1_x"
transform="scale(0.001,-0.001)" />

<path d="M251,69c0,0,93,0,201,118c0,0,131,157,126,322c0,0,0,62,-26,90c0,0,-27,28,-74,28c0,0,-52,0,-110,-44c0,0,-83,-62,-148,-185c0,0,-64,-122,-64,-221c0,0,0,-50,28,-79c0,0,29,-29,67,-29ZM183,-17c0,0,-60,0,-103,44C80,27,36,71,36,149c0,0,0,117,77,247c0,0,77,130,195,208c0,0,92,62,174,62c0,0,49,0,82,-22c0,0,32,-22,49,-73l24,77l115,18L609,160L593,92c0,0,-2,-10,-2,-17c0,0,0,-10,5,-19c0,0,4,-6,11,-6c0,0,6,0,17,11c0,0,21,20,55,88l25,-18c0,0,-43,-75,-89,-112c0,0,-45,-36,-84,-36c0,0,-27,0,-42,16c0,0,-15,15,-15,46c0,0,0,36,17,96l16,55C507,196,399,69,309,19c0,0,-64,-36,-126,-36Z" 
id="f1_h"
transform="scale(0.001,-0.001)" />

<path d="M207,-17c0,0,-5,318,-32,502c0,0,-11,76,-37,100c0,0,-19,17,-57,17c0,0,-21,0,-55,-4v27l214,50c0,0,45,-125,59,-383c0,0,4,-97,7,-123L613,675h27L692,116c0,0,130,152,207,285c0,0,46,78,47,113c0,0,-1,17,-9,30c0,0,-3,6,-23,19c0,0,-20,13,-28,27c0,0,-8,14,-8,30c0,0,0,23,17,39c0,0,17,16,44,16c0,0,30,0,51,-23c0,0,21,-23,21,-61c0,0,0,-39,-11,-72c0,0,-23,-64,-87,-166c0,0,-79,-121,-163,-225C750,128,666,24,625,-17H597L549,499L240,-17Z" 
id="f1_12"
transform="scale(0.001,-0.001)" />

<path d="M-13,-17L32,225H60c0,0,4,-114,47,-161c0,0,42,-47,117,-47c0,0,57,0,90,31c0,0,33,32,33,78c0,0,0,30,-12,55c0,0,-21,45,-87,124c0,0,-67,79,-86,119c0,0,-19,39,-19,79c0,0,0,72,52,122c0,0,53,50,136,50c0,0,24,0,43,-4c0,0,11,-2,49,-17c0,0,39,-15,51,-15c0,0,32,0,54,36h28L510,446H483c0,0,-4,100,-42,146c0,0,-39,46,-97,46c0,0,-46,0,-73,-26c0,0,-28,-25,-28,-61c0,0,0,-25,11,-47c0,0,11,-22,48,-63c0,0,97,-106,125,-159c0,0,29,-54,29,-102c0,0,0,-77,-65,-138c0,0,-65,-59,-164,-59c0,0,-54,0,-124,25c0,0,-25,9,-38,9c0,0,-34,0,-51,-34Z" 
id="f1_y"
transform="scale(0.001,-0.001)" />

<path d="M-162,-328c0,0,-45,0,-77,26c0,0,-23,19,-23,49c0,0,0,23,19,41c0,0,19,17,47,17c0,0,20,0,34,-12c0,0,13,-13,13,-29c0,0,0,-17,-15,-31c0,0,-12,-10,-12,-16c0,0,0,-6,5,-10c0,0,7,-5,21,-5c0,0,32,0,67,20c0,0,36,20,63,60c0,0,27,40,52,115c0,0,10,32,58,205L233,608H89l10,49c0,0,69,0,96,9c0,0,28,8,50,32c0,0,23,25,55,91c0,0,42,90,81,139c0,0,53,66,112,100c0,0,58,33,110,33c0,0,54,0,88,-29c0,0,33,-28,33,-62c0,0,0,-26,-18,-44c0,0,-17,-18,-44,-18c0,0,-23,0,-37,14c0,0,-15,13,-15,32c0,0,0,12,10,29c0,0,10,18,10,24c0,0,0,10,-6,15c0,0,-9,8,-27,8c0,0,-43,0,-77,-31c0,0,-46,-41,-83,-127c0,0,-18,-45,-74,-215H473L460,608H350L260,279C260,279,201,65,145,-51c0,0,-79,-166,-169,-229c0,0,-69,-48,-138,-48Z" 
id="f1_m"
transform="scale(0.001,-0.001)" />

<path d="M269,-17c0,0,-105,0,-165,59c0,0,-59,60,-59,160c0,0,0,114,64,225c0,0,64,110,171,179c0,0,108,69,212,69c0,0,81,0,121,-34c0,0,41,-34,41,-83c0,0,0,-46,-29,-79c0,0,-21,-25,-51,-25c0,0,-24,0,-39,15c0,0,-15,14,-15,37c0,0,0,14,5,26c0,0,6,12,23,29c0,0,18,16,22,24c0,0,4,7,4,15c0,0,0,16,-15,27c0,0,-21,14,-61,14c0,0,-73,0,-144,-51c0,0,-72,-51,-123,-146c0,0,-61,-115,-61,-229c0,0,0,-76,44,-121c0,0,43,-44,117,-44c0,0,58,0,114,29c0,0,56,28,126,104l22,-20C593,163,515,70,436,26c0,0,-79,-43,-167,-43Z" 
id="f1_j"
transform="scale(0.001,-0.001)" />

<path d="M839,-17c0,0,-25,0,-42,17c0,0,-17,18,-17,44c0,0,0,36,35,144l78,239c0,0,26,83,28,92c0,0,3,14,3,27c0,0,0,19,-9,29c0,0,-10,11,-22,11c0,0,-34,0,-71,-32c0,0,-111,-95,-208,-266C614,288,551,176,495,0H382L517,451c0,0,22,73,22,97c0,0,0,20,-8,30c0,0,-9,10,-21,10c0,0,-25,0,-53,-18c0,0,-46,-29,-118,-125c0,0,-72,-95,-112,-182c0,0,-19,-41,-91,-263H26L165,483l17,63c0,0,6,14,6,21c0,0,0,17,-15,30c0,0,-15,13,-38,13c0,0,-10,0,-54,-9l-7,27l256,47L234,338c0,0,67,119,113,178c0,0,73,93,141,135c0,0,41,24,85,24c0,0,38,0,63,-25c0,0,25,-24,25,-62c0,0,0,-36,-18,-95L587,305c0,0,129,227,244,319c0,0,64,51,126,51c0,0,36,0,60,-26c0,0,23,-25,23,-78c0,0,0,-43,-15,-91L933,192c0,0,-31,-94,-31,-104c0,0,0,-10,6,-17c0,0,4,-5,11,-5c0,0,7,0,23,13c0,0,38,33,71,87l24,-16c0,0,-17,-30,-62,-81C975,69,929,18,898,0c0,0,-32,-17,-59,-17Z" 
id="f1_s"
transform="scale(0.001,-0.001)" />

<path d="M-60,-328c0,0,-23,0,-41,17c0,0,-17,18,-17,41c0,0,0,29,24,53c0,0,24,23,53,23c0,0,15,0,24,-6c0,0,6,-4,13,-21c0,0,6,-18,12,-24c0,0,4,-3,9,-3c0,0,5,0,16,7c0,0,41,25,96,81c0,0,71,72,106,119L193,430c0,0,-11,117,-32,142c0,0,-20,25,-70,25c0,0,-15,0,-56,-4l-7,28l219,54c0,0,25,-43,35,-81c0,0,10,-38,20,-148L334,80c0,0,45,54,130,170c0,0,41,56,102,154c0,0,36,59,45,83c0,0,4,12,4,25c0,0,0,8,-5,13c0,0,-6,5,-28,12c0,0,-21,7,-36,26c0,0,-15,19,-15,44c0,0,0,30,18,49c0,0,18,19,45,19c0,0,33,0,56,-28c0,0,23,-27,23,-74c0,0,0,-59,-40,-135c0,0,-40,-76,-155,-232C478,206,363,49,200,-135c0,0,-113,-127,-168,-160c0,0,-53,-33,-92,-33Z" 
id="f1_14"
transform="scale(0.001,-0.001)" />

<path d="M553,-21L174,849c0,0,-29,67,-41,82c0,0,-19,24,-46,37c0,0,-27,13,-73,17v27H427V985c0,0,-70,-7,-91,-24c0,0,-21,-17,-21,-44c0,0,0,-38,34,-117L607,207L846,793c0,0,35,86,35,120c0,0,0,22,-22,41c0,0,-21,20,-73,28c0,0,-4,1,-13,3v27h311V985c0,0,-53,-10,-81,-35c0,0,-39,-37,-70,-112L581,-21Z" 
id="f0_1f"
transform="scale(0.001,-0.001)" />

<path d="M479,469c0,0,-4,66,-16,93c0,0,-18,42,-55,65c0,0,-37,24,-78,24c0,0,-62,0,-111,-48c0,0,-48,-48,-57,-134ZM355,-20c0,0,-123,0,-211,95c0,0,-87,96,-87,258c0,0,0,175,90,273c0,0,89,98,225,98c0,0,115,0,189,-76c0,0,74,-75,74,-202H162c0,0,0,-152,74,-239c0,0,75,-86,175,-86c0,0,67,0,117,36c0,0,50,37,83,127l24,-15c0,0,-16,-102,-91,-186c0,0,-76,-83,-189,-83Z" 
id="f0_1o"
transform="scale(0.001,-0.001)" />

<path d="M17,0V26c0,0,52,0,77,17c0,0,19,12,26,38c0,0,4,13,4,73V419c0,0,0,119,-5,142c0,0,-4,23,-17,33c0,0,-13,11,-33,11c0,0,-23,0,-52,-11l-7,26l207,83h31V549c0,0,86,154,176,154c0,0,41,0,68,-25c0,0,27,-25,27,-58c0,0,0,-29,-20,-49c0,0,-19,-20,-46,-20c0,0,-26,0,-58,25c0,0,-33,26,-48,26c0,0,-14,0,-29,-15c0,0,-34,-30,-70,-101V159c0,0,0,-56,15,-85c0,0,9,-20,34,-34c0,0,24,-14,71,-14V0Z" 
id="f0_21"
transform="scale(0.001,-0.001)" />

<path d="M312,-20c0,0,-62,0,-143,22c0,0,-25,8,-40,8c0,0,-18,0,-27,-19H77V234h25c0,0,21,-105,80,-158c0,0,59,-53,132,-53c0,0,51,0,84,31c0,0,32,30,32,72c0,0,0,52,-36,87c0,0,-36,35,-144,88c0,0,-109,54,-142,97c0,0,-34,43,-34,107c0,0,0,85,58,141c0,0,58,57,150,57c0,0,40,0,97,-17c0,0,38,-11,51,-11c0,0,12,0,19,5c0,0,7,5,15,23h25V470H464c0,0,-28,110,-72,149c0,0,-45,40,-113,40c0,0,-53,0,-85,-28c0,0,-32,-27,-32,-61c0,0,0,-41,24,-71c0,0,23,-31,94,-65L389,381c0,0,152,-74,152,-194c0,0,0,-94,-71,-151c0,0,-70,-56,-158,-56Z" 
id="f0_22"
transform="scale(0.001,-0.001)" />

<path d="M55,0V26c0,0,50,0,67,10c0,0,17,10,27,32c0,0,10,23,10,86V418c0,0,0,111,-6,144c0,0,-6,24,-17,33c0,0,-11,10,-30,10c0,0,-21,0,-51,-11L45,620l206,83h33V154c0,0,0,-64,9,-85c0,0,9,-22,27,-32c0,0,19,-11,67,-11V0ZM222,909c0,0,-32,0,-54,23c0,0,-22,22,-22,53c0,0,0,32,22,54c0,0,22,22,54,22c0,0,31,0,53,-22c0,0,22,-22,22,-54c0,0,0,-31,-22,-53c0,0,-22,-23,-53,-23Z" 
id="f0_1s"
transform="scale(0.001,-0.001)" />

<path d="M406,32c0,0,72,0,119,60c0,0,47,59,47,205c0,0,0,181,-78,286c0,0,-53,71,-135,71c0,0,-40,0,-79,-23c0,0,-40,-24,-65,-83c0,0,-24,-58,-24,-151c0,0,0,-149,59,-257c0,0,59,-108,156,-108ZM374,-20c0,0,-154,0,-245,122c0,0,-77,104,-77,233c0,0,0,94,46,187c0,0,47,92,123,137c0,0,76,44,161,44c0,0,155,0,249,-118c0,0,80,-100,80,-231c0,0,0,-91,-44,-185C667,169,623,75,546,27c0,0,-77,-47,-172,-47Z" 
id="f0_1y"
transform="scale(0.001,-0.001)" />

<path d="M21,0V26H35c0,0,53,0,71,27c0,0,18,27,18,101V408c0,0,0,123,-5,150c0,0,-6,27,-17,37c0,0,-12,10,-31,10c0,0,-21,0,-50,-11L10,620l206,83h32V558c0,0,120,145,229,145c0,0,56,0,96,-28c0,0,40,-28,64,-92c0,0,16,-45,16,-137V154c0,0,0,-65,11,-88c0,0,8,-19,26,-29c0,0,18,-11,68,-11V0H419V26h14c0,0,47,0,66,15c0,0,20,15,27,43c0,0,3,11,3,70V434c0,0,0,93,-24,135c0,0,-24,42,-81,42c0,0,-88,0,-176,-97V154c0,0,0,-69,9,-86c0,0,10,-21,28,-31c0,0,19,-11,75,-11V0Z" 
id="f0_1x"
transform="scale(0.001,-0.001)" />

<path d="M191,-20c0,0,-34,0,-58,24c0,0,-24,24,-24,58c0,0,0,35,24,59c0,0,24,24,58,24c0,0,35,0,59,-24c0,0,24,-25,24,-59c0,0,0,-34,-24,-58c0,0,-25,-24,-59,-24Z" 
id="f0_d"
transform="scale(0.001,-0.001)" />

<path d="M678,393L506,802L330,393ZM11,0V27c0,0,63,12,82,30c0,0,38,35,84,145l356,832h27L912,193c0,0,43,-101,77,-132c0,0,35,-30,97,-34V0H687V27c0,0,60,3,82,21c0,0,21,17,21,41c0,0,0,33,-30,104L700,338H307L239,179c0,0,-26,-59,-26,-88c0,0,0,-23,22,-41c0,0,22,-17,95,-23V0Z" 
id="f0_u"
transform="scale(0.001,-0.001)" />

<path d="M398,24c0,0,74,0,120,58c0,0,61,76,61,214c0,0,0,156,-69,240c0,0,-47,59,-113,59c0,0,-36,0,-71,-18c0,0,-27,-14,-88,-81V242c0,0,0,-83,6,-109c0,0,11,-43,51,-76c0,0,41,-33,103,-33ZM-4,-326v27H15c5,0,42,0,69,16c0,0,14,8,22,26c0,0,7,19,7,94V481c0,0,0,67,-6,85c0,0,-5,18,-18,27c0,0,-13,9,-36,9c0,0,-18,0,-45,-10L0,615l209,85h29V540c0,0,53,91,106,127c0,0,53,36,112,36c0,0,103,0,172,-80c0,0,84,-99,84,-257c0,0,0,-176,-102,-292c0,0,-83,-94,-210,-94c0,0,-55,0,-95,16c0,0,-30,10,-67,44V-167c0,0,0,-71,8,-90c0,0,9,-20,30,-31c0,0,21,-11,77,-11v-27Z" 
id="f0_1z"
transform="scale(0.001,-0.001)" />

<path d="M58,0V26c0,0,47,0,64,10c0,0,18,10,28,32c0,0,9,23,9,86V775c0,0,0,116,-5,142c0,0,-5,27,-17,37c0,0,-11,9,-29,9c0,0,-20,0,-49,-12L46,978l204,83h34V154c0,0,0,-64,9,-85c0,0,9,-21,29,-32c0,0,19,-11,72,-11V0Z" 
id="f0_1v"
transform="scale(0.001,-0.001)" />

<path d="M33,0V27c0,0,264,241,371,393c0,0,108,152,108,278c0,0,0,96,-59,158c0,0,-59,62,-141,62c0,0,-75,0,-134,-43c0,0,-59,-44,-88,-128H63c0,0,18,138,95,212c0,0,77,74,193,74c0,0,123,0,205,-80c0,0,83,-79,83,-186c0,0,0,-77,-36,-154c0,0,-55,-121,-179,-256C424,357,238,154,191,112H455c0,0,81,0,114,6c0,0,32,6,58,25c0,0,27,18,46,52h27L630,0Z" 
id="f0_h"
transform="scale(0.001,-0.001)" />

<path d="M379,29c0,0,41,0,84,37c0,0,43,36,65,121c0,0,34,128,34,362c0,0,0,173,-35,288c0,0,-27,86,-69,122c0,0,-31,25,-74,25c0,0,-51,0,-90,-46c0,0,-54,-62,-73,-195c0,0,-20,-132,-20,-261c0,0,0,-209,52,-341c0,0,42,-112,126,-112Zm-2,-46c0,0,-145,0,-241,170c0,0,-81,144,-81,347c0,0,0,173,52,298c0,0,52,125,139,186c0,0,67,49,139,49c0,0,116,0,208,-119c0,0,116,-147,116,-398c0,0,0,-176,-51,-299C658,217,608,94,529,38c0,0,-79,-55,-152,-55Z" 
id="f0_f"
transform="scale(0.001,-0.001)" />

<path d="M255,-10c0,0,-35,0,-68,18c0,0,-32,19,-48,55c0,0,-16,35,-16,109V632H15v24c0,0,41,16,84,56c0,0,43,39,77,92c0,0,17,29,48,104h23V683H407V632H247V188c0,0,0,-66,19,-90c0,0,19,-23,49,-23c0,0,24,0,47,16c0,0,23,15,36,45h29c0,0,-26,-73,-74,-110c0,0,-47,-36,-98,-36Z" 
id="f0_23"
transform="scale(0.001,-0.001)" />

<path d="M20,0V26c0,0,45,0,71,15c0,0,15,7,24,28c0,0,9,21,9,85V773c0,0,0,117,-5,144c0,0,-6,27,-17,37c0,0,-12,9,-31,9c0,0,-16,0,-51,-12L10,978l204,83h34V561c0,0,83,91,131,116c0,0,49,26,97,26c0,0,58,0,100,-32c0,0,42,-32,62,-101c0,0,14,-47,14,-174V154c0,0,0,-65,11,-89c0,0,7,-18,25,-28c0,0,18,-11,66,-11V0H418V26h15c0,0,48,0,67,15c0,0,18,15,26,43c0,0,2,12,2,70V396c0,0,0,112,-12,147c0,0,-11,35,-36,53c0,0,-26,17,-61,17c0,0,-37,0,-76,-19c0,0,-40,-20,-95,-79V154c0,0,0,-70,8,-87c0,0,8,-17,29,-29c0,0,22,-12,74,-12V0Z" 
id="f0_1r"
transform="scale(0.001,-0.001)" />

<path d="M82,-253v33c0,0,77,25,119,78c0,0,42,54,42,114c0,0,0,14,-7,23c0,0,-5,6,-11,6c0,0,-8,0,-35,-14c0,0,-14,-7,-28,-7c0,0,-37,0,-58,21C104,1,82,23,82,61c0,0,0,36,28,62c0,0,28,27,68,27c0,0,49,0,88,-43c0,0,38,-43,38,-113c0,0,0,-77,-53,-143c0,0,-53,-66,-169,-104Z" 
id="f0_b"
transform="scale(0.001,-0.001)" />

<path d="M394,23c0,0,80,0,129,45c0,0,48,45,48,110c0,0,0,54,-28,97c0,0,-53,79,-214,206c0,0,-62,-52,-92,-114c0,0,-30,-61,-30,-133c0,0,0,-96,53,-154c0,0,52,-57,134,-57Zm17,566c0,0,90,81,114,128c0,0,24,46,24,105c0,0,0,79,-44,123c0,0,-44,45,-121,45c0,0,-76,0,-124,-45c0,0,-48,-44,-48,-103c0,0,0,-38,20,-77c0,0,20,-39,56,-74L411,589ZM382,-17c0,0,-144,0,-225,90c0,0,-64,72,-64,158c0,0,0,67,45,133c0,0,45,66,156,146c0,0,-121,98,-156,158c0,0,-34,59,-34,124c0,0,0,98,76,169c0,0,76,72,202,72c0,0,123,0,198,-67c0,0,74,-66,74,-151c0,0,0,-57,-40,-116c0,0,-40,-59,-168,-139c0,0,132,-101,174,-159c0,0,57,-76,57,-161c0,0,0,-106,-82,-182c0,0,-81,-75,-213,-75Z" 
id="f0_n"
transform="scale(0.001,-0.001)" />

<path d="M548,-21c0,0,-251,0,-389,185C159,164,56,303,56,490c0,0,0,152,68,278c0,0,67,127,186,197c0,0,119,69,260,69c0,0,109,0,216,-53c0,0,31,-17,44,-17c0,0,20,0,35,14c0,0,20,21,28,56h26L943,690H919c0,0,-46,155,-131,224c0,0,-86,68,-206,68c0,0,-100,0,-181,-51c0,0,-81,-52,-128,-163c0,0,-46,-112,-46,-279c0,0,0,-137,44,-238c0,0,44,-101,132,-154c0,0,88,-54,201,-54c0,0,99,0,174,42c0,0,75,42,165,167l23,-14C966,238,890,103,789,40c0,0,-102,-61,-241,-61Z" 
id="f0_w"
transform="scale(0.001,-0.001)" />

<path d="M286,72c0,0,57,0,149,75V407c0,0,-113,-45,-145,-64c0,0,-59,-32,-85,-68c0,0,-25,-36,-25,-78c0,0,0,-54,32,-89c0,0,32,-36,74,-36ZM217,-13c0,0,-71,0,-116,48c0,0,-46,48,-46,127c0,0,0,50,22,87c0,0,31,50,106,95c0,0,76,45,252,109v26c0,0,0,102,-32,140c0,0,-32,38,-94,38c0,0,-47,0,-74,-25c0,0,-28,-25,-28,-58l1,-43c0,0,0,-34,-17,-53c0,0,-18,-18,-47,-18c0,0,-28,0,-45,19c0,0,-18,19,-18,53c0,0,0,64,66,117c0,0,65,54,184,54c0,0,91,0,149,-31c0,0,44,-23,65,-72c0,0,13,-32,13,-131V238c0,0,0,-98,4,-120c0,0,4,-22,12,-29c0,0,9,-8,20,-8c0,0,12,0,21,5c0,0,16,10,61,55V99C676,99,592,-12,516,-12c0,0,-37,0,-58,24c0,0,-22,26,-23,86C435,98,330,17,303,5c0,0,-40,-18,-86,-18Z" 
id="f0_1k"
transform="scale(0.001,-0.001)" />

<path d="M473,53c0,0,173,0,287,121c0,0,114,122,114,330c0,0,0,210,-114,330c0,0,-114,121,-293,121c0,0,-67,0,-153,-21V74c0,0,95,-21,159,-21ZM26,0V27H64c0,0,64,0,91,41c0,0,16,25,16,111V833c0,0,0,95,-21,119c0,0,-29,33,-86,33H26v27H438c0,0,226,0,345,-51c0,0,118,-52,190,-172c0,0,72,-120,72,-278c0,0,0,-211,-129,-353C916,158,773,0,478,0Z" 
id="f0_x"
transform="scale(0.001,-0.001)" />

<path d="M24,0V27H60c0,0,63,0,91,37c0,0,18,24,18,115V833c0,0,0,77,-10,102c0,0,-7,18,-30,32c0,0,-32,18,-69,18H24v27H776L787,790H761c0,0,-20,71,-45,104c0,0,-26,33,-64,48c0,0,-37,15,-117,15H312V558H497c0,0,63,0,93,28c0,0,29,28,39,111h27V355H629c0,0,-1,59,-16,87c0,0,-14,27,-40,41c0,0,-26,14,-76,14H312V179c0,0,0,-77,10,-102c0,0,7,-18,31,-32c0,0,33,-18,69,-18h37V0Z" 
id="f0_z"
transform="scale(0.001,-0.001)" />

<path d="M411,-239c0,0,134,0,198,48c0,0,64,47,64,100c0,0,0,39,-38,55c0,0,-39,16,-154,19c0,0,-167,5,-258,17c0,0,-35,-37,-53,-70c0,0,-17,-32,-17,-60c0,0,0,-36,43,-62c0,0,74,-47,215,-47ZM380,257c0,0,56,0,93,43c0,0,36,42,36,133c0,0,0,118,-51,185c0,0,-38,49,-98,49c0,0,-55,0,-92,-44c0,0,-37,-44,-37,-135c0,0,0,-117,50,-182c0,0,39,-49,99,-49ZM345,-328c0,0,-144,0,-243,64c0,0,-56,38,-56,78c0,0,0,18,8,36c0,0,13,27,52,76c0,0,5,7,76,80c0,0,-39,23,-55,41c0,0,-16,19,-16,42c0,0,0,26,22,61c0,0,21,35,98,100c0,0,-63,30,-97,85c0,0,-33,55,-33,121c0,0,0,101,76,174c0,0,77,73,196,73c0,0,98,0,170,-48H688c0,0,32,0,37,-2c0,0,6,-2,8,-6c0,0,4,-7,4,-24c0,0,0,-20,-4,-27c0,0,-2,-4,-7,-6c0,0,-6,-2,-38,-2H599c0,0,41,-54,41,-137c0,0,0,-96,-73,-163c0,0,-73,-68,-196,-68c0,0,-51,0,-104,15c0,0,-33,-28,-44,-49c0,0,-12,-22,-12,-37c0,0,0,-12,13,-24c0,0,12,-12,48,-17c0,0,21,-4,104,-6c0,0,154,-4,199,-11c0,0,70,-10,111,-51c0,0,42,-41,42,-102c0,0,0,-84,-79,-158c0,0,-117,-108,-304,-108Z" 
id="f0_1q"
transform="scale(0.001,-0.001)" />

<path d="M342,-20c0,0,-116,0,-203,97c0,0,-86,98,-86,264c0,0,0,161,96,261c0,0,95,101,230,101c0,0,100,0,165,-53c0,0,65,-54,65,-111c0,0,0,-29,-18,-46c0,0,-18,-18,-51,-18c0,0,-44,0,-66,29c0,0,-13,15,-17,59c0,0,-4,45,-30,68c0,0,-26,22,-73,22c0,0,-74,0,-120,-55c0,0,-60,-73,-60,-193c0,0,0,-122,60,-216c0,0,60,-93,162,-93c0,0,73,0,131,49c0,0,41,35,80,126l22,-10C629,261,601,125,521,52c0,0,-81,-72,-179,-72Z" 
id="f0_1m"
transform="scale(0.001,-0.001)" />

<path d="M572,112c0,0,43,0,91,33c0,0,48,33,101,102c0,0,52,68,76,137c0,0,41,118,41,192c0,0,0,49,-27,78c0,0,-28,29,-66,29c0,0,-56,0,-114,-58c0,0,-84,-87,-144,-234c0,0,-44,-107,-44,-173c0,0,0,-47,27,-76c0,0,26,-30,59,-30ZM723,-328c0,0,-178,0,-330,84c0,0,-152,84,-236,238c0,0,-85,153,-85,338c0,0,0,197,93,367c0,0,92,170,259,266c0,0,167,96,354,96c0,0,155,0,279,-64c0,0,124,-64,189,-186c0,0,65,-123,65,-261c0,0,0,-136,-61,-270c0,0,-60,-133,-154,-194c0,0,-94,-62,-197,-62c0,0,-56,0,-85,27c0,0,-29,27,-29,75c0,0,0,42,14,109C799,235,688,102,621,62C621,62,554,22,503,22c0,0,-53,0,-94,48c0,0,-41,47,-41,126c0,0,0,108,70,242c0,0,71,135,188,219c0,0,86,62,154,62c0,0,51,0,84,-26c0,0,33,-26,45,-77l24,82l118,16L963,417c0,0,-48,-167,-59,-211c0,0,-10,-45,-10,-71c0,0,0,-24,16,-40c0,0,16,-17,40,-17c0,0,54,0,131,55c0,0,76,54,131,176c0,0,54,122,54,255c0,0,0,127,-61,235c0,0,-62,108,-174,166c0,0,-112,58,-248,58c0,0,-173,0,-320,-91c0,0,-148,-92,-234,-263c0,0,-86,-171,-86,-356c0,0,0,-172,76,-312c0,0,75,-139,213,-211c0,0,137,-72,295,-72c0,0,196,0,355,105c0,0,159,105,245,306h43c0,0,-67,-204,-244,-330c0,0,-177,-127,-403,-127Z" 
id="f0_t"
transform="scale(0.001,-0.001)" />

<path d="M399,62c0,0,68,0,131,68V481c0,0,-5,51,-27,93c0,0,-22,42,-59,63c0,0,-37,21,-72,21c0,0,-65,0,-117,-59c0,0,-67,-77,-67,-226c0,0,0,-151,65,-231c0,0,66,-80,146,-80ZM330,-20c0,0,-112,0,-196,93c0,0,-83,94,-83,240c0,0,0,147,92,269c0,0,93,122,238,122c0,0,90,0,149,-58V773c0,0,0,117,-6,144c0,0,-5,27,-17,37c0,0,-12,9,-30,9c0,0,-20,0,-52,-12l-9,27l204,83h33V270c0,0,0,-120,6,-146c0,0,5,-27,18,-37c0,0,12,-11,28,-11c0,0,21,0,54,13l9,-26L564,-20H530V78C530,78,480,25,432,2c0,0,-47,-22,-102,-22Z" 
id="f0_1n"
transform="scale(0.001,-0.001)" />

<path d="M25,0V27H61c0,0,64,0,91,39c0,0,16,24,16,109V837c0,0,0,67,-15,97c0,0,-10,22,-38,36c0,0,-28,15,-90,15v27H312L678,220l363,792h285V985h-35c0,0,-64,0,-91,-39c0,0,-17,-24,-17,-109V175c0,0,0,-93,21,-116c0,0,28,-32,87,-32h35V0H898V27h36c0,0,64,0,90,39c0,0,17,24,17,109V852L649,0H625L234,852V175c0,0,0,-93,20,-116c0,0,27,-32,87,-32h35V0Z" 
id="f0_16"
transform="scale(0.001,-0.001)" />

<path d="M485,53c0,0,135,0,206,61c0,0,71,60,71,150c0,0,0,59,-32,114c0,0,-33,54,-105,85c0,0,-72,32,-179,32c0,0,-46,0,-79,-2c0,0,-33,-1,-53,-5V73c0,0,86,-20,171,-20ZM455,547c0,0,109,0,164,23c0,0,55,24,84,72c0,0,29,49,29,106c0,0,0,89,-72,151c0,0,-73,63,-212,63c0,0,-74,0,-134,-16V557c0,0,27,-5,63,-8c0,0,35,-2,78,-2ZM24,0V27H63c0,0,63,0,91,41c0,0,17,26,17,111V833c0,0,0,94,-22,119c0,0,-29,33,-86,33H24v27H462c0,0,122,0,196,-18c0,0,112,-27,171,-95c0,0,59,-68,59,-157c0,0,0,-76,-46,-136c0,0,-47,-60,-137,-89c0,0,105,-23,157,-72c0,0,73,-69,73,-168c0,0,0,-75,-48,-145C887,132,839,63,756,32C756,32,673,0,502,0Z" 
id="f0_v"
transform="scale(0.001,-0.001)" />

<path d="M23,0V26c0,0,47,0,66,10c0,0,19,11,28,33c0,0,10,22,10,85V416c0,0,0,112,-7,145c0,0,-5,25,-16,34c0,0,-11,10,-31,10c0,0,-21,0,-50,-11L12,620l207,83h32V557c0,0,75,75,88,86c0,0,34,29,72,44c0,0,39,16,77,16c0,0,64,0,110,-37c0,0,47,-38,62,-109c0,0,77,90,130,118c0,0,53,28,109,28c0,0,54,0,96,-28c0,0,42,-28,67,-91c0,0,16,-43,16,-136V154c0,0,0,-64,10,-88c0,0,8,-16,28,-28c0,0,20,-12,65,-12V0H844V26h14c0,0,44,0,69,18c0,0,17,12,24,38c0,0,3,13,3,72V448c0,0,0,83,-20,117c0,0,-29,48,-93,48c0,0,-39,0,-79,-20c0,0,-40,-19,-97,-73l-1,-8l2,-32V154c0,0,0,-70,8,-87c0,0,7,-17,29,-29c0,0,21,-12,73,-12V0H431V26c0,0,57,0,78,14c0,0,21,13,29,40c0,0,4,13,4,74V448c0,0,0,83,-25,120c0,0,-33,48,-91,48c0,0,-40,0,-80,-22c0,0,-61,-33,-95,-74V154c0,0,0,-67,10,-87c0,0,9,-20,27,-30c0,0,18,-11,74,-11V0Z" 
id="f0_1w"
transform="scale(0.001,-0.001)" />


</defs>
</svg>