<?xml version="1.0" encoding="UTF-8" standalone="no"?>
<!DOCTYPE svg PUBLIC "-//W3C//DTD SVG 1.1//EN"
"http://www.w3.org/Graphics/SVG/1.1/DTD/svg11.dtd">
<svg viewBox="0 0 909 1286" version="1.1" xmlns="http://www.w3.org/2000/svg" xmlns:xlink="http://www.w3.org/1999/xlink">
<defs>
<clipPath id="c0_1"><path d="M27.5,1223.8L27.5,27.5l854,0l0,1196.3Z" /></clipPath>
<style type="text/css"><![CDATA[
.g1_1{
fill: #0563C1;
}
]]></style>
</defs>
<g clip-path="url(#c0_1)">
<g fill="#000000" >
<use xlink:href="#f0_12" transform="matrix(30,0,0,30,395.8,216.7)" />
<use xlink:href="#f0_1l" transform="matrix(30,0,0,30,428.9,216.7)" />
<use xlink:href="#f0_1y" transform="matrix(30,0,0,30,449.3,216.7)" />
<use xlink:href="#f0_1o" transform="matrix(30,0,0,30,472.2,216.7)" />
<use xlink:href="#f0_23" transform="matrix(30,0,0,30,495.1,216.7)" />
<use xlink:href="#f0_17" transform="matrix(12,0,0,12,372.1,269.9)" />
<use xlink:href="#f0_19" transform="matrix(12,0,0,12,388.5,269.9)" />
<use xlink:href="#f0_18" transform="matrix(12,0,0,12,401.7,269.9)" />
<use xlink:href="#f0_z" transform="matrix(12,0,0,12,414.9,269.9)" />
<use xlink:href="#f0_1e" transform="matrix(12,0,0,12,426.1,269.9)" />
<use xlink:href="#f0_13" transform="matrix(12,0,0,12,437.3,269.9)" />
<use xlink:href="#f0_1k" transform="matrix(12,0,0,12,443.4,269.9)" />
<use xlink:href="#f0_13" transform="matrix(12,0,0,12,454.6,269.9)" />
<use xlink:href="#f0_18" transform="matrix(12,0,0,12,460.7,269.9)" />
<use xlink:href="#f0_11" transform="matrix(12,0,0,12,474,269.9)" />
<use xlink:href="#f0_1e" transform="matrix(12,0,0,12,491.8,269.9)" />
<use xlink:href="#f0_13" transform="matrix(12,0,0,12,503,269.9)" />
<use xlink:href="#f0_17" transform="matrix(12,0,0,12,509.1,269.9)" />
<use xlink:href="#f0_z" transform="matrix(12,0,0,12,525.4,269.9)" />
</g>
<g fill="#A5A5A5" >
<use xlink:href="#f1_n" transform="matrix(14.9,0,0,14.9,357.6,590.3)" />
<use xlink:href="#f1_1s" transform="matrix(14.9,0,0,14.9,372.9,590.3)" />
<use xlink:href="#f1_1q" transform="matrix(14.9,0,0,14.9,385.6,590.3)" />
<use xlink:href="#f1_1h" transform="matrix(14.9,0,0,14.9,394.5,590.3)" />
<use xlink:href="#f1_1m" transform="matrix(14.9,0,0,14.9,400.9,590.3)" />
<use xlink:href="#f1_1d" transform="matrix(14.9,0,0,14.9,413.7,590.3)" />
<use xlink:href="#f1_1q" transform="matrix(14.9,0,0,14.9,423.8,590.3)" />
<use xlink:href="#f1_10" transform="matrix(14.9,0,0,14.9,438.5,590.3)" />
<use xlink:href="#f1_1k" transform="matrix(14.9,0,0,14.9,452.5,590.3)" />
<use xlink:href="#f1_19" transform="matrix(14.9,0,0,14.9,458.9,590.3)" />
<use xlink:href="#f1_1m" transform="matrix(14.9,0,0,14.9,470.3,590.3)" />
<use xlink:href="#f1_16" transform="matrix(14.9,0,0,14.9,488.8,590.3)" />
<use xlink:href="#f1_c" transform="matrix(14.9,0,0,14.9,505.4,590.3)" />
<use xlink:href="#f1_9" transform="matrix(14.9,0,0,14.9,516.8,590.3)" />
<use xlink:href="#f1_b" transform="matrix(14.9,0,0,14.9,522.6,590.3)" />
<use xlink:href="#f1_9" transform="matrix(14.9,0,0,14.9,534,590.3)" />
<use xlink:href="#f1_c" transform="matrix(14.9,0,0,14.9,539.8,590.3)" />
</g>
<g fill="#000000" >
<use xlink:href="#f0_1a" transform="matrix(12,0,0,12,369.4,689)" />
<use xlink:href="#f0_22" transform="matrix(12,0,0,12,379.6,689)" />
<use xlink:href="#f0_1p" transform="matrix(12,0,0,12,385.7,689)" />
<use xlink:href="#f0_20" transform="matrix(12,0,0,12,393.8,689)" />
<use xlink:href="#f0_1l" transform="matrix(12,0,0,12,403,689)" />
<use xlink:href="#f0_22" transform="matrix(12,0,0,12,411.1,689)" />
<use xlink:href="#f0_1p" transform="matrix(12,0,0,12,417.2,689)" />
<use xlink:href="#f0_1o" transform="matrix(12,0,0,12,425.3,689)" />
<use xlink:href="#f0_19" transform="matrix(12,0,0,12,439.1,689)" />
<use xlink:href="#f0_1n" transform="matrix(12,0,0,12,452.3,689)" />
<use xlink:href="#f0_24" transform="matrix(12,0,0,12,460.5,689)" />
<use xlink:href="#f0_1z" transform="matrix(12,0,0,12,465.6,689)" />
<use xlink:href="#f0_1m" transform="matrix(12,0,0,12,474.7,689)" />
<use xlink:href="#f0_1p" transform="matrix(12,0,0,12,483.9,689)" />
<use xlink:href="#f0_22" transform="matrix(12,0,0,12,492,689)" />
<use xlink:href="#f0_j" transform="matrix(12,0,0,12,502.7,689)" />
<use xlink:href="#f0_h" transform="matrix(12,0,0,12,511.9,689)" />
<use xlink:href="#f0_i" transform="matrix(12,0,0,12,521.1,689)" />
<use xlink:href="#f0_o" transform="matrix(12,0,0,12,530.2,689)" />
<use xlink:href="#f0_1a" transform="matrix(12,0,0,12,365.8,720.5)" />
<use xlink:href="#f0_25" transform="matrix(12,0,0,12,376,720.5)" />
<use xlink:href="#f0_1m" transform="matrix(12,0,0,12,385.1,720.5)" />
<use xlink:href="#f0_1w" transform="matrix(12,0,0,12,394.3,720.5)" />
<use xlink:href="#f0_1t" transform="matrix(12,0,0,12,399.4,720.5)" />
<use xlink:href="#f0_23" transform="matrix(12,0,0,12,404.5,720.5)" />
<use xlink:href="#f0_1s" transform="matrix(12,0,0,12,411.6,720.5)" />
<use xlink:href="#f0_1p" transform="matrix(12,0,0,12,420.8,720.5)" />
<use xlink:href="#f0_1o" transform="matrix(12,0,0,12,428.9,720.5)" />
<use xlink:href="#f0_19" transform="matrix(12,0,0,12,442.7,720.5)" />
<use xlink:href="#f0_1n" transform="matrix(12,0,0,12,455.9,720.5)" />
<use xlink:href="#f0_24" transform="matrix(12,0,0,12,464.1,720.5)" />
<use xlink:href="#f0_1z" transform="matrix(12,0,0,12,469.1,720.5)" />
<use xlink:href="#f0_1m" transform="matrix(12,0,0,12,478.3,720.5)" />
<use xlink:href="#f0_1p" transform="matrix(12,0,0,12,487.5,720.5)" />
<use xlink:href="#f0_22" transform="matrix(12,0,0,12,495.6,720.5)" />
<use xlink:href="#f0_j" transform="matrix(12,0,0,12,506.3,720.5)" />
<use xlink:href="#f0_h" transform="matrix(12,0,0,12,515.5,720.5)" />
<use xlink:href="#f0_i" transform="matrix(12,0,0,12,524.6,720.5)" />
<use xlink:href="#f0_o" transform="matrix(12,0,0,12,533.8,720.5)" />
<use xlink:href="#f0_1c" transform="matrix(12,0,0,12,410.3,752.4)" />
<use xlink:href="#f0_1p" transform="matrix(12,0,0,12,422.6,752.4)" />
<use xlink:href="#f0_26" transform="matrix(12,0,0,12,430.7,752.4)" />
<use xlink:href="#f0_1t" transform="matrix(12,0,0,12,439.9,752.4)" />
<use xlink:href="#f0_23" transform="matrix(12,0,0,12,444.9,752.4)" />
<use xlink:href="#f0_1t" transform="matrix(12,0,0,12,452.1,752.4)" />
<use xlink:href="#f0_1z" transform="matrix(12,0,0,12,457.2,752.4)" />
<use xlink:href="#f0_1y" transform="matrix(12,0,0,12,466.3,752.4)" />
<use xlink:href="#f0_5" transform="matrix(12,0,0,12,480.1,752.4)" />
<use xlink:href="#f0_i" transform="matrix(12,0,0,12,489.3,752.4)" />
<use xlink:href="#f0_v" transform="matrix(12,0,0,12,408.3,783.9)" />
<use xlink:href="#f0_25" transform="matrix(12,0,0,12,421.5,783.9)" />
<use xlink:href="#f0_24" transform="matrix(12,0,0,12,430.7,783.9)" />
<use xlink:href="#f0_1s" transform="matrix(12,0,0,12,435.8,783.9)" />
<use xlink:href="#f0_1z" transform="matrix(12,0,0,12,445,783.9)" />
<use xlink:href="#f0_22" transform="matrix(12,0,0,12,454.1,783.9)" />
<use xlink:href="#f0_1p" transform="matrix(12,0,0,12,460.2,783.9)" />
<use xlink:href="#f0_1o" transform="matrix(12,0,0,12,468.4,783.9)" />
<use xlink:href="#f0_1m" transform="matrix(12,0,0,12,482.1,783.9)" />
<use xlink:href="#f0_29" transform="matrix(12,0,0,12,491.3,783.9)" />
<use xlink:href="#f0_x" transform="matrix(12,0,0,12,352.3,815.5)" />
<use xlink:href="#f0_1l" transform="matrix(12,0,0,12,364.5,815.5)" />
<use xlink:href="#f0_22" transform="matrix(12,0,0,12,372.7,815.5)" />
<use xlink:href="#f0_1z" transform="matrix(12,0,0,12,378.8,815.5)" />
<use xlink:href="#f0_1w" transform="matrix(12,0,0,12,387.9,815.5)" />
<use xlink:href="#f0_1t" transform="matrix(12,0,0,12,393,815.5)" />
<use xlink:href="#f0_1y" transform="matrix(12,0,0,12,398.1,815.5)" />
<use xlink:href="#f0_1l" transform="matrix(12,0,0,12,407.3,815.5)" />
<use xlink:href="#f0_y" transform="matrix(12,0,0,12,420,815.5)" />
<use xlink:href="#f0_1p" transform="matrix(12,0,0,12,433.2,815.5)" />
<use xlink:href="#f0_1w" transform="matrix(12,0,0,12,441.4,815.5)" />
<use xlink:href="#f0_1g" transform="matrix(12,0,0,12,451.1,815.5)" />
<use xlink:href="#f0_1l" transform="matrix(12,0,0,12,464.3,815.5)" />
<use xlink:href="#f0_1w" transform="matrix(12,0,0,12,472.4,815.5)" />
<use xlink:href="#f0_1w" transform="matrix(12,0,0,12,477.5,815.5)" />
<use xlink:href="#f0_1p" transform="matrix(12,0,0,12,482.6,815.5)" />
<use xlink:href="#f0_10" transform="matrix(12,0,0,12,495.3,815.5)" />
<use xlink:href="#f0_1z" transform="matrix(12,0,0,12,505.5,815.5)" />
<use xlink:href="#f0_1r" transform="matrix(12,0,0,12,514.7,815.5)" />
<use xlink:href="#f0_1w" transform="matrix(12,0,0,12,523.9,815.5)" />
<use xlink:href="#f0_1t" transform="matrix(12,0,0,12,529,815.5)" />
<use xlink:href="#f0_1l" transform="matrix(12,0,0,12,534.1,815.5)" />
<use xlink:href="#f0_24" transform="matrix(12,0,0,12,542.2,815.5)" />
<use xlink:href="#f0_1z" transform="matrix(12,0,0,12,547.3,815.5)" />
<use xlink:href="#f0_x" transform="matrix(12,0,0,12,371.4,847)" />
<use xlink:href="#f0_1l" transform="matrix(12,0,0,12,383.6,847)" />
<use xlink:href="#f0_22" transform="matrix(12,0,0,12,391.7,847)" />
<use xlink:href="#f0_1w" transform="matrix(12,0,0,12,397.9,847)" />
<use xlink:href="#f0_1z" transform="matrix(12,0,0,12,402.9,847)" />
<use xlink:href="#f0_23" transform="matrix(12,0,0,12,412.1,847)" />
<use xlink:href="#f0_17" transform="matrix(12,0,0,12,423.8,847)" />
<use xlink:href="#f0_1l" transform="matrix(12,0,0,12,440.1,847)" />
<use xlink:href="#f0_24" transform="matrix(12,0,0,12,448.3,847)" />
<use xlink:href="#f0_1t" transform="matrix(12,0,0,12,453.4,847)" />
<use xlink:href="#f0_1l" transform="matrix(12,0,0,12,458.5,847)" />
<use xlink:href="#f0_23" transform="matrix(12,0,0,12,466.6,847)" />
<use xlink:href="#f0_w" transform="matrix(12,0,0,12,478.3,847)" />
<use xlink:href="#f0_1l" transform="matrix(12,0,0,12,490.5,847)" />
<use xlink:href="#f0_1r" transform="matrix(12,0,0,12,498.7,847)" />
<use xlink:href="#f0_1w" transform="matrix(12,0,0,12,507.8,847)" />
<use xlink:href="#f0_1t" transform="matrix(12,0,0,12,512.9,847)" />
<use xlink:href="#f0_1p" transform="matrix(12,0,0,12,518,847)" />
<use xlink:href="#f0_22" transform="matrix(12,0,0,12,526.2,847)" />
<use xlink:href="#f0_1t" transform="matrix(12,0,0,12,532.3,847)" />
<use xlink:href="#f0_12" transform="matrix(12,0,0,12,407.8,878.9)" />
<use xlink:href="#f0_1l" transform="matrix(12,0,0,12,421,878.9)" />
<use xlink:href="#f0_1y" transform="matrix(12,0,0,12,429.2,878.9)" />
<use xlink:href="#f0_1l" transform="matrix(12,0,0,12,438.3,878.9)" />
<use xlink:href="#f0_1p" transform="matrix(12,0,0,12,446.5,878.9)" />
<use xlink:href="#f0_x" transform="matrix(12,0,0,12,459.2,878.9)" />
<use xlink:href="#f0_1z" transform="matrix(12,0,0,12,471.4,878.9)" />
<use xlink:href="#f0_22" transform="matrix(12,0,0,12,480.6,878.9)" />
<use xlink:href="#f0_1t" transform="matrix(12,0,0,12,486.7,878.9)" />
<use xlink:href="#f0_1z" transform="matrix(12,0,0,12,491.8,878.9)" />
<use xlink:href="#f0_x" transform="matrix(12,0,0,12,379.8,1100)" />
<use xlink:href="#f0_1z" transform="matrix(12,0,0,12,392,1100)" />
<use xlink:href="#f0_1y" transform="matrix(12,0,0,12,401.2,1100)" />
<use xlink:href="#f0_24" transform="matrix(12,0,0,12,410.4,1100)" />
<use xlink:href="#f0_1l" transform="matrix(12,0,0,12,415.4,1100)" />
<use xlink:href="#f0_1n" transform="matrix(12,0,0,12,423.6,1100)" />
<use xlink:href="#f0_24" transform="matrix(12,0,0,12,431.7,1100)" />
<use xlink:href="#f0_13" transform="matrix(12,0,0,12,441.4,1100)" />
<use xlink:href="#f0_1y" transform="matrix(12,0,0,12,447.5,1100)" />
<use xlink:href="#f0_1q" transform="matrix(12,0,0,12,456.7,1100)" />
<use xlink:href="#f0_1z" transform="matrix(12,0,0,12,462.8,1100)" />
<use xlink:href="#f0_22" transform="matrix(12,0,0,12,471.9,1100)" />
<use xlink:href="#f0_1x" transform="matrix(12,0,0,12,478,1100)" />
<use xlink:href="#f0_1l" transform="matrix(12,0,0,12,492.3,1100)" />
<use xlink:href="#f0_24" transform="matrix(12,0,0,12,500.4,1100)" />
<use xlink:href="#f0_1t" transform="matrix(12,0,0,12,505.5,1100)" />
<use xlink:href="#f0_1z" transform="matrix(12,0,0,12,510.6,1100)" />
<use xlink:href="#f0_1y" transform="matrix(12,0,0,12,519.8,1100)" />
<use xlink:href="#f0_x" transform="matrix(12,0,0,12,352.3,1131.9)" />
<use xlink:href="#f0_1l" transform="matrix(12,0,0,12,364.5,1131.9)" />
<use xlink:href="#f0_22" transform="matrix(12,0,0,12,372.7,1131.9)" />
<use xlink:href="#f0_1z" transform="matrix(12,0,0,12,378.8,1131.9)" />
<use xlink:href="#f0_1w" transform="matrix(12,0,0,12,387.9,1131.9)" />
<use xlink:href="#f0_1t" transform="matrix(12,0,0,12,393,1131.9)" />
<use xlink:href="#f0_1y" transform="matrix(12,0,0,12,398.1,1131.9)" />
<use xlink:href="#f0_1l" transform="matrix(12,0,0,12,407.3,1131.9)" />
<use xlink:href="#f0_y" transform="matrix(12,0,0,12,420,1131.9)" />
<use xlink:href="#f0_1p" transform="matrix(12,0,0,12,433.2,1131.9)" />
<use xlink:href="#f0_1w" transform="matrix(12,0,0,12,441.4,1131.9)" />
<use xlink:href="#f0_1g" transform="matrix(12,0,0,12,451.1,1131.9)" />
<use xlink:href="#f0_1l" transform="matrix(12,0,0,12,464.3,1131.9)" />
<use xlink:href="#f0_1w" transform="matrix(12,0,0,12,472.4,1131.9)" />
<use xlink:href="#f0_1w" transform="matrix(12,0,0,12,477.5,1131.9)" />
<use xlink:href="#f0_1p" transform="matrix(12,0,0,12,482.6,1131.9)" />
<use xlink:href="#f0_10" transform="matrix(12,0,0,12,495.3,1131.9)" />
<use xlink:href="#f0_1z" transform="matrix(12,0,0,12,505.5,1131.9)" />
<use xlink:href="#f0_1r" transform="matrix(12,0,0,12,514.7,1131.9)" />
<use xlink:href="#f0_1w" transform="matrix(12,0,0,12,523.9,1131.9)" />
<use xlink:href="#f0_1t" transform="matrix(12,0,0,12,529,1131.9)" />
<use xlink:href="#f0_1l" transform="matrix(12,0,0,12,534.1,1131.9)" />
<use xlink:href="#f0_24" transform="matrix(12,0,0,12,542.2,1131.9)" />
<use xlink:href="#f0_1z" transform="matrix(12,0,0,12,547.3,1131.9)" />
</g>
<g fill="#0563C1" >
<use xlink:href="#f0_1n" transform="matrix(12,0,0,12,399.9,1163.4)" />
<use xlink:href="#f0_1l" transform="matrix(12,0,0,12,408,1163.4)" />
<use xlink:href="#f0_22" transform="matrix(12,0,0,12,416.1,1163.4)" />
<use xlink:href="#f0_1z" transform="matrix(12,0,0,12,422.2,1163.4)" />
<use xlink:href="#f0_u" transform="matrix(12,0,0,12,431.4,1163.4)" />
<use xlink:href="#f0_1s" transform="matrix(12,0,0,12,448.3,1163.4)" />
<use xlink:href="#f0_1l" transform="matrix(12,0,0,12,457.5,1163.4)" />
<use xlink:href="#f0_1y" transform="matrix(12,0,0,12,465.6,1163.4)" />
<use xlink:href="#f0_1o" transform="matrix(12,0,0,12,474.8,1163.4)" />
<use xlink:href="#f0_23" transform="matrix(12,0,0,12,483.9,1163.4)" />
<use xlink:href="#f0_f" transform="matrix(12,0,0,12,491.1,1163.4)" />
<use xlink:href="#f0_1l" transform="matrix(12,0,0,12,495.7,1163.4)" />
<use xlink:href="#f0_1t" transform="matrix(12,0,0,12,503.8,1163.4)" />
</g>
</g>
<path d="M400,1166.7l108.9,0l0,-0.7L400,1166l0,0.7Z" class="g1_1" />
<defs>
	<path d="M26.4,0l0,27.4l35.8,0c0,0,62.7,0,91,36.5c0,0,17.9,23.9,17.9,115l0,654.2c0,0,0,77.2,-9.7,101.8c0,0,-7.4,18.5,-30.6,31.9c0,0,-32.8,17.8,-68.6,17.8l-35.8,0l0,27.4l432.2,0l0,-27.4l-36.4,0c0,0,-35.6,0,-67.5,-17.1c0,0,-23,-11.8,-31.9,-36c0,0,-8.9,-24.1,-8.9,-98.4l0,-291.4l469.7,0l0,291.4c0,0,0,77.2,-9.7,101.8c0,0,-7.5,18.5,-31.3,31.9c0,0,-32.1,17.8,-67.9,17.8l-35.8,0l0,27.4l432.2,0l0,-27.4l-35.8,0c0,0,-35.8,0,-67.9,-17.1c0,0,-23.9,-11.8,-32.5,-36c0,0,-8.5,-24.1,-8.5,-98.4l0,-654.2c0,0,0,-76.9,9.6,-101.5c0,0,7.5,-18.7,30.6,-32.1c0,0,32.9,-17.9,68.7,-17.9l35.8,0l0,-27.4L638.9,0l0,27.4l35.8,0c0,0,61.9,0,90.3,36.5c0,0,18.6,23.9,18.6,115l0,308l-469.7,0l0,-308c0,0,0,-76.9,9.6,-101.5c0,0,7.4,-18.7,31.2,-32.1c0,0,31.9,-17.9,67.5,-17.9l36.4,0L458.6,0Z" 
	id="f0_12"
	transform="scale(0.001,-0.001)" />

	<path d="M285.9,72.4c0,0,56.7,0,149.2,74.5l0,259.9c0,0,-112.7,-44.7,-145.5,-63.3c0,0,-59,-32.8,-84.3,-68.5c0,0,-25.4,-35.8,-25.4,-78.3c0,0,0,-53.6,32.1,-88.9c0,0,32.1,-35.4,73.9,-35.4Zm-68.6,-86c0,0,-70.8,0,-116.7,48.3c0,0,-45.8,48.5,-45.8,127.4c0,0,0,50,22.3,86.5c0,0,30.6,50.6,106.3,95.3c0,0,75.7,44.7,251.7,108.8l0,26.7c0,0,0,101.9,-32.2,139.8c0,0,-32.3,37.9,-93.8,37.9c0,0,-46.7,0,-74.1,-25.3c0,0,-28.2,-25.2,-28.2,-57.9l1.5,-43c0,0,0,-34.2,-17.7,-52.8c0,0,-17.7,-18.5,-46.3,-18.5c0,0,-27.8,0,-45.5,19.3c0,0,-17.6,19.4,-17.6,52.9c0,0,0,64,65.6,117.6c0,0,65.6,53.6,184.1,53.6c0,0,91,0,149.1,-30.5c0,0,44,-23.1,64.9,-72.3c0,0,13.4,-32,13.4,-131l0,-231.6c0,0,0,-97.6,3.7,-119.6c0,0,3.8,-21.9,12.4,-29.4c0,0,8.6,-7.4,19.8,-7.4c0,0,11.9,0,20.9,5.2c0,0,15.7,9.7,60.5,54.4l0,-41.7c0,0,-83.6,-111.7,-159.8,-111.7c0,0,-36.6,0,-58.3,25.1c0,0,-21.6,25.2,-22.4,85.9c0,0,-105.1,-80.9,-132,-93.5c0,0,-40.3,-18.5,-85.8,-18.5Z" 
	id="f0_1l"
	transform="scale(0.001,-0.001)" />

	<path d="M20.5,0l0,26.4l15,0c0,0,52.1,0,70.4,26.6c0,0,18.3,26.6,18.3,101.5l0,253.3c0,0,0,123.6,-5.6,150.5c0,0,-5.6,27,-17.1,36.7c0,0,-11.5,9.7,-30.8,9.7c0,0,-20.8,0,-49.8,-11.2L9.8,619.9L216.2,703l32.2,0l0,-144.8c0,0,119.7,144.8,228.4,144.8c0,0,55.8,0,96,-27.9c0,0,40.2,-28,64,-92.1c0,0,16.4,-44.7,16.4,-137.1l0,-291.4c0,0,0,-65.2,10.4,-88.4c0,0,8.2,-18.7,26.5,-29.2c0,0,18.3,-10.5,67.7,-10.5L757.8,0L418.5,0l0,26.4l14.2,0c0,0,47.8,0,66.8,14.6c0,0,19,14.6,26.5,43.1c0,0,3,11.2,3,70.4l0,279.3c0,0,0,93.1,-24.1,135.2c0,0,-24,42.1,-81.1,42.1c0,0,-88.1,0,-175.4,-96.9l0,-359.7c0,0,0,-69.7,8.2,-86.2c0,0,10.5,-21.7,28.8,-31.8c0,0,18.3,-10.1,74.4,-10.1L359.8,0Z" 
	id="f0_1y"
	transform="scale(0.001,-0.001)" />

	<path d="M399,61.6c0,0,67.7,0,131,68.3l0,351c0,0,-4.5,51.1,-26.8,92.9c0,0,-22.3,41.8,-59.2,63c0,0,-36.8,21.3,-71.8,21.3c0,0,-65.4,0,-116.8,-58.9c0,0,-67.7,-77.6,-67.7,-226.7c0,0,0,-150.6,65.5,-230.7c0,0,65.5,-80.2,145.8,-80.2Zm-69.5,-82c0,0,-111.7,0,-195.2,93.4c0,0,-83.5,93.6,-83.5,240.4c0,0,0,146.8,92.4,268.7c0,0,92.4,121.9,237.7,121.9c0,0,90.2,0,149.1,-57.6l0,127.1c0,0,0,116.8,-5.6,143.6c0,0,-5.7,26.9,-17.6,36.5c0,0,-12,9.7,-29.9,9.7c0,0,-19.5,0,-51.6,-11.9l-9.7,26.4l203.9,83.1l33.7,0l0,-791c0,0,0,-119.9,5.6,-146.3c0,0,5.6,-26.4,17.9,-36.9c0,0,12.3,-10.4,28.8,-10.4c0,0,20.2,0,53.8,12.7l8.3,-26.4l-203.3,-83l-34.3,0l0,98.1C530,77.7,480,25,432.3,2.2c0,0,-47.7,-22.6,-102.8,-22.6Z" 
	id="f0_1o"
	transform="scale(0.001,-0.001)" />

	<path d="M312.2,-20.4c0,0,-62.7,0,-143.3,22.6c0,0,-24.6,7.6,-40.3,7.6c0,0,-17.2,0,-26.9,-19.5l-24.5,0l0,243.4l24.5,0c0,0,20.9,-104.4,79.9,-157.3c0,0,59,-52.9,132.1,-52.9c0,0,51.6,0,84.1,30.1c0,0,32.4,30.2,32.4,72.6c0,0,0,51.4,-36.2,86.4c0,0,-36.1,35.1,-144.4,88.6c0,0,-108.2,53.6,-141.8,96.8c0,0,-33.5,42.5,-33.5,107.4c0,0,0,84.3,57.8,140.9c0,0,57.8,56.7,149.6,56.7c0,0,40.3,0,97.7,-17.1c0,0,38.1,-11.2,50.7,-11.2c0,0,12,0,18.7,5.2c0,0,6.7,5.2,15.7,23.1l24.4,0l0,-232.7l-24.4,0c0,0,-28.4,109.7,-72.8,149.2c0,0,-44.4,39.5,-113,39.5c0,0,-52.2,0,-84.3,-27.5c0,0,-32.1,-27.6,-32.1,-61.1c0,0,0,-41.8,23.9,-71.6c0,0,23.2,-30.5,94.1,-64.8L389.2,381.1c0,0,151.5,-73.8,151.5,-194.5c0,0,0,-93.1,-70.5,-150.1c0,0,-70.6,-56.9,-158,-56.9Z" 
	id="f0_23"
	transform="scale(0.001,-0.001)" />

	<path d="M25.4,0l0,27.4l35.7,0c0,0,63.9,0,90.7,38.7c0,0,16.4,23.9,16.4,108.9l0,662c0,0,0,67.1,-14.9,96.9c0,0,-10.4,21.6,-38.3,36.2c0,0,-27.9,14.5,-89.6,14.5l0,27.4l286.2,0L678.5,220.2L1041.3,1012l284.9,0l0,-27.4l-35,0c0,0,-64.7,0,-91.4,-38.7c0,0,-16.4,-23.9,-16.4,-108.9l0,-662c0,0,0,-93.2,20.9,-116.3c0,0,27.5,-31.3,86.9,-31.3l35,0l0,-27.4L898,0l0,27.4l35.6,0c0,0,64.7,0,90.7,38.7c0,0,16.4,23.9,16.4,108.9l0,676.5L649.2,0L624.8,0L233.7,851.5l0,-676.5c0,0,0,-93.2,20,-116.3c0,0,27.6,-31.3,87,-31.3l35.7,0L376.4,0Z" 
	id="f0_17"
	transform="scale(0.001,-0.001)" />

	<path d="M545.5,30.3c0,0,142.4,0,235.2,111.1c0,0,92.9,111,92.9,350.2c0,0,0,259.4,-102.2,386.8c0,0,-82,101.3,-226.6,101.3c0,0,-135.8,0,-217.8,-100.6c0,0,-102.1,-125.2,-102.1,-366.6c0,0,0,-247.4,105.9,-380.8c0,0,81.2,-101.4,214.7,-101.4ZM547,-22.4c0,0,-208.9,0,-351.1,148.2c0,0,-142.1,148.4,-142.1,383.9c0,0,0,240.8,164.1,392.8c0,0,142.5,132,341,132c0,0,197,0,341.4,-149.5c0,0,144.4,-149.4,144.4,-373c0,0,0,-230.4,-145.5,-382.4c0,0,-145.5,-152,-352.2,-152Z" 
	id="f0_19"
	transform="scale(0.001,-0.001)" />

	<path d="M911.4,-16.5l-667,815.4l0,-623.9c0,0,0,-93.2,20.1,-116.3c0,0,28.3,-31.3,87,-31.3l35.7,0L387.2,0L36.2,0l0,27.4l34.9,0c0,0,64.7,0,91.5,38.7c0,0,16.3,23.9,16.3,108.9l0,704c0,0,-44,51.7,-66.7,68.2c0,0,-22.8,16.5,-66.8,30.7c0,0,-21.6,6.7,-65.5,6.7l0,27.4l273.1,0L872.6,253.1l0,583.9c0,0,0,93.2,-20.8,116.3c0,0,-27.5,31.3,-87,31.3l-34.9,0l0,27.4l350.9,0l0,-27.4l-35.7,0c0,0,-63.9,0,-90.7,-38.7c0,0,-16.3,-23.9,-16.3,-108.9l0,-853.5Z" 
	id="f0_18"
	transform="scale(0.001,-0.001)" />

	<path d="M31.3,0l0,27.4l35.8,0c0,0,35.8,0,67.9,17.2c0,0,23.8,12,32.4,36c0,0,8.6,24.1,8.6,98.3L176,836c0,0,0,96.3,-19.4,118.8c0,0,-26.8,29.8,-89.5,29.8l-35.8,0l0,27.4l779.8,0L821.8,790.1l-29.3,0c0,0,-15.7,80.2,-34.7,110.2c0,0,-19,30,-56.4,45.7c0,0,-29.8,11.3,-105.1,11.3l-277.5,0l0,-400l222.4,0c0,0,86.8,0,116,26.1c0,0,38.9,34.2,43.4,120.6l27.4,0l0,-352l-27.4,0c0,0,-10.5,73.8,-21,94.7c0,0,-13.4,26.1,-44.1,41c0,0,-30.7,14.9,-94.3,14.9l-222.4,0l0,-334.2c0,0,0,-67.3,5.9,-81.9c0,0,6,-14.6,20.9,-23.1c0,0,14.9,-8.6,56.7,-8.6l171.6,0c0,0,85.7,0,124.5,11.9c0,0,38.8,11.9,74.6,47c0,0,46.3,46.3,94.7,139.5l30.3,0L810.7,0Z" 
	id="f0_z"
	transform="scale(0.001,-0.001)" />

	<path d="M253.3,0l0,27.4l35.6,0c0,0,64,0,90.7,38.7c0,0,16.4,23.9,16.4,108.9l0,773.5l-121.7,0c0,0,-70.9,0,-100.7,-10.5c0,0,-38.8,-14.2,-66.4,-54.4c0,0,-27.6,-40.3,-32.9,-109l-28.3,0L57.7,1012l825.2,0L893.7,774.6l-28.4,0c0,0,-8.2,62.7,-22.3,89.6c0,0,-23,43.2,-61.4,63.7c0,0,-38.3,20.6,-100.8,20.6l-142,0l0,-773.5c0,0,0,-93.2,20.1,-116.3c0,0,28.4,-31.3,87.5,-31.3l35.1,0L681.5,0Z" 
	id="f0_1e"
	transform="scale(0.001,-0.001)" />

	<path d="M38.1,0l0,27.4l35.8,0c0,0,62.7,0,91,36.5c0,0,17.9,23.9,17.9,115l0,654.2c0,0,0,76.9,-9.7,101.5c0,0,-7.4,18.7,-30.5,32.1c0,0,-32.8,17.9,-68.7,17.9l-35.8,0l0,27.4l432.2,0l0,-27.4l-36.3,0c0,0,-61.6,0,-89.9,-36.5c0,0,-18.5,-23.9,-18.5,-115l0,-654.2c0,0,0,-76.9,9.6,-101.5c0,0,7.5,-18.7,31.2,-32.1c0,0,31.9,-17.9,67.6,-17.9l36.3,0L470.3,0Z" 
	id="f0_13"
	transform="scale(0.001,-0.001)" />

	<path d="M19.6,0l0.1,27.6L668.6,951.4l-324,0c0,0,-80.6,0,-116.8,-17.5c0,0,-36.2,-17.6,-55.2,-50.8c0,0,-19.1,-33.2,-34.7,-124.2l-28.4,0L130,1012l749.8,0L214.7,61.6l414.5,0c0,0,95.4,0,146.6,41.8c0,0,51.2,41.7,90.8,169.3l24.6,-4.5L843.4,0Z" 
	id="f0_1k"
	transform="scale(0.001,-0.001)" />

	<path d="M613,-22.4c0,0,-293,0,-445.1,187.8c0,0,-114.1,140.8,-114.1,324.9c0,0,0,133.5,64.1,255.7c0,0,76,145.4,208.6,223.6c0,0,111.1,64.9,262.4,64.9c0,0,55.2,0,100.2,-9c0,0,45.1,-9,127.9,-39.8c0,0,41.7,-15.7,55.9,-15.7c0,0,14.1,0,24.2,13.1c0,0,10,13.1,12.3,51.4l27.3,0L963.1,714.8l-26.4,0c0,0,-39.5,119.3,-102.1,179.7c0,0,-90.2,87.2,-231.8,87.2c0,0,-193.1,0,-293.7,-152.7c0,0,-84.2,-128.8,-84.2,-306.8c0,0,0,-144.5,55.9,-263.7c0,0,56,-119.2,146.6,-174.6c0,0,90.6,-55.5,186.1,-55.5c0,0,55.9,0,108.1,14.1c0,0,52.2,14.2,100.7,41.8l0,292.2c0,0,0,76.5,-11.6,100.2c0,0,-11.5,23.6,-35.8,36c0,0,-24.3,12.4,-85.6,12.4l0,27.3l392.1,0l0,-27.3l-18.6,0c0,0,-58.3,0,-79.9,-39.1c0,0,-14.9,-27.7,-14.9,-109.5L968,67C968,67,882.2,20.7,798.7,-0.8c0,0,-83.5,-21.6,-185.7,-21.6Z" 
	id="f0_11"
	transform="scale(0.001,-0.001)" />

	<path d="M488.2,55.7c0,0,59.8,0,110.2,26.5c0,0,50.4,26.4,77.4,76.7c0,0,26.9,50.3,26.9,112.2c0,0,0,70.7,-32.6,127c0,0,-32.5,56.3,-90.3,78.8L407.2,498.7L406.8,173.8l0,-37.1c0,0,0,-40.1,20.6,-60.5c0,0,20.5,-20.5,60.8,-20.5ZM407.3,557.3c0,0,106.5,0,157.2,23.9c0,0,50.6,24,77.6,67.3c0,0,26.9,43.3,26.9,110.5c0,0,0,67.3,-26.6,110.2c0,0,-26.5,43,-75.9,65.4c0,0,-47.8,21.7,-153.4,21.7c-1.7,0,-3.5,0,-5.3,0l-0.5,-399ZM32.3,0l0,27.4c0,0,69.9,0,94.8,13.1c0,0,25,13.1,35,34.1c0,0,10,20.9,10,103.4l0,656.1c0,0,0,82.4,-10,103.7c0,0,-10,21.4,-35.3,34.1c0,0,-25.3,12.7,-94.5,12.7l0,27.4l484.9,0c0,0,173.8,0,246.2,-31c0,0,72.4,-30.9,114.1,-92.4c0,0,41.8,-61.5,41.8,-130.9c0,0,0,-73.1,-52.9,-130.1c0,0,-53,-57.1,-186.4,-90.6c0,0,143.7,-33.6,201.8,-81.4c0,0,83.5,-68,83.5,-176.3c0,0,0,-114.3,-91.8,-188.9C873.5,90.4,760.9,0,546.1,0Z" 
	id="f1_n"
	transform="scale(0.001,-0.001)" />

	<path d="M304.3,-20.4c0,0,-59,0,-104.8,36c0,0,-45.9,36.1,-61.6,84.5c0,0,-15.7,48.5,-15.7,169.1l0,276.4c0,0,0,79.3,-14.5,98.7c0,0,-14.6,19.5,-60.8,25.5l0,27.4l284.6,0l0,-476c0,0,0,-74.5,7,-96.1c0,0,7.1,-21.6,22.4,-32.8c0,0,15.3,-11.1,35.4,-11.1c0,0,26.8,0,48.4,14.1c0,0,29.8,19.4,71.6,78.2l0,372.1c0,0,0,79.3,-14.6,98.7c0,0,-14.5,19.5,-60.7,25.5l0,27.4l284.5,0l0,-545.6c0,0,0,-80.2,14.9,-100.1c0,0,14.9,-19.9,60.4,-25.1L800.8,0L516.3,0l0,93.3c0,0,-50,-59.7,-100,-86.8c0,0,-50,-26.9,-112,-26.9Z" 
	id="f1_1s"
	transform="scale(0.001,-0.001)" />

	<path d="M311.6,-20.4c0,0,-49.9,0,-133.4,30.9c0,0,-22.4,8.1,-30.6,8.1c0,0,-24.6,0,-41,-37.1l-24.5,0L70.4,231.7l26.4,0c0,0,33.4,-98.2,91.6,-147.4c0,0,58.2,-49.1,110.2,-49.1c0,0,35.6,0,58.2,22c0,0,22.7,22,22.7,53.4c0,0,0,35.8,-22.4,61.9c0,0,-22.3,26.1,-99.8,79.1c0,0,-114,79.1,-147.5,120.9c0,0,-49.2,61.1,-49.2,135c0,0,0,80.6,55.5,145.9c0,0,55.5,65.3,160.5,65.3c0,0,56.6,0,109.5,-27.9c0,0,20.1,-11.2,32.8,-11.2c0,0,13.4,0,21.5,5.5c0,0,8.2,5.6,26.1,31.6l26.4,0L503.6,479.1l-26.3,0c0,0,-45.3,106.1,-93.9,145c0,0,-48.6,38.8,-96.8,38.8c0,0,-30.4,0,-51.9,-20.5c0,0,-21.5,-20.5,-21.5,-47.4c0,0,0,-20.1,14.8,-38.8c0,0,23.8,-30.6,133.2,-104.8c0,0,109.4,-74.2,144,-126.1c0,0,34.6,-51.9,34.6,-116c0,0,0,-58.2,-29.1,-114.2c0,0,-29.1,-56,-82,-85.8c0,0,-53,-29.7,-117.1,-29.7Z" 
	id="f1_1q"
	transform="scale(0.001,-0.001)" />

	<path d="M32.3,0l0,26.4c0,0,46,1.5,68.2,27c0,0,14.9,17.2,14.9,91.3l0,406.8c0,0,0,74.1,-17.1,94.7c0,0,-17.1,20.6,-66,23.6l0,27.4l292.3,0l0,-552.5c0,0,0,-74.1,17.3,-94.7c0,0,17.4,-20.6,67.8,-23.6L409.7,0ZM219.6,803.7c0,0,-47.8,0,-81.4,33.6c0,0,-33.6,33.6,-33.6,81.4c0,0,0,47.8,33.6,81.8c0,0,33.6,34,81.4,34c0,0,48.6,0,82.2,-34c0,0,33.6,-34,33.6,-81.8c0,0,0,-47.8,-34,-81.4c0,0,-34,-33.6,-81.8,-33.6Z" 
	id="f1_1h"
	transform="scale(0.001,-0.001)" />

	<path d="M51.8,0l0,26.4c0,0,44,4.5,62.6,28.3c0,0,12.7,16.4,12.7,96.9l0,394c0,0,0,79.3,-14.5,98.7c0,0,-14.6,19.5,-60.8,25.5l0,27.4l284.6,0l0,-90c0,0,53.8,58.4,103.1,84.9c0,0,49.4,26.6,106.2,26.6c0,0,68.1,0,112.9,-37.8c0,0,44.9,-37.7,59.8,-93.7c0,0,12,-42.6,12,-163.7l0,-271.9c0,0,0,-80.5,14.5,-100.2c0,0,14.6,-19.8,60.8,-25L805.7,0l-354,0l0,26.4c0,0,40,5.2,57.4,32.8c0,0,12.1,18.6,12.1,92.4l0,310.9c0,0,0,86,-6.8,108.4c0,0,-6.7,22.4,-22.8,34.7c0,0,-16.1,12.4,-35.5,12.4c0,0,-64.4,0,-119.7,-91.9l0,-374.5c0,0,0,-78.3,14.7,-99.1c0,0,14.7,-20.9,54.7,-26.1L405.8,0Z" 
	id="f1_1m"
	transform="scale(0.001,-0.001)" />

	<path d="M458.1,424.4c0,0,0,119.7,-13,164.3c0,0,-13,44.6,-40.4,67.7c0,0,-15.6,13.4,-41.6,13.4c0,0,-38.6,0,-63.1,-38c0,0,-43.8,-66.1,-43.8,-181.4l0,-26ZM357.8,-20.4c0,0,-155.2,0,-235,119.2c0,0,-64.1,96.2,-64.1,238.7c0,0,0,174.6,94.3,277.9c0,0,94.4,103.3,221.2,103.3c0,0,105.9,0,183.8,-86.8c0,0,78,-86.8,83.9,-257.4l-382.8,0c0,0,6.7,-138.9,73.9,-219.6c0,0,51.5,-62,123.9,-62c0,0,44.7,0,81.3,25.1c0,0,36.6,25.1,78.4,90.3l25.3,-16.6c0,0,-56.7,-115.8,-125.3,-164c0,0,-68.6,-48.1,-158.8,-48.1Z" 
	id="f1_1d"
	transform="scale(0.001,-0.001)" />

	<path d="M449.9,514.8c0,0,91.3,0,140.6,54c0,0,49.4,54.1,49.4,167.5c0,0,0,112.6,-49.3,164.8c0,0,-49.4,52.2,-147.4,52.2l-30.7,0l0,-437c0,0,24.7,-1.5,37.4,-1.5ZM39.1,0l0,27.4c0,0,69.8,0,94.7,13.1c0,0,25,13.1,35,34.1c0,0,10.1,20.9,10.1,103.4l0,656.1c0,0,0,82.4,-10.1,103.7c0,0,-10,21.4,-35.3,34.1c0,0,-25.3,12.7,-94.4,12.7l0,27.4l440.8,0c0,0,217.9,0,312.6,-77.7c0,0,94.8,-77.7,94.8,-194.3c0,0,0,-98.6,-61.2,-168.8c0,0,-61.2,-70.2,-168.7,-95.7c0,0,-72.4,-17.9,-244.9,-17.9l0,-279.6c0,0,0,-82.5,10.1,-103.8c0,0,10,-21.4,35.7,-34.1c0,0,25.6,-12.7,94.1,-12.7L552.4,0Z" 
	id="f1_10"
	transform="scale(0.001,-0.001)" />

	<path d="M32.3,0l0,26.4c0,0,46,1.5,68.2,27c0,0,14.9,17.2,14.9,91.3l0,722.6c0,0,0,73.2,-17.1,93.8c0,0,-17.1,20.5,-66,23.5l0,27.4l292.3,0l0,-867.3c0,0,0,-74.1,17.3,-94.7c0,0,17.3,-20.6,67.8,-23.6L409.7,0Z" 
	id="f1_1k"
	transform="scale(0.001,-0.001)" />

	<path d="M349.7,115.4c0,0,37.4,0,86.6,42l0,233.9c0,0,-90.3,-53.1,-134.4,-113.7c0,0,-29.1,-40.3,-29.1,-81.4c0,0,0,-34.5,24.6,-60.6c0,0,18.7,-20.2,52.3,-20.2ZM207.2,-9.7c0,0,-59.7,0,-99.2,39.1c0,0,-39.6,39.2,-39.6,98.2c0,0,0,79.9,68.7,143.8c0,0,68.7,63.9,299.2,169.9l0,70.1c0,0,0,79,-8.5,99.5c0,0,-8.6,20.5,-32.4,35.8c0,0,-23.8,15.3,-53.6,15.3c0,0,-48.3,0,-79.6,-21.7c0,0,-19.5,-13.4,-19.5,-31.3c0,0,0,-15.6,20.9,-38.7c0,0,28.4,-32.1,28.4,-61.9c0,0,0,-36.5,-27.2,-62.2c0,0,-27.3,-25.8,-71.3,-25.8c0,0,-47,0,-78.7,28.4c0,0,-31.7,28.3,-31.7,66.3c0,0,0,53.7,42.5,102.5c0,0,42.5,48.9,118.6,75c0,0,76,26.1,158,26.1c0,0,99.2,0,157,-42.2c0,0,57.8,-42.1,75,-91.4c0,0,10.4,-31.3,10.4,-144l0,-270.7c0,0,0,-47.8,3.7,-60.1c0,0,3.8,-12.3,11.2,-18.3c0,0,7.5,-5.9,17.4,-5.9c0,0,19.2,0,39.2,28.1L738.5,95.9c0,0,-37.3,-55.4,-77.2,-80.5c0,0,-39.9,-25.1,-90.7,-25.1c0,0,-59.6,0,-93.2,27.9c0,0,-33.6,27.9,-41.1,84.5c0,0,-127.6,-112.4,-229.1,-112.4Z" 
	id="f1_19"
	transform="scale(0.001,-0.001)" />

	<path d="M522.8,-22.4l-346.5,804c0,0,-62.7,145.6,-83.9,170.9c0,0,-21.3,25.4,-80.2,32.1l0,27.4l484.6,0l0,-27.4l-16.4,0c0,0,-65.7,0,-89.5,-16.4c0,0,-17.2,-11.2,-17.2,-32.9c0,0,0,-13.5,6,-31.8c0,0,5.9,-18.3,40.3,-98.6L635.4,302L834.9,750c0,0,36.3,81.5,44.6,109.1c0,0,8.2,27.7,8.2,47.1c0,0,0,22.4,-12,39.6c0,0,-11.9,17.2,-35,26.1c0,0,-32.1,12.7,-85.1,12.7l0,27.4l331.8,0l0,-27.4c0,0,-55.2,-8.9,-98.5,-58.9c0,0,-31.3,-37.4,-93.2,-175.4L547.4,-22.4Z" 
	id="f1_16"
	transform="scale(0.001,-0.001)" />

	<path d="M114.4,0l0,27.4l26.8,0c0,0,64.9,0,92.5,14.9c0,0,27.6,15,37.2,41.1c0,0,9.7,26.2,9.7,121.9l0,524.2c0,0,0,70.5,-6.7,88.1c0,0,-6.7,17.7,-25,30c0,0,-18.3,12.3,-42.2,12.3c0,0,-38,0,-92.5,-23.9l-13.5,26.4l372.4,170.1l24.6,0l0,-827.2c0,0,0,-93.5,8.2,-119.2c0,0,8.2,-25.8,34.4,-42.3c0,0,26.2,-16.4,83.8,-16.4l23.2,0L647.3,0Z" 
	id="f1_c"
	transform="scale(0.001,-0.001)" />

	<path d="M191.3,-18.5c0,0,-51.5,0,-87.7,36.1c0,0,-36.1,36.2,-36.1,87.6c0,0,0,51.5,36.1,88c0,0,36.2,36.6,87.7,36.6c0,0,52.2,0,88.3,-36.6c0,0,36.2,-36.5,36.2,-88c0,0,0,-51.4,-36.5,-87.6c0,0,-36.6,-36.1,-88,-36.1Z" 
	id="f1_9"
	transform="scale(0.001,-0.001)" />

	<path d="M383.3,34.2c0,0,37.4,0,56.2,23.9c0,0,31.4,41.7,35.9,128.9l3,320.5c0,0,0,265.3,-3,309.3c0,0,-7.5,103.5,-35.9,140.1c0,0,-18.8,23.8,-60.7,23.8c0,0,-32.3,0,-51,-17.9c0,0,-27.7,-26.1,-37.4,-92c0,0,-9.8,-66,-9.8,-460.2c0,0,0,-214.6,15,-287.7c0,0,11.2,-52.9,32.2,-70.8c0,0,21,-17.9,55.5,-17.9Zm-2.2,-54.6c0,0,-73.2,0,-132.2,37.2c0,0,-59,37.2,-104.5,106.6c0,0,-32.9,50.7,-57.5,135c0,0,-32.1,114.1,-32.1,235.7c0,0,0,164.8,46.3,302.7c0,0,38,114.2,115.7,174.9c0,0,77.7,60.8,164.3,60.8c0,0,88.1,0,164.6,-60c0,0,76.6,-60,112.4,-161.5c0,0,50.1,-139.4,50.1,-305c0,0,0,-151.4,-42.6,-282.7c0,0,-25.4,-80.5,-68.3,-132c0,0,-43,-51.4,-97.5,-81.6c0,0,-54.5,-30.1,-118.7,-30.1Z" 
	id="f1_b"
	transform="scale(0.001,-0.001)" />

	<path d="M435.4,501.6c0,0,77.6,0,134,60c0,0,56.4,60.1,56.4,155.6c0,0,0,65.6,-26.9,121.9c0,0,-26.9,56.3,-76.2,84.3c0,0,-49.2,28,-112,28c0,0,-38.1,0,-97.8,-14.2l0,-420.7c0,0,39.6,-7.4,70.2,-11.2c0,0,30.6,-3.7,52.3,-3.7ZM25.4,0l0,27.4l38.1,0c0,0,64.1,0,91.7,41.8c0,0,14.9,23.1,14.9,109.7l0,654.2c0,0,0,95.5,-20.1,118.7c0,0,-29.1,32.8,-86.5,32.8l-38.1,0l0,27.4l370.7,0c0,0,135.8,0,214.1,-28c0,0,78.3,-28,132,-94.5c0,0,53.7,-66.4,53.7,-157.5c0,0,0,-124,-81.7,-201.6c0,0,-81.8,-77.7,-231.1,-77.7c0,0,-36.6,0,-79.1,5.3c0,0,-42.6,5.2,-91.1,15.8l0,-294.9c0,0,0,-95.5,20.8,-118.7c0,0,28.2,-32.8,85.3,-32.8l38.6,0L457.6,0Z" 
	id="f0_1a"
	transform="scale(0.001,-0.001)" />

	<path d="M16.6,0l0,26.4c0,0,52.3,0,77.7,16.6c0,0,18.7,12,26.1,38.4c0,0,3.8,12.8,3.8,73.1l0,264c0,0,0,119.7,-4.8,142.5c0,0,-4.9,22.8,-17.9,33.3c0,0,-13,10.4,-32.3,10.4c0,0,-23,0,-52,-11.2L9.8,619.9L216.9,703l31.5,0l0,-154c0,0,85.5,154,175.6,154c0,0,40.9,0,67.7,-25c0,0,26.8,-25.1,26.8,-58c0,0,0,-29.1,-19.3,-49.3c0,0,-19.4,-20.2,-46.2,-20.2c0,0,-26.1,0,-58.4,25.9c0,0,-32.4,25.9,-48.1,25.9c0,0,-13.3,0,-29,-14.9c0,0,-33.4,-30.7,-69.1,-101l0,-327c0,0,0,-56.6,14.1,-85.7c0,0,9.7,-20.1,34.3,-33.7c0,0,24.6,-13.6,70.8,-13.6L367.6,0Z" 
	id="f0_22"
	transform="scale(0.001,-0.001)" />

	<path d="M479.1,469.3c0,0,-3.7,65.6,-15.7,92.5c0,0,-18.6,41.7,-55.6,65.6c0,0,-37,23.8,-77.4,23.8c0,0,-62,0,-110.9,-48.1c0,0,-49,-48.1,-57.2,-133.8ZM354.9,-20.4c0,0,-123,0,-210.6,95.7c0,0,-87.6,95.7,-87.6,257.5c0,0,0,175.2,89.9,273.2c0,0,89.8,98,225.5,98c0,0,114.8,0,188.7,-75.6c0,0,73.8,-75.5,73.8,-202.1l-472.3,0c0,0,-0.7,-152.3,73.8,-238.9c0,0,74.6,-86.7,175.2,-86.7c0,0,67.1,0,116.7,36.7c0,0,49.6,36.6,83.1,126.6l23.5,-14.9c0,0,-15.7,-102.5,-91,-186.1c0,0,-75.3,-83.4,-188.7,-83.4Z" 
	id="f0_1p"
	transform="scale(0.001,-0.001)" />

	<path d="M397.8,24.5c0,0,74.5,0,120.7,58c0,0,60.4,75.9,60.4,213.6c0,0,0,156.3,-68.6,240.3c0,0,-47.7,58.1,-113.2,58.1c0,0,-35.8,0,-70.8,-17.9c0,0,-26.9,-13.4,-88.7,-80.3l0,-254.6c0,0,0,-82.6,6.7,-108.6c0,0,10.4,-43.2,51,-75.9c0,0,40.7,-32.7,102.5,-32.7ZM-4.8,-326.5l0,26.4l18.5,0c0,0,0.3,0,0.8,0c5.9,0,42.5,0.7,69.2,15.8c0,0,14.1,8.3,21.9,26.6c0,0,7.8,18.4,7.8,93.5l0,645.3c0,0,0,66.9,-5.9,84.9c0,0,-6,18.1,-19,27c0,0,-13,9,-35.3,9c0,0,-17.8,0,-45.3,-10.4L-0.9,615l210.2,85.1l28.3,0l0,-159.9c0,0,52.9,90.4,106.2,126.6c0,0,53.4,36.2,112.3,36.2c0,0,102.9,0,171.5,-80.5c0,0,84.2,-98.3,84.2,-256.3c0,0,0,-176.6,-101.4,-292.1c0,0,-83.5,-94.5,-210.3,-94.5c0,0,-55.1,0,-95.4,15.7c0,0,-29.8,11.1,-67.1,44.8l0,-208.2c0,0,0,-70.9,8.6,-90.1c0,0,8.5,-19.2,29.7,-30.5c0,0,21.3,-11.4,77.1,-11.4l0,-26.4Z" 
	id="f0_20"
	transform="scale(0.001,-0.001)" />

	<path d="M342.2,-20.4c0,0,-116.3,0,-202.9,97.5c0,0,-86.5,97.6,-86.5,263.8c0,0,0,160.9,95.8,261.5c0,0,95.9,100.6,230.1,100.6c0,0,100.7,0,165.6,-53.4c0,0,64.9,-53.4,64.9,-110.9c0,0,0,-28.4,-18.3,-45.9c0,0,-18.3,-17.6,-51,-17.6c0,0,-44,0,-65.9,28.4c0,0,-13.1,15.7,-17.2,59.8c0,0,-4.1,44.2,-30.2,67.3c0,0,-26.1,22.5,-72.2,22.5c0,0,-74.6,0,-120,-55.2c0,0,-60.4,-73,-60.4,-192.9c0,0,0,-122.2,60.1,-215.7c0,0,60,-93.6,162.1,-93.6c0,0,73.1,0,131.2,49.6c0,0,41,34.5,79.8,125.5l21.5,-10c0,0,-27.6,-136,-108.2,-208.7c0,0,-80.5,-72.6,-178.3,-72.6Z" 
	id="f0_1n"
	transform="scale(0.001,-0.001)" />

	<path d="M254.7,-10.6c0,0,-34.3,0,-67.2,18.9c0,0,-32.9,19,-48.6,54.4c0,0,-15.7,35.5,-15.7,109.3l0,459.7l-108.5,0l0,24.4c0,0,41.2,16.4,84.2,55.5c0,0,43.1,39.1,76.9,92.9c0,0,17.3,28.4,48.1,103.9l23.5,0l0,-224.9l159.6,0l0,-51.8l-159.6,0l0,-443.6c0,0,0,-66.5,18.9,-89.6c0,0,18.9,-23.2,48.6,-23.2c0,0,24.5,0,47.5,15.3c0,0,23.1,15.4,35.7,45.3l29.3,0c0,0,-26.2,-73,-74,-109.8c0,0,-47.8,-36.7,-98.7,-36.7Z" 
	id="f0_24"
	transform="scale(0.001,-0.001)" />

	<path d="M405.9,32.3c0,0,72.3,0,119.2,59.6c0,0,47,59.5,47,204.8c0,0,0,181.7,-78.3,285.9c0,0,-52.9,71.5,-134.8,71.5c0,0,-39.5,0,-79.4,-23.4c0,0,-39.8,-23.5,-64.4,-82.3c0,0,-24.6,-58.9,-24.6,-151.2c0,0,0,-149,59.2,-256.9c0,0,59.3,-108,156.1,-108Zm-32,-52.7c0,0,-154.4,0,-245.3,122.8c0,0,-76.8,103.6,-76.8,232.5c0,0,0,93.9,46.6,186.7c0,0,46.6,92.7,122.7,137.1c0,0,76,44.3,161,44.3c0,0,155,0,249,-117.7c0,0,79.7,-100.6,79.7,-231c0,0,0,-91.7,-43.9,-185.6c0,0,-44,-93.9,-121.2,-141.5c0,0,-77.1,-47.6,-171.8,-47.6Z" 
	id="f0_1z"
	transform="scale(0.001,-0.001)" />

	<path d="M396.7,34.2c0,0,67.6,0,125.8,74.4c0,0,58.3,74.4,58.3,216.4c0,0,0,130.9,-58.3,201.2c0,0,-58.2,70.3,-132.5,70.3c0,0,-39.3,0,-78.7,-20.1c0,0,-29.6,-14.9,-75.7,-59.5l0,-407.5c0,0,37.9,-37.2,78.3,-56.2c0,0,40.5,-19,82.8,-19ZM358.1,-20.4c0,0,-59.6,0,-121.1,21.6c0,0,-61.5,21.6,-125.5,65l0,707.3c0,0,0,116.6,-5.6,143.5c0,0,-5.6,26.9,-17.5,36.6c0,0,-11.9,9.7,-29.8,9.7c0,0,-20.8,0,-52.1,-11.9L-3.8,977.8L202,1060.9l33.6,0l0,-496.4c0,0,98.9,138.5,213.4,138.5c0,0,104.8,0,182.8,-89.8c0,0,78.1,-89.8,78.1,-245.5c0,0,0,-181.8,-120.8,-292.9c0,0,-103.5,-95.2,-231,-95.2Z" 
	id="f0_1m"
	transform="scale(0.001,-0.001)" />

	<path d="M33.2,0l0,27.3c0,0,263.5,240.3,371,392.6c0,0,107.5,152.3,107.5,278.3c0,0,0,96.2,-59,158.1c0,0,-58.9,61.8,-141,61.8c0,0,-74.6,0,-133.9,-43.5c0,0,-59.3,-43.5,-87.6,-127.5l-27.6,0c0,0,18.6,137.8,95.7,211.6c0,0,77.2,73.8,192.7,73.8c0,0,123,0,205.4,-79.1c0,0,82.4,-79.1,82.4,-186.5c0,0,0,-76.9,-35.9,-153.7c0,0,-55.2,-120.8,-179,-255.9c0,0,-185.8,-203,-233,-244.9l264.6,0c0,0,80.7,0,113.2,6c0,0,32.5,6,58.7,24.2c0,0,26.1,18.3,45.6,51.9l27.3,0L629.5,0Z" 
	id="f0_j"
	transform="scale(0.001,-0.001)" />

	<path d="M379.3,29.3c0,0,40.2,0,83.4,36.2c0,0,43.2,36.2,65.5,121.3c0,0,34.3,128.3,34.3,361.9c0,0,0,173.1,-35.8,288.7c0,0,-26.7,85.8,-69.2,121.6c0,0,-30.5,24.7,-73.7,24.7c0,0,-50.6,0,-90.1,-45.6c0,0,-53.6,-61.9,-72.9,-194.7c0,0,-19.4,-132.8,-19.4,-261.9c0,0,0,-208.9,51.4,-341c0,0,42.4,-111.2,126.5,-111.2Zm-2.2,-46.8c0,0,-144.8,0,-241,170.7c0,0,-81.3,143.9,-81.3,346.8c0,0,0,173,52.2,298c0,0,52.2,124.9,138.8,186c0,0,67.1,48.5,138.8,48.5c0,0,116.4,0,208.9,-118.6c0,0,115.6,-146.9,115.6,-398.2c0,0,0,-176,-50.7,-299.1c0,0,-50.7,-123.1,-129.5,-178.6c0,0,-78.7,-55.5,-151.8,-55.5Z" 
	id="f0_h"
	transform="scale(0.001,-0.001)" />

	<path d="M196.5,0l0,27.4c0,0,71.8,1.4,92.7,12.2c0,0,20.9,10.9,29.2,29.1c0,0,8.2,18.3,8.2,109.3l0,546.6c0,0,0,110,-7.5,141.2c0,0,-5.2,23.8,-19,35c0,0,-13.8,11.2,-33.2,11.2c0,0,-27.6,0,-76.8,-23.2l-11.2,23.5l246.2,120.2l24.7,0l0,-854.5c0,0,0,-85,7,-105.9c0,0,7.1,-20.9,29.4,-32.1c0,0,22.3,-11.2,90.7,-12.6L576.9,0Z" 
	id="f0_i"
	transform="scale(0.001,-0.001)" />

	<path d="M275.4,-20.4L577.9,890.8l-278.5,0c0,0,-84.4,0,-120.2,-20.2c0,0,-62.8,-34.3,-100.8,-105.9l-21.7,8.2L153.5,1012l542.6,0l0,-28.8L358.8,-20.4Z" 
	id="f0_o"
	transform="scale(0.001,-0.001)" />

	<path d="M292,-20.4c0,0,-57.5,0,-99.7,33.1c0,0,-42.1,33.1,-58.5,85.3c0,0,-16.5,52.2,-16.5,147.6l0,304.9c0,0,0,49.1,-10.4,68c0,0,-10.4,18.9,-30.9,29.1c0,0,-19,9.5,-68.5,9.5c-1.8,0,-3.6,0,-5.5,0l0,26.4l239.5,0l0,-457.1c0,0,0,-95.4,33.2,-125.2c0,0,33.2,-29.8,80.1,-29.8c0,0,32.1,0,72.7,20.1c0,0,40.7,20.1,96.6,76.8l0,387.1c0,0,0,58.7,-21.4,79.5c0,0,-21.4,20.7,-89.1,22.2l0,26.4l233.7,0l0,-414.6c0,0,0,-118.7,5.6,-145.2c0,0,5.6,-26.5,18,-36.9c0,0,12.3,-10.5,28.8,-10.5c0,0,23.2,0,52.5,12.7L762.7,62.6l-204.9,-83l-33.7,0l0,144.7c0,0,-88.1,-95.6,-134.3,-120.2c0,0,-46.3,-24.5,-97.8,-24.5Z" 
	id="f0_25"
	transform="scale(0.001,-0.001)" />

	<path d="M57.7,0l0,26.4c0,0,47.4,0,64.8,9.7c0,0,17.3,9.8,27.1,32.2c0,0,9.8,22.5,9.8,86.2l0,620.9c0,0,0,115.6,-5.2,142.1c0,0,-5.3,26.5,-16.8,36.1c0,0,-11.6,9.7,-29.5,9.7c0,0,-19.4,0,-49.2,-11.9L46,977.8l203.9,83.1l33.7,0l0,-906.4c0,0,0,-64.4,9.3,-85.4c0,0,9.3,-21,28.7,-31.8c0,0,19.4,-10.9,72.4,-10.9L394,0Z" 
	id="f0_1w"
	transform="scale(0.001,-0.001)" />

	<path d="M54.8,0l0,26.4c0,0,50,0,67.2,9.7c0,0,17.2,9.8,27.3,32.2c0,0,10.1,22.5,10.1,86.2l0,263c0,0,0,111.6,-6.7,144.6c0,0,-5.2,24,-16.3,33.3c0,0,-11.2,9.3,-30.5,9.3c0,0,-20.8,0,-50.5,-11.2L45,619.9L250.7,703l32.9,0l0,-548.5c0,0,0,-64.4,9.3,-85.8c0,0,9.3,-21.3,27.6,-31.8c0,0,18.2,-10.5,66.7,-10.5L387.2,0Zm167,909.3c0,0,-31.3,0,-53.7,22.4c0,0,-22.4,22.4,-22.4,53.8c0,0,0,31.3,22,53.4c0,0,22,22,54.1,22c0,0,31.4,0,53.4,-22c0,0,22,-22.1,22,-53.4c0,0,0,-31.4,-22,-53.8c0,0,-22,-22.4,-53.4,-22.4Z" 
	id="f0_1t"
	transform="scale(0.001,-0.001)" />

	<path d="M19.6,0l0,26.4c0,0,45.5,0,71.7,14.2c0,0,14.9,7.5,23.9,28.5c0,0,9,21,9,85.4l0,619c0,0,0,116.8,-5.6,143.6c0,0,-5.6,26.9,-17.1,36.5c0,0,-11.5,9.7,-30.8,9.7c0,0,-15.6,0,-50.5,-11.9L9.8,977.8l204.3,83.1l34.3,0l0,-500c0,0,82.7,90.8,131.1,116.4c0,0,48.4,25.7,96.8,25.7c0,0,58.1,0,99.9,-32c0,0,41.7,-32.1,61.8,-100.6c0,0,14.2,-47.7,14.2,-174.4l0,-241.5c0,0,0,-65.2,10.4,-89.2c0,0,7.5,-17.9,25.5,-28.4c0,0,17.9,-10.5,65.8,-10.5L753.9,0L417.5,0l0,26.4l15.7,0c0,0,47.8,0,66.4,14.6c0,0,18.7,14.6,26.2,43.1c0,0,2.2,12,2.2,70.4l0,241.6c0,0,0,111.8,-11.5,146.9c0,0,-11.6,35,-36.8,52.5c0,0,-25.3,17.6,-61,17.6c0,0,-36.5,0,-75.9,-19.4c0,0,-39.4,-19.4,-94.4,-78.3l0,-360.9c0,0,0,-70.4,7.8,-87.7c0,0,7.8,-17.2,29.1,-28.8c0,0,21.3,-11.6,73.5,-11.6L358.8,0Z" 
	id="f0_1s"
	transform="scale(0.001,-0.001)" />

	<path d="M355.7,519.4c0,0,144.9,0,218.5,62.7c0,0,73.6,62.7,73.6,159.7c0,0,0,94.8,-59.4,154.2c0,0,-59.4,59.3,-157.2,59.3c0,0,-43.4,0,-117.3,-13.7l0,-421.4c0,0,14.1,0,24.6,-0.4c0,0,10.5,-0.4,17.2,-0.4ZM26.4,0l0,27.4l37.8,0c0,0,63.9,0,91.3,41.8c0,0,15.6,23.1,15.6,109.7l0,654.2c0,0,0,95.5,-20.8,118.7c0,0,-28.9,32.8,-86.1,32.8l-37.8,0l0,27.4l368.5,0c0,0,161.2,0,237.6,-23.5c0,0,76.5,-23.5,129.8,-86.6c0,0,53.4,-63.1,53.4,-150.5c0,0,0,-93.3,-60.9,-162c0,0,-60.8,-68.7,-188.5,-97L775.1,202.2c0,0,71.6,-100.1,123.1,-133c0,0,51.4,-32.9,134.2,-41.8l0,-27.4L762.1,0L419.4,473.2c0,0,-37.9,-1.5,-61.7,-1.5c0,0,-9.7,0,-20.8,0.4c0,0,-11.1,0.4,-23,1.1l0,-294.3c0,0,0,-95.5,20.7,-118.7c0,0,28.2,-32.8,84.6,-32.8l39.4,0L458.6,0Z" 
	id="f0_1c"
	transform="scale(0.001,-0.001)" />

	<path d="M376.4,-20.4L132.8,555.7c0,0,-16.4,40.8,-31.3,58.6c0,0,-14.9,17.8,-38,29.9c0,0,-12.7,6.8,-50,12.9l0,26.4l321.1,0l0,-26.4l-20.8,0c0,0,-29.1,0,-44.3,-14.2c0,0,-15.1,-14.2,-14.5,-38c0,0,-0.6,-26.1,14.9,-62L428.8,165.5L587.6,557.1c0,0,17.2,41.8,17.2,63.4c0,0,0,10.5,-6,17.2c0,0,-8.2,11.2,-20.9,15.3c0,0,-12.6,4.1,-51.4,4.1l0,26.4l223.6,0l0,-26.4c0,0,-38.8,-3.1,-53.7,-15.9c0,0,-26.1,-22.8,-47,-75.8L408.6,-20.4Z" 
	id="f0_26"
	transform="scale(0.001,-0.001)" />

	<path d="M485.4,379.4l52.2,256.2l-255,0L230.4,379.4ZM86,-20.4l69.3,338.2l-127.9,0l0,61.6l140,0l52.2,256.2l-192.2,0l0,59.6l205.7,0l68.1,339.3l62.7,0L296.1,695.2l250.7,0l72.1,339.3l61.4,0L610.8,695.2l125.5,0l0,-59.6l-137.7,0L546.1,379.4l190.2,0l0,-61.6l-202.7,0L464.3,-20.4l-60.5,0L473,317.8l-253.5,0L148.9,-20.4Z" 
	id="f0_5"
	transform="scale(0.001,-0.001)" />

	<path d="M677.8,393.1L506,801.9L330.3,393.1ZM11.1,0l0,27.4c0,0,63.4,11.2,82,29.1c0,0,38.1,35.9,84.3,145.9l355.7,832.1l27.4,0L912.3,193.2c0,0,42.5,-101.6,77.2,-131.8c0,0,34.7,-30.3,96.6,-34l0,-27.4L686.9,0l0,27.4c0,0,60.5,3,81.7,20.1c0,0,21.3,17.2,21.3,41.9c0,0,0,32.9,-29.9,103.9l-60.4,145l-392.7,0L238.6,179c0,0,-25.4,-59,-25.4,-88.1c0,0,0,-23.2,22,-40.8c0,0,22,-17.5,95.1,-22.7L330.3,0Z" 
	id="f0_v"
	transform="scale(0.001,-0.001)" />

	<path d="M144.9,-329.4c0,0,-44.1,0,-72.5,25.3c0,0,-28.4,25.3,-28.4,58c0,0,0,31.3,20.6,50.2c0,0,20.5,19,56.4,19c0,0,24.7,0,67.4,-16.2c0,0,29.9,-11.1,37.3,-11.1c0,0,22.4,0,48.9,23c0,0,26.5,23.1,53.4,89.4L376.1,28L131,542.4c0,0,-11.2,23.4,-35.8,58.1c0,0,-18.7,26.4,-30.6,35.5c0,0,-17.2,12,-55.2,21.1l0,26.4l318.7,0l0,-26.4l-15.7,0c0,0,-33.6,0,-50.4,-14.7c0,0,-16.7,-14.7,-16.7,-36.5c0,0,0,-29.4,24.6,-81.4L436.7,179.1L588.6,557.3c0,0,12.7,31,12.7,61.2c0,0,0,13.6,-5.2,20.4c0,0,-6,8.3,-18.7,13.3c0,0,-12.6,4.9,-44.7,4.9l0,26.4l221.5,0l0,-26.4c0,0,-27.6,-3,-42.5,-12.1c0,0,-14.9,-9,-32.8,-33.9c0,0,-6.7,-10.5,-25.4,-58L376.4,-129.1c0,0,-40.3,-99.1,-105.6,-149.7c0,0,-65.4,-50.6,-125.9,-50.6Z" 
	id="f0_29"
	transform="scale(0.001,-0.001)" />

	<path d="M547.9,-22.4c0,0,-251.3,0,-389.3,186.3c0,0,-102.9,138.6,-102.9,326.4c0,0,0,151.4,67.8,278.1c0,0,67.8,126.7,186.6,196.4c0,0,118.8,69.7,259.6,69.7c0,0,109.5,0,216,-53.9c0,0,31.3,-16.5,44.7,-16.5c0,0,20.1,0,35,14.2c0,0,19.3,20.2,27.5,56.2l26.4,0L942.8,690.3l-23.5,0c0,0,-46.1,155.1,-131.6,223.2c0,0,-85.6,68.2,-205.3,68.2c0,0,-100.4,0,-181.5,-51.1c0,0,-81.1,-51.1,-127.6,-163c0,0,-46.5,-112,-46.5,-278.4c0,0,0,-137.3,44,-238c0,0,43.9,-100.7,132.1,-154.4c0,0,88.3,-53.8,201.4,-53.8c0,0,98.3,0,173.5,42.1c0,0,75.2,42.1,165.3,167.2l23.1,-14.7c0,0,-76,-134.9,-177.4,-197.5c0,0,-101.5,-62.5,-240.9,-62.5Z" 
	id="f0_x"
	transform="scale(0.001,-0.001)" />

	<path d="M472.6,52.8c0,0,172.9,0,286.9,121.6c0,0,114.1,121.5,114.1,329.6c0,0,0,209.6,-114,330.5c0,0,-114.1,120.8,-293,120.8c0,0,-67,0,-152.7,-21.6l0,-860c0,0,94.6,-20.9,158.7,-20.9ZM26.4,0l0,27.4l37.8,0c0,0,63.9,0,90.6,41c0,0,16.3,24.7,16.3,110.5l0,654.2c0,0,0,94.8,-20.8,118.7c0,0,-28.9,32.8,-86.1,32.8l-37.8,0l0,27.4l411.5,0c0,0,226.6,0,344.7,-51.5c0,0,118.2,-51.5,190.1,-171.6c0,0,72,-120.2,72,-277.7c0,0,0,-211.2,-128.2,-353C916.5,158.2,772.6,0,478.1,0Z" 
	id="f0_y"
	transform="scale(0.001,-0.001)" />

	<path d="M552.8,-22.4L174.2,849.1c0,0,-29.1,67.4,-41.1,82.4c0,0,-18.6,23.2,-45.8,36.3c0,0,-27.3,13.1,-73.5,16.8l0,27.4l412.8,0l0,-27.4c0,0,-70.1,-6.7,-91,-23.8c0,0,-20.9,-17.2,-20.9,-44c0,0,0,-37.3,34.4,-116.4L606.7,207.3L845.8,792.9c0,0,35,86.6,35,120.1c0,0,0,21.7,-21.6,41.4c0,0,-21.6,19.8,-73.1,28c0,0,-3.7,0.8,-12.7,2.2l0,27.4l311,0l0,-27.4c0,0,-53.7,-9.7,-81.3,-34.4c0,0,-39.5,-36.7,-70.1,-112.4L580.7,-22.4Z" 
	id="f0_1g"
	transform="scale(0.001,-0.001)" />

	<path d="M24.5,0l0,27.4l35.8,0c0,0,62.6,0,91,36.5c0,0,17.9,23.9,17.9,115l0,654.2c0,0,0,76.9,-9.7,101.5c0,0,-7.5,18.7,-30.6,32.1c0,0,-32.1,17.9,-68.6,17.9l-35.8,0l0,27.4l751.9,0L787.1,790.1l-26.4,0c0,0,-19.3,70.9,-45,104.1c0,0,-25.6,33.2,-63.4,48.1c0,0,-37.7,15,-116.9,15l-223.5,0l0,-399l184.8,0c0,0,63.4,0,92.9,28.1c0,0,29.4,28,39.1,110.8l27.4,0l0,-342.3l-27.4,0c0,0,-0.7,59,-15.3,86.6c0,0,-14.5,27.6,-40.2,41.4c0,0,-25.8,13.8,-76.5,13.8l-184.8,0l0,-317.8c0,0,0,-76.9,9.7,-101.5c0,0,7.5,-18.7,31.5,-32.1c0,0,32.9,-17.9,68.8,-17.9l36.7,0L458.6,0Z" 
	id="f0_10"
	transform="scale(0.001,-0.001)" />

	<path d="M411.3,-239.4c0,0,134.2,0,197.9,47.1c0,0,63.8,47.1,63.8,100.6c0,0,0,38.6,-38.1,54.9c0,0,-38.7,16.3,-153.6,19.3c0,0,-167.8,4.6,-258,17.5c0,0,-35,-37.8,-52.9,-70.6c0,0,-17.9,-32.7,-17.9,-60.2c0,0,0,-35.8,43.3,-62.5c0,0,74.6,-46.1,215.5,-46.1ZM379.8,257.2c0,0,56.6,0,93.1,42.3c0,0,36.5,42.4,36.5,133.1c0,0,0,118.3,-51.4,185.2c0,0,-38,49.1,-97.6,49.1c0,0,-55.1,0,-92.4,-43.9c0,0,-37.2,-43.9,-37.2,-134.6c0,0,0,-117.5,50.6,-182.2c0,0,38.8,-49,98.4,-49ZM345.1,-329.4c0,0,-144,0,-243.2,64.9c0,0,-55.9,37.2,-55.9,77.5c0,0,0,17.9,8.1,35.8c0,0,12.7,27.6,52.2,76.8c0,0,5.2,6.7,75.9,80.4c0,0,-38.7,23.1,-54.7,41.4c0,0,-16,18.4,-16,41.5c0,0,0,26.2,21.2,61.3c0,0,21.2,35.1,97.9,99.4c0,0,-62.7,30.5,-96.3,85.2c0,0,-33.6,54.8,-33.6,121c0,0,0,101.3,76.6,174.3c0,0,76.6,72.9,196.1,72.9c0,0,97.9,0,169.6,-47.9l144.9,0c0,0,32.2,0,37.4,-1.8c0,0,5.2,-1.9,7.5,-6.4c0,0,4.4,-6.8,4.4,-24c0,0,0,-19.5,-3.7,-27c0,0,-2.3,-3.7,-7.9,-6c0,0,-5.6,-2.2,-37.9,-2.2l-89,0c0,0,41.7,-53.6,41.7,-137c0,0,0,-95.2,-73.1,-163c0,0,-73.2,-67.7,-196.4,-67.7c0,0,-50.7,0,-103.7,15.2c0,0,-32.9,-28.4,-44.4,-49.7c0,0,-11.6,-21.2,-11.6,-36.1c0,0,0,-12.7,12.3,-24.7c0,0,12.3,-11.9,48.2,-17.1c0,0,20.9,-3.2,104.5,-5.6c0,0,153.7,-3.9,199.3,-11.1c0,0,69.4,-9.6,110.8,-51.3c0,0,41.4,-41.6,41.4,-102.6c0,0,0,-84.1,-79,-157.8c0,0,-116.4,-108.6,-303.6,-108.6Z" 
	id="f0_1r"
	transform="scale(0.001,-0.001)" />

	<path d="M484.8,52.8c0,0,135.1,0,206,60.8c0,0,70.9,60.9,70.9,150.5c0,0,0,58.9,-32.1,113.4c0,0,-32.2,54.5,-104.5,85.9c0,0,-72.4,31.4,-179.1,31.4c0,0,-46.3,0,-79.1,-1.5c0,0,-32.9,-1.5,-53,-5.3l0,-415c0,0,86.5,-20.2,170.9,-20.2ZM454.9,546.6c0,0,109,0,163.8,23.5c0,0,54.9,23.5,84.3,72c0,0,29.4,48.5,29.4,105.9c0,0,0,88.8,-72.5,151.5c0,0,-72.5,62.6,-211.5,62.6c0,0,-74.7,0,-134.5,-16.4l0,-388.7c0,0,27.6,-5.2,63,-7.8c0,0,35.5,-2.6,78,-2.6ZM24.5,0l0,27.4l38.1,0c0,0,63.6,0,91.3,40.3c0,0,17.2,26.1,17.2,111.2l0,654.2c0,0,0,94,-21.7,118.7c0,0,-29.2,32.8,-86.8,32.8l-38.1,0l0,27.4l437.2,0c0,0,122.4,0,196.3,-17.9c0,0,111.9,-26.9,170.9,-95.1c0,0,58.9,-68.3,58.9,-157.1c0,0,0,-76.1,-46.3,-136.2c0,0,-46.2,-60.1,-136.6,-89.2c0,0,105.2,-22.4,157.5,-71.6c0,0,72.4,-68.7,72.4,-168c0,0,0,-75.4,-47.8,-144.4c0,0,-47.8,-69.1,-130.9,-100.8C756.1,31.7,672.9,0,502,0Z" 
	id="f0_w"
	transform="scale(0.001,-0.001)" />

	<path d="M62.6,0l0,26.4l30.5,0c0,0,29.8,0,54.4,15c0,0,24.5,15,33.8,40.5c0,0,9.4,25.5,9.4,99l0,448.8l-133,0l0,53.8l133,0l0,44.7c0,0,0,102,32.9,172.8c0,0,32.9,70.8,100.5,114.3c0,0,67.7,43.6,152.2,43.6c0,0,78.5,0,144.2,-50.6c0,0,43.4,-33.6,43.4,-75.3c0,0,0,-22.3,-19.4,-42.1c0,0,-19.4,-19.7,-41.8,-19.7c0,0,-17.1,0,-36.1,12.3c0,0,-19,12.3,-46.6,52.8c0,0,-27.6,40.6,-50.8,54.7c0,0,-23.1,14.2,-51.4,14.2c0,0,-34.3,0,-58.2,-18.3c0,0,-23.9,-18.2,-34.3,-56.6c0,0,-10.5,-38.3,-10.5,-197.7l0,-49.1l176,0l0,-53.8l-176,0l0,-448.8c0,0,0,-96,20.9,-121.5c0,0,27.6,-33,73.8,-33l61.8,0L471.3,0Z" 
	id="f0_1q"
	transform="scale(0.001,-0.001)" />

	<path d="M23.5,0l0,26.4c0,0,46.9,0,65.6,10.1c0,0,18.6,10.1,28.3,32.2c0,0,9.7,22.1,9.7,85.8l0,261.1c0,0,0,112.9,-6.7,145.8c0,0,-5.3,24.7,-16.5,34c0,0,-11.3,9.3,-30.7,9.3c0,0,-21,0,-50.2,-11.2L11.7,619.9L219,703l32.3,0l0,-145.8c0,0,74.5,74.8,87.9,86c0,0,33.5,28.4,72.2,44.1c0,0,38.7,15.7,76.7,15.7c0,0,64.1,0,110.3,-37.4c0,0,46.1,-37.4,61.8,-108.4c0,0,76.8,89.7,129.7,117.8c0,0,53,28,108.9,28c0,0,54.4,0,96.5,-27.9c0,0,42.2,-28,66.8,-91.3c0,0,16.4,-43.3,16.4,-135.7l0,-293.6c0,0,0,-64.4,9.7,-88.4c0,0,7.4,-16.5,27.5,-28.1c0,0,20.1,-11.6,65.5,-11.6l0,-26.4L843.8,0l0,26.4l14.2,0c0,0,44.1,0,68.7,17.2c0,0,17.1,12,24.6,38.2c0,0,3,12.8,3,72.7l0,293.3c0,0,0,83.4,-20.1,117.6c0,0,-29,47.7,-93.1,47.7c0,0,-39.4,0,-79.3,-19.8c0,0,-39.8,-19.7,-96.4,-73.3l-1.5,-8.2l2,-32.1l0,-325.2c0,0,0,-70.4,7.7,-87.7c0,0,7.8,-17.2,29.3,-28.8c0,0,21.5,-11.6,73.5,-11.6L776.4,0L431.2,0l0,26.4c0,0,56.4,0,77.5,13.5c0,0,21.1,13.5,29.3,40.4c0,0,3.7,12.8,3.7,74.2l0,293.3c0,0,0,83.3,-24.5,120.1c0,0,-32.7,48.1,-91.4,48.1c0,0,-40.1,0,-79.5,-21.8c0,0,-61.6,-33,-95,-74.2l0,-365.5c0,0,0,-67.4,9.2,-87.7c0,0,9.3,-20.2,27.5,-30.3c0,0,18.2,-10.1,73.8,-10.1L361.8,0Z" 
	id="f0_1x"
	transform="scale(0.001,-0.001)" />

	<path d="M572,112.4c0,0,43.5,0,91.4,32.9c0,0,47.9,32.9,100.3,101.4c0,0,52.4,68.4,76,136.9c0,0,41.3,118.3,41.3,192.7c0,0,0,49.1,-27.3,78.2c0,0,-27.2,29,-66.1,29c0,0,-56,0,-113.5,-58.9c0,0,-84.3,-86.5,-144.1,-233.4c0,0,-44,-107.3,-44,-172.9c0,0,0,-47,26.5,-76.4c0,0,26.6,-29.5,59.5,-29.5ZM722.9,-328.4c0,0,-177.5,0,-329.7,83.8c0,0,-152.2,83.9,-236.5,237.8c0,0,-84.3,153.8,-84.3,338.7c0,0,0,196.8,92.5,367.1c0,0,92.5,170.3,259.3,266.1c0,0,166.8,95.8,354.1,95.8c0,0,154.5,0,278.7,-63.7c0,0,124.3,-63.7,189.2,-186.3c0,0,64.9,-122.6,64.9,-260.4c0,0,0,-136.4,-60.8,-270.1c0,0,-60.8,-133.8,-154.8,-194.9c0,0,-94,-61.1,-196.2,-61.1c0,0,-56.7,0,-85.4,26.8c0,0,-28.7,26.7,-28.7,75c0,0,0,41.7,13.4,109.3c0,0,-110.9,-133.8,-177.6,-173.4c0,0,-66.7,-39.6,-117.7,-39.6c0,0,-53.2,0,-94.4,47.3c0,0,-41.2,47.4,-41.2,126.4c0,0,0,108,70.7,242.2c0,0,70.8,134.2,187.7,218.4c0,0,86.1,61.9,154.3,61.9c0,0,50.2,0,83.5,-25.8c0,0,33.3,-25.8,45.3,-77.3l24.1,82.5l117.8,15.7L963.4,417c0,0,-48.8,-166.6,-59.3,-211.1c0,0,-10.4,-44.6,-10.4,-71.3c0,0,0,-23.7,16,-40c0,0,16.1,-16.4,40,-16.4c0,0,54.5,0,131,54.4c0,0,76.5,54.4,131,176.5c0,0,54.5,122.2,54.5,254.8c0,0,0,127.4,-61.6,235.4c0,0,-61.5,108,-173.8,165.7c0,0,-112.3,57.8,-248,57.8c0,0,-172.3,0,-320,-91.3c0,0,-147.7,-91.3,-233.9,-262.6c0,0,-86.1,-171.4,-86.1,-356.2c0,0,0,-171.3,75.7,-311.4c0,0,75.8,-140,213.1,-211.9c0,0,137.3,-71.9,295.5,-71.9c0,0,196.3,0,354.9,105c0,0,158.6,105,245.2,306.6l42.6,0c0,0,-67.2,-204.8,-244,-331.1c0,0,-176.8,-126.4,-402.9,-126.4Z" 
	id="f0_u"
	transform="scale(0.001,-0.001)" />

	<path d="M191.2,-20.4c0,0,-34.3,0,-58.5,24.1c0,0,-24.2,24.2,-24.2,58.4c0,0,0,35,24.2,58.8c0,0,24.2,23.8,58.5,23.8c0,0,34.9,0,58.7,-24.2c0,0,23.9,-24.2,23.9,-58.4c0,0,0,-34.2,-24.2,-58.4c0,0,-24.2,-24.1,-58.4,-24.1Z" 
	id="f0_f"
	transform="scale(0.001,-0.001)" />


</defs>
</svg>