<?xml version="1.0" encoding="UTF-8" standalone="no"?>
<!DOCTYPE svg PUBLIC "-//W3C//DTD SVG 1.1//EN"
"http://www.w3.org/Graphics/SVG/1.1/DTD/svg11.dtd">
<svg viewBox="0 0 909 1286" version="1.1" xmlns="http://www.w3.org/2000/svg" xmlns:xlink="http://www.w3.org/1999/xlink">
<defs>
<clipPath id="c0_33"><path d="M27.5,1223.8L27.5,27.5l854,0l0,1196.3Z" /></clipPath>
</defs>
<g clip-path="url(#c0_33)">
<g fill="#000000" >
<use xlink:href="#f0_r" transform="matrix(12,0,0,12,323.1,580.1)" />
<use xlink:href="#f0_1h" transform="matrix(12,0,0,12,334.3,580.1)" />
<use xlink:href="#f0_1f" transform="matrix(12,0,0,12,339.4,580.1)" />
<use xlink:href="#f0_1s" transform="matrix(12,0,0,12,348.5,580.1)" />
<use xlink:href="#f0_1p" transform="matrix(12,0,0,12,358.7,580.1)" />
<use xlink:href="#f0_1d" transform="matrix(12,0,0,12,366.9,580.1)" />
<use xlink:href="#f0_d" transform="matrix(12,0,0,12,379.6,580.1)" />
<use xlink:href="#f0_l" transform="matrix(12,0,0,12,388.8,580.1)" />
<use xlink:href="#f0_15" transform="matrix(12,0,0,12,399.5,580.1)" />
<use xlink:href="#f0_1q" transform="matrix(12,0,0,12,412.7,580.1)" />
<use xlink:href="#f0_1d" transform="matrix(12,0,0,12,419.8,580.1)" />
<use xlink:href="#f0_1p" transform="matrix(12,0,0,12,428,580.1)" />
<use xlink:href="#f0_14" transform="matrix(12,0,0,12,440.7,580.1)" />
<use xlink:href="#f0_1p" transform="matrix(12,0,0,12,452.9,580.1)" />
<use xlink:href="#f0_19" transform="matrix(12,0,0,12,461,580.1)" />
<use xlink:href="#f0_1m" transform="matrix(12,0,0,12,470.2,580.1)" />
<use xlink:href="#f0_1q" transform="matrix(12,0,0,12,480.4,580.1)" />
<use xlink:href="#f0_19" transform="matrix(12,0,0,12,487.5,580.1)" />
<use xlink:href="#f0_1b" transform="matrix(12,0,0,12,496.7,580.1)" />
<use xlink:href="#f0_1r" transform="matrix(12,0,0,12,504.8,580.1)" />
<use xlink:href="#f0_1h" transform="matrix(12,0,0,12,511,580.1)" />
<use xlink:href="#f0_1n" transform="matrix(12,0,0,12,516,580.1)" />
<use xlink:href="#f0_1m" transform="matrix(12,0,0,12,525.2,580.1)" />
<use xlink:href="#f0_m" transform="matrix(12,0,0,12,540,580.1)" />
<use xlink:href="#f0_1p" transform="matrix(12,0,0,12,553.2,580.1)" />
<use xlink:href="#f0_1b" transform="matrix(12,0,0,12,561.4,580.1)" />
<use xlink:href="#f0_1g" transform="matrix(12,0,0,12,569.5,580.1)" />
<use xlink:href="#f0_1h" transform="matrix(12,0,0,12,579.7,580.1)" />
<use xlink:href="#f0_1r" transform="matrix(12,0,0,12,584.8,580.1)" />
<use xlink:href="#f0_1d" transform="matrix(12,0,0,12,590.9,580.1)" />
<use xlink:href="#f0_1b" transform="matrix(12,0,0,12,599,580.1)" />
<use xlink:href="#f0_1r" transform="matrix(12,0,0,12,607.2,580.1)" />
<use xlink:href="#f0_1s" transform="matrix(12,0,0,12,613.3,580.1)" />
<use xlink:href="#f0_1p" transform="matrix(12,0,0,12,623.5,580.1)" />
<use xlink:href="#f0_1d" transform="matrix(12,0,0,12,631.6,580.1)" />
<use xlink:href="#f0_o" transform="matrix(12,0,0,12,184.8,675)" />
<use xlink:href="#f0_1n" transform="matrix(12,0,0,12,198,675)" />
<use xlink:href="#f0_1m" transform="matrix(12,0,0,12,207.2,675)" />
<use xlink:href="#f0_1b" transform="matrix(12,0,0,12,217.4,675)" />
<use xlink:href="#f0_1k" transform="matrix(12,0,0,12,225.5,675)" />
<use xlink:href="#f0_1s" transform="matrix(12,0,0,12,230.6,675)" />
<use xlink:href="#f0_1q" transform="matrix(12,0,0,12,240.8,675)" />
<use xlink:href="#f0_1h" transform="matrix(12,0,0,12,248,675)" />
<use xlink:href="#f0_1n" transform="matrix(12,0,0,12,253.1,675)" />
<use xlink:href="#f0_1m" transform="matrix(12,0,0,12,262.2,675)" />
<use xlink:href="#f1_1e" transform="matrix(12,0,0,12,183.9,738.5)" />
<use xlink:href="#f1_1s" transform="matrix(12,0,0,12,195.1,738.5)" />
<use xlink:href="#f1_1p" transform="matrix(12,0,0,12,204.2,738.5)" />
<use xlink:href="#f1_12" transform="matrix(12,0,0,12,217,738.5)" />
<use xlink:href="#f1_1l" transform="matrix(12,0,0,12,230.2,738.5)" />
<use xlink:href="#f1_1y" transform="matrix(12,0,0,12,238.3,738.5)" />
<use xlink:href="#f1_1o" transform="matrix(12,0,0,12,247.5,738.5)" />
<use xlink:href="#f1_23" transform="matrix(12,0,0,12,256.7,738.5)" />
<use xlink:href="#f1_1a" transform="matrix(12,0,0,12,268.4,738.5)" />
<use xlink:href="#f1_1w" transform="matrix(12,0,0,12,278.6,738.5)" />
<use xlink:href="#f1_1l" transform="matrix(12,0,0,12,283.7,738.5)" />
<use xlink:href="#f1_24" transform="matrix(12,0,0,12,291.8,738.5)" />
<use xlink:href="#f1_1q" transform="matrix(12,0,0,12,296.9,738.5)" />
<use xlink:href="#f1_1z" transform="matrix(12,0,0,12,303,738.5)" />
<use xlink:href="#f1_22" transform="matrix(12,0,0,12,312.2,738.5)" />
<use xlink:href="#f1_1x" transform="matrix(12,0,0,12,318.3,738.5)" />
<use xlink:href="#f1_1n" transform="matrix(12,0,0,12,337.1,738.5)" />
<use xlink:href="#f1_1z" transform="matrix(12,0,0,12,345.3,738.5)" />
<use xlink:href="#f1_1x" transform="matrix(12,0,0,12,354.4,738.5)" />
<use xlink:href="#f1_1m" transform="matrix(12,0,0,12,368.7,738.5)" />
<use xlink:href="#f1_1t" transform="matrix(12,0,0,12,377.9,738.5)" />
<use xlink:href="#f1_1y" transform="matrix(12,0,0,12,383,738.5)" />
<use xlink:href="#f1_1p" transform="matrix(12,0,0,12,392.1,738.5)" />
<use xlink:href="#f1_1o" transform="matrix(12,0,0,12,400.3,738.5)" />
<use xlink:href="#f1_27" transform="matrix(12,0,0,12,414,738.5)" />
<use xlink:href="#f1_1t" transform="matrix(12,0,0,12,427.3,738.5)" />
<use xlink:href="#f1_24" transform="matrix(12,0,0,12,432.3,738.5)" />
<use xlink:href="#f1_1s" transform="matrix(12,0,0,12,437.4,738.5)" />
<use xlink:href="#f1_1z" transform="matrix(12,0,0,12,451.2,738.5)" />
<use xlink:href="#f1_25" transform="matrix(12,0,0,12,460.4,738.5)" />
<use xlink:href="#f1_22" transform="matrix(12,0,0,12,469.5,738.5)" />
<use xlink:href="#f1_20" transform="matrix(12,0,0,12,480.2,738.5)" />
<use xlink:href="#f1_22" transform="matrix(12,0,0,12,489.4,738.5)" />
<use xlink:href="#f1_1z" transform="matrix(12,0,0,12,495.5,738.5)" />
<use xlink:href="#f1_1l" transform="matrix(12,0,0,12,504.6,738.5)" />
<use xlink:href="#f1_1n" transform="matrix(12,0,0,12,512.8,738.5)" />
<use xlink:href="#f1_24" transform="matrix(12,0,0,12,520.9,738.5)" />
<use xlink:href="#f1_1t" transform="matrix(12,0,0,12,526,738.5)" />
<use xlink:href="#f1_26" transform="matrix(12,0,0,12,531.1,738.5)" />
<use xlink:href="#f1_1p" transform="matrix(12,0,0,12,540.3,738.5)" />
<use xlink:href="#f1_1l" transform="matrix(12,0,0,12,553,738.5)" />
<use xlink:href="#f1_22" transform="matrix(12,0,0,12,561.1,738.5)" />
<use xlink:href="#f1_24" transform="matrix(12,0,0,12,567.2,738.5)" />
<use xlink:href="#f1_1t" transform="matrix(12,0,0,12,572.3,738.5)" />
<use xlink:href="#f1_1q" transform="matrix(12,0,0,12,577.4,738.5)" />
<use xlink:href="#f1_1t" transform="matrix(12,0,0,12,583.5,738.5)" />
<use xlink:href="#f1_1n" transform="matrix(12,0,0,12,588.6,738.5)" />
<use xlink:href="#f1_1t" transform="matrix(12,0,0,12,596.8,738.5)" />
<use xlink:href="#f1_1l" transform="matrix(12,0,0,12,601.8,738.5)" />
<use xlink:href="#f1_1w" transform="matrix(12,0,0,12,610,738.5)" />
<use xlink:href="#f1_1t" transform="matrix(12,0,0,12,619.7,738.5)" />
<use xlink:href="#f1_1y" transform="matrix(12,0,0,12,624.8,738.5)" />
<use xlink:href="#f1_24" transform="matrix(12,0,0,12,633.9,738.5)" />
<use xlink:href="#f1_1p" transform="matrix(12,0,0,12,639,738.5)" />
<use xlink:href="#f1_1w" transform="matrix(12,0,0,12,647.1,738.5)" />
<use xlink:href="#f1_1w" transform="matrix(12,0,0,12,652.2,738.5)" />
<use xlink:href="#f1_1t" transform="matrix(12,0,0,12,657.3,738.5)" />
<use xlink:href="#f1_1r" transform="matrix(12,0,0,12,662.4,738.5)" />
<use xlink:href="#f1_1p" transform="matrix(12,0,0,12,671.6,738.5)" />
<use xlink:href="#f1_1y" transform="matrix(12,0,0,12,679.7,738.5)" />
<use xlink:href="#f1_1n" transform="matrix(12,0,0,12,688.9,738.5)" />
<use xlink:href="#f1_1p" transform="matrix(12,0,0,12,697,738.5)" />
<use xlink:href="#f1_1p" transform="matrix(12,0,0,12,709.8,738.5)" />
<use xlink:href="#f1_1y" transform="matrix(12,0,0,12,717.9,738.5)" />
<use xlink:href="#f1_1r" transform="matrix(12,0,0,12,727.1,738.5)" />
<use xlink:href="#f1_1t" transform="matrix(12,0,0,12,736.2,738.5)" />
<use xlink:href="#f1_1y" transform="matrix(12,0,0,12,741.3,738.5)" />
<use xlink:href="#f1_1p" transform="matrix(12,0,0,12,750.5,738.5)" />
<use xlink:href="#f1_20" transform="matrix(12,0,0,12,183.9,770)" />
<use xlink:href="#f1_22" transform="matrix(12,0,0,12,193,770)" />
<use xlink:href="#f1_1z" transform="matrix(12,0,0,12,199.2,770)" />
<use xlink:href="#f1_26" transform="matrix(12,0,0,12,208.3,770)" />
<use xlink:href="#f1_1t" transform="matrix(12,0,0,12,217.5,770)" />
<use xlink:href="#f1_1o" transform="matrix(12,0,0,12,222.6,770)" />
<use xlink:href="#f1_1p" transform="matrix(12,0,0,12,231.7,770)" />
<use xlink:href="#f1_23" transform="matrix(12,0,0,12,239.9,770)" />
<use xlink:href="#f1_1l" transform="matrix(12,0,0,12,251.6,770)" />
<use xlink:href="#f1_1y" transform="matrix(12,0,0,12,264.3,770)" />
<use xlink:href="#f1_1p" transform="matrix(12,0,0,12,273.5,770)" />
<use xlink:href="#f1_28" transform="matrix(12,0,0,12,281.6,770)" />
<use xlink:href="#f1_24" transform="matrix(12,0,0,12,290.8,770)" />
<use xlink:href="#f1_1r" transform="matrix(12,0,0,12,300.5,770)" />
<use xlink:href="#f1_1p" transform="matrix(12,0,0,12,309.6,770)" />
<use xlink:href="#f1_1y" transform="matrix(12,0,0,12,317.8,770)" />
<use xlink:href="#f1_1p" transform="matrix(12,0,0,12,326.9,770)" />
<use xlink:href="#f1_22" transform="matrix(12,0,0,12,335.1,770)" />
<use xlink:href="#f1_1l" transform="matrix(12,0,0,12,341.2,770)" />
<use xlink:href="#f1_24" transform="matrix(12,0,0,12,349.3,770)" />
<use xlink:href="#f1_1t" transform="matrix(12,0,0,12,354.4,770)" />
<use xlink:href="#f1_1z" transform="matrix(12,0,0,12,359.5,770)" />
<use xlink:href="#f1_1y" transform="matrix(12,0,0,12,368.7,770)" />
<use xlink:href="#f1_1l" transform="matrix(12,0,0,12,382.4,770)" />
<use xlink:href="#f1_20" transform="matrix(12,0,0,12,390.6,770)" />
<use xlink:href="#f1_20" transform="matrix(12,0,0,12,399.7,770)" />
<use xlink:href="#f1_22" transform="matrix(12,0,0,12,408.9,770)" />
<use xlink:href="#f1_1z" transform="matrix(12,0,0,12,415,770)" />
<use xlink:href="#f1_1l" transform="matrix(12,0,0,12,424.2,770)" />
<use xlink:href="#f1_1n" transform="matrix(12,0,0,12,432.3,770)" />
<use xlink:href="#f1_1s" transform="matrix(12,0,0,12,440.4,770)" />
<use xlink:href="#f1_24" transform="matrix(12,0,0,12,454.2,770)" />
<use xlink:href="#f1_1z" transform="matrix(12,0,0,12,459.3,770)" />
<use xlink:href="#f1_1x" transform="matrix(12,0,0,12,473,770)" />
<use xlink:href="#f1_1z" transform="matrix(12,0,0,12,487.3,770)" />
<use xlink:href="#f1_1y" transform="matrix(12,0,0,12,496.5,770)" />
<use xlink:href="#f1_1p" transform="matrix(12,0,0,12,505.6,770)" />
<use xlink:href="#f1_24" transform="matrix(12,0,0,12,513.8,770)" />
<use xlink:href="#f1_1t" transform="matrix(12,0,0,12,518.9,770)" />
<use xlink:href="#f1_2a" transform="matrix(12,0,0,12,524,770)" />
<use xlink:href="#f1_1t" transform="matrix(12,0,0,12,532.1,770)" />
<use xlink:href="#f1_1y" transform="matrix(12,0,0,12,537.2,770)" />
<use xlink:href="#f1_1r" transform="matrix(12,0,0,12,546.3,770)" />
<use xlink:href="#f1_24" transform="matrix(12,0,0,12,560.1,770)" />
<use xlink:href="#f1_1s" transform="matrix(12,0,0,12,565.2,770)" />
<use xlink:href="#f1_1p" transform="matrix(12,0,0,12,574.4,770)" />
<use xlink:href="#f1_25" transform="matrix(12,0,0,12,587.1,770)" />
<use xlink:href="#f1_23" transform="matrix(12,0,0,12,596.2,770)" />
<use xlink:href="#f1_1p" transform="matrix(12,0,0,12,603.4,770)" />
<use xlink:href="#f1_22" transform="matrix(12,0,0,12,611.5,770)" />
<use xlink:href="#f1_9" transform="matrix(12,0,0,12,617.6,770)" />
<use xlink:href="#f1_23" transform="matrix(12,0,0,12,620.9,770)" />
<use xlink:href="#f1_24" transform="matrix(12,0,0,12,632.6,770)" />
<use xlink:href="#f1_1t" transform="matrix(12,0,0,12,637.7,770)" />
<use xlink:href="#f1_1x" transform="matrix(12,0,0,12,642.8,770)" />
<use xlink:href="#f1_1p" transform="matrix(12,0,0,12,657.1,770)" />
<use xlink:href="#f1_1l" transform="matrix(12,0,0,12,669.8,770)" />
<use xlink:href="#f1_1y" transform="matrix(12,0,0,12,677.9,770)" />
<use xlink:href="#f1_1o" transform="matrix(12,0,0,12,687.1,770)" />
<use xlink:href="#f1_24" transform="matrix(12,0,0,12,700.9,770)" />
<use xlink:href="#f1_1t" transform="matrix(12,0,0,12,706,770)" />
<use xlink:href="#f1_1x" transform="matrix(12,0,0,12,711,770)" />
<use xlink:href="#f1_1p" transform="matrix(12,0,0,12,725.3,770)" />
<use xlink:href="#f1_1z" transform="matrix(12,0,0,12,738,770)" />
<use xlink:href="#f1_1q" transform="matrix(12,0,0,12,747.2,770)" />
<use xlink:href="#f1_24" transform="matrix(12,0,0,12,183.9,801.5)" />
<use xlink:href="#f1_1s" transform="matrix(12,0,0,12,189,801.5)" />
<use xlink:href="#f1_1p" transform="matrix(12,0,0,12,198.1,801.5)" />
<use xlink:href="#f1_25" transform="matrix(12,0,0,12,210.9,801.5)" />
<use xlink:href="#f1_23" transform="matrix(12,0,0,12,220,801.5)" />
<use xlink:href="#f1_1p" transform="matrix(12,0,0,12,227.2,801.5)" />
<use xlink:href="#f1_22" transform="matrix(12,0,0,12,235.3,801.5)" />
<use xlink:href="#f1_9" transform="matrix(12,0,0,12,241.4,801.5)" />
<use xlink:href="#f1_23" transform="matrix(12,0,0,12,244.7,801.5)" />
<use xlink:href="#f1_1z" transform="matrix(12,0,0,12,256.4,801.5)" />
<use xlink:href="#f1_27" transform="matrix(12,0,0,12,265.6,801.5)" />
<use xlink:href="#f1_1y" transform="matrix(12,0,0,12,278.8,801.5)" />
<use xlink:href="#f1_1z" transform="matrix(12,0,0,12,292.6,801.5)" />
<use xlink:href="#f1_1m" transform="matrix(12,0,0,12,301.8,801.5)" />
<use xlink:href="#f1_1u" transform="matrix(12,0,0,12,310.9,801.5)" />
<use xlink:href="#f1_1p" transform="matrix(12,0,0,12,316,801.5)" />
<use xlink:href="#f1_1n" transform="matrix(12,0,0,12,324.1,801.5)" />
<use xlink:href="#f1_24" transform="matrix(12,0,0,12,332.3,801.5)" />
<use xlink:href="#f1_23" transform="matrix(12,0,0,12,337.4,801.5)" />
<use xlink:href="#f1_f" transform="matrix(12,0,0,12,344.5,801.5)" />
<use xlink:href="#f1_1f" transform="matrix(12,0,0,12,183.9,833.1)" />
<use xlink:href="#f1_1y" transform="matrix(12,0,0,12,197.1,833.1)" />
<use xlink:href="#f1_1w" transform="matrix(12,0,0,12,206.3,833.1)" />
<use xlink:href="#f1_1t" transform="matrix(12,0,0,12,211.4,833.1)" />
<use xlink:href="#f1_1v" transform="matrix(12,0,0,12,216.5,833.1)" />
<use xlink:href="#f1_1p" transform="matrix(12,0,0,12,225.6,833.1)" />
<use xlink:href="#f1_1z" transform="matrix(12,0,0,12,238.4,833.1)" />
<use xlink:href="#f1_24" transform="matrix(12,0,0,12,247.5,833.1)" />
<use xlink:href="#f1_1s" transform="matrix(12,0,0,12,252.6,833.1)" />
<use xlink:href="#f1_1p" transform="matrix(12,0,0,12,261.8,833.1)" />
<use xlink:href="#f1_22" transform="matrix(12,0,0,12,269.9,833.1)" />
<use xlink:href="#f1_1l" transform="matrix(12,0,0,12,280.6,833.1)" />
<use xlink:href="#f1_20" transform="matrix(12,0,0,12,288.7,833.1)" />
<use xlink:href="#f1_20" transform="matrix(12,0,0,12,297.9,833.1)" />
<use xlink:href="#f1_1w" transform="matrix(12,0,0,12,307.1,833.1)" />
<use xlink:href="#f1_1t" transform="matrix(12,0,0,12,312.2,833.1)" />
<use xlink:href="#f1_1n" transform="matrix(12,0,0,12,317.3,833.1)" />
<use xlink:href="#f1_1l" transform="matrix(12,0,0,12,325.4,833.1)" />
<use xlink:href="#f1_24" transform="matrix(12,0,0,12,333.5,833.1)" />
<use xlink:href="#f1_1t" transform="matrix(12,0,0,12,338.6,833.1)" />
<use xlink:href="#f1_1z" transform="matrix(12,0,0,12,343.7,833.1)" />
<use xlink:href="#f1_1y" transform="matrix(12,0,0,12,352.9,833.1)" />
<use xlink:href="#f1_23" transform="matrix(12,0,0,12,362.1,833.1)" />
<use xlink:href="#f1_1w" transform="matrix(12,0,0,12,373.8,833.1)" />
<use xlink:href="#f1_1t" transform="matrix(12,0,0,12,378.9,833.1)" />
<use xlink:href="#f1_1v" transform="matrix(12,0,0,12,384,833.1)" />
<use xlink:href="#f1_1p" transform="matrix(12,0,0,12,393.1,833.1)" />
<use xlink:href="#f1_1e" transform="matrix(12,0,0,12,405.9,833.1)" />
<use xlink:href="#f1_1t" transform="matrix(12,0,0,12,417.1,833.1)" />
<use xlink:href="#f1_1y" transform="matrix(12,0,0,12,422.1,833.1)" />
<use xlink:href="#f1_1o" transform="matrix(12,0,0,12,431.3,833.1)" />
<use xlink:href="#f1_1p" transform="matrix(12,0,0,12,440.5,833.1)" />
<use xlink:href="#f1_22" transform="matrix(12,0,0,12,448.6,833.1)" />
<use xlink:href="#f1_d" transform="matrix(12,0,0,12,454.7,833.1)" />
<use xlink:href="#f1_10" transform="matrix(12,0,0,12,463.9,833.1)" />
<use xlink:href="#f1_1l" transform="matrix(12,0,0,12,474.1,833.1)" />
<use xlink:href="#f1_1n" transform="matrix(12,0,0,12,482.2,833.1)" />
<use xlink:href="#f1_1m" transform="matrix(12,0,0,12,490.4,833.1)" />
<use xlink:href="#f1_1z" transform="matrix(12,0,0,12,499.5,833.1)" />
<use xlink:href="#f1_1z" transform="matrix(12,0,0,12,508.7,833.1)" />
<use xlink:href="#f1_1v" transform="matrix(12,0,0,12,517.9,833.1)" />
<use xlink:href="#f1_d" transform="matrix(12,0,0,12,527,833.1)" />
<use xlink:href="#f1_v" transform="matrix(12,0,0,12,536.2,833.1)" />
<use xlink:href="#f1_1w" transform="matrix(12,0,0,12,549.4,833.1)" />
<use xlink:href="#f1_1w" transform="matrix(12,0,0,12,554.5,833.1)" />
<use xlink:href="#f1_1z" transform="matrix(12,0,0,12,559.6,833.1)" />
<use xlink:href="#f1_1z" transform="matrix(12,0,0,12,573.4,833.1)" />
<use xlink:href="#f1_22" transform="matrix(12,0,0,12,582.5,833.1)" />
<use xlink:href="#f1_17" transform="matrix(12,0,0,12,593.2,833.1)" />
<use xlink:href="#f1_29" transform="matrix(12,0,0,12,609.5,833.1)" />
<use xlink:href="#f1_1d" transform="matrix(12,0,0,12,623.3,833.1)" />
<use xlink:href="#f1_24" transform="matrix(12,0,0,12,633.5,833.1)" />
<use xlink:href="#f1_25" transform="matrix(12,0,0,12,638.6,833.1)" />
<use xlink:href="#f1_1o" transform="matrix(12,0,0,12,647.7,833.1)" />
<use xlink:href="#f1_29" transform="matrix(12,0,0,12,656.9,833.1)" />
<use xlink:href="#f1_16" transform="matrix(12,0,0,12,670.6,833.1)" />
<use xlink:href="#f1_1t" transform="matrix(12,0,0,12,681.8,833.1)" />
<use xlink:href="#f1_1q" transform="matrix(12,0,0,12,686.9,833.1)" />
<use xlink:href="#f1_1p" transform="matrix(12,0,0,12,693,833.1)" />
<use xlink:href="#f1_24" transform="matrix(12,0,0,12,705.8,833.1)" />
<use xlink:href="#f1_1s" transform="matrix(12,0,0,12,710.9,833.1)" />
<use xlink:href="#f1_1p" transform="matrix(12,0,0,12,720,833.1)" />
<use xlink:href="#f1_1x" transform="matrix(12,0,0,12,732.7,833.1)" />
<use xlink:href="#f1_1l" transform="matrix(12,0,0,12,747,833.1)" />
<use xlink:href="#f1_24" transform="matrix(12,0,0,12,755.1,833.1)" />
<use xlink:href="#f1_1n" transform="matrix(12,0,0,12,760.2,833.1)" />
<use xlink:href="#f1_1s" transform="matrix(12,0,0,12,768.4,833.1)" />
<use xlink:href="#f1_1m" transform="matrix(12,0,0,12,183.9,865)" />
<use xlink:href="#f1_1p" transform="matrix(12,0,0,12,193,865)" />
<use xlink:href="#f1_24" transform="matrix(12,0,0,12,201.2,865)" />
<use xlink:href="#f1_27" transform="matrix(12,0,0,12,206.3,865)" />
<use xlink:href="#f1_1p" transform="matrix(12,0,0,12,219.5,865)" />
<use xlink:href="#f1_1p" transform="matrix(12,0,0,12,227.7,865)" />
<use xlink:href="#f1_1y" transform="matrix(12,0,0,12,235.8,865)" />
<use xlink:href="#f1_20" transform="matrix(12,0,0,12,249.5,865)" />
<use xlink:href="#f1_1p" transform="matrix(12,0,0,12,258.7,865)" />
<use xlink:href="#f1_1z" transform="matrix(12,0,0,12,266.8,865)" />
<use xlink:href="#f1_20" transform="matrix(12,0,0,12,276,865)" />
<use xlink:href="#f1_1w" transform="matrix(12,0,0,12,285.2,865)" />
<use xlink:href="#f1_1p" transform="matrix(12,0,0,12,290.3,865)" />
<use xlink:href="#f1_1t" transform="matrix(12,0,0,12,303,865)" />
<use xlink:href="#f1_23" transform="matrix(12,0,0,12,308.1,865)" />
<use xlink:href="#f1_1x" transform="matrix(12,0,0,12,319.8,865)" />
<use xlink:href="#f1_25" transform="matrix(12,0,0,12,334.1,865)" />
<use xlink:href="#f1_1n" transform="matrix(12,0,0,12,343.2,865)" />
<use xlink:href="#f1_1s" transform="matrix(12,0,0,12,351.4,865)" />
<use xlink:href="#f1_1x" transform="matrix(12,0,0,12,365.1,865)" />
<use xlink:href="#f1_1z" transform="matrix(12,0,0,12,379.4,865)" />
<use xlink:href="#f1_22" transform="matrix(12,0,0,12,388.5,865)" />
<use xlink:href="#f1_1p" transform="matrix(12,0,0,12,394.6,865)" />
<use xlink:href="#f1_1l" transform="matrix(12,0,0,12,407.4,865)" />
<use xlink:href="#f1_1n" transform="matrix(12,0,0,12,415.5,865)" />
<use xlink:href="#f1_1n" transform="matrix(12,0,0,12,423.6,865)" />
<use xlink:href="#f1_25" transform="matrix(12,0,0,12,431.8,865)" />
<use xlink:href="#f1_22" transform="matrix(12,0,0,12,440.9,865)" />
<use xlink:href="#f1_1l" transform="matrix(12,0,0,12,447,865)" />
<use xlink:href="#f1_24" transform="matrix(12,0,0,12,455.2,865)" />
<use xlink:href="#f1_1p" transform="matrix(12,0,0,12,460.3,865)" />
<use xlink:href="#f1_d" transform="matrix(12,0,0,12,468.4,865)" />
<use xlink:href="#f1_1z" transform="matrix(12,0,0,12,477.6,865)" />
<use xlink:href="#f1_20" transform="matrix(12,0,0,12,486.7,865)" />
<use xlink:href="#f1_1p" transform="matrix(12,0,0,12,495.9,865)" />
<use xlink:href="#f1_22" transform="matrix(12,0,0,12,504,865)" />
<use xlink:href="#f1_1l" transform="matrix(12,0,0,12,510.2,865)" />
<use xlink:href="#f1_24" transform="matrix(12,0,0,12,518.3,865)" />
<use xlink:href="#f1_1t" transform="matrix(12,0,0,12,523.4,865)" />
<use xlink:href="#f1_1z" transform="matrix(12,0,0,12,528.5,865)" />
<use xlink:href="#f1_1y" transform="matrix(12,0,0,12,537.6,865)" />
<use xlink:href="#f1_23" transform="matrix(12,0,0,12,546.8,865)" />
<use xlink:href="#f1_1l" transform="matrix(12,0,0,12,558.5,865)" />
<use xlink:href="#f1_22" transform="matrix(12,0,0,12,566.7,865)" />
<use xlink:href="#f1_1p" transform="matrix(12,0,0,12,572.8,865)" />
<use xlink:href="#f1_22" transform="matrix(12,0,0,12,585.5,865)" />
<use xlink:href="#f1_1p" transform="matrix(12,0,0,12,591.6,865)" />
<use xlink:href="#f1_1r" transform="matrix(12,0,0,12,599.7,865)" />
<use xlink:href="#f1_1t" transform="matrix(12,0,0,12,608.9,865)" />
<use xlink:href="#f1_23" transform="matrix(12,0,0,12,614,865)" />
<use xlink:href="#f1_24" transform="matrix(12,0,0,12,621.1,865)" />
<use xlink:href="#f1_1p" transform="matrix(12,0,0,12,626.2,865)" />
<use xlink:href="#f1_22" transform="matrix(12,0,0,12,634.4,865)" />
<use xlink:href="#f1_1p" transform="matrix(12,0,0,12,640.5,865)" />
<use xlink:href="#f1_1o" transform="matrix(12,0,0,12,648.6,865)" />
<use xlink:href="#f1_1t" transform="matrix(12,0,0,12,662.3,865)" />
<use xlink:href="#f1_1y" transform="matrix(12,0,0,12,667.4,865)" />
<use xlink:href="#f1_24" transform="matrix(12,0,0,12,681.2,865)" />
<use xlink:href="#f1_1s" transform="matrix(12,0,0,12,686.3,865)" />
<use xlink:href="#f1_1p" transform="matrix(12,0,0,12,695.4,865)" />
<use xlink:href="#f1_1m" transform="matrix(12,0,0,12,183.9,896.5)" />
<use xlink:href="#f1_1w" transform="matrix(12,0,0,12,193,896.5)" />
<use xlink:href="#f1_1z" transform="matrix(12,0,0,12,198.1,896.5)" />
<use xlink:href="#f1_1n" transform="matrix(12,0,0,12,207.3,896.5)" />
<use xlink:href="#f1_1v" transform="matrix(12,0,0,12,215.4,896.5)" />
<use xlink:href="#f1_1n" transform="matrix(12,0,0,12,224.6,896.5)" />
<use xlink:href="#f1_1s" transform="matrix(12,0,0,12,232.7,896.5)" />
<use xlink:href="#f1_1l" transform="matrix(12,0,0,12,241.9,896.5)" />
<use xlink:href="#f1_1t" transform="matrix(12,0,0,12,250.1,896.5)" />
<use xlink:href="#f1_1y" transform="matrix(12,0,0,12,255.1,896.5)" />
<use xlink:href="#f1_27" transform="matrix(12,0,0,12,268.9,896.5)" />
<use xlink:href="#f1_1t" transform="matrix(12,0,0,12,282.1,896.5)" />
<use xlink:href="#f1_24" transform="matrix(12,0,0,12,287.2,896.5)" />
<use xlink:href="#f1_1s" transform="matrix(12,0,0,12,292.3,896.5)" />
<use xlink:href="#f1_1z" transform="matrix(12,0,0,12,301.5,896.5)" />
<use xlink:href="#f1_25" transform="matrix(12,0,0,12,310.7,896.5)" />
<use xlink:href="#f1_24" transform="matrix(12,0,0,12,319.8,896.5)" />
<use xlink:href="#f1_24" transform="matrix(12,0,0,12,329.5,896.5)" />
<use xlink:href="#f1_1s" transform="matrix(12,0,0,12,334.6,896.5)" />
<use xlink:href="#f1_1p" transform="matrix(12,0,0,12,343.8,896.5)" />
<use xlink:href="#f1_20" transform="matrix(12,0,0,12,356.5,896.5)" />
<use xlink:href="#f1_1z" transform="matrix(12,0,0,12,365.6,896.5)" />
<use xlink:href="#f1_23" transform="matrix(12,0,0,12,374.8,896.5)" />
<use xlink:href="#f1_23" transform="matrix(12,0,0,12,381.9,896.5)" />
<use xlink:href="#f1_1t" transform="matrix(12,0,0,12,389.1,896.5)" />
<use xlink:href="#f1_1m" transform="matrix(12,0,0,12,394.2,896.5)" />
<use xlink:href="#f1_1t" transform="matrix(12,0,0,12,403.3,896.5)" />
<use xlink:href="#f1_1w" transform="matrix(12,0,0,12,408.4,896.5)" />
<use xlink:href="#f1_1t" transform="matrix(12,0,0,12,413.5,896.5)" />
<use xlink:href="#f1_24" transform="matrix(12,0,0,12,418.6,896.5)" />
<use xlink:href="#f1_29" transform="matrix(12,0,0,12,423.7,896.5)" />
<use xlink:href="#f1_1z" transform="matrix(12,0,0,12,437.5,896.5)" />
<use xlink:href="#f1_1q" transform="matrix(12,0,0,12,446.6,896.5)" />
<use xlink:href="#f1_1n" transform="matrix(12,0,0,12,457.3,896.5)" />
<use xlink:href="#f1_1z" transform="matrix(12,0,0,12,465.5,896.5)" />
<use xlink:href="#f1_22" transform="matrix(12,0,0,12,474.6,896.5)" />
<use xlink:href="#f1_22" transform="matrix(12,0,0,12,480.7,896.5)" />
<use xlink:href="#f1_25" transform="matrix(12,0,0,12,486.8,896.5)" />
<use xlink:href="#f1_20" transform="matrix(12,0,0,12,496,896.5)" />
<use xlink:href="#f1_24" transform="matrix(12,0,0,12,505.2,896.5)" />
<use xlink:href="#f1_1t" transform="matrix(12,0,0,12,510.3,896.5)" />
<use xlink:href="#f1_1y" transform="matrix(12,0,0,12,515.4,896.5)" />
<use xlink:href="#f1_1r" transform="matrix(12,0,0,12,524.5,896.5)" />
<use xlink:href="#f1_24" transform="matrix(12,0,0,12,538.3,896.5)" />
<use xlink:href="#f1_1s" transform="matrix(12,0,0,12,543.4,896.5)" />
<use xlink:href="#f1_1p" transform="matrix(12,0,0,12,552.5,896.5)" />
<use xlink:href="#f1_1s" transform="matrix(12,0,0,12,565.3,896.5)" />
<use xlink:href="#f1_1t" transform="matrix(12,0,0,12,574.4,896.5)" />
<use xlink:href="#f1_23" transform="matrix(12,0,0,12,579.5,896.5)" />
<use xlink:href="#f1_24" transform="matrix(12,0,0,12,586.7,896.5)" />
<use xlink:href="#f1_1z" transform="matrix(12,0,0,12,591.7,896.5)" />
<use xlink:href="#f1_22" transform="matrix(12,0,0,12,600.9,896.5)" />
<use xlink:href="#f1_29" transform="matrix(12,0,0,12,607,896.5)" />
<use xlink:href="#f1_1z" transform="matrix(12,0,0,12,620.8,896.5)" />
<use xlink:href="#f1_1q" transform="matrix(12,0,0,12,629.9,896.5)" />
<use xlink:href="#f1_24" transform="matrix(12,0,0,12,640.6,896.5)" />
<use xlink:href="#f1_1s" transform="matrix(12,0,0,12,645.7,896.5)" />
<use xlink:href="#f1_1p" transform="matrix(12,0,0,12,654.9,896.5)" />
<use xlink:href="#f1_1t" transform="matrix(12,0,0,12,663,896.5)" />
<use xlink:href="#f1_22" transform="matrix(12,0,0,12,668.1,896.5)" />
<use xlink:href="#f1_24" transform="matrix(12,0,0,12,678.8,896.5)" />
<use xlink:href="#f1_22" transform="matrix(12,0,0,12,683.9,896.5)" />
<use xlink:href="#f1_1l" transform="matrix(12,0,0,12,690,896.5)" />
<use xlink:href="#f1_1y" transform="matrix(12,0,0,12,698.1,896.5)" />
<use xlink:href="#f1_23" transform="matrix(12,0,0,12,707.3,896.5)" />
<use xlink:href="#f1_1l" transform="matrix(12,0,0,12,714.4,896.5)" />
<use xlink:href="#f1_1n" transform="matrix(12,0,0,12,722.6,896.5)" />
<use xlink:href="#f1_24" transform="matrix(12,0,0,12,730.7,896.5)" />
<use xlink:href="#f1_1t" transform="matrix(12,0,0,12,735.8,896.5)" />
<use xlink:href="#f1_1z" transform="matrix(12,0,0,12,740.9,896.5)" />
<use xlink:href="#f1_1y" transform="matrix(12,0,0,12,750.1,896.5)" />
<use xlink:href="#f1_23" transform="matrix(12,0,0,12,759.2,896.5)" />
<use xlink:href="#f1_f" transform="matrix(12,0,0,12,766.4,896.5)" />
<use xlink:href="#f1_12" transform="matrix(12,0,0,12,183.9,928)" />
<use xlink:href="#f1_1l" transform="matrix(12,0,0,12,197.1,928)" />
<use xlink:href="#f1_1y" transform="matrix(12,0,0,12,205.3,928)" />
<use xlink:href="#f1_1o" transform="matrix(12,0,0,12,214.4,928)" />
<use xlink:href="#f1_23" transform="matrix(12,0,0,12,223.6,928)" />
<use xlink:href="#f1_1r" transform="matrix(12,0,0,12,235.3,928)" />
<use xlink:href="#f1_1z" transform="matrix(12,0,0,12,244.5,928)" />
<use xlink:href="#f1_1p" transform="matrix(12,0,0,12,253.6,928)" />
<use xlink:href="#f1_23" transform="matrix(12,0,0,12,261.8,928)" />
<use xlink:href="#f1_1m" transform="matrix(12,0,0,12,273.5,928)" />
<use xlink:href="#f1_1p" transform="matrix(12,0,0,12,282.7,928)" />
<use xlink:href="#f1_29" transform="matrix(12,0,0,12,290.8,928)" />
<use xlink:href="#f1_1z" transform="matrix(12,0,0,12,300,928)" />
<use xlink:href="#f1_1y" transform="matrix(12,0,0,12,309.1,928)" />
<use xlink:href="#f1_1o" transform="matrix(12,0,0,12,318.3,928)" />
<use xlink:href="#f1_24" transform="matrix(12,0,0,12,332.1,928)" />
<use xlink:href="#f1_1s" transform="matrix(12,0,0,12,337.1,928)" />
<use xlink:href="#f1_1l" transform="matrix(12,0,0,12,346.3,928)" />
<use xlink:href="#f1_24" transform="matrix(12,0,0,12,354.4,928)" />
<use xlink:href="#f1_1m" transform="matrix(12,0,0,12,364.1,928)" />
<use xlink:href="#f1_29" transform="matrix(12,0,0,12,373.3,928)" />
<use xlink:href="#f1_1z" transform="matrix(12,0,0,12,387,928)" />
<use xlink:href="#f1_20" transform="matrix(12,0,0,12,396.2,928)" />
<use xlink:href="#f1_24" transform="matrix(12,0,0,12,405.4,928)" />
<use xlink:href="#f1_1t" transform="matrix(12,0,0,12,410.5,928)" />
<use xlink:href="#f1_1x" transform="matrix(12,0,0,12,415.6,928)" />
<use xlink:href="#f1_1t" transform="matrix(12,0,0,12,429.8,928)" />
<use xlink:href="#f1_2a" transform="matrix(12,0,0,12,434.9,928)" />
<use xlink:href="#f1_1t" transform="matrix(12,0,0,12,443.1,928)" />
<use xlink:href="#f1_1y" transform="matrix(12,0,0,12,448.1,928)" />
<use xlink:href="#f1_1r" transform="matrix(12,0,0,12,457.3,928)" />
<use xlink:href="#f1_22" transform="matrix(12,0,0,12,471.1,928)" />
<use xlink:href="#f1_1z" transform="matrix(12,0,0,12,477.2,928)" />
<use xlink:href="#f1_29" transform="matrix(12,0,0,12,486.3,928)" />
<use xlink:href="#f1_1l" transform="matrix(12,0,0,12,495.5,928)" />
<use xlink:href="#f1_1w" transform="matrix(12,0,0,12,503.6,928)" />
<use xlink:href="#f1_24" transform="matrix(12,0,0,12,508.7,928)" />
<use xlink:href="#f1_29" transform="matrix(12,0,0,12,513.8,928)" />
<use xlink:href="#f1_1r" transform="matrix(12,0,0,12,527.6,928)" />
<use xlink:href="#f1_1p" transform="matrix(12,0,0,12,536.7,928)" />
<use xlink:href="#f1_1y" transform="matrix(12,0,0,12,544.9,928)" />
<use xlink:href="#f1_1p" transform="matrix(12,0,0,12,554,928)" />
<use xlink:href="#f1_22" transform="matrix(12,0,0,12,562.2,928)" />
<use xlink:href="#f1_1l" transform="matrix(12,0,0,12,568.3,928)" />
<use xlink:href="#f1_24" transform="matrix(12,0,0,12,576.4,928)" />
<use xlink:href="#f1_1t" transform="matrix(12,0,0,12,581.5,928)" />
<use xlink:href="#f1_1z" transform="matrix(12,0,0,12,586.6,928)" />
<use xlink:href="#f1_1y" transform="matrix(12,0,0,12,595.8,928)" />
<use xlink:href="#f1_d" transform="matrix(12,0,0,12,604.9,928)" />
<use xlink:href="#f1_1t" transform="matrix(12,0,0,12,614.1,928)" />
<use xlink:href="#f1_1y" transform="matrix(12,0,0,12,619.2,928)" />
<use xlink:href="#f1_1q" transform="matrix(12,0,0,12,632.9,928)" />
<use xlink:href="#f1_1w" transform="matrix(12,0,0,12,639.1,928)" />
<use xlink:href="#f1_25" transform="matrix(12,0,0,12,648.7,928)" />
<use xlink:href="#f1_1p" transform="matrix(12,0,0,12,657.9,928)" />
<use xlink:href="#f1_1y" transform="matrix(12,0,0,12,666,928)" />
<use xlink:href="#f1_1n" transform="matrix(12,0,0,12,675.2,928)" />
<use xlink:href="#f1_1p" transform="matrix(12,0,0,12,683.3,928)" />
<use xlink:href="#f1_1l" transform="matrix(12,0,0,12,696.1,928)" />
<use xlink:href="#f1_1y" transform="matrix(12,0,0,12,704.2,928)" />
<use xlink:href="#f1_1o" transform="matrix(12,0,0,12,713.4,928)" />
<use xlink:href="#f1_24" transform="matrix(12,0,0,12,727.1,928)" />
<use xlink:href="#f1_1s" transform="matrix(12,0,0,12,732.2,928)" />
<use xlink:href="#f1_1p" transform="matrix(12,0,0,12,741.4,928)" />
<use xlink:href="#f1_1l" transform="matrix(12,0,0,12,183.9,959.6)" />
<use xlink:href="#f1_1m" transform="matrix(12,0,0,12,192,959.6)" />
<use xlink:href="#f1_1t" transform="matrix(12,0,0,12,201.2,959.6)" />
<use xlink:href="#f1_1w" transform="matrix(12,0,0,12,206.3,959.6)" />
<use xlink:href="#f1_1t" transform="matrix(12,0,0,12,211.4,959.6)" />
<use xlink:href="#f1_24" transform="matrix(12,0,0,12,216.5,959.6)" />
<use xlink:href="#f1_29" transform="matrix(12,0,0,12,221.6,959.6)" />
<use xlink:href="#f1_24" transform="matrix(12,0,0,12,235.3,959.6)" />
<use xlink:href="#f1_1z" transform="matrix(12,0,0,12,240.4,959.6)" />
<use xlink:href="#f1_1x" transform="matrix(12,0,0,12,254.2,959.6)" />
<use xlink:href="#f1_1z" transform="matrix(12,0,0,12,268.4,959.6)" />
<use xlink:href="#f1_1y" transform="matrix(12,0,0,12,277.6,959.6)" />
<use xlink:href="#f1_1p" transform="matrix(12,0,0,12,286.7,959.6)" />
<use xlink:href="#f1_24" transform="matrix(12,0,0,12,294.9,959.6)" />
<use xlink:href="#f1_1t" transform="matrix(12,0,0,12,300,959.6)" />
<use xlink:href="#f1_2a" transform="matrix(12,0,0,12,305.1,959.6)" />
<use xlink:href="#f1_1p" transform="matrix(12,0,0,12,313.2,959.6)" />
<use xlink:href="#f1_1z" transform="matrix(12,0,0,12,325.9,959.6)" />
<use xlink:href="#f1_22" transform="matrix(12,0,0,12,335.1,959.6)" />
<use xlink:href="#f1_23" transform="matrix(12,0,0,12,345.8,959.6)" />
<use xlink:href="#f1_1s" transform="matrix(12,0,0,12,352.9,959.6)" />
<use xlink:href="#f1_1l" transform="matrix(12,0,0,12,362.1,959.6)" />
<use xlink:href="#f1_22" transform="matrix(12,0,0,12,370.2,959.6)" />
<use xlink:href="#f1_1p" transform="matrix(12,0,0,12,376.3,959.6)" />
<use xlink:href="#f1_26" transform="matrix(12,0,0,12,389,959.6)" />
<use xlink:href="#f1_1l" transform="matrix(12,0,0,12,398.2,959.6)" />
<use xlink:href="#f1_1w" transform="matrix(12,0,0,12,406.3,959.6)" />
<use xlink:href="#f1_25" transform="matrix(12,0,0,12,411.4,959.6)" />
<use xlink:href="#f1_1p" transform="matrix(12,0,0,12,420.6,959.6)" />
<use xlink:href="#f1_1l" transform="matrix(12,0,0,12,433.3,959.6)" />
<use xlink:href="#f1_23" transform="matrix(12,0,0,12,441.5,959.6)" />
<use xlink:href="#f1_24" transform="matrix(12,0,0,12,453.2,959.6)" />
<use xlink:href="#f1_1s" transform="matrix(12,0,0,12,458.3,959.6)" />
<use xlink:href="#f1_1p" transform="matrix(12,0,0,12,467.4,959.6)" />
<use xlink:href="#f1_25" transform="matrix(12,0,0,12,480.2,959.6)" />
<use xlink:href="#f1_23" transform="matrix(12,0,0,12,489.3,959.6)" />
<use xlink:href="#f1_1p" transform="matrix(12,0,0,12,496.5,959.6)" />
<use xlink:href="#f1_22" transform="matrix(12,0,0,12,504.6,959.6)" />
<use xlink:href="#f1_1n" transform="matrix(12,0,0,12,515.3,959.6)" />
<use xlink:href="#f1_1s" transform="matrix(12,0,0,12,523.4,959.6)" />
<use xlink:href="#f1_1z" transform="matrix(12,0,0,12,532.6,959.6)" />
<use xlink:href="#f1_1z" transform="matrix(12,0,0,12,541.8,959.6)" />
<use xlink:href="#f1_23" transform="matrix(12,0,0,12,550.9,959.6)" />
<use xlink:href="#f1_1p" transform="matrix(12,0,0,12,558.1,959.6)" />
<use xlink:href="#f1_23" transform="matrix(12,0,0,12,566.2,959.6)" />
<use xlink:href="#f1_f" transform="matrix(12,0,0,12,573.3,959.6)" />
<use xlink:href="#f1_1e" transform="matrix(12,0,0,12,582.5,959.6)" />
<use xlink:href="#f1_1s" transform="matrix(12,0,0,12,593.7,959.6)" />
<use xlink:href="#f1_1p" transform="matrix(12,0,0,12,602.9,959.6)" />
<use xlink:href="#f1_23" transform="matrix(12,0,0,12,611,959.6)" />
<use xlink:href="#f1_1p" transform="matrix(12,0,0,12,618.1,959.6)" />
<use xlink:href="#f1_1o" transform="matrix(12,0,0,12,630.8,959.6)" />
<use xlink:href="#f1_1p" transform="matrix(12,0,0,12,640,959.6)" />
<use xlink:href="#f1_24" transform="matrix(12,0,0,12,648.2,959.6)" />
<use xlink:href="#f1_1l" transform="matrix(12,0,0,12,653.2,959.6)" />
<use xlink:href="#f1_1t" transform="matrix(12,0,0,12,661.4,959.6)" />
<use xlink:href="#f1_1w" transform="matrix(12,0,0,12,666.5,959.6)" />
<use xlink:href="#f1_23" transform="matrix(12,0,0,12,671.6,959.6)" />
<use xlink:href="#f1_27" transform="matrix(12,0,0,12,683.3,959.6)" />
<use xlink:href="#f1_1t" transform="matrix(12,0,0,12,696.5,959.6)" />
<use xlink:href="#f1_1w" transform="matrix(12,0,0,12,701.6,959.6)" />
<use xlink:href="#f1_1w" transform="matrix(12,0,0,12,706.7,959.6)" />
<use xlink:href="#f1_1m" transform="matrix(12,0,0,12,716.4,959.6)" />
<use xlink:href="#f1_1p" transform="matrix(12,0,0,12,725.6,959.6)" />
<use xlink:href="#f1_1l" transform="matrix(12,0,0,12,183.9,991.5)" />
<use xlink:href="#f1_1m" transform="matrix(12,0,0,12,192,991.5)" />
<use xlink:href="#f1_23" transform="matrix(12,0,0,12,201.2,991.5)" />
<use xlink:href="#f1_24" transform="matrix(12,0,0,12,208.3,991.5)" />
<use xlink:href="#f1_22" transform="matrix(12,0,0,12,213.4,991.5)" />
<use xlink:href="#f1_1l" transform="matrix(12,0,0,12,219.5,991.5)" />
<use xlink:href="#f1_1n" transform="matrix(12,0,0,12,227.7,991.5)" />
<use xlink:href="#f1_24" transform="matrix(12,0,0,12,235.8,991.5)" />
<use xlink:href="#f1_1p" transform="matrix(12,0,0,12,240.9,991.5)" />
<use xlink:href="#f1_1o" transform="matrix(12,0,0,12,249,991.5)" />
<use xlink:href="#f1_1m" transform="matrix(12,0,0,12,262.8,991.5)" />
<use xlink:href="#f1_29" transform="matrix(12,0,0,12,271.9,991.5)" />
<use xlink:href="#f1_1l" transform="matrix(12,0,0,12,285.7,991.5)" />
<use xlink:href="#f1_1y" transform="matrix(12,0,0,12,293.8,991.5)" />
<use xlink:href="#f1_1t" transform="matrix(12,0,0,12,307.6,991.5)" />
<use xlink:href="#f1_1y" transform="matrix(12,0,0,12,312.7,991.5)" />
<use xlink:href="#f1_24" transform="matrix(12,0,0,12,321.8,991.5)" />
<use xlink:href="#f1_25" transform="matrix(12,0,0,12,326.9,991.5)" />
<use xlink:href="#f1_1t" transform="matrix(12,0,0,12,336.1,991.5)" />
<use xlink:href="#f1_24" transform="matrix(12,0,0,12,341.2,991.5)" />
<use xlink:href="#f1_1t" transform="matrix(12,0,0,12,346.3,991.5)" />
<use xlink:href="#f1_26" transform="matrix(12,0,0,12,351.4,991.5)" />
<use xlink:href="#f1_1p" transform="matrix(12,0,0,12,360.5,991.5)" />
<use xlink:href="#f1_25" transform="matrix(12,0,0,12,373.3,991.5)" />
<use xlink:href="#f1_23" transform="matrix(12,0,0,12,382.4,991.5)" />
<use xlink:href="#f1_1p" transform="matrix(12,0,0,12,389.6,991.5)" />
<use xlink:href="#f1_22" transform="matrix(12,0,0,12,397.7,991.5)" />
<use xlink:href="#f1_1t" transform="matrix(12,0,0,12,408.4,991.5)" />
<use xlink:href="#f1_1y" transform="matrix(12,0,0,12,413.5,991.5)" />
<use xlink:href="#f1_24" transform="matrix(12,0,0,12,422.6,991.5)" />
<use xlink:href="#f1_1p" transform="matrix(12,0,0,12,427.7,991.5)" />
<use xlink:href="#f1_22" transform="matrix(12,0,0,12,435.9,991.5)" />
<use xlink:href="#f1_1q" transform="matrix(12,0,0,12,442,991.5)" />
<use xlink:href="#f1_1l" transform="matrix(12,0,0,12,448.1,991.5)" />
<use xlink:href="#f1_1n" transform="matrix(12,0,0,12,456.2,991.5)" />
<use xlink:href="#f1_1p" transform="matrix(12,0,0,12,464.4,991.5)" />
<use xlink:href="#f1_1m" transform="matrix(12,0,0,12,477.1,991.5)" />
<use xlink:href="#f1_25" transform="matrix(12,0,0,12,486.2,991.5)" />
<use xlink:href="#f1_24" transform="matrix(12,0,0,12,495.4,991.5)" />
<use xlink:href="#f1_27" transform="matrix(12,0,0,12,505.1,991.5)" />
<use xlink:href="#f1_1t" transform="matrix(12,0,0,12,518.3,991.5)" />
<use xlink:href="#f1_1w" transform="matrix(12,0,0,12,523.4,991.5)" />
<use xlink:href="#f1_1w" transform="matrix(12,0,0,12,528.5,991.5)" />
<use xlink:href="#f1_1l" transform="matrix(12,0,0,12,538.2,991.5)" />
<use xlink:href="#f1_1w" transform="matrix(12,0,0,12,546.3,991.5)" />
<use xlink:href="#f1_23" transform="matrix(12,0,0,12,551.4,991.5)" />
<use xlink:href="#f1_1z" transform="matrix(12,0,0,12,558.6,991.5)" />
<use xlink:href="#f1_1m" transform="matrix(12,0,0,12,572.3,991.5)" />
<use xlink:href="#f1_1p" transform="matrix(12,0,0,12,581.5,991.5)" />
<use xlink:href="#f1_1l" transform="matrix(12,0,0,12,594.2,991.5)" />
<use xlink:href="#f1_1n" transform="matrix(12,0,0,12,602.3,991.5)" />
<use xlink:href="#f1_1n" transform="matrix(12,0,0,12,610.5,991.5)" />
<use xlink:href="#f1_1p" transform="matrix(12,0,0,12,618.6,991.5)" />
<use xlink:href="#f1_23" transform="matrix(12,0,0,12,626.8,991.5)" />
<use xlink:href="#f1_23" transform="matrix(12,0,0,12,633.9,991.5)" />
<use xlink:href="#f1_1t" transform="matrix(12,0,0,12,641,991.5)" />
<use xlink:href="#f1_1m" transform="matrix(12,0,0,12,646.1,991.5)" />
<use xlink:href="#f1_1w" transform="matrix(12,0,0,12,655.3,991.5)" />
<use xlink:href="#f1_1p" transform="matrix(12,0,0,12,660.4,991.5)" />
<use xlink:href="#f1_24" transform="matrix(12,0,0,12,673.1,991.5)" />
<use xlink:href="#f1_1z" transform="matrix(12,0,0,12,678.2,991.5)" />
<use xlink:href="#f1_20" transform="matrix(12,0,0,12,691.9,991.5)" />
<use xlink:href="#f1_1z" transform="matrix(12,0,0,12,701.1,991.5)" />
<use xlink:href="#f1_27" transform="matrix(12,0,0,12,710.3,991.5)" />
<use xlink:href="#f1_1p" transform="matrix(12,0,0,12,723.5,991.5)" />
<use xlink:href="#f1_22" transform="matrix(12,0,0,12,731.7,991.5)" />
<use xlink:href="#f1_25" transform="matrix(12,0,0,12,183.9,1023)" />
<use xlink:href="#f1_23" transform="matrix(12,0,0,12,193,1023)" />
<use xlink:href="#f1_1p" transform="matrix(12,0,0,12,200.2,1023)" />
<use xlink:href="#f1_22" transform="matrix(12,0,0,12,208.3,1023)" />
<use xlink:href="#f1_23" transform="matrix(12,0,0,12,214.4,1023)" />
<use xlink:href="#f1_26" transform="matrix(12,0,0,12,226.1,1023)" />
<use xlink:href="#f1_1t" transform="matrix(12,0,0,12,235.3,1023)" />
<use xlink:href="#f1_1l" transform="matrix(12,0,0,12,240.4,1023)" />
<use xlink:href="#f1_20" transform="matrix(12,0,0,12,253.1,1023)" />
<use xlink:href="#f1_25" transform="matrix(12,0,0,12,262.3,1023)" />
<use xlink:href="#f1_1m" transform="matrix(12,0,0,12,271.5,1023)" />
<use xlink:href="#f1_1w" transform="matrix(12,0,0,12,280.6,1023)" />
<use xlink:href="#f1_1t" transform="matrix(12,0,0,12,285.7,1023)" />
<use xlink:href="#f1_1n" transform="matrix(12,0,0,12,290.8,1023)" />
<use xlink:href="#f1_v" transform="matrix(12,0,0,12,303.5,1023)" />
<use xlink:href="#f1_1a" transform="matrix(12,0,0,12,316.8,1023)" />
<use xlink:href="#f1_13" transform="matrix(12,0,0,12,327,1023)" />
<use xlink:href="#f1_f" transform="matrix(12,0,0,12,333.1,1023)" />
</g>
</g>
<image preserveAspectRatio="none" x="184" y="235" width="648" height="255" xlink:href="img/1.png" />
<defs>
	<path d="M34.2,0l0,27.4l33.7,0c0,0,44.1,0,71,15.7c0,0,19.4,10.4,29.9,35.8c0,0,8.2,18,8.2,94.2l0,665.8c0,0,0,77.8,-8.2,97.2c0,0,-8.3,19.4,-33.3,34c0,0,-25,14.5,-67.6,14.5l-33.7,0l0,27.4l853.1,0l0,-290.4l-30.3,0c0,0,-10.5,102.1,-53.4,151.3c0,0,-42.9,49.2,-124.2,69.3c0,0,-44.7,11.1,-165.6,11.1l-93.4,0l0,-415.5l28.4,0c0,0,67.1,0,109.6,20.1c0,0,42.5,20.2,72,67.9c0,0,29.5,47.7,38.4,129l26.4,0l0,-507.4l-26.4,0c0,0,-14.2,143.9,-77.2,189.8c0,0,-63,45.8,-142.8,45.8l-28.4,0l0,-309.9c0,0,0,-77.8,8.6,-97.2c0,0,8.5,-19.4,33.4,-34c0,0,25,-14.5,67.3,-14.5l33.5,0L563.2,0Z" 
	id="f0_r"
	transform="scale(0.001,-0.001)" />

	<path d="M32.3,0l0,26.4c0,0,46,1.5,68.2,27c0,0,14.9,17.2,14.9,91.3l0,406.8c0,0,0,74.1,-17.1,94.7c0,0,-17.1,20.6,-66,23.6l0,27.4l292.3,0l0,-552.5c0,0,0,-74.1,17.3,-94.7c0,0,17.4,-20.6,67.8,-23.6L409.7,0ZM219.6,803.7c0,0,-47.8,0,-81.4,33.6c0,0,-33.6,33.6,-33.6,81.4c0,0,0,47.8,33.6,81.8c0,0,33.6,34,81.4,34c0,0,48.6,0,82.2,-34c0,0,33.6,-34,33.6,-81.8c0,0,0,-47.8,-34,-81.4c0,0,-34,-33.6,-81.8,-33.6Z" 
	id="f0_1h"
	transform="scale(0.001,-0.001)" />

	<path d="M393.1,-277.6c0,0,104,0,163.4,27.6c0,0,59.5,27.5,59.5,77.4c0,0,0,18.7,-11.2,31.3c0,0,-20.2,22.3,-61,30.5c0,0,-40.8,8.2,-217.3,8.2c0,0,-76.3,0,-101,-12.6c0,0,-42.7,-23.1,-42.7,-62.6c0,0,0,-38,44.2,-68.9c0,0,44.1,-30.9,166.1,-30.9ZM366.5,253.2c0,0,44.9,0,74.8,41.2c0,0,30,41.1,30,160c0,0,0,133.8,-33.7,182.4c0,0,-23.9,35.9,-67.4,35.9c0,0,-43.4,0,-73.3,-43.7c0,0,-30,-43.8,-30,-181.3c0,0,0,-111.5,29.6,-153c0,0,29.6,-41.5,70,-41.5Zm7.8,-582.6c0,0,-94.1,0,-171.7,18.3c0,0,-77.7,18.3,-111.3,50.7c0,0,-33.6,32.5,-33.6,68.3c0,0,0,34.3,25.7,61.6c0,0,25.7,27.2,95.7,45.9c0,0,-97,47.6,-97,132.5c0,0,0,51.3,39.5,99.8c0,0,39.6,48.4,125.3,84.2c0,0,-99.8,36.5,-144.5,96.3c0,0,-44.7,59.7,-44.7,138.1c0,0,0,102.3,83.6,177.3c0,0,83.6,75.1,215,75.1c0,0,69.4,0,143.3,-29.4l234.7,0l0,-82.1l-133.2,0c0,0,36.6,-36.5,50.8,-66.4c0,0,17.9,-40.3,17.9,-84.3c0,0,0,-74.6,-41.5,-129.5c0,0,-41.4,-54.9,-112.8,-85.8c0,0,-71.3,-31,-126.6,-31c0,0,-4.5,0,-89.7,3.8c0,0,-33.6,0,-56.4,-22c0,0,-22.8,-21.9,-22.8,-52.4c0,0,0,-26.7,20.5,-43.8c0,0,20.6,-17.1,67,-17.1l129.3,1.5c0,0,156.9,0,216,-34.4c0,0,84.4,-47.6,84.4,-146.9c0,0,0,-63.4,-38.8,-115.2c0,0,-38.8,-51.9,-102.3,-76.5c0,0,-96.3,-36.6,-221.8,-36.6Z" 
	id="f0_1f"
	transform="scale(0.001,-0.001)" />

	<path d="M304.3,-20.4c0,0,-59,0,-104.8,36c0,0,-45.9,36.1,-61.6,84.5c0,0,-15.7,48.5,-15.7,169.1l0,276.4c0,0,0,79.3,-14.5,98.7c0,0,-14.6,19.5,-60.8,25.5l0,27.4l284.6,0l0,-476c0,0,0,-74.5,7,-96.1c0,0,7.1,-21.6,22.4,-32.8c0,0,15.3,-11.1,35.4,-11.1c0,0,26.8,0,48.4,14.1c0,0,29.8,19.4,71.6,78.2l0,372.1c0,0,0,79.3,-14.6,98.7c0,0,-14.5,19.5,-60.7,25.5l0,27.4l284.5,0l0,-545.6c0,0,0,-80.2,14.9,-100.1c0,0,14.9,-19.9,60.4,-25.1L800.8,0L516.3,0l0,93.3c0,0,-50,-59.7,-100,-86.8c0,0,-50,-26.9,-112,-26.9Z" 
	id="f0_1s"
	transform="scale(0.001,-0.001)" />

	<path d="M56.7,0l0,26.4c0,0,45.3,3.7,61.3,25.1c0,0,16,21.3,16,112.8l0,385.2c0,0,0,59.8,-6,76.2c0,0,-7.4,20.9,-21.5,30.6c0,0,-14.1,9.8,-49.8,13.5l0,27.4l285.5,0l0.3,-157.8c0,0,69.2,108.3,121.3,143.8c0,0,52,35.5,100.4,35.5c0,0,41.4,0,66.2,-25.7c0,0,24.7,-25.7,24.7,-72.7c0,0,0,-49.9,-24.3,-77.4c0,0,-24.3,-27.6,-58.8,-27.6c0,0,-38.9,0,-67.6,25.2c0,0,-28.6,25.1,-33.8,28c0,0,-7.3,4.5,-16.9,4.5c0,0,-21.6,0,-40.9,-16.4c0,0,-30.5,-25.4,-46.1,-72.4c0,0,-23.8,-72.4,-23.8,-159.7l0.2,-160.4l0.1,-41.9c0,0,0,-42.6,5.2,-54.6c0,0,9,-20.3,26.5,-29.6c0,0,17.5,-9.4,59.2,-11.6L434.1,0Z" 
	id="f0_1p"
	transform="scale(0.001,-0.001)" />

	<path d="M458.1,424.4c0,0,0,119.7,-13,164.3c0,0,-13,44.6,-40.4,67.7c0,0,-15.6,13.4,-41.6,13.4c0,0,-38.6,0,-63.1,-38c0,0,-43.8,-66.1,-43.8,-181.4l0,-26ZM357.8,-20.4c0,0,-155.2,0,-235,119.2c0,0,-64.1,96.2,-64.1,238.7c0,0,0,174.6,94.3,277.9c0,0,94.4,103.3,221.2,103.3c0,0,105.9,0,183.8,-86.8c0,0,78,-86.8,83.9,-257.4l-382.8,0c0,0,6.7,-138.9,73.9,-219.6c0,0,51.5,-62,123.9,-62c0,0,44.7,0,81.3,25.1c0,0,36.6,25.1,78.4,90.3l25.3,-16.6c0,0,-56.7,-115.8,-125.3,-164c0,0,-68.6,-48.1,-158.8,-48.1Z" 
	id="f0_1d"
	transform="scale(0.001,-0.001)" />

	<path d="M37.2,0l0,16.4c0,0,275,326.2,333.2,438.8c0,0,58.2,112.7,58.2,220.2c0,0,0,78.4,-48.6,130.2c0,0,-48.5,51.9,-118.8,51.9c0,0,-115,0,-178.5,-115l-27.6,9.7c0,0,40.3,143.2,122.4,211.8c0,0,82.2,68.5,189.7,68.5c0,0,76.9,0,140.3,-35.8c0,0,63.5,-35.8,99.3,-98.1c0,0,35.9,-62.3,35.9,-116.7c0,0,0,-99.2,-55.3,-201.4c0,0,-75.4,-138,-329.2,-384.9l218.7,0c0,0,80.6,0,104.9,6.6c0,0,24.2,6.8,39.9,22.8c0,0,15.7,16,41.1,67.4l26.8,0L633,0Z" 
	id="f0_d"
	transform="scale(0.001,-0.001)" />

	<path d="M254.3,-18.5c0,0,-51.6,0,-87.9,36.1c0,0,-36.4,36.2,-36.4,87.6c0,0,0,51.5,36.3,88c0,0,36.4,36.6,88,36.6c0,0,52.4,0,88.7,-36.6c0,0,36.4,-36.5,36.4,-88c0,0,0,-51.4,-36.7,-87.6c0,0,-36.7,-36.1,-88.4,-36.1Zm1.4,488.8c0,0,-51.4,0,-87.6,36.2c0,0,-36.1,36.1,-36.1,87.5c0,0,0,51.4,36.1,87.5c0,0,36.2,36.2,87.6,36.2c0,0,51.4,0,87.5,-36.2c0,0,36.2,-36.1,36.2,-87.5c0,0,0,-51.4,-36.2,-87.5c0,0,-36.1,-36.2,-87.5,-36.2Z" 
	id="f0_l"
	transform="scale(0.001,-0.001)" />

	<path d="M548.5,-23.4c0,0,-131.3,0,-202.9,35c0,0,-97.8,47.8,-138.1,122.4c0,0,-40.3,74.6,-40.3,200.7l0,495.4c0,0,0,87.4,-9.7,108.6c0,0,-9.7,21.3,-33.5,34c0,0,-22.5,12,-82.4,12c-1.8,0,-3.6,0,-5.4,-0.1l0,27.4l522.1,0l0,-27.4l-26.1,0c0,0,-58.9,0,-80.9,-12.3c0,0,-22,-12.3,-31.3,-33.9c0,0,-9.3,-21.7,-9.3,-108.3l0,-495.3c0,0,0,-135.8,20.5,-179.8c0,0,20.5,-44,67.5,-73.1c0,0,47,-29.1,118.7,-29.1c0,0,82.1,0,139.9,36.9c0,0,57.8,37,86.6,101.9c0,0,28.7,64.9,28.7,226l0,412.5c0,0,0,68,-14.2,97.1c0,0,-14.1,29.1,-35.8,40.3c0,0,-33.5,17.1,-94.7,17.1l0,27.4l350,0l0,-27.4l-20.9,0c0,0,-42.6,0,-71,-17.1c0,0,-28.4,-17.2,-41.1,-51.5c0,0,-9.7,-23.9,-9.7,-85.9l0,-384.2c0,0,0,-178.4,-23.6,-257.4c0,0,-23.5,-79.1,-114.5,-145.5c0,0,-91.1,-66.4,-248.6,-66.4Z" 
	id="f0_15"
	transform="scale(0.001,-0.001)" />

	<path d="M311.6,-20.4c0,0,-49.9,0,-133.4,30.9c0,0,-22.4,8.1,-30.6,8.1c0,0,-24.6,0,-41,-37.1l-24.5,0L70.4,231.7l26.4,0c0,0,33.4,-98.2,91.6,-147.4c0,0,58.2,-49.1,110.2,-49.1c0,0,35.6,0,58.2,22c0,0,22.7,22,22.7,53.4c0,0,0,35.8,-22.4,61.9c0,0,-22.3,26.1,-99.8,79.1c0,0,-114,79.1,-147.5,120.9c0,0,-49.2,61.1,-49.2,135c0,0,0,80.6,55.5,145.9c0,0,55.5,65.3,160.5,65.3c0,0,56.6,0,109.5,-27.9c0,0,20.1,-11.2,32.8,-11.2c0,0,13.4,0,21.5,5.5c0,0,8.2,5.6,26.1,31.6l26.4,0L503.6,479.1l-26.3,0c0,0,-45.3,106.1,-93.9,145c0,0,-48.6,38.8,-96.8,38.8c0,0,-30.4,0,-51.9,-20.5c0,0,-21.5,-20.5,-21.5,-47.4c0,0,0,-20.1,14.8,-38.8c0,0,23.8,-30.6,133.2,-104.8c0,0,109.4,-74.2,144,-126.1c0,0,34.6,-51.9,34.6,-116c0,0,0,-58.2,-29.1,-114.2c0,0,-29.1,-56,-82,-85.8c0,0,-53,-29.7,-117.1,-29.7Z" 
	id="f0_1q"
	transform="scale(0.001,-0.001)" />

	<path d="M244.5,0l0,27.4l33.4,0c0,0,43.9,0,70.6,15.7c0,0,19.4,10.4,30.5,35.8c0,0,8.2,18,8.2,94.2l0,780.2l-73.3,0c0,0,-102.8,0,-149.3,-43.1c0,0,-65.2,-60.3,-82.5,-171.9l-27.3,0l0,273.7l910.3,0l0,-273.7l-27.4,0c0,0,-23.8,94.5,-52.9,135.8c0,0,-29.1,41.3,-79.7,65.8c0,0,-28.4,13.4,-99.1,13.4l-75.3,0l0,-780.2c0,0,0,-77.8,8.5,-97.2c0,0,8.6,-19.4,33.5,-34c0,0,25,-14.5,68.2,-14.5l33.5,0L774.4,0Z" 
	id="f0_14"
	transform="scale(0.001,-0.001)" />

	<path d="M349.7,115.4c0,0,37.4,0,86.6,42l0,233.9c0,0,-90.3,-53.1,-134.4,-113.7c0,0,-29.1,-40.3,-29.1,-81.4c0,0,0,-34.5,24.6,-60.6c0,0,18.7,-20.2,52.3,-20.2ZM207.2,-9.7c0,0,-59.7,0,-99.2,39.1c0,0,-39.6,39.2,-39.6,98.2c0,0,0,79.9,68.7,143.8c0,0,68.7,63.9,299.2,169.9l0,70.1c0,0,0,79,-8.5,99.5c0,0,-8.6,20.5,-32.4,35.8c0,0,-23.8,15.3,-53.6,15.3c0,0,-48.3,0,-79.6,-21.7c0,0,-19.5,-13.4,-19.5,-31.3c0,0,0,-15.6,20.9,-38.7c0,0,28.4,-32.1,28.4,-61.9c0,0,0,-36.5,-27.2,-62.2c0,0,-27.3,-25.8,-71.3,-25.8c0,0,-47,0,-78.7,28.4c0,0,-31.7,28.3,-31.7,66.3c0,0,0,53.7,42.5,102.5c0,0,42.5,48.9,118.6,75c0,0,76,26.1,158,26.1c0,0,99.2,0,157,-42.2c0,0,57.8,-42.1,75,-91.4c0,0,10.4,-31.3,10.4,-144l0,-270.7c0,0,0,-47.8,3.7,-60.1c0,0,3.8,-12.3,11.2,-18.3c0,0,7.5,-5.9,17.4,-5.9c0,0,19.2,0,39.2,28.1L738.5,95.9c0,0,-37.3,-55.4,-77.2,-80.5c0,0,-39.9,-25.1,-90.7,-25.1c0,0,-59.6,0,-93.2,27.9c0,0,-33.6,27.9,-41.1,84.5c0,0,-127.6,-112.4,-229.1,-112.4Z" 
	id="f0_19"
	transform="scale(0.001,-0.001)" />

	<path d="M51.8,0l0,26.4c0,0,44,4.5,62.6,28.3c0,0,12.7,16.4,12.7,96.9l0,394c0,0,0,79.3,-14.5,98.7c0,0,-14.6,19.5,-60.8,25.5l0,27.4l284.6,0l0,-90c0,0,53.8,58.4,103.1,84.9c0,0,49.4,26.6,106.2,26.6c0,0,68.1,0,112.9,-37.8c0,0,44.9,-37.7,59.8,-93.7c0,0,12,-42.6,12,-163.7l0,-271.9c0,0,0,-80.5,14.5,-100.2c0,0,14.6,-19.8,60.8,-25L805.7,0l-354,0l0,26.4c0,0,40,5.2,57.4,32.8c0,0,12.1,18.6,12.1,92.4l0,310.9c0,0,0,86,-6.8,108.4c0,0,-6.7,22.4,-22.8,34.7c0,0,-16.1,12.4,-35.5,12.4c0,0,-64.4,0,-119.7,-91.9l0,-374.5c0,0,0,-78.3,14.7,-99.1c0,0,14.7,-20.9,54.7,-26.1L405.8,0Z" 
	id="f0_1m"
	transform="scale(0.001,-0.001)" />

	<path d="M365.1,-20.4c0,0,-139.4,0,-222.9,105c0,0,-83.5,105.2,-83.5,252.9c0,0,0,142.5,76.1,250.6c0,0,91.7,130.6,252.8,130.6c0,0,108.2,0,172,-54.4c0,0,63.8,-54.4,63.8,-121.4c0,0,0,-42.5,-25.7,-67.8c0,0,-25.8,-25.3,-67.6,-25.3c0,0,-44,0,-72.7,29.1c0,0,-28.7,29.1,-35.4,103.7c0,0,-4.5,47,-21.7,65.6c0,0,-17.1,18.7,-40.2,18.7c0,0,-35.9,0,-61.2,-38.1c0,0,-38.8,-57.4,-38.8,-175.9c0,0,0,-98.4,31.3,-188.2c0,0,31.3,-89.9,85.7,-133.9c0,0,41,-32,96.9,-32c0,0,36.5,0,69.2,17.1c0,0,32.8,17.2,77.6,64.9l23.1,-17.9c0,0,-49.2,-92.9,-122.6,-138.1c0,0,-73.5,-45.2,-156.2,-45.2Z" 
	id="f0_1b"
	transform="scale(0.001,-0.001)" />

	<path d="M297.7,-9.7c0,0,-66.4,0,-112.3,36.9c0,0,-46,36.9,-58.7,82.4c0,0,-7.4,25.4,-7.4,137.4l0,376.8l-90.9,0l0,26.1c0,0,94.1,66.3,160.1,139.3c0,0,66.1,73,115.4,163.2l24.6,0l0,-255.2l165.3,0l0,-73.4l-165.3,0l0,-430.4c0,0,0,-60.4,5.6,-77.9c0,0,5.6,-17.6,19.8,-28.4c0,0,14.2,-10.8,26.1,-10.8c0,0,48.5,0,91.7,74.3l22.4,-16.5c0,0,-60.5,-143.8,-196.4,-143.8Z" 
	id="f0_1r"
	transform="scale(0.001,-0.001)" />

	<path d="M381,31.3c0,0,33.4,0,55.7,18.6c0,0,28.9,25.4,38.6,70.9c0,0,14.8,70.8,14.8,286.3c0,0,0,126.8,-14.1,174.1c0,0,-14.1,47.4,-41.6,69c0,0,-19.3,15.7,-50.5,15.7c0,0,-37.9,0,-65,-28.7c0,0,-27.1,-28.7,-35.6,-113.4c0,0,-8.5,-84.6,-8.5,-235.2c0,0,0,-79.8,10.4,-149.2c0,0,8.1,-52.9,34.9,-80.5c0,0,26.7,-27.6,60.9,-27.6Zm1.8,-51.7c0,0,-157.2,0,-242.1,110.3c0,0,-85,110.3,-85,255.8c0,0,0,149.9,86.8,261.5c0,0,86.8,111.5,238.1,111.5c0,0,90.9,0,169.1,-47c0,0,78.2,-47,118.8,-133.5c0,0,40.6,-86.6,40.6,-189.5c0,0,0,-148.5,-75.2,-248.4c0,0,-90.9,-120.7,-251.1,-120.7Z" 
	id="f0_1n"
	transform="scale(0.001,-0.001)" />

	<path d="M609.8,343.2L458.6,690.3L303.8,343.2ZM11.6,0l0,27.4c0,0,54.5,8.2,89.6,45.2c0,0,35,37.1,86.5,153.1l361.6,806.8l14.1,0L928,203.3c0,0,52.2,-118.3,85.8,-149c0,0,25.4,-23.2,71.6,-26.9l0,-27.4L596.1,0l0,27.4l20.2,0c0,0,58.9,0,82.8,16.4c0,0,16.4,12,16.4,34.5c0,0,0,13.5,-4.5,27.7c0,0,-1.5,6.7,-22.4,56.1l-55,126.4l-354.2,0l-44,-98.7c0,0,-20.9,-49.4,-20.9,-81.6c0,0,0,-42.7,34.3,-62.9c0,0,20.2,-11.9,99.2,-17.9L348,0Z" 
	id="f0_m"
	transform="scale(0.001,-0.001)" />

	<path d="M51.8,0l0,26.4c0,0,44,4.5,62.6,28.5c0,0,12.7,16.5,12.7,96.7l0,708.9c0,0,0,79.3,-14.5,98.7c0,0,-14.6,19.4,-60.8,25.4l0,27.4l284.6,0l0,-403.7c0,0,57.4,60.4,105.2,85.4c0,0,47.7,25,99.2,25c0,0,65.7,0,112.3,-37.3c0,0,46.7,-37.3,62,-87.7c0,0,15.3,-50.4,15.3,-169.8l0,-272.3c0,0,0,-80.2,14.9,-100.1c0,0,14.9,-19.9,60.4,-25.1L805.7,0l-354,0l0,26.4c0,0,37.4,5.2,56,30c0,0,13.5,19.5,13.5,95.2l0,311.1c0,0,0,86.6,-6.8,108.6c0,0,-6.7,22,-22.7,34.3c0,0,-16,12.4,-36.1,12.4c0,0,-29.8,0,-58.1,-20.6c0,0,-28.4,-20.5,-61.1,-72l0,-373.8c0,0,0,-75,11.2,-93.7c0,0,14.1,-25.5,58.2,-31.5L405.8,0Z" 
	id="f0_1g"
	transform="scale(0.001,-0.001)" />

	<path d="M610.3,-22.4c0,0,-161.8,0,-287.5,64.8c0,0,-125.7,64.8,-193.9,186.3c0,0,-68.3,121.5,-68.3,258.7c0,0,0,144.6,75.7,274.3c0,0,75.8,129.7,204.4,201.2c0,0,128.7,71.6,273.5,71.6c0,0,106.6,0,225.3,-46.4c0,0,68.6,-26.9,87.2,-26.9c0,0,23.9,0,41.4,17.5c0,0,17.6,17.6,22.8,55.8l29.3,0l0,-351l-29.3,0c0,0,-32.8,137.3,-122.4,210.4c0,0,-89.5,73.1,-202.9,73.1c0,0,-94.7,0,-173.8,-54.3c0,0,-79.1,-54.4,-115.6,-142.3c0,0,-47,-112.5,-47,-250.3c0,0,0,-135.5,34.3,-246.9c0,0,34.3,-111.3,107.4,-168.3c0,0,73.1,-57,189.4,-57c0,0,95.5,0,174.9,41.8c0,0,79.4,41.7,167.4,143.8l0,-87.3c0,0,-85,-88.8,-177.1,-128.7c0,0,-92.1,-39.9,-215.2,-39.9Z" 
	id="f0_o"
	transform="scale(0.001,-0.001)" />

	<path d="M32.3,0l0,26.4c0,0,46,1.5,68.2,27c0,0,14.9,17.2,14.9,91.3l0,722.6c0,0,0,73.2,-17.1,93.8c0,0,-17.1,20.5,-66,23.5l0,27.4l292.3,0l0,-867.3c0,0,0,-74.1,17.3,-94.7c0,0,17.3,-20.6,67.8,-23.6L409.7,0Z" 
	id="f0_1k"
	transform="scale(0.001,-0.001)" />

	<path d="M253.3,0l0,27.4l35.6,0c0,0,64,0,90.7,38.7c0,0,16.4,23.9,16.4,108.9l0,773.5l-121.7,0c0,0,-70.9,0,-100.7,-10.5c0,0,-38.8,-14.2,-66.4,-54.4c0,0,-27.6,-40.3,-32.9,-109l-28.3,0L57.7,1012l825.2,0L893.7,774.6l-28.4,0c0,0,-8.2,62.7,-22.3,89.6c0,0,-23,43.2,-61.4,63.7c0,0,-38.3,20.6,-100.8,20.6l-142,0l0,-773.5c0,0,0,-93.2,20.1,-116.3c0,0,28.4,-31.3,87.5,-31.3l35.1,0L681.5,0Z" 
	id="f1_1e"
	transform="scale(0.001,-0.001)" />

	<path d="M19.6,0l0,26.4c0,0,45.5,0,71.7,14.2c0,0,14.9,7.5,23.9,28.5c0,0,9,21,9,85.4l0,619c0,0,0,116.8,-5.6,143.6c0,0,-5.6,26.9,-17.1,36.5c0,0,-11.5,9.7,-30.8,9.7c0,0,-15.6,0,-50.5,-11.9L9.8,977.8l204.3,83.1l34.3,0l0,-500c0,0,82.7,90.8,131.1,116.4c0,0,48.4,25.7,96.8,25.7c0,0,58.1,0,99.9,-32c0,0,41.7,-32.1,61.8,-100.6c0,0,14.2,-47.7,14.2,-174.4l0,-241.5c0,0,0,-65.2,10.4,-89.2c0,0,7.5,-17.9,25.5,-28.4c0,0,17.9,-10.5,65.8,-10.5L753.9,0L417.5,0l0,26.4l15.7,0c0,0,47.8,0,66.4,14.6c0,0,18.7,14.6,26.2,43.1c0,0,2.2,12,2.2,70.4l0,241.6c0,0,0,111.8,-11.5,146.9c0,0,-11.6,35,-36.8,52.5c0,0,-25.3,17.6,-61,17.6c0,0,-36.5,0,-75.9,-19.4c0,0,-39.4,-19.4,-94.4,-78.3l0,-360.9c0,0,0,-70.4,7.8,-87.7c0,0,7.8,-17.2,29.1,-28.8c0,0,21.3,-11.6,73.5,-11.6L358.8,0Z" 
	id="f1_1s"
	transform="scale(0.001,-0.001)" />

	<path d="M479.1,469.3c0,0,-3.7,65.6,-15.7,92.5c0,0,-18.6,41.7,-55.6,65.6c0,0,-37,23.8,-77.4,23.8c0,0,-62,0,-110.9,-48.1c0,0,-49,-48.1,-57.2,-133.8ZM354.9,-20.4c0,0,-123,0,-210.6,95.7c0,0,-87.6,95.7,-87.6,257.5c0,0,0,175.2,89.9,273.2c0,0,89.8,98,225.5,98c0,0,114.8,0,188.7,-75.6c0,0,73.8,-75.5,73.8,-202.1l-472.3,0c0,0,-0.7,-152.3,73.8,-238.9c0,0,74.6,-86.7,175.2,-86.7c0,0,67.1,0,116.7,36.7c0,0,49.6,36.6,83.1,126.6l23.5,-14.9c0,0,-15.7,-102.5,-91,-186.1c0,0,-75.3,-83.4,-188.7,-83.4Z" 
	id="f1_1p"
	transform="scale(0.001,-0.001)" />

	<path d="M26.4,0l0,27.4l35.8,0c0,0,62.7,0,91,36.5c0,0,17.9,23.9,17.9,115l0,654.2c0,0,0,77.2,-9.7,101.8c0,0,-7.4,18.5,-30.6,31.9c0,0,-32.8,17.8,-68.6,17.8l-35.8,0l0,27.4l432.2,0l0,-27.4l-36.4,0c0,0,-35.6,0,-67.5,-17.1c0,0,-23,-11.8,-31.9,-36c0,0,-8.9,-24.1,-8.9,-98.4l0,-291.4l469.7,0l0,291.4c0,0,0,77.2,-9.7,101.8c0,0,-7.5,18.5,-31.3,31.9c0,0,-32.1,17.8,-67.9,17.8l-35.8,0l0,27.4l432.2,0l0,-27.4l-35.8,0c0,0,-35.8,0,-67.9,-17.1c0,0,-23.9,-11.8,-32.5,-36c0,0,-8.5,-24.1,-8.5,-98.4l0,-654.2c0,0,0,-76.9,9.6,-101.5c0,0,7.5,-18.7,30.6,-32.1c0,0,32.9,-17.9,68.7,-17.9l35.8,0l0,-27.4L638.9,0l0,27.4l35.8,0c0,0,61.9,0,90.3,36.5c0,0,18.6,23.9,18.6,115l0,308l-469.7,0l0,-308c0,0,0,-76.9,9.6,-101.5c0,0,7.4,-18.7,31.2,-32.1c0,0,31.9,-17.9,67.5,-17.9l36.4,0L458.6,0Z" 
	id="f1_12"
	transform="scale(0.001,-0.001)" />

	<path d="M285.9,72.4c0,0,56.7,0,149.2,74.5l0,259.9c0,0,-112.7,-44.7,-145.5,-63.3c0,0,-59,-32.8,-84.3,-68.5c0,0,-25.4,-35.8,-25.4,-78.3c0,0,0,-53.6,32.1,-88.9c0,0,32.1,-35.4,73.9,-35.4Zm-68.6,-86c0,0,-70.8,0,-116.7,48.3c0,0,-45.8,48.5,-45.8,127.4c0,0,0,50,22.3,86.5c0,0,30.6,50.6,106.3,95.3c0,0,75.7,44.7,251.7,108.8l0,26.7c0,0,0,101.9,-32.2,139.8c0,0,-32.3,37.9,-93.8,37.9c0,0,-46.7,0,-74.1,-25.3c0,0,-28.2,-25.2,-28.2,-57.9l1.5,-43c0,0,0,-34.2,-17.7,-52.8c0,0,-17.7,-18.5,-46.3,-18.5c0,0,-27.8,0,-45.5,19.3c0,0,-17.6,19.4,-17.6,52.9c0,0,0,64,65.6,117.6c0,0,65.6,53.6,184.1,53.6c0,0,91,0,149.1,-30.5c0,0,44,-23.1,64.9,-72.3c0,0,13.4,-32,13.4,-131l0,-231.6c0,0,0,-97.6,3.7,-119.6c0,0,3.8,-21.9,12.4,-29.4c0,0,8.6,-7.4,19.8,-7.4c0,0,11.9,0,20.9,5.2c0,0,15.7,9.7,60.5,54.4l0,-41.7c0,0,-83.6,-111.7,-159.8,-111.7c0,0,-36.6,0,-58.3,25.1c0,0,-21.6,25.2,-22.4,85.9c0,0,-105.1,-80.9,-132,-93.5c0,0,-40.3,-18.5,-85.8,-18.5Z" 
	id="f1_1l"
	transform="scale(0.001,-0.001)" />

	<path d="M20.5,0l0,26.4l15,0c0,0,52.1,0,70.4,26.6c0,0,18.3,26.6,18.3,101.5l0,253.3c0,0,0,123.6,-5.6,150.5c0,0,-5.6,27,-17.1,36.7c0,0,-11.5,9.7,-30.8,9.7c0,0,-20.8,0,-49.8,-11.2L9.8,619.9L216.2,703l32.2,0l0,-144.8c0,0,119.7,144.8,228.4,144.8c0,0,55.8,0,96,-27.9c0,0,40.2,-28,64,-92.1c0,0,16.4,-44.7,16.4,-137.1l0,-291.4c0,0,0,-65.2,10.4,-88.4c0,0,8.2,-18.7,26.5,-29.2c0,0,18.3,-10.5,67.7,-10.5L757.8,0L418.5,0l0,26.4l14.2,0c0,0,47.8,0,66.8,14.6c0,0,19,14.6,26.5,43.1c0,0,3,11.2,3,70.4l0,279.3c0,0,0,93.1,-24.1,135.2c0,0,-24,42.1,-81.1,42.1c0,0,-88.1,0,-175.4,-96.9l0,-359.7c0,0,0,-69.7,8.2,-86.2c0,0,10.5,-21.7,28.8,-31.8c0,0,18.3,-10.1,74.4,-10.1L359.8,0Z" 
	id="f1_1y"
	transform="scale(0.001,-0.001)" />

	<path d="M399,61.6c0,0,67.7,0,131,68.3l0,351c0,0,-4.5,51.1,-26.8,92.9c0,0,-22.3,41.8,-59.2,63c0,0,-36.8,21.3,-71.8,21.3c0,0,-65.4,0,-116.8,-58.9c0,0,-67.7,-77.6,-67.7,-226.7c0,0,0,-150.6,65.5,-230.7c0,0,65.5,-80.2,145.8,-80.2Zm-69.5,-82c0,0,-111.7,0,-195.2,93.4c0,0,-83.5,93.6,-83.5,240.4c0,0,0,146.8,92.4,268.7c0,0,92.4,121.9,237.7,121.9c0,0,90.2,0,149.1,-57.6l0,127.1c0,0,0,116.8,-5.6,143.6c0,0,-5.7,26.9,-17.6,36.5c0,0,-12,9.7,-29.9,9.7c0,0,-19.5,0,-51.6,-11.9l-9.7,26.4l203.9,83.1l33.7,0l0,-791c0,0,0,-119.9,5.6,-146.3c0,0,5.6,-26.4,17.9,-36.9c0,0,12.3,-10.4,28.8,-10.4c0,0,20.2,0,53.8,12.7l8.3,-26.4l-203.3,-83l-34.3,0l0,98.1C530,77.7,480,25,432.3,2.2c0,0,-47.7,-22.6,-102.8,-22.6Z" 
	id="f1_1o"
	transform="scale(0.001,-0.001)" />

	<path d="M312.2,-20.4c0,0,-62.7,0,-143.3,22.6c0,0,-24.6,7.6,-40.3,7.6c0,0,-17.2,0,-26.9,-19.5l-24.5,0l0,243.4l24.5,0c0,0,20.9,-104.4,79.9,-157.3c0,0,59,-52.9,132.1,-52.9c0,0,51.6,0,84.1,30.1c0,0,32.4,30.2,32.4,72.6c0,0,0,51.4,-36.2,86.4c0,0,-36.1,35.1,-144.4,88.6c0,0,-108.2,53.6,-141.8,96.8c0,0,-33.5,42.5,-33.5,107.4c0,0,0,84.3,57.8,140.9c0,0,57.8,56.7,149.6,56.7c0,0,40.3,0,97.7,-17.1c0,0,38.1,-11.2,50.7,-11.2c0,0,12,0,18.7,5.2c0,0,6.7,5.2,15.7,23.1l24.4,0l0,-232.7l-24.4,0c0,0,-28.4,109.7,-72.8,149.2c0,0,-44.4,39.5,-113,39.5c0,0,-52.2,0,-84.3,-27.5c0,0,-32.1,-27.6,-32.1,-61.1c0,0,0,-41.8,23.9,-71.6c0,0,23.2,-30.5,94.1,-64.8L389.2,381.1c0,0,151.5,-73.8,151.5,-194.5c0,0,0,-93.1,-70.5,-150.1c0,0,-70.6,-56.9,-158,-56.9Z" 
	id="f1_23"
	transform="scale(0.001,-0.001)" />

	<path d="M435.4,501.6c0,0,77.6,0,134,60c0,0,56.4,60.1,56.4,155.6c0,0,0,65.6,-26.9,121.9c0,0,-26.9,56.3,-76.2,84.3c0,0,-49.2,28,-112,28c0,0,-38.1,0,-97.8,-14.2l0,-420.7c0,0,39.6,-7.4,70.2,-11.2c0,0,30.6,-3.7,52.3,-3.7ZM25.4,0l0,27.4l38.1,0c0,0,64.1,0,91.7,41.8c0,0,14.9,23.1,14.9,109.7l0,654.2c0,0,0,95.5,-20.1,118.7c0,0,-29.1,32.8,-86.5,32.8l-38.1,0l0,27.4l370.7,0c0,0,135.8,0,214.1,-28c0,0,78.3,-28,132,-94.5c0,0,53.7,-66.4,53.7,-157.5c0,0,0,-124,-81.7,-201.6c0,0,-81.8,-77.7,-231.1,-77.7c0,0,-36.6,0,-79.1,5.3c0,0,-42.6,5.2,-91.1,15.8l0,-294.9c0,0,0,-95.5,20.8,-118.7c0,0,28.2,-32.8,85.3,-32.8l38.6,0L457.6,0Z" 
	id="f1_1a"
	transform="scale(0.001,-0.001)" />

	<path d="M57.7,0l0,26.4c0,0,47.4,0,64.8,9.7c0,0,17.3,9.8,27.1,32.2c0,0,9.8,22.5,9.8,86.2l0,620.9c0,0,0,115.6,-5.2,142.1c0,0,-5.3,26.5,-16.8,36.1c0,0,-11.6,9.7,-29.5,9.7c0,0,-19.4,0,-49.2,-11.9L46,977.8l203.9,83.1l33.7,0l0,-906.4c0,0,0,-64.4,9.3,-85.4c0,0,9.3,-21,28.7,-31.8c0,0,19.4,-10.9,72.4,-10.9L394,0Z" 
	id="f1_1w"
	transform="scale(0.001,-0.001)" />

	<path d="M254.7,-10.6c0,0,-34.3,0,-67.2,18.9c0,0,-32.9,19,-48.6,54.4c0,0,-15.7,35.5,-15.7,109.3l0,459.7l-108.5,0l0,24.4c0,0,41.2,16.4,84.2,55.5c0,0,43.1,39.1,76.9,92.9c0,0,17.3,28.4,48.1,103.9l23.5,0l0,-224.9l159.6,0l0,-51.8l-159.6,0l0,-443.6c0,0,0,-66.5,18.9,-89.6c0,0,18.9,-23.2,48.6,-23.2c0,0,24.5,0,47.5,15.3c0,0,23.1,15.4,35.7,45.3l29.3,0c0,0,-26.2,-73,-74,-109.8c0,0,-47.8,-36.7,-98.7,-36.7Z" 
	id="f1_24"
	transform="scale(0.001,-0.001)" />

	<path d="M62.6,0l0,26.4l30.5,0c0,0,29.8,0,54.4,15c0,0,24.5,15,33.8,40.5c0,0,9.4,25.5,9.4,99l0,448.8l-133,0l0,53.8l133,0l0,44.7c0,0,0,102,32.9,172.8c0,0,32.9,70.8,100.5,114.3c0,0,67.7,43.6,152.2,43.6c0,0,78.5,0,144.2,-50.6c0,0,43.4,-33.6,43.4,-75.3c0,0,0,-22.3,-19.4,-42.1c0,0,-19.4,-19.7,-41.8,-19.7c0,0,-17.1,0,-36.1,12.3c0,0,-19,12.3,-46.6,52.8c0,0,-27.6,40.6,-50.8,54.7c0,0,-23.1,14.2,-51.4,14.2c0,0,-34.3,0,-58.2,-18.3c0,0,-23.9,-18.2,-34.3,-56.6c0,0,-10.5,-38.3,-10.5,-197.7l0,-49.1l176,0l0,-53.8l-176,0l0,-448.8c0,0,0,-96,20.9,-121.5c0,0,27.6,-33,73.8,-33l61.8,0L471.3,0Z" 
	id="f1_1q"
	transform="scale(0.001,-0.001)" />

	<path d="M405.9,32.3c0,0,72.3,0,119.2,59.6c0,0,47,59.5,47,204.8c0,0,0,181.7,-78.3,285.9c0,0,-52.9,71.5,-134.8,71.5c0,0,-39.5,0,-79.4,-23.4c0,0,-39.8,-23.5,-64.4,-82.3c0,0,-24.6,-58.9,-24.6,-151.2c0,0,0,-149,59.2,-256.9c0,0,59.3,-108,156.1,-108Zm-32,-52.7c0,0,-154.4,0,-245.3,122.8c0,0,-76.8,103.6,-76.8,232.5c0,0,0,93.9,46.6,186.7c0,0,46.6,92.7,122.7,137.1c0,0,76,44.3,161,44.3c0,0,155,0,249,-117.7c0,0,79.7,-100.6,79.7,-231c0,0,0,-91.7,-43.9,-185.6c0,0,-44,-93.9,-121.2,-141.5c0,0,-77.1,-47.6,-171.8,-47.6Z" 
	id="f1_1z"
	transform="scale(0.001,-0.001)" />

	<path d="M16.6,0l0,26.4c0,0,52.3,0,77.7,16.6c0,0,18.7,12,26.1,38.4c0,0,3.8,12.8,3.8,73.1l0,264c0,0,0,119.7,-4.8,142.5c0,0,-4.9,22.8,-17.9,33.3c0,0,-13,10.4,-32.3,10.4c0,0,-23,0,-52,-11.2L9.8,619.9L216.9,703l31.5,0l0,-154c0,0,85.5,154,175.6,154c0,0,40.9,0,67.7,-25c0,0,26.8,-25.1,26.8,-58c0,0,0,-29.1,-19.3,-49.3c0,0,-19.4,-20.2,-46.2,-20.2c0,0,-26.1,0,-58.4,25.9c0,0,-32.4,25.9,-48.1,25.9c0,0,-13.3,0,-29,-14.9c0,0,-33.4,-30.7,-69.1,-101l0,-327c0,0,0,-56.6,14.1,-85.7c0,0,9.7,-20.1,34.3,-33.7c0,0,24.6,-13.6,70.8,-13.6L367.6,0Z" 
	id="f1_22"
	transform="scale(0.001,-0.001)" />

	<path d="M23.5,0l0,26.4c0,0,46.9,0,65.6,10.1c0,0,18.6,10.1,28.3,32.2c0,0,9.7,22.1,9.7,85.8l0,261.1c0,0,0,112.9,-6.7,145.8c0,0,-5.3,24.7,-16.5,34c0,0,-11.3,9.3,-30.7,9.3c0,0,-21,0,-50.2,-11.2L11.7,619.9L219,703l32.3,0l0,-145.8c0,0,74.5,74.8,87.9,86c0,0,33.5,28.4,72.2,44.1c0,0,38.7,15.7,76.7,15.7c0,0,64.1,0,110.3,-37.4c0,0,46.1,-37.4,61.8,-108.4c0,0,76.8,89.7,129.7,117.8c0,0,53,28,108.9,28c0,0,54.4,0,96.5,-27.9c0,0,42.2,-28,66.8,-91.3c0,0,16.4,-43.3,16.4,-135.7l0,-293.6c0,0,0,-64.4,9.7,-88.4c0,0,7.4,-16.5,27.5,-28.1c0,0,20.1,-11.6,65.5,-11.6l0,-26.4L843.8,0l0,26.4l14.2,0c0,0,44.1,0,68.7,17.2c0,0,17.1,12,24.6,38.2c0,0,3,12.8,3,72.7l0,293.3c0,0,0,83.4,-20.1,117.6c0,0,-29,47.7,-93.1,47.7c0,0,-39.4,0,-79.3,-19.8c0,0,-39.8,-19.7,-96.4,-73.3l-1.5,-8.2l2,-32.1l0,-325.2c0,0,0,-70.4,7.7,-87.7c0,0,7.8,-17.2,29.3,-28.8c0,0,21.5,-11.6,73.5,-11.6L776.4,0L431.2,0l0,26.4c0,0,56.4,0,77.5,13.5c0,0,21.1,13.5,29.3,40.4c0,0,3.7,12.8,3.7,74.2l0,293.3c0,0,0,83.3,-24.5,120.1c0,0,-32.7,48.1,-91.4,48.1c0,0,-40.1,0,-79.5,-21.8c0,0,-61.6,-33,-95,-74.2l0,-365.5c0,0,0,-67.4,9.2,-87.7c0,0,9.3,-20.2,27.5,-30.3c0,0,18.2,-10.1,73.8,-10.1L361.8,0Z" 
	id="f1_1x"
	transform="scale(0.001,-0.001)" />

	<path d="M342.2,-20.4c0,0,-116.3,0,-202.9,97.5c0,0,-86.5,97.6,-86.5,263.8c0,0,0,160.9,95.8,261.5c0,0,95.9,100.6,230.1,100.6c0,0,100.7,0,165.6,-53.4c0,0,64.9,-53.4,64.9,-110.9c0,0,0,-28.4,-18.3,-45.9c0,0,-18.3,-17.6,-51,-17.6c0,0,-44,0,-65.9,28.4c0,0,-13.1,15.7,-17.2,59.8c0,0,-4.1,44.2,-30.2,67.3c0,0,-26.1,22.5,-72.2,22.5c0,0,-74.6,0,-120,-55.2c0,0,-60.4,-73,-60.4,-192.9c0,0,0,-122.2,60.1,-215.7c0,0,60,-93.6,162.1,-93.6c0,0,73.1,0,131.2,49.6c0,0,41,34.5,79.8,125.5l21.5,-10c0,0,-27.6,-136,-108.2,-208.7c0,0,-80.5,-72.6,-178.3,-72.6Z" 
	id="f1_1n"
	transform="scale(0.001,-0.001)" />

	<path d="M396.7,34.2c0,0,67.6,0,125.8,74.4c0,0,58.3,74.4,58.3,216.4c0,0,0,130.9,-58.3,201.2c0,0,-58.2,70.3,-132.5,70.3c0,0,-39.3,0,-78.7,-20.1c0,0,-29.6,-14.9,-75.7,-59.5l0,-407.5c0,0,37.9,-37.2,78.3,-56.2c0,0,40.5,-19,82.8,-19ZM358.1,-20.4c0,0,-59.6,0,-121.1,21.6c0,0,-61.5,21.6,-125.5,65l0,707.3c0,0,0,116.6,-5.6,143.5c0,0,-5.6,26.9,-17.5,36.6c0,0,-11.9,9.7,-29.8,9.7c0,0,-20.8,0,-52.1,-11.9L-3.8,977.8L202,1060.9l33.6,0l0,-496.4c0,0,98.9,138.5,213.4,138.5c0,0,104.8,0,182.8,-89.8c0,0,78.1,-89.8,78.1,-245.5c0,0,0,-181.8,-120.8,-292.9c0,0,-103.5,-95.2,-231,-95.2Z" 
	id="f1_1m"
	transform="scale(0.001,-0.001)" />

	<path d="M54.8,0l0,26.4c0,0,50,0,67.2,9.7c0,0,17.2,9.8,27.3,32.2c0,0,10.1,22.5,10.1,86.2l0,263c0,0,0,111.6,-6.7,144.6c0,0,-5.2,24,-16.3,33.3c0,0,-11.2,9.3,-30.5,9.3c0,0,-20.8,0,-50.5,-11.2L45,619.9L250.7,703l32.9,0l0,-548.5c0,0,0,-64.4,9.3,-85.8c0,0,9.3,-21.3,27.6,-31.8c0,0,18.2,-10.5,66.7,-10.5L387.2,0Zm167,909.3c0,0,-31.3,0,-53.7,22.4c0,0,-22.4,22.4,-22.4,53.8c0,0,0,31.3,22,53.4c0,0,22,22,54.1,22c0,0,31.4,0,53.4,-22c0,0,22,-22.1,22,-53.4c0,0,0,-31.4,-22,-53.8c0,0,-22,-22.4,-53.4,-22.4Z" 
	id="f1_1t"
	transform="scale(0.001,-0.001)" />

	<path d="M336.4,-20.4L117.3,553.7c0,0,-21.6,55.1,-42.5,74.3c0,0,-20.9,19.3,-65.6,29.1l0,26.4l286.4,0l0,-26.4c0,0,-39.5,-3,-51.8,-14.4c0,0,-12.3,-11.3,-12.3,-32.4c0,0,0,-23.5,12.7,-56.7L390.3,162.1L537,481L497.7,581.3c0,0,-17.9,45.5,-47,62.9c0,0,-16.4,10.6,-61.2,12.9l0,26.4l326.6,0l0,-26.4c0,0,-54.1,-2.3,-76.7,-19.9c0,0,-15,-12.3,-15,-39.1c0,0,0,-14.7,5.9,-30.2L785,177.2L928.9,553.7c0,0,14.7,40.7,14.7,64.9c0,0,0,14.3,-14.5,25.6c0,0,-14.5,11.4,-56.9,12.9l0,26.4l216,0l0,-26.4c0,0,-64.9,-9.9,-95.5,-89.3L763.8,-20.4l-30.5,0L562.8,415.2L363.5,-20.4Z" 
	id="f1_27"
	transform="scale(0.001,-0.001)" />

	<path d="M292,-20.4c0,0,-57.5,0,-99.7,33.1c0,0,-42.1,33.1,-58.5,85.3c0,0,-16.5,52.2,-16.5,147.6l0,304.9c0,0,0,49.1,-10.4,68c0,0,-10.4,18.9,-30.9,29.1c0,0,-19,9.5,-68.5,9.5c-1.8,0,-3.6,0,-5.5,0l0,26.4l239.5,0l0,-457.1c0,0,0,-95.4,33.2,-125.2c0,0,33.2,-29.8,80.1,-29.8c0,0,32.1,0,72.7,20.1c0,0,40.7,20.1,96.6,76.8l0,387.1c0,0,0,58.7,-21.4,79.5c0,0,-21.4,20.7,-89.1,22.2l0,26.4l233.7,0l0,-414.6c0,0,0,-118.7,5.6,-145.2c0,0,5.6,-26.5,18,-36.9c0,0,12.3,-10.5,28.8,-10.5c0,0,23.2,0,52.5,12.7L762.7,62.6l-204.9,-83l-33.7,0l0,144.7c0,0,-88.1,-95.6,-134.3,-120.2c0,0,-46.3,-24.5,-97.8,-24.5Z" 
	id="f1_25"
	transform="scale(0.001,-0.001)" />

	<path d="M397.8,24.5c0,0,74.5,0,120.7,58c0,0,60.4,75.9,60.4,213.6c0,0,0,156.3,-68.6,240.3c0,0,-47.7,58.1,-113.2,58.1c0,0,-35.8,0,-70.8,-17.9c0,0,-26.9,-13.4,-88.7,-80.3l0,-254.6c0,0,0,-82.6,6.7,-108.6c0,0,10.4,-43.2,51,-75.9c0,0,40.7,-32.7,102.5,-32.7ZM-4.8,-326.5l0,26.4l18.5,0c0,0,0.3,0,0.8,0c5.9,0,42.5,0.7,69.2,15.8c0,0,14.1,8.3,21.9,26.6c0,0,7.8,18.4,7.8,93.5l0,645.3c0,0,0,66.9,-5.9,84.9c0,0,-6,18.1,-19,27c0,0,-13,9,-35.3,9c0,0,-17.8,0,-45.3,-10.4L-0.9,615l210.2,85.1l28.3,0l0,-159.9c0,0,52.9,90.4,106.2,126.6c0,0,53.4,36.2,112.3,36.2c0,0,102.9,0,171.5,-80.5c0,0,84.2,-98.3,84.2,-256.3c0,0,0,-176.6,-101.4,-292.1c0,0,-83.5,-94.5,-210.3,-94.5c0,0,-55.1,0,-95.4,15.7c0,0,-29.8,11.1,-67.1,44.8l0,-208.2c0,0,0,-70.9,8.6,-90.1c0,0,8.5,-19.2,29.7,-30.5c0,0,21.3,-11.4,77.1,-11.4l0,-26.4Z" 
	id="f1_20"
	transform="scale(0.001,-0.001)" />

	<path d="M376.4,-20.4L132.8,555.7c0,0,-16.4,40.8,-31.3,58.6c0,0,-14.9,17.8,-38,29.9c0,0,-12.7,6.8,-50,12.9l0,26.4l321.1,0l0,-26.4l-20.8,0c0,0,-29.1,0,-44.3,-14.2c0,0,-15.1,-14.2,-14.5,-38c0,0,-0.6,-26.1,14.9,-62L428.8,165.5L587.6,557.1c0,0,17.2,41.8,17.2,63.4c0,0,0,10.5,-6,17.2c0,0,-8.2,11.2,-20.9,15.3c0,0,-12.6,4.1,-51.4,4.1l0,26.4l223.6,0l0,-26.4c0,0,-38.8,-3.1,-53.7,-15.9c0,0,-26.1,-22.8,-47,-75.8L408.6,-20.4Z" 
	id="f1_26"
	transform="scale(0.001,-0.001)" />

	<path d="M411.3,-239.4c0,0,134.2,0,197.9,47.1c0,0,63.8,47.1,63.8,100.6c0,0,0,38.6,-38.1,54.9c0,0,-38.7,16.3,-153.6,19.3c0,0,-167.8,4.6,-258,17.5c0,0,-35,-37.8,-52.9,-70.6c0,0,-17.9,-32.7,-17.9,-60.2c0,0,0,-35.8,43.3,-62.5c0,0,74.6,-46.1,215.5,-46.1ZM379.8,257.2c0,0,56.6,0,93.1,42.3c0,0,36.5,42.4,36.5,133.1c0,0,0,118.3,-51.4,185.2c0,0,-38,49.1,-97.6,49.1c0,0,-55.1,0,-92.4,-43.9c0,0,-37.2,-43.9,-37.2,-134.6c0,0,0,-117.5,50.6,-182.2c0,0,38.8,-49,98.4,-49ZM345.1,-329.4c0,0,-144,0,-243.2,64.9c0,0,-55.9,37.2,-55.9,77.5c0,0,0,17.9,8.1,35.8c0,0,12.7,27.6,52.2,76.8c0,0,5.2,6.7,75.9,80.4c0,0,-38.7,23.1,-54.7,41.4c0,0,-16,18.4,-16,41.5c0,0,0,26.2,21.2,61.3c0,0,21.2,35.1,97.9,99.4c0,0,-62.7,30.5,-96.3,85.2c0,0,-33.6,54.8,-33.6,121c0,0,0,101.3,76.6,174.3c0,0,76.6,72.9,196.1,72.9c0,0,97.9,0,169.6,-47.9l144.9,0c0,0,32.2,0,37.4,-1.8c0,0,5.2,-1.9,7.5,-6.4c0,0,4.4,-6.8,4.4,-24c0,0,0,-19.5,-3.7,-27c0,0,-2.3,-3.7,-7.9,-6c0,0,-5.6,-2.2,-37.9,-2.2l-89,0c0,0,41.7,-53.6,41.7,-137c0,0,0,-95.2,-73.1,-163c0,0,-73.2,-67.7,-196.4,-67.7c0,0,-50.7,0,-103.7,15.2c0,0,-32.9,-28.4,-44.4,-49.7c0,0,-11.6,-21.2,-11.6,-36.1c0,0,0,-12.7,12.3,-24.7c0,0,12.3,-11.9,48.2,-17.1c0,0,20.9,-3.2,104.5,-5.6c0,0,153.7,-3.9,199.3,-11.1c0,0,69.4,-9.6,110.8,-51.3c0,0,41.4,-41.6,41.4,-102.6c0,0,0,-84.1,-79,-157.8c0,0,-116.4,-108.6,-303.6,-108.6Z" 
	id="f1_1r"
	transform="scale(0.001,-0.001)" />

	<path d="M25.4,0l0,26.4c0,0,26.9,3.7,47.1,18.7c0,0,28.4,21.7,95.7,110.7l143.2,190L181.9,535.1c0,0,-55.3,80.8,-85.5,101.4c0,0,-30.3,20.6,-75.9,20.6l0,26.4l320.7,0l0,-26.4c0,0,-30.3,0,-42.5,-10.6c0,0,-12.2,-10.6,-12.2,-27.9c0,0,0,-18.1,26.8,-55.9c0,0,8.1,-11.6,24.3,-36.2l48.7,-78.1L441.9,525c0,0,55.1,74.3,54.8,94.1c0,0,0,15.9,0.1,27c0,0,0,11,0.2,11l0,26.4l176.7,0l0,-26.4c0,0,-36.8,-2.3,-63.9,-20.2c0,0,-36.8,-25.5,-100.1,-110.9L416.5,402.1L586.7,155.8c0,0,62.8,-90.5,89.7,-108.8c0,0,27,-18.4,69.6,-20.6L746,0L423,0l0,26.4c0,0,33.8,0,52.6,14.9c0,0,14.3,10.5,14.3,27.6c0,0,0,17.2,-48.3,86.7L341.2,302.2L231.7,156.6c0,0,-49.8,-68.5,-49.8,-81.3c0,0,0,-18.1,16.8,-32.7c0,0,16.9,-14.7,50.6,-16.2L249.3,0Z" 
	id="f1_28"
	transform="scale(0.001,-0.001)" />

	<path d="M30.3,0l0,27.3L485.2,631.7l-225.1,0c0,0,-72,0,-94.2,-9.3c0,0,-22.3,-9.3,-36.3,-35.4c0,0,-20.1,-37.2,-23,-92.2l-30.3,0l4.9,188.7l572.5,0l0,-27.4L195.7,50.8l249.7,0c0,0,78.2,0,106.1,13.1c0,0,27.8,13,45,45.8c0,0,11.9,23.8,20.1,100.5l25.4,0L634.2,0Z" 
	id="f1_2a"
	transform="scale(0.001,-0.001)" />

	<path d="M118.3,598.4l-40.4,221c0,0,-17.3,91.9,-17.3,124c0,0,0,47.8,19.5,69.4c0,0,19.5,21.7,53.2,21.7c0,0,33.7,0,55.8,-22c0,0,22.1,-22.1,22.1,-57.9c0,0,0,-27.7,-19.4,-135.9L151.6,598.4Z" 
	id="f1_9"
	transform="scale(0.001,-0.001)" />

	<path d="M16.8,-329.4c0,0,-68.1,0,-101,24.6c0,0,-33,24.7,-33,50.8c0,0,0,26.1,18.3,44.8c0,0,18.3,18.6,43,18.6c0,0,19.4,0,39.6,-9.7c0,0,12.7,-5.2,49.2,-37.8c0,0,36.7,-32.6,61.2,-32.6c0,0,17.7,0,34.8,13.8c0,0,17.1,13.7,25.2,46.2c0,0,8.2,32.4,8.2,140.5l0,485.8c0,0,0,113.4,-6.7,145.7c0,0,-5.3,24.7,-16.5,34.1c0,0,-11.3,9.3,-30.7,9.3c0,0,-21,0,-51,-11.2L46.9,619.9L254.2,703l32.3,0l0,-687.4c0,0,0,-175,-74.9,-260c0,0,-75,-85,-194.8,-85ZM222.6,908.4c0,0,-31.3,0,-53.6,22.3c0,0,-22.3,22.3,-22.3,53.6c0,0,0,31.9,22.3,54.3c0,0,22.3,22.3,53.6,22.3c0,0,32,0,54.3,-22.3c0,0,22.3,-22.4,22.3,-54.3c0,0,0,-31.3,-22.3,-53.6c0,0,-22.3,-22.3,-54.3,-22.3Z" 
	id="f1_1u"
	transform="scale(0.001,-0.001)" />

	<path d="M191.2,-20.4c0,0,-34.3,0,-58.5,24.1c0,0,-24.2,24.2,-24.2,58.4c0,0,0,35,24.2,58.8c0,0,24.2,23.8,58.5,23.8c0,0,34.9,0,58.7,-24.2c0,0,23.9,-24.2,23.9,-58.4c0,0,0,-34.2,-24.2,-58.4c0,0,-24.2,-24.1,-58.4,-24.1Z" 
	id="f1_f"
	transform="scale(0.001,-0.001)" />

	<path d="M551.5,-23.4c0,0,-165.7,0,-251.5,57.4c0,0,-85.8,57.4,-121.6,154.4c0,0,-23.9,66.4,-23.9,249.2l0,395.5c0,0,0,93.3,-25.7,122.4c0,0,-25.7,29.1,-83,29.1l-38,0l0,27.4l436.1,0l0,-27.4l-38.7,0c0,0,-62.5,0,-89.3,-39.5c0,0,-18.7,-26.9,-18.7,-112l0,-440.8c0,0,0,-58.9,10.9,-135c0,0,10.8,-76,39.1,-118.5c0,0,28.4,-42.5,81.8,-70.1c0,0,53.4,-27.6,131,-27.6c0,0,99.3,0,177.7,43.2c0,0,78.4,43.3,107.1,110.8c0,0,28.8,67.5,28.8,228.6l0,409.4c0,0,0,94.8,-20.8,118.7c0,0,-29,32.8,-86.1,32.8l-37.8,0l0,27.4l356.8,0l0,-27.4l-37.8,0c0,0,-59.4,0,-91.3,-50c0,0,-15.6,-23.1,-15.6,-107.4l0,-410.4c0,0,0,-152.2,-30.2,-236.2c0,0,-30.2,-83.9,-118.7,-144c0,0,-88.4,-60,-240.6,-60Z" 
	id="f1_1f"
	transform="scale(0.001,-0.001)" />

	<path d="M440.9,0l0,26.4c0,0,28.3,0.7,38.4,8.6c0,0,10.1,7.9,10.1,22.2c0,0,0,17.2,-29.9,55.5l-209.2,268L423.7,539.6c0,0,55.2,50.8,64.2,64.3c0,0,5.9,9,5.9,18c0,0,0,14.9,-12.3,25.8c0,0,-12.3,10.8,-40.6,12.3l0,23.5l296.6,0l0,-23.5c0,0,-61.1,-1.5,-101.7,-18.7c0,0,-40.6,-17.3,-89,-61.5L371.8,418L546.9,196.2c0,0,72.9,-91.9,97.9,-116.7c0,0,35.9,-35.2,62.8,-45.6c0,0,18.7,-7.5,65.1,-7.5L772.7,0ZM12.7,0l0,26.4c0,0,52.2,0,78.4,12.7c0,0,15.6,8.2,23.8,25.4c0,0,11.2,24.6,11.2,85.1l0,623.9c0,0,0,117.8,-5.2,144.2c0,0,-5.2,26.3,-17.2,36.3c0,0,-11.9,10.1,-31.3,10.1c0,0,-15.7,0,-47,-12.7L12.7,977.8l203.2,83.1l34.4,0l0,-680.2l0,-226.2c0,0,0,-67.1,9.3,-88.2c0,0,9.4,-21.1,26.5,-30.1c0,0,17.2,-9.1,74.7,-9.8L360.8,0Z" 
	id="f1_1v"
	transform="scale(0.001,-0.001)" />

	<path d="M82.1,-254.1l0,32.8c0,0,76.5,25.4,118.5,78.8c0,0,41.9,53.4,41.9,113.1c0,0,0,14.2,-6.7,23.9c0,0,-5.2,6.6,-10.4,6.6c0,0,-8.1,0,-35.6,-14.8c0,0,-13.4,-6.7,-28.2,-6.7c0,0,-36.4,0,-57.9,21.5c0,0,-21.6,21.6,-21.6,59.7c0,0,0,36.6,28,62.7c0,0,27.9,26.1,68.1,26.1c0,0,49.2,0,87.5,-42.9c0,0,38.4,-42.9,38.4,-113.7c0,0,0,-76.9,-53.3,-143c0,0,-53.2,-66,-168.7,-104.1Z" 
	id="f1_d"
	transform="scale(0.001,-0.001)" />

	<path d="M24.5,0l0,27.4l35.8,0c0,0,62.6,0,91,36.5c0,0,17.9,23.9,17.9,115l0,654.2c0,0,0,76.9,-9.7,101.5c0,0,-7.5,18.7,-30.6,32.1c0,0,-32.1,17.9,-68.6,17.9l-35.8,0l0,27.4l751.9,0L787.1,790.1l-26.4,0c0,0,-19.3,70.9,-45,104.1c0,0,-25.6,33.2,-63.4,48.1c0,0,-37.7,15,-116.9,15l-223.5,0l0,-399l184.8,0c0,0,63.4,0,92.9,28.1c0,0,29.4,28,39.1,110.8l27.4,0l0,-342.3l-27.4,0c0,0,-0.7,59,-15.3,86.6c0,0,-14.5,27.6,-40.2,41.4c0,0,-25.8,13.8,-76.5,13.8l-184.8,0l0,-317.8c0,0,0,-76.9,9.7,-101.5c0,0,7.5,-18.7,31.5,-32.1c0,0,32.9,-17.9,68.8,-17.9l36.7,0L458.6,0Z" 
	id="f1_10"
	transform="scale(0.001,-0.001)" />

	<path d="M677.8,393.1L506,801.9L330.3,393.1ZM11.1,0l0,27.4c0,0,63.4,11.2,82,29.1c0,0,38.1,35.9,84.3,145.9l355.7,832.1l27.4,0L912.3,193.2c0,0,42.5,-101.6,77.2,-131.8c0,0,34.7,-30.3,96.6,-34l0,-27.4L686.9,0l0,27.4c0,0,60.5,3,81.7,20.1c0,0,21.3,17.2,21.3,41.9c0,0,0,32.9,-29.9,103.9l-60.4,145l-392.7,0L238.6,179c0,0,-25.4,-59,-25.4,-88.1c0,0,0,-23.2,22,-40.8c0,0,22,-17.5,95.1,-22.7L330.3,0Z" 
	id="f1_v"
	transform="scale(0.001,-0.001)" />

	<path d="M25.4,0l0,27.4l35.7,0c0,0,63.9,0,90.7,38.7c0,0,16.4,23.9,16.4,108.9l0,662c0,0,0,67.1,-14.9,96.9c0,0,-10.4,21.6,-38.3,36.2c0,0,-27.9,14.5,-89.6,14.5l0,27.4l286.2,0L678.5,220.2L1041.3,1012l284.9,0l0,-27.4l-35,0c0,0,-64.7,0,-91.4,-38.7c0,0,-16.4,-23.9,-16.4,-108.9l0,-662c0,0,0,-93.2,20.9,-116.3c0,0,27.5,-31.3,86.9,-31.3l35,0l0,-27.4L898,0l0,27.4l35.6,0c0,0,64.7,0,90.7,38.7c0,0,16.4,23.9,16.4,108.9l0,676.5L649.2,0L624.8,0L233.7,851.5l0,-676.5c0,0,0,-93.2,20,-116.3c0,0,27.6,-31.3,87,-31.3l35.7,0L376.4,0Z" 
	id="f1_17"
	transform="scale(0.001,-0.001)" />

	<path d="M144.9,-329.4c0,0,-44.1,0,-72.5,25.3c0,0,-28.4,25.3,-28.4,58c0,0,0,31.3,20.6,50.2c0,0,20.5,19,56.4,19c0,0,24.7,0,67.4,-16.2c0,0,29.9,-11.1,37.3,-11.1c0,0,22.4,0,48.9,23c0,0,26.5,23.1,53.4,89.4L376.1,28L131,542.4c0,0,-11.2,23.4,-35.8,58.1c0,0,-18.7,26.4,-30.6,35.5c0,0,-17.2,12,-55.2,21.1l0,26.4l318.7,0l0,-26.4l-15.7,0c0,0,-33.6,0,-50.4,-14.7c0,0,-16.7,-14.7,-16.7,-36.5c0,0,0,-29.4,24.6,-81.4L436.7,179.1L588.6,557.3c0,0,12.7,31,12.7,61.2c0,0,0,13.6,-5.2,20.4c0,0,-6,8.3,-18.7,13.3c0,0,-12.6,4.9,-44.7,4.9l0,26.4l221.5,0l0,-26.4c0,0,-27.6,-3,-42.5,-12.1c0,0,-14.9,-9,-32.8,-33.9c0,0,-6.7,-10.5,-25.4,-58L376.4,-129.1c0,0,-40.3,-99.1,-105.6,-149.7c0,0,-65.4,-50.6,-125.9,-50.6Z" 
	id="f1_29"
	transform="scale(0.001,-0.001)" />

	<path d="M106.6,-22.4l0,347l27.4,0c0,0,19.3,-108.8,52.1,-162.8c0,0,32.8,-54.1,100.3,-89.8c0,0,67.4,-35.8,147.9,-35.8c0,0,93.2,0,147.2,49.2c0,0,54.1,49.2,54.1,116.4c0,0,0,37.2,-20.5,75.3c0,0,-20.6,38,-63.8,70.8c0,0,-29.1,22.4,-159.3,94.8c0,0,-130.1,72.4,-184.8,115.6c0,0,-54.8,43.2,-83.1,95.4c0,0,-28.3,52.2,-28.3,114.8c0,0,0,108.8,83.6,187.4c0,0,83.7,78.6,212.8,78.6c0,0,80.6,0,171,-39.9c0,0,41.8,-18.8,59,-18.8c0,0,19.4,0,31.7,11.7c0,0,12.3,11.6,19.8,47l27.4,0l0,-350l-27.4,0c0,0,-13.5,100.7,-48.2,160.5c0,0,-34.8,59.7,-99,94.8c0,0,-64.3,35.1,-133,35.1c0,0,-77.8,0,-128.6,-47.3c0,0,-50.8,-47.4,-50.8,-107.7c0,0,0,-46.2,32.1,-84.2c0,0,46.4,-55.9,220.5,-149c0,0,142,-76,193.9,-116.6c0,0,51.9,-40.7,79.9,-95.8c0,0,28,-55.2,28,-115.6c0,0,0,-114.9,-89.1,-198c0,0,-89.1,-83.1,-229.3,-83.1c0,0,-44,0,-82.7,6.9c0,0,-23.2,3.8,-95.9,27.7c0,0,-72.7,24,-92.1,24c0,0,-18.6,0,-29.4,-11.4c0,0,-10.8,-11.5,-16,-47.2Z" 
	id="f1_1d"
	transform="scale(0.001,-0.001)" />

	<path d="M31.3,0l0,27.4l37.8,0c0,0,63.8,0,91.3,41.6c0,0,15.6,23.8,15.6,109.9l0,654.2c0,0,0,94.8,-20.8,118.7c0,0,-28.9,32.8,-86.1,32.8l-37.8,0l0,27.4l456.6,0l0,-27.4c0,0,-0.6,0,-1.7,0C474.3,984.6,404.6,984,375,969.7c0,0,-32.4,-15.8,-44.3,-39.7c0,0,-11.9,-24,-11.9,-114.5l0,-635.4c0,0,0,-61.9,11.9,-85c0,0,9,-15.7,27.7,-23.1c0,0,18.6,-7.5,116.5,-7.5l74,0c0,0,116.5,0,163.6,17.2c0,0,47.1,17.2,85.9,61c0,0,38.9,43.7,77.7,137.9l24.4,-5.2L813.5,0Z" 
	id="f1_16"
	transform="scale(0.001,-0.001)" />

	<path d="M38.1,0l0,27.4l35.8,0c0,0,62.7,0,91,36.5c0,0,17.9,23.9,17.9,115l0,654.2c0,0,0,76.9,-9.7,101.5c0,0,-7.4,18.7,-30.5,32.1c0,0,-32.8,17.9,-68.7,17.9l-35.8,0l0,27.4l432.2,0l0,-27.4l-36.3,0c0,0,-61.6,0,-89.9,-36.5c0,0,-18.5,-23.9,-18.5,-115l0,-654.2c0,0,0,-76.9,9.6,-101.5c0,0,7.5,-18.7,31.2,-32.1c0,0,31.9,-17.9,67.6,-17.9l36.3,0L470.3,0Z" 
	id="f1_13"
	transform="scale(0.001,-0.001)" />


</defs>
</svg>