<?xml version="1.0" encoding="UTF-8" standalone="no"?>
<!DOCTYPE svg PUBLIC "-//W3C//DTD SVG 1.1//EN"
"http://www.w3.org/Graphics/SVG/1.1/DTD/svg11.dtd">
<svg viewBox="0 0 909 1286" version="1.1" xmlns="http://www.w3.org/2000/svg" xmlns:xlink="http://www.w3.org/1999/xlink">
<defs>
<clipPath id="c0_25"><path d="M27.5,1223.8L27.5,27.5l854,0l0,1196.3Z" /></clipPath>
</defs>
<g clip-path="url(#c0_25)">
<g fill="#000000" >
<use xlink:href="#f0_k" transform="matrix(12,0,0,12,238,125)" />
<use xlink:href="#f0_f" transform="matrix(12,0,0,12,247.1,125)" />
<use xlink:href="#f0_1d" transform="matrix(12,0,0,12,265.5,125)" />
<use xlink:href="#f0_1l" transform="matrix(12,0,0,12,275.7,125)" />
<use xlink:href="#f0_1w" transform="matrix(12,0,0,12,283.8,125)" />
<use xlink:href="#f0_1p" transform="matrix(12,0,0,12,288.9,125)" />
<use xlink:href="#f0_23" transform="matrix(12,0,0,12,297,125)" />
<use xlink:href="#f0_28" transform="matrix(12,0,0,12,308.7,125)" />
<use xlink:href="#f0_l" transform="matrix(12,0,0,12,322.5,125)" />
<use xlink:href="#f1_z" transform="matrix(12,0,0,12,183.9,188.5)" />
<use xlink:href="#f1_1o" transform="matrix(12,0,0,12,198.1,188.5)" />
<use xlink:href="#f1_1d" transform="matrix(12,0,0,12,208.3,188.5)" />
<use xlink:href="#f1_1p" transform="matrix(12,0,0,12,216.5,188.5)" />
<use xlink:href="#f1_19" transform="matrix(12,0,0,12,224.6,188.5)" />
<use xlink:href="#f1_1r" transform="matrix(12,0,0,12,233.8,188.5)" />
<use xlink:href="#f1_1h" transform="matrix(12,0,0,12,239.9,188.5)" />
<use xlink:href="#f1_1n" transform="matrix(12,0,0,12,245,188.5)" />
<use xlink:href="#f1_1m" transform="matrix(12,0,0,12,254.1,188.5)" />
<use xlink:href="#f1_1q" transform="matrix(12,0,0,12,264.3,188.5)" />
<use xlink:href="#f1_14" transform="matrix(12,0,0,12,276.1,188.5)" />
<use xlink:href="#f1_1d" transform="matrix(12,0,0,12,288.3,188.5)" />
<use xlink:href="#f1_19" transform="matrix(12,0,0,12,296.4,188.5)" />
<use xlink:href="#f1_1l" transform="matrix(12,0,0,12,305.6,188.5)" />
<use xlink:href="#f0_i" transform="matrix(12,0,0,12,238,251.5)" />
<use xlink:href="#f0_f" transform="matrix(12,0,0,12,247.1,251.5)" />
<use xlink:href="#f0_19" transform="matrix(12,0,0,12,265.5,251.5)" />
<use xlink:href="#f0_20" transform="matrix(12,0,0,12,278.7,251.5)" />
<use xlink:href="#f0_1p" transform="matrix(12,0,0,12,287.9,251.5)" />
<use xlink:href="#f0_22" transform="matrix(12,0,0,12,296,251.5)" />
<use xlink:href="#f0_1l" transform="matrix(12,0,0,12,302.1,251.5)" />
<use xlink:href="#f0_24" transform="matrix(12,0,0,12,310.3,251.5)" />
<use xlink:href="#f0_1t" transform="matrix(12,0,0,12,315.3,251.5)" />
<use xlink:href="#f0_1z" transform="matrix(12,0,0,12,320.4,251.5)" />
<use xlink:href="#f0_1y" transform="matrix(12,0,0,12,329.6,251.5)" />
<use xlink:href="#f0_23" transform="matrix(12,0,0,12,338.8,251.5)" />
<use xlink:href="#f0_28" transform="matrix(12,0,0,12,350.5,251.5)" />
<use xlink:href="#f0_l" transform="matrix(12,0,0,12,364.2,251.5)" />
<use xlink:href="#f0_j" transform="matrix(12,0,0,12,183.9,315)" />
<use xlink:href="#f0_h" transform="matrix(12,0,0,12,193,315)" />
<use xlink:href="#f0_i" transform="matrix(12,0,0,12,202.2,315)" />
<use xlink:href="#f0_q" transform="matrix(12,0,0,12,211.4,315)" />
<use xlink:href="#f0_1s" transform="matrix(12,0,0,12,225.1,315)" />
<use xlink:href="#f0_1t" transform="matrix(12,0,0,12,234.3,315)" />
<use xlink:href="#f0_22" transform="matrix(12,0,0,12,239.4,315)" />
<use xlink:href="#f0_1t" transform="matrix(12,0,0,12,245.5,315)" />
<use xlink:href="#f0_1y" transform="matrix(12,0,0,12,250.6,315)" />
<use xlink:href="#f0_1r" transform="matrix(12,0,0,12,259.8,315)" />
<use xlink:href="#f0_20" transform="matrix(12,0,0,12,273.5,315)" />
<use xlink:href="#f0_1w" transform="matrix(12,0,0,12,282.7,315)" />
<use xlink:href="#f0_1l" transform="matrix(12,0,0,12,287.8,315)" />
<use xlink:href="#f0_1y" transform="matrix(12,0,0,12,295.9,315)" />
<use xlink:href="#f0_23" transform="matrix(12,0,0,12,305.1,315)" />
<use xlink:href="#f0_1l" transform="matrix(12,0,0,12,316.8,315)" />
<use xlink:href="#f0_22" transform="matrix(12,0,0,12,324.9,315)" />
<use xlink:href="#f0_1p" transform="matrix(12,0,0,12,331,315)" />
<use xlink:href="#f0_20" transform="matrix(12,0,0,12,343.7,315)" />
<use xlink:href="#f0_22" transform="matrix(12,0,0,12,352.9,315)" />
<use xlink:href="#f0_1z" transform="matrix(12,0,0,12,359,315)" />
<use xlink:href="#f0_26" transform="matrix(12,0,0,12,368.2,315)" />
<use xlink:href="#f0_1t" transform="matrix(12,0,0,12,377.4,315)" />
<use xlink:href="#f0_23" transform="matrix(12,0,0,12,382.4,315)" />
<use xlink:href="#f0_1t" transform="matrix(12,0,0,12,389.6,315)" />
<use xlink:href="#f0_1z" transform="matrix(12,0,0,12,394.7,315)" />
<use xlink:href="#f0_1y" transform="matrix(12,0,0,12,403.8,315)" />
<use xlink:href="#f0_1l" transform="matrix(12,0,0,12,413,315)" />
<use xlink:href="#f0_1w" transform="matrix(12,0,0,12,421.1,315)" />
<use xlink:href="#f0_1l" transform="matrix(12,0,0,12,430.8,315)" />
<use xlink:href="#f0_1y" transform="matrix(12,0,0,12,439,315)" />
<use xlink:href="#f0_1o" transform="matrix(12,0,0,12,448.1,315)" />
<use xlink:href="#f0_1l" transform="matrix(12,0,0,12,461.9,315)" />
<use xlink:href="#f0_23" transform="matrix(12,0,0,12,470,315)" />
<use xlink:href="#f0_1l" transform="matrix(12,0,0,12,481.7,315)" />
<use xlink:href="#f0_1r" transform="matrix(12,0,0,12,494.4,315)" />
<use xlink:href="#f0_25" transform="matrix(12,0,0,12,503.6,315)" />
<use xlink:href="#f0_1t" transform="matrix(12,0,0,12,512.8,315)" />
<use xlink:href="#f0_1o" transform="matrix(12,0,0,12,517.9,315)" />
<use xlink:href="#f0_1p" transform="matrix(12,0,0,12,527,315)" />
<use xlink:href="#f0_1w" transform="matrix(12,0,0,12,535.2,315)" />
<use xlink:href="#f0_1t" transform="matrix(12,0,0,12,540.3,315)" />
<use xlink:href="#f0_1y" transform="matrix(12,0,0,12,545.4,315)" />
<use xlink:href="#f0_1p" transform="matrix(12,0,0,12,554.5,315)" />
<use xlink:href="#f0_1z" transform="matrix(12,0,0,12,567.3,315)" />
<use xlink:href="#f0_1y" transform="matrix(12,0,0,12,576.4,315)" />
<use xlink:href="#f0_1w" transform="matrix(12,0,0,12,585.6,315)" />
<use xlink:href="#f0_29" transform="matrix(12,0,0,12,590.7,315)" />
<use xlink:href="#f0_f" transform="matrix(12,0,0,12,599.8,315)" />
<use xlink:href="#f0_v" transform="matrix(12,0,0,12,609,315)" />
<use xlink:href="#f0_1n" transform="matrix(12,0,0,12,622.3,315)" />
<use xlink:href="#f0_1n" transform="matrix(12,0,0,12,630.4,315)" />
<use xlink:href="#f0_25" transform="matrix(12,0,0,12,638.5,315)" />
<use xlink:href="#f0_22" transform="matrix(12,0,0,12,647.7,315)" />
<use xlink:href="#f0_1l" transform="matrix(12,0,0,12,653.8,315)" />
<use xlink:href="#f0_24" transform="matrix(12,0,0,12,661.9,315)" />
<use xlink:href="#f0_1p" transform="matrix(12,0,0,12,667,315)" />
<use xlink:href="#f0_1s" transform="matrix(12,0,0,12,679.7,315)" />
<use xlink:href="#f0_1t" transform="matrix(12,0,0,12,688.9,315)" />
<use xlink:href="#f0_22" transform="matrix(12,0,0,12,694,315)" />
<use xlink:href="#f0_1t" transform="matrix(12,0,0,12,700.1,315)" />
<use xlink:href="#f0_1y" transform="matrix(12,0,0,12,705.2,315)" />
<use xlink:href="#f0_1r" transform="matrix(12,0,0,12,714.4,315)" />
<use xlink:href="#f0_20" transform="matrix(12,0,0,12,728.1,315)" />
<use xlink:href="#f0_1w" transform="matrix(12,0,0,12,737.3,315)" />
<use xlink:href="#f0_1l" transform="matrix(12,0,0,12,742.4,315)" />
<use xlink:href="#f0_1y" transform="matrix(12,0,0,12,750.5,315)" />
<use xlink:href="#f0_23" transform="matrix(12,0,0,12,759.7,315)" />
<use xlink:href="#f0_27" transform="matrix(12,0,0,12,183.9,346.5)" />
<use xlink:href="#f0_1t" transform="matrix(12,0,0,12,197.1,346.5)" />
<use xlink:href="#f0_1w" transform="matrix(12,0,0,12,202.2,346.5)" />
<use xlink:href="#f0_1w" transform="matrix(12,0,0,12,207.3,346.5)" />
<use xlink:href="#f0_1m" transform="matrix(12,0,0,12,217,346.5)" />
<use xlink:href="#f0_1p" transform="matrix(12,0,0,12,226.2,346.5)" />
<use xlink:href="#f0_20" transform="matrix(12,0,0,12,238.9,346.5)" />
<use xlink:href="#f0_25" transform="matrix(12,0,0,12,248,346.5)" />
<use xlink:href="#f0_1m" transform="matrix(12,0,0,12,257.2,346.5)" />
<use xlink:href="#f0_1w" transform="matrix(12,0,0,12,266.4,346.5)" />
<use xlink:href="#f0_1t" transform="matrix(12,0,0,12,271.5,346.5)" />
<use xlink:href="#f0_23" transform="matrix(12,0,0,12,276.6,346.5)" />
<use xlink:href="#f0_1s" transform="matrix(12,0,0,12,283.7,346.5)" />
<use xlink:href="#f0_1p" transform="matrix(12,0,0,12,292.9,346.5)" />
<use xlink:href="#f0_1o" transform="matrix(12,0,0,12,301,346.5)" />
<use xlink:href="#f0_1t" transform="matrix(12,0,0,12,314.7,346.5)" />
<use xlink:href="#f0_1y" transform="matrix(12,0,0,12,319.8,346.5)" />
<use xlink:href="#f0_12" transform="matrix(12,0,0,12,333.6,346.5)" />
<use xlink:href="#f0_j" transform="matrix(12,0,0,12,346.8,346.5)" />
<use xlink:href="#f0_j" transform="matrix(12,0,0,12,360.6,346.5)" />
<use xlink:href="#f0_h" transform="matrix(12,0,0,12,369.7,346.5)" />
<use xlink:href="#f0_i" transform="matrix(12,0,0,12,378.9,346.5)" />
<use xlink:href="#f0_p" transform="matrix(12,0,0,12,388.1,346.5)" />
<use xlink:href="#f0_f" transform="matrix(12,0,0,12,397.2,346.5)" />
<use xlink:href="#f1_x" transform="matrix(14.9,0,0,14.9,184.8,445.5)" />
<use xlink:href="#f1_1h" transform="matrix(14.9,0,0,14.9,206.4,445.5)" />
<use xlink:href="#f1_1k" transform="matrix(14.9,0,0,14.9,212.8,445.5)" />
<use xlink:href="#f1_1d" transform="matrix(14.9,0,0,14.9,219.2,445.5)" />
<use xlink:href="#f1_1q" transform="matrix(14.9,0,0,14.9,229.4,445.5)" />
<use xlink:href="#f1_1r" transform="matrix(14.9,0,0,14.9,238.3,445.5)" />
<use xlink:href="#f1_1n" transform="matrix(14.9,0,0,14.9,245.9,445.5)" />
<use xlink:href="#f1_1m" transform="matrix(14.9,0,0,14.9,257.4,445.5)" />
<use xlink:href="#f1_1d" transform="matrix(14.9,0,0,14.9,270.1,445.5)" />
<use xlink:href="#f1_1q" transform="matrix(14.9,0,0,14.9,280.3,445.5)" />
<use xlink:href="#f1_4" transform="matrix(14.9,0,0,14.9,294.9,445.5)" />
<use xlink:href="#f1_x" transform="matrix(14.9,0,0,14.9,319.7,445.5)" />
<use xlink:href="#f1_1d" transform="matrix(14.9,0,0,14.9,341.3,445.5)" />
<use xlink:href="#f1_1r" transform="matrix(14.9,0,0,14.9,351.5,445.5)" />
<use xlink:href="#f1_1p" transform="matrix(14.9,0,0,14.9,359.1,445.5)" />
<use xlink:href="#f1_1h" transform="matrix(14.9,0,0,14.9,369.3,445.5)" />
<use xlink:href="#f1_1b" transform="matrix(14.9,0,0,14.9,375.7,445.5)" />
<use xlink:href="#f1_1q" transform="matrix(14.9,0,0,14.9,385.9,445.5)" />
<use xlink:href="#f1_10" transform="matrix(12,0,0,12,183.9,512.6)" />
<use xlink:href="#f1_1p" transform="matrix(12,0,0,12,195.1,512.6)" />
<use xlink:href="#f1_1d" transform="matrix(12,0,0,12,203.2,512.6)" />
<use xlink:href="#f1_8" transform="matrix(12,0,0,12,215.9,512.6)" />
<use xlink:href="#f1_u" transform="matrix(12,0,0,12,226.6,512.6)" />
<use xlink:href="#f1_o" transform="matrix(12,0,0,12,233.8,512.6)" />
<use xlink:href="#f1_z" transform="matrix(12,0,0,12,247,512.6)" />
<use xlink:href="#f1_14" transform="matrix(12,0,0,12,265.8,512.6)" />
<use xlink:href="#f1_1h" transform="matrix(12,0,0,12,278.1,512.6)" />
<use xlink:href="#f1_1l" transform="matrix(12,0,0,12,283.2,512.6)" />
<use xlink:href="#f1_1d" transform="matrix(12,0,0,12,298.4,512.6)" />
<use xlink:href="#f1_w" transform="matrix(12,0,0,12,311.2,512.6)" />
<use xlink:href="#f1_1h" transform="matrix(12,0,0,12,323.4,512.6)" />
<use xlink:href="#f1_1m" transform="matrix(12,0,0,12,328.5,512.6)" />
<use xlink:href="#f1_1d" transform="matrix(12,0,0,12,338.7,512.6)" />
<use xlink:href="#f1_11" transform="matrix(12,0,0,12,183.9,960.3)" />
<use xlink:href="#f1_f" transform="matrix(12,0,0,12,198.1,960.3)" />
<use xlink:href="#f1_d" transform="matrix(12,0,0,12,211.9,960.3)" />
<use xlink:href="#f1_b" transform="matrix(12,0,0,12,221.1,960.3)" />
<use xlink:href="#f1_c" transform="matrix(12,0,0,12,230.2,960.3)" />
<use xlink:href="#f1_i" transform="matrix(12,0,0,12,239.4,960.3)" />
<use xlink:href="#f1_t" transform="matrix(12,0,0,12,183.9,1023.7)" />
<use xlink:href="#f1_19" transform="matrix(12,0,0,12,198.1,1023.7)" />
<use xlink:href="#f1_1m" transform="matrix(12,0,0,12,207.3,1023.7)" />
<use xlink:href="#f1_1c" transform="matrix(12,0,0,12,217.5,1023.7)" />
<use xlink:href="#f1_1q" transform="matrix(12,0,0,12,227.7,1023.7)" />
<use xlink:href="#f1_10" transform="matrix(12,0,0,12,239.4,1023.7)" />
<use xlink:href="#f1_1s" transform="matrix(12,0,0,12,250.6,1023.7)" />
<use xlink:href="#f1_1a" transform="matrix(12,0,0,12,260.8,1023.7)" />
<use xlink:href="#f1_1k" transform="matrix(12,0,0,12,271,1023.7)" />
<use xlink:href="#f1_1h" transform="matrix(12,0,0,12,276.1,1023.7)" />
<use xlink:href="#f1_1q" transform="matrix(12,0,0,12,281.2,1023.7)" />
<use xlink:href="#f1_1g" transform="matrix(12,0,0,12,288.3,1023.7)" />
<use xlink:href="#f1_1h" transform="matrix(12,0,0,12,298.5,1023.7)" />
<use xlink:href="#f1_1m" transform="matrix(12,0,0,12,303.6,1023.7)" />
<use xlink:href="#f1_1f" transform="matrix(12,0,0,12,313.8,1023.7)" />
<use xlink:href="#f1_10" transform="matrix(12,0,0,12,327.6,1023.7)" />
<use xlink:href="#f1_1k" transform="matrix(12,0,0,12,338.8,1023.7)" />
<use xlink:href="#f1_19" transform="matrix(12,0,0,12,343.9,1023.7)" />
<use xlink:href="#f1_1r" transform="matrix(12,0,0,12,353,1023.7)" />
<use xlink:href="#f1_1e" transform="matrix(12,0,0,12,359.1,1023.7)" />
<use xlink:href="#f1_1n" transform="matrix(12,0,0,12,365.2,1023.7)" />
<use xlink:href="#f1_1p" transform="matrix(12,0,0,12,374.4,1023.7)" />
<use xlink:href="#f1_1l" transform="matrix(12,0,0,12,382.5,1023.7)" />
<use xlink:href="#f1_m" transform="matrix(12,0,0,12,402.4,1023.7)" />
<use xlink:href="#f1_1k" transform="matrix(12,0,0,12,415.6,1023.7)" />
<use xlink:href="#f1_1o" transform="matrix(12,0,0,12,420.7,1023.7)" />
<use xlink:href="#f1_1g" transform="matrix(12,0,0,12,430.9,1023.7)" />
<use xlink:href="#f1_19" transform="matrix(12,0,0,12,441.1,1023.7)" />
<use xlink:href="#f0_i" transform="matrix(12,0,0,12,238,1086.8)" />
<use xlink:href="#f0_f" transform="matrix(12,0,0,12,247.1,1086.8)" />
<use xlink:href="#f0_1f" transform="matrix(12,0,0,12,265.5,1086.8)" />
<use xlink:href="#f0_23" transform="matrix(12,0,0,12,278.7,1086.8)" />
<use xlink:href="#f0_1p" transform="matrix(12,0,0,12,285.8,1086.8)" />
<use xlink:href="#f0_22" transform="matrix(12,0,0,12,294,1086.8)" />
<use xlink:href="#f0_1l" transform="matrix(12,0,0,12,304.7,1086.8)" />
<use xlink:href="#f0_1n" transform="matrix(12,0,0,12,312.8,1086.8)" />
<use xlink:href="#f0_1n" transform="matrix(12,0,0,12,320.9,1086.8)" />
<use xlink:href="#f0_1z" transform="matrix(12,0,0,12,329.1,1086.8)" />
<use xlink:href="#f0_25" transform="matrix(12,0,0,12,338.2,1086.8)" />
<use xlink:href="#f0_1y" transform="matrix(12,0,0,12,347.4,1086.8)" />
<use xlink:href="#f0_24" transform="matrix(12,0,0,12,356.6,1086.8)" />
<use xlink:href="#f0_1x" transform="matrix(12,0,0,12,366.3,1086.8)" />
<use xlink:href="#f0_1l" transform="matrix(12,0,0,12,380.5,1086.8)" />
<use xlink:href="#f0_1y" transform="matrix(12,0,0,12,388.6,1086.8)" />
<use xlink:href="#f0_1l" transform="matrix(12,0,0,12,397.8,1086.8)" />
<use xlink:href="#f0_1r" transform="matrix(12,0,0,12,406,1086.8)" />
<use xlink:href="#f0_1p" transform="matrix(12,0,0,12,415.1,1086.8)" />
<use xlink:href="#f0_1x" transform="matrix(12,0,0,12,423.3,1086.8)" />
<use xlink:href="#f0_1p" transform="matrix(12,0,0,12,437.5,1086.8)" />
<use xlink:href="#f0_1y" transform="matrix(12,0,0,12,445.7,1086.8)" />
<use xlink:href="#f0_24" transform="matrix(12,0,0,12,454.8,1086.8)" />
<use xlink:href="#f0_8" transform="matrix(12,0,0,12,464.5,1086.8)" />
<use xlink:href="#f0_25" transform="matrix(12,0,0,12,483.3,1086.8)" />
<use xlink:href="#f0_23" transform="matrix(12,0,0,12,492.5,1086.8)" />
<use xlink:href="#f0_1p" transform="matrix(12,0,0,12,499.6,1086.8)" />
<use xlink:href="#f0_22" transform="matrix(12,0,0,12,507.8,1086.8)" />
<use xlink:href="#f0_20" transform="matrix(12,0,0,12,518.5,1086.8)" />
<use xlink:href="#f0_22" transform="matrix(12,0,0,12,527.6,1086.8)" />
<use xlink:href="#f0_1z" transform="matrix(12,0,0,12,533.7,1086.8)" />
<use xlink:href="#f0_1q" transform="matrix(12,0,0,12,542.9,1086.8)" />
<use xlink:href="#f0_1t" transform="matrix(12,0,0,12,549,1086.8)" />
<use xlink:href="#f0_1w" transform="matrix(12,0,0,12,554.1,1086.8)" />
<use xlink:href="#f0_1p" transform="matrix(12,0,0,12,559.2,1086.8)" />
<use xlink:href="#f0_23" transform="matrix(12,0,0,12,567.3,1086.8)" />
<use xlink:href="#f0_j" transform="matrix(12,0,0,12,238,1118.7)" />
<use xlink:href="#f0_f" transform="matrix(12,0,0,12,247.1,1118.7)" />
<use xlink:href="#f0_12" transform="matrix(12,0,0,12,265.5,1118.7)" />
<use xlink:href="#f0_1l" transform="matrix(12,0,0,12,278.7,1118.7)" />
<use xlink:href="#f0_1y" transform="matrix(12,0,0,12,286.8,1118.7)" />
<use xlink:href="#f0_1o" transform="matrix(12,0,0,12,296,1118.7)" />
<use xlink:href="#f0_23" transform="matrix(12,0,0,12,305.2,1118.7)" />
<use xlink:href="#f0_25" transform="matrix(12,0,0,12,316.9,1118.7)" />
<use xlink:href="#f0_23" transform="matrix(12,0,0,12,326.1,1118.7)" />
<use xlink:href="#f0_1p" transform="matrix(12,0,0,12,333.2,1118.7)" />
<use xlink:href="#f0_22" transform="matrix(12,0,0,12,341.3,1118.7)" />
<use xlink:href="#f0_23" transform="matrix(12,0,0,12,347.4,1118.7)" />
<use xlink:href="#f0_8" transform="matrix(12,0,0,12,359.2,1118.7)" />
<use xlink:href="#f0_24" transform="matrix(12,0,0,12,378,1118.7)" />
<use xlink:href="#f0_22" transform="matrix(12,0,0,12,383.1,1118.7)" />
<use xlink:href="#f0_1l" transform="matrix(12,0,0,12,389.2,1118.7)" />
<use xlink:href="#f0_1y" transform="matrix(12,0,0,12,397.3,1118.7)" />
<use xlink:href="#f0_23" transform="matrix(12,0,0,12,406.5,1118.7)" />
<use xlink:href="#f0_1l" transform="matrix(12,0,0,12,413.6,1118.7)" />
<use xlink:href="#f0_1n" transform="matrix(12,0,0,12,421.8,1118.7)" />
<use xlink:href="#f0_24" transform="matrix(12,0,0,12,429.9,1118.7)" />
<use xlink:href="#f0_1t" transform="matrix(12,0,0,12,435,1118.7)" />
<use xlink:href="#f0_1z" transform="matrix(12,0,0,12,440.1,1118.7)" />
<use xlink:href="#f0_1y" transform="matrix(12,0,0,12,449.3,1118.7)" />
<use xlink:href="#f0_1x" transform="matrix(12,0,0,12,463,1118.7)" />
<use xlink:href="#f0_1l" transform="matrix(12,0,0,12,477.3,1118.7)" />
<use xlink:href="#f0_1y" transform="matrix(12,0,0,12,485.4,1118.7)" />
<use xlink:href="#f0_1l" transform="matrix(12,0,0,12,494.6,1118.7)" />
<use xlink:href="#f0_1r" transform="matrix(12,0,0,12,502.7,1118.7)" />
<use xlink:href="#f0_1p" transform="matrix(12,0,0,12,511.9,1118.7)" />
<use xlink:href="#f0_1x" transform="matrix(12,0,0,12,520,1118.7)" />
<use xlink:href="#f0_1p" transform="matrix(12,0,0,12,534.3,1118.7)" />
<use xlink:href="#f0_1y" transform="matrix(12,0,0,12,542.4,1118.7)" />
<use xlink:href="#f0_24" transform="matrix(12,0,0,12,551.6,1118.7)" />
<use xlink:href="#f0_1g" transform="matrix(12,0,0,12,561.3,1118.7)" />
<use xlink:href="#f0_i" transform="matrix(12,0,0,12,574.5,1118.7)" />
<use xlink:href="#f0_k" transform="matrix(12,0,0,12,238,1150.2)" />
<use xlink:href="#f0_f" transform="matrix(12,0,0,12,247.1,1150.2)" />
<use xlink:href="#f0_12" transform="matrix(12,0,0,12,265.5,1150.2)" />
<use xlink:href="#f0_1l" transform="matrix(12,0,0,12,278.7,1150.2)" />
<use xlink:href="#f0_1y" transform="matrix(12,0,0,12,286.8,1150.2)" />
<use xlink:href="#f0_1o" transform="matrix(12,0,0,12,296,1150.2)" />
<use xlink:href="#f0_23" transform="matrix(12,0,0,12,305.2,1150.2)" />
<use xlink:href="#f0_1n" transform="matrix(12,0,0,12,316.9,1150.2)" />
<use xlink:href="#f0_1z" transform="matrix(12,0,0,12,325,1150.2)" />
<use xlink:href="#f0_1t" transform="matrix(12,0,0,12,334.2,1150.2)" />
<use xlink:href="#f0_1y" transform="matrix(12,0,0,12,339.3,1150.2)" />
<use xlink:href="#f0_1l" transform="matrix(12,0,0,12,353,1150.2)" />
<use xlink:href="#f0_1w" transform="matrix(12,0,0,12,361.2,1150.2)" />
<use xlink:href="#f0_20" transform="matrix(12,0,0,12,366.3,1150.2)" />
<use xlink:href="#f0_1s" transform="matrix(12,0,0,12,375.4,1150.2)" />
<use xlink:href="#f0_1l" transform="matrix(12,0,0,12,384.6,1150.2)" />
<use xlink:href="#f0_1o" transform="matrix(12,0,0,12,397.3,1150.2)" />
<use xlink:href="#f0_1p" transform="matrix(12,0,0,12,406.5,1150.2)" />
<use xlink:href="#f0_26" transform="matrix(12,0,0,12,414.6,1150.2)" />
<use xlink:href="#f0_1p" transform="matrix(12,0,0,12,423.8,1150.2)" />
<use xlink:href="#f0_1w" transform="matrix(12,0,0,12,431.9,1150.2)" />
<use xlink:href="#f0_1z" transform="matrix(12,0,0,12,437,1150.2)" />
<use xlink:href="#f0_20" transform="matrix(12,0,0,12,446.2,1150.2)" />
<use xlink:href="#f0_1x" transform="matrix(12,0,0,12,455.4,1150.2)" />
<use xlink:href="#f0_1p" transform="matrix(12,0,0,12,469.6,1150.2)" />
<use xlink:href="#f0_1y" transform="matrix(12,0,0,12,477.8,1150.2)" />
<use xlink:href="#f0_24" transform="matrix(12,0,0,12,486.9,1150.2)" />
<use xlink:href="#f0_23" transform="matrix(12,0,0,12,496.6,1150.2)" />
<use xlink:href="#f0_24" transform="matrix(12,0,0,12,503.7,1150.2)" />
<use xlink:href="#f0_1l" transform="matrix(12,0,0,12,508.8,1150.2)" />
<use xlink:href="#f0_22" transform="matrix(12,0,0,12,517,1150.2)" />
<use xlink:href="#f0_24" transform="matrix(12,0,0,12,523.1,1150.2)" />
<use xlink:href="#f0_23" transform="matrix(12,0,0,12,528.2,1150.2)" />
</g>
</g>
<image preserveAspectRatio="none" x="184" y="559" width="675" height="342" xlink:href="img/1.png" />
<defs>
	<path d="M237.6,-17.5c0,0,-102.1,0,-139.1,25.2C98.5,7.7,61.6,33,61.6,62c0,0,0,21.6,17.5,38c0,0,17.5,16.4,42.2,16.4c0,0,18.6,0,38,-6c0,0,12.7,-3.7,57.4,-27.3c0,0,44.8,-23.5,62,-27.9c0,0,27.5,-8.3,58.9,-8.3c0,0,76.1,0,132.4,59.1c0,0,56.3,59,56.3,139.6c0,0,0,59,-26.1,115.1c0,0,-19.3,41.8,-42.4,63.4c0,0,-32.1,29.9,-87.9,54.2c0,0,-55.9,24.3,-114,24.3l-23.8,0l0,22.5c0,0,58.7,7.4,117.9,42.4c0,0,59.2,35,86,84.1c0,0,26.8,49.2,26.8,108c0,0,0,76.7,-48.1,124c0,0,-48.1,47.3,-119.7,47.3c0,0,-115.6,0,-193.2,-123.4L77.2,819.4c0,0,43.3,102.1,109.4,157.6c0,0,66,55.5,164.5,55.5c0,0,121.6,0,186.6,-79c0,0,49.2,-59,49.2,-126.1c0,0,0,-110.4,-138.8,-228.2c0,0,93.2,-36.5,141,-104.4c0,0,47.7,-67.9,47.7,-159.6c0,0,0,-131.3,-83.6,-227.5c0,0,-108.9,-125.2,-315.6,-125.2Z" 
	id="f0_k"
	transform="scale(0.001,-0.001)" />

	<path d="M191.2,-20.4c0,0,-34.3,0,-58.5,24.1c0,0,-24.2,24.2,-24.2,58.4c0,0,0,35,24.2,58.8c0,0,24.2,23.8,58.5,23.8c0,0,34.9,0,58.7,-24.2c0,0,23.9,-24.2,23.9,-58.4c0,0,0,-34.2,-24.2,-58.4c0,0,-24.2,-24.1,-58.4,-24.1Z" 
	id="f0_f"
	transform="scale(0.001,-0.001)" />

	<path d="M106.6,-22.4l0,347l27.4,0c0,0,19.3,-108.8,52.1,-162.8c0,0,32.8,-54.1,100.3,-89.8c0,0,67.4,-35.8,147.9,-35.8c0,0,93.2,0,147.2,49.2c0,0,54.1,49.2,54.1,116.4c0,0,0,37.2,-20.5,75.3c0,0,-20.6,38,-63.8,70.8c0,0,-29.1,22.4,-159.3,94.8c0,0,-130.1,72.4,-184.8,115.6c0,0,-54.8,43.2,-83.1,95.4c0,0,-28.3,52.2,-28.3,114.8c0,0,0,108.8,83.6,187.4c0,0,83.7,78.6,212.8,78.6c0,0,80.6,0,171,-39.9c0,0,41.8,-18.8,59,-18.8c0,0,19.4,0,31.7,11.7c0,0,12.3,11.6,19.8,47l27.4,0l0,-350l-27.4,0c0,0,-13.5,100.7,-48.2,160.5c0,0,-34.8,59.7,-99,94.8c0,0,-64.3,35.1,-133,35.1c0,0,-77.8,0,-128.6,-47.3c0,0,-50.8,-47.4,-50.8,-107.7c0,0,0,-46.2,32.1,-84.2c0,0,46.4,-55.9,220.5,-149c0,0,142,-76,193.9,-116.6c0,0,51.9,-40.7,79.9,-95.8c0,0,28,-55.2,28,-115.6c0,0,0,-114.9,-89.1,-198c0,0,-89.1,-83.1,-229.3,-83.1c0,0,-44,0,-82.7,6.9c0,0,-23.2,3.8,-95.9,27.7c0,0,-72.7,24,-92.1,24c0,0,-18.6,0,-29.4,-11.4c0,0,-10.8,-11.5,-16,-47.2Z" 
	id="f0_1d"
	transform="scale(0.001,-0.001)" />

	<path d="M285.9,72.4c0,0,56.7,0,149.2,74.5l0,259.9c0,0,-112.7,-44.7,-145.5,-63.3c0,0,-59,-32.8,-84.3,-68.5c0,0,-25.4,-35.8,-25.4,-78.3c0,0,0,-53.6,32.1,-88.9c0,0,32.1,-35.4,73.9,-35.4Zm-68.6,-86c0,0,-70.8,0,-116.7,48.3c0,0,-45.8,48.5,-45.8,127.4c0,0,0,50,22.3,86.5c0,0,30.6,50.6,106.3,95.3c0,0,75.7,44.7,251.7,108.8l0,26.7c0,0,0,101.9,-32.2,139.8c0,0,-32.3,37.9,-93.8,37.9c0,0,-46.7,0,-74.1,-25.3c0,0,-28.2,-25.2,-28.2,-57.9l1.5,-43c0,0,0,-34.2,-17.7,-52.8c0,0,-17.7,-18.5,-46.3,-18.5c0,0,-27.8,0,-45.5,19.3c0,0,-17.6,19.4,-17.6,52.9c0,0,0,64,65.6,117.6c0,0,65.6,53.6,184.1,53.6c0,0,91,0,149.1,-30.5c0,0,44,-23.1,64.9,-72.3c0,0,13.4,-32,13.4,-131l0,-231.6c0,0,0,-97.6,3.7,-119.6c0,0,3.8,-21.9,12.4,-29.4c0,0,8.6,-7.4,19.8,-7.4c0,0,11.9,0,20.9,5.2c0,0,15.7,9.7,60.5,54.4l0,-41.7c0,0,-83.6,-111.7,-159.8,-111.7c0,0,-36.6,0,-58.3,25.1c0,0,-21.6,25.2,-22.4,85.9c0,0,-105.1,-80.9,-132,-93.5c0,0,-40.3,-18.5,-85.8,-18.5Z" 
	id="f0_1l"
	transform="scale(0.001,-0.001)" />

	<path d="M57.7,0l0,26.4c0,0,47.4,0,64.8,9.7c0,0,17.3,9.8,27.1,32.2c0,0,9.8,22.5,9.8,86.2l0,620.9c0,0,0,115.6,-5.2,142.1c0,0,-5.3,26.5,-16.8,36.1c0,0,-11.6,9.7,-29.5,9.7c0,0,-19.4,0,-49.2,-11.9L46,977.8l203.9,83.1l33.7,0l0,-906.4c0,0,0,-64.4,9.3,-85.4c0,0,9.3,-21,28.7,-31.8c0,0,19.4,-10.9,72.4,-10.9L394,0Z" 
	id="f0_1w"
	transform="scale(0.001,-0.001)" />

	<path d="M479.1,469.3c0,0,-3.7,65.6,-15.7,92.5c0,0,-18.6,41.7,-55.6,65.6c0,0,-37,23.8,-77.4,23.8c0,0,-62,0,-110.9,-48.1c0,0,-49,-48.1,-57.2,-133.8ZM354.9,-20.4c0,0,-123,0,-210.6,95.7c0,0,-87.6,95.7,-87.6,257.5c0,0,0,175.2,89.9,273.2c0,0,89.8,98,225.5,98c0,0,114.8,0,188.7,-75.6c0,0,73.8,-75.5,73.8,-202.1l-472.3,0c0,0,-0.7,-152.3,73.8,-238.9c0,0,74.6,-86.7,175.2,-86.7c0,0,67.1,0,116.7,36.7c0,0,49.6,36.6,83.1,126.6l23.5,-14.9c0,0,-15.7,-102.5,-91,-186.1c0,0,-75.3,-83.4,-188.7,-83.4Z" 
	id="f0_1p"
	transform="scale(0.001,-0.001)" />

	<path d="M312.2,-20.4c0,0,-62.7,0,-143.3,22.6c0,0,-24.6,7.6,-40.3,7.6c0,0,-17.2,0,-26.9,-19.5l-24.5,0l0,243.4l24.5,0c0,0,20.9,-104.4,79.9,-157.3c0,0,59,-52.9,132.1,-52.9c0,0,51.6,0,84.1,30.1c0,0,32.4,30.2,32.4,72.6c0,0,0,51.4,-36.2,86.4c0,0,-36.1,35.1,-144.4,88.6c0,0,-108.2,53.6,-141.8,96.8c0,0,-33.5,42.5,-33.5,107.4c0,0,0,84.3,57.8,140.9c0,0,57.8,56.7,149.6,56.7c0,0,40.3,0,97.7,-17.1c0,0,38.1,-11.2,50.7,-11.2c0,0,12,0,18.7,5.2c0,0,6.7,5.2,15.7,23.1l24.4,0l0,-232.7l-24.4,0c0,0,-28.4,109.7,-72.8,149.2c0,0,-44.4,39.5,-113,39.5c0,0,-52.2,0,-84.3,-27.5c0,0,-32.1,-27.6,-32.1,-61.1c0,0,0,-41.8,23.9,-71.6c0,0,23.2,-30.5,94.1,-64.8L389.2,381.1c0,0,151.5,-73.8,151.5,-194.5c0,0,0,-93.1,-70.5,-150.1c0,0,-70.6,-56.9,-158,-56.9Z" 
	id="f0_23"
	transform="scale(0.001,-0.001)" />

	<path d="M25.4,0l0,26.4c0,0,26.9,3.7,47.1,18.7c0,0,28.4,21.7,95.7,110.7l143.2,190L181.9,535.1c0,0,-55.3,80.8,-85.5,101.4c0,0,-30.3,20.6,-75.9,20.6l0,26.4l320.7,0l0,-26.4c0,0,-30.3,0,-42.5,-10.6c0,0,-12.2,-10.6,-12.2,-27.9c0,0,0,-18.1,26.8,-55.9c0,0,8.1,-11.6,24.3,-36.2l48.7,-78.1L441.9,525c0,0,55.1,74.3,54.8,94.1c0,0,0,15.9,0.1,27c0,0,0,11,0.2,11l0,26.4l176.7,0l0,-26.4c0,0,-36.8,-2.3,-63.9,-20.2c0,0,-36.8,-25.5,-100.1,-110.9L416.5,402.1L586.7,155.8c0,0,62.8,-90.5,89.7,-108.8c0,0,27,-18.4,69.6,-20.6L746,0L423,0l0,26.4c0,0,33.8,0,52.6,14.9c0,0,14.3,10.5,14.3,27.6c0,0,0,17.2,-48.3,86.7L341.2,302.2L231.7,156.6c0,0,-49.8,-68.5,-49.8,-81.3c0,0,0,-18.1,16.8,-32.7c0,0,16.9,-14.7,50.6,-16.2L249.3,0Z" 
	id="f0_28"
	transform="scale(0.001,-0.001)" />

	<path d="M452,372.5l0,502.9L97,372.5ZM452,0l0,266.9l-428.5,0l0,95.2l469.6,670.4l82.1,0l0,-660l135.9,0l0,-105.6l-135.9,0L575.2,0Z" 
	id="f0_l"
	transform="scale(0.001,-0.001)" />

	<path d="M597.4,33.3c0,0,76.8,0,128.2,37.2c0,0,65.6,47.8,102.2,152.5c0,0,36.5,104.7,36.5,273.2c0,0,0,200.5,-37.3,300c0,0,-37.3,99.6,-95,140.6c0,0,-57.8,41,-133.1,41c0,0,-138.7,0,-211,-141.7c0,0,-59,-116.3,-59,-333.9c0,0,0,-258.7,91,-382.5c0,0,63.4,-86.4,177.5,-86.4Zm2.2,-55.7c0,0,-273,0,-422.1,184.8c0,0,-117.9,146.1,-117.9,346.7c0,0,0,225.1,153.3,375.3c0,0,144.5,141.7,357.8,141.7c6.3,0,12.7,-0.2,19.2,-0.4c0,0,2.8,0.1,7.9,0.1c42.7,0,249.9,-7.2,384.8,-141c0,0,151,-149.9,151,-375c0,0,0,-192.3,-112.6,-338.5c0,0,-149.2,-193.7,-421.4,-193.7Z" 
	id="f1_z"
	transform="scale(0.001,-0.001)" />

	<path d="M459,55.7c0,0,40.3,0,66.4,42.6c0,0,38.8,62.6,38.8,238.6c0,0,0,180.5,-42.5,246.8c0,0,-28.4,44,-76.2,44c0,0,-75.3,0,-123.8,-108.8l0,-372.2c0,0,64.2,-91,137.3,-91ZM29.3,-326.5l0,27.4c0,0,46.1,1.5,68.3,26.2c0,0,14.8,17.3,14.8,89.2l0,735.2c0,0,0,74.1,-17,94.7c0,0,-17.1,20.6,-66.1,23.6l0,27.4l292.4,0l0,-91.8c0,0,36.5,53.7,74.5,77.6c0,0,54.5,35.7,118.6,35.7c0,0,76.8,0,139.8,-48.5c0,0,63,-48.5,95.8,-133.9c0,0,32.8,-85.4,32.8,-183.9c0,0,0,-105.9,-33.9,-193.5c0,0,-34,-87.7,-98.5,-133.6c0,0,-64.4,-45.7,-143.5,-45.7c0,0,-57.4,0,-107.3,25.2c0,0,-37.3,19.4,-78.3,66.4l0,-259.8c0,0,0,-53.7,8.6,-73.2c0,0,8.6,-19.4,26.6,-28.3c0,0,18,-9,70.4,-9l0,-27.4Z" 
	id="f1_1o"
	transform="scale(0.001,-0.001)" />

	<path d="M458.1,424.4c0,0,0,119.7,-13,164.3c0,0,-13,44.6,-40.4,67.7c0,0,-15.6,13.4,-41.6,13.4c0,0,-38.6,0,-63.1,-38c0,0,-43.8,-66.1,-43.8,-181.4l0,-26ZM357.8,-20.4c0,0,-155.2,0,-235,119.2c0,0,-64.1,96.2,-64.1,238.7c0,0,0,174.6,94.3,277.9c0,0,94.4,103.3,221.2,103.3c0,0,105.9,0,183.8,-86.8c0,0,78,-86.8,83.9,-257.4l-382.8,0c0,0,6.7,-138.9,73.9,-219.6c0,0,51.5,-62,123.9,-62c0,0,44.7,0,81.3,25.1c0,0,36.6,25.1,78.4,90.3l25.3,-16.6c0,0,-56.7,-115.8,-125.3,-164c0,0,-68.6,-48.1,-158.8,-48.1Z" 
	id="f1_1d"
	transform="scale(0.001,-0.001)" />

	<path d="M56.7,0l0,26.4c0,0,45.3,3.7,61.3,25.1c0,0,16,21.3,16,112.8l0,385.2c0,0,0,59.8,-6,76.2c0,0,-7.4,20.9,-21.5,30.6c0,0,-14.1,9.8,-49.8,13.5l0,27.4l285.5,0l0.3,-157.8c0,0,69.2,108.3,121.3,143.8c0,0,52,35.5,100.4,35.5c0,0,41.4,0,66.2,-25.7c0,0,24.7,-25.7,24.7,-72.7c0,0,0,-49.9,-24.3,-77.4c0,0,-24.3,-27.6,-58.8,-27.6c0,0,-38.9,0,-67.6,25.2c0,0,-28.6,25.1,-33.8,28c0,0,-7.3,4.5,-16.9,4.5c0,0,-21.6,0,-40.9,-16.4c0,0,-30.5,-25.4,-46.1,-72.4c0,0,-23.8,-72.4,-23.8,-159.7l0.2,-160.4l0.1,-41.9c0,0,0,-42.6,5.2,-54.6c0,0,9,-20.3,26.5,-29.6c0,0,17.5,-9.4,59.2,-11.6L434.1,0Z" 
	id="f1_1p"
	transform="scale(0.001,-0.001)" />

	<path d="M349.7,115.4c0,0,37.4,0,86.6,42l0,233.9c0,0,-90.3,-53.1,-134.4,-113.7c0,0,-29.1,-40.3,-29.1,-81.4c0,0,0,-34.5,24.6,-60.6c0,0,18.7,-20.2,52.3,-20.2ZM207.2,-9.7c0,0,-59.7,0,-99.2,39.1c0,0,-39.6,39.2,-39.6,98.2c0,0,0,79.9,68.7,143.8c0,0,68.7,63.9,299.2,169.9l0,70.1c0,0,0,79,-8.5,99.5c0,0,-8.6,20.5,-32.4,35.8c0,0,-23.8,15.3,-53.6,15.3c0,0,-48.3,0,-79.6,-21.7c0,0,-19.5,-13.4,-19.5,-31.3c0,0,0,-15.6,20.9,-38.7c0,0,28.4,-32.1,28.4,-61.9c0,0,0,-36.5,-27.2,-62.2c0,0,-27.3,-25.8,-71.3,-25.8c0,0,-47,0,-78.7,28.4c0,0,-31.7,28.3,-31.7,66.3c0,0,0,53.7,42.5,102.5c0,0,42.5,48.9,118.6,75c0,0,76,26.1,158,26.1c0,0,99.2,0,157,-42.2c0,0,57.8,-42.1,75,-91.4c0,0,10.4,-31.3,10.4,-144l0,-270.7c0,0,0,-47.8,3.7,-60.1c0,0,3.8,-12.3,11.2,-18.3c0,0,7.5,-5.9,17.4,-5.9c0,0,19.2,0,39.2,28.1L738.5,95.9c0,0,-37.3,-55.4,-77.2,-80.5c0,0,-39.9,-25.1,-90.7,-25.1c0,0,-59.6,0,-93.2,27.9c0,0,-33.6,27.9,-41.1,84.5c0,0,-127.6,-112.4,-229.1,-112.4Z" 
	id="f1_19"
	transform="scale(0.001,-0.001)" />

	<path d="M297.7,-9.7c0,0,-66.4,0,-112.3,36.9c0,0,-46,36.9,-58.7,82.4c0,0,-7.4,25.4,-7.4,137.4l0,376.8l-90.9,0l0,26.1c0,0,94.1,66.3,160.1,139.3c0,0,66.1,73,115.4,163.2l24.6,0l0,-255.2l165.3,0l0,-73.4l-165.3,0l0,-430.4c0,0,0,-60.4,5.6,-77.9c0,0,5.6,-17.6,19.8,-28.4c0,0,14.2,-10.8,26.1,-10.8c0,0,48.5,0,91.7,74.3l22.4,-16.5c0,0,-60.5,-143.8,-196.4,-143.8Z" 
	id="f1_1r"
	transform="scale(0.001,-0.001)" />

	<path d="M32.3,0l0,26.4c0,0,46,1.5,68.2,27c0,0,14.9,17.2,14.9,91.3l0,406.8c0,0,0,74.1,-17.1,94.7c0,0,-17.1,20.6,-66,23.6l0,27.4l292.3,0l0,-552.5c0,0,0,-74.1,17.3,-94.7c0,0,17.4,-20.6,67.8,-23.6L409.7,0ZM219.6,803.7c0,0,-47.8,0,-81.4,33.6c0,0,-33.6,33.6,-33.6,81.4c0,0,0,47.8,33.6,81.8c0,0,33.6,34,81.4,34c0,0,48.6,0,82.2,-34c0,0,33.6,-34,33.6,-81.8c0,0,0,-47.8,-34,-81.4c0,0,-34,-33.6,-81.8,-33.6Z" 
	id="f1_1h"
	transform="scale(0.001,-0.001)" />

	<path d="M381,31.3c0,0,33.4,0,55.7,18.6c0,0,28.9,25.4,38.6,70.9c0,0,14.8,70.8,14.8,286.3c0,0,0,126.8,-14.1,174.1c0,0,-14.1,47.4,-41.6,69c0,0,-19.3,15.7,-50.5,15.7c0,0,-37.9,0,-65,-28.7c0,0,-27.1,-28.7,-35.6,-113.4c0,0,-8.5,-84.6,-8.5,-235.2c0,0,0,-79.8,10.4,-149.2c0,0,8.1,-52.9,34.9,-80.5c0,0,26.7,-27.6,60.9,-27.6Zm1.8,-51.7c0,0,-157.2,0,-242.1,110.3c0,0,-85,110.3,-85,255.8c0,0,0,149.9,86.8,261.5c0,0,86.8,111.5,238.1,111.5c0,0,90.9,0,169.1,-47c0,0,78.2,-47,118.8,-133.5c0,0,40.6,-86.6,40.6,-189.5c0,0,0,-148.5,-75.2,-248.4c0,0,-90.9,-120.7,-251.1,-120.7Z" 
	id="f1_1n"
	transform="scale(0.001,-0.001)" />

	<path d="M51.8,0l0,26.4c0,0,44,4.5,62.6,28.3c0,0,12.7,16.4,12.7,96.9l0,394c0,0,0,79.3,-14.5,98.7c0,0,-14.6,19.5,-60.8,25.5l0,27.4l284.6,0l0,-90c0,0,53.8,58.4,103.1,84.9c0,0,49.4,26.6,106.2,26.6c0,0,68.1,0,112.9,-37.8c0,0,44.9,-37.7,59.8,-93.7c0,0,12,-42.6,12,-163.7l0,-271.9c0,0,0,-80.5,14.5,-100.2c0,0,14.6,-19.8,60.8,-25L805.7,0l-354,0l0,26.4c0,0,40,5.2,57.4,32.8c0,0,12.1,18.6,12.1,92.4l0,310.9c0,0,0,86,-6.8,108.4c0,0,-6.7,22.4,-22.8,34.7c0,0,-16.1,12.4,-35.5,12.4c0,0,-64.4,0,-119.7,-91.9l0,-374.5c0,0,0,-78.3,14.7,-99.1c0,0,14.7,-20.9,54.7,-26.1L405.8,0Z" 
	id="f1_1m"
	transform="scale(0.001,-0.001)" />

	<path d="M311.6,-20.4c0,0,-49.9,0,-133.4,30.9c0,0,-22.4,8.1,-30.6,8.1c0,0,-24.6,0,-41,-37.1l-24.5,0L70.4,231.7l26.4,0c0,0,33.4,-98.2,91.6,-147.4c0,0,58.2,-49.1,110.2,-49.1c0,0,35.6,0,58.2,22c0,0,22.7,22,22.7,53.4c0,0,0,35.8,-22.4,61.9c0,0,-22.3,26.1,-99.8,79.1c0,0,-114,79.1,-147.5,120.9c0,0,-49.2,61.1,-49.2,135c0,0,0,80.6,55.5,145.9c0,0,55.5,65.3,160.5,65.3c0,0,56.6,0,109.5,-27.9c0,0,20.1,-11.2,32.8,-11.2c0,0,13.4,0,21.5,5.5c0,0,8.2,5.6,26.1,31.6l26.4,0L503.6,479.1l-26.3,0c0,0,-45.3,106.1,-93.9,145c0,0,-48.6,38.8,-96.8,38.8c0,0,-30.4,0,-51.9,-20.5c0,0,-21.5,-20.5,-21.5,-47.4c0,0,0,-20.1,14.8,-38.8c0,0,23.8,-30.6,133.2,-104.8c0,0,109.4,-74.2,144,-126.1c0,0,34.6,-51.9,34.6,-116c0,0,0,-58.2,-29.1,-114.2c0,0,-29.1,-56,-82,-85.8c0,0,-53,-29.7,-117.1,-29.7Z" 
	id="f1_1q"
	transform="scale(0.001,-0.001)" />

	<path d="M244.5,0l0,27.4l33.4,0c0,0,43.9,0,70.6,15.7c0,0,19.4,10.4,30.5,35.8c0,0,8.2,18,8.2,94.2l0,780.2l-73.3,0c0,0,-102.8,0,-149.3,-43.1c0,0,-65.2,-60.3,-82.5,-171.9l-27.3,0l0,273.7l910.3,0l0,-273.7l-27.4,0c0,0,-23.8,94.5,-52.9,135.8c0,0,-29.1,41.3,-79.7,65.8c0,0,-28.4,13.4,-99.1,13.4l-75.3,0l0,-780.2c0,0,0,-77.8,8.5,-97.2c0,0,8.6,-19.4,33.5,-34c0,0,25,-14.5,68.2,-14.5l33.5,0L774.4,0Z" 
	id="f1_14"
	transform="scale(0.001,-0.001)" />

	<path d="M56.4,0l0,26.4c0,0,44,4.5,62.6,28.3c0,0,12.7,16.4,12.7,96.9l0,394c0,0,0,79.3,-14.6,98.7c0,0,-14.5,19.5,-60.7,25.5l0,27.4l284.5,0l0,-91.2c0,0,57.6,62.7,106.5,87.7c0,0,48.9,25,107.2,25c0,0,67.3,0,112.8,-31.4c0,0,45.6,-31.3,70.3,-95.5c0,0,59.6,67.2,114.5,97c0,0,54.8,29.9,114.5,29.9c0,0,72.3,0,115.2,-33.3c0,0,42.9,-33.2,59.7,-84.4c0,0,16.7,-51.2,16.7,-163.3l0,-286.1c0,0,0,-80.5,14.6,-99.9c0,0,14.5,-19.4,60.7,-25.3l0,-26.4L872.9,0l0,26.4c0,0,42.6,3.7,62.7,32.8c0,0,13.5,20.1,13.5,92.4l0,300.4c0,0,0,93.4,-7.4,118.8c0,0,-7.5,25.4,-23.5,37.8c0,0,-16,12.3,-37.6,12.3c0,0,-32,0,-64.7,-23.5c0,0,-32.8,-23.5,-66.3,-70.5l0,-375.3c0,0,0,-75.3,12.7,-94.7c0,0,17.1,-27.5,65.6,-30.5L827.9,0L466.1,0l0,26.4c0,0,29.3,1.5,46.1,14.5c0,0,16.9,13,22.6,31.3c0,0,5.6,18.3,5.6,79.4l0,300.5c0,0,0,95,-7.5,118.9c0,0,-7.5,23.9,-25,37.4c0,0,-17.6,13.5,-37.7,13.5c0,0,-29.9,0,-54.6,-15.7c0,0,-35.1,-23.2,-74.7,-79.3l0,-375.3c0,0,0,-73.8,14.6,-97.3c0,0,14.5,-23.4,60.7,-27.9L416.2,0Z" 
	id="f1_1l"
	transform="scale(0.001,-0.001)" />

	<path d="M196.5,0l0,27.4c0,0,71.8,1.4,92.7,12.2c0,0,20.9,10.9,29.2,29.1c0,0,8.2,18.3,8.2,109.3l0,546.6c0,0,0,110,-7.5,141.2c0,0,-5.2,23.8,-19,35c0,0,-13.8,11.2,-33.2,11.2c0,0,-27.6,0,-76.8,-23.2l-11.2,23.5l246.2,120.2l24.7,0l0,-854.5c0,0,0,-85,7,-105.9c0,0,7.1,-20.9,29.4,-32.1c0,0,22.3,-11.2,90.7,-12.6L576.9,0Z" 
	id="f0_i"
	transform="scale(0.001,-0.001)" />

	<path d="M545.5,30.3c0,0,142.4,0,235.2,111.1c0,0,92.9,111,92.9,350.2c0,0,0,259.4,-102.2,386.8c0,0,-82,101.3,-226.6,101.3c0,0,-135.8,0,-217.8,-100.6c0,0,-102.1,-125.2,-102.1,-366.6c0,0,0,-247.4,105.9,-380.8c0,0,81.2,-101.4,214.7,-101.4ZM547,-22.4c0,0,-208.9,0,-351.1,148.2c0,0,-142.1,148.4,-142.1,383.9c0,0,0,240.8,164.1,392.8c0,0,142.5,132,341,132c0,0,197,0,341.4,-149.5c0,0,144.4,-149.4,144.4,-373c0,0,0,-230.4,-145.5,-382.4c0,0,-145.5,-152,-352.2,-152Z" 
	id="f0_19"
	transform="scale(0.001,-0.001)" />

	<path d="M397.8,24.5c0,0,74.5,0,120.7,58c0,0,60.4,75.9,60.4,213.6c0,0,0,156.3,-68.6,240.3c0,0,-47.7,58.1,-113.2,58.1c0,0,-35.8,0,-70.8,-17.9c0,0,-26.9,-13.4,-88.7,-80.3l0,-254.6c0,0,0,-82.6,6.7,-108.6c0,0,10.4,-43.2,51,-75.9c0,0,40.7,-32.7,102.5,-32.7ZM-4.8,-326.5l0,26.4l18.5,0c0,0,0.3,0,0.8,0c5.9,0,42.5,0.7,69.2,15.8c0,0,14.1,8.3,21.9,26.6c0,0,7.8,18.4,7.8,93.5l0,645.3c0,0,0,66.9,-5.9,84.9c0,0,-6,18.1,-19,27c0,0,-13,9,-35.3,9c0,0,-17.8,0,-45.3,-10.4L-0.9,615l210.2,85.1l28.3,0l0,-159.9c0,0,52.9,90.4,106.2,126.6c0,0,53.4,36.2,112.3,36.2c0,0,102.9,0,171.5,-80.5c0,0,84.2,-98.3,84.2,-256.3c0,0,0,-176.6,-101.4,-292.1c0,0,-83.5,-94.5,-210.3,-94.5c0,0,-55.1,0,-95.4,15.7c0,0,-29.8,11.1,-67.1,44.8l0,-208.2c0,0,0,-70.9,8.6,-90.1c0,0,8.5,-19.2,29.7,-30.5c0,0,21.3,-11.4,77.1,-11.4l0,-26.4Z" 
	id="f0_20"
	transform="scale(0.001,-0.001)" />

	<path d="M16.6,0l0,26.4c0,0,52.3,0,77.7,16.6c0,0,18.7,12,26.1,38.4c0,0,3.8,12.8,3.8,73.1l0,264c0,0,0,119.7,-4.8,142.5c0,0,-4.9,22.8,-17.9,33.3c0,0,-13,10.4,-32.3,10.4c0,0,-23,0,-52,-11.2L9.8,619.9L216.9,703l31.5,0l0,-154c0,0,85.5,154,175.6,154c0,0,40.9,0,67.7,-25c0,0,26.8,-25.1,26.8,-58c0,0,0,-29.1,-19.3,-49.3c0,0,-19.4,-20.2,-46.2,-20.2c0,0,-26.1,0,-58.4,25.9c0,0,-32.4,25.9,-48.1,25.9c0,0,-13.3,0,-29,-14.9c0,0,-33.4,-30.7,-69.1,-101l0,-327c0,0,0,-56.6,14.1,-85.7c0,0,9.7,-20.1,34.3,-33.7c0,0,24.6,-13.6,70.8,-13.6L367.6,0Z" 
	id="f0_22"
	transform="scale(0.001,-0.001)" />

	<path d="M254.7,-10.6c0,0,-34.3,0,-67.2,18.9c0,0,-32.9,19,-48.6,54.4c0,0,-15.7,35.5,-15.7,109.3l0,459.7l-108.5,0l0,24.4c0,0,41.2,16.4,84.2,55.5c0,0,43.1,39.1,76.9,92.9c0,0,17.3,28.4,48.1,103.9l23.5,0l0,-224.9l159.6,0l0,-51.8l-159.6,0l0,-443.6c0,0,0,-66.5,18.9,-89.6c0,0,18.9,-23.2,48.6,-23.2c0,0,24.5,0,47.5,15.3c0,0,23.1,15.4,35.7,45.3l29.3,0c0,0,-26.2,-73,-74,-109.8c0,0,-47.8,-36.7,-98.7,-36.7Z" 
	id="f0_24"
	transform="scale(0.001,-0.001)" />

	<path d="M54.8,0l0,26.4c0,0,50,0,67.2,9.7c0,0,17.2,9.8,27.3,32.2c0,0,10.1,22.5,10.1,86.2l0,263c0,0,0,111.6,-6.7,144.6c0,0,-5.2,24,-16.3,33.3c0,0,-11.2,9.3,-30.5,9.3c0,0,-20.8,0,-50.5,-11.2L45,619.9L250.7,703l32.9,0l0,-548.5c0,0,0,-64.4,9.3,-85.8c0,0,9.3,-21.3,27.6,-31.8c0,0,18.2,-10.5,66.7,-10.5L387.2,0Zm167,909.3c0,0,-31.3,0,-53.7,22.4c0,0,-22.4,22.4,-22.4,53.8c0,0,0,31.3,22,53.4c0,0,22,22,54.1,22c0,0,31.4,0,53.4,-22c0,0,22,-22.1,22,-53.4c0,0,0,-31.4,-22,-53.8c0,0,-22,-22.4,-53.4,-22.4Z" 
	id="f0_1t"
	transform="scale(0.001,-0.001)" />

	<path d="M405.9,32.3c0,0,72.3,0,119.2,59.6c0,0,47,59.5,47,204.8c0,0,0,181.7,-78.3,285.9c0,0,-52.9,71.5,-134.8,71.5c0,0,-39.5,0,-79.4,-23.4c0,0,-39.8,-23.5,-64.4,-82.3c0,0,-24.6,-58.9,-24.6,-151.2c0,0,0,-149,59.2,-256.9c0,0,59.3,-108,156.1,-108Zm-32,-52.7c0,0,-154.4,0,-245.3,122.8c0,0,-76.8,103.6,-76.8,232.5c0,0,0,93.9,46.6,186.7c0,0,46.6,92.7,122.7,137.1c0,0,76,44.3,161,44.3c0,0,155,0,249,-117.7c0,0,79.7,-100.6,79.7,-231c0,0,0,-91.7,-43.9,-185.6c0,0,-44,-93.9,-121.2,-141.5c0,0,-77.1,-47.6,-171.8,-47.6Z" 
	id="f0_1z"
	transform="scale(0.001,-0.001)" />

	<path d="M20.5,0l0,26.4l15,0c0,0,52.1,0,70.4,26.6c0,0,18.3,26.6,18.3,101.5l0,253.3c0,0,0,123.6,-5.6,150.5c0,0,-5.6,27,-17.1,36.7c0,0,-11.5,9.7,-30.8,9.7c0,0,-20.8,0,-49.8,-11.2L9.8,619.9L216.2,703l32.2,0l0,-144.8c0,0,119.7,144.8,228.4,144.8c0,0,55.8,0,96,-27.9c0,0,40.2,-28,64,-92.1c0,0,16.4,-44.7,16.4,-137.1l0,-291.4c0,0,0,-65.2,10.4,-88.4c0,0,8.2,-18.7,26.5,-29.2c0,0,18.3,-10.5,67.7,-10.5L757.8,0L418.5,0l0,26.4l14.2,0c0,0,47.8,0,66.8,14.6c0,0,19,14.6,26.5,43.1c0,0,3,11.2,3,70.4l0,279.3c0,0,0,93.1,-24.1,135.2c0,0,-24,42.1,-81.1,42.1c0,0,-88.1,0,-175.4,-96.9l0,-359.7c0,0,0,-69.7,8.2,-86.2c0,0,10.5,-21.7,28.8,-31.8c0,0,18.3,-10.1,74.4,-10.1L359.8,0Z" 
	id="f0_1y"
	transform="scale(0.001,-0.001)" />

	<path d="M33.2,0l0,27.3c0,0,263.5,240.3,371,392.6c0,0,107.5,152.3,107.5,278.3c0,0,0,96.2,-59,158.1c0,0,-58.9,61.8,-141,61.8c0,0,-74.6,0,-133.9,-43.5c0,0,-59.3,-43.5,-87.6,-127.5l-27.6,0c0,0,18.6,137.8,95.7,211.6c0,0,77.2,73.8,192.7,73.8c0,0,123,0,205.4,-79.1c0,0,82.4,-79.1,82.4,-186.5c0,0,0,-76.9,-35.9,-153.7c0,0,-55.2,-120.8,-179,-255.9c0,0,-185.8,-203,-233,-244.9l264.6,0c0,0,80.7,0,113.2,6c0,0,32.5,6,58.7,24.2c0,0,26.1,18.3,45.6,51.9l27.3,0L629.5,0Z" 
	id="f0_j"
	transform="scale(0.001,-0.001)" />

	<path d="M379.3,29.3c0,0,40.2,0,83.4,36.2c0,0,43.2,36.2,65.5,121.3c0,0,34.3,128.3,34.3,361.9c0,0,0,173.1,-35.8,288.7c0,0,-26.7,85.8,-69.2,121.6c0,0,-30.5,24.7,-73.7,24.7c0,0,-50.6,0,-90.1,-45.6c0,0,-53.6,-61.9,-72.9,-194.7c0,0,-19.4,-132.8,-19.4,-261.9c0,0,0,-208.9,51.4,-341c0,0,42.4,-111.2,126.5,-111.2Zm-2.2,-46.8c0,0,-144.8,0,-241,170.7c0,0,-81.3,143.9,-81.3,346.8c0,0,0,173,52.2,298c0,0,52.2,124.9,138.8,186c0,0,67.1,48.5,138.8,48.5c0,0,116.4,0,208.9,-118.6c0,0,115.6,-146.9,115.6,-398.2c0,0,0,-176,-50.7,-299.1c0,0,-50.7,-123.1,-129.5,-178.6c0,0,-78.7,-55.5,-151.8,-55.5Z" 
	id="f0_h"
	transform="scale(0.001,-0.001)" />

	<path d="M378.6,437.1c0,0,34.4,0,81.4,16.3c0,0,47.1,16.4,83,46.7c0,0,13.6,96.7,13.6,154.7c0,0,0,72.2,-24.6,155.9c0,0,-24.7,83.7,-69.9,128.3c0,0,-45.2,44.7,-102.8,44.7c0,0,-66.5,0,-116.6,-59.6c0,0,-50.1,-59.6,-50.1,-177.2c0,0,0,-157.2,66.5,-245.8c0,0,48.5,-64,119.5,-64ZM80.2,-20.4l0,27.3c0,0,97,1.5,180.6,45.2c0,0,83.6,43.8,161.6,153c0,0,78,109.2,108.6,240.4c0,0,-117.3,-75.9,-212.2,-75.9c0,0,-106.8,0,-183,82.3c0,0,-76.2,82.3,-76.2,218.6c0,0,0,132.6,76.3,236.1c0,0,91.8,125.9,239.8,125.9c0,0,124.7,0,213.6,-102.9c0,0,109.1,-127.5,109.1,-314.7c0,0,0,-168.6,-82.9,-314.4c0,0,-82.9,-145.8,-230.7,-242c0,0,-120.2,-78.9,-262.1,-78.9Z" 
	id="f0_q"
	transform="scale(0.001,-0.001)" />

	<path d="M19.6,0l0,26.4c0,0,45.5,0,71.7,14.2c0,0,14.9,7.5,23.9,28.5c0,0,9,21,9,85.4l0,619c0,0,0,116.8,-5.6,143.6c0,0,-5.6,26.9,-17.1,36.5c0,0,-11.5,9.7,-30.8,9.7c0,0,-15.6,0,-50.5,-11.9L9.8,977.8l204.3,83.1l34.3,0l0,-500c0,0,82.7,90.8,131.1,116.4c0,0,48.4,25.7,96.8,25.7c0,0,58.1,0,99.9,-32c0,0,41.7,-32.1,61.8,-100.6c0,0,14.2,-47.7,14.2,-174.4l0,-241.5c0,0,0,-65.2,10.4,-89.2c0,0,7.5,-17.9,25.5,-28.4c0,0,17.9,-10.5,65.8,-10.5L753.9,0L417.5,0l0,26.4l15.7,0c0,0,47.8,0,66.4,14.6c0,0,18.7,14.6,26.2,43.1c0,0,2.2,12,2.2,70.4l0,241.6c0,0,0,111.8,-11.5,146.9c0,0,-11.6,35,-36.8,52.5c0,0,-25.3,17.6,-61,17.6c0,0,-36.5,0,-75.9,-19.4c0,0,-39.4,-19.4,-94.4,-78.3l0,-360.9c0,0,0,-70.4,7.8,-87.7c0,0,7.8,-17.2,29.1,-28.8c0,0,21.3,-11.6,73.5,-11.6L358.8,0Z" 
	id="f0_1s"
	transform="scale(0.001,-0.001)" />

	<path d="M411.3,-239.4c0,0,134.2,0,197.9,47.1c0,0,63.8,47.1,63.8,100.6c0,0,0,38.6,-38.1,54.9c0,0,-38.7,16.3,-153.6,19.3c0,0,-167.8,4.6,-258,17.5c0,0,-35,-37.8,-52.9,-70.6c0,0,-17.9,-32.7,-17.9,-60.2c0,0,0,-35.8,43.3,-62.5c0,0,74.6,-46.1,215.5,-46.1ZM379.8,257.2c0,0,56.6,0,93.1,42.3c0,0,36.5,42.4,36.5,133.1c0,0,0,118.3,-51.4,185.2c0,0,-38,49.1,-97.6,49.1c0,0,-55.1,0,-92.4,-43.9c0,0,-37.2,-43.9,-37.2,-134.6c0,0,0,-117.5,50.6,-182.2c0,0,38.8,-49,98.4,-49ZM345.1,-329.4c0,0,-144,0,-243.2,64.9c0,0,-55.9,37.2,-55.9,77.5c0,0,0,17.9,8.1,35.8c0,0,12.7,27.6,52.2,76.8c0,0,5.2,6.7,75.9,80.4c0,0,-38.7,23.1,-54.7,41.4c0,0,-16,18.4,-16,41.5c0,0,0,26.2,21.2,61.3c0,0,21.2,35.1,97.9,99.4c0,0,-62.7,30.5,-96.3,85.2c0,0,-33.6,54.8,-33.6,121c0,0,0,101.3,76.6,174.3c0,0,76.6,72.9,196.1,72.9c0,0,97.9,0,169.6,-47.9l144.9,0c0,0,32.2,0,37.4,-1.8c0,0,5.2,-1.9,7.5,-6.4c0,0,4.4,-6.8,4.4,-24c0,0,0,-19.5,-3.7,-27c0,0,-2.3,-3.7,-7.9,-6c0,0,-5.6,-2.2,-37.9,-2.2l-89,0c0,0,41.7,-53.6,41.7,-137c0,0,0,-95.2,-73.1,-163c0,0,-73.2,-67.7,-196.4,-67.7c0,0,-50.7,0,-103.7,15.2c0,0,-32.9,-28.4,-44.4,-49.7c0,0,-11.6,-21.2,-11.6,-36.1c0,0,0,-12.7,12.3,-24.7c0,0,12.3,-11.9,48.2,-17.1c0,0,20.9,-3.2,104.5,-5.6c0,0,153.7,-3.9,199.3,-11.1c0,0,69.4,-9.6,110.8,-51.3c0,0,41.4,-41.6,41.4,-102.6c0,0,0,-84.1,-79,-157.8c0,0,-116.4,-108.6,-303.6,-108.6Z" 
	id="f0_1r"
	transform="scale(0.001,-0.001)" />

	<path d="M376.4,-20.4L132.8,555.7c0,0,-16.4,40.8,-31.3,58.6c0,0,-14.9,17.8,-38,29.9c0,0,-12.7,6.8,-50,12.9l0,26.4l321.1,0l0,-26.4l-20.8,0c0,0,-29.1,0,-44.3,-14.2c0,0,-15.1,-14.2,-14.5,-38c0,0,-0.6,-26.1,14.9,-62L428.8,165.5L587.6,557.1c0,0,17.2,41.8,17.2,63.4c0,0,0,10.5,-6,17.2c0,0,-8.2,11.2,-20.9,15.3c0,0,-12.6,4.1,-51.4,4.1l0,26.4l223.6,0l0,-26.4c0,0,-38.8,-3.1,-53.7,-15.9c0,0,-26.1,-22.8,-47,-75.8L408.6,-20.4Z" 
	id="f0_26"
	transform="scale(0.001,-0.001)" />

	<path d="M399,61.6c0,0,67.7,0,131,68.3l0,351c0,0,-4.5,51.1,-26.8,92.9c0,0,-22.3,41.8,-59.2,63c0,0,-36.8,21.3,-71.8,21.3c0,0,-65.4,0,-116.8,-58.9c0,0,-67.7,-77.6,-67.7,-226.7c0,0,0,-150.6,65.5,-230.7c0,0,65.5,-80.2,145.8,-80.2Zm-69.5,-82c0,0,-111.7,0,-195.2,93.4c0,0,-83.5,93.6,-83.5,240.4c0,0,0,146.8,92.4,268.7c0,0,92.4,121.9,237.7,121.9c0,0,90.2,0,149.1,-57.6l0,127.1c0,0,0,116.8,-5.6,143.6c0,0,-5.7,26.9,-17.6,36.5c0,0,-12,9.7,-29.9,9.7c0,0,-19.5,0,-51.6,-11.9l-9.7,26.4l203.9,83.1l33.7,0l0,-791c0,0,0,-119.9,5.6,-146.3c0,0,5.6,-26.4,17.9,-36.9c0,0,12.3,-10.4,28.8,-10.4c0,0,20.2,0,53.8,12.7l8.3,-26.4l-203.3,-83l-34.3,0l0,98.1C530,77.7,480,25,432.3,2.2c0,0,-47.7,-22.6,-102.8,-22.6Z" 
	id="f0_1o"
	transform="scale(0.001,-0.001)" />

	<path d="M292,-20.4c0,0,-57.5,0,-99.7,33.1c0,0,-42.1,33.1,-58.5,85.3c0,0,-16.5,52.2,-16.5,147.6l0,304.9c0,0,0,49.1,-10.4,68c0,0,-10.4,18.9,-30.9,29.1c0,0,-19,9.5,-68.5,9.5c-1.8,0,-3.6,0,-5.5,0l0,26.4l239.5,0l0,-457.1c0,0,0,-95.4,33.2,-125.2c0,0,33.2,-29.8,80.1,-29.8c0,0,32.1,0,72.7,20.1c0,0,40.7,20.1,96.6,76.8l0,387.1c0,0,0,58.7,-21.4,79.5c0,0,-21.4,20.7,-89.1,22.2l0,26.4l233.7,0l0,-414.6c0,0,0,-118.7,5.6,-145.2c0,0,5.6,-26.5,18,-36.9c0,0,12.3,-10.5,28.8,-10.5c0,0,23.2,0,52.5,12.7L762.7,62.6l-204.9,-83l-33.7,0l0,144.7c0,0,-88.1,-95.6,-134.3,-120.2c0,0,-46.3,-24.5,-97.8,-24.5Z" 
	id="f0_25"
	transform="scale(0.001,-0.001)" />

	<path d="M144.9,-329.4c0,0,-44.1,0,-72.5,25.3c0,0,-28.4,25.3,-28.4,58c0,0,0,31.3,20.6,50.2c0,0,20.5,19,56.4,19c0,0,24.7,0,67.4,-16.2c0,0,29.9,-11.1,37.3,-11.1c0,0,22.4,0,48.9,23c0,0,26.5,23.1,53.4,89.4L376.1,28L131,542.4c0,0,-11.2,23.4,-35.8,58.1c0,0,-18.7,26.4,-30.6,35.5c0,0,-17.2,12,-55.2,21.1l0,26.4l318.7,0l0,-26.4l-15.7,0c0,0,-33.6,0,-50.4,-14.7c0,0,-16.7,-14.7,-16.7,-36.5c0,0,0,-29.4,24.6,-81.4L436.7,179.1L588.6,557.3c0,0,12.7,31,12.7,61.2c0,0,0,13.6,-5.2,20.4c0,0,-6,8.3,-18.7,13.3c0,0,-12.6,4.9,-44.7,4.9l0,26.4l221.5,0l0,-26.4c0,0,-27.6,-3,-42.5,-12.1c0,0,-14.9,-9,-32.8,-33.9c0,0,-6.7,-10.5,-25.4,-58L376.4,-129.1c0,0,-40.3,-99.1,-105.6,-149.7c0,0,-65.4,-50.6,-125.9,-50.6Z" 
	id="f0_29"
	transform="scale(0.001,-0.001)" />

	<path d="M677.8,393.1L506,801.9L330.3,393.1ZM11.1,0l0,27.4c0,0,63.4,11.2,82,29.1c0,0,38.1,35.9,84.3,145.9l355.7,832.1l27.4,0L912.3,193.2c0,0,42.5,-101.6,77.2,-131.8c0,0,34.7,-30.3,96.6,-34l0,-27.4L686.9,0l0,27.4c0,0,60.5,3,81.7,20.1c0,0,21.3,17.2,21.3,41.9c0,0,0,32.9,-29.9,103.9l-60.4,145l-392.7,0L238.6,179c0,0,-25.4,-59,-25.4,-88.1c0,0,0,-23.2,22,-40.8c0,0,22,-17.5,95.1,-22.7L330.3,0Z" 
	id="f0_v"
	transform="scale(0.001,-0.001)" />

	<path d="M342.2,-20.4c0,0,-116.3,0,-202.9,97.5c0,0,-86.5,97.6,-86.5,263.8c0,0,0,160.9,95.8,261.5c0,0,95.9,100.6,230.1,100.6c0,0,100.7,0,165.6,-53.4c0,0,64.9,-53.4,64.9,-110.9c0,0,0,-28.4,-18.3,-45.9c0,0,-18.3,-17.6,-51,-17.6c0,0,-44,0,-65.9,28.4c0,0,-13.1,15.7,-17.2,59.8c0,0,-4.1,44.2,-30.2,67.3c0,0,-26.1,22.5,-72.2,22.5c0,0,-74.6,0,-120,-55.2c0,0,-60.4,-73,-60.4,-192.9c0,0,0,-122.2,60.1,-215.7c0,0,60,-93.6,162.1,-93.6c0,0,73.1,0,131.2,49.6c0,0,41,34.5,79.8,125.5l21.5,-10c0,0,-27.6,-136,-108.2,-208.7c0,0,-80.5,-72.6,-178.3,-72.6Z" 
	id="f0_1n"
	transform="scale(0.001,-0.001)" />

	<path d="M336.4,-20.4L117.3,553.7c0,0,-21.6,55.1,-42.5,74.3c0,0,-20.9,19.3,-65.6,29.1l0,26.4l286.4,0l0,-26.4c0,0,-39.5,-3,-51.8,-14.4c0,0,-12.3,-11.3,-12.3,-32.4c0,0,0,-23.5,12.7,-56.7L390.3,162.1L537,481L497.7,581.3c0,0,-17.9,45.5,-47,62.9c0,0,-16.4,10.6,-61.2,12.9l0,26.4l326.6,0l0,-26.4c0,0,-54.1,-2.3,-76.7,-19.9c0,0,-15,-12.3,-15,-39.1c0,0,0,-14.7,5.9,-30.2L785,177.2L928.9,553.7c0,0,14.7,40.7,14.7,64.9c0,0,0,14.3,-14.5,25.6c0,0,-14.5,11.4,-56.9,12.9l0,26.4l216,0l0,-26.4c0,0,-64.9,-9.9,-95.5,-89.3L763.8,-20.4l-30.5,0L562.8,415.2L363.5,-20.4Z" 
	id="f0_27"
	transform="scale(0.001,-0.001)" />

	<path d="M396.7,34.2c0,0,67.6,0,125.8,74.4c0,0,58.3,74.4,58.3,216.4c0,0,0,130.9,-58.3,201.2c0,0,-58.2,70.3,-132.5,70.3c0,0,-39.3,0,-78.7,-20.1c0,0,-29.6,-14.9,-75.7,-59.5l0,-407.5c0,0,37.9,-37.2,78.3,-56.2c0,0,40.5,-19,82.8,-19ZM358.1,-20.4c0,0,-59.6,0,-121.1,21.6c0,0,-61.5,21.6,-125.5,65l0,707.3c0,0,0,116.6,-5.6,143.5c0,0,-5.6,26.9,-17.5,36.6c0,0,-11.9,9.7,-29.8,9.7c0,0,-20.8,0,-52.1,-11.9L-3.8,977.8L202,1060.9l33.6,0l0,-496.4c0,0,98.9,138.5,213.4,138.5c0,0,104.8,0,182.8,-89.8c0,0,78.1,-89.8,78.1,-245.5c0,0,0,-181.8,-120.8,-292.9c0,0,-103.5,-95.2,-231,-95.2Z" 
	id="f0_1m"
	transform="scale(0.001,-0.001)" />

	<path d="M26.4,0l0,27.4l35.8,0c0,0,62.7,0,91,36.5c0,0,17.9,23.9,17.9,115l0,654.2c0,0,0,77.2,-9.7,101.8c0,0,-7.4,18.5,-30.6,31.9c0,0,-32.8,17.8,-68.6,17.8l-35.8,0l0,27.4l432.2,0l0,-27.4l-36.4,0c0,0,-35.6,0,-67.5,-17.1c0,0,-23,-11.8,-31.9,-36c0,0,-8.9,-24.1,-8.9,-98.4l0,-291.4l469.7,0l0,291.4c0,0,0,77.2,-9.7,101.8c0,0,-7.5,18.5,-31.3,31.9c0,0,-32.1,17.8,-67.9,17.8l-35.8,0l0,27.4l432.2,0l0,-27.4l-35.8,0c0,0,-35.8,0,-67.9,-17.1c0,0,-23.9,-11.8,-32.5,-36c0,0,-8.5,-24.1,-8.5,-98.4l0,-654.2c0,0,0,-76.9,9.6,-101.5c0,0,7.5,-18.7,30.6,-32.1c0,0,32.9,-17.9,68.7,-17.9l35.8,0l0,-27.4L638.9,0l0,27.4l35.8,0c0,0,61.9,0,90.3,36.5c0,0,18.6,23.9,18.6,115l0,308l-469.7,0l0,-308c0,0,0,-76.9,9.6,-101.5c0,0,7.4,-18.7,31.2,-32.1c0,0,31.9,-17.9,67.5,-17.9l36.4,0L458.6,0Z" 
	id="f0_12"
	transform="scale(0.001,-0.001)" />

	<path d="M393.8,22.5c0,0,80.5,0,129,45.5c0,0,48.5,45.5,48.5,110.4c0,0,0,53.7,-28.4,96.2c0,0,-52.9,79,-214,206.6c0,0,-61.9,-52.3,-91.8,-113.8c0,0,-29.8,-61.5,-29.8,-133.1c0,0,0,-96.2,52.6,-154c0,0,52.6,-57.8,133.9,-57.8ZM411,589.3c0,0,89.9,80.7,113.9,127.3c0,0,23.9,46.7,23.9,105.7c0,0,0,78.4,-44.1,122.8c0,0,-44.2,44.4,-120.5,44.4c0,0,-76.3,0,-124.1,-44c0,0,-47.9,-44.1,-47.9,-103.1c0,0,0,-38.8,19.8,-77.6c0,0,19.8,-38.8,56.4,-73.9L411,589.3ZM381.9,-17.5c0,0,-144.1,0,-224.8,90.1c0,0,-64.2,72.3,-64.2,158.1c0,0,0,67.1,45.2,133c0,0,45.1,66,155.7,145.8c0,0,-120.5,98.5,-155.4,158.2c0,0,-34.8,59.7,-34.8,123.8c0,0,0,98.5,76.3,169.8c0,0,76.2,71.2,202.5,71.2c0,0,122.5,0,197.3,-66.4c0,0,74.7,-66.4,74.7,-151.4c0,0,0,-56.8,-40.3,-115.7c0,0,-40.3,-58.9,-168,-138.8c0,0,131.4,-101.4,174,-159.5c0,0,56.8,-76.1,56.8,-160.3c0,0,0,-106.7,-81.4,-182.3c0,0,-81.4,-75.6,-213.6,-75.6Z" 
	id="f0_p"
	transform="scale(0.001,-0.001)" />

	<path d="M30,0l0,27.4l10.5,0c0,0,0.4,0,1.3,0c6.4,0,35.8,0.6,61.8,10.8c0,0,29.3,11.6,44.3,31.1c0,0,15.1,19.5,23.3,54.7c0,0,1.5,8.3,1.5,76.4l0,640.5c0,0,0,76.7,-8.2,95.7c0,0,-8.3,19,-33.9,33.5c0,0,-25.5,14.5,-68.3,14.5l-32.3,0l0,27.4l414.5,0l284,-666L1003,1012l411.6,0l0,-27.4l-32.9,0c0,0,-44.8,0,-71.7,-15.6c0,0,-18.7,-10.4,-29.9,-35c0,0,-8.2,-17.9,-8.2,-93.1l0,-667.8c0,0,0,-77.8,8.2,-97.2c0,0,8.2,-19.4,33.6,-34c0,0,25.4,-14.5,68,-14.5l32.9,0l0,-27.4L885.7,0l0,27.4l32.8,0c0,0,44.9,0,71.8,15.7c0,0,18.7,10.4,29.9,35.8c0,0,8.2,18,8.2,94.2l0,749.7L640.8,0L622.9,0L229.4,915.8l0,-712.4c0,0,0,-74.6,3.7,-91.8c0,0,9.7,-37.2,42.2,-60.7c0,0,32.4,-23.5,101.8,-23.5L377.1,0Z" 
	id="f1_x"
	transform="scale(0.001,-0.001)" />

	<path d="M32.3,0l0,26.4c0,0,46,1.5,68.2,27c0,0,14.9,17.2,14.9,91.3l0,722.6c0,0,0,73.2,-17.1,93.8c0,0,-17.1,20.5,-66,23.5l0,27.4l292.3,0l0,-867.3c0,0,0,-74.1,17.3,-94.7c0,0,17.3,-20.6,67.8,-23.6L409.7,0Z" 
	id="f1_1k"
	transform="scale(0.001,-0.001)" />

	<path d="M527.7,91.9c0,0,28.4,0,63.9,12.3c0,0,35.4,12.3,77.3,37c0,0,-180.1,184.3,-275.7,382.8c0,0,-59.7,-25.4,-84.3,-53.7c0,0,-35.1,-41.8,-35.1,-93.3c0,0,0,-70.2,40.7,-139.6c0,0,40.7,-69.4,98.2,-107.4c0,0,57.5,-38.1,115,-38.1Zm44.9,557.9c0,0,77.9,29.1,104.7,62.2c0,0,26.7,33.2,26.7,80.1c0,0,0,83.5,-44,140.9c0,0,-29,37.9,-71.5,37.9c0,0,-35,0,-60,-27.5c0,0,-24.9,-27.6,-24.9,-74.5c0,0,0,-36.5,11.9,-78.3c0,0,12.1,-41.7,57.1,-140.8ZM369.6,-23.4c0,0,-141.8,0,-225.4,76.8c0,0,-83.6,76.8,-83.6,180.5c0,0,0,111.9,79.8,194.7c0,0,79.8,82.8,231.9,143.2c0,0,-19.4,48.5,-29.2,94.8c0,0,-9.7,46.2,-9.7,89.5c0,0,0,119.4,83.8,198.9c0,0,83.9,79.5,214.2,79.5c0,0,105.1,0,166.6,-52.5c0,0,61.5,-52.6,61.5,-122.6c0,0,0,-84.2,-62.7,-144.2c0,0,-62.7,-60,-198.5,-109.9c0,0,84.2,-148.4,246.8,-320.1c0,0,109.2,122.6,109.2,210.3c0,0,0,31.2,-21.6,53.1c0,0,-21.7,21.9,-63.4,26.3l0,29.4l310.9,0l0,-29.4c0,0,-52.3,-7.4,-82.2,-30.8c0,0,-29.9,-23.5,-77.8,-109c0,0,-47.8,-85.6,-134.5,-191.2c0,0,76.1,-69.1,123.9,-96.1c0,0,33.6,-18.7,65.7,-18.7c0,0,55.2,0,100,72.3L1205.6,185c0,0,-61.1,-119.9,-130.4,-170.5c0,0,-52.9,-37.9,-120.8,-37.9c0,0,-58.1,0,-110.6,24.9c0,0,-52.6,24.9,-127.9,93.4c0,0,-93.3,-62.5,-175.4,-90.4c0,0,-82.1,-27.9,-170.9,-27.9Z" 
	id="f1_4"
	transform="scale(0.001,-0.001)" />

	<path d="M365.1,-20.4c0,0,-139.4,0,-222.9,105c0,0,-83.5,105.2,-83.5,252.9c0,0,0,142.5,76.1,250.6c0,0,91.7,130.6,252.8,130.6c0,0,108.2,0,172,-54.4c0,0,63.8,-54.4,63.8,-121.4c0,0,0,-42.5,-25.7,-67.8c0,0,-25.8,-25.3,-67.6,-25.3c0,0,-44,0,-72.7,29.1c0,0,-28.7,29.1,-35.4,103.7c0,0,-4.5,47,-21.7,65.6c0,0,-17.1,18.7,-40.2,18.7c0,0,-35.9,0,-61.2,-38.1c0,0,-38.8,-57.4,-38.8,-175.9c0,0,0,-98.4,31.3,-188.2c0,0,31.3,-89.9,85.7,-133.9c0,0,41,-32,96.9,-32c0,0,36.5,0,69.2,17.1c0,0,32.8,17.2,77.6,64.9l23.1,-17.9c0,0,-49.2,-92.9,-122.6,-138.1c0,0,-73.5,-45.2,-156.2,-45.2Z" 
	id="f1_1b"
	transform="scale(0.001,-0.001)" />

	<path d="M449.9,514.8c0,0,91.3,0,140.6,54c0,0,49.4,54.1,49.4,167.5c0,0,0,112.6,-49.3,164.8c0,0,-49.4,52.2,-147.4,52.2l-30.7,0l0,-437c0,0,24.7,-1.5,37.4,-1.5ZM39.1,0l0,27.4c0,0,69.8,0,94.7,13.1c0,0,25,13.1,35,34.1c0,0,10.1,20.9,10.1,103.4l0,656.1c0,0,0,82.4,-10.1,103.7c0,0,-10,21.4,-35.3,34.1c0,0,-25.3,12.7,-94.4,12.7l0,27.4l440.8,0c0,0,217.9,0,312.6,-77.7c0,0,94.8,-77.7,94.8,-194.3c0,0,0,-98.6,-61.2,-168.8c0,0,-61.2,-70.2,-168.7,-95.7c0,0,-72.4,-17.9,-244.9,-17.9l0,-279.6c0,0,0,-82.5,10.1,-103.8c0,0,10,-21.4,35.7,-34.1c0,0,25.6,-12.7,94.1,-12.7L552.4,0Z" 
	id="f1_10"
	transform="scale(0.001,-0.001)" />

	<path d="M37.2,273.8l0,154.5l435.4,0l0,-154.5Z" 
	id="f1_8"
	transform="scale(0.001,-0.001)" />

	<path d="M29.3,0l0,27.4l33.7,0c0,0,44.1,0,71,15.7c0,0,19.4,10.4,29.9,35.8c0,0,8.2,18,8.2,94.2l0,665.8c0,0,0,77.8,-8.2,97.2c0,0,-8.2,19.4,-33.3,34c0,0,-25,14.5,-67.6,14.5l-33.7,0l0,27.4l529,0l0,-27.4l-33.4,0c0,0,-43.9,0,-70.7,-15.7c0,0,-19.3,-10.4,-30.5,-35.8c0,0,-8.1,-18,-8.1,-94.2l0,-665.8c0,0,0,-77.8,8.5,-97.2c0,0,8.6,-19.4,33.5,-34c0,0,24.9,-14.5,67.3,-14.5l33.4,0L558.3,0Z" 
	id="f1_u"
	transform="scale(0.001,-0.001)" />

	<path d="M610.3,-22.4c0,0,-161.8,0,-287.5,64.8c0,0,-125.7,64.8,-193.9,186.3c0,0,-68.3,121.5,-68.3,258.7c0,0,0,144.6,75.7,274.3c0,0,75.8,129.7,204.4,201.2c0,0,128.7,71.6,273.5,71.6c0,0,106.6,0,225.3,-46.4c0,0,68.6,-26.9,87.2,-26.9c0,0,23.9,0,41.4,17.5c0,0,17.6,17.6,22.8,55.8l29.3,0l0,-351l-29.3,0c0,0,-32.8,137.3,-122.4,210.4c0,0,-89.5,73.1,-202.9,73.1c0,0,-94.7,0,-173.8,-54.3c0,0,-79.1,-54.4,-115.6,-142.3c0,0,-47,-112.5,-47,-250.3c0,0,0,-135.5,34.3,-246.9c0,0,34.3,-111.3,107.4,-168.3c0,0,73.1,-57,189.4,-57c0,0,95.5,0,174.9,41.8c0,0,79.4,41.7,167.4,143.8l0,-87.3c0,0,-85,-88.8,-177.1,-128.7c0,0,-92.1,-39.9,-215.2,-39.9Z" 
	id="f1_o"
	transform="scale(0.001,-0.001)" />

	<path d="M28.4,0l0,27.4l33.6,0c0,0,44.1,0,71,15.7c0,0,19.4,10.4,29.9,35.8c0,0,8.2,18,8.2,94.2l0,665.8c0,0,0,77.8,-8.2,97.2c0,0,-8.2,19.4,-33.3,34c0,0,-25,14.5,-67.6,14.5l-33.6,0l0,27.4l539.7,0l0,-27.4l-44,0c0,0,-44,0,-70.8,-15.7c0,0,-19.4,-10.4,-30.5,-35.8c0,0,-8.2,-18,-8.2,-94.2l0,-644.9c0,0,0,-77.6,8.9,-98.8c0,0,9,-21.3,35.1,-31.8c0,0,18.6,-6.7,90.3,-6.7l84.3,0c0,0,80.7,0,134.4,28.3c0,0,53.7,28.4,92.9,89.5c0,0,39.2,61.1,74.3,180.4l30.3,0L926.9,0Z" 
	id="f1_w"
	transform="scale(0.001,-0.001)" />

	<path d="M597.5,33.3c0,0,113.3,0,176.8,85.8c0,0,91.7,123.1,91.7,370.1c0,0,0,243.3,-57.4,352.2c0,0,-71.6,137.4,-211.1,137.4c0,0,-134.3,0,-207.4,-139.6c0,0,-61.2,-117.1,-61.2,-333.6c0,0,0,-259.7,91.7,-385c0,0,64.2,-87.3,176.9,-87.3ZM880.3,-275.6c0,0,-138.8,0,-248.1,67.9c0,0,-109.3,67.8,-164.5,199c0,0,-183.6,38.7,-295.8,179.6c0,0,-112.3,141,-112.3,336.3c0,0,0,226.7,152.2,377c0,0,152.1,150.3,386.4,150.3c0,0,233.5,0,384.9,-150.6c0,0,151.5,-150.7,151.5,-376.7c0,0,0,-196.8,-118.6,-342.2C1016,165,897.3,19.5,730.2,-8.7c0,0,34.4,-99.3,106.8,-149.4c0,0,72.4,-50,181.3,-50c0,0,29.9,0,63.5,5.8l0,-45.9c0,0,-112.7,-27.4,-201.5,-27.4Z" 
	id="f1_11"
	transform="scale(0.001,-0.001)" />

	<path d="M404.1,381.3l0,399.5L109.6,381.3ZM404.1,0l0,226.8l-366,0l0,154.5l480.2,651.2l91.1,0l0,-651.2l92.9,0l0,-154.5l-92.9,0L609.4,0Z" 
	id="f1_f"
	transform="scale(0.001,-0.001)" />

	<path d="M37.2,0l0,16.4c0,0,275,326.2,333.2,438.8c0,0,58.2,112.7,58.2,220.2c0,0,0,78.4,-48.6,130.2c0,0,-48.5,51.9,-118.8,51.9c0,0,-115,0,-178.5,-115l-27.6,9.7c0,0,40.3,143.2,122.4,211.8c0,0,82.2,68.5,189.7,68.5c0,0,76.9,0,140.3,-35.8c0,0,63.5,-35.8,99.3,-98.1c0,0,35.9,-62.3,35.9,-116.7c0,0,0,-99.2,-55.3,-201.4c0,0,-75.4,-138,-329.2,-384.9l218.7,0c0,0,80.6,0,104.9,6.6c0,0,24.2,6.8,39.9,22.8c0,0,15.7,16,41.1,67.4l26.8,0L633,0Z" 
	id="f1_d"
	transform="scale(0.001,-0.001)" />

	<path d="M383.3,34.2c0,0,37.4,0,56.2,23.9c0,0,31.4,41.7,35.9,128.9l3,320.5c0,0,0,265.3,-3,309.3c0,0,-7.5,103.5,-35.9,140.1c0,0,-18.8,23.8,-60.7,23.8c0,0,-32.3,0,-51,-17.9c0,0,-27.7,-26.1,-37.4,-92c0,0,-9.8,-66,-9.8,-460.2c0,0,0,-214.6,15,-287.7c0,0,11.2,-52.9,32.2,-70.8c0,0,21,-17.9,55.5,-17.9Zm-2.2,-54.6c0,0,-73.2,0,-132.2,37.2c0,0,-59,37.2,-104.5,106.6c0,0,-32.9,50.7,-57.5,135c0,0,-32.1,114.1,-32.1,235.7c0,0,0,164.8,46.3,302.7c0,0,38,114.2,115.7,174.9c0,0,77.7,60.8,164.3,60.8c0,0,88.1,0,164.6,-60c0,0,76.6,-60,112.4,-161.5c0,0,50.1,-139.4,50.1,-305c0,0,0,-151.4,-42.6,-282.7c0,0,-25.4,-80.5,-68.3,-132c0,0,-43,-51.4,-97.5,-81.6c0,0,-54.5,-30.1,-118.7,-30.1Z" 
	id="f1_b"
	transform="scale(0.001,-0.001)" />

	<path d="M114.4,0l0,27.4l26.8,0c0,0,64.9,0,92.5,14.9c0,0,27.6,15,37.2,41.1c0,0,9.7,26.2,9.7,121.9l0,524.2c0,0,0,70.5,-6.7,88.1c0,0,-6.7,17.7,-25,30c0,0,-18.3,12.3,-42.2,12.3c0,0,-38,0,-92.5,-23.9l-13.5,26.4l372.4,170.1l24.6,0l0,-827.2c0,0,0,-93.5,8.2,-119.2c0,0,8.2,-25.8,34.4,-42.3c0,0,26.2,-16.4,83.8,-16.4l23.2,0L647.3,0Z" 
	id="f1_c"
	transform="scale(0.001,-0.001)" />

	<path d="M271.2,-20.4L546.4,814.5l-209.3,0c0,0,-122.9,0,-184.7,-32.1c0,0,-43.3,-22.3,-71.5,-84.2l-29.1,0L125,1012l603.8,0L388.3,-20.4Z" 
	id="f1_i"
	transform="scale(0.001,-0.001)" />

	<path d="M32.3,0l0,27.4l33.6,0c0,0,44.1,0,71,15.7c0,0,19.4,10.4,29.9,35.8c0,0,8.2,18,8.2,94.2l0,665.8c0,0,0,77.8,-8.2,97.2c0,0,-8.2,19.4,-33.3,34c0,0,-25,14.5,-67.6,14.5l-33.6,0l0,27.4l528.9,0l0,-27.4l-33.4,0c0,0,-43.9,0,-70.7,-15.7c0,0,-19.3,-10.4,-30.4,-35.8c0,0,-8.2,-18,-8.2,-94.2l0,-286.5l356.3,0l0,286.5c0,0,0,77.8,-8.2,97.2c0,0,-8.3,19.4,-33.7,34c0,0,-25.4,14.5,-68,14.5l-32.9,0l0,27.4l529,0l0,-27.4l-32.9,0c0,0,-44.9,0,-71,-15.7c0,0,-19.4,-10.4,-30.6,-35.8c0,0,-8.3,-18,-8.3,-94.2l0,-665.8c0,0,0,-77.8,8.3,-97.2c0,0,8.2,-19.4,33.6,-34c0,0,25.4,-14.5,68,-14.5l32.9,0L1161,0L632,0l0,27.4l32.9,0c0,0,44.9,0,71,15.7c0,0,19.4,10.4,30.7,35.8c0,0,8.2,18,8.2,94.2l0,313.8l-356.3,0l0,-313.8c0,0,0,-77.8,8.5,-97.2c0,0,8.6,-19.4,33.5,-34c0,0,24.9,-14.5,67.3,-14.5l33.4,0L561.2,0Z" 
	id="f1_t"
	transform="scale(0.001,-0.001)" />

	<path d="M396.7,69.4c0,0,65.5,0,123.5,102.8l0,366.6c0,0,-55.1,105.6,-134.7,105.6c0,0,-27.5,0,-45.3,-14.9c0,0,-27.6,-23.1,-45,-81.2c0,0,-17.5,-58.1,-17.5,-178c0,0,0,-131.8,19.3,-195.1c0,0,19.4,-63.3,52.8,-91.6c0,0,17.1,-14.2,46.9,-14.2ZM332.3,-20.4c0,0,-133.5,0,-211,119.2c0,0,-62.6,97,-62.6,238c0,0,0,112.6,38.7,201.7c0,0,38.8,89.2,106.3,134.7c0,0,67.5,45.5,145,45.5c0,0,50,0,88.7,-19.4c0,0,38.8,-19.3,82.8,-67.6l0,210.2c0,0,0,79.9,-6.7,96.3c0,0,-9,21.6,-26.9,32.1c0,0,-17.9,10.4,-67.1,10.4l0,31.3l309.9,0l0,-802.7c0,0,0,-81.3,4.5,-96.2c0,0,5.9,-24.6,22.5,-36.6c0,0,16.7,-11.9,58.1,-14.9l0,-24.4L520.2,-20.4l0,110.3c0,0,-53,-64.2,-94.3,-87.3c0,0,-41.4,-23,-93.6,-23Z" 
	id="f1_1c"
	transform="scale(0.001,-0.001)" />

	<path d="M304.3,-20.4c0,0,-59,0,-104.8,36c0,0,-45.9,36.1,-61.6,84.5c0,0,-15.7,48.5,-15.7,169.1l0,276.4c0,0,0,79.3,-14.5,98.7c0,0,-14.6,19.5,-60.8,25.5l0,27.4l284.6,0l0,-476c0,0,0,-74.5,7,-96.1c0,0,7.1,-21.6,22.4,-32.8c0,0,15.3,-11.1,35.4,-11.1c0,0,26.8,0,48.4,14.1c0,0,29.8,19.4,71.6,78.2l0,372.1c0,0,0,79.3,-14.6,98.7c0,0,-14.5,19.5,-60.7,25.5l0,27.4l284.5,0l0,-545.6c0,0,0,-80.2,14.9,-100.1c0,0,14.9,-19.9,60.4,-25.1L800.8,0L516.3,0l0,93.3c0,0,-50,-59.7,-100,-86.8c0,0,-50,-26.9,-112,-26.9Z" 
	id="f1_1s"
	transform="scale(0.001,-0.001)" />

	<path d="M434.2,31.3c0,0,38.1,0,65.3,21.6c0,0,27.2,21.7,45.4,85.9c0,0,18.3,64.2,18.3,231.4c0,0,0,160.4,-40.2,220.1c0,0,-29.1,43.3,-78.3,43.3c0,0,-64.1,0,-123,-72.4l0,-310.5c0,0,0,-94.8,4.5,-120.9c0,0,7.4,-44,35.7,-71.3c0,0,28.4,-27.2,72.3,-27.2ZM115.4,-20.4l0,887.7c0,0,0,60.5,-5.3,74.7c0,0,-7.5,21,-23.6,31c0,0,-16.1,10.1,-54.2,11.6l0,27.4l289.4,0l0,-384.3c0,0,88,91,192.4,91c0,0,71.7,0,135.1,-42.2c0,0,63.4,-42.1,99.2,-119.7c0,0,35.8,-77.6,35.8,-179c0,0,0,-114.2,-45.5,-207.4c0,0,-45.5,-93.2,-121.6,-142.1c0,0,-76.1,-48.7,-173.7,-48.7c0,0,-56.7,0,-100.7,17.7c0,0,-44,17.6,-86.5,57.5L140.7,-20.4Z" 
	id="f1_1a"
	transform="scale(0.001,-0.001)" />

	<path d="M51.8,0l0,26.4c0,0,44,4.5,62.6,28.5c0,0,12.7,16.5,12.7,96.7l0,708.9c0,0,0,79.3,-14.5,98.7c0,0,-14.6,19.4,-60.8,25.4l0,27.4l284.6,0l0,-403.7c0,0,57.4,60.4,105.2,85.4c0,0,47.7,25,99.2,25c0,0,65.7,0,112.3,-37.3c0,0,46.7,-37.3,62,-87.7c0,0,15.3,-50.4,15.3,-169.8l0,-272.3c0,0,0,-80.2,14.9,-100.1c0,0,14.9,-19.9,60.4,-25.1L805.7,0l-354,0l0,26.4c0,0,37.4,5.2,56,30c0,0,13.5,19.5,13.5,95.2l0,311.1c0,0,0,86.6,-6.8,108.6c0,0,-6.7,22,-22.7,34.3c0,0,-16,12.4,-36.1,12.4c0,0,-29.8,0,-58.1,-20.6c0,0,-28.4,-20.5,-61.1,-72l0,-373.8c0,0,0,-75,11.2,-93.7c0,0,14.1,-25.5,58.2,-31.5L405.8,0Z" 
	id="f1_1g"
	transform="scale(0.001,-0.001)" />

	<path d="M393.1,-277.6c0,0,104,0,163.4,27.6c0,0,59.5,27.5,59.5,77.4c0,0,0,18.7,-11.2,31.3c0,0,-20.2,22.3,-61,30.5c0,0,-40.8,8.2,-217.3,8.2c0,0,-76.3,0,-101,-12.6c0,0,-42.7,-23.1,-42.7,-62.6c0,0,0,-38,44.2,-68.9c0,0,44.1,-30.9,166.1,-30.9ZM366.5,253.2c0,0,44.9,0,74.8,41.2c0,0,30,41.1,30,160c0,0,0,133.8,-33.7,182.4c0,0,-23.9,35.9,-67.4,35.9c0,0,-43.4,0,-73.3,-43.7c0,0,-30,-43.8,-30,-181.3c0,0,0,-111.5,29.6,-153c0,0,29.6,-41.5,70,-41.5Zm7.8,-582.6c0,0,-94.1,0,-171.7,18.3c0,0,-77.7,18.3,-111.3,50.7c0,0,-33.6,32.5,-33.6,68.3c0,0,0,34.3,25.7,61.6c0,0,25.7,27.2,95.7,45.9c0,0,-97,47.6,-97,132.5c0,0,0,51.3,39.5,99.8c0,0,39.6,48.4,125.3,84.2c0,0,-99.8,36.5,-144.5,96.3c0,0,-44.7,59.7,-44.7,138.1c0,0,0,102.3,83.6,177.3c0,0,83.6,75.1,215,75.1c0,0,69.4,0,143.3,-29.4l234.7,0l0,-82.1l-133.2,0c0,0,36.6,-36.5,50.8,-66.4c0,0,17.9,-40.3,17.9,-84.3c0,0,0,-74.6,-41.5,-129.5c0,0,-41.4,-54.9,-112.8,-85.8c0,0,-71.3,-31,-126.6,-31c0,0,-4.5,0,-89.7,3.8c0,0,-33.6,0,-56.4,-22c0,0,-22.8,-21.9,-22.8,-52.4c0,0,0,-26.7,20.5,-43.8c0,0,20.6,-17.1,67,-17.1l129.3,1.5c0,0,156.9,0,216,-34.4c0,0,84.4,-47.6,84.4,-146.9c0,0,0,-63.4,-38.8,-115.2c0,0,-38.8,-51.9,-102.3,-76.5c0,0,-96.3,-36.6,-221.8,-36.6Z" 
	id="f1_1f"
	transform="scale(0.001,-0.001)" />

	<path d="M49.4,0l0,26.4c0,0,47,0.7,66.9,10.8c0,0,19.8,10.1,27.3,28c0,0,7.4,17.9,7.4,74.6l-0.7,484l-100.9,0l0,73.4l100.8,0l0,51.8l-0.1,35c0,0,0,107.4,78.5,178.9c0,0,78.6,71.6,212.7,71.6c0,0,91.6,0,136,-34.4c0,0,44.3,-34.4,44.3,-76.2c0,0,0,-33.7,-27.6,-58.3c0,0,-27.6,-24.7,-73.1,-24.7c0,0,-38.8,0,-61.6,20.1c0,0,-22.7,20.2,-22.7,44.7c0,0,0,6.8,4.7,27.6c0,0,3.1,12.7,3.1,23.9c0,0,0,15.6,-9,23.1c0,0,-12,11.2,-29.2,11.2c0,0,-21.6,0,-36.2,-17.9c0,0,-14.6,-17.8,-14.6,-57.2l0.3,-130.1l0.2,-89.1l104.1,0l0,-73.4l-103.9,0l1.2,-484c0,0,0,-70.1,14.9,-88c0,0,22,-25.5,80.5,-25.5c2.4,0,4.8,0,7.3,0.1L460,0Z" 
	id="f1_1e"
	transform="scale(0.001,-0.001)" />

	<path d="M609.8,343.2L458.6,690.3L303.8,343.2ZM11.6,0l0,27.4c0,0,54.5,8.2,89.6,45.2c0,0,35,37.1,86.5,153.1l361.6,806.8l14.1,0L928,203.3c0,0,52.2,-118.3,85.8,-149c0,0,25.4,-23.2,71.6,-26.9l0,-27.4L596.1,0l0,27.4l20.2,0c0,0,58.9,0,82.8,16.4c0,0,16.4,12,16.4,34.5c0,0,0,13.5,-4.5,27.7c0,0,-1.5,6.7,-22.4,56.1l-55,126.4l-354.2,0l-44,-98.7c0,0,-20.9,-49.4,-20.9,-81.6c0,0,0,-42.7,34.3,-62.9c0,0,20.2,-11.9,99.2,-17.9L348,0Z" 
	id="f1_m"
	transform="scale(0.001,-0.001)" />

	<path d="M551.5,-23.4c0,0,-165.7,0,-251.5,57.4c0,0,-85.8,57.4,-121.6,154.4c0,0,-23.9,66.4,-23.9,249.2l0,395.5c0,0,0,93.3,-25.7,122.4c0,0,-25.7,29.1,-83,29.1l-38,0l0,27.4l436.1,0l0,-27.4l-38.7,0c0,0,-62.5,0,-89.3,-39.5c0,0,-18.7,-26.9,-18.7,-112l0,-440.8c0,0,0,-58.9,10.9,-135c0,0,10.8,-76,39.1,-118.5c0,0,28.4,-42.5,81.8,-70.1c0,0,53.4,-27.6,131,-27.6c0,0,99.3,0,177.7,43.2c0,0,78.4,43.3,107.1,110.8c0,0,28.8,67.5,28.8,228.6l0,409.4c0,0,0,94.8,-20.8,118.7c0,0,-29,32.8,-86.1,32.8l-37.8,0l0,27.4l356.8,0l0,-27.4l-37.8,0c0,0,-59.4,0,-91.3,-50c0,0,-15.6,-23.1,-15.6,-107.4l0,-410.4c0,0,0,-152.2,-30.2,-236.2c0,0,-30.2,-83.9,-118.7,-144c0,0,-88.4,-60,-240.6,-60Z" 
	id="f0_1f"
	transform="scale(0.001,-0.001)" />

	<path d="M23.5,0l0,26.4c0,0,46.9,0,65.6,10.1c0,0,18.6,10.1,28.3,32.2c0,0,9.7,22.1,9.7,85.8l0,261.1c0,0,0,112.9,-6.7,145.8c0,0,-5.3,24.7,-16.5,34c0,0,-11.3,9.3,-30.7,9.3c0,0,-21,0,-50.2,-11.2L11.7,619.9L219,703l32.3,0l0,-145.8c0,0,74.5,74.8,87.9,86c0,0,33.5,28.4,72.2,44.1c0,0,38.7,15.7,76.7,15.7c0,0,64.1,0,110.3,-37.4c0,0,46.1,-37.4,61.8,-108.4c0,0,76.8,89.7,129.7,117.8c0,0,53,28,108.9,28c0,0,54.4,0,96.5,-27.9c0,0,42.2,-28,66.8,-91.3c0,0,16.4,-43.3,16.4,-135.7l0,-293.6c0,0,0,-64.4,9.7,-88.4c0,0,7.4,-16.5,27.5,-28.1c0,0,20.1,-11.6,65.5,-11.6l0,-26.4L843.8,0l0,26.4l14.2,0c0,0,44.1,0,68.7,17.2c0,0,17.1,12,24.6,38.2c0,0,3,12.8,3,72.7l0,293.3c0,0,0,83.4,-20.1,117.6c0,0,-29,47.7,-93.1,47.7c0,0,-39.4,0,-79.3,-19.8c0,0,-39.8,-19.7,-96.4,-73.3l-1.5,-8.2l2,-32.1l0,-325.2c0,0,0,-70.4,7.7,-87.7c0,0,7.8,-17.2,29.3,-28.8c0,0,21.5,-11.6,73.5,-11.6L776.4,0L431.2,0l0,26.4c0,0,56.4,0,77.5,13.5c0,0,21.1,13.5,29.3,40.4c0,0,3.7,12.8,3.7,74.2l0,293.3c0,0,0,83.3,-24.5,120.1c0,0,-32.7,48.1,-91.4,48.1c0,0,-40.1,0,-79.5,-21.8c0,0,-61.6,-33,-95,-74.2l0,-365.5c0,0,0,-67.4,9.2,-87.7c0,0,9.3,-20.2,27.5,-30.3c0,0,18.2,-10.1,73.8,-10.1L361.8,0Z" 
	id="f0_1x"
	transform="scale(0.001,-0.001)" />

	<path d="M400.5,66.5c0,0,47,0,90.6,18.6c0,0,43.7,18.7,119,79.8c0,0,-98.4,134.5,-136.4,196.5c0,0,-38.1,62,-83.6,153.9c0,0,-89.6,-51.6,-134.7,-113.5c0,0,-45.2,-62,-45.2,-134.5c0,0,0,-79.8,51.5,-140.3c0,0,51.5,-60.5,138.8,-60.5Zm94.3,565.3c0,0,92.2,44.1,138,99.9c0,0,45.8,55.9,45.8,124.4c0,0,0,53.6,-33.3,88.6c0,0,-33.2,35,-82.6,35c0,0,-65,0,-98.2,-45c0,0,-33.3,-45.1,-33.3,-88.3c0,0,0,-36.5,12.9,-81.5c0,0,12.8,-45.1,50.7,-133.1ZM323.6,-23.4c0,0,-123.1,0,-195.5,65.6c0,0,-72.4,65.7,-72.4,156.7c0,0,0,90.3,64.9,180.2c0,0,65,89.9,244.1,186.2c0,0,-35.2,77.6,-47.9,127.2c0,0,-12.7,49.6,-12.7,95.1c0,0,0,127.5,94.1,194.7c0,0,73.2,52.2,166.5,52.2c0,0,88.9,0,144.9,-52.6c0,0,56,-52.6,56,-129.5c0,0,0,-79.1,-54.1,-138.8c0,0,-54.1,-59.7,-191.3,-130.6c0,0,94.5,-168.6,197.4,-309c0,0,131,156.8,131,264c0,0,0,34.3,-22.4,61.1c0,0,-16.4,20,-46.9,23.8l0,28.3l312.9,0l0,-28.3c0,0,-64.8,-5.2,-95.8,-28.7c0,0,-30.9,-23.5,-96.4,-142.1c0,0,-65.5,-118.7,-147.3,-221.6c0,0,66.3,-77.6,118.5,-108.6c0,0,52.3,-31,105.2,-31c0,0,51.5,0,87.3,28c0,0,35.8,28,50.7,82.4L1142,181.2c0,0,-27.6,-105.1,-88.7,-154.9c0,0,-61.2,-49.7,-142.5,-49.7c0,0,-61.2,0,-124.2,33c0,0,-63.1,33.1,-137.7,112c0,0,-92.5,-81.8,-166.7,-113.4c0,0,-74.3,-31.6,-158.6,-31.6Z" 
	id="f0_8"
	transform="scale(0.001,-0.001)" />

	<path d="M62.6,0l0,26.4l30.5,0c0,0,29.8,0,54.4,15c0,0,24.5,15,33.8,40.5c0,0,9.4,25.5,9.4,99l0,448.8l-133,0l0,53.8l133,0l0,44.7c0,0,0,102,32.9,172.8c0,0,32.9,70.8,100.5,114.3c0,0,67.7,43.6,152.2,43.6c0,0,78.5,0,144.2,-50.6c0,0,43.4,-33.6,43.4,-75.3c0,0,0,-22.3,-19.4,-42.1c0,0,-19.4,-19.7,-41.8,-19.7c0,0,-17.1,0,-36.1,12.3c0,0,-19,12.3,-46.6,52.8c0,0,-27.6,40.6,-50.8,54.7c0,0,-23.1,14.2,-51.4,14.2c0,0,-34.3,0,-58.2,-18.3c0,0,-23.9,-18.2,-34.3,-56.6c0,0,-10.5,-38.3,-10.5,-197.7l0,-49.1l176,0l0,-53.8l-176,0l0,-448.8c0,0,0,-96,20.9,-121.5c0,0,27.6,-33,73.8,-33l61.8,0L471.3,0Z" 
	id="f0_1q"
	transform="scale(0.001,-0.001)" />

	<path d="M552.8,-22.4L174.2,849.1c0,0,-29.1,67.4,-41.1,82.4c0,0,-18.6,23.2,-45.8,36.3c0,0,-27.3,13.1,-73.5,16.8l0,27.4l412.8,0l0,-27.4c0,0,-70.1,-6.7,-91,-23.8c0,0,-20.9,-17.2,-20.9,-44c0,0,0,-37.3,34.4,-116.4L606.7,207.3L845.8,792.9c0,0,35,86.6,35,120.1c0,0,0,21.7,-21.6,41.4c0,0,-21.6,19.8,-73.1,28c0,0,-3.7,0.8,-12.7,2.2l0,27.4l311,0l0,-27.4c0,0,-53.7,-9.7,-81.3,-34.4c0,0,-39.5,-36.7,-70.1,-112.4L580.7,-22.4Z" 
	id="f0_1g"
	transform="scale(0.001,-0.001)" />


</defs>
</svg>