<?xml version="1.0" encoding="UTF-8" standalone="no"?>
<!DOCTYPE svg PUBLIC "-//W3C//DTD SVG 1.1//EN"
"http://www.w3.org/Graphics/SVG/1.1/DTD/svg11.dtd">
<svg viewBox="0 0 909 1286" version="1.1" xmlns="http://www.w3.org/2000/svg" xmlns:xlink="http://www.w3.org/1999/xlink">
<defs>
<clipPath id="c0_25"><path d="M760.8,1223.8v-18.9h18.4v18.9Z" /></clipPath>
<clipPath id="c1_25"><path d="M27.5,1223.8V27.5h854V1223.8Z" /></clipPath>
<style type="text/css"><![CDATA[
.g0_25{
fill: #0000FF;
}
]]></style>
</defs>
<g clip-path="url(#c0_25)">
<g fill="#000000" >
<use xlink:href="#f0_h" transform="matrix(12,0,0,12,760.8,1221.7)" />
<use xlink:href="#f0_k" transform="matrix(12,0,0,12,770,1221.7)" />
</g>
</g>
<g clip-path="url(#c1_25)">
<g fill="#000000" >
<use xlink:href="#f1_q" transform="matrix(13.9,0,0,13.9,404.7,209.7)" />
<use xlink:href="#f1_1a" transform="matrix(13.9,0,0,13.9,420.2,209.7)" />
<use xlink:href="#f1_1n" transform="matrix(13.9,0,0,13.9,430.9,209.7)" />
<use xlink:href="#f1_1i" transform="matrix(13.9,0,0,13.9,442.8,209.7)" />
<use xlink:href="#f1_1e" transform="matrix(13.9,0,0,13.9,448.7,209.7)" />
<use xlink:href="#f1_1l" transform="matrix(13.9,0,0,13.9,458.2,209.7)" />
<use xlink:href="#f1_17" transform="matrix(13.9,0,0,13.9,469.5,209.7)" />
<use xlink:href="#f1_1u" transform="matrix(13.9,0,0,13.9,484.9,209.7)" />
<use xlink:href="#f1_20" transform="matrix(13.9,0,0,13.9,502.2,209.7)" />
<use xlink:href="#f1_o" transform="matrix(13.9,0,0,13.9,518.2,209.7)" />
<use xlink:href="#f1_1u" transform="matrix(13.9,0,0,13.9,532.5,209.7)" />
<use xlink:href="#f1_1s" transform="matrix(13.9,0,0,13.9,544.4,209.7)" />
<use xlink:href="#f1_1i" transform="matrix(13.9,0,0,13.9,552.7,209.7)" />
<use xlink:href="#f1_1n" transform="matrix(13.9,0,0,13.9,558.6,209.7)" />
<use xlink:href="#f1_1e" transform="matrix(13.9,0,0,13.9,570.5,209.7)" />
<use xlink:href="#f1_1s" transform="matrix(13.9,0,0,13.9,580,209.7)" />
<use xlink:href="#f1_1s" transform="matrix(13.9,0,0,13.9,588.4,209.7)" />
<use xlink:href="#f1_q" transform="matrix(13.9,0,0,13.9,602.1,209.7)" />
<use xlink:href="#f1_1e" transform="matrix(13.9,0,0,13.9,617.5,209.7)" />
<use xlink:href="#f1_1v" transform="matrix(13.9,0,0,13.9,627,209.7)" />
<use xlink:href="#f1_1e" transform="matrix(13.9,0,0,13.9,637.7,209.7)" />
<use xlink:href="#f1_1l" transform="matrix(13.9,0,0,13.9,647.2,209.7)" />
<use xlink:href="#f1_1o" transform="matrix(13.9,0,0,13.9,653.2,209.7)" />
<use xlink:href="#f1_1p" transform="matrix(13.9,0,0,13.9,663.9,209.7)" />
<use xlink:href="#f1_1m" transform="matrix(13.9,0,0,13.9,675.7,209.7)" />
<use xlink:href="#f1_1e" transform="matrix(13.9,0,0,13.9,693.6,209.7)" />
<use xlink:href="#f1_1n" transform="matrix(13.9,0,0,13.9,703.1,209.7)" />
<use xlink:href="#f1_1t" transform="matrix(13.9,0,0,13.9,714.9,209.7)" />
<use xlink:href="#f1_n" transform="matrix(13.9,0,0,13.9,404.7,234.3)" />
<use xlink:href="#f1_1d" transform="matrix(13.9,0,0,13.9,420.2,234.3)" />
<use xlink:href="#f1_1v" transform="matrix(13.9,0,0,13.9,432.1,234.3)" />
<use xlink:href="#f1_1i" transform="matrix(13.9,0,0,13.9,442.8,234.3)" />
<use xlink:href="#f1_1s" transform="matrix(13.9,0,0,13.9,448.7,234.3)" />
<use xlink:href="#f1_1o" transform="matrix(13.9,0,0,13.9,457,234.3)" />
<use xlink:href="#f1_1r" transform="matrix(13.9,0,0,13.9,467.7,234.3)" />
<use xlink:href="#f0_x" transform="matrix(13.9,0,0,13.9,404.7,283.4)" />
<use xlink:href="#f0_1k" transform="matrix(13.9,0,0,13.9,420.2,283.4)" />
<use xlink:href="#f0_1x" transform="matrix(13.9,0,0,13.9,429.7,283.4)" />
<use xlink:href="#f0_1s" transform="matrix(13.9,0,0,13.9,440.4,283.4)" />
<use xlink:href="#f0_1o" transform="matrix(13.9,0,0,13.9,446.3,283.4)" />
<use xlink:href="#f0_1v" transform="matrix(13.9,0,0,13.9,455.8,283.4)" />
<use xlink:href="#f0_1f" transform="matrix(13.9,0,0,13.9,467.1,283.4)" />
<use xlink:href="#f0_24" transform="matrix(13.9,0,0,13.9,482.5,283.4)" />
<use xlink:href="#f0_1s" transform="matrix(13.9,0,0,13.9,498.6,283.4)" />
<use xlink:href="#f0_22" transform="matrix(13.9,0,0,13.9,504.5,283.4)" />
<use xlink:href="#f0_1k" transform="matrix(13.9,0,0,13.9,518.2,283.4)" />
<use xlink:href="#f0_1z" transform="matrix(13.9,0,0,13.9,533,283.4)" />
<use xlink:href="#f0_21" transform="matrix(13.9,0,0,13.9,543.7,283.4)" />
<use xlink:href="#f0_1y" transform="matrix(13.9,0,0,13.9,550.8,283.4)" />
<use xlink:href="#f0_1l" transform="matrix(13.9,0,0,13.9,561.6,283.4)" />
<use xlink:href="#f0_1k" transform="matrix(13.9,0,0,13.9,572.3,283.4)" />
<use xlink:href="#f0_1l" transform="matrix(13.9,0,0,13.9,581.7,283.4)" />
<use xlink:href="#f0_1s" transform="matrix(13.9,0,0,13.9,592.5,283.4)" />
<use xlink:href="#f0_1v" transform="matrix(13.9,0,0,13.9,598.4,283.4)" />
<use xlink:href="#f0_1s" transform="matrix(13.9,0,0,13.9,604.3,283.4)" />
<use xlink:href="#f0_23" transform="matrix(13.9,0,0,13.9,610.3,283.4)" />
<use xlink:href="#f0_28" transform="matrix(13.9,0,0,13.9,616.2,283.4)" />
<use xlink:href="#f0_1k" transform="matrix(13.9,0,0,13.9,632.3,283.4)" />
<use xlink:href="#f0_1x" transform="matrix(13.9,0,0,13.9,641.7,283.4)" />
<use xlink:href="#f0_1n" transform="matrix(13.9,0,0,13.9,652.5,283.4)" />
<use xlink:href="#f0_1q" transform="matrix(13.9,0,0,13.9,668.5,283.4)" />
<use xlink:href="#f0_1k" transform="matrix(13.9,0,0,13.9,679.2,283.4)" />
<use xlink:href="#f0_1w" transform="matrix(13.9,0,0,13.9,688.7,283.4)" />
<use xlink:href="#f0_1o" transform="matrix(13.9,0,0,13.9,705.3,283.4)" />
<use xlink:href="#f0_23" transform="matrix(13.9,0,0,13.9,720.2,283.4)" />
<use xlink:href="#f0_1r" transform="matrix(13.9,0,0,13.9,726.1,283.4)" />
<use xlink:href="#f0_1o" transform="matrix(13.9,0,0,13.9,736.8,283.4)" />
<use xlink:href="#f0_1y" transform="matrix(13.9,0,0,13.9,746.3,283.4)" />
<use xlink:href="#f0_21" transform="matrix(13.9,0,0,13.9,757,283.4)" />
<use xlink:href="#f0_28" transform="matrix(13.9,0,0,13.9,764.1,283.4)" />
<use xlink:href="#f0_1o" transform="matrix(13.9,0,0,13.9,404.7,308)" />
<use xlink:href="#f0_27" transform="matrix(13.9,0,0,13.9,414.2,308)" />
<use xlink:href="#f0_1z" transform="matrix(13.9,0,0,13.9,424.9,308)" />
<use xlink:href="#f0_1o" transform="matrix(13.9,0,0,13.9,435.6,308)" />
<use xlink:href="#f0_21" transform="matrix(13.9,0,0,13.9,445.1,308)" />
<use xlink:href="#f0_23" transform="matrix(13.9,0,0,13.9,452.2,308)" />
<use xlink:href="#f0_23" transform="matrix(13.9,0,0,13.9,463.5,308)" />
<use xlink:href="#f0_1r" transform="matrix(13.9,0,0,13.9,469.5,308)" />
<use xlink:href="#f0_1k" transform="matrix(13.9,0,0,13.9,480.2,308)" />
<use xlink:href="#f0_23" transform="matrix(13.9,0,0,13.9,489.7,308)" />
<use xlink:href="#f0_1r" transform="matrix(13.9,0,0,13.9,501,308)" />
<use xlink:href="#f0_1k" transform="matrix(13.9,0,0,13.9,511.7,308)" />
<use xlink:href="#f0_22" transform="matrix(13.9,0,0,13.9,521.2,308)" />
<use xlink:href="#f0_1r" transform="matrix(13.9,0,0,13.9,534.8,308)" />
<use xlink:href="#f0_1o" transform="matrix(13.9,0,0,13.9,545.5,308)" />
<use xlink:href="#f0_1v" transform="matrix(13.9,0,0,13.9,555,308)" />
<use xlink:href="#f0_1z" transform="matrix(13.9,0,0,13.9,561,308)" />
<use xlink:href="#f0_1o" transform="matrix(13.9,0,0,13.9,571.7,308)" />
<use xlink:href="#f0_1n" transform="matrix(13.9,0,0,13.9,581.2,308)" />
<use xlink:href="#f0_1k" transform="matrix(13.9,0,0,13.9,597.2,308)" />
<use xlink:href="#f0_1x" transform="matrix(13.9,0,0,13.9,612.1,308)" />
<use xlink:href="#f0_24" transform="matrix(13.9,0,0,13.9,622.8,308)" />
<use xlink:href="#f0_1w" transform="matrix(13.9,0,0,13.9,633.5,308)" />
<use xlink:href="#f0_1l" transform="matrix(13.9,0,0,13.9,650.1,308)" />
<use xlink:href="#f0_1o" transform="matrix(13.9,0,0,13.9,660.8,308)" />
<use xlink:href="#f0_21" transform="matrix(13.9,0,0,13.9,670.3,308)" />
<use xlink:href="#f0_1y" transform="matrix(13.9,0,0,13.9,682.8,308)" />
<use xlink:href="#f0_1p" transform="matrix(13.9,0,0,13.9,693.5,308)" />
<use xlink:href="#f0_1m" transform="matrix(13.9,0,0,13.9,183.9,332.6)" />
<use xlink:href="#f0_1y" transform="matrix(13.9,0,0,13.9,193.4,332.6)" />
<use xlink:href="#f0_1w" transform="matrix(13.9,0,0,13.9,204.1,332.6)" />
<use xlink:href="#f0_1z" transform="matrix(13.9,0,0,13.9,220.7,332.6)" />
<use xlink:href="#f0_1k" transform="matrix(13.9,0,0,13.9,231.4,332.6)" />
<use xlink:href="#f0_1x" transform="matrix(13.9,0,0,13.9,240.9,332.6)" />
<use xlink:href="#f0_1s" transform="matrix(13.9,0,0,13.9,251.6,332.6)" />
<use xlink:href="#f0_1o" transform="matrix(13.9,0,0,13.9,257.6,332.6)" />
<use xlink:href="#f0_22" transform="matrix(13.9,0,0,13.9,267.1,332.6)" />
<use xlink:href="#f0_1k" transform="matrix(13.9,0,0,13.9,280.7,332.6)" />
<use xlink:href="#f0_1n" transform="matrix(13.9,0,0,13.9,290.2,332.6)" />
<use xlink:href="#f0_1k" transform="matrix(13.9,0,0,13.9,300.9,332.6)" />
<use xlink:href="#f0_1z" transform="matrix(13.9,0,0,13.9,310.4,332.6)" />
<use xlink:href="#f0_23" transform="matrix(13.9,0,0,13.9,321.1,332.6)" />
<use xlink:href="#f0_23" transform="matrix(13.9,0,0,13.9,332.4,332.6)" />
<use xlink:href="#f0_1r" transform="matrix(13.9,0,0,13.9,338.4,332.6)" />
<use xlink:href="#f0_1o" transform="matrix(13.9,0,0,13.9,349.1,332.6)" />
<use xlink:href="#f0_1s" transform="matrix(13.9,0,0,13.9,358.6,332.6)" />
<use xlink:href="#f0_21" transform="matrix(13.9,0,0,13.9,364.5,332.6)" />
<use xlink:href="#f0_1l" transform="matrix(13.9,0,0,13.9,377,332.6)" />
<use xlink:href="#f0_24" transform="matrix(13.9,0,0,13.9,387.7,332.6)" />
<use xlink:href="#f0_22" transform="matrix(13.9,0,0,13.9,398.4,332.6)" />
<use xlink:href="#f0_1s" transform="matrix(13.9,0,0,13.9,406.7,332.6)" />
<use xlink:href="#f0_1x" transform="matrix(13.9,0,0,13.9,412.6,332.6)" />
<use xlink:href="#f0_1o" transform="matrix(13.9,0,0,13.9,423.3,332.6)" />
<use xlink:href="#f0_22" transform="matrix(13.9,0,0,13.9,432.8,332.6)" />
<use xlink:href="#f0_22" transform="matrix(13.9,0,0,13.9,441.2,332.6)" />
<use xlink:href="#f0_1w" transform="matrix(13.9,0,0,13.9,454.8,332.6)" />
<use xlink:href="#f0_1y" transform="matrix(13.9,0,0,13.9,471.5,332.6)" />
<use xlink:href="#f0_1n" transform="matrix(13.9,0,0,13.9,482.2,332.6)" />
<use xlink:href="#f0_1o" transform="matrix(13.9,0,0,13.9,492.9,332.6)" />
<use xlink:href="#f0_1v" transform="matrix(13.9,0,0,13.9,502.4,332.6)" />
<use xlink:href="#f0_23" transform="matrix(13.9,0,0,13.9,513.7,332.6)" />
<use xlink:href="#f0_1y" transform="matrix(13.9,0,0,13.9,519.6,332.6)" />
<use xlink:href="#f0_23" transform="matrix(13.9,0,0,13.9,535.7,332.6)" />
<use xlink:href="#f0_1r" transform="matrix(13.9,0,0,13.9,541.6,332.6)" />
<use xlink:href="#f0_1o" transform="matrix(13.9,0,0,13.9,552.3,332.6)" />
<use xlink:href="#f0_1o" transform="matrix(13.9,0,0,13.9,567.1,332.6)" />
<use xlink:href="#f0_25" transform="matrix(13.9,0,0,13.9,576.6,332.6)" />
<use xlink:href="#f0_1o" transform="matrix(13.9,0,0,13.9,587.3,332.6)" />
<use xlink:href="#f0_21" transform="matrix(13.9,0,0,13.9,596.8,332.6)" />
<use xlink:href="#f0_c" transform="matrix(13.9,0,0,13.9,603.8,332.6)" />
<use xlink:href="#f0_1m" transform="matrix(13.9,0,0,13.9,610.9,332.6)" />
<use xlink:href="#f0_1r" transform="matrix(13.9,0,0,13.9,620.4,332.6)" />
<use xlink:href="#f0_1k" transform="matrix(13.9,0,0,13.9,631.1,332.6)" />
<use xlink:href="#f0_1x" transform="matrix(13.9,0,0,13.9,640.6,332.6)" />
<use xlink:href="#f0_1q" transform="matrix(13.9,0,0,13.9,651.3,332.6)" />
<use xlink:href="#f0_1s" transform="matrix(13.9,0,0,13.9,662,332.6)" />
<use xlink:href="#f0_1x" transform="matrix(13.9,0,0,13.9,668,332.6)" />
<use xlink:href="#f0_1q" transform="matrix(13.9,0,0,13.9,678.7,332.6)" />
<use xlink:href="#f0_1o" transform="matrix(13.9,0,0,13.9,183.9,357.1)" />
<use xlink:href="#f0_1x" transform="matrix(13.9,0,0,13.9,193.4,357.1)" />
<use xlink:href="#f0_25" transform="matrix(13.9,0,0,13.9,204.1,357.1)" />
<use xlink:href="#f0_1s" transform="matrix(13.9,0,0,13.9,214.8,357.1)" />
<use xlink:href="#f0_21" transform="matrix(13.9,0,0,13.9,220.7,357.1)" />
<use xlink:href="#f0_1y" transform="matrix(13.9,0,0,13.9,227.8,357.1)" />
<use xlink:href="#f0_1x" transform="matrix(13.9,0,0,13.9,238.5,357.1)" />
<use xlink:href="#f0_1w" transform="matrix(13.9,0,0,13.9,249.3,357.1)" />
<use xlink:href="#f0_1o" transform="matrix(13.9,0,0,13.9,265.9,357.1)" />
<use xlink:href="#f0_1x" transform="matrix(13.9,0,0,13.9,275.4,357.1)" />
<use xlink:href="#f0_23" transform="matrix(13.9,0,0,13.9,286.1,357.1)" />
<use xlink:href="#f0_d" transform="matrix(13.9,0,0,13.9,292,357.1)" />
<use xlink:href="#f0_11" transform="matrix(13.9,0,0,13.9,302.7,357.1)" />
<use xlink:href="#f0_1o" transform="matrix(13.9,0,0,13.9,318.2,357.1)" />
<use xlink:href="#f0_1s" transform="matrix(13.9,0,0,13.9,333,357.1)" />
<use xlink:href="#f0_22" transform="matrix(13.9,0,0,13.9,339,357.1)" />
<use xlink:href="#f0_23" transform="matrix(13.9,0,0,13.9,352.6,357.1)" />
<use xlink:href="#f0_1r" transform="matrix(13.9,0,0,13.9,358.6,357.1)" />
<use xlink:href="#f0_1o" transform="matrix(13.9,0,0,13.9,369.3,357.1)" />
<use xlink:href="#f0_1p" transform="matrix(13.9,0,0,13.9,384.1,357.1)" />
<use xlink:href="#f0_1y" transform="matrix(13.9,0,0,13.9,391.2,357.1)" />
<use xlink:href="#f0_24" transform="matrix(13.9,0,0,13.9,401.9,357.1)" />
<use xlink:href="#f0_1x" transform="matrix(13.9,0,0,13.9,412.6,357.1)" />
<use xlink:href="#f0_1n" transform="matrix(13.9,0,0,13.9,423.3,357.1)" />
<use xlink:href="#f0_1o" transform="matrix(13.9,0,0,13.9,434,357.1)" />
<use xlink:href="#f0_21" transform="matrix(13.9,0,0,13.9,443.5,357.1)" />
<use xlink:href="#f0_1y" transform="matrix(13.9,0,0,13.9,456,357.1)" />
<use xlink:href="#f0_1p" transform="matrix(13.9,0,0,13.9,466.7,357.1)" />
<use xlink:href="#f0_26" transform="matrix(13.9,0,0,13.9,479.2,357.1)" />
<use xlink:href="#f0_26" transform="matrix(13.9,0,0,13.9,494.6,357.1)" />
<use xlink:href="#f0_26" transform="matrix(13.9,0,0,13.9,510.1,357.1)" />
<use xlink:href="#f0_d" transform="matrix(13.9,0,0,13.9,525.5,357.1)" />
<use xlink:href="#f0_25" transform="matrix(13.9,0,0,13.9,530.9,357.1)" />
<use xlink:href="#f0_1o" transform="matrix(13.9,0,0,13.9,541.6,357.1)" />
<use xlink:href="#f0_1l" transform="matrix(13.9,0,0,13.9,551.1,357.1)" />
<use xlink:href="#f0_1v" transform="matrix(13.9,0,0,13.9,561.8,357.1)" />
<use xlink:href="#f0_1o" transform="matrix(13.9,0,0,13.9,567.7,357.1)" />
<use xlink:href="#f0_1x" transform="matrix(13.9,0,0,13.9,577.2,357.1)" />
<use xlink:href="#f0_22" transform="matrix(13.9,0,0,13.9,587.9,357.1)" />
<use xlink:href="#f0_28" transform="matrix(13.9,0,0,13.9,596.2,357.1)" />
<use xlink:href="#f0_1x" transform="matrix(13.9,0,0,13.9,606.9,357.1)" />
<use xlink:href="#f0_1o" transform="matrix(13.9,0,0,13.9,617.6,357.1)" />
<use xlink:href="#f0_21" transform="matrix(13.9,0,0,13.9,627.1,357.1)" />
<use xlink:href="#f0_1q" transform="matrix(13.9,0,0,13.9,634.2,357.1)" />
<use xlink:href="#f0_28" transform="matrix(13.9,0,0,13.9,644.9,357.1)" />
<use xlink:href="#f0_d" transform="matrix(13.9,0,0,13.9,655.7,357.1)" />
<use xlink:href="#f0_1m" transform="matrix(13.9,0,0,13.9,661,357.1)" />
<use xlink:href="#f0_1y" transform="matrix(13.9,0,0,13.9,670.5,357.1)" />
<use xlink:href="#f0_1w" transform="matrix(13.9,0,0,13.9,681.2,357.1)" />
<use xlink:href="#f0_b" transform="matrix(13.9,0,0,13.9,697.7,357.1)" />
<use xlink:href="#f0_1k" transform="matrix(13.9,0,0,13.9,708.4,357.1)" />
<use xlink:href="#f0_1m" transform="matrix(13.9,0,0,13.9,183.9,381.7)" />
<use xlink:href="#f0_1y" transform="matrix(13.9,0,0,13.9,193.4,381.7)" />
<use xlink:href="#f0_1w" transform="matrix(13.9,0,0,13.9,204.1,381.7)" />
<use xlink:href="#f0_1z" transform="matrix(13.9,0,0,13.9,220.7,381.7)" />
<use xlink:href="#f0_1k" transform="matrix(13.9,0,0,13.9,231.4,381.7)" />
<use xlink:href="#f0_1x" transform="matrix(13.9,0,0,13.9,240.9,381.7)" />
<use xlink:href="#f0_28" transform="matrix(13.9,0,0,13.9,251.6,381.7)" />
<use xlink:href="#f0_23" transform="matrix(13.9,0,0,13.9,267.7,381.7)" />
<use xlink:href="#f0_1r" transform="matrix(13.9,0,0,13.9,273.6,381.7)" />
<use xlink:href="#f0_1k" transform="matrix(13.9,0,0,13.9,284.3,381.7)" />
<use xlink:href="#f0_23" transform="matrix(13.9,0,0,13.9,293.8,381.7)" />
<use xlink:href="#f0_1z" transform="matrix(13.9,0,0,13.9,305.1,381.7)" />
<use xlink:href="#f0_1k" transform="matrix(13.9,0,0,13.9,315.8,381.7)" />
<use xlink:href="#f0_28" transform="matrix(13.9,0,0,13.9,325.3,381.7)" />
<use xlink:href="#f0_22" transform="matrix(13.9,0,0,13.9,336,381.7)" />
<use xlink:href="#f0_1s" transform="matrix(13.9,0,0,13.9,349.7,381.7)" />
<use xlink:href="#f0_23" transform="matrix(13.9,0,0,13.9,355.6,381.7)" />
<use xlink:href="#f0_22" transform="matrix(13.9,0,0,13.9,361.6,381.7)" />
<use xlink:href="#f0_1m" transform="matrix(13.9,0,0,13.9,375.2,381.7)" />
<use xlink:href="#f0_1v" transform="matrix(13.9,0,0,13.9,384.7,381.7)" />
<use xlink:href="#f0_1s" transform="matrix(13.9,0,0,13.9,390.7,381.7)" />
<use xlink:href="#f0_1o" transform="matrix(13.9,0,0,13.9,396.6,381.7)" />
<use xlink:href="#f0_1x" transform="matrix(13.9,0,0,13.9,406.1,381.7)" />
<use xlink:href="#f0_23" transform="matrix(13.9,0,0,13.9,416.8,381.7)" />
<use xlink:href="#f0_22" transform="matrix(13.9,0,0,13.9,422.8,381.7)" />
<use xlink:href="#f0_1p" transform="matrix(13.9,0,0,13.9,436.4,381.7)" />
<use xlink:href="#f0_1y" transform="matrix(13.9,0,0,13.9,443.5,381.7)" />
<use xlink:href="#f0_21" transform="matrix(13.9,0,0,13.9,454.2,381.7)" />
<use xlink:href="#f0_1m" transform="matrix(13.9,0,0,13.9,466.7,381.7)" />
<use xlink:href="#f0_1y" transform="matrix(13.9,0,0,13.9,476.2,381.7)" />
<use xlink:href="#f0_1x" transform="matrix(13.9,0,0,13.9,486.9,381.7)" />
<use xlink:href="#f0_1x" transform="matrix(13.9,0,0,13.9,497.6,381.7)" />
<use xlink:href="#f0_1o" transform="matrix(13.9,0,0,13.9,508.3,381.7)" />
<use xlink:href="#f0_1m" transform="matrix(13.9,0,0,13.9,517.8,381.7)" />
<use xlink:href="#f0_23" transform="matrix(13.9,0,0,13.9,527.3,381.7)" />
<use xlink:href="#f0_1s" transform="matrix(13.9,0,0,13.9,533.2,381.7)" />
<use xlink:href="#f0_1x" transform="matrix(13.9,0,0,13.9,539.2,381.7)" />
<use xlink:href="#f0_1q" transform="matrix(13.9,0,0,13.9,549.9,381.7)" />
<use xlink:href="#f0_23" transform="matrix(13.9,0,0,13.9,565.9,381.7)" />
<use xlink:href="#f0_1r" transform="matrix(13.9,0,0,13.9,571.9,381.7)" />
<use xlink:href="#f0_1o" transform="matrix(13.9,0,0,13.9,582.6,381.7)" />
<use xlink:href="#f0_1w" transform="matrix(13.9,0,0,13.9,592.1,381.7)" />
<use xlink:href="#f0_23" transform="matrix(13.9,0,0,13.9,614.1,381.7)" />
<use xlink:href="#f0_1y" transform="matrix(13.9,0,0,13.9,620,381.7)" />
<use xlink:href="#f0_1o" transform="matrix(13.9,0,0,13.9,636.1,381.7)" />
<use xlink:href="#f0_27" transform="matrix(13.9,0,0,13.9,645.6,381.7)" />
<use xlink:href="#f0_1z" transform="matrix(13.9,0,0,13.9,656.3,381.7)" />
<use xlink:href="#f0_1o" transform="matrix(13.9,0,0,13.9,667,381.7)" />
<use xlink:href="#f0_21" transform="matrix(13.9,0,0,13.9,676.5,381.7)" />
<use xlink:href="#f0_23" transform="matrix(13.9,0,0,13.9,683.6,381.7)" />
<use xlink:href="#f0_22" transform="matrix(13.9,0,0,13.9,689.5,381.7)" />
<use xlink:href="#f0_b" transform="matrix(13.9,0,0,13.9,697.8,381.7)" />
<use xlink:href="#f0_22" transform="matrix(13.9,0,0,13.9,708.5,381.7)" />
<use xlink:href="#f0_1o" transform="matrix(13.9,0,0,13.9,716.9,381.7)" />
<use xlink:href="#f0_21" transform="matrix(13.9,0,0,13.9,726.3,381.7)" />
<use xlink:href="#f0_25" transform="matrix(13.9,0,0,13.9,733.5,381.7)" />
<use xlink:href="#f0_1s" transform="matrix(13.9,0,0,13.9,744.2,381.7)" />
<use xlink:href="#f0_1m" transform="matrix(13.9,0,0,13.9,750.1,381.7)" />
<use xlink:href="#f0_1o" transform="matrix(13.9,0,0,13.9,759.6,381.7)" />
<use xlink:href="#f0_22" transform="matrix(13.9,0,0,13.9,769.1,381.7)" />
<use xlink:href="#f0_1k" transform="matrix(13.9,0,0,13.9,183.9,406.3)" />
<use xlink:href="#f0_1x" transform="matrix(13.9,0,0,13.9,193.4,406.3)" />
<use xlink:href="#f0_1n" transform="matrix(13.9,0,0,13.9,204.1,406.3)" />
<use xlink:href="#f0_1s" transform="matrix(13.9,0,0,13.9,220.1,406.3)" />
<use xlink:href="#f0_1x" transform="matrix(13.9,0,0,13.9,226.1,406.3)" />
<use xlink:href="#f0_25" transform="matrix(13.9,0,0,13.9,236.8,406.3)" />
<use xlink:href="#f0_1o" transform="matrix(13.9,0,0,13.9,247.5,406.3)" />
<use xlink:href="#f0_22" transform="matrix(13.9,0,0,13.9,257,406.3)" />
<use xlink:href="#f0_23" transform="matrix(13.9,0,0,13.9,265.3,406.3)" />
<use xlink:href="#f0_1w" transform="matrix(13.9,0,0,13.9,271.2,406.3)" />
<use xlink:href="#f0_1o" transform="matrix(13.9,0,0,13.9,287.9,406.3)" />
<use xlink:href="#f0_1x" transform="matrix(13.9,0,0,13.9,297.4,406.3)" />
<use xlink:href="#f0_23" transform="matrix(13.9,0,0,13.9,308.1,406.3)" />
<use xlink:href="#f0_1y" transform="matrix(13.9,0,0,13.9,319.4,406.3)" />
<use xlink:href="#f0_1z" transform="matrix(13.9,0,0,13.9,330.1,406.3)" />
<use xlink:href="#f0_1z" transform="matrix(13.9,0,0,13.9,340.8,406.3)" />
<use xlink:href="#f0_1y" transform="matrix(13.9,0,0,13.9,351.5,406.3)" />
<use xlink:href="#f0_21" transform="matrix(13.9,0,0,13.9,362.2,406.3)" />
<use xlink:href="#f0_23" transform="matrix(13.9,0,0,13.9,369.3,406.3)" />
<use xlink:href="#f0_24" transform="matrix(13.9,0,0,13.9,375.2,406.3)" />
<use xlink:href="#f0_1x" transform="matrix(13.9,0,0,13.9,386,406.3)" />
<use xlink:href="#f0_1s" transform="matrix(13.9,0,0,13.9,396.7,406.3)" />
<use xlink:href="#f0_23" transform="matrix(13.9,0,0,13.9,402.6,406.3)" />
<use xlink:href="#f0_1s" transform="matrix(13.9,0,0,13.9,408.5,406.3)" />
<use xlink:href="#f0_1o" transform="matrix(13.9,0,0,13.9,414.5,406.3)" />
<use xlink:href="#f0_22" transform="matrix(13.9,0,0,13.9,424,406.3)" />
<use xlink:href="#f0_d" transform="matrix(13.9,0,0,13.9,432.3,406.3)" />
</g>
<g fill="#0000FF" >
<use xlink:href="#f1_1h" transform="matrix(13.9,0,0,13.9,183.9,449.2)" />
<use xlink:href="#f1_1t" transform="matrix(13.9,0,0,13.9,195.8,449.2)" />
<use xlink:href="#f1_1t" transform="matrix(13.9,0,0,13.9,202.9,449.2)" />
<use xlink:href="#f1_1p" transform="matrix(13.9,0,0,13.9,210,449.2)" />
<use xlink:href="#f1_1s" transform="matrix(13.9,0,0,13.9,221.9,449.2)" />
<use xlink:href="#f1_l" transform="matrix(13.9,0,0,13.9,230.3,449.2)" />
<use xlink:href="#f1_a" transform="matrix(13.9,0,0,13.9,237.4,449.2)" />
<use xlink:href="#f1_a" transform="matrix(13.9,0,0,13.9,243.3,449.2)" />
<use xlink:href="#f1_1w" transform="matrix(13.9,0,0,13.9,249.3,449.2)" />
<use xlink:href="#f1_1w" transform="matrix(13.9,0,0,13.9,264.7,449.2)" />
<use xlink:href="#f1_1w" transform="matrix(13.9,0,0,13.9,280.2,449.2)" />
<use xlink:href="#f1_9" transform="matrix(13.9,0,0,13.9,295.6,449.2)" />
<use xlink:href="#f1_1l" transform="matrix(13.9,0,0,13.9,300.9,449.2)" />
<use xlink:href="#f1_1i" transform="matrix(13.9,0,0,13.9,306.9,449.2)" />
<use xlink:href="#f1_1n" transform="matrix(13.9,0,0,13.9,312.8,449.2)" />
<use xlink:href="#f1_1k" transform="matrix(13.9,0,0,13.9,324.7,449.2)" />
<use xlink:href="#f1_1e" transform="matrix(13.9,0,0,13.9,336.6,449.2)" />
<use xlink:href="#f1_1d" transform="matrix(13.9,0,0,13.9,346.1,449.2)" />
<use xlink:href="#f1_1i" transform="matrix(13.9,0,0,13.9,358,449.2)" />
<use xlink:href="#f1_1n" transform="matrix(13.9,0,0,13.9,363.9,449.2)" />
<use xlink:href="#f1_9" transform="matrix(13.9,0,0,13.9,375.8,449.2)" />
<use xlink:href="#f1_1c" transform="matrix(13.9,0,0,13.9,381.2,449.2)" />
<use xlink:href="#f1_1o" transform="matrix(13.9,0,0,13.9,390.7,449.2)" />
<use xlink:href="#f1_1m" transform="matrix(13.9,0,0,13.9,401.4,449.2)" />
<use xlink:href="#f1_a" transform="matrix(13.9,0,0,13.9,419.2,449.2)" />
<use xlink:href="#f1_1i" transform="matrix(13.9,0,0,13.9,425.1,449.2)" />
<use xlink:href="#f1_1n" transform="matrix(13.9,0,0,13.9,431.1,449.2)" />
<use xlink:href="#f1_a" transform="matrix(13.9,0,0,13.9,443,449.2)" />
<use xlink:href="#f1_1d" transform="matrix(13.9,0,0,13.9,448.9,449.2)" />
<use xlink:href="#f1_1a" transform="matrix(13.9,0,0,13.9,460.8,449.2)" />
<use xlink:href="#f1_1n" transform="matrix(13.9,0,0,13.9,471.5,449.2)" />
<use xlink:href="#f1_1i" transform="matrix(13.9,0,0,13.9,483.4,449.2)" />
<use xlink:href="#f1_1e" transform="matrix(13.9,0,0,13.9,489.3,449.2)" />
<use xlink:href="#f1_1l" transform="matrix(13.9,0,0,13.9,498.8,449.2)" />
<use xlink:href="#f1_8" transform="matrix(13.9,0,0,13.9,504.8,449.2)" />
<use xlink:href="#f1_1v" transform="matrix(13.9,0,0,13.9,511.9,449.2)" />
<use xlink:href="#f1_1u" transform="matrix(13.9,0,0,13.9,522.6,449.2)" />
<use xlink:href="#f1_8" transform="matrix(13.9,0,0,13.9,534.5,449.2)" />
<use xlink:href="#f1_1b" transform="matrix(13.9,0,0,13.9,541.6,449.2)" />
<use xlink:href="#f1_g" transform="matrix(13.9,0,0,13.9,553.5,449.2)" />
<use xlink:href="#f1_h" transform="matrix(13.9,0,0,13.9,564.2,449.2)" />
<use xlink:href="#f1_e" transform="matrix(13.9,0,0,13.9,574.9,449.2)" />
<use xlink:href="#f1_g" transform="matrix(13.9,0,0,13.9,585.6,449.2)" />
<use xlink:href="#f1_f" transform="matrix(13.9,0,0,13.9,596.3,449.2)" />
<use xlink:href="#f1_c" transform="matrix(13.9,0,0,13.9,607,449.2)" />
<use xlink:href="#f1_g" transform="matrix(13.9,0,0,13.9,617.7,449.2)" />
<use xlink:href="#f1_1a" transform="matrix(13.9,0,0,13.9,628.4,449.2)" />
<use xlink:href="#f1_a" transform="matrix(13.9,0,0,13.9,639.1,449.2)" />
</g>
</g>
<path d="M183.7,452.1H645v1.8H183.7Z" class="g0_25" />
<g clip-path="url(#c1_25)">
<g fill="#000000" >
<use xlink:href="#f1_w" transform="matrix(13.9,0,0,13.9,402,638)" />
<use xlink:href="#f1_1o" transform="matrix(13.9,0,0,13.9,412.7,638)" />
<use xlink:href="#f1_1h" transform="matrix(13.9,0,0,13.9,423.3,638)" />
<use xlink:href="#f1_1n" transform="matrix(13.9,0,0,13.9,435.2,638)" />
<use xlink:href="#f1_x" transform="matrix(13.9,0,0,13.9,452.5,638)" />
<use xlink:href="#f1_1o" transform="matrix(13.9,0,0,13.9,469.1,638)" />
<use xlink:href="#f1_1j" transform="matrix(13.9,0,0,13.9,479.8,638)" />
<use xlink:href="#f1_1i" transform="matrix(13.9,0,0,13.9,486.9,638)" />
<use xlink:href="#f1_1r" transform="matrix(13.9,0,0,13.9,492.8,638)" />
<use xlink:href="#f1_1o" transform="matrix(13.9,0,0,13.9,502.3,638)" />
<use xlink:href="#f1_z" transform="matrix(13.9,0,0,13.9,518.3,638)" />
<use xlink:href="#f1_1o" transform="matrix(13.9,0,0,13.9,538.5,638)" />
<use xlink:href="#f1_1r" transform="matrix(13.9,0,0,13.9,549.2,638)" />
<use xlink:href="#f1_1i" transform="matrix(13.9,0,0,13.9,558.7,638)" />
<use xlink:href="#f1_1w" transform="matrix(13.9,0,0,13.9,564.6,638)" />
<use xlink:href="#f1_1a" transform="matrix(13.9,0,0,13.9,580.1,638)" />
<use xlink:href="#f1_1k" transform="matrix(13.9,0,0,13.9,590.8,638)" />
<use xlink:href="#f1_1a" transform="matrix(13.9,0,0,13.9,602.7,638)" />
<use xlink:href="#f1_20" transform="matrix(13.9,0,0,13.9,618.8,638)" />
<use xlink:href="#f1_12" transform="matrix(13.9,0,0,13.9,634.9,638)" />
<use xlink:href="#f1_1u" transform="matrix(13.9,0,0,13.9,647.9,638)" />
<use xlink:href="#f1_1b" transform="matrix(13.9,0,0,13.9,659.8,638)" />
<use xlink:href="#f1_1l" transform="matrix(13.9,0,0,13.9,671.7,638)" />
<use xlink:href="#f1_1i" transform="matrix(13.9,0,0,13.9,677.7,638)" />
<use xlink:href="#f1_1c" transform="matrix(13.9,0,0,13.9,683.6,638)" />
<use xlink:href="#f1_13" transform="matrix(13.9,0,0,13.9,402,662.6)" />
<use xlink:href="#f1_1e" transform="matrix(13.9,0,0,13.9,417.4,662.6)" />
<use xlink:href="#f1_1l" transform="matrix(13.9,0,0,13.9,426.9,662.6)" />
<use xlink:href="#f1_1a" transform="matrix(13.9,0,0,13.9,432.8,662.6)" />
<use xlink:href="#f1_1t" transform="matrix(13.9,0,0,13.9,443.5,662.6)" />
<use xlink:href="#f1_1i" transform="matrix(13.9,0,0,13.9,450.7,662.6)" />
<use xlink:href="#f1_1o" transform="matrix(13.9,0,0,13.9,456.6,662.6)" />
<use xlink:href="#f1_1n" transform="matrix(13.9,0,0,13.9,467.3,662.6)" />
<use xlink:href="#f1_1s" transform="matrix(13.9,0,0,13.9,479.2,662.6)" />
<use xlink:href="#f1_n" transform="matrix(13.9,0,0,13.9,492.9,662.6)" />
<use xlink:href="#f1_1d" transform="matrix(13.9,0,0,13.9,508.3,662.6)" />
<use xlink:href="#f1_1v" transform="matrix(13.9,0,0,13.9,520.2,662.6)" />
<use xlink:href="#f1_1i" transform="matrix(13.9,0,0,13.9,530.9,662.6)" />
<use xlink:href="#f1_1s" transform="matrix(13.9,0,0,13.9,536.8,662.6)" />
<use xlink:href="#f1_1o" transform="matrix(13.9,0,0,13.9,545.2,662.6)" />
<use xlink:href="#f1_1r" transform="matrix(13.9,0,0,13.9,555.9,662.6)" />
<use xlink:href="#f0_19" transform="matrix(13.9,0,0,13.9,402,711.7)" />
<use xlink:href="#f0_21" transform="matrix(13.9,0,0,13.9,413.9,711.7)" />
<use xlink:href="#f0_1y" transform="matrix(13.9,0,0,13.9,421,711.7)" />
<use xlink:href="#f0_1p" transform="matrix(13.9,0,0,13.9,431.7,711.7)" />
<use xlink:href="#f0_1o" transform="matrix(13.9,0,0,13.9,438.8,711.7)" />
<use xlink:href="#f0_22" transform="matrix(13.9,0,0,13.9,448.3,711.7)" />
<use xlink:href="#f0_22" transform="matrix(13.9,0,0,13.9,456.6,711.7)" />
<use xlink:href="#f0_1y" transform="matrix(13.9,0,0,13.9,465,711.7)" />
<use xlink:href="#f0_21" transform="matrix(13.9,0,0,13.9,475.7,711.7)" />
<use xlink:href="#f0_13" transform="matrix(13.9,0,0,13.9,488.1,711.7)" />
<use xlink:href="#f0_1y" transform="matrix(13.9,0,0,13.9,496.5,711.7)" />
<use xlink:href="#f0_1r" transform="matrix(13.9,0,0,13.9,507.2,711.7)" />
<use xlink:href="#f0_1x" transform="matrix(13.9,0,0,13.9,517.9,711.7)" />
<use xlink:href="#f0_14" transform="matrix(13.9,0,0,13.9,533.9,711.7)" />
<use xlink:href="#f0_1y" transform="matrix(13.9,0,0,13.9,549.4,711.7)" />
<use xlink:href="#f0_1t" transform="matrix(13.9,0,0,13.9,560.1,711.7)" />
<use xlink:href="#f0_1s" transform="matrix(13.9,0,0,13.9,566,711.7)" />
<use xlink:href="#f0_21" transform="matrix(13.9,0,0,13.9,571.9,711.7)" />
<use xlink:href="#f0_1y" transform="matrix(13.9,0,0,13.9,579.1,711.7)" />
<use xlink:href="#f0_16" transform="matrix(13.9,0,0,13.9,595.1,711.7)" />
<use xlink:href="#f0_1y" transform="matrix(13.9,0,0,13.9,614.1,711.7)" />
<use xlink:href="#f0_21" transform="matrix(13.9,0,0,13.9,624.8,711.7)" />
<use xlink:href="#f0_1s" transform="matrix(13.9,0,0,13.9,632,711.7)" />
<use xlink:href="#f0_26" transform="matrix(13.9,0,0,13.9,637.9,711.7)" />
<use xlink:href="#f0_1k" transform="matrix(13.9,0,0,13.9,653.4,711.7)" />
<use xlink:href="#f0_1u" transform="matrix(13.9,0,0,13.9,662.8,711.7)" />
<use xlink:href="#f0_1k" transform="matrix(13.9,0,0,13.9,673.5,711.7)" />
<use xlink:href="#f0_1s" transform="matrix(13.9,0,0,13.9,688.4,711.7)" />
<use xlink:href="#f0_22" transform="matrix(13.9,0,0,13.9,694.3,711.7)" />
<use xlink:href="#f0_1k" transform="matrix(13.9,0,0,13.9,708,711.7)" />
<use xlink:href="#f0_1q" transform="matrix(13.9,0,0,13.9,722.8,711.7)" />
<use xlink:href="#f0_1v" transform="matrix(13.9,0,0,13.9,733.5,711.7)" />
<use xlink:href="#f0_1y" transform="matrix(13.9,0,0,13.9,739.5,711.7)" />
<use xlink:href="#f0_1l" transform="matrix(13.9,0,0,13.9,750.2,711.7)" />
<use xlink:href="#f0_1k" transform="matrix(13.9,0,0,13.9,760.9,711.7)" />
<use xlink:href="#f0_1v" transform="matrix(13.9,0,0,13.9,770.4,711.7)" />
<use xlink:href="#f0_13" transform="matrix(13.9,0,0,13.9,402,736.3)" />
<use xlink:href="#f0_1k" transform="matrix(13.9,0,0,13.9,410.3,736.3)" />
<use xlink:href="#f0_1z" transform="matrix(13.9,0,0,13.9,419.8,736.3)" />
<use xlink:href="#f0_1k" transform="matrix(13.9,0,0,13.9,430.5,736.3)" />
<use xlink:href="#f0_1x" transform="matrix(13.9,0,0,13.9,440,736.3)" />
<use xlink:href="#f0_1o" transform="matrix(13.9,0,0,13.9,450.7,736.3)" />
<use xlink:href="#f0_22" transform="matrix(13.9,0,0,13.9,460.2,736.3)" />
<use xlink:href="#f0_1o" transform="matrix(13.9,0,0,13.9,468.5,736.3)" />
<use xlink:href="#f0_1l" transform="matrix(13.9,0,0,13.9,483.3,736.3)" />
<use xlink:href="#f0_24" transform="matrix(13.9,0,0,13.9,494,736.3)" />
<use xlink:href="#f0_22" transform="matrix(13.9,0,0,13.9,504.7,736.3)" />
<use xlink:href="#f0_1s" transform="matrix(13.9,0,0,13.9,513.1,736.3)" />
<use xlink:href="#f0_1x" transform="matrix(13.9,0,0,13.9,519,736.3)" />
<use xlink:href="#f0_1o" transform="matrix(13.9,0,0,13.9,529.7,736.3)" />
<use xlink:href="#f0_22" transform="matrix(13.9,0,0,13.9,539.2,736.3)" />
<use xlink:href="#f0_22" transform="matrix(13.9,0,0,13.9,547.5,736.3)" />
<use xlink:href="#f0_1w" transform="matrix(13.9,0,0,13.9,561.2,736.3)" />
<use xlink:href="#f0_1k" transform="matrix(13.9,0,0,13.9,577.8,736.3)" />
<use xlink:href="#f0_1x" transform="matrix(13.9,0,0,13.9,587.3,736.3)" />
<use xlink:href="#f0_d" transform="matrix(13.9,0,0,13.9,598,736.3)" />
<use xlink:href="#f0_18" transform="matrix(13.9,0,0,13.9,608.7,736.3)" />
<use xlink:href="#f0_26" transform="matrix(13.9,0,0,13.9,624.2,736.3)" />
<use xlink:href="#f0_1x" transform="matrix(13.9,0,0,13.9,639.6,736.3)" />
<use xlink:href="#f0_1o" transform="matrix(13.9,0,0,13.9,650.3,736.3)" />
<use xlink:href="#f0_21" transform="matrix(13.9,0,0,13.9,659.8,736.3)" />
<use xlink:href="#f0_1y" transform="matrix(13.9,0,0,13.9,672.3,736.3)" />
<use xlink:href="#f0_1p" transform="matrix(13.9,0,0,13.9,683,736.3)" />
<use xlink:href="#f0_16" transform="matrix(13.9,0,0,13.9,402,760.8)" />
<use xlink:href="#f0_1y" transform="matrix(13.9,0,0,13.9,421,760.8)" />
<use xlink:href="#f0_21" transform="matrix(13.9,0,0,13.9,431.7,760.8)" />
<use xlink:href="#f0_1s" transform="matrix(13.9,0,0,13.9,438.8,760.8)" />
<use xlink:href="#f0_26" transform="matrix(13.9,0,0,13.9,444.8,760.8)" />
<use xlink:href="#f0_1k" transform="matrix(13.9,0,0,13.9,460.2,760.8)" />
<use xlink:href="#f0_1u" transform="matrix(13.9,0,0,13.9,469.7,760.8)" />
<use xlink:href="#f0_1k" transform="matrix(13.9,0,0,13.9,480.4,760.8)" />
<use xlink:href="#f0_16" transform="matrix(13.9,0,0,13.9,495.2,760.8)" />
<use xlink:href="#f0_1o" transform="matrix(13.9,0,0,13.9,514.2,760.8)" />
<use xlink:href="#f0_1n" transform="matrix(13.9,0,0,13.9,523.7,760.8)" />
<use xlink:href="#f0_1s" transform="matrix(13.9,0,0,13.9,534.4,760.8)" />
<use xlink:href="#f0_1m" transform="matrix(13.9,0,0,13.9,540.4,760.8)" />
<use xlink:href="#f0_1k" transform="matrix(13.9,0,0,13.9,549.9,760.8)" />
<use xlink:href="#f0_1v" transform="matrix(13.9,0,0,13.9,559.4,760.8)" />
<use xlink:href="#f0_b" transform="matrix(13.9,0,0,13.9,565.3,760.8)" />
<use xlink:href="#f0_1k" transform="matrix(13.9,0,0,13.9,576,760.8)" />
<use xlink:href="#f0_1s" transform="matrix(13.9,0,0,13.9,590.8,760.8)" />
<use xlink:href="#f0_1x" transform="matrix(13.9,0,0,13.9,596.8,760.8)" />
<use xlink:href="#f0_1x" transform="matrix(13.9,0,0,13.9,607.5,760.8)" />
<use xlink:href="#f0_1y" transform="matrix(13.9,0,0,13.9,618.2,760.8)" />
<use xlink:href="#f0_25" transform="matrix(13.9,0,0,13.9,628.9,760.8)" />
<use xlink:href="#f0_1k" transform="matrix(13.9,0,0,13.9,639.6,760.8)" />
<use xlink:href="#f0_23" transform="matrix(13.9,0,0,13.9,649.1,760.8)" />
<use xlink:href="#f0_1s" transform="matrix(13.9,0,0,13.9,655,760.8)" />
<use xlink:href="#f0_25" transform="matrix(13.9,0,0,13.9,661,760.8)" />
<use xlink:href="#f0_1o" transform="matrix(13.9,0,0,13.9,671.7,760.8)" />
<use xlink:href="#f0_1w" transform="matrix(13.9,0,0,13.9,686.5,760.8)" />
<use xlink:href="#f0_1o" transform="matrix(13.9,0,0,13.9,703.1,760.8)" />
<use xlink:href="#f0_1n" transform="matrix(13.9,0,0,13.9,712.6,760.8)" />
<use xlink:href="#f0_1s" transform="matrix(13.9,0,0,13.9,723.3,760.8)" />
<use xlink:href="#f0_1m" transform="matrix(13.9,0,0,13.9,729.3,760.8)" />
<use xlink:href="#f0_1k" transform="matrix(13.9,0,0,13.9,738.8,760.8)" />
<use xlink:href="#f0_1v" transform="matrix(13.9,0,0,13.9,748.2,760.8)" />
<use xlink:href="#f0_1n" transform="matrix(13.9,0,0,13.9,183.9,785.4)" />
<use xlink:href="#f0_1o" transform="matrix(13.9,0,0,13.9,194.6,785.4)" />
<use xlink:href="#f0_25" transform="matrix(13.9,0,0,13.9,204.1,785.4)" />
<use xlink:href="#f0_1s" transform="matrix(13.9,0,0,13.9,214.8,785.4)" />
<use xlink:href="#f0_1m" transform="matrix(13.9,0,0,13.9,220.7,785.4)" />
<use xlink:href="#f0_1o" transform="matrix(13.9,0,0,13.9,230.2,785.4)" />
<use xlink:href="#f0_1m" transform="matrix(13.9,0,0,13.9,245,785.4)" />
<use xlink:href="#f0_1y" transform="matrix(13.9,0,0,13.9,254.5,785.4)" />
<use xlink:href="#f0_1w" transform="matrix(13.9,0,0,13.9,265.2,785.4)" />
<use xlink:href="#f0_1z" transform="matrix(13.9,0,0,13.9,281.8,785.4)" />
<use xlink:href="#f0_1k" transform="matrix(13.9,0,0,13.9,292.5,785.4)" />
<use xlink:href="#f0_1x" transform="matrix(13.9,0,0,13.9,302,785.4)" />
<use xlink:href="#f0_28" transform="matrix(13.9,0,0,13.9,312.7,785.4)" />
<use xlink:href="#f0_1k" transform="matrix(13.9,0,0,13.9,328.7,785.4)" />
<use xlink:href="#f0_1x" transform="matrix(13.9,0,0,13.9,338.2,785.4)" />
<use xlink:href="#f0_1n" transform="matrix(13.9,0,0,13.9,348.9,785.4)" />
<use xlink:href="#f0_1c" transform="matrix(13.9,0,0,13.9,364.9,785.4)" />
<use xlink:href="#f0_1s" transform="matrix(13.9,0,0,13.9,376.8,785.4)" />
<use xlink:href="#f0_1v" transform="matrix(13.9,0,0,13.9,382.7,785.4)" />
<use xlink:href="#f0_1s" transform="matrix(13.9,0,0,13.9,388.7,785.4)" />
<use xlink:href="#f0_1m" transform="matrix(13.9,0,0,13.9,394.6,785.4)" />
<use xlink:href="#f0_1y" transform="matrix(13.9,0,0,13.9,404.1,785.4)" />
<use xlink:href="#f0_1x" transform="matrix(13.9,0,0,13.9,414.8,785.4)" />
<use xlink:href="#f0_1f" transform="matrix(13.9,0,0,13.9,430.8,785.4)" />
<use xlink:href="#f0_1k" transform="matrix(13.9,0,0,13.9,446.2,785.4)" />
<use xlink:href="#f0_1v" transform="matrix(13.9,0,0,13.9,455.7,785.4)" />
<use xlink:href="#f0_1v" transform="matrix(13.9,0,0,13.9,461.6,785.4)" />
<use xlink:href="#f0_1o" transform="matrix(13.9,0,0,13.9,467.6,785.4)" />
<use xlink:href="#f0_28" transform="matrix(13.9,0,0,13.9,477.1,785.4)" />
<use xlink:href="#f0_1f" transform="matrix(13.9,0,0,13.9,493.1,785.4)" />
<use xlink:href="#f0_1o" transform="matrix(13.9,0,0,13.9,508.5,785.4)" />
<use xlink:href="#f0_1x" transform="matrix(13.9,0,0,13.9,518,785.4)" />
<use xlink:href="#f0_23" transform="matrix(13.9,0,0,13.9,528.7,785.4)" />
<use xlink:href="#f0_24" transform="matrix(13.9,0,0,13.9,534.6,785.4)" />
<use xlink:href="#f0_21" transform="matrix(13.9,0,0,13.9,545.3,785.4)" />
<use xlink:href="#f0_1o" transform="matrix(13.9,0,0,13.9,552.5,785.4)" />
<use xlink:href="#f0_22" transform="matrix(13.9,0,0,13.9,561.9,785.4)" />
<use xlink:href="#f0_d" transform="matrix(13.9,0,0,13.9,570.3,785.4)" />
<use xlink:href="#f0_11" transform="matrix(13.9,0,0,13.9,586.3,785.4)" />
<use xlink:href="#f0_1o" transform="matrix(13.9,0,0,13.9,601.7,785.4)" />
<use xlink:href="#f0_1s" transform="matrix(13.9,0,0,13.9,616.5,785.4)" />
<use xlink:href="#f0_22" transform="matrix(13.9,0,0,13.9,622.4,785.4)" />
<use xlink:href="#f0_1u" transform="matrix(13.9,0,0,13.9,636.1,785.4)" />
<use xlink:href="#f0_1x" transform="matrix(13.9,0,0,13.9,646.8,785.4)" />
<use xlink:href="#f0_1y" transform="matrix(13.9,0,0,13.9,657.5,785.4)" />
<use xlink:href="#f0_26" transform="matrix(13.9,0,0,13.9,668.2,785.4)" />
<use xlink:href="#f0_1x" transform="matrix(13.9,0,0,13.9,683.6,785.4)" />
<use xlink:href="#f0_1k" transform="matrix(13.9,0,0,13.9,699.6,785.4)" />
<use xlink:href="#f0_22" transform="matrix(13.9,0,0,13.9,709.1,785.4)" />
<use xlink:href="#f0_1k" transform="matrix(13.9,0,0,13.9,722.8,785.4)" />
<use xlink:href="#f0_1x" transform="matrix(13.9,0,0,13.9,732.3,785.4)" />
<use xlink:href="#f0_1k" transform="matrix(13.9,0,0,13.9,183.9,810)" />
<use xlink:href="#f0_1n" transform="matrix(13.9,0,0,13.9,193.4,810)" />
<use xlink:href="#f0_25" transform="matrix(13.9,0,0,13.9,204.1,810)" />
<use xlink:href="#f0_1s" transform="matrix(13.9,0,0,13.9,214.8,810)" />
<use xlink:href="#f0_22" transform="matrix(13.9,0,0,13.9,220.7,810)" />
<use xlink:href="#f0_1y" transform="matrix(13.9,0,0,13.9,229,810)" />
<use xlink:href="#f0_21" transform="matrix(13.9,0,0,13.9,239.7,810)" />
<use xlink:href="#f0_1y" transform="matrix(13.9,0,0,13.9,252.2,810)" />
<use xlink:href="#f0_1p" transform="matrix(13.9,0,0,13.9,262.9,810)" />
<use xlink:href="#f0_25" transform="matrix(13.9,0,0,13.9,275.3,810)" />
<use xlink:href="#f0_1k" transform="matrix(13.9,0,0,13.9,286,810)" />
<use xlink:href="#f0_21" transform="matrix(13.9,0,0,13.9,295.5,810)" />
<use xlink:href="#f0_1s" transform="matrix(13.9,0,0,13.9,302.6,810)" />
<use xlink:href="#f0_1y" transform="matrix(13.9,0,0,13.9,308.6,810)" />
<use xlink:href="#f0_24" transform="matrix(13.9,0,0,13.9,319.3,810)" />
<use xlink:href="#f0_22" transform="matrix(13.9,0,0,13.9,330,810)" />
<use xlink:href="#f0_22" transform="matrix(13.9,0,0,13.9,343.6,810)" />
<use xlink:href="#f0_23" transform="matrix(13.9,0,0,13.9,351.9,810)" />
<use xlink:href="#f0_1k" transform="matrix(13.9,0,0,13.9,357.9,810)" />
<use xlink:href="#f0_21" transform="matrix(13.9,0,0,13.9,367.3,810)" />
<use xlink:href="#f0_23" transform="matrix(13.9,0,0,13.9,374.5,810)" />
<use xlink:href="#f0_24" transform="matrix(13.9,0,0,13.9,380.4,810)" />
<use xlink:href="#f0_1z" transform="matrix(13.9,0,0,13.9,391.1,810)" />
<use xlink:href="#f0_22" transform="matrix(13.9,0,0,13.9,401.8,810)" />
<use xlink:href="#f0_b" transform="matrix(13.9,0,0,13.9,410.1,810)" />
<use xlink:href="#f0_1s" transform="matrix(13.9,0,0,13.9,420.8,810)" />
<use xlink:href="#f0_1x" transform="matrix(13.9,0,0,13.9,426.7,810)" />
<use xlink:href="#f0_1x" transform="matrix(13.9,0,0,13.9,437.4,810)" />
<use xlink:href="#f0_1y" transform="matrix(13.9,0,0,13.9,448.1,810)" />
<use xlink:href="#f0_25" transform="matrix(13.9,0,0,13.9,458.8,810)" />
<use xlink:href="#f0_1k" transform="matrix(13.9,0,0,13.9,469.5,810)" />
<use xlink:href="#f0_23" transform="matrix(13.9,0,0,13.9,479,810)" />
<use xlink:href="#f0_1y" transform="matrix(13.9,0,0,13.9,484.9,810)" />
<use xlink:href="#f0_21" transform="matrix(13.9,0,0,13.9,495.6,810)" />
<use xlink:href="#f0_b" transform="matrix(13.9,0,0,13.9,502.7,810)" />
<use xlink:href="#f0_1z" transform="matrix(13.9,0,0,13.9,513.4,810)" />
<use xlink:href="#f0_24" transform="matrix(13.9,0,0,13.9,524.1,810)" />
<use xlink:href="#f0_1l" transform="matrix(13.9,0,0,13.9,534.8,810)" />
<use xlink:href="#f0_1v" transform="matrix(13.9,0,0,13.9,545.5,810)" />
<use xlink:href="#f0_1s" transform="matrix(13.9,0,0,13.9,551.4,810)" />
<use xlink:href="#f0_1m" transform="matrix(13.9,0,0,13.9,557.3,810)" />
<use xlink:href="#f0_22" transform="matrix(13.9,0,0,13.9,572.1,810)" />
<use xlink:href="#f0_1z" transform="matrix(13.9,0,0,13.9,580.5,810)" />
<use xlink:href="#f0_1o" transform="matrix(13.9,0,0,13.9,591.2,810)" />
<use xlink:href="#f0_1k" transform="matrix(13.9,0,0,13.9,600.6,810)" />
<use xlink:href="#f0_1u" transform="matrix(13.9,0,0,13.9,610.1,810)" />
<use xlink:href="#f0_1o" transform="matrix(13.9,0,0,13.9,620.8,810)" />
<use xlink:href="#f0_21" transform="matrix(13.9,0,0,13.9,630.3,810)" />
<use xlink:href="#f0_b" transform="matrix(13.9,0,0,13.9,637.4,810)" />
<use xlink:href="#f0_1k" transform="matrix(13.9,0,0,13.9,648.1,810)" />
<use xlink:href="#f0_1x" transform="matrix(13.9,0,0,13.9,657.6,810)" />
<use xlink:href="#f0_1n" transform="matrix(13.9,0,0,13.9,668.3,810)" />
<use xlink:href="#f0_26" transform="matrix(13.9,0,0,13.9,684.3,810)" />
<use xlink:href="#f0_21" transform="matrix(13.9,0,0,13.9,699.7,810)" />
<use xlink:href="#f0_1s" transform="matrix(13.9,0,0,13.9,706.9,810)" />
<use xlink:href="#f0_23" transform="matrix(13.9,0,0,13.9,712.8,810)" />
<use xlink:href="#f0_1o" transform="matrix(13.9,0,0,13.9,718.7,810)" />
<use xlink:href="#f0_21" transform="matrix(13.9,0,0,13.9,728.2,810)" />
<use xlink:href="#f0_d" transform="matrix(13.9,0,0,13.9,735.3,810)" />
<use xlink:href="#f0_11" transform="matrix(13.9,0,0,13.9,746,810)" />
<use xlink:href="#f0_1o" transform="matrix(13.9,0,0,13.9,761.4,810)" />
<use xlink:href="#f0_1s" transform="matrix(13.9,0,0,13.9,183.9,834.5)" />
<use xlink:href="#f0_22" transform="matrix(13.9,0,0,13.9,189.8,834.5)" />
<use xlink:href="#f0_1k" transform="matrix(13.9,0,0,13.9,203.5,834.5)" />
<use xlink:href="#f0_11" transform="matrix(13.9,0,0,13.9,218.3,834.5)" />
<use xlink:href="#f0_1k" transform="matrix(13.9,0,0,13.9,233.8,834.5)" />
<use xlink:href="#f0_21" transform="matrix(13.9,0,0,13.9,243.3,834.5)" />
<use xlink:href="#f0_25" transform="matrix(13.9,0,0,13.9,250.4,834.5)" />
<use xlink:href="#f0_1k" transform="matrix(13.9,0,0,13.9,261.1,834.5)" />
<use xlink:href="#f0_21" transform="matrix(13.9,0,0,13.9,270.6,834.5)" />
<use xlink:href="#f0_1n" transform="matrix(13.9,0,0,13.9,277.7,834.5)" />
<use xlink:href="#f0_v" transform="matrix(13.9,0,0,13.9,293.8,834.5)" />
<use xlink:href="#f0_24" transform="matrix(13.9,0,0,13.9,308.1,834.5)" />
<use xlink:href="#f0_22" transform="matrix(13.9,0,0,13.9,318.8,834.5)" />
<use xlink:href="#f0_1s" transform="matrix(13.9,0,0,13.9,327.1,834.5)" />
<use xlink:href="#f0_1x" transform="matrix(13.9,0,0,13.9,333,834.5)" />
<use xlink:href="#f0_1o" transform="matrix(13.9,0,0,13.9,343.7,834.5)" />
<use xlink:href="#f0_22" transform="matrix(13.9,0,0,13.9,353.2,834.5)" />
<use xlink:href="#f0_22" transform="matrix(13.9,0,0,13.9,361.5,834.5)" />
<use xlink:href="#f0_1c" transform="matrix(13.9,0,0,13.9,375.2,834.5)" />
<use xlink:href="#f0_1m" transform="matrix(13.9,0,0,13.9,387.1,834.5)" />
<use xlink:href="#f0_1r" transform="matrix(13.9,0,0,13.9,396.6,834.5)" />
<use xlink:href="#f0_1y" transform="matrix(13.9,0,0,13.9,407.3,834.5)" />
<use xlink:href="#f0_1y" transform="matrix(13.9,0,0,13.9,418,834.5)" />
<use xlink:href="#f0_1v" transform="matrix(13.9,0,0,13.9,428.7,834.5)" />
<use xlink:href="#f0_u" transform="matrix(13.9,0,0,13.9,440,834.5)" />
<use xlink:href="#f0_1v" transform="matrix(13.9,0,0,13.9,455.5,834.5)" />
<use xlink:href="#f0_24" transform="matrix(13.9,0,0,13.9,461.4,834.5)" />
<use xlink:href="#f0_1w" transform="matrix(13.9,0,0,13.9,472.1,834.5)" />
<use xlink:href="#f0_1x" transform="matrix(13.9,0,0,13.9,488.7,834.5)" />
<use xlink:href="#f0_1s" transform="matrix(13.9,0,0,13.9,499.5,834.5)" />
<use xlink:href="#f0_d" transform="matrix(13.9,0,0,13.9,505.4,834.5)" />
</g>
<g fill="#0000FF" >
<use xlink:href="#f1_1h" transform="matrix(13.9,0,0,13.9,183.9,883.7)" />
<use xlink:href="#f1_1t" transform="matrix(13.9,0,0,13.9,195.8,883.7)" />
<use xlink:href="#f1_1t" transform="matrix(13.9,0,0,13.9,202.9,883.7)" />
<use xlink:href="#f1_1p" transform="matrix(13.9,0,0,13.9,210,883.7)" />
<use xlink:href="#f1_1s" transform="matrix(13.9,0,0,13.9,221.9,883.7)" />
<use xlink:href="#f1_l" transform="matrix(13.9,0,0,13.9,230.3,883.7)" />
<use xlink:href="#f1_a" transform="matrix(13.9,0,0,13.9,237.4,883.7)" />
<use xlink:href="#f1_a" transform="matrix(13.9,0,0,13.9,243.3,883.7)" />
<use xlink:href="#f1_1w" transform="matrix(13.9,0,0,13.9,249.3,883.7)" />
<use xlink:href="#f1_1w" transform="matrix(13.9,0,0,13.9,264.7,883.7)" />
<use xlink:href="#f1_1w" transform="matrix(13.9,0,0,13.9,280.2,883.7)" />
<use xlink:href="#f1_9" transform="matrix(13.9,0,0,13.9,295.6,883.7)" />
<use xlink:href="#f1_1l" transform="matrix(13.9,0,0,13.9,300.9,883.7)" />
<use xlink:href="#f1_1i" transform="matrix(13.9,0,0,13.9,306.9,883.7)" />
<use xlink:href="#f1_1n" transform="matrix(13.9,0,0,13.9,312.8,883.7)" />
<use xlink:href="#f1_1k" transform="matrix(13.9,0,0,13.9,324.7,883.7)" />
<use xlink:href="#f1_1e" transform="matrix(13.9,0,0,13.9,336.6,883.7)" />
<use xlink:href="#f1_1d" transform="matrix(13.9,0,0,13.9,346.1,883.7)" />
<use xlink:href="#f1_1i" transform="matrix(13.9,0,0,13.9,358,883.7)" />
<use xlink:href="#f1_1n" transform="matrix(13.9,0,0,13.9,363.9,883.7)" />
<use xlink:href="#f1_9" transform="matrix(13.9,0,0,13.9,375.8,883.7)" />
<use xlink:href="#f1_1c" transform="matrix(13.9,0,0,13.9,381.2,883.7)" />
<use xlink:href="#f1_1o" transform="matrix(13.9,0,0,13.9,390.7,883.7)" />
<use xlink:href="#f1_1m" transform="matrix(13.9,0,0,13.9,401.4,883.7)" />
<use xlink:href="#f1_a" transform="matrix(13.9,0,0,13.9,419.2,883.7)" />
<use xlink:href="#f1_1i" transform="matrix(13.9,0,0,13.9,425.1,883.7)" />
<use xlink:href="#f1_1n" transform="matrix(13.9,0,0,13.9,431.1,883.7)" />
<use xlink:href="#f1_a" transform="matrix(13.9,0,0,13.9,443,883.7)" />
<use xlink:href="#f1_1j" transform="matrix(13.9,0,0,13.9,448.9,883.7)" />
<use xlink:href="#f1_1o" transform="matrix(13.9,0,0,13.9,456,883.7)" />
<use xlink:href="#f1_1h" transform="matrix(13.9,0,0,13.9,466.8,883.7)" />
<use xlink:href="#f1_1n" transform="matrix(13.9,0,0,13.9,478.6,883.7)" />
<use xlink:href="#f1_8" transform="matrix(13.9,0,0,13.9,490.5,883.7)" />
<use xlink:href="#f1_1k" transform="matrix(13.9,0,0,13.9,497.6,883.7)" />
<use xlink:href="#f1_1o" transform="matrix(13.9,0,0,13.9,509.5,883.7)" />
<use xlink:href="#f1_1j" transform="matrix(13.9,0,0,13.9,520.2,883.7)" />
<use xlink:href="#f1_1i" transform="matrix(13.9,0,0,13.9,527.4,883.7)" />
<use xlink:href="#f1_1r" transform="matrix(13.9,0,0,13.9,533.3,883.7)" />
<use xlink:href="#f1_1o" transform="matrix(13.9,0,0,13.9,542.8,883.7)" />
<use xlink:href="#f1_8" transform="matrix(13.9,0,0,13.9,553.5,883.7)" />
<use xlink:href="#f1_1m" transform="matrix(13.9,0,0,13.9,560.6,883.7)" />
<use xlink:href="#f1_1o" transform="matrix(13.9,0,0,13.9,578.4,883.7)" />
<use xlink:href="#f1_1r" transform="matrix(13.9,0,0,13.9,589.1,883.7)" />
<use xlink:href="#f1_1i" transform="matrix(13.9,0,0,13.9,598.6,883.7)" />
<use xlink:href="#f1_1w" transform="matrix(13.9,0,0,13.9,604.6,883.7)" />
<use xlink:href="#f1_1a" transform="matrix(13.9,0,0,13.9,620,883.7)" />
<use xlink:href="#f1_1k" transform="matrix(13.9,0,0,13.9,630.7,883.7)" />
<use xlink:href="#f1_1a" transform="matrix(13.9,0,0,13.9,642.6,883.7)" />
<use xlink:href="#f1_8" transform="matrix(13.9,0,0,13.9,653.3,883.7)" />
<use xlink:href="#f1_f" transform="matrix(13.9,0,0,13.9,660.4,883.7)" />
<use xlink:href="#f1_e" transform="matrix(13.9,0,0,13.9,671.1,883.7)" />
<use xlink:href="#f1_c" transform="matrix(13.9,0,0,13.9,681.8,883.7)" />
<use xlink:href="#f1_1a" transform="matrix(13.9,0,0,13.9,692.5,883.7)" />
<use xlink:href="#f1_e" transform="matrix(13.9,0,0,13.9,703.2,883.7)" />
<use xlink:href="#f1_e" transform="matrix(13.9,0,0,13.9,713.9,883.7)" />
<use xlink:href="#f1_f" transform="matrix(13.9,0,0,13.9,724.6,883.7)" />
<use xlink:href="#f1_1a" transform="matrix(13.9,0,0,13.9,735.3,883.7)" />
<use xlink:href="#f1_a" transform="matrix(13.9,0,0,13.9,746,883.7)" />
</g>
</g>
<path d="M183.7,886.6H752v1.8H183.7Z" class="g0_25" />
<image preserveAspectRatio="none" x="185" y="122" width="206" height="185" xlink:href="img/1.png" />
<image preserveAspectRatio="none" x="196" y="123" width="184" height="184" xlink:href="img/2.png" />
<image preserveAspectRatio="none" x="157" y="533" width="231" height="209" xlink:href="img/3.png" />
<image preserveAspectRatio="none" x="169" y="534" width="208" height="207" xlink:href="img/4.png" />
<defs>
<path d="M33,0V27c0,0,264,241,371,393c0,0,108,152,108,278c0,0,0,96,-59,158c0,0,-59,62,-141,62c0,0,-75,0,-134,-43c0,0,-59,-44,-88,-128H63c0,0,18,138,95,212c0,0,77,74,193,74c0,0,123,0,205,-80c0,0,83,-79,83,-186c0,0,0,-77,-36,-154c0,0,-55,-121,-179,-256C424,357,238,154,191,112H455c0,0,81,0,114,6c0,0,32,6,58,25c0,0,27,18,46,52h27L630,0Z" 
id="f0_h"
transform="scale(0.001,-0.001)" />

<path d="M247,-17c0,0,-91,0,-132,30c0,0,-42,31,-42,68c0,0,0,21,17,37c0,0,18,16,44,17c0,0,19,0,34,-6c0,0,14,-7,49,-31c0,0,56,-39,113,-39c0,0,88,0,154,66c0,0,66,66,66,161c0,0,0,92,-59,171c0,0,-59,80,-163,123c0,0,-81,34,-221,39l194,393H663L605,885H301L234,750c0,0,198,-29,313,-147c0,0,100,-102,100,-239c0,0,0,-80,-33,-148c0,0,-32,-68,-81,-116c0,0,-50,-47,-110,-77c0,0,-86,-40,-176,-40Z" 
id="f0_k"
transform="scale(0.001,-0.001)" />

<path d="M490,56c0,0,124,0,190,85c0,0,89,115,89,356c0,0,0,195,-61,311c0,0,-48,91,-124,124c0,0,-52,22,-172,22c-2,0,-4,0,-6,0V165c0,0,0,-62,6,-76c0,0,6,-15,20,-22c0,0,20,-11,58,-11ZM20,0V27H53c0,0,44,0,68,14c0,0,23,14,35,38c0,0,6,16,6,94V839c0,0,0,78,-8,97c0,0,-8,20,-33,34c0,0,-25,15,-68,15H20v27H472c0,0,182,0,292,-49c0,0,135,-61,205,-183c0,0,70,-123,70,-277c0,0,0,-107,-35,-197c0,0,-34,-90,-88,-148c0,0,-55,-59,-126,-94C790,64,719,28,616,9C616,9,570,0,472,0Z" 
id="f1_q"
transform="scale(0.001,-0.001)" />

<path d="M350,115c0,0,37,0,86,42V391c0,0,-90,-53,-134,-113c0,0,-29,-41,-29,-82c0,0,0,-34,24,-60c0,0,19,-21,53,-21ZM207,-9c0,0,-59,0,-99,38c0,0,-40,40,-40,99c0,0,0,80,69,143c0,0,69,64,299,170v70c0,0,0,79,-8,100c0,0,-9,20,-33,36c0,0,-23,15,-53,15c0,0,-49,0,-80,-22c0,0,-19,-13,-19,-31c0,0,0,-16,21,-39c0,0,28,-32,28,-62c0,0,0,-36,-27,-62c0,0,-27,-26,-71,-26c0,0,-47,0,-79,29c0,0,-32,28,-32,66c0,0,0,54,43,103c0,0,42,48,118,75c0,0,76,26,158,26c0,0,99,0,157,-42c0,0,58,-43,75,-92c0,0,11,-31,11,-144V170c0,0,0,-47,3,-60c0,0,4,-12,11,-18c0,0,8,-6,18,-6c0,0,19,0,39,28L738,96c0,0,-37,-56,-77,-81c0,0,-40,-24,-90,-24c0,0,-60,0,-94,27c0,0,-33,28,-41,85C436,103,309,-9,207,-9Z" 
id="f1_1a"
transform="scale(0.001,-0.001)" />

<path d="M52,0V26c0,0,44,5,62,29c0,0,13,16,13,97V546c0,0,0,79,-14,98c0,0,-15,20,-61,26v27H336V607c0,0,54,59,104,85c0,0,49,27,106,27c0,0,68,0,113,-38c0,0,44,-38,59,-94c0,0,12,-42,12,-163V152c0,0,0,-81,15,-101c0,0,14,-19,61,-25V0H452V26c0,0,40,6,57,33c0,0,12,19,12,93V462c0,0,0,86,-7,109c0,0,-6,22,-22,35c0,0,-16,12,-36,12c0,0,-64,0,-120,-92V152c0,0,0,-79,15,-100c0,0,15,-20,55,-26V0Z" 
id="f1_1n"
transform="scale(0.001,-0.001)" />

<path d="M32,0V26c0,0,46,2,69,27c0,0,14,18,14,92V551c0,0,0,75,-17,95c0,0,-17,21,-66,24v27H325V145c0,0,0,-74,17,-95c0,0,17,-21,68,-24V0ZM220,804c0,0,-48,0,-82,33c0,0,-33,34,-33,82c0,0,0,48,33,82c0,0,34,33,82,33c0,0,48,0,82,-33c0,0,33,-34,33,-82c0,0,0,-48,-34,-82c0,0,-34,-33,-81,-33Z" 
id="f1_1i"
transform="scale(0.001,-0.001)" />

<path d="M458,424c0,0,0,120,-13,165c0,0,-13,44,-40,67c0,0,-16,14,-42,14c0,0,-39,0,-63,-38c0,0,-44,-66,-44,-182V424ZM358,-20c0,0,-155,0,-235,119c0,0,-64,96,-64,239c0,0,0,174,94,277c0,0,94,104,221,104c0,0,106,0,184,-87c0,0,78,-87,84,-257H259c0,0,7,-139,74,-220c0,0,51,-62,124,-62c0,0,45,0,81,25c0,0,37,25,79,90l25,-16C642,192,585,76,517,28c0,0,-69,-48,-159,-48Z" 
id="f1_1e"
transform="scale(0.001,-0.001)" />

<path d="M32,0V26c0,0,46,2,69,27c0,0,14,18,14,92V867c0,0,0,74,-17,94c0,0,-17,21,-66,24v27H325V145c0,0,0,-74,17,-95c0,0,17,-21,68,-24V0Z" 
id="f1_1l"
transform="scale(0.001,-0.001)" />

<path d="M523,-21L176,782c0,0,-62,145,-84,171c0,0,-21,25,-80,32v27H497V985H480c0,0,-65,0,-89,-17c0,0,-17,-11,-17,-33c0,0,0,-13,6,-31c0,0,6,-19,40,-99L635,302L835,750c0,0,36,82,44,109c0,0,9,28,9,47c0,0,0,23,-12,40c0,0,-12,17,-35,26c0,0,-32,13,-85,13v27h331V985c0,0,-55,-9,-98,-59c0,0,-31,-38,-93,-176L547,-21Z" 
id="f1_17"
transform="scale(0.001,-0.001)" />

<path d="M304,-20c0,0,-59,0,-105,36c0,0,-45,36,-61,84c0,0,-16,49,-16,169V546c0,0,0,79,-14,98c0,0,-15,20,-61,26v27H331V221c0,0,0,-74,8,-96c0,0,7,-21,22,-33c0,0,15,-11,35,-11c0,0,27,0,49,14c0,0,30,20,71,78V546c0,0,0,79,-14,98c0,0,-15,20,-61,26v27H726V152c0,0,0,-81,14,-100c0,0,15,-20,61,-26V0H516V93C516,93,466,34,416,7c0,0,-50,-27,-112,-27Z" 
id="f1_1u"
transform="scale(0.001,-0.001)" />

<path d="M-12,307v90H776V307Z" 
id="f1_20"
transform="scale(0.001,-0.001)" />

<path d="M488,56c0,0,60,0,110,26c0,0,51,27,78,77c0,0,27,50,27,112c0,0,0,71,-33,127c0,0,-32,56,-90,79L407,499V137c0,0,0,-40,20,-61c0,0,21,-20,61,-20ZM407,557c0,0,107,0,157,24c0,0,51,24,78,67c0,0,27,44,27,111c0,0,0,67,-27,110c0,0,-26,43,-76,66c0,0,-47,21,-153,21c-2,0,-3,0,-5,0L407,557ZM32,0V27c0,0,70,0,95,13c0,0,25,14,35,35c0,0,10,21,10,103V834c0,0,0,82,-10,104c0,0,-10,21,-35,34c0,0,-26,13,-95,13v27H517c0,0,174,0,246,-31c0,0,73,-31,115,-92c0,0,41,-62,41,-131c0,0,0,-73,-53,-130c0,0,-53,-57,-186,-91c0,0,144,-34,202,-81c0,0,83,-68,83,-177c0,0,0,-114,-91,-189C874,90,761,0,546,0Z" 
id="f1_o"
transform="scale(0.001,-0.001)" />

<path d="M312,-20c0,0,-50,0,-134,30c0,0,-22,9,-30,9c0,0,-25,0,-41,-37H82L70,232H97c0,0,33,-99,91,-148c0,0,59,-49,111,-49c0,0,35,0,58,22c0,0,22,22,22,54c0,0,0,35,-22,61c0,0,-22,27,-100,80c0,0,-114,79,-147,120c0,0,-49,62,-49,136c0,0,0,80,55,145c0,0,56,66,161,66c0,0,56,0,109,-28c0,0,20,-11,33,-11c0,0,13,0,21,5c0,0,9,6,27,32h26L504,479H477c0,0,-45,106,-94,145c0,0,-48,39,-96,39c0,0,-31,0,-52,-21c0,0,-22,-20,-22,-47c0,0,0,-20,15,-39c0,0,24,-30,133,-105c0,0,110,-74,144,-126c0,0,35,-52,35,-116c0,0,0,-58,-29,-114C511,95,482,39,429,9c0,0,-53,-29,-117,-29Z" 
id="f1_1s"
transform="scale(0.001,-0.001)" />

<path d="M367,-20L133,520c0,0,-43,98,-67,124c0,0,-17,19,-50,26v27H386V670c0,0,-35,0,-48,-13c0,0,-18,-16,-18,-39c0,0,0,-27,33,-103L468,253l91,226c0,0,40,97,40,137c0,0,0,23,-17,38c0,0,-17,14,-59,16v27H750V670c0,0,-33,-5,-54,-25c0,0,-20,-20,-62,-118L402,-20Z" 
id="f1_1v"
transform="scale(0.001,-0.001)" />

<path d="M381,31c0,0,33,0,56,19c0,0,29,25,38,71c0,0,15,71,15,286c0,0,0,127,-14,174c0,0,-14,48,-42,69c0,0,-19,16,-50,16c0,0,-38,0,-65,-29c0,0,-27,-29,-36,-113c0,0,-8,-85,-8,-235c0,0,0,-80,10,-150c0,0,8,-53,35,-80c0,0,27,-28,61,-28Zm2,-51c0,0,-157,0,-242,110c0,0,-85,110,-85,256c0,0,0,150,87,261c0,0,86,112,238,112c0,0,90,0,169,-47c0,0,78,-47,119,-134c0,0,40,-86,40,-189c0,0,0,-149,-75,-249c0,0,-91,-120,-251,-120Z" 
id="f1_1o"
transform="scale(0.001,-0.001)" />

<path d="M459,56c0,0,40,0,66,42c0,0,39,63,39,239c0,0,0,180,-42,247c0,0,-29,44,-76,44c0,0,-76,0,-124,-109V147c0,0,64,-91,137,-91ZM29,-326v28c0,0,46,1,69,26c0,0,14,17,14,89V551c0,0,0,75,-17,95c0,0,-17,21,-66,24v27H322V605c0,0,36,54,74,78c0,0,55,36,119,36c0,0,77,0,140,-49c0,0,63,-48,95,-134c0,0,33,-85,33,-184c0,0,0,-106,-34,-193c0,0,-34,-88,-98,-134c0,0,-65,-45,-144,-45c0,0,-57,0,-107,25c0,0,-37,19,-78,66V-188c0,0,0,-53,8,-73c0,0,9,-19,27,-28c0,0,18,-9,70,-9v-28Z" 
id="f1_1p"
transform="scale(0.001,-0.001)" />

<path d="M56,0V26c0,0,44,5,63,29c0,0,13,16,13,97V546c0,0,0,79,-15,98c0,0,-14,20,-61,26v27H341V606c0,0,57,63,106,88c0,0,49,25,108,25c0,0,67,0,112,-32c0,0,46,-31,71,-95c0,0,59,67,114,97c0,0,55,30,115,30c0,0,72,0,115,-34c0,0,43,-33,60,-84c0,0,16,-51,16,-163V152c0,0,0,-81,15,-100c0,0,14,-20,61,-26V0H873V26c0,0,42,4,63,33c0,0,13,20,13,93V452c0,0,0,93,-7,119c0,0,-8,25,-24,38c0,0,-16,12,-37,12c0,0,-32,0,-65,-24c0,0,-33,-23,-66,-70V152c0,0,0,-76,12,-95c0,0,17,-28,66,-31V0H466V26c0,0,29,2,46,15c0,0,17,13,23,31c0,0,5,18,5,80V452c0,0,0,95,-7,119c0,0,-8,24,-25,37c0,0,-18,14,-38,14c0,0,-30,0,-54,-16c0,0,-35,-23,-75,-79V152c0,0,0,-74,14,-98c0,0,15,-23,61,-28V0Z" 
id="f1_1m"
transform="scale(0.001,-0.001)" />

<path d="M298,-9c0,0,-67,0,-113,36c0,0,-46,37,-58,83c0,0,-8,25,-8,137V624H28v26c0,0,94,66,161,139c0,0,66,73,115,163h25V697H494V624H329V193c0,0,0,-60,5,-78c0,0,6,-17,20,-28c0,0,14,-11,26,-11c0,0,48,0,92,75l22,-17C494,134,434,-9,298,-9Z" 
id="f1_1t"
transform="scale(0.001,-0.001)" />

<path d="M610,343L459,690L304,343ZM12,0V27c0,0,54,9,89,46c0,0,35,37,87,153l361,807h14L928,203c0,0,52,-118,86,-149c0,0,25,-23,71,-27V0H596V27h20c0,0,59,0,83,17c0,0,16,12,16,34c0,0,0,14,-4,28c0,0,-1,7,-22,56L634,288H279L235,190c0,0,-20,-50,-20,-82c0,0,0,-42,34,-63c0,0,20,-12,99,-18V0Z" 
id="f1_n"
transform="scale(0.001,-0.001)" />

<path d="M397,69c0,0,65,0,123,103V539c0,0,-55,105,-134,105c0,0,-28,0,-46,-15c0,0,-27,-23,-45,-81c0,0,-17,-58,-17,-178c0,0,0,-132,19,-195c0,0,19,-63,53,-91c0,0,17,-15,47,-15ZM332,-20c0,0,-133,0,-211,119c0,0,-62,97,-62,238c0,0,0,112,38,202c0,0,39,89,107,134c0,0,67,46,145,46c0,0,50,0,88,-20c0,0,39,-19,83,-67V842c0,0,0,80,-7,96c0,0,-8,22,-26,32c0,0,-18,11,-68,11v31H729V209c0,0,0,-81,5,-96c0,0,6,-25,22,-36c0,0,17,-12,58,-15V37L520,-20V90C520,90,467,26,426,3c0,0,-42,-23,-94,-23Z" 
id="f1_1d"
transform="scale(0.001,-0.001)" />

<path d="M57,0V26c0,0,45,4,61,25c0,0,16,22,16,113V550c0,0,0,59,-6,76c0,0,-7,21,-22,30c0,0,-14,10,-49,14v27H342l1,-158c0,0,69,109,121,144c0,0,52,36,100,36c0,0,42,0,66,-26c0,0,25,-26,25,-73c0,0,0,-50,-24,-77c0,0,-25,-28,-59,-28c0,0,-39,0,-68,25c0,0,-28,26,-33,29c0,0,-8,4,-17,4c0,0,-22,0,-41,-16c0,0,-31,-26,-46,-73c0,0,-24,-72,-24,-159V122c0,0,0,-42,5,-54c0,0,9,-21,27,-30c0,0,17,-9,59,-12V0Z" 
id="f1_1r"
transform="scale(0.001,-0.001)" />

<path d="M473,53c0,0,173,0,287,121c0,0,114,122,114,330c0,0,0,210,-114,330c0,0,-114,121,-293,121c0,0,-67,0,-153,-21V74c0,0,95,-21,159,-21ZM26,0V27H64c0,0,64,0,91,41c0,0,16,25,16,111V833c0,0,0,95,-21,119c0,0,-29,33,-86,33H26v27H438c0,0,226,0,345,-51c0,0,118,-52,190,-172c0,0,72,-120,72,-278c0,0,0,-211,-129,-353C916,158,773,0,478,0Z" 
id="f0_x"
transform="scale(0.001,-0.001)" />

<path d="M286,72c0,0,57,0,149,75V407c0,0,-113,-45,-145,-64c0,0,-59,-32,-85,-68c0,0,-25,-36,-25,-78c0,0,0,-54,32,-89c0,0,32,-36,74,-36ZM217,-13c0,0,-71,0,-116,48c0,0,-46,48,-46,127c0,0,0,50,22,87c0,0,31,50,106,95c0,0,76,45,252,109v26c0,0,0,102,-32,140c0,0,-32,38,-94,38c0,0,-47,0,-74,-25c0,0,-28,-25,-28,-58l1,-43c0,0,0,-34,-17,-53c0,0,-18,-18,-47,-18c0,0,-28,0,-45,19c0,0,-18,19,-18,53c0,0,0,64,66,117c0,0,65,54,184,54c0,0,91,0,149,-31c0,0,44,-23,65,-72c0,0,13,-32,13,-131V238c0,0,0,-98,4,-120c0,0,4,-22,12,-29c0,0,9,-8,20,-8c0,0,12,0,21,5c0,0,16,10,61,55V99C676,99,592,-12,516,-12c0,0,-37,0,-58,24c0,0,-22,26,-23,86C435,98,330,17,303,5c0,0,-40,-18,-86,-18Z" 
id="f0_1k"
transform="scale(0.001,-0.001)" />

<path d="M21,0V26H35c0,0,53,0,71,27c0,0,18,27,18,101V408c0,0,0,123,-5,150c0,0,-6,27,-17,37c0,0,-12,10,-31,10c0,0,-21,0,-50,-11L10,620l206,83h32V558c0,0,120,145,229,145c0,0,56,0,96,-28c0,0,40,-28,64,-92c0,0,16,-45,16,-137V154c0,0,0,-65,11,-88c0,0,8,-19,26,-29c0,0,18,-11,68,-11V0H419V26h14c0,0,47,0,66,15c0,0,20,15,27,43c0,0,3,11,3,70V434c0,0,0,93,-24,135c0,0,-24,42,-81,42c0,0,-88,0,-176,-97V154c0,0,0,-69,9,-86c0,0,10,-21,28,-31c0,0,19,-11,75,-11V0Z" 
id="f0_1x"
transform="scale(0.001,-0.001)" />

<path d="M55,0V26c0,0,50,0,67,10c0,0,17,10,27,32c0,0,10,23,10,86V418c0,0,0,111,-6,144c0,0,-6,24,-17,33c0,0,-11,10,-30,10c0,0,-21,0,-51,-11L45,620l206,83h33V154c0,0,0,-64,9,-85c0,0,9,-22,27,-32c0,0,19,-11,67,-11V0ZM222,909c0,0,-32,0,-54,23c0,0,-22,22,-22,53c0,0,0,32,22,54c0,0,22,22,54,22c0,0,31,0,53,-22c0,0,22,-22,22,-54c0,0,0,-31,-22,-53c0,0,-22,-23,-53,-23Z" 
id="f0_1s"
transform="scale(0.001,-0.001)" />

<path d="M479,469c0,0,-4,66,-16,93c0,0,-18,42,-55,65c0,0,-37,24,-78,24c0,0,-62,0,-111,-48c0,0,-48,-48,-57,-134ZM355,-20c0,0,-123,0,-211,95c0,0,-87,96,-87,258c0,0,0,175,90,273c0,0,89,98,225,98c0,0,115,0,189,-76c0,0,74,-75,74,-202H162c0,0,0,-152,74,-239c0,0,75,-86,175,-86c0,0,67,0,117,36c0,0,50,37,83,127l24,-15c0,0,-16,-102,-91,-186c0,0,-76,-83,-189,-83Z" 
id="f0_1o"
transform="scale(0.001,-0.001)" />

<path d="M58,0V26c0,0,47,0,64,10c0,0,18,10,28,32c0,0,9,23,9,86V775c0,0,0,116,-5,142c0,0,-5,27,-17,37c0,0,-11,9,-29,9c0,0,-20,0,-49,-12L46,978l204,83h34V154c0,0,0,-64,9,-85c0,0,9,-21,29,-32c0,0,19,-11,72,-11V0Z" 
id="f0_1v"
transform="scale(0.001,-0.001)" />

<path d="M553,-21L174,849c0,0,-29,67,-41,82c0,0,-19,24,-46,37c0,0,-27,13,-73,17v27H427V985c0,0,-70,-7,-91,-24c0,0,-21,-17,-21,-44c0,0,0,-38,34,-117L607,207L846,793c0,0,35,86,35,120c0,0,0,22,-22,41c0,0,-21,20,-73,28c0,0,-4,1,-13,3v27h311V985c0,0,-53,-10,-81,-35c0,0,-39,-37,-70,-112L581,-21Z" 
id="f0_1f"
transform="scale(0.001,-0.001)" />

<path d="M292,-20c0,0,-57,0,-100,33c0,0,-42,33,-58,85c0,0,-17,52,-17,148V551c0,0,0,49,-10,68c0,0,-11,18,-31,29c0,0,-19,9,-68,9c-2,0,-4,0,-6,0v26H242V226c0,0,0,-95,33,-125c0,0,33,-30,80,-30c0,0,32,0,73,21c0,0,40,20,96,76V555c0,0,0,59,-21,80c0,0,-22,21,-89,22v26H647V269c0,0,0,-119,6,-145c0,0,6,-27,18,-37c0,0,12,-11,29,-11c0,0,23,0,52,13L763,63L558,-20H524V124C524,124,436,29,390,4c0,0,-47,-24,-98,-24Z" 
id="f0_24"
transform="scale(0.001,-0.001)" />

<path d="M312,-20c0,0,-62,0,-143,22c0,0,-25,8,-40,8c0,0,-18,0,-27,-19H77V234h25c0,0,21,-105,80,-158c0,0,59,-53,132,-53c0,0,51,0,84,31c0,0,32,30,32,72c0,0,0,52,-36,87c0,0,-36,35,-144,88c0,0,-109,54,-142,97c0,0,-34,43,-34,107c0,0,0,85,58,141c0,0,58,57,150,57c0,0,40,0,97,-17c0,0,38,-11,51,-11c0,0,12,0,19,5c0,0,7,5,15,23h25V470H464c0,0,-28,110,-72,149c0,0,-45,40,-113,40c0,0,-53,0,-85,-28c0,0,-32,-27,-32,-61c0,0,0,-41,24,-71c0,0,23,-31,94,-65L389,381c0,0,152,-74,152,-194c0,0,0,-94,-71,-151c0,0,-70,-56,-158,-56Z" 
id="f0_22"
transform="scale(0.001,-0.001)" />

<path d="M398,24c0,0,74,0,120,58c0,0,61,76,61,214c0,0,0,156,-69,240c0,0,-47,59,-113,59c0,0,-36,0,-71,-18c0,0,-27,-14,-88,-81V242c0,0,0,-83,6,-109c0,0,11,-43,51,-76c0,0,41,-33,103,-33ZM-4,-326v27H15c5,0,42,0,69,16c0,0,14,8,22,26c0,0,7,19,7,94V481c0,0,0,67,-6,85c0,0,-5,18,-18,27c0,0,-13,9,-36,9c0,0,-18,0,-45,-10L0,615l209,85h29V540c0,0,53,91,106,127c0,0,53,36,112,36c0,0,103,0,172,-80c0,0,84,-99,84,-257c0,0,0,-176,-102,-292c0,0,-83,-94,-210,-94c0,0,-55,0,-95,16c0,0,-30,10,-67,44V-167c0,0,0,-71,8,-90c0,0,9,-20,30,-31c0,0,21,-11,77,-11v-27Z" 
id="f0_1z"
transform="scale(0.001,-0.001)" />

<path d="M17,0V26c0,0,52,0,77,17c0,0,19,12,26,38c0,0,4,13,4,73V419c0,0,0,119,-5,142c0,0,-4,23,-17,33c0,0,-13,11,-33,11c0,0,-23,0,-52,-11l-7,26l207,83h31V549c0,0,86,154,176,154c0,0,41,0,68,-25c0,0,27,-25,27,-58c0,0,0,-29,-20,-49c0,0,-19,-20,-46,-20c0,0,-26,0,-58,25c0,0,-33,26,-48,26c0,0,-14,0,-29,-15c0,0,-34,-30,-70,-101V159c0,0,0,-56,15,-85c0,0,9,-20,34,-34c0,0,24,-14,71,-14V0Z" 
id="f0_21"
transform="scale(0.001,-0.001)" />

<path d="M406,32c0,0,72,0,119,60c0,0,47,59,47,205c0,0,0,181,-78,286c0,0,-53,71,-135,71c0,0,-40,0,-79,-23c0,0,-40,-24,-65,-83c0,0,-24,-58,-24,-151c0,0,0,-149,59,-257c0,0,59,-108,156,-108ZM374,-20c0,0,-154,0,-245,122c0,0,-77,104,-77,233c0,0,0,94,46,187c0,0,47,92,123,137c0,0,76,44,161,44c0,0,155,0,249,-118c0,0,80,-100,80,-231c0,0,0,-91,-44,-185C667,169,623,75,546,27c0,0,-77,-47,-172,-47Z" 
id="f0_1y"
transform="scale(0.001,-0.001)" />

<path d="M397,34c0,0,67,0,126,75c0,0,58,74,58,216c0,0,0,131,-58,201c0,0,-59,70,-133,70c0,0,-39,0,-79,-20c0,0,-29,-14,-75,-59V109c0,0,37,-37,78,-56c0,0,40,-19,83,-19ZM358,-20c0,0,-59,0,-121,21c0,0,-61,22,-126,65V773c0,0,0,117,-5,144c0,0,-6,27,-18,37c0,0,-12,9,-29,9c0,0,-21,0,-53,-12l-9,27l205,83h34V564c0,0,98,139,213,139c0,0,105,0,183,-90c0,0,78,-90,78,-245c0,0,0,-182,-121,-293c0,0,-103,-95,-231,-95Z" 
id="f0_1l"
transform="scale(0.001,-0.001)" />

<path d="M255,-10c0,0,-35,0,-68,18c0,0,-32,19,-48,55c0,0,-16,35,-16,109V632H15v24c0,0,41,16,84,56c0,0,43,39,77,92c0,0,17,29,48,104h23V683H407V632H247V188c0,0,0,-66,19,-90c0,0,19,-23,49,-23c0,0,24,0,47,16c0,0,23,15,36,45h29c0,0,-26,-73,-74,-110c0,0,-47,-36,-98,-36Z" 
id="f0_23"
transform="scale(0.001,-0.001)" />

<path d="M145,-328c0,0,-44,0,-73,25c0,0,-28,25,-28,58c0,0,0,31,21,50c0,0,20,19,56,19c0,0,25,0,67,-16c0,0,30,-11,38,-11c0,0,22,0,49,23c0,0,26,23,53,89L376,28L131,542c0,0,-11,24,-36,58c0,0,-19,27,-30,36c0,0,-18,12,-56,21v26H328V657H312c0,0,-33,0,-50,-15c0,0,-17,-14,-17,-36c0,0,0,-30,25,-81L437,179L589,557c0,0,12,31,12,62c0,0,0,13,-5,20c0,0,-6,8,-19,13c0,0,-12,5,-44,5v26H754V657c0,0,-27,-3,-42,-12c0,0,-15,-9,-33,-34c0,0,-7,-10,-25,-58L376,-128c0,0,-40,-99,-105,-150c0,0,-66,-50,-126,-50Z" 
id="f0_28"
transform="scale(0.001,-0.001)" />

<path d="M399,62c0,0,68,0,131,68V481c0,0,-5,51,-27,93c0,0,-22,42,-59,63c0,0,-37,21,-72,21c0,0,-65,0,-117,-59c0,0,-67,-77,-67,-226c0,0,0,-151,65,-231c0,0,66,-80,146,-80ZM330,-20c0,0,-112,0,-196,93c0,0,-83,94,-83,240c0,0,0,147,92,269c0,0,93,122,238,122c0,0,90,0,149,-58V773c0,0,0,117,-6,144c0,0,-5,27,-17,37c0,0,-12,9,-30,9c0,0,-20,0,-52,-12l-9,27l204,83h33V270c0,0,0,-120,6,-146c0,0,5,-27,18,-37c0,0,12,-11,28,-11c0,0,21,0,54,13l9,-26L564,-20H530V78C530,78,480,25,432,2c0,0,-47,-22,-102,-22Z" 
id="f0_1n"
transform="scale(0.001,-0.001)" />

<path d="M411,-239c0,0,134,0,198,48c0,0,64,47,64,100c0,0,0,39,-38,55c0,0,-39,16,-154,19c0,0,-167,5,-258,17c0,0,-35,-37,-53,-70c0,0,-17,-32,-17,-60c0,0,0,-36,43,-62c0,0,74,-47,215,-47ZM380,257c0,0,56,0,93,43c0,0,36,42,36,133c0,0,0,118,-51,185c0,0,-38,49,-98,49c0,0,-55,0,-92,-44c0,0,-37,-44,-37,-135c0,0,0,-117,50,-182c0,0,39,-49,99,-49ZM345,-328c0,0,-144,0,-243,64c0,0,-56,38,-56,78c0,0,0,18,8,36c0,0,13,27,52,76c0,0,5,7,76,80c0,0,-39,23,-55,41c0,0,-16,19,-16,42c0,0,0,26,22,61c0,0,21,35,98,100c0,0,-63,30,-97,85c0,0,-33,55,-33,121c0,0,0,101,76,174c0,0,77,73,196,73c0,0,98,0,170,-48H688c0,0,32,0,37,-2c0,0,6,-2,8,-6c0,0,4,-7,4,-24c0,0,0,-20,-4,-27c0,0,-2,-4,-7,-6c0,0,-6,-2,-38,-2H599c0,0,41,-54,41,-137c0,0,0,-96,-73,-163c0,0,-73,-68,-196,-68c0,0,-51,0,-104,15c0,0,-33,-28,-44,-49c0,0,-12,-22,-12,-37c0,0,0,-12,13,-24c0,0,12,-12,48,-17c0,0,21,-4,104,-6c0,0,154,-4,199,-11c0,0,70,-10,111,-51c0,0,42,-41,42,-102c0,0,0,-84,-79,-158c0,0,-117,-108,-304,-108Z" 
id="f0_1q"
transform="scale(0.001,-0.001)" />

<path d="M23,0V26c0,0,47,0,66,10c0,0,19,11,28,33c0,0,10,22,10,85V416c0,0,0,112,-7,145c0,0,-5,25,-16,34c0,0,-11,10,-31,10c0,0,-21,0,-50,-11L12,620l207,83h32V557c0,0,75,75,88,86c0,0,34,29,72,44c0,0,39,16,77,16c0,0,64,0,110,-37c0,0,47,-38,62,-109c0,0,77,90,130,118c0,0,53,28,109,28c0,0,54,0,96,-28c0,0,42,-28,67,-91c0,0,16,-43,16,-136V154c0,0,0,-64,10,-88c0,0,8,-16,28,-28c0,0,20,-12,65,-12V0H844V26h14c0,0,44,0,69,18c0,0,17,12,24,38c0,0,3,13,3,72V448c0,0,0,83,-20,117c0,0,-29,48,-93,48c0,0,-39,0,-79,-20c0,0,-40,-19,-97,-73l-1,-8l2,-32V154c0,0,0,-70,8,-87c0,0,7,-17,29,-29c0,0,21,-12,73,-12V0H431V26c0,0,57,0,78,14c0,0,21,13,29,40c0,0,4,13,4,74V448c0,0,0,83,-25,120c0,0,-33,48,-91,48c0,0,-40,0,-80,-22c0,0,-61,-33,-95,-74V154c0,0,0,-67,10,-87c0,0,9,-20,27,-30c0,0,18,-11,74,-11V0Z" 
id="f0_1w"
transform="scale(0.001,-0.001)" />

<path d="M20,0V26c0,0,45,0,71,15c0,0,15,7,24,28c0,0,9,21,9,85V773c0,0,0,117,-5,144c0,0,-6,27,-17,37c0,0,-12,9,-31,9c0,0,-16,0,-51,-12L10,978l204,83h34V561c0,0,83,91,131,116c0,0,49,26,97,26c0,0,58,0,100,-32c0,0,42,-32,62,-101c0,0,14,-47,14,-174V154c0,0,0,-65,11,-89c0,0,7,-18,25,-28c0,0,18,-11,66,-11V0H418V26h15c0,0,48,0,67,15c0,0,18,15,26,43c0,0,2,12,2,70V396c0,0,0,112,-12,147c0,0,-11,35,-36,53c0,0,-26,17,-61,17c0,0,-37,0,-76,-19c0,0,-40,-20,-95,-79V154c0,0,0,-70,8,-87c0,0,8,-17,29,-29c0,0,22,-12,74,-12V0Z" 
id="f0_1r"
transform="scale(0.001,-0.001)" />

<path d="M25,0V26c0,0,27,4,47,19c0,0,29,22,96,111L311,346L182,535c0,0,-55,81,-86,102c0,0,-30,20,-75,20v26H341V657c0,0,-30,0,-42,-10c0,0,-13,-11,-13,-28c0,0,0,-19,27,-56c0,0,8,-12,25,-37l48,-78l56,77c0,0,55,74,55,94c0,0,0,16,0,27c0,0,0,11,0,11v26H674V657c0,0,-37,-2,-64,-20c0,0,-37,-26,-100,-111L416,402L587,156c0,0,63,-91,89,-109c0,0,27,-18,70,-21V0H423V26c0,0,34,0,53,15c0,0,14,11,14,28c0,0,0,17,-48,87L341,302L232,157c0,0,-50,-69,-50,-82c0,0,0,-18,17,-32c0,0,17,-15,50,-17V0Z" 
id="f0_27"
transform="scale(0.001,-0.001)" />

<path d="M63,0V26H93c0,0,30,0,54,15c0,0,25,15,34,41c0,0,10,25,10,99V630H58v53H191v45c0,0,0,102,33,173c0,0,32,71,100,114c0,0,68,44,152,44c0,0,79,0,145,-51c0,0,43,-33,43,-75c0,0,0,-22,-19,-42c0,0,-20,-20,-42,-20c0,0,-17,0,-36,12c0,0,-19,13,-47,53c0,0,-28,41,-51,55c0,0,-23,14,-51,14c0,0,-35,0,-58,-18c0,0,-24,-18,-35,-57c0,0,-10,-38,-10,-197V683H491V630H315V181c0,0,0,-96,21,-122c0,0,27,-33,73,-33h62V0Z" 
id="f0_1p"
transform="scale(0.001,-0.001)" />

<path d="M342,-20c0,0,-116,0,-203,97c0,0,-86,98,-86,264c0,0,0,161,96,261c0,0,95,101,230,101c0,0,100,0,165,-53c0,0,65,-54,65,-111c0,0,0,-29,-18,-46c0,0,-18,-18,-51,-18c0,0,-44,0,-66,29c0,0,-13,15,-17,59c0,0,-4,45,-30,68c0,0,-26,22,-73,22c0,0,-74,0,-120,-55c0,0,-60,-73,-60,-193c0,0,0,-122,60,-216c0,0,60,-93,162,-93c0,0,73,0,131,49c0,0,41,35,80,126l22,-10C629,261,601,125,521,52c0,0,-81,-72,-179,-72Z" 
id="f0_1m"
transform="scale(0.001,-0.001)" />

<path d="M376,-20L133,556c0,0,-17,41,-31,58c0,0,-15,18,-39,30c0,0,-12,7,-50,13v26H335V657H314c0,0,-29,0,-44,-14c0,0,-16,-14,-15,-38c0,0,-1,-26,15,-62L429,165L588,557c0,0,17,42,17,64c0,0,0,10,-6,17c0,0,-8,11,-21,15c0,0,-13,4,-52,4v26H750V657c0,0,-39,-3,-54,-16c0,0,-26,-23,-47,-76L409,-20Z" 
id="f0_25"
transform="scale(0.001,-0.001)" />

<path d="M62,286V399H448V286Z" 
id="f0_c"
transform="scale(0.001,-0.001)" />

<path d="M191,-20c0,0,-34,0,-58,24c0,0,-24,24,-24,58c0,0,0,35,24,59c0,0,24,24,58,24c0,0,35,0,59,-24c0,0,24,-25,24,-59c0,0,0,-34,-24,-58c0,0,-25,-24,-59,-24Z" 
id="f0_d"
transform="scale(0.001,-0.001)" />

<path d="M26,0V27H62c0,0,63,0,91,37c0,0,18,24,18,115V833c0,0,0,77,-10,102c0,0,-7,18,-30,32c0,0,-33,18,-69,18H26v27H459V985H422c0,0,-35,0,-67,-17c0,0,-23,-12,-32,-36c0,0,-9,-25,-9,-99V542H784V833c0,0,0,77,-10,102c0,0,-8,18,-31,32c0,0,-33,18,-68,18H639v27h432V985h-36c0,0,-36,0,-68,-17c0,0,-24,-12,-32,-36c0,0,-9,-25,-9,-99V179c0,0,0,-77,10,-102c0,0,7,-18,31,-32c0,0,32,-18,68,-18h36V0H639V27h36c0,0,62,0,90,37c0,0,19,24,19,115V487H314V179c0,0,0,-77,9,-102c0,0,8,-18,32,-32c0,0,32,-18,67,-18h37V0Z" 
id="f0_11"
transform="scale(0.001,-0.001)" />

<path d="M336,-20L117,554c0,0,-21,55,-42,74c0,0,-21,19,-66,29v26H296V657c0,0,-40,-3,-52,-14c0,0,-13,-12,-13,-33c0,0,0,-23,13,-56L390,162L537,481L498,581c0,0,-18,46,-47,63c0,0,-17,11,-61,13v26H716V657c0,0,-54,-2,-77,-20c0,0,-15,-12,-15,-39c0,0,0,-15,6,-30L785,177L929,554c0,0,15,40,15,65c0,0,0,14,-15,25c0,0,-14,12,-57,13v26h216V657c0,0,-65,-10,-95,-89L764,-20H733L563,415L363,-20Z" 
id="f0_26"
transform="scale(0.001,-0.001)" />

<path d="M82,-253v33c0,0,77,25,119,78c0,0,42,54,42,114c0,0,0,14,-7,23c0,0,-5,6,-11,6c0,0,-8,0,-35,-14c0,0,-14,-7,-28,-7c0,0,-37,0,-58,21C104,1,82,23,82,61c0,0,0,36,28,62c0,0,28,27,68,27c0,0,49,0,88,-43c0,0,38,-43,38,-113c0,0,0,-77,-53,-143c0,0,-53,-66,-169,-104Z" 
id="f0_b"
transform="scale(0.001,-0.001)" />

<path d="M52,0V26c0,0,44,5,62,29c0,0,13,16,13,97V860c0,0,0,80,-14,99c0,0,-15,20,-61,26v27H336V608c0,0,58,61,106,86c0,0,47,25,99,25c0,0,65,0,112,-38c0,0,47,-37,62,-87c0,0,15,-51,15,-170V152c0,0,0,-81,15,-100c0,0,15,-20,61,-26V0H452V26c0,0,37,6,56,30c0,0,13,20,13,96V463c0,0,0,86,-7,108c0,0,-6,22,-22,35c0,0,-16,12,-36,12c0,0,-30,0,-59,-21c0,0,-28,-20,-61,-72V152c0,0,0,-75,12,-94c0,0,14,-26,58,-32V0Z" 
id="f1_1h"
transform="scale(0.001,-0.001)" />

<path d="M254,-18c0,0,-51,0,-88,36c0,0,-36,36,-36,87c0,0,0,52,36,88c0,0,37,37,88,37c0,0,53,0,89,-37c0,0,36,-36,36,-88c0,0,0,-51,-36,-87c0,0,-37,-36,-89,-36Zm2,488c0,0,-52,0,-88,36c0,0,-36,37,-36,88c0,0,0,51,36,88c0,0,36,36,88,36c0,0,51,0,87,-36c0,0,36,-37,36,-88c0,0,0,-51,-36,-88c0,0,-36,-36,-87,-36Z" 
id="f1_l"
transform="scale(0.001,-0.001)" />

<path d="M2,-22L336,1034h94L97,-22Z" 
id="f1_a"
transform="scale(0.001,-0.001)" />

<path d="M325,-20L139,484c0,0,-42,116,-71,151c0,0,-18,24,-56,35v27H364V670c0,0,-35,0,-49,-11c0,0,-13,-10,-13,-24c0,0,0,-12,24,-76L428,287l98,272l-7,18c0,0,-22,56,-39,72c0,0,-17,15,-52,21v27H785V670c0,0,-42,-2,-53,-12c0,0,-11,-9,-11,-26c0,0,0,-17,22,-73L841,287l90,251c0,0,19,53,19,73c0,0,0,29,-14,42c0,0,-14,14,-55,17v27h207V670c0,0,-35,-5,-55,-24c0,0,-20,-20,-52,-113L785,-20H743L551,491L364,-20Z" 
id="f1_1w"
transform="scale(0.001,-0.001)" />

<path d="M191,-18c0,0,-51,0,-87,36c0,0,-37,36,-37,87c0,0,0,52,37,88c0,0,36,37,87,37c0,0,52,0,89,-37c0,0,36,-36,36,-88c0,0,0,-51,-37,-87c0,0,-36,-36,-88,-36Z" 
id="f1_9"
transform="scale(0.001,-0.001)" />

<path d="M50,0V26c0,0,44,5,63,29c0,0,13,16,13,97V860c0,0,0,80,-15,99c0,0,-14,20,-61,26v27H335V346L497,505c0,0,50,49,62,70c0,0,13,22,13,42c0,0,0,20,-17,33c0,0,-16,14,-64,20v27H804V670c0,0,-45,-2,-78,-21c0,0,-34,-19,-132,-114L519,460L682,219c0,0,99,-146,118,-164c0,0,25,-26,64,-29V0H504V26c0,0,24,0,35,9c0,0,10,9,10,20c0,0,0,17,-31,64L380,322L335,277V152c0,0,0,-81,15,-100c0,0,15,-20,61,-26V0Z" 
id="f1_1k"
transform="scale(0.001,-0.001)" />

<path d="M365,-20c0,0,-139,0,-223,105c0,0,-83,105,-83,253c0,0,0,142,76,250c0,0,92,131,253,131c0,0,108,0,172,-55c0,0,63,-54,63,-121c0,0,0,-43,-25,-68c0,0,-26,-25,-68,-25c0,0,-44,0,-73,29c0,0,-28,29,-35,104c0,0,-5,47,-22,65c0,0,-17,19,-40,19c0,0,-36,0,-61,-38c0,0,-39,-58,-39,-176c0,0,0,-99,31,-188c0,0,32,-90,86,-134c0,0,41,-32,97,-32c0,0,36,0,69,17c0,0,33,17,78,65l23,-18C644,163,595,70,521,25c0,0,-73,-45,-156,-45Z" 
id="f1_1c"
transform="scale(0.001,-0.001)" />

<path d="M37,274V428H473V274Z" 
id="f1_8"
transform="scale(0.001,-0.001)" />

<path d="M434,31c0,0,38,0,65,22c0,0,28,22,46,86c0,0,18,64,18,231c0,0,0,161,-40,220c0,0,-29,44,-78,44c0,0,-64,0,-123,-73V251c0,0,0,-95,4,-121c0,0,8,-44,36,-71c0,0,28,-28,72,-28ZM115,-20V867c0,0,0,61,-5,75c0,0,-7,21,-23,31c0,0,-17,10,-55,12v27H322V628c0,0,88,91,192,91c0,0,72,0,135,-42c0,0,64,-43,99,-120c0,0,36,-78,36,-179c0,0,0,-114,-45,-208C739,170,693,77,617,28c0,0,-76,-48,-174,-48c0,0,-56,0,-100,18c0,0,-44,17,-87,57L141,-20Z" 
id="f1_1b"
transform="scale(0.001,-0.001)" />

<path d="M292,-20c0,0,-124,0,-190,46c0,0,-46,33,-46,74c0,0,0,33,24,57c0,0,24,25,56,25c0,0,29,0,59,-12c0,0,30,-12,102,-63c0,0,46,-31,78,-43c0,0,23,-9,52,-9c0,0,62,0,104,45c0,0,43,44,43,107c0,0,0,131,-131,213c0,0,-131,82,-331,82c0,0,-20,0,-60,0l181,510H707L632,819H233L195,719c0,0,257,-10,396,-129c0,0,114,-97,114,-243c0,0,0,-93,-53,-182C652,165,599,76,503,28c0,0,-96,-48,-211,-48Z" 
id="f1_g"
transform="scale(0.001,-0.001)" />

<path d="M415,27c0,0,35,0,62,40c0,0,27,40,27,163c0,0,0,206,-50,284c0,0,-33,51,-88,51c0,0,-30,0,-78,-24c0,0,-5,-104,-5,-151c0,0,0,-103,19,-200c0,0,20,-96,55,-135c0,0,25,-28,58,-28ZM397,-20c0,0,-93,0,-172,51c0,0,-79,51,-124,149c0,0,-44,99,-44,214c0,0,0,170,81,317c0,0,82,146,233,233c0,0,150,87,347,89v-21c0,0,-135,-34,-217,-88c0,0,-82,-54,-129,-132c0,0,-48,-77,-74,-191c0,0,33,23,55,29c0,0,48,15,98,15c0,0,113,0,189,-82c0,0,76,-83,76,-225c0,0,0,-100,-41,-184C675,154,634,71,558,25c0,0,-75,-45,-161,-45Z" 
id="f1_h"
transform="scale(0.001,-0.001)" />

<path d="M254,-20c0,0,-128,0,-187,41C67,21,24,51,24,98c0,0,0,34,25,59c0,0,25,24,57,24c0,0,25,0,46,-11c0,0,12,-6,85,-65c0,0,73,-59,136,-59c0,0,56,0,95,44c0,0,40,43,40,110c0,0,0,102,-72,189c0,0,-72,86,-210,118v27c0,0,85,24,118,46c0,0,33,21,57,64c0,0,24,44,24,89c0,0,0,61,-46,106c0,0,-45,44,-112,44c0,0,-105,0,-178,-110l-27,9c0,0,53,125,137,188c0,0,84,63,187,63c0,0,105,0,174,-65c0,0,68,-64,68,-150c0,0,0,-56,-32,-107c0,0,-32,-52,-100,-92c0,0,88,-42,134,-105c0,0,46,-62,46,-156c0,0,0,-158,-115,-269C561,89,447,-20,254,-20Z" 
id="f1_e"
transform="scale(0.001,-0.001)" />

<path d="M404,381V781L110,381ZM404,0V227H38V381l480,652h91V381h93V227H609V0Z" 
id="f1_f"
transform="scale(0.001,-0.001)" />

<path d="M114,0V27h27c0,0,65,0,93,15c0,0,27,15,37,41c0,0,10,27,10,122V729c0,0,0,71,-7,89c0,0,-7,17,-25,30c0,0,-18,12,-42,12c0,0,-38,0,-93,-24l-13,26l372,171h25V205c0,0,0,-93,8,-119c0,0,8,-26,34,-42c0,0,27,-17,84,-17h23V0Z" 
id="f1_c"
transform="scale(0.001,-0.001)" />

<path d="M302,-21c0,0,-127,0,-206,66c0,0,-78,67,-78,148c0,0,0,52,32,85c0,0,32,32,78,32c0,0,46,0,77,-29c0,0,31,-29,31,-72c0,0,0,-20,-6,-36c0,0,-3,-8,-23,-38c0,0,-20,-30,-20,-42c0,0,0,-20,19,-34c0,0,28,-21,73,-21c0,0,32,0,52,17c0,0,21,16,29,51c0,0,9,34,9,192V839c0,0,0,78,-9,97c0,0,-8,20,-33,34c0,0,-25,15,-68,15H216v27H755V985H722c0,0,-45,0,-72,-16c0,0,-18,-11,-29,-36c0,0,-9,-18,-9,-94V344c0,0,0,-146,-29,-212C583,132,554,66,480,22c0,0,-74,-43,-178,-43Z" 
id="f1_w"
transform="scale(0.001,-0.001)" />

<path d="M34,0V27H68c0,0,44,0,71,16c0,0,19,11,30,36c0,0,8,18,8,94V839c0,0,0,78,-8,97c0,0,-9,20,-34,34c0,0,-25,15,-67,15H34v27H539V985c0,0,-52,0,-79,-15c0,0,-20,-11,-31,-35c0,0,-9,-19,-9,-96V524L796,827c0,0,78,64,78,102c0,0,0,29,-32,45c0,0,-17,8,-82,11v27h395V985c0,0,-53,-4,-83,-19c0,0,-31,-16,-139,-104L637,624L992,179c0,0,75,-94,130,-128c0,0,39,-24,83,-24V0H679V27c0,0,50,5,65,16c0,0,14,11,14,28c0,0,0,31,-69,118L458,480L420,449V173c0,0,0,-79,9,-99c0,0,9,-19,34,-33c0,0,26,-14,81,-14V0Z" 
id="f1_x"
transform="scale(0.001,-0.001)" />

<path d="M137,-328c0,0,-92,0,-135,37c0,0,-43,37,-43,90c0,0,0,33,23,57c0,0,21,25,52,25c0,0,28,0,44,-17c0,0,17,-17,17,-50c0,0,0,-9,-1,-21c0,0,-1,-16,-1,-22c0,0,0,-26,12,-39c0,0,12,-13,30,-13c0,0,17,0,30,15c0,0,12,15,12,43c0,0,0,15,-4,60c0,0,-8,83,-9,100l-2,176V544l1,38c0,0,0,47,-16,65c0,0,-16,18,-68,23v27H371V-24c0,0,0,-101,-13,-149c0,0,-19,-71,-74,-113c0,0,-56,-42,-147,-42ZM266,807c0,0,-46,0,-80,33c0,0,-33,34,-33,81c0,0,0,47,33,80c0,0,33,33,80,33c0,0,48,0,81,-33c0,0,33,-33,33,-80c0,0,0,-47,-33,-81c0,0,-34,-33,-81,-33Z" 
id="f1_1j"
transform="scale(0.001,-0.001)" />

<path d="M30,0V27H40c0,0,1,0,2,0c6,0,36,1,62,11c0,0,29,12,44,31c0,0,15,20,23,55c0,0,2,8,2,76V841c0,0,0,77,-9,96c0,0,-8,19,-33,33c0,0,-26,15,-69,15H30v27H445L729,346l274,666h412V985h-33c0,0,-45,0,-72,-16c0,0,-19,-10,-30,-35c0,0,-8,-18,-8,-93V173c0,0,0,-78,8,-97c0,0,8,-20,34,-34c0,0,25,-15,68,-15h33V0H886V27h33c0,0,44,0,71,16c0,0,19,11,30,36c0,0,8,18,8,94V923L641,0H623L229,916V203c0,0,0,-74,4,-91c0,0,10,-38,42,-61c0,0,33,-24,102,-24V0Z" 
id="f1_z"
transform="scale(0.001,-0.001)" />

<path d="M450,515c0,0,91,0,141,54c0,0,49,54,49,167c0,0,0,113,-49,165c0,0,-50,52,-148,52H413V516c0,0,24,-1,37,-1ZM39,0V27c0,0,70,0,95,13c0,0,25,14,35,35c0,0,10,21,10,103V834c0,0,0,82,-10,104c0,0,-10,21,-36,34c0,0,-25,13,-94,13v27H480c0,0,218,0,313,-78c0,0,94,-77,94,-194c0,0,0,-99,-61,-169c0,0,-61,-70,-169,-95c0,0,-72,-18,-244,-18V178c0,0,0,-82,10,-104c0,0,10,-21,35,-34c0,0,26,-13,94,-13V0Z" 
id="f1_12"
transform="scale(0.001,-0.001)" />

<path d="M448,514c0,0,104,0,155,19c0,0,52,19,81,69c0,0,30,50,30,129c0,0,0,116,-54,171c0,0,-54,55,-174,55H406V514ZM28,0V27c0,0,70,0,95,13c0,0,25,14,35,35c0,0,10,21,10,103V834c0,0,0,82,-10,104c0,0,-10,21,-35,34c0,0,-25,13,-95,13v27H498c0,0,184,0,269,-25c0,0,85,-26,138,-94c0,0,54,-68,54,-160c0,0,0,-112,-80,-185c0,0,-52,-46,-145,-69L977,135c0,0,48,-66,68,-82c0,0,31,-23,72,-26V0H798L472,462H406V178c0,0,0,-82,10,-104c0,0,10,-21,35,-34c0,0,25,-13,95,-13V0Z" 
id="f1_13"
transform="scale(0.001,-0.001)" />

<path d="M435,502c0,0,78,0,134,60c0,0,57,60,57,155c0,0,0,66,-27,122c0,0,-27,56,-76,84c0,0,-50,28,-112,28c0,0,-38,0,-98,-14V517c0,0,39,-8,70,-12c0,0,31,-3,52,-3ZM25,0V27H63c0,0,65,0,92,42c0,0,15,23,15,110V833c0,0,0,96,-20,119c0,0,-29,33,-87,33H25v27H396c0,0,136,0,214,-28c0,0,78,-28,132,-94c0,0,54,-67,54,-158c0,0,0,-124,-82,-202c0,0,-82,-77,-231,-77c0,0,-36,0,-79,5c0,0,-43,5,-91,16V179c0,0,0,-96,21,-119c0,0,28,-33,85,-33h39V0Z" 
id="f0_19"
transform="scale(0.001,-0.001)" />

<path d="M182,-21c0,0,-70,0,-110,33C72,12,31,47,31,92c0,0,0,37,19,56c0,0,25,23,58,23c0,0,24,0,43,-16c0,0,19,-15,48,-84c0,0,17,-41,44,-41c0,0,20,0,38,25c0,0,17,25,17,87V833c0,0,0,77,-9,102c0,0,-8,18,-31,32c0,0,-32,18,-68,18H154v27H586V985H549c0,0,-62,0,-90,-37c0,0,-18,-24,-18,-115V339c0,0,0,-115,-25,-185c0,0,-25,-71,-86,-124c0,0,-61,-51,-148,-51Z" 
id="f0_13"
transform="scale(0.001,-0.001)" />

<path d="M25,0V27H61c0,0,63,0,91,37c0,0,18,24,18,115V833c0,0,0,77,-10,102c0,0,-7,18,-30,32c0,0,-33,18,-69,18H25v27H456V985H421c0,0,-35,0,-67,-18c0,0,-23,-11,-32,-35c0,0,-9,-24,-9,-99V523c0,0,15,15,102,95c0,0,222,203,268,271c0,0,20,30,20,52c0,0,0,18,-15,31c0,0,-16,13,-53,13H611v27H983V985c0,0,-33,-1,-60,-9c0,0,-26,-9,-65,-32c0,0,-39,-24,-96,-76c0,0,-16,-15,-151,-153L456,561L829,190c0,0,92,-92,157,-125c0,0,65,-33,130,-38V0H634V27c0,0,43,0,62,15c0,0,19,15,19,32c0,0,0,18,-7,33c0,0,-7,14,-46,53L313,506V179c0,0,0,-77,10,-102c0,0,7,-18,31,-32c0,0,32,-18,67,-18h35V0Z" 
id="f0_14"
transform="scale(0.001,-0.001)" />

<path d="M17,-328c0,0,-67,0,-100,24c0,0,-33,25,-33,51c0,0,0,26,18,45c0,0,18,18,43,18c0,0,19,0,40,-9c0,0,12,-6,48,-38c0,0,37,-33,61,-33c0,0,18,0,35,14c0,0,17,14,25,46c0,0,8,33,8,141V416c0,0,0,113,-6,145c0,0,-6,25,-17,34c0,0,-11,10,-31,10c0,0,-21,0,-51,-11L47,620l207,83h32V16c0,0,0,-175,-74,-260c0,0,-75,-84,-195,-84ZM223,908c0,0,-32,0,-54,23c0,0,-22,22,-22,53c0,0,0,32,22,55c0,0,22,22,54,22c0,0,32,0,54,-22c0,0,22,-23,22,-55c0,0,0,-31,-22,-53c0,0,-22,-23,-54,-23Z" 
id="f0_1t"
transform="scale(0.001,-0.001)" />

<path d="M25,0V27H61c0,0,64,0,91,39c0,0,16,24,16,109V837c0,0,0,67,-15,97c0,0,-10,22,-38,36c0,0,-28,15,-90,15v27H312L678,220l363,792h285V985h-35c0,0,-64,0,-91,-39c0,0,-17,-24,-17,-109V175c0,0,0,-93,21,-116c0,0,28,-32,87,-32h35V0H898V27h36c0,0,64,0,90,39c0,0,17,24,17,109V852L649,0H625L234,852V175c0,0,0,-93,20,-116c0,0,27,-32,87,-32h35V0Z" 
id="f0_16"
transform="scale(0.001,-0.001)" />

<path d="M441,0V26c0,0,28,1,38,9c0,0,10,8,10,22c0,0,0,17,-29,56L250,381L424,540c0,0,55,50,64,64c0,0,6,9,6,18c0,0,0,15,-12,26c0,0,-13,11,-41,12v23H738V660c0,0,-62,-1,-102,-19c0,0,-41,-17,-89,-61L372,418L547,196c0,0,73,-92,98,-117c0,0,36,-35,63,-45c0,0,18,-8,65,-8V0ZM13,0V26c0,0,52,0,78,13c0,0,16,8,24,25c0,0,11,25,11,86V773c0,0,0,118,-5,145c0,0,-5,26,-17,36c0,0,-12,10,-32,10c0,0,-15,0,-47,-13L13,978l203,83h34V154c0,0,0,-67,10,-88c0,0,9,-21,26,-30c0,0,17,-9,75,-10V0Z" 
id="f0_1u"
transform="scale(0.001,-0.001)" />

<path d="M545,30c0,0,143,0,236,111c0,0,93,111,93,351c0,0,0,259,-103,386c0,0,-82,102,-226,102c0,0,-136,0,-218,-101C327,879,225,754,225,512c0,0,0,-247,106,-380c0,0,81,-102,214,-102Zm2,-51c0,0,-209,0,-351,147C196,126,54,274,54,510c0,0,0,240,164,393c0,0,142,131,341,131c0,0,197,0,341,-149c0,0,145,-149,145,-373c0,0,0,-230,-146,-382C899,130,754,-21,547,-21Z" 
id="f0_18"
transform="scale(0.001,-0.001)" />

<path d="M107,-21V325h27c0,0,19,-109,52,-163c0,0,33,-54,100,-90c0,0,68,-36,148,-36c0,0,93,0,148,49c0,0,54,50,54,117c0,0,0,37,-21,75c0,0,-20,38,-64,71c0,0,-29,22,-159,95c0,0,-130,72,-185,115c0,0,-55,44,-83,96c0,0,-28,52,-28,114c0,0,0,109,83,188c0,0,84,78,213,78c0,0,81,0,171,-39c0,0,42,-19,59,-19c0,0,20,0,32,11c0,0,12,12,20,47h27V684H674c0,0,-14,101,-48,161c0,0,-35,60,-100,95c0,0,-64,35,-133,35c0,0,-77,0,-128,-47c0,0,-51,-48,-51,-108c0,0,0,-46,32,-84c0,0,47,-56,221,-149c0,0,142,-76,194,-117c0,0,51,-41,80,-96c0,0,28,-55,28,-115c0,0,0,-115,-90,-198c0,0,-89,-82,-229,-82c0,0,-44,0,-83,6c0,0,-23,4,-95,27c0,0,-73,24,-93,24c0,0,-18,0,-29,-11c0,0,-11,-12,-16,-46Z" 
id="f0_1c"
transform="scale(0.001,-0.001)" />

<path d="M485,53c0,0,135,0,206,61c0,0,71,60,71,150c0,0,0,59,-32,114c0,0,-33,54,-105,85c0,0,-72,32,-179,32c0,0,-46,0,-79,-2c0,0,-33,-1,-53,-5V73c0,0,86,-20,171,-20ZM455,547c0,0,109,0,164,23c0,0,55,24,84,72c0,0,29,49,29,106c0,0,0,89,-72,151c0,0,-73,63,-212,63c0,0,-74,0,-134,-16V557c0,0,27,-5,63,-8c0,0,35,-2,78,-2ZM24,0V27H63c0,0,63,0,91,41c0,0,17,26,17,111V833c0,0,0,94,-22,119c0,0,-29,33,-86,33H24v27H462c0,0,122,0,196,-18c0,0,112,-27,171,-95c0,0,59,-68,59,-157c0,0,0,-76,-46,-136c0,0,-47,-60,-137,-89c0,0,105,-23,157,-72c0,0,73,-69,73,-168c0,0,0,-75,-48,-145C887,132,839,63,756,32C756,32,673,0,502,0Z" 
id="f0_v"
transform="scale(0.001,-0.001)" />

<path d="M678,393L506,802L330,393ZM11,0V27c0,0,63,12,82,30c0,0,38,35,84,145l356,832h27L912,193c0,0,43,-101,77,-132c0,0,35,-30,97,-34V0H687V27c0,0,60,3,82,21c0,0,21,17,21,41c0,0,0,33,-30,104L700,338H307L239,179c0,0,-26,-59,-26,-88c0,0,0,-23,22,-41c0,0,22,-17,95,-23V0Z" 
id="f0_u"
transform="scale(0.001,-0.001)" />


</defs>
</svg>