<?xml version="1.0" encoding="UTF-8" standalone="no"?>
<!DOCTYPE svg PUBLIC "-//W3C//DTD SVG 1.1//EN"
"http://www.w3.org/Graphics/SVG/1.1/DTD/svg11.dtd">
<svg viewBox="0 0 909 1286" version="1.1" xmlns="http://www.w3.org/2000/svg" xmlns:xlink="http://www.w3.org/1999/xlink">
<defs>
<clipPath id="c0_2"><path d="M770,1223.8v-18.9h9.2v18.9Z" /></clipPath>
<clipPath id="c1_2"><path d="M27.5,1223.8V27.5h854V1223.8Z" /></clipPath>
<style type="text/css"><![CDATA[
.g0_2{
}
]]></style>
</defs>
<g clip-path="url(#c0_2)">
<g fill="#000000" >
<use xlink:href="#f0_h" transform="matrix(12,0,0,12,770,1221.7)" />
</g>
</g>
<g clip-path="url(#c1_2)">
<g fill="#000000" >
<use xlink:href="#f1_15" transform="matrix(18,0,0,18,349.7,133.8)" />
<use xlink:href="#f1_1a" transform="matrix(18,0,0,18,368.1,133.8)" />
<use xlink:href="#f1_1b" transform="matrix(18,0,0,18,381.8,133.8)" />
<use xlink:href="#f1_1l" transform="matrix(18,0,0,18,397.1,133.8)" />
<use xlink:href="#f1_1e" transform="matrix(18,0,0,18,404.7,133.8)" />
<use xlink:href="#f1_1o" transform="matrix(18,0,0,18,423.8,133.8)" />
<use xlink:href="#f1_1f" transform="matrix(18,0,0,18,437.6,133.8)" />
<use xlink:href="#f1_p" transform="matrix(18,0,0,18,453.6,133.8)" />
<use xlink:href="#f1_1o" transform="matrix(18,0,0,18,473.5,133.8)" />
<use xlink:href="#f1_1n" transform="matrix(18,0,0,18,487.2,133.8)" />
<use xlink:href="#f1_1t" transform="matrix(18,0,0,18,502.5,133.8)" />
<use xlink:href="#f1_1e" transform="matrix(18,0,0,18,511.7,133.8)" />
<use xlink:href="#f1_1n" transform="matrix(18,0,0,18,523.9,133.8)" />
<use xlink:href="#f1_1t" transform="matrix(18,0,0,18,539.2,133.8)" />
<use xlink:href="#f1_1s" transform="matrix(18,0,0,18,548.3,133.8)" />
</g>
</g>
<path d="M349.8,137.5H559.2v2.6H349.8Z" class="g0_2" />
<g clip-path="url(#c1_2)">
<g fill="#000000" >
<use xlink:href="#f1_c" transform="matrix(15.8,0,0,15.8,129.8,211.9)" />
<use xlink:href="#f1_9" transform="matrix(15.8,0,0,15.8,142,211.9)" />
<use xlink:href="#f1_r" transform="matrix(15.8,0,0,15.8,157.3,211.9)" />
<use xlink:href="#f1_1x" transform="matrix(15.8,0,0,15.8,173.6,211.9)" />
<use xlink:href="#f1_1e" transform="matrix(15.8,0,0,15.8,185.8,211.9)" />
<use xlink:href="#f1_1c" transform="matrix(15.8,0,0,15.8,196.7,211.9)" />
<use xlink:href="#f1_1u" transform="matrix(15.8,0,0,15.8,207.5,211.9)" />
<use xlink:href="#f1_1t" transform="matrix(15.8,0,0,15.8,221.1,211.9)" />
<use xlink:href="#f1_1i" transform="matrix(15.8,0,0,15.8,229.3,211.9)" />
<use xlink:href="#f1_1v" transform="matrix(15.8,0,0,15.8,236.1,211.9)" />
<use xlink:href="#f1_1e" transform="matrix(15.8,0,0,15.8,248.3,211.9)" />
<use xlink:href="#f1_14" transform="matrix(15.8,0,0,15.8,265.3,211.9)" />
<use xlink:href="#f1_1u" transform="matrix(15.8,0,0,15.8,278.8,211.9)" />
<use xlink:href="#f1_1m" transform="matrix(15.8,0,0,15.8,292.4,211.9)" />
<use xlink:href="#f1_1m" transform="matrix(15.8,0,0,15.8,312.8,211.9)" />
<use xlink:href="#f1_1a" transform="matrix(15.8,0,0,15.8,333.2,211.9)" />
<use xlink:href="#f1_1r" transform="matrix(15.8,0,0,15.8,345.4,211.9)" />
<use xlink:href="#f1_1y" transform="matrix(15.8,0,0,15.8,356.3,211.9)" />
<use xlink:href="#f0_g" transform="matrix(13.9,0,0,13.9,157.3,236.9)" />
<use xlink:href="#f0_d" transform="matrix(13.9,0,0,13.9,168,236.9)" />
<use xlink:href="#f0_g" transform="matrix(13.9,0,0,13.9,173.3,236.9)" />
<use xlink:href="#f0_d" transform="matrix(13.9,0,0,13.9,184,236.9)" />
<use xlink:href="#f0_1g" transform="matrix(13.9,0,0,13.9,190.3,236.9)" />
<use xlink:href="#f0_1r" transform="matrix(13.9,0,0,13.9,210.5,236.9)" />
<use xlink:href="#f0_1y" transform="matrix(13.9,0,0,13.9,221.2,236.9)" />
<use xlink:href="#f0_1k" transform="matrix(13.9,0,0,13.9,237.2,236.9)" />
<use xlink:href="#f0_21" transform="matrix(13.9,0,0,13.9,246.7,236.9)" />
<use xlink:href="#f0_1o" transform="matrix(13.9,0,0,13.9,253.9,236.9)" />
<use xlink:href="#f0_26" transform="matrix(13.9,0,0,13.9,268.7,236.9)" />
<use xlink:href="#f0_1o" transform="matrix(13.9,0,0,13.9,284.1,236.9)" />
<use xlink:href="#f0_s" transform="matrix(13.9,0,0,13.9,293.6,236.9)" />
<use xlink:href="#f0_g" transform="matrix(13.9,0,0,13.9,157.3,261.4)" />
<use xlink:href="#f0_d" transform="matrix(13.9,0,0,13.9,168,261.4)" />
<use xlink:href="#f0_h" transform="matrix(13.9,0,0,13.9,173.3,261.4)" />
<use xlink:href="#f0_d" transform="matrix(13.9,0,0,13.9,184,261.4)" />
<use xlink:href="#f0_11" transform="matrix(13.9,0,0,13.9,190.3,261.4)" />
<use xlink:href="#f0_1y" transform="matrix(13.9,0,0,13.9,205.7,261.4)" />
<use xlink:href="#f0_26" transform="matrix(13.9,0,0,13.9,216.4,261.4)" />
<use xlink:href="#f0_1n" transform="matrix(13.9,0,0,13.9,237.2,261.4)" />
<use xlink:href="#f0_1y" transform="matrix(13.9,0,0,13.9,247.9,261.4)" />
<use xlink:href="#f0_26" transform="matrix(13.9,0,0,13.9,264,261.4)" />
<use xlink:href="#f0_1o" transform="matrix(13.9,0,0,13.9,279.4,261.4)" />
<use xlink:href="#f0_1n" transform="matrix(13.9,0,0,13.9,294.3,261.4)" />
<use xlink:href="#f0_1y" transform="matrix(13.9,0,0,13.9,305,261.4)" />
<use xlink:href="#f0_23" transform="matrix(13.9,0,0,13.9,321,261.4)" />
<use xlink:href="#f0_1r" transform="matrix(13.9,0,0,13.9,327,261.4)" />
<use xlink:href="#f0_1s" transform="matrix(13.9,0,0,13.9,337.7,261.4)" />
<use xlink:href="#f0_22" transform="matrix(13.9,0,0,13.9,343.6,261.4)" />
<use xlink:href="#f0_s" transform="matrix(13.9,0,0,13.9,351.9,261.4)" />
<use xlink:href="#f0_g" transform="matrix(13.9,0,0,13.9,157.3,286)" />
<use xlink:href="#f0_d" transform="matrix(13.9,0,0,13.9,168,286)" />
<use xlink:href="#f0_i" transform="matrix(13.9,0,0,13.9,173.3,286)" />
<use xlink:href="#f0_d" transform="matrix(13.9,0,0,13.9,184,286)" />
<use xlink:href="#f0_11" transform="matrix(13.9,0,0,13.9,190.3,286)" />
<use xlink:href="#f0_1y" transform="matrix(13.9,0,0,13.9,205.7,286)" />
<use xlink:href="#f0_26" transform="matrix(13.9,0,0,13.9,216.4,286)" />
<use xlink:href="#f0_1n" transform="matrix(13.9,0,0,13.9,237.2,286)" />
<use xlink:href="#f0_1y" transform="matrix(13.9,0,0,13.9,247.9,286)" />
<use xlink:href="#f0_11" transform="matrix(13.9,0,0,13.9,264,286)" />
<use xlink:href="#f0_1k" transform="matrix(13.9,0,0,13.9,279.4,286)" />
<use xlink:href="#f0_1x" transform="matrix(13.9,0,0,13.9,288.9,286)" />
<use xlink:href="#f0_1n" transform="matrix(13.9,0,0,13.9,299.6,286)" />
<use xlink:href="#f0_22" transform="matrix(13.9,0,0,13.9,310.3,286)" />
<use xlink:href="#f0_26" transform="matrix(13.9,0,0,13.9,324,286)" />
<use xlink:href="#f0_1y" transform="matrix(13.9,0,0,13.9,339.4,286)" />
<use xlink:href="#f0_21" transform="matrix(13.9,0,0,13.9,350.2,286)" />
<use xlink:href="#f0_1u" transform="matrix(13.9,0,0,13.9,357.3,286)" />
<use xlink:href="#f0_s" transform="matrix(13.9,0,0,13.9,368,286)" />
<use xlink:href="#f0_g" transform="matrix(13.9,0,0,13.9,157.3,310.6)" />
<use xlink:href="#f0_d" transform="matrix(13.9,0,0,13.9,168,310.6)" />
<use xlink:href="#f0_j" transform="matrix(13.9,0,0,13.9,173.3,310.6)" />
<use xlink:href="#f0_d" transform="matrix(13.9,0,0,13.9,184,310.6)" />
<use xlink:href="#f0_11" transform="matrix(13.9,0,0,13.9,190.3,310.6)" />
<use xlink:href="#f0_1y" transform="matrix(13.9,0,0,13.9,205.7,310.6)" />
<use xlink:href="#f0_26" transform="matrix(13.9,0,0,13.9,216.4,310.6)" />
<use xlink:href="#f0_1n" transform="matrix(13.9,0,0,13.9,237.2,310.6)" />
<use xlink:href="#f0_1y" transform="matrix(13.9,0,0,13.9,247.9,310.6)" />
<use xlink:href="#f0_1o" transform="matrix(13.9,0,0,13.9,258.6,310.6)" />
<use xlink:href="#f0_22" transform="matrix(13.9,0,0,13.9,268.1,310.6)" />
<use xlink:href="#f0_23" transform="matrix(13.9,0,0,13.9,281.8,310.6)" />
<use xlink:href="#f0_1r" transform="matrix(13.9,0,0,13.9,287.7,310.6)" />
<use xlink:href="#f0_1o" transform="matrix(13.9,0,0,13.9,298.4,310.6)" />
<use xlink:href="#f0_1z" transform="matrix(13.9,0,0,13.9,313.3,310.6)" />
<use xlink:href="#f0_1k" transform="matrix(13.9,0,0,13.9,324,310.6)" />
<use xlink:href="#f0_28" transform="matrix(13.9,0,0,13.9,333.5,310.6)" />
<use xlink:href="#f0_1s" transform="matrix(13.9,0,0,13.9,349.5,310.6)" />
<use xlink:href="#f0_23" transform="matrix(13.9,0,0,13.9,355.5,310.6)" />
<use xlink:href="#f0_1p" transform="matrix(13.9,0,0,13.9,366.7,310.6)" />
<use xlink:href="#f0_1y" transform="matrix(13.9,0,0,13.9,373.9,310.6)" />
<use xlink:href="#f0_21" transform="matrix(13.9,0,0,13.9,384.6,310.6)" />
<use xlink:href="#f0_26" transform="matrix(13.9,0,0,13.9,391.7,310.6)" />
<use xlink:href="#f0_1k" transform="matrix(13.9,0,0,13.9,407.2,310.6)" />
<use xlink:href="#f0_21" transform="matrix(13.9,0,0,13.9,416.7,310.6)" />
<use xlink:href="#f0_1n" transform="matrix(13.9,0,0,13.9,423.8,310.6)" />
<use xlink:href="#f0_1k" transform="matrix(13.9,0,0,13.9,439.8,310.6)" />
<use xlink:href="#f0_1x" transform="matrix(13.9,0,0,13.9,449.3,310.6)" />
<use xlink:href="#f0_1n" transform="matrix(13.9,0,0,13.9,460,310.6)" />
<use xlink:href="#f0_1z" transform="matrix(13.9,0,0,13.9,476.1,310.6)" />
<use xlink:href="#f0_1k" transform="matrix(13.9,0,0,13.9,486.8,310.6)" />
<use xlink:href="#f0_28" transform="matrix(13.9,0,0,13.9,496.3,310.6)" />
<use xlink:href="#f0_1w" transform="matrix(13.9,0,0,13.9,507,310.6)" />
<use xlink:href="#f0_1o" transform="matrix(13.9,0,0,13.9,523.6,310.6)" />
<use xlink:href="#f0_1x" transform="matrix(13.9,0,0,13.9,533.1,310.6)" />
<use xlink:href="#f0_23" transform="matrix(13.9,0,0,13.9,543.8,310.6)" />
<use xlink:href="#f0_1z" transform="matrix(13.9,0,0,13.9,555.1,310.6)" />
<use xlink:href="#f0_21" transform="matrix(13.9,0,0,13.9,565.8,310.6)" />
<use xlink:href="#f0_1y" transform="matrix(13.9,0,0,13.9,572.9,310.6)" />
<use xlink:href="#f0_1m" transform="matrix(13.9,0,0,13.9,583.6,310.6)" />
<use xlink:href="#f0_1o" transform="matrix(13.9,0,0,13.9,593.1,310.6)" />
<use xlink:href="#f0_22" transform="matrix(13.9,0,0,13.9,602.6,310.6)" />
<use xlink:href="#f0_22" transform="matrix(13.9,0,0,13.9,610.9,310.6)" />
<use xlink:href="#f0_26" transform="matrix(13.9,0,0,13.9,624.6,310.6)" />
<use xlink:href="#f0_1y" transform="matrix(13.9,0,0,13.9,640,310.6)" />
<use xlink:href="#f0_21" transform="matrix(13.9,0,0,13.9,650.6,310.6)" />
<use xlink:href="#f0_1u" transform="matrix(13.9,0,0,13.9,657.8,310.6)" />
<use xlink:href="#f0_22" transform="matrix(13.9,0,0,13.9,668.4,310.6)" />
<use xlink:href="#f0_s" transform="matrix(13.9,0,0,13.9,676.8,310.6)" />
<use xlink:href="#f0_g" transform="matrix(13.9,0,0,13.9,157.3,335.5)" />
<use xlink:href="#f0_d" transform="matrix(13.9,0,0,13.9,168,335.5)" />
<use xlink:href="#f0_k" transform="matrix(13.9,0,0,13.9,173.3,335.5)" />
<use xlink:href="#f0_d" transform="matrix(13.9,0,0,13.9,184,335.5)" />
<use xlink:href="#f0_19" transform="matrix(13.9,0,0,13.9,190.3,335.5)" />
<use xlink:href="#f0_21" transform="matrix(13.9,0,0,13.9,202.2,335.5)" />
<use xlink:href="#f0_1y" transform="matrix(13.9,0,0,13.9,209.3,335.5)" />
<use xlink:href="#f0_1l" transform="matrix(13.9,0,0,13.9,220,335.5)" />
<use xlink:href="#f0_1v" transform="matrix(13.9,0,0,13.9,230.7,335.5)" />
<use xlink:href="#f0_1o" transform="matrix(13.9,0,0,13.9,236.7,335.5)" />
<use xlink:href="#f0_1w" transform="matrix(13.9,0,0,13.9,246.2,335.5)" />
<use xlink:href="#f0_6" transform="matrix(13.9,0,0,13.9,268.1,335.5)" />
<use xlink:href="#f0_18" transform="matrix(13.9,0,0,13.9,290.1,335.5)" />
<use xlink:href="#f0_1z" transform="matrix(13.9,0,0,13.9,305.6,335.5)" />
<use xlink:href="#f0_1z" transform="matrix(13.9,0,0,13.9,316.3,335.5)" />
<use xlink:href="#f0_1y" transform="matrix(13.9,0,0,13.9,327,335.5)" />
<use xlink:href="#f0_21" transform="matrix(13.9,0,0,13.9,337.7,335.5)" />
<use xlink:href="#f0_23" transform="matrix(13.9,0,0,13.9,344.8,335.5)" />
<use xlink:href="#f0_24" transform="matrix(13.9,0,0,13.9,350.8,335.5)" />
<use xlink:href="#f0_1x" transform="matrix(13.9,0,0,13.9,361.5,335.5)" />
<use xlink:href="#f0_1s" transform="matrix(13.9,0,0,13.9,372.2,335.5)" />
<use xlink:href="#f0_23" transform="matrix(13.9,0,0,13.9,378.1,335.5)" />
<use xlink:href="#f0_28" transform="matrix(13.9,0,0,13.9,384,335.5)" />
<use xlink:href="#f0_g" transform="matrix(13.9,0,0,13.9,157.3,360.1)" />
<use xlink:href="#f0_d" transform="matrix(13.9,0,0,13.9,168,360.1)" />
<use xlink:href="#f0_l" transform="matrix(13.9,0,0,13.9,173.3,360.1)" />
<use xlink:href="#f0_d" transform="matrix(13.9,0,0,13.9,184,360.1)" />
<use xlink:href="#f0_1c" transform="matrix(13.9,0,0,13.9,190.3,360.1)" />
<use xlink:href="#f0_1y" transform="matrix(13.9,0,0,13.9,202.2,360.1)" />
<use xlink:href="#f0_1v" transform="matrix(13.9,0,0,13.9,212.9,360.1)" />
<use xlink:href="#f0_24" transform="matrix(13.9,0,0,13.9,218.8,360.1)" />
<use xlink:href="#f0_23" transform="matrix(13.9,0,0,13.9,229.5,360.1)" />
<use xlink:href="#f0_1s" transform="matrix(13.9,0,0,13.9,235.5,360.1)" />
<use xlink:href="#f0_1y" transform="matrix(13.9,0,0,13.9,241.4,360.1)" />
<use xlink:href="#f0_1x" transform="matrix(13.9,0,0,13.9,252.1,360.1)" />
<use xlink:href="#f0_g" transform="matrix(13.9,0,0,13.9,157.3,384.6)" />
<use xlink:href="#f0_d" transform="matrix(13.9,0,0,13.9,168,384.6)" />
<use xlink:href="#f0_m" transform="matrix(13.9,0,0,13.9,173.3,384.6)" />
<use xlink:href="#f0_d" transform="matrix(13.9,0,0,13.9,184,384.6)" />
<use xlink:href="#f0_16" transform="matrix(13.9,0,0,13.9,190.3,384.6)" />
<use xlink:href="#f0_1k" transform="matrix(13.9,0,0,13.9,209.3,384.6)" />
<use xlink:href="#f0_21" transform="matrix(13.9,0,0,13.9,218.8,384.6)" />
<use xlink:href="#f0_1u" transform="matrix(13.9,0,0,13.9,225.9,384.6)" />
<use xlink:href="#f0_1o" transform="matrix(13.9,0,0,13.9,236.6,384.6)" />
<use xlink:href="#f0_23" transform="matrix(13.9,0,0,13.9,246.1,384.6)" />
<use xlink:href="#f0_g" transform="matrix(13.9,0,0,13.9,157.3,409.2)" />
<use xlink:href="#f0_d" transform="matrix(13.9,0,0,13.9,168,409.2)" />
<use xlink:href="#f0_n" transform="matrix(13.9,0,0,13.9,173.3,409.2)" />
<use xlink:href="#f0_d" transform="matrix(13.9,0,0,13.9,184,409.2)" />
<use xlink:href="#f0_w" transform="matrix(13.9,0,0,13.9,190.3,409.2)" />
<use xlink:href="#f0_1y" transform="matrix(13.9,0,0,13.9,204.6,409.2)" />
<use xlink:href="#f0_1w" transform="matrix(13.9,0,0,13.9,215.3,409.2)" />
<use xlink:href="#f0_1z" transform="matrix(13.9,0,0,13.9,231.9,409.2)" />
<use xlink:href="#f0_1o" transform="matrix(13.9,0,0,13.9,242.6,409.2)" />
<use xlink:href="#f0_23" transform="matrix(13.9,0,0,13.9,252.1,409.2)" />
<use xlink:href="#f0_1s" transform="matrix(13.9,0,0,13.9,258.1,409.2)" />
<use xlink:href="#f0_23" transform="matrix(13.9,0,0,13.9,264,409.2)" />
<use xlink:href="#f0_1y" transform="matrix(13.9,0,0,13.9,270,409.2)" />
<use xlink:href="#f0_21" transform="matrix(13.9,0,0,13.9,280.6,409.2)" />
<use xlink:href="#f0_22" transform="matrix(13.9,0,0,13.9,287.8,409.2)" />
<use xlink:href="#f0_g" transform="matrix(13.9,0,0,13.9,157.3,433.8)" />
<use xlink:href="#f0_d" transform="matrix(13.9,0,0,13.9,168,433.8)" />
<use xlink:href="#f0_o" transform="matrix(13.9,0,0,13.9,173.3,433.8)" />
<use xlink:href="#f0_d" transform="matrix(13.9,0,0,13.9,184,433.8)" />
<use xlink:href="#f0_1g" transform="matrix(13.9,0,0,13.9,190.3,433.8)" />
<use xlink:href="#f0_1r" transform="matrix(13.9,0,0,13.9,210.5,433.8)" />
<use xlink:href="#f0_28" transform="matrix(13.9,0,0,13.9,221.2,433.8)" />
<use xlink:href="#f0_24" transform="matrix(13.9,0,0,13.9,237.2,433.8)" />
<use xlink:href="#f0_22" transform="matrix(13.9,0,0,13.9,247.9,433.8)" />
<use xlink:href="#f0_s" transform="matrix(13.9,0,0,13.9,256.3,433.8)" />
<use xlink:href="#f1_d" transform="matrix(15.8,0,0,15.8,129.8,461.3)" />
<use xlink:href="#f1_9" transform="matrix(15.8,0,0,15.8,142,461.3)" />
<use xlink:href="#f1_12" transform="matrix(15.8,0,0,15.8,157.3,461.3)" />
<use xlink:href="#f1_1r" transform="matrix(15.8,0,0,15.8,172.2,461.3)" />
<use xlink:href="#f1_1o" transform="matrix(15.8,0,0,15.8,183.1,461.3)" />
<use xlink:href="#f1_1d" transform="matrix(15.8,0,0,15.8,195.3,461.3)" />
<use xlink:href="#f1_1u" transform="matrix(15.8,0,0,15.8,208.9,461.3)" />
<use xlink:href="#f1_1c" transform="matrix(15.8,0,0,15.8,222.5,461.3)" />
<use xlink:href="#f1_1t" transform="matrix(15.8,0,0,15.8,233.3,461.3)" />
<use xlink:href="#f1_11" transform="matrix(15.8,0,0,15.8,247.6,461.3)" />
<use xlink:href="#f1_1v" transform="matrix(15.8,0,0,15.8,266.6,461.3)" />
<use xlink:href="#f1_1e" transform="matrix(15.8,0,0,15.8,278.8,461.3)" />
<use xlink:href="#f1_1r" transform="matrix(15.8,0,0,15.8,289.6,461.3)" />
<use xlink:href="#f1_1v" transform="matrix(15.8,0,0,15.8,300.5,461.3)" />
<use xlink:href="#f1_1i" transform="matrix(15.8,0,0,15.8,312.7,461.3)" />
<use xlink:href="#f1_1e" transform="matrix(15.8,0,0,15.8,319.5,461.3)" />
<use xlink:href="#f1_1w" transform="matrix(15.8,0,0,15.8,330.4,461.3)" />
<use xlink:href="#f0_h" transform="matrix(13.9,0,0,13.9,157.3,486.6)" />
<use xlink:href="#f0_d" transform="matrix(13.9,0,0,13.9,168,486.6)" />
<use xlink:href="#f0_g" transform="matrix(13.9,0,0,13.9,173.3,486.6)" />
<use xlink:href="#f0_d" transform="matrix(13.9,0,0,13.9,184,486.6)" />
<use xlink:href="#f0_12" transform="matrix(13.9,0,0,13.9,190.3,486.6)" />
<use xlink:href="#f0_1x" transform="matrix(13.9,0,0,13.9,197.4,486.6)" />
<use xlink:href="#f0_23" transform="matrix(13.9,0,0,13.9,208.1,486.6)" />
<use xlink:href="#f0_21" transform="matrix(13.9,0,0,13.9,214,486.6)" />
<use xlink:href="#f0_1y" transform="matrix(13.9,0,0,13.9,221.2,486.6)" />
<use xlink:href="#f0_1n" transform="matrix(13.9,0,0,13.9,231.9,486.6)" />
<use xlink:href="#f0_24" transform="matrix(13.9,0,0,13.9,242.6,486.6)" />
<use xlink:href="#f0_1m" transform="matrix(13.9,0,0,13.9,253.3,486.6)" />
<use xlink:href="#f0_23" transform="matrix(13.9,0,0,13.9,262.8,486.6)" />
<use xlink:href="#f0_1s" transform="matrix(13.9,0,0,13.9,268.7,486.6)" />
<use xlink:href="#f0_1y" transform="matrix(13.9,0,0,13.9,274.6,486.6)" />
<use xlink:href="#f0_1x" transform="matrix(13.9,0,0,13.9,285.3,486.6)" />
<use xlink:href="#f0_h" transform="matrix(13.9,0,0,13.9,157.3,511.1)" />
<use xlink:href="#f0_d" transform="matrix(13.9,0,0,13.9,168,511.1)" />
<use xlink:href="#f0_h" transform="matrix(13.9,0,0,13.9,173.3,511.1)" />
<use xlink:href="#f0_d" transform="matrix(13.9,0,0,13.9,184,511.1)" />
<use xlink:href="#f0_z" transform="matrix(13.9,0,0,13.9,190.3,511.1)" />
<use xlink:href="#f0_1o" transform="matrix(13.9,0,0,13.9,202.2,511.1)" />
<use xlink:href="#f0_1k" transform="matrix(13.9,0,0,13.9,211.7,511.1)" />
<use xlink:href="#f0_23" transform="matrix(13.9,0,0,13.9,221.2,511.1)" />
<use xlink:href="#f0_24" transform="matrix(13.9,0,0,13.9,227.1,511.1)" />
<use xlink:href="#f0_21" transform="matrix(13.9,0,0,13.9,237.8,511.1)" />
<use xlink:href="#f0_1o" transform="matrix(13.9,0,0,13.9,245,511.1)" />
<use xlink:href="#f0_22" transform="matrix(13.9,0,0,13.9,254.4,511.1)" />
<use xlink:href="#f0_h" transform="matrix(13.9,0,0,13.9,157.3,535.7)" />
<use xlink:href="#f0_d" transform="matrix(13.9,0,0,13.9,168,535.7)" />
<use xlink:href="#f0_i" transform="matrix(13.9,0,0,13.9,173.3,535.7)" />
<use xlink:href="#f0_d" transform="matrix(13.9,0,0,13.9,184,535.7)" />
<use xlink:href="#f0_1b" transform="matrix(13.9,0,0,13.9,190.3,535.7)" />
<use xlink:href="#f0_1o" transform="matrix(13.9,0,0,13.9,204.6,535.7)" />
<use xlink:href="#f0_25" transform="matrix(13.9,0,0,13.9,214.1,535.7)" />
<use xlink:href="#f0_1o" transform="matrix(13.9,0,0,13.9,224.8,535.7)" />
<use xlink:href="#f0_1x" transform="matrix(13.9,0,0,13.9,234.3,535.7)" />
<use xlink:href="#f0_24" transform="matrix(13.9,0,0,13.9,245,535.7)" />
<use xlink:href="#f0_1o" transform="matrix(13.9,0,0,13.9,255.6,535.7)" />
<use xlink:href="#f0_16" transform="matrix(13.9,0,0,13.9,270.5,535.7)" />
<use xlink:href="#f0_1y" transform="matrix(13.9,0,0,13.9,289.5,535.7)" />
<use xlink:href="#f0_1n" transform="matrix(13.9,0,0,13.9,300.2,535.7)" />
<use xlink:href="#f0_1o" transform="matrix(13.9,0,0,13.9,310.9,535.7)" />
<use xlink:href="#f0_1v" transform="matrix(13.9,0,0,13.9,320.4,535.7)" />
<use xlink:href="#f0_h" transform="matrix(13.9,0,0,13.9,157.3,560.3)" />
<use xlink:href="#f0_d" transform="matrix(13.9,0,0,13.9,168,560.3)" />
<use xlink:href="#f0_j" transform="matrix(13.9,0,0,13.9,173.3,560.3)" />
<use xlink:href="#f0_d" transform="matrix(13.9,0,0,13.9,184,560.3)" />
<use xlink:href="#f0_u" transform="matrix(13.9,0,0,13.9,190.3,560.3)" />
<use xlink:href="#f0_22" transform="matrix(13.9,0,0,13.9,205.7,560.3)" />
<use xlink:href="#f0_22" transform="matrix(13.9,0,0,13.9,214.1,560.3)" />
<use xlink:href="#f0_1o" transform="matrix(13.9,0,0,13.9,222.4,560.3)" />
<use xlink:href="#f0_23" transform="matrix(13.9,0,0,13.9,231.9,560.3)" />
<use xlink:href="#f0_1s" transform="matrix(13.9,0,0,13.9,237.8,560.3)" />
<use xlink:href="#f0_29" transform="matrix(13.9,0,0,13.9,243.8,560.3)" />
<use xlink:href="#f0_1k" transform="matrix(13.9,0,0,13.9,253.3,560.3)" />
<use xlink:href="#f0_23" transform="matrix(13.9,0,0,13.9,262.7,560.3)" />
<use xlink:href="#f0_1s" transform="matrix(13.9,0,0,13.9,268.7,560.3)" />
<use xlink:href="#f0_1y" transform="matrix(13.9,0,0,13.9,274.6,560.3)" />
<use xlink:href="#f0_1x" transform="matrix(13.9,0,0,13.9,285.3,560.3)" />
<use xlink:href="#f0_y" transform="matrix(13.9,0,0,13.9,301.4,560.3)" />
<use xlink:href="#f0_1m" transform="matrix(13.9,0,0,13.9,314.4,560.3)" />
<use xlink:href="#f0_1y" transform="matrix(13.9,0,0,13.9,323.9,560.3)" />
<use xlink:href="#f0_1x" transform="matrix(13.9,0,0,13.9,334.6,560.3)" />
<use xlink:href="#f0_1y" transform="matrix(13.9,0,0,13.9,345.3,560.3)" />
<use xlink:href="#f0_1w" transform="matrix(13.9,0,0,13.9,356,560.3)" />
<use xlink:href="#f0_1s" transform="matrix(13.9,0,0,13.9,372.7,560.3)" />
<use xlink:href="#f0_1m" transform="matrix(13.9,0,0,13.9,378.6,560.3)" />
<use xlink:href="#f0_22" transform="matrix(13.9,0,0,13.9,388.1,560.3)" />
<use xlink:href="#f0_6" transform="matrix(13.9,0,0,13.9,401.8,560.3)" />
<use xlink:href="#f0_1d" transform="matrix(13.9,0,0,13.9,423.7,560.3)" />
<use xlink:href="#f0_1r" transform="matrix(13.9,0,0,13.9,436.8,560.3)" />
<use xlink:href="#f0_1o" transform="matrix(13.9,0,0,13.9,447.5,560.3)" />
<use xlink:href="#f0_17" transform="matrix(13.9,0,0,13.9,462.4,560.3)" />
<use xlink:href="#f0_1y" transform="matrix(13.9,0,0,13.9,477.8,560.3)" />
<use xlink:href="#f0_23" transform="matrix(13.9,0,0,13.9,488.5,560.3)" />
<use xlink:href="#f0_1s" transform="matrix(13.9,0,0,13.9,494.4,560.3)" />
<use xlink:href="#f0_1y" transform="matrix(13.9,0,0,13.9,500.4,560.3)" />
<use xlink:href="#f0_1x" transform="matrix(13.9,0,0,13.9,511.1,560.3)" />
<use xlink:href="#f0_1y" transform="matrix(13.9,0,0,13.9,527.1,560.3)" />
<use xlink:href="#f0_1p" transform="matrix(13.9,0,0,13.9,537.8,560.3)" />
<use xlink:href="#f0_2d" transform="matrix(13.9,0,0,13.9,550.3,560.3)" />
<use xlink:href="#f0_1b" transform="matrix(13.9,0,0,13.9,559.8,560.3)" />
<use xlink:href="#f0_1k" transform="matrix(13.9,0,0,13.9,574.1,560.3)" />
<use xlink:href="#f0_21" transform="matrix(13.9,0,0,13.9,583.5,560.3)" />
<use xlink:href="#f0_1o" transform="matrix(13.9,0,0,13.9,590.7,560.3)" />
<use xlink:href="#f0_1x" transform="matrix(13.9,0,0,13.9,600.2,560.3)" />
<use xlink:href="#f0_1o" transform="matrix(13.9,0,0,13.9,610.9,560.3)" />
<use xlink:href="#f0_22" transform="matrix(13.9,0,0,13.9,620.4,560.3)" />
<use xlink:href="#f0_22" transform="matrix(13.9,0,0,13.9,628.7,560.3)" />
<use xlink:href="#f0_2e" transform="matrix(13.9,0,0,13.9,637,560.3)" />
<use xlink:href="#f0_h" transform="matrix(13.9,0,0,13.9,157.3,584.8)" />
<use xlink:href="#f0_d" transform="matrix(13.9,0,0,13.9,168,584.8)" />
<use xlink:href="#f0_k" transform="matrix(13.9,0,0,13.9,173.3,584.8)" />
<use xlink:href="#f0_d" transform="matrix(13.9,0,0,13.9,184,584.8)" />
<use xlink:href="#f0_19" transform="matrix(13.9,0,0,13.9,190.3,584.8)" />
<use xlink:href="#f0_21" transform="matrix(13.9,0,0,13.9,202.2,584.8)" />
<use xlink:href="#f0_1y" transform="matrix(13.9,0,0,13.9,209.3,584.8)" />
<use xlink:href="#f0_1n" transform="matrix(13.9,0,0,13.9,220,584.8)" />
<use xlink:href="#f0_24" transform="matrix(13.9,0,0,13.9,230.7,584.8)" />
<use xlink:href="#f0_1m" transform="matrix(13.9,0,0,13.9,241.4,584.8)" />
<use xlink:href="#f0_23" transform="matrix(13.9,0,0,13.9,250.9,584.8)" />
<use xlink:href="#f0_x" transform="matrix(13.9,0,0,13.9,262.2,584.8)" />
<use xlink:href="#f0_1o" transform="matrix(13.9,0,0,13.9,277.6,584.8)" />
<use xlink:href="#f0_22" transform="matrix(13.9,0,0,13.9,287.1,584.8)" />
<use xlink:href="#f0_1s" transform="matrix(13.9,0,0,13.9,295.4,584.8)" />
<use xlink:href="#f0_1q" transform="matrix(13.9,0,0,13.9,301.4,584.8)" />
<use xlink:href="#f0_1x" transform="matrix(13.9,0,0,13.9,312.1,584.8)" />
<use xlink:href="#f0_h" transform="matrix(13.9,0,0,13.9,157.3,609.4)" />
<use xlink:href="#f0_d" transform="matrix(13.9,0,0,13.9,168,609.4)" />
<use xlink:href="#f0_l" transform="matrix(13.9,0,0,13.9,173.3,609.4)" />
<use xlink:href="#f0_d" transform="matrix(13.9,0,0,13.9,184,609.4)" />
<use xlink:href="#f0_11" transform="matrix(13.9,0,0,13.9,190.3,609.4)" />
<use xlink:href="#f0_1k" transform="matrix(13.9,0,0,13.9,205.7,609.4)" />
<use xlink:href="#f0_1x" transform="matrix(13.9,0,0,13.9,215.2,609.4)" />
<use xlink:href="#f0_1n" transform="matrix(13.9,0,0,13.9,225.9,609.4)" />
<use xlink:href="#f0_22" transform="matrix(13.9,0,0,13.9,236.6,609.4)" />
<use xlink:href="#f0_1b" transform="matrix(13.9,0,0,13.9,250.3,609.4)" />
<use xlink:href="#f0_1o" transform="matrix(13.9,0,0,13.9,264.6,609.4)" />
<use xlink:href="#f0_25" transform="matrix(13.9,0,0,13.9,274.1,609.4)" />
<use xlink:href="#f0_1o" transform="matrix(13.9,0,0,13.9,284.8,609.4)" />
<use xlink:href="#f0_1x" transform="matrix(13.9,0,0,13.9,294.3,609.4)" />
<use xlink:href="#f0_24" transform="matrix(13.9,0,0,13.9,305,609.4)" />
<use xlink:href="#f0_1o" transform="matrix(13.9,0,0,13.9,315.7,609.4)" />
<use xlink:href="#f0_6" transform="matrix(13.9,0,0,13.9,330.5,609.4)" />
<use xlink:href="#f0_1b" transform="matrix(13.9,0,0,13.9,352.5,609.4)" />
<use xlink:href="#f0_1y" transform="matrix(13.9,0,0,13.9,366.7,609.4)" />
<use xlink:href="#f0_28" transform="matrix(13.9,0,0,13.9,377.4,609.4)" />
<use xlink:href="#f0_1k" transform="matrix(13.9,0,0,13.9,388.1,609.4)" />
<use xlink:href="#f0_1v" transform="matrix(13.9,0,0,13.9,397.6,609.4)" />
<use xlink:href="#f0_23" transform="matrix(13.9,0,0,13.9,403.6,609.4)" />
<use xlink:href="#f0_28" transform="matrix(13.9,0,0,13.9,409.5,609.4)" />
<use xlink:href="#f0_16" transform="matrix(13.9,0,0,13.9,425.6,609.4)" />
<use xlink:href="#f0_1y" transform="matrix(13.9,0,0,13.9,444.6,609.4)" />
<use xlink:href="#f0_1n" transform="matrix(13.9,0,0,13.9,455.2,609.4)" />
<use xlink:href="#f0_1o" transform="matrix(13.9,0,0,13.9,465.9,609.4)" />
<use xlink:href="#f0_1v" transform="matrix(13.9,0,0,13.9,475.4,609.4)" />
<use xlink:href="#f0_z" transform="matrix(13.9,0,0,13.9,486.7,609.4)" />
<use xlink:href="#f0_1v" transform="matrix(13.9,0,0,13.9,498.6,609.4)" />
<use xlink:href="#f0_1y" transform="matrix(13.9,0,0,13.9,504.5,609.4)" />
<use xlink:href="#f0_26" transform="matrix(13.9,0,0,13.9,515.2,609.4)" />
<use xlink:href="#f0_h" transform="matrix(13.9,0,0,13.9,157.3,634)" />
<use xlink:href="#f0_d" transform="matrix(13.9,0,0,13.9,168,634)" />
<use xlink:href="#f0_m" transform="matrix(13.9,0,0,13.9,173.3,634)" />
<use xlink:href="#f0_d" transform="matrix(13.9,0,0,13.9,184,634)" />
<use xlink:href="#f0_1b" transform="matrix(13.9,0,0,13.9,190.3,634)" />
<use xlink:href="#f0_1y" transform="matrix(13.9,0,0,13.9,204.6,634)" />
<use xlink:href="#f0_28" transform="matrix(13.9,0,0,13.9,215.3,634)" />
<use xlink:href="#f0_1k" transform="matrix(13.9,0,0,13.9,226,634)" />
<use xlink:href="#f0_1v" transform="matrix(13.9,0,0,13.9,235.5,634)" />
<use xlink:href="#f0_23" transform="matrix(13.9,0,0,13.9,241.4,634)" />
<use xlink:href="#f0_28" transform="matrix(13.9,0,0,13.9,247.4,634)" />
<use xlink:href="#f0_x" transform="matrix(13.9,0,0,13.9,263.4,634)" />
<use xlink:href="#f0_1s" transform="matrix(13.9,0,0,13.9,278.9,634)" />
<use xlink:href="#f0_22" transform="matrix(13.9,0,0,13.9,284.8,634)" />
<use xlink:href="#f0_23" transform="matrix(13.9,0,0,13.9,293.1,634)" />
<use xlink:href="#f0_21" transform="matrix(13.9,0,0,13.9,299.1,634)" />
<use xlink:href="#f0_1s" transform="matrix(13.9,0,0,13.9,306.2,634)" />
<use xlink:href="#f0_1l" transform="matrix(13.9,0,0,13.9,312.2,634)" />
<use xlink:href="#f0_24" transform="matrix(13.9,0,0,13.9,322.9,634)" />
<use xlink:href="#f0_23" transform="matrix(13.9,0,0,13.9,333.5,634)" />
<use xlink:href="#f0_1s" transform="matrix(13.9,0,0,13.9,339.5,634)" />
<use xlink:href="#f0_1y" transform="matrix(13.9,0,0,13.9,345.4,634)" />
<use xlink:href="#f0_1x" transform="matrix(13.9,0,0,13.9,356.1,634)" />
<use xlink:href="#f0_w" transform="matrix(13.9,0,0,13.9,372.2,634)" />
<use xlink:href="#f0_1y" transform="matrix(13.9,0,0,13.9,386.5,634)" />
<use xlink:href="#f0_1x" transform="matrix(13.9,0,0,13.9,397.1,634)" />
<use xlink:href="#f0_23" transform="matrix(13.9,0,0,13.9,407.8,634)" />
<use xlink:href="#f0_21" transform="matrix(13.9,0,0,13.9,413.8,634)" />
<use xlink:href="#f0_1k" transform="matrix(13.9,0,0,13.9,420.9,634)" />
<use xlink:href="#f0_1m" transform="matrix(13.9,0,0,13.9,430.4,634)" />
<use xlink:href="#f0_23" transform="matrix(13.9,0,0,13.9,439.9,634)" />
<use xlink:href="#f0_u" transform="matrix(13.9,0,0,13.9,451.2,634)" />
<use xlink:href="#f0_21" transform="matrix(13.9,0,0,13.9,466.7,634)" />
<use xlink:href="#f0_1m" transform="matrix(13.9,0,0,13.9,473.8,634)" />
<use xlink:href="#f0_1r" transform="matrix(13.9,0,0,13.9,483.3,634)" />
<use xlink:href="#f0_1s" transform="matrix(13.9,0,0,13.9,494,634)" />
<use xlink:href="#f0_23" transform="matrix(13.9,0,0,13.9,499.9,634)" />
<use xlink:href="#f0_1o" transform="matrix(13.9,0,0,13.9,505.9,634)" />
<use xlink:href="#f0_1m" transform="matrix(13.9,0,0,13.9,515.4,634)" />
<use xlink:href="#f0_23" transform="matrix(13.9,0,0,13.9,524.9,634)" />
<use xlink:href="#f0_24" transform="matrix(13.9,0,0,13.9,530.8,634)" />
<use xlink:href="#f0_21" transform="matrix(13.9,0,0,13.9,541.5,634)" />
<use xlink:href="#f0_1o" transform="matrix(13.9,0,0,13.9,548.7,634)" />
<use xlink:href="#f1_e" transform="matrix(15.8,0,0,15.8,129.8,661.5)" />
<use xlink:href="#f1_9" transform="matrix(15.8,0,0,15.8,142,661.5)" />
<use xlink:href="#f1_16" transform="matrix(15.8,0,0,15.8,157.3,661.5)" />
<use xlink:href="#f1_1s" transform="matrix(15.8,0,0,15.8,175,661.5)" />
<use xlink:href="#f1_1e" transform="matrix(15.8,0,0,15.8,184.5,661.5)" />
<use xlink:href="#f1_1o" transform="matrix(15.8,0,0,15.8,201.4,661.5)" />
<use xlink:href="#f1_1f" transform="matrix(15.8,0,0,15.8,213.7,661.5)" />
<use xlink:href="#f1_s" transform="matrix(15.8,0,0,15.8,227.9,661.5)" />
<use xlink:href="#f1_1u" transform="matrix(15.8,0,0,15.8,242.8,661.5)" />
<use xlink:href="#f1_1n" transform="matrix(15.8,0,0,15.8,256.4,661.5)" />
<use xlink:href="#f1_1d" transform="matrix(15.8,0,0,15.8,270,661.5)" />
<use xlink:href="#f1_1s" transform="matrix(15.8,0,0,15.8,283.6,661.5)" />
<use xlink:href="#f1_f" transform="matrix(15.8,0,0,15.8,129.8,689.7)" />
<use xlink:href="#f1_9" transform="matrix(15.8,0,0,15.8,142,689.7)" />
<use xlink:href="#f1_p" transform="matrix(15.8,0,0,15.8,157.3,689.7)" />
<use xlink:href="#f1_1o" transform="matrix(15.8,0,0,15.8,175,689.7)" />
<use xlink:href="#f1_1m" transform="matrix(15.8,0,0,15.8,187.2,689.7)" />
<use xlink:href="#f1_1p" transform="matrix(15.8,0,0,15.8,207.6,689.7)" />
<use xlink:href="#f1_1a" transform="matrix(15.8,0,0,15.8,221.1,689.7)" />
<use xlink:href="#f1_1n" transform="matrix(15.8,0,0,15.8,233.4,689.7)" />
<use xlink:href="#f1_1y" transform="matrix(15.8,0,0,15.8,247,689.7)" />
<use xlink:href="#f0_j" transform="matrix(13.9,0,0,13.9,157.3,714.6)" />
<use xlink:href="#f0_d" transform="matrix(13.9,0,0,13.9,168,714.6)" />
<use xlink:href="#f0_g" transform="matrix(13.9,0,0,13.9,173.3,714.6)" />
<use xlink:href="#f0_d" transform="matrix(13.9,0,0,13.9,184,714.6)" />
<use xlink:href="#f0_18" transform="matrix(13.9,0,0,13.9,190.3,714.6)" />
<use xlink:href="#f0_25" transform="matrix(13.9,0,0,13.9,205.7,714.6)" />
<use xlink:href="#f0_1o" transform="matrix(13.9,0,0,13.9,216.4,714.6)" />
<use xlink:href="#f0_21" transform="matrix(13.9,0,0,13.9,225.9,714.6)" />
<use xlink:href="#f0_25" transform="matrix(13.9,0,0,13.9,233.1,714.6)" />
<use xlink:href="#f0_1s" transform="matrix(13.9,0,0,13.9,243.8,714.6)" />
<use xlink:href="#f0_1o" transform="matrix(13.9,0,0,13.9,249.7,714.6)" />
<use xlink:href="#f0_26" transform="matrix(13.9,0,0,13.9,259.2,714.6)" />
<use xlink:href="#f0_j" transform="matrix(13.9,0,0,13.9,157.3,739.6)" />
<use xlink:href="#f0_d" transform="matrix(13.9,0,0,13.9,168,739.6)" />
<use xlink:href="#f0_h" transform="matrix(13.9,0,0,13.9,173.3,739.6)" />
<use xlink:href="#f0_d" transform="matrix(13.9,0,0,13.9,184,739.6)" />
<use xlink:href="#f0_16" transform="matrix(13.9,0,0,13.9,190.3,739.6)" />
<use xlink:href="#f0_1s" transform="matrix(13.9,0,0,13.9,209.3,739.6)" />
<use xlink:href="#f0_22" transform="matrix(13.9,0,0,13.9,215.3,739.6)" />
<use xlink:href="#f0_22" transform="matrix(13.9,0,0,13.9,223.6,739.6)" />
<use xlink:href="#f0_1s" transform="matrix(13.9,0,0,13.9,231.9,739.6)" />
<use xlink:href="#f0_1y" transform="matrix(13.9,0,0,13.9,237.8,739.6)" />
<use xlink:href="#f0_1x" transform="matrix(13.9,0,0,13.9,248.5,739.6)" />
<use xlink:href="#f0_j" transform="matrix(13.9,0,0,13.9,157.3,764.1)" />
<use xlink:href="#f0_d" transform="matrix(13.9,0,0,13.9,168,764.1)" />
<use xlink:href="#f0_i" transform="matrix(13.9,0,0,13.9,173.3,764.1)" />
<use xlink:href="#f0_d" transform="matrix(13.9,0,0,13.9,184,764.1)" />
<use xlink:href="#f0_1f" transform="matrix(13.9,0,0,13.9,190.3,764.1)" />
<use xlink:href="#f0_1s" transform="matrix(13.9,0,0,13.9,205.7,764.1)" />
<use xlink:href="#f0_22" transform="matrix(13.9,0,0,13.9,211.7,764.1)" />
<use xlink:href="#f0_1s" transform="matrix(13.9,0,0,13.9,220,764.1)" />
<use xlink:href="#f0_1y" transform="matrix(13.9,0,0,13.9,225.9,764.1)" />
<use xlink:href="#f0_1x" transform="matrix(13.9,0,0,13.9,236.7,764.1)" />
<use xlink:href="#f0_j" transform="matrix(13.9,0,0,13.9,157.3,788.7)" />
<use xlink:href="#f0_d" transform="matrix(13.9,0,0,13.9,168,788.7)" />
<use xlink:href="#f0_j" transform="matrix(13.9,0,0,13.9,173.3,788.7)" />
<use xlink:href="#f0_d" transform="matrix(13.9,0,0,13.9,184,788.7)" />
<use xlink:href="#f0_1f" transform="matrix(13.9,0,0,13.9,190.3,788.7)" />
<use xlink:href="#f0_1k" transform="matrix(13.9,0,0,13.9,205.7,788.7)" />
<use xlink:href="#f0_1v" transform="matrix(13.9,0,0,13.9,215.2,788.7)" />
<use xlink:href="#f0_24" transform="matrix(13.9,0,0,13.9,221.2,788.7)" />
<use xlink:href="#f0_1o" transform="matrix(13.9,0,0,13.9,231.9,788.7)" />
<use xlink:href="#f0_22" transform="matrix(13.9,0,0,13.9,241.4,788.7)" />
<use xlink:href="#f0_j" transform="matrix(13.9,0,0,13.9,157.3,813.3)" />
<use xlink:href="#f0_d" transform="matrix(13.9,0,0,13.9,168,813.3)" />
<use xlink:href="#f0_k" transform="matrix(13.9,0,0,13.9,173.3,813.3)" />
<use xlink:href="#f0_d" transform="matrix(13.9,0,0,13.9,184,813.3)" />
<use xlink:href="#f0_1d" transform="matrix(13.9,0,0,13.9,190.3,813.3)" />
<use xlink:href="#f0_1o" transform="matrix(13.9,0,0,13.9,203.4,813.3)" />
<use xlink:href="#f0_1k" transform="matrix(13.9,0,0,13.9,212.9,813.3)" />
<use xlink:href="#f0_1w" transform="matrix(13.9,0,0,13.9,222.4,813.3)" />
<use xlink:href="#f1_g" transform="matrix(15.8,0,0,15.8,129.8,840.8)" />
<use xlink:href="#f1_9" transform="matrix(15.8,0,0,15.8,142,840.8)" />
<use xlink:href="#f1_u" transform="matrix(15.8,0,0,15.8,157.3,840.8)" />
<use xlink:href="#f1_1i" transform="matrix(15.8,0,0,15.8,176.3,840.8)" />
<use xlink:href="#f1_1r" transform="matrix(15.8,0,0,15.8,183.1,840.8)" />
<use xlink:href="#f1_1i" transform="matrix(15.8,0,0,15.8,194,840.8)" />
<use xlink:href="#f1_1n" transform="matrix(15.8,0,0,15.8,200.8,840.8)" />
<use xlink:href="#f1_1g" transform="matrix(15.8,0,0,15.8,214.4,840.8)" />
<use xlink:href="#f1_12" transform="matrix(15.8,0,0,15.8,232.7,840.8)" />
<use xlink:href="#f1_1l" transform="matrix(15.8,0,0,15.8,247.6,840.8)" />
<use xlink:href="#f1_1a" transform="matrix(15.8,0,0,15.8,254.4,840.8)" />
<use xlink:href="#f1_1n" transform="matrix(15.8,0,0,15.8,266.6,840.8)" />
<use xlink:href="#f0_k" transform="matrix(13.9,0,0,13.9,157.3,866.1)" />
<use xlink:href="#f0_d" transform="matrix(13.9,0,0,13.9,168,866.1)" />
<use xlink:href="#f0_g" transform="matrix(13.9,0,0,13.9,173.3,866.1)" />
<use xlink:href="#f0_d" transform="matrix(13.9,0,0,13.9,184,866.1)" />
<use xlink:href="#f0_h" transform="matrix(13.9,0,0,13.9,190.3,866.1)" />
<use xlink:href="#f0_f" transform="matrix(13.9,0,0,13.9,201,866.1)" />
<use xlink:href="#f0_g" transform="matrix(13.9,0,0,13.9,211.7,866.1)" />
<use xlink:href="#f0_n" transform="matrix(13.9,0,0,13.9,222.4,866.1)" />
<use xlink:href="#f0_11" transform="matrix(13.9,0,0,13.9,238.4,866.1)" />
<use xlink:href="#f0_1s" transform="matrix(13.9,0,0,13.9,253.9,866.1)" />
<use xlink:href="#f0_21" transform="matrix(13.9,0,0,13.9,259.8,866.1)" />
<use xlink:href="#f0_1s" transform="matrix(13.9,0,0,13.9,266.9,866.1)" />
<use xlink:href="#f0_1x" transform="matrix(13.9,0,0,13.9,272.8,866.1)" />
<use xlink:href="#f0_1q" transform="matrix(13.9,0,0,13.9,283.5,866.1)" />
<use xlink:href="#f0_19" transform="matrix(13.9,0,0,13.9,299.6,866.1)" />
<use xlink:href="#f0_1v" transform="matrix(13.9,0,0,13.9,311.5,866.1)" />
<use xlink:href="#f0_1k" transform="matrix(13.9,0,0,13.9,317.4,866.1)" />
<use xlink:href="#f0_1x" transform="matrix(13.9,0,0,13.9,326.9,866.1)" />
<use xlink:href="#f0_k" transform="matrix(13.9,0,0,13.9,157.3,890.6)" />
<use xlink:href="#f0_d" transform="matrix(13.9,0,0,13.9,168,890.6)" />
<use xlink:href="#f0_h" transform="matrix(13.9,0,0,13.9,173.3,890.6)" />
<use xlink:href="#f0_d" transform="matrix(13.9,0,0,13.9,184,890.6)" />
<use xlink:href="#f0_h" transform="matrix(13.9,0,0,13.9,190.3,890.6)" />
<use xlink:href="#f0_f" transform="matrix(13.9,0,0,13.9,201,890.6)" />
<use xlink:href="#f0_g" transform="matrix(13.9,0,0,13.9,211.7,890.6)" />
<use xlink:href="#f0_o" transform="matrix(13.9,0,0,13.9,222.4,890.6)" />
<use xlink:href="#f0_11" transform="matrix(13.9,0,0,13.9,238.4,890.6)" />
<use xlink:href="#f0_1s" transform="matrix(13.9,0,0,13.9,253.9,890.6)" />
<use xlink:href="#f0_21" transform="matrix(13.9,0,0,13.9,259.8,890.6)" />
<use xlink:href="#f0_1s" transform="matrix(13.9,0,0,13.9,266.9,890.6)" />
<use xlink:href="#f0_1x" transform="matrix(13.9,0,0,13.9,272.8,890.6)" />
<use xlink:href="#f0_1q" transform="matrix(13.9,0,0,13.9,283.5,890.6)" />
<use xlink:href="#f0_19" transform="matrix(13.9,0,0,13.9,299.6,890.6)" />
<use xlink:href="#f0_1v" transform="matrix(13.9,0,0,13.9,311.5,890.6)" />
<use xlink:href="#f0_1k" transform="matrix(13.9,0,0,13.9,317.4,890.6)" />
<use xlink:href="#f0_1x" transform="matrix(13.9,0,0,13.9,326.9,890.6)" />
<use xlink:href="#f0_k" transform="matrix(13.9,0,0,13.9,157.3,915.2)" />
<use xlink:href="#f0_d" transform="matrix(13.9,0,0,13.9,168,915.2)" />
<use xlink:href="#f0_i" transform="matrix(13.9,0,0,13.9,173.3,915.2)" />
<use xlink:href="#f0_d" transform="matrix(13.9,0,0,13.9,184,915.2)" />
<use xlink:href="#f0_h" transform="matrix(13.9,0,0,13.9,190.3,915.2)" />
<use xlink:href="#f0_f" transform="matrix(13.9,0,0,13.9,201,915.2)" />
<use xlink:href="#f0_h" transform="matrix(13.9,0,0,13.9,211.7,915.2)" />
<use xlink:href="#f0_f" transform="matrix(13.9,0,0,13.9,222.4,915.2)" />
<use xlink:href="#f0_11" transform="matrix(13.9,0,0,13.9,238.4,915.2)" />
<use xlink:href="#f0_1s" transform="matrix(13.9,0,0,13.9,253.9,915.2)" />
<use xlink:href="#f0_21" transform="matrix(13.9,0,0,13.9,259.8,915.2)" />
<use xlink:href="#f0_1s" transform="matrix(13.9,0,0,13.9,266.9,915.2)" />
<use xlink:href="#f0_1x" transform="matrix(13.9,0,0,13.9,272.8,915.2)" />
<use xlink:href="#f0_1q" transform="matrix(13.9,0,0,13.9,283.5,915.2)" />
<use xlink:href="#f0_19" transform="matrix(13.9,0,0,13.9,299.6,915.2)" />
<use xlink:href="#f0_1v" transform="matrix(13.9,0,0,13.9,311.5,915.2)" />
<use xlink:href="#f0_1k" transform="matrix(13.9,0,0,13.9,317.4,915.2)" />
<use xlink:href="#f0_1x" transform="matrix(13.9,0,0,13.9,326.9,915.2)" />
<use xlink:href="#f1_h" transform="matrix(15.8,0,0,15.8,129.8,942.7)" />
<use xlink:href="#f1_9" transform="matrix(15.8,0,0,15.8,142,942.7)" />
<use xlink:href="#f1_z" transform="matrix(15.8,0,0,15.8,157.3,942.7)" />
<use xlink:href="#f1_1i" transform="matrix(15.8,0,0,15.8,180.4,942.7)" />
<use xlink:href="#f1_1l" transform="matrix(15.8,0,0,15.8,187.2,942.7)" />
<use xlink:href="#f1_1e" transform="matrix(15.8,0,0,15.8,193.9,942.7)" />
<use xlink:href="#f1_1s" transform="matrix(15.8,0,0,15.8,204.8,942.7)" />
<use xlink:href="#f1_1t" transform="matrix(15.8,0,0,15.8,214.3,942.7)" />
<use xlink:href="#f1_1o" transform="matrix(15.8,0,0,15.8,222.5,942.7)" />
<use xlink:href="#f1_1n" transform="matrix(15.8,0,0,15.8,234.7,942.7)" />
<use xlink:href="#f1_1e" transform="matrix(15.8,0,0,15.8,248.3,942.7)" />
<use xlink:href="#f1_1s" transform="matrix(15.8,0,0,15.8,259.1,942.7)" />
<use xlink:href="#f1_4" transform="matrix(15.8,0,0,15.8,274.8,942.7)" />
<use xlink:href="#f1_z" transform="matrix(15.8,0,0,15.8,301.2,942.7)" />
<use xlink:href="#f1_1e" transform="matrix(15.8,0,0,15.8,324.3,942.7)" />
<use xlink:href="#f1_1t" transform="matrix(15.8,0,0,15.8,335.1,942.7)" />
<use xlink:href="#f1_1r" transform="matrix(15.8,0,0,15.8,343.3,942.7)" />
<use xlink:href="#f1_1i" transform="matrix(15.8,0,0,15.8,354.1,942.7)" />
<use xlink:href="#f1_1c" transform="matrix(15.8,0,0,15.8,360.9,942.7)" />
<use xlink:href="#f1_1s" transform="matrix(15.8,0,0,15.8,371.8,942.7)" />
<use xlink:href="#f0_l" transform="matrix(13.9,0,0,13.9,157.3,967.6)" />
<use xlink:href="#f0_d" transform="matrix(13.9,0,0,13.9,168,967.6)" />
<use xlink:href="#f0_g" transform="matrix(13.9,0,0,13.9,173.3,967.6)" />
<use xlink:href="#f0_d" transform="matrix(13.9,0,0,13.9,184,967.6)" />
<use xlink:href="#f0_h" transform="matrix(13.9,0,0,13.9,190.3,967.6)" />
<use xlink:href="#f0_f" transform="matrix(13.9,0,0,13.9,201,967.6)" />
<use xlink:href="#f0_g" transform="matrix(13.9,0,0,13.9,211.7,967.6)" />
<use xlink:href="#f0_n" transform="matrix(13.9,0,0,13.9,222.4,967.6)" />
<use xlink:href="#f0_l" transform="matrix(13.9,0,0,13.9,157.3,992.6)" />
<use xlink:href="#f0_d" transform="matrix(13.9,0,0,13.9,168,992.6)" />
<use xlink:href="#f0_h" transform="matrix(13.9,0,0,13.9,173.3,992.6)" />
<use xlink:href="#f0_d" transform="matrix(13.9,0,0,13.9,184,992.6)" />
<use xlink:href="#f0_h" transform="matrix(13.9,0,0,13.9,190.3,992.6)" />
<use xlink:href="#f0_f" transform="matrix(13.9,0,0,13.9,201,992.6)" />
<use xlink:href="#f0_g" transform="matrix(13.9,0,0,13.9,211.7,992.6)" />
<use xlink:href="#f0_o" transform="matrix(13.9,0,0,13.9,222.4,992.6)" />
<use xlink:href="#f0_l" transform="matrix(13.9,0,0,13.9,157.3,1017.1)" />
<use xlink:href="#f0_d" transform="matrix(13.9,0,0,13.9,168,1017.1)" />
<use xlink:href="#f0_i" transform="matrix(13.9,0,0,13.9,173.3,1017.1)" />
<use xlink:href="#f0_d" transform="matrix(13.9,0,0,13.9,184,1017.1)" />
<use xlink:href="#f0_h" transform="matrix(13.9,0,0,13.9,190.3,1017.1)" />
<use xlink:href="#f0_f" transform="matrix(13.9,0,0,13.9,201,1017.1)" />
<use xlink:href="#f0_h" transform="matrix(13.9,0,0,13.9,211.7,1017.1)" />
<use xlink:href="#f0_f" transform="matrix(13.9,0,0,13.9,222.4,1017.1)" />
<use xlink:href="#f1_i" transform="matrix(13.9,0,0,13.9,129.8,1044.6)" />
<use xlink:href="#f1_9" transform="matrix(13.9,0,0,13.9,140.5,1044.6)" />
<use xlink:href="#f1_r" transform="matrix(15.8,0,0,15.8,157.3,1044.6)" />
<use xlink:href="#f1_1c" transform="matrix(15.8,0,0,15.8,173.6,1044.6)" />
<use xlink:href="#f1_1o" transform="matrix(15.8,0,0,15.8,184.5,1044.6)" />
<use xlink:href="#f1_1n" transform="matrix(15.8,0,0,15.8,196.7,1044.6)" />
<use xlink:href="#f1_1o" transform="matrix(15.8,0,0,15.8,210.3,1044.6)" />
<use xlink:href="#f1_1m" transform="matrix(15.8,0,0,15.8,222.5,1044.6)" />
<use xlink:href="#f1_1y" transform="matrix(15.8,0,0,15.8,242.9,1044.6)" />
<use xlink:href="#f0_m" transform="matrix(13.9,0,0,13.9,157.3,1069.6)" />
<use xlink:href="#f0_d" transform="matrix(13.9,0,0,13.9,168,1069.6)" />
<use xlink:href="#f0_g" transform="matrix(13.9,0,0,13.9,173.3,1069.6)" />
<use xlink:href="#f0_d" transform="matrix(13.9,0,0,13.9,184,1069.6)" />
<use xlink:href="#f0_11" transform="matrix(13.9,0,0,13.9,190.3,1069.6)" />
<use xlink:href="#f0_1k" transform="matrix(13.9,0,0,13.9,205.7,1069.6)" />
<use xlink:href="#f0_1x" transform="matrix(13.9,0,0,13.9,215.2,1069.6)" />
<use xlink:href="#f0_1n" transform="matrix(13.9,0,0,13.9,225.9,1069.6)" />
<use xlink:href="#f0_22" transform="matrix(13.9,0,0,13.9,236.6,1069.6)" />
<use xlink:href="#f0_d" transform="matrix(13.9,0,0,13.9,245,1069.6)" />
<use xlink:href="#f0_u" transform="matrix(13.9,0,0,13.9,250.3,1069.6)" />
<use xlink:href="#f0_12" transform="matrix(13.9,0,0,13.9,265.8,1069.6)" />
<use xlink:href="#f0_1k" transform="matrix(13.9,0,0,13.9,278.2,1069.6)" />
<use xlink:href="#f0_1x" transform="matrix(13.9,0,0,13.9,287.7,1069.6)" />
<use xlink:href="#f0_1n" transform="matrix(13.9,0,0,13.9,298.4,1069.6)" />
<use xlink:href="#f0_23" transform="matrix(13.9,0,0,13.9,314.5,1069.6)" />
<use xlink:href="#f0_1r" transform="matrix(13.9,0,0,13.9,320.4,1069.6)" />
<use xlink:href="#f0_1o" transform="matrix(13.9,0,0,13.9,331.1,1069.6)" />
<use xlink:href="#f0_11" transform="matrix(13.9,0,0,13.9,346,1069.6)" />
<use xlink:href="#f0_u" transform="matrix(13.9,0,0,13.9,361.4,1069.6)" />
<use xlink:href="#f0_17" transform="matrix(13.9,0,0,13.9,376.8,1069.6)" />
<use xlink:href="#f0_x" transform="matrix(13.9,0,0,13.9,392.3,1069.6)" />
<use xlink:href="#f0_1c" transform="matrix(13.9,0,0,13.9,407.7,1069.6)" />
<use xlink:href="#f0_1d" transform="matrix(13.9,0,0,13.9,425,1069.6)" />
<use xlink:href="#f0_1y" transform="matrix(13.9,0,0,13.9,438,1069.6)" />
<use xlink:href="#f0_1u" transform="matrix(13.9,0,0,13.9,448.7,1069.6)" />
<use xlink:href="#f0_1o" transform="matrix(13.9,0,0,13.9,459.4,1069.6)" />
<use xlink:href="#f0_1x" transform="matrix(13.9,0,0,13.9,468.9,1069.6)" />
<use xlink:href="#f0_m" transform="matrix(13.9,0,0,13.9,157.3,1094.1)" />
<use xlink:href="#f0_d" transform="matrix(13.9,0,0,13.9,168,1094.1)" />
<use xlink:href="#f0_h" transform="matrix(13.9,0,0,13.9,173.3,1094.1)" />
<use xlink:href="#f0_d" transform="matrix(13.9,0,0,13.9,184,1094.1)" />
<use xlink:href="#f0_z" transform="matrix(13.9,0,0,13.9,190.3,1094.1)" />
<use xlink:href="#f0_1y" transform="matrix(13.9,0,0,13.9,202.2,1094.1)" />
<use xlink:href="#f0_22" transform="matrix(13.9,0,0,13.9,212.9,1094.1)" />
<use xlink:href="#f0_23" transform="matrix(13.9,0,0,13.9,221.2,1094.1)" />
<use xlink:href="#f0_1o" transform="matrix(13.9,0,0,13.9,227.2,1094.1)" />
<use xlink:href="#f0_21" transform="matrix(13.9,0,0,13.9,236.7,1094.1)" />
<use xlink:href="#f0_1s" transform="matrix(13.9,0,0,13.9,243.8,1094.1)" />
<use xlink:href="#f0_1x" transform="matrix(13.9,0,0,13.9,249.7,1094.1)" />
<use xlink:href="#f0_1q" transform="matrix(13.9,0,0,13.9,260.4,1094.1)" />
<use xlink:href="#f0_23" transform="matrix(13.9,0,0,13.9,276.5,1094.1)" />
<use xlink:href="#f0_1r" transform="matrix(13.9,0,0,13.9,282.4,1094.1)" />
<use xlink:href="#f0_1o" transform="matrix(13.9,0,0,13.9,293.1,1094.1)" />
<use xlink:href="#f0_17" transform="matrix(13.9,0,0,13.9,308,1094.1)" />
<use xlink:href="#f0_1o" transform="matrix(13.9,0,0,13.9,323.4,1094.1)" />
<use xlink:href="#f0_23" transform="matrix(13.9,0,0,13.9,332.9,1094.1)" />
<use xlink:href="#f0_26" transform="matrix(13.9,0,0,13.9,338.8,1094.1)" />
<use xlink:href="#f0_1y" transform="matrix(13.9,0,0,13.9,354.3,1094.1)" />
<use xlink:href="#f0_21" transform="matrix(13.9,0,0,13.9,365,1094.1)" />
<use xlink:href="#f0_1u" transform="matrix(13.9,0,0,13.9,372.1,1094.1)" />
<use xlink:href="#f0_m" transform="matrix(13.9,0,0,13.9,157.3,1118.7)" />
<use xlink:href="#f0_d" transform="matrix(13.9,0,0,13.9,168,1118.7)" />
<use xlink:href="#f0_i" transform="matrix(13.9,0,0,13.9,173.3,1118.7)" />
<use xlink:href="#f0_d" transform="matrix(13.9,0,0,13.9,184,1118.7)" />
<use xlink:href="#f0_1d" transform="matrix(13.9,0,0,13.9,190.3,1118.7)" />
<use xlink:href="#f0_1y" transform="matrix(13.9,0,0,13.9,203.4,1118.7)" />
<use xlink:href="#f0_1u" transform="matrix(13.9,0,0,13.9,214.1,1118.7)" />
<use xlink:href="#f0_1o" transform="matrix(13.9,0,0,13.9,224.7,1118.7)" />
<use xlink:href="#f0_1x" transform="matrix(13.9,0,0,13.9,234.2,1118.7)" />
<use xlink:href="#f0_x" transform="matrix(13.9,0,0,13.9,250.3,1118.7)" />
<use xlink:href="#f0_1s" transform="matrix(13.9,0,0,13.9,265.7,1118.7)" />
<use xlink:href="#f0_22" transform="matrix(13.9,0,0,13.9,271.6,1118.7)" />
<use xlink:href="#f0_23" transform="matrix(13.9,0,0,13.9,280,1118.7)" />
<use xlink:href="#f0_21" transform="matrix(13.9,0,0,13.9,285.9,1118.7)" />
<use xlink:href="#f0_1s" transform="matrix(13.9,0,0,13.9,293,1118.7)" />
<use xlink:href="#f0_1l" transform="matrix(13.9,0,0,13.9,299,1118.7)" />
<use xlink:href="#f0_24" transform="matrix(13.9,0,0,13.9,309.7,1118.7)" />
<use xlink:href="#f0_23" transform="matrix(13.9,0,0,13.9,320.3,1118.7)" />
<use xlink:href="#f0_1s" transform="matrix(13.9,0,0,13.9,326.3,1118.7)" />
<use xlink:href="#f0_1y" transform="matrix(13.9,0,0,13.9,332.2,1118.7)" />
<use xlink:href="#f0_1x" transform="matrix(13.9,0,0,13.9,342.9,1118.7)" />
<use xlink:href="#f0_m" transform="matrix(13.9,0,0,13.9,157.3,1143.6)" />
<use xlink:href="#f0_d" transform="matrix(13.9,0,0,13.9,168,1143.6)" />
<use xlink:href="#f0_j" transform="matrix(13.9,0,0,13.9,173.3,1143.6)" />
<use xlink:href="#f0_d" transform="matrix(13.9,0,0,13.9,184,1143.6)" />
<use xlink:href="#f0_1d" transform="matrix(13.9,0,0,13.9,190.3,1143.6)" />
<use xlink:href="#f0_1y" transform="matrix(13.9,0,0,13.9,203.4,1143.6)" />
<use xlink:href="#f0_1u" transform="matrix(13.9,0,0,13.9,214.1,1143.6)" />
<use xlink:href="#f0_1o" transform="matrix(13.9,0,0,13.9,224.7,1143.6)" />
<use xlink:href="#f0_1x" transform="matrix(13.9,0,0,13.9,234.2,1143.6)" />
<use xlink:href="#f0_22" transform="matrix(13.9,0,0,13.9,250.3,1143.6)" />
<use xlink:href="#f0_1k" transform="matrix(13.9,0,0,13.9,258.6,1143.6)" />
<use xlink:href="#f0_1v" transform="matrix(13.9,0,0,13.9,268.1,1143.6)" />
<use xlink:href="#f0_1o" transform="matrix(13.9,0,0,13.9,274,1143.6)" />
<use xlink:href="#f0_m" transform="matrix(13.9,0,0,13.9,157.3,1168.2)" />
<use xlink:href="#f0_d" transform="matrix(13.9,0,0,13.9,168,1168.2)" />
<use xlink:href="#f0_k" transform="matrix(13.9,0,0,13.9,173.3,1168.2)" />
<use xlink:href="#f0_d" transform="matrix(13.9,0,0,13.9,184,1168.2)" />
<use xlink:href="#f0_1d" transform="matrix(13.9,0,0,13.9,190.3,1168.2)" />
<use xlink:href="#f0_1y" transform="matrix(13.9,0,0,13.9,203.4,1168.2)" />
<use xlink:href="#f0_1u" transform="matrix(13.9,0,0,13.9,214.1,1168.2)" />
<use xlink:href="#f0_1o" transform="matrix(13.9,0,0,13.9,224.7,1168.2)" />
<use xlink:href="#f0_1x" transform="matrix(13.9,0,0,13.9,234.2,1168.2)" />
<use xlink:href="#f0_19" transform="matrix(13.9,0,0,13.9,250.3,1168.2)" />
<use xlink:href="#f0_21" transform="matrix(13.9,0,0,13.9,262.2,1168.2)" />
<use xlink:href="#f0_1o" transform="matrix(13.9,0,0,13.9,269.3,1168.2)" />
<use xlink:href="#f0_c" transform="matrix(13.9,0,0,13.9,278.8,1168.2)" />
<use xlink:href="#f0_22" transform="matrix(13.9,0,0,13.9,285.9,1168.2)" />
<use xlink:href="#f0_1k" transform="matrix(13.9,0,0,13.9,294.2,1168.2)" />
<use xlink:href="#f0_1v" transform="matrix(13.9,0,0,13.9,303.7,1168.2)" />
<use xlink:href="#f0_1o" transform="matrix(13.9,0,0,13.9,309.7,1168.2)" />
<use xlink:href="#f0_8" transform="matrix(13.9,0,0,13.9,324.5,1168.2)" />
<use xlink:href="#f0_13" transform="matrix(13.9,0,0,13.9,331.6,1168.2)" />
<use xlink:href="#f0_24" transform="matrix(13.9,0,0,13.9,340,1168.2)" />
<use xlink:href="#f0_1v" transform="matrix(13.9,0,0,13.9,350.7,1168.2)" />
<use xlink:href="#f0_28" transform="matrix(13.9,0,0,13.9,356.6,1168.2)" />
<use xlink:href="#f0_g" transform="matrix(13.9,0,0,13.9,372.7,1168.2)" />
<use xlink:href="#f0_22" transform="matrix(13.9,0,0,13.9,383.4,1168.2)" />
<use xlink:href="#f0_23" transform="matrix(13.9,0,0,13.9,391.7,1168.2)" />
<use xlink:href="#f0_2c" transform="matrix(13.9,0,0,13.9,403,1168.2)" />
<use xlink:href="#f0_u" transform="matrix(13.9,0,0,13.9,419,1168.2)" />
<use xlink:href="#f0_24" transform="matrix(13.9,0,0,13.9,434.4,1168.2)" />
<use xlink:href="#f0_1q" transform="matrix(13.9,0,0,13.9,445.1,1168.2)" />
<use xlink:href="#f0_24" transform="matrix(13.9,0,0,13.9,455.9,1168.2)" />
<use xlink:href="#f0_22" transform="matrix(13.9,0,0,13.9,466.6,1168.2)" />
<use xlink:href="#f0_23" transform="matrix(13.9,0,0,13.9,474.9,1168.2)" />
<use xlink:href="#f0_g" transform="matrix(13.9,0,0,13.9,486.2,1168.2)" />
<use xlink:href="#f0_22" transform="matrix(13.9,0,0,13.9,496.9,1168.2)" />
<use xlink:href="#f0_23" transform="matrix(13.9,0,0,13.9,505.2,1168.2)" />
<use xlink:href="#f0_9" transform="matrix(13.9,0,0,13.9,511.1,1168.2)" />
</g>
</g>
<defs>
<path d="M33,0V27c0,0,264,241,371,393c0,0,108,152,108,278c0,0,0,96,-59,158c0,0,-59,62,-141,62c0,0,-75,0,-134,-43c0,0,-59,-44,-88,-128H63c0,0,18,138,95,212c0,0,77,74,193,74c0,0,123,0,205,-80c0,0,83,-79,83,-186c0,0,0,-77,-36,-154c0,0,-55,-121,-179,-256C424,357,238,154,191,112H455c0,0,81,0,114,6c0,0,32,6,58,25c0,0,27,18,46,52h27L630,0Z" 
id="f0_h"
transform="scale(0.001,-0.001)" />

<path d="M244,0V27h34c0,0,44,0,71,16c0,0,19,11,30,36c0,0,8,18,8,94V953H314c0,0,-103,0,-149,-43c0,0,-66,-60,-83,-172H55v274H965V738H938c0,0,-24,95,-53,136c0,0,-29,41,-80,66c0,0,-28,13,-99,13H631V173c0,0,0,-78,8,-97c0,0,9,-20,34,-34c0,0,25,-15,68,-15h33V0Z" 
id="f1_15"
transform="scale(0.001,-0.001)" />

<path d="M350,115c0,0,37,0,86,42V391c0,0,-90,-53,-134,-113c0,0,-29,-41,-29,-82c0,0,0,-34,24,-60c0,0,19,-21,53,-21ZM207,-9c0,0,-59,0,-99,38c0,0,-40,40,-40,99c0,0,0,80,69,143c0,0,69,64,299,170v70c0,0,0,79,-8,100c0,0,-9,20,-33,36c0,0,-23,15,-53,15c0,0,-49,0,-80,-22c0,0,-19,-13,-19,-31c0,0,0,-16,21,-39c0,0,28,-32,28,-62c0,0,0,-36,-27,-62c0,0,-27,-26,-71,-26c0,0,-47,0,-79,29c0,0,-32,28,-32,66c0,0,0,54,43,103c0,0,42,48,118,75c0,0,76,26,158,26c0,0,99,0,157,-42c0,0,58,-43,75,-92c0,0,11,-31,11,-144V170c0,0,0,-47,3,-60c0,0,4,-12,11,-18c0,0,8,-6,18,-6c0,0,19,0,39,28L738,96c0,0,-37,-56,-77,-81c0,0,-40,-24,-90,-24c0,0,-60,0,-94,27c0,0,-33,28,-41,85C436,103,309,-9,207,-9Z" 
id="f1_1a"
transform="scale(0.001,-0.001)" />

<path d="M434,31c0,0,38,0,65,22c0,0,28,22,46,86c0,0,18,64,18,231c0,0,0,161,-40,220c0,0,-29,44,-78,44c0,0,-64,0,-123,-73V251c0,0,0,-95,4,-121c0,0,8,-44,36,-71c0,0,28,-28,72,-28ZM115,-20V867c0,0,0,61,-5,75c0,0,-7,21,-23,31c0,0,-17,10,-55,12v27H322V628c0,0,88,91,192,91c0,0,72,0,135,-42c0,0,64,-43,99,-120c0,0,36,-78,36,-179c0,0,0,-114,-45,-208C739,170,693,77,617,28c0,0,-76,-48,-174,-48c0,0,-56,0,-100,18c0,0,-44,17,-87,57L141,-20Z" 
id="f1_1b"
transform="scale(0.001,-0.001)" />

<path d="M32,0V26c0,0,46,2,69,27c0,0,14,18,14,92V867c0,0,0,74,-17,94c0,0,-17,21,-66,24v27H325V145c0,0,0,-74,17,-95c0,0,17,-21,68,-24V0Z" 
id="f1_1l"
transform="scale(0.001,-0.001)" />

<path d="M458,424c0,0,0,120,-13,165c0,0,-13,44,-40,67c0,0,-16,14,-42,14c0,0,-39,0,-63,-38c0,0,-44,-66,-44,-182V424ZM358,-20c0,0,-155,0,-235,119c0,0,-64,96,-64,239c0,0,0,174,94,277c0,0,94,104,221,104c0,0,106,0,184,-87c0,0,78,-87,84,-257H259c0,0,7,-139,74,-220c0,0,51,-62,124,-62c0,0,45,0,81,25c0,0,37,25,79,90l25,-16C642,192,585,76,517,28c0,0,-69,-48,-159,-48Z" 
id="f1_1e"
transform="scale(0.001,-0.001)" />

<path d="M381,31c0,0,33,0,56,19c0,0,29,25,38,71c0,0,15,71,15,286c0,0,0,127,-14,174c0,0,-14,48,-42,69c0,0,-19,16,-50,16c0,0,-38,0,-65,-29c0,0,-27,-29,-36,-113c0,0,-8,-85,-8,-235c0,0,0,-80,10,-150c0,0,8,-53,35,-80c0,0,27,-28,61,-28Zm2,-51c0,0,-157,0,-242,110c0,0,-85,110,-85,256c0,0,0,150,87,261c0,0,86,112,238,112c0,0,90,0,169,-47c0,0,78,-47,119,-134c0,0,40,-86,40,-189c0,0,0,-149,-75,-249c0,0,-91,-120,-251,-120Z" 
id="f1_1o"
transform="scale(0.001,-0.001)" />

<path d="M49,0V26c0,0,47,1,67,11c0,0,20,10,28,28c0,0,7,18,7,75l-1,484H49v73H150v87c0,0,0,107,79,179c0,0,78,71,212,71c0,0,92,0,136,-34c0,0,45,-34,45,-76c0,0,0,-34,-28,-58c0,0,-28,-25,-73,-25c0,0,-39,0,-62,20c0,0,-22,20,-22,45c0,0,0,6,4,27c0,0,3,13,3,24c0,0,0,16,-9,23c0,0,-12,11,-29,11c0,0,-21,0,-36,-17c0,0,-15,-18,-15,-58l1,-130V697H460V624H356l1,-484c0,0,0,-70,15,-88c0,0,22,-26,81,-26c2,0,5,0,7,0V0Z" 
id="f1_1f"
transform="scale(0.001,-0.001)" />

<path d="M610,-21c0,0,-162,0,-287,63c0,0,-126,65,-194,187c0,0,-68,121,-68,258c0,0,0,145,75,275c0,0,76,129,205,201c0,0,128,71,273,71c0,0,107,0,225,-46c0,0,69,-27,88,-27c0,0,24,0,41,18c0,0,18,17,23,55h29V683H991c0,0,-33,138,-122,211c0,0,-90,73,-203,73c0,0,-95,0,-174,-54c0,0,-79,-55,-116,-143c0,0,-47,-112,-47,-250c0,0,0,-135,34,-247c0,0,35,-111,108,-168c0,0,73,-57,189,-57c0,0,96,0,175,42c0,0,80,41,168,144V146c0,0,-85,-89,-178,-129c0,0,-92,-38,-215,-38Z" 
id="f1_p"
transform="scale(0.001,-0.001)" />

<path d="M52,0V26c0,0,44,5,62,29c0,0,13,16,13,97V546c0,0,0,79,-14,98c0,0,-15,20,-61,26v27H336V607c0,0,54,59,104,85c0,0,49,27,106,27c0,0,68,0,113,-38c0,0,44,-38,59,-94c0,0,12,-42,12,-163V152c0,0,0,-81,15,-101c0,0,14,-19,61,-25V0H452V26c0,0,40,6,57,33c0,0,12,19,12,93V462c0,0,0,86,-7,109c0,0,-6,22,-22,35c0,0,-16,12,-36,12c0,0,-64,0,-120,-92V152c0,0,0,-79,15,-100c0,0,15,-20,55,-26V0Z" 
id="f1_1n"
transform="scale(0.001,-0.001)" />

<path d="M298,-9c0,0,-67,0,-113,36c0,0,-46,37,-58,83c0,0,-8,25,-8,137V624H28v26c0,0,94,66,161,139c0,0,66,73,115,163h25V697H494V624H329V193c0,0,0,-60,5,-78c0,0,6,-17,20,-28c0,0,14,-11,26,-11c0,0,48,0,92,75l22,-17C494,134,434,-9,298,-9Z" 
id="f1_1t"
transform="scale(0.001,-0.001)" />

<path d="M312,-20c0,0,-50,0,-134,30c0,0,-22,9,-30,9c0,0,-25,0,-41,-37H82L70,232H97c0,0,33,-99,91,-148c0,0,59,-49,111,-49c0,0,35,0,58,22c0,0,22,22,22,54c0,0,0,35,-22,61c0,0,-22,27,-100,80c0,0,-114,79,-147,120c0,0,-49,62,-49,136c0,0,0,80,55,145c0,0,56,66,161,66c0,0,56,0,109,-28c0,0,20,-11,33,-11c0,0,13,0,21,5c0,0,9,6,27,32h26L504,479H477c0,0,-45,106,-94,145c0,0,-48,39,-96,39c0,0,-31,0,-52,-21c0,0,-22,-20,-22,-47c0,0,0,-20,15,-39c0,0,24,-30,133,-105c0,0,110,-74,144,-126c0,0,35,-52,35,-116c0,0,0,-58,-29,-114C511,95,482,39,429,9c0,0,-53,-29,-117,-29Z" 
id="f1_1s"
transform="scale(0.001,-0.001)" />

<path d="M114,0V27h27c0,0,65,0,93,15c0,0,27,15,37,41c0,0,10,27,10,122V729c0,0,0,71,-7,89c0,0,-7,17,-25,30c0,0,-18,12,-42,12c0,0,-38,0,-93,-24l-13,26l372,171h25V205c0,0,0,-93,8,-119c0,0,8,-26,34,-42c0,0,27,-17,84,-17h23V0Z" 
id="f1_c"
transform="scale(0.001,-0.001)" />

<path d="M191,-18c0,0,-51,0,-87,36c0,0,-37,36,-37,87c0,0,0,52,37,88c0,0,36,37,87,37c0,0,52,0,89,-37c0,0,36,-36,36,-88c0,0,0,-51,-37,-87c0,0,-36,-36,-88,-36Z" 
id="f1_9"
transform="scale(0.001,-0.001)" />

<path d="M29,0V27H63c0,0,44,0,71,16c0,0,19,11,30,36c0,0,8,18,8,94V839c0,0,0,69,-4,84c0,0,-7,27,-27,41c0,0,-29,21,-78,21H29v27H877V713H850c0,0,-22,109,-61,157c0,0,-39,48,-111,70c0,0,-42,13,-158,13H416V542h20c0,0,97,0,140,60c0,0,44,60,56,178h27V251H632c0,0,-9,87,-38,142c0,0,-29,55,-67,74c0,0,-39,19,-111,19V201c0,0,0,-84,7,-103c0,0,7,-18,26,-30c0,0,20,-12,63,-12h60c0,0,142,0,228,65c0,0,86,66,123,201h28L905,0Z" 
id="f1_r"
transform="scale(0.001,-0.001)" />

<path d="M34,0V26c0,0,51,0,93,28c0,0,42,28,123,147l58,85L188,509c0,0,-59,109,-88,133c0,0,-29,25,-65,28v27H419V669L362,656c0,0,-6,-6,-6,-18c0,0,0,-11,4,-23c0,0,2,-5,20,-40L435,473l27,41c0,0,60,82,60,115c0,0,0,15,-13,26c0,0,-13,11,-47,15v27H710V670c0,0,-46,-2,-85,-28c0,0,-40,-27,-89,-103L460,427L584,198c0,0,62,-121,99,-153c0,0,20,-17,55,-19V0H349V26c0,0,46,4,57,12c0,0,11,9,11,23c0,0,0,21,-24,66L332,240L281,165c0,0,-35,-52,-39,-62c0,0,-6,-14,-6,-25c0,0,0,-17,7,-29c0,0,7,-11,19,-17c0,0,13,-6,45,-6V0Z" 
id="f1_1x"
transform="scale(0.001,-0.001)" />

<path d="M365,-20c0,0,-139,0,-223,105c0,0,-83,105,-83,253c0,0,0,142,76,250c0,0,92,131,253,131c0,0,108,0,172,-55c0,0,63,-54,63,-121c0,0,0,-43,-25,-68c0,0,-26,-25,-68,-25c0,0,-44,0,-73,29c0,0,-28,29,-35,104c0,0,-5,47,-22,65c0,0,-17,19,-40,19c0,0,-36,0,-61,-38c0,0,-39,-58,-39,-176c0,0,0,-99,31,-188c0,0,32,-90,86,-134c0,0,41,-32,97,-32c0,0,36,0,69,17c0,0,33,17,78,65l23,-18C644,163,595,70,521,25c0,0,-73,-45,-156,-45Z" 
id="f1_1c"
transform="scale(0.001,-0.001)" />

<path d="M304,-20c0,0,-59,0,-105,36c0,0,-45,36,-61,84c0,0,-16,49,-16,169V546c0,0,0,79,-14,98c0,0,-15,20,-61,26v27H331V221c0,0,0,-74,8,-96c0,0,7,-21,22,-33c0,0,15,-11,35,-11c0,0,27,0,49,14c0,0,30,20,71,78V546c0,0,0,79,-14,98c0,0,-15,20,-61,26v27H726V152c0,0,0,-81,14,-100c0,0,15,-20,61,-26V0H516V93C516,93,466,34,416,7c0,0,-50,-27,-112,-27Z" 
id="f1_1u"
transform="scale(0.001,-0.001)" />

<path d="M32,0V26c0,0,46,2,69,27c0,0,14,18,14,92V551c0,0,0,75,-17,95c0,0,-17,21,-66,24v27H325V145c0,0,0,-74,17,-95c0,0,17,-21,68,-24V0ZM220,804c0,0,-48,0,-82,33c0,0,-33,34,-33,82c0,0,0,48,33,82c0,0,34,33,82,33c0,0,48,0,82,-33c0,0,33,-34,33,-82c0,0,0,-48,-34,-82c0,0,-34,-33,-81,-33Z" 
id="f1_1i"
transform="scale(0.001,-0.001)" />

<path d="M367,-20L133,520c0,0,-43,98,-67,124c0,0,-17,19,-50,26v27H386V670c0,0,-35,0,-48,-13c0,0,-18,-16,-18,-39c0,0,0,-27,33,-103L468,253l91,226c0,0,40,97,40,137c0,0,0,23,-17,38c0,0,-17,14,-59,16v27H750V670c0,0,-33,-5,-54,-25c0,0,-20,-20,-62,-118L402,-20Z" 
id="f1_1v"
transform="scale(0.001,-0.001)" />

<path d="M78,-22V359h28c0,0,32,-161,126,-246c0,0,94,-85,202,-85c0,0,84,0,133,46c0,0,50,45,50,106c0,0,0,36,-19,69c0,0,-19,34,-58,64c0,0,-39,30,-138,79c0,0,-138,68,-198,115c0,0,-60,48,-92,107c0,0,-33,59,-33,130c0,0,0,120,89,205c0,0,89,85,224,85c0,0,49,0,96,-11c0,0,35,-9,85,-34c0,0,51,-24,71,-24c0,0,19,0,30,12c0,0,12,12,21,57h23l8,-337H695c0,0,-21,127,-106,204c0,0,-85,78,-184,78c0,0,-76,0,-121,-41c0,0,-44,-41,-44,-94c0,0,0,-33,15,-59c0,0,22,-35,70,-70c0,0,35,-24,162,-87c0,0,178,-87,240,-165c0,0,61,-77,61,-177c0,0,0,-127,-99,-218c0,0,-99,-90,-251,-90c0,0,-48,0,-90,9c0,0,-43,10,-107,36c0,0,-36,15,-59,15c0,0,-20,0,-41,-15c0,0,-22,-15,-35,-45Z" 
id="f1_14"
transform="scale(0.001,-0.001)" />

<path d="M56,0V26c0,0,44,5,63,29c0,0,13,16,13,97V546c0,0,0,79,-15,98c0,0,-14,20,-61,26v27H341V606c0,0,57,63,106,88c0,0,49,25,108,25c0,0,67,0,112,-32c0,0,46,-31,71,-95c0,0,59,67,114,97c0,0,55,30,115,30c0,0,72,0,115,-34c0,0,43,-33,60,-84c0,0,16,-51,16,-163V152c0,0,0,-81,15,-100c0,0,14,-20,61,-26V0H873V26c0,0,42,4,63,33c0,0,13,20,13,93V452c0,0,0,93,-7,119c0,0,-8,25,-24,38c0,0,-16,12,-37,12c0,0,-32,0,-65,-24c0,0,-33,-23,-66,-70V152c0,0,0,-76,12,-95c0,0,17,-28,66,-31V0H466V26c0,0,29,2,46,15c0,0,17,13,23,31c0,0,5,18,5,80V452c0,0,0,95,-7,119c0,0,-8,24,-25,37c0,0,-18,14,-38,14c0,0,-30,0,-54,-16c0,0,-35,-23,-75,-79V152c0,0,0,-74,14,-98c0,0,15,-23,61,-28V0Z" 
id="f1_1m"
transform="scale(0.001,-0.001)" />

<path d="M57,0V26c0,0,45,4,61,25c0,0,16,22,16,113V550c0,0,0,59,-6,76c0,0,-7,21,-22,30c0,0,-14,10,-49,14v27H342l1,-158c0,0,69,109,121,144c0,0,52,36,100,36c0,0,42,0,66,-26c0,0,25,-26,25,-73c0,0,0,-50,-24,-77c0,0,-25,-28,-59,-28c0,0,-39,0,-68,25c0,0,-28,26,-33,29c0,0,-8,4,-17,4c0,0,-22,0,-41,-16c0,0,-31,-26,-46,-73c0,0,-24,-72,-24,-159V122c0,0,0,-42,5,-54c0,0,9,-21,27,-30c0,0,17,-9,59,-12V0Z" 
id="f1_1r"
transform="scale(0.001,-0.001)" />

<path d="M182,-328c0,0,-62,0,-101,35c0,0,-38,35,-38,85c0,0,0,44,26,72c0,0,27,28,66,28c0,0,37,0,60,-23c0,0,22,-24,23,-74c0,0,1,-29,7,-37c0,0,6,-8,17,-8c0,0,18,0,38,21c0,0,30,32,70,144l22,57L146,488c0,0,-50,118,-74,144c0,0,-25,27,-59,38v27H384V670c0,0,-36,-2,-51,-14c0,0,-15,-13,-15,-31c0,0,0,-28,37,-112L475,239l81,212c0,0,44,113,44,157c0,0,0,27,-18,44c0,0,-18,16,-65,18v27H750V670c0,0,-34,-4,-56,-27c0,0,-22,-22,-72,-155L422,-27c0,0,-75,-194,-111,-239c0,0,-52,-62,-129,-62Z" 
id="f1_1y"
transform="scale(0.001,-0.001)" />

<path d="M197,0V27c0,0,71,2,92,13c0,0,21,10,29,29c0,0,9,18,9,109V725c0,0,0,110,-8,141c0,0,-5,24,-19,35c0,0,-14,11,-33,11c0,0,-28,0,-77,-23l-11,23l246,121h25V178c0,0,0,-85,7,-106c0,0,7,-21,29,-32c0,0,23,-11,91,-13V0Z" 
id="f0_g"
transform="scale(0.001,-0.001)" />

<path d="M191,-20c0,0,-34,0,-58,24c0,0,-24,24,-24,58c0,0,0,35,24,59c0,0,24,24,58,24c0,0,35,0,59,-24c0,0,24,-25,24,-59c0,0,0,-34,-24,-58c0,0,-25,-24,-59,-24Z" 
id="f0_d"
transform="scale(0.001,-0.001)" />

<path d="M474,-21L174,817c0,0,-34,94,-42,112c0,0,-15,28,-41,42c0,0,-26,14,-70,14v27H395V985H377c0,0,-40,0,-60,-18c0,0,-21,-18,-21,-44c0,0,0,-26,33,-120L528,235L696,718l-30,85l-24,68c0,0,-16,37,-35,66c0,0,-10,14,-24,24c0,0,-19,13,-38,19c0,0,-14,5,-44,5v27H894V985H867c0,0,-41,0,-61,-18c0,0,-19,-18,-19,-49c0,0,0,-38,33,-133L1015,235l193,557c0,0,32,93,32,129c0,0,0,17,-10,32c0,0,-11,15,-28,21c0,0,-28,11,-74,11v27h302V985c0,0,-39,0,-64,-15c0,0,-25,-14,-47,-53c0,0,-15,-26,-47,-124L990,-21H960L729,624L501,-21Z" 
id="f0_1g"
transform="scale(0.001,-0.001)" />

<path d="M20,0V26c0,0,45,0,71,15c0,0,15,7,24,28c0,0,9,21,9,85V773c0,0,0,117,-5,144c0,0,-6,27,-17,37c0,0,-12,9,-31,9c0,0,-16,0,-51,-12L10,978l204,83h34V561c0,0,83,91,131,116c0,0,49,26,97,26c0,0,58,0,100,-32c0,0,42,-32,62,-101c0,0,14,-47,14,-174V154c0,0,0,-65,11,-89c0,0,7,-18,25,-28c0,0,18,-11,66,-11V0H418V26h15c0,0,48,0,67,15c0,0,18,15,26,43c0,0,2,12,2,70V396c0,0,0,112,-12,147c0,0,-11,35,-36,53c0,0,-26,17,-61,17c0,0,-37,0,-76,-19c0,0,-40,-20,-95,-79V154c0,0,0,-70,8,-87c0,0,8,-17,29,-29c0,0,22,-12,74,-12V0Z" 
id="f0_1r"
transform="scale(0.001,-0.001)" />

<path d="M406,32c0,0,72,0,119,60c0,0,47,59,47,205c0,0,0,181,-78,286c0,0,-53,71,-135,71c0,0,-40,0,-79,-23c0,0,-40,-24,-65,-83c0,0,-24,-58,-24,-151c0,0,0,-149,59,-257c0,0,59,-108,156,-108ZM374,-20c0,0,-154,0,-245,122c0,0,-77,104,-77,233c0,0,0,94,46,187c0,0,47,92,123,137c0,0,76,44,161,44c0,0,155,0,249,-118c0,0,80,-100,80,-231c0,0,0,-91,-44,-185C667,169,623,75,546,27c0,0,-77,-47,-172,-47Z" 
id="f0_1y"
transform="scale(0.001,-0.001)" />

<path d="M286,72c0,0,57,0,149,75V407c0,0,-113,-45,-145,-64c0,0,-59,-32,-85,-68c0,0,-25,-36,-25,-78c0,0,0,-54,32,-89c0,0,32,-36,74,-36ZM217,-13c0,0,-71,0,-116,48c0,0,-46,48,-46,127c0,0,0,50,22,87c0,0,31,50,106,95c0,0,76,45,252,109v26c0,0,0,102,-32,140c0,0,-32,38,-94,38c0,0,-47,0,-74,-25c0,0,-28,-25,-28,-58l1,-43c0,0,0,-34,-17,-53c0,0,-18,-18,-47,-18c0,0,-28,0,-45,19c0,0,-18,19,-18,53c0,0,0,64,66,117c0,0,65,54,184,54c0,0,91,0,149,-31c0,0,44,-23,65,-72c0,0,13,-32,13,-131V238c0,0,0,-98,4,-120c0,0,4,-22,12,-29c0,0,9,-8,20,-8c0,0,12,0,21,5c0,0,16,10,61,55V99C676,99,592,-12,516,-12c0,0,-37,0,-58,24c0,0,-22,26,-23,86C435,98,330,17,303,5c0,0,-40,-18,-86,-18Z" 
id="f0_1k"
transform="scale(0.001,-0.001)" />

<path d="M17,0V26c0,0,52,0,77,17c0,0,19,12,26,38c0,0,4,13,4,73V419c0,0,0,119,-5,142c0,0,-4,23,-17,33c0,0,-13,11,-33,11c0,0,-23,0,-52,-11l-7,26l207,83h31V549c0,0,86,154,176,154c0,0,41,0,68,-25c0,0,27,-25,27,-58c0,0,0,-29,-20,-49c0,0,-19,-20,-46,-20c0,0,-26,0,-58,25c0,0,-33,26,-48,26c0,0,-14,0,-29,-15c0,0,-34,-30,-70,-101V159c0,0,0,-56,15,-85c0,0,9,-20,34,-34c0,0,24,-14,71,-14V0Z" 
id="f0_21"
transform="scale(0.001,-0.001)" />

<path d="M479,469c0,0,-4,66,-16,93c0,0,-18,42,-55,65c0,0,-37,24,-78,24c0,0,-62,0,-111,-48c0,0,-48,-48,-57,-134ZM355,-20c0,0,-123,0,-211,95c0,0,-87,96,-87,258c0,0,0,175,90,273c0,0,89,98,225,98c0,0,115,0,189,-76c0,0,74,-75,74,-202H162c0,0,0,-152,74,-239c0,0,75,-86,175,-86c0,0,67,0,117,36c0,0,50,37,83,127l24,-15c0,0,-16,-102,-91,-186c0,0,-76,-83,-189,-83Z" 
id="f0_1o"
transform="scale(0.001,-0.001)" />

<path d="M336,-20L117,554c0,0,-21,55,-42,74c0,0,-21,19,-66,29v26H296V657c0,0,-40,-3,-52,-14c0,0,-13,-12,-13,-33c0,0,0,-23,13,-56L390,162L537,481L498,581c0,0,-18,46,-47,63c0,0,-17,11,-61,13v26H716V657c0,0,-54,-2,-77,-20c0,0,-15,-12,-15,-39c0,0,0,-15,6,-30L785,177L929,554c0,0,15,40,15,65c0,0,0,14,-15,25c0,0,-14,12,-57,13v26h216V657c0,0,-65,-10,-95,-89L764,-20H733L563,415L363,-20Z" 
id="f0_26"
transform="scale(0.001,-0.001)" />

<path d="M328,-20c0,0,-34,0,-58,24c0,0,-25,24,-25,58c0,0,0,35,25,59c0,0,24,24,58,24c0,0,34,0,59,-24c0,0,24,-24,24,-59c0,0,0,-34,-25,-58c0,0,-24,-24,-58,-24ZM308,238c0,0,5,94,23,155c0,0,18,62,76,172c0,0,44,84,58,129c0,0,13,46,13,92c0,0,0,95,-50,150c0,0,-50,56,-123,56c0,0,-65,0,-102,-30c0,0,-38,-31,-38,-67c0,0,0,-27,23,-67c0,0,22,-41,22,-62c0,0,0,-26,-17,-45c0,0,-17,-18,-42,-18c0,0,-31,0,-57,31c0,0,-26,31,-26,86c0,0,0,85,73,150c0,0,72,64,196,64c0,0,153,0,225,-89c0,0,54,-66,54,-146c0,0,0,-54,-24,-112c0,0,-25,-57,-92,-135C500,552,391,430,367,378c0,0,-24,-51,-29,-140Z" 
id="f0_s"
transform="scale(0.001,-0.001)" />

<path d="M26,0V27H62c0,0,63,0,91,37c0,0,18,24,18,115V833c0,0,0,77,-10,102c0,0,-7,18,-30,32c0,0,-33,18,-69,18H26v27H459V985H422c0,0,-35,0,-67,-17c0,0,-23,-12,-32,-36c0,0,-9,-25,-9,-99V542H784V833c0,0,0,77,-10,102c0,0,-8,18,-31,32c0,0,-33,18,-68,18H639v27h432V985h-36c0,0,-36,0,-68,-17c0,0,-24,-12,-32,-36c0,0,-9,-25,-9,-99V179c0,0,0,-77,10,-102c0,0,7,-18,31,-32c0,0,32,-18,68,-18h36V0H639V27h36c0,0,62,0,90,37c0,0,19,24,19,115V487H314V179c0,0,0,-77,9,-102c0,0,8,-18,32,-32c0,0,32,-18,67,-18h37V0Z" 
id="f0_11"
transform="scale(0.001,-0.001)" />

<path d="M399,62c0,0,68,0,131,68V481c0,0,-5,51,-27,93c0,0,-22,42,-59,63c0,0,-37,21,-72,21c0,0,-65,0,-117,-59c0,0,-67,-77,-67,-226c0,0,0,-151,65,-231c0,0,66,-80,146,-80ZM330,-20c0,0,-112,0,-196,93c0,0,-83,94,-83,240c0,0,0,147,92,269c0,0,93,122,238,122c0,0,90,0,149,-58V773c0,0,0,117,-6,144c0,0,-5,27,-17,37c0,0,-12,9,-30,9c0,0,-20,0,-52,-12l-9,27l204,83h33V270c0,0,0,-120,6,-146c0,0,5,-27,18,-37c0,0,12,-11,28,-11c0,0,21,0,54,13l9,-26L564,-20H530V78C530,78,480,25,432,2c0,0,-47,-22,-102,-22Z" 
id="f0_1n"
transform="scale(0.001,-0.001)" />

<path d="M255,-10c0,0,-35,0,-68,18c0,0,-32,19,-48,55c0,0,-16,35,-16,109V632H15v24c0,0,41,16,84,56c0,0,43,39,77,92c0,0,17,29,48,104h23V683H407V632H247V188c0,0,0,-66,19,-90c0,0,19,-23,49,-23c0,0,24,0,47,16c0,0,23,15,36,45h29c0,0,-26,-73,-74,-110c0,0,-47,-36,-98,-36Z" 
id="f0_23"
transform="scale(0.001,-0.001)" />

<path d="M55,0V26c0,0,50,0,67,10c0,0,17,10,27,32c0,0,10,23,10,86V418c0,0,0,111,-6,144c0,0,-6,24,-17,33c0,0,-11,10,-30,10c0,0,-21,0,-51,-11L45,620l206,83h33V154c0,0,0,-64,9,-85c0,0,9,-22,27,-32c0,0,19,-11,67,-11V0ZM222,909c0,0,-32,0,-54,23c0,0,-22,22,-22,53c0,0,0,32,22,54c0,0,22,22,54,22c0,0,31,0,53,-22c0,0,22,-22,22,-54c0,0,0,-31,-22,-53c0,0,-22,-23,-53,-23Z" 
id="f0_1s"
transform="scale(0.001,-0.001)" />

<path d="M312,-20c0,0,-62,0,-143,22c0,0,-25,8,-40,8c0,0,-18,0,-27,-19H77V234h25c0,0,21,-105,80,-158c0,0,59,-53,132,-53c0,0,51,0,84,31c0,0,32,30,32,72c0,0,0,52,-36,87c0,0,-36,35,-144,88c0,0,-109,54,-142,97c0,0,-34,43,-34,107c0,0,0,85,58,141c0,0,58,57,150,57c0,0,40,0,97,-17c0,0,38,-11,51,-11c0,0,12,0,19,5c0,0,7,5,15,23h25V470H464c0,0,-28,110,-72,149c0,0,-45,40,-113,40c0,0,-53,0,-85,-28c0,0,-32,-27,-32,-61c0,0,0,-41,24,-71c0,0,23,-31,94,-65L389,381c0,0,152,-74,152,-194c0,0,0,-94,-71,-151c0,0,-70,-56,-158,-56Z" 
id="f0_22"
transform="scale(0.001,-0.001)" />

<path d="M238,-17c0,0,-103,0,-139,25C99,8,62,33,62,62c0,0,0,22,17,38c0,0,18,16,42,16c0,0,19,0,38,-6c0,0,13,-3,58,-27c0,0,45,-23,62,-28c0,0,27,-8,59,-8c0,0,76,0,132,59c0,0,56,59,56,140c0,0,0,59,-26,115c0,0,-19,41,-42,63c0,0,-32,30,-88,54c0,0,-56,25,-114,25H232v22c0,0,59,8,118,42c0,0,59,35,86,85c0,0,27,49,27,108c0,0,0,76,-48,124c0,0,-48,47,-120,47c0,0,-116,0,-193,-124L77,819c0,0,44,102,110,158c0,0,66,56,164,56c0,0,122,0,187,-80c0,0,49,-58,49,-126c0,0,0,-110,-139,-228c0,0,93,-36,141,-104c0,0,48,-68,48,-160c0,0,0,-131,-84,-227C553,108,444,-17,238,-17Z" 
id="f0_i"
transform="scale(0.001,-0.001)" />

<path d="M21,0V26H35c0,0,53,0,71,27c0,0,18,27,18,101V408c0,0,0,123,-5,150c0,0,-6,27,-17,37c0,0,-12,10,-31,10c0,0,-21,0,-50,-11L10,620l206,83h32V558c0,0,120,145,229,145c0,0,56,0,96,-28c0,0,40,-28,64,-92c0,0,16,-45,16,-137V154c0,0,0,-65,11,-88c0,0,8,-19,26,-29c0,0,18,-11,68,-11V0H419V26h14c0,0,47,0,66,15c0,0,20,15,27,43c0,0,3,11,3,70V434c0,0,0,93,-24,135c0,0,-24,42,-81,42c0,0,-88,0,-176,-97V154c0,0,0,-69,9,-86c0,0,10,-21,28,-31c0,0,19,-11,75,-11V0Z" 
id="f0_1x"
transform="scale(0.001,-0.001)" />

<path d="M441,0V26c0,0,28,1,38,9c0,0,10,8,10,22c0,0,0,17,-29,56L250,381L424,540c0,0,55,50,64,64c0,0,6,9,6,18c0,0,0,15,-12,26c0,0,-13,11,-41,12v23H738V660c0,0,-62,-1,-102,-19c0,0,-41,-17,-89,-61L372,418L547,196c0,0,73,-92,98,-117c0,0,36,-35,63,-45c0,0,18,-8,65,-8V0ZM13,0V26c0,0,52,0,78,13c0,0,16,8,24,25c0,0,11,25,11,86V773c0,0,0,118,-5,145c0,0,-5,26,-17,36c0,0,-12,10,-32,10c0,0,-15,0,-47,-13L13,978l203,83h34V154c0,0,0,-67,10,-88c0,0,9,-21,26,-30c0,0,17,-9,75,-10V0Z" 
id="f0_1u"
transform="scale(0.001,-0.001)" />

<path d="M452,373V875L97,373ZM452,0V267H23v95l470,671h82V373H711V267H575V0Z" 
id="f0_j"
transform="scale(0.001,-0.001)" />

<path d="M398,24c0,0,74,0,120,58c0,0,61,76,61,214c0,0,0,156,-69,240c0,0,-47,59,-113,59c0,0,-36,0,-71,-18c0,0,-27,-14,-88,-81V242c0,0,0,-83,6,-109c0,0,11,-43,51,-76c0,0,41,-33,103,-33ZM-4,-326v27H15c5,0,42,0,69,16c0,0,14,8,22,26c0,0,7,19,7,94V481c0,0,0,67,-6,85c0,0,-5,18,-18,27c0,0,-13,9,-36,9c0,0,-18,0,-45,-10L0,615l209,85h29V540c0,0,53,91,106,127c0,0,53,36,112,36c0,0,103,0,172,-80c0,0,84,-99,84,-257c0,0,0,-176,-102,-292c0,0,-83,-94,-210,-94c0,0,-55,0,-95,16c0,0,-30,10,-67,44V-167c0,0,0,-71,8,-90c0,0,9,-20,30,-31c0,0,21,-11,77,-11v-27Z" 
id="f0_1z"
transform="scale(0.001,-0.001)" />

<path d="M145,-328c0,0,-44,0,-73,25c0,0,-28,25,-28,58c0,0,0,31,21,50c0,0,20,19,56,19c0,0,25,0,67,-16c0,0,30,-11,38,-11c0,0,22,0,49,23c0,0,26,23,53,89L376,28L131,542c0,0,-11,24,-36,58c0,0,-19,27,-30,36c0,0,-18,12,-56,21v26H328V657H312c0,0,-33,0,-50,-15c0,0,-17,-14,-17,-36c0,0,0,-30,25,-81L437,179L589,557c0,0,12,31,12,62c0,0,0,13,-5,20c0,0,-6,8,-19,13c0,0,-12,5,-44,5v26H754V657c0,0,-27,-3,-42,-12c0,0,-15,-9,-33,-34c0,0,-7,-10,-25,-58L376,-128c0,0,-40,-99,-105,-150c0,0,-66,-50,-126,-50Z" 
id="f0_28"
transform="scale(0.001,-0.001)" />

<path d="M63,0V26H93c0,0,30,0,54,15c0,0,25,15,34,41c0,0,10,25,10,99V630H58v53H191v45c0,0,0,102,33,173c0,0,32,71,100,114c0,0,68,44,152,44c0,0,79,0,145,-51c0,0,43,-33,43,-75c0,0,0,-22,-19,-42c0,0,-20,-20,-42,-20c0,0,-17,0,-36,12c0,0,-19,13,-47,53c0,0,-28,41,-51,55c0,0,-23,14,-51,14c0,0,-35,0,-58,-18c0,0,-24,-18,-35,-57c0,0,-10,-38,-10,-197V683H491V630H315V181c0,0,0,-96,21,-122c0,0,27,-33,73,-33h62V0Z" 
id="f0_1p"
transform="scale(0.001,-0.001)" />

<path d="M23,0V26c0,0,47,0,66,10c0,0,19,11,28,33c0,0,10,22,10,85V416c0,0,0,112,-7,145c0,0,-5,25,-16,34c0,0,-11,10,-31,10c0,0,-21,0,-50,-11L12,620l207,83h32V557c0,0,75,75,88,86c0,0,34,29,72,44c0,0,39,16,77,16c0,0,64,0,110,-37c0,0,47,-38,62,-109c0,0,77,90,130,118c0,0,53,28,109,28c0,0,54,0,96,-28c0,0,42,-28,67,-91c0,0,16,-43,16,-136V154c0,0,0,-64,10,-88c0,0,8,-16,28,-28c0,0,20,-12,65,-12V0H844V26h14c0,0,44,0,69,18c0,0,17,12,24,38c0,0,3,13,3,72V448c0,0,0,83,-20,117c0,0,-29,48,-93,48c0,0,-39,0,-79,-20c0,0,-40,-19,-97,-73l-1,-8l2,-32V154c0,0,0,-70,8,-87c0,0,7,-17,29,-29c0,0,21,-12,73,-12V0H431V26c0,0,57,0,78,14c0,0,21,13,29,40c0,0,4,13,4,74V448c0,0,0,83,-25,120c0,0,-33,48,-91,48c0,0,-40,0,-80,-22c0,0,-61,-33,-95,-74V154c0,0,0,-67,10,-87c0,0,9,-20,27,-30c0,0,18,-11,74,-11V0Z" 
id="f0_1w"
transform="scale(0.001,-0.001)" />

<path d="M342,-20c0,0,-116,0,-203,97c0,0,-86,98,-86,264c0,0,0,161,96,261c0,0,95,101,230,101c0,0,100,0,165,-53c0,0,65,-54,65,-111c0,0,0,-29,-18,-46c0,0,-18,-18,-51,-18c0,0,-44,0,-66,29c0,0,-13,15,-17,59c0,0,-4,45,-30,68c0,0,-26,22,-73,22c0,0,-74,0,-120,-55c0,0,-60,-73,-60,-193c0,0,0,-122,60,-216c0,0,60,-93,162,-93c0,0,73,0,131,49c0,0,41,35,80,126l22,-10C629,261,601,125,521,52c0,0,-81,-72,-179,-72Z" 
id="f0_1m"
transform="scale(0.001,-0.001)" />

<path d="M247,-17c0,0,-91,0,-132,30c0,0,-42,31,-42,68c0,0,0,21,17,37c0,0,18,16,44,17c0,0,19,0,34,-6c0,0,14,-7,49,-31c0,0,56,-39,113,-39c0,0,88,0,154,66c0,0,66,66,66,161c0,0,0,92,-59,171c0,0,-59,80,-163,123c0,0,-81,34,-221,39l194,393H663L605,885H301L234,750c0,0,198,-29,313,-147c0,0,100,-102,100,-239c0,0,0,-80,-33,-148c0,0,-32,-68,-81,-116c0,0,-50,-47,-110,-77c0,0,-86,-40,-176,-40Z" 
id="f0_k"
transform="scale(0.001,-0.001)" />

<path d="M435,502c0,0,78,0,134,60c0,0,57,60,57,155c0,0,0,66,-27,122c0,0,-27,56,-76,84c0,0,-50,28,-112,28c0,0,-38,0,-98,-14V517c0,0,39,-8,70,-12c0,0,31,-3,52,-3ZM25,0V27H63c0,0,65,0,92,42c0,0,15,23,15,110V833c0,0,0,96,-20,119c0,0,-29,33,-87,33H25v27H396c0,0,136,0,214,-28c0,0,78,-28,132,-94c0,0,54,-67,54,-158c0,0,0,-124,-82,-202c0,0,-82,-77,-231,-77c0,0,-36,0,-79,5c0,0,-43,5,-91,16V179c0,0,0,-96,21,-119c0,0,28,-33,85,-33h39V0Z" 
id="f0_19"
transform="scale(0.001,-0.001)" />

<path d="M397,34c0,0,67,0,126,75c0,0,58,74,58,216c0,0,0,131,-58,201c0,0,-59,70,-133,70c0,0,-39,0,-79,-20c0,0,-29,-14,-75,-59V109c0,0,37,-37,78,-56c0,0,40,-19,83,-19ZM358,-20c0,0,-59,0,-121,21c0,0,-61,22,-126,65V773c0,0,0,117,-5,144c0,0,-6,27,-18,37c0,0,-12,9,-29,9c0,0,-21,0,-53,-12l-9,27l205,83h34V564c0,0,98,139,213,139c0,0,105,0,183,-90c0,0,78,-90,78,-245c0,0,0,-182,-121,-293c0,0,-103,-95,-231,-95Z" 
id="f0_1l"
transform="scale(0.001,-0.001)" />

<path d="M58,0V26c0,0,47,0,64,10c0,0,18,10,28,32c0,0,9,23,9,86V775c0,0,0,116,-5,142c0,0,-5,27,-17,37c0,0,-11,9,-29,9c0,0,-20,0,-49,-12L46,978l204,83h34V154c0,0,0,-64,9,-85c0,0,9,-21,29,-32c0,0,19,-11,72,-11V0Z" 
id="f0_1v"
transform="scale(0.001,-0.001)" />

<path d="M400,67c0,0,47,0,91,18c0,0,44,19,119,80c0,0,-98,134,-136,196c0,0,-38,62,-84,154c0,0,-89,-51,-135,-113c0,0,-45,-62,-45,-135c0,0,0,-80,52,-140c0,0,51,-60,138,-60Zm95,565c0,0,92,44,138,100c0,0,46,56,46,124c0,0,0,54,-34,89c0,0,-33,35,-82,35c0,0,-65,0,-99,-45c0,0,-33,-45,-33,-89c0,0,0,-36,13,-81c0,0,13,-45,51,-133ZM324,-22c0,0,-124,0,-196,64c0,0,-72,66,-72,157c0,0,0,90,65,180c0,0,65,90,244,186c0,0,-35,78,-48,127c0,0,-13,50,-13,96c0,0,0,127,94,194c0,0,73,52,167,52c0,0,89,0,145,-52c0,0,56,-53,56,-130c0,0,0,-79,-54,-138c0,0,-55,-60,-192,-131c0,0,95,-169,198,-309c0,0,131,157,131,264c0,0,0,34,-23,61c0,0,-16,20,-47,24v28h313V623c0,0,-65,-5,-96,-29c0,0,-30,-23,-96,-142c0,0,-65,-119,-147,-221c0,0,66,-78,118,-109c0,0,52,-31,105,-31c0,0,52,0,88,28c0,0,36,28,50,82l28,-20c0,0,-28,-105,-89,-155c0,0,-61,-48,-142,-48c0,0,-61,0,-124,32c0,0,-63,33,-138,112C649,122,556,40,482,8c0,0,-74,-30,-158,-30Z" 
id="f0_6"
transform="scale(0.001,-0.001)" />

<path d="M545,30c0,0,143,0,236,111c0,0,93,111,93,351c0,0,0,259,-103,386c0,0,-82,102,-226,102c0,0,-136,0,-218,-101C327,879,225,754,225,512c0,0,0,-247,106,-380c0,0,81,-102,214,-102Zm2,-51c0,0,-209,0,-351,147C196,126,54,274,54,510c0,0,0,240,164,393c0,0,142,131,341,131c0,0,197,0,341,-149c0,0,145,-149,145,-373c0,0,0,-230,-146,-382C899,130,754,-21,547,-21Z" 
id="f0_18"
transform="scale(0.001,-0.001)" />

<path d="M292,-20c0,0,-57,0,-100,33c0,0,-42,33,-58,85c0,0,-17,52,-17,148V551c0,0,0,49,-10,68c0,0,-11,18,-31,29c0,0,-19,9,-68,9c-2,0,-4,0,-6,0v26H242V226c0,0,0,-95,33,-125c0,0,33,-30,80,-30c0,0,32,0,73,21c0,0,40,20,96,76V555c0,0,0,59,-21,80c0,0,-22,21,-89,22v26H647V269c0,0,0,-119,6,-145c0,0,6,-27,18,-37c0,0,12,-11,29,-11c0,0,23,0,52,13L763,63L558,-20H524V124C524,124,436,29,390,4c0,0,-47,-24,-98,-24Z" 
id="f0_24"
transform="scale(0.001,-0.001)" />

<path d="M405,24c0,0,65,0,116,62c0,0,51,61,51,174c0,0,0,128,-50,221c0,0,-51,93,-144,93c0,0,-29,0,-61,-12c0,0,-33,-12,-96,-51c0,0,-14,-101,-14,-163c0,0,0,-72,27,-155c0,0,26,-84,79,-134c0,0,38,-35,92,-35ZM384,-17c0,0,-104,0,-177,68C207,51,66,185,66,397c0,0,0,136,54,258c0,0,54,122,156,217c0,0,101,95,193,128c0,0,93,33,172,33h44v-28c0,0,-99,-10,-161,-39c0,0,-62,-29,-123,-90c0,0,-61,-60,-101,-135c0,0,-39,-74,-66,-176c0,0,107,73,215,73c0,0,104,0,180,-83c0,0,76,-84,76,-215c0,0,0,-126,-77,-231c0,0,-92,-126,-244,-126Z" 
id="f0_l"
transform="scale(0.001,-0.001)" />

<path d="M107,-21V325h27c0,0,19,-109,52,-163c0,0,33,-54,100,-90c0,0,68,-36,148,-36c0,0,93,0,148,49c0,0,54,50,54,117c0,0,0,37,-21,75c0,0,-20,38,-64,71c0,0,-29,22,-159,95c0,0,-130,72,-185,115c0,0,-55,44,-83,96c0,0,-28,52,-28,114c0,0,0,109,83,188c0,0,84,78,213,78c0,0,81,0,171,-39c0,0,42,-19,59,-19c0,0,20,0,32,11c0,0,12,12,20,47h27V684H674c0,0,-14,101,-48,161c0,0,-35,60,-100,95c0,0,-64,35,-133,35c0,0,-77,0,-128,-47c0,0,-51,-48,-51,-108c0,0,0,-46,32,-84c0,0,47,-56,221,-149c0,0,142,-76,194,-117c0,0,51,-41,80,-96c0,0,28,-55,28,-115c0,0,0,-115,-90,-198c0,0,-89,-82,-229,-82c0,0,-44,0,-83,6c0,0,-23,4,-95,27c0,0,-73,24,-93,24c0,0,-18,0,-29,-11c0,0,-11,-12,-16,-46Z" 
id="f0_1c"
transform="scale(0.001,-0.001)" />

<path d="M275,-20L578,891H299c0,0,-84,0,-120,-20c0,0,-63,-35,-101,-106l-21,8l97,239H696V983L359,-20Z" 
id="f0_m"
transform="scale(0.001,-0.001)" />

<path d="M25,0V27H61c0,0,64,0,91,39c0,0,16,24,16,109V837c0,0,0,67,-15,97c0,0,-10,22,-38,36c0,0,-28,15,-90,15v27H312L678,220l363,792h285V985h-35c0,0,-64,0,-91,-39c0,0,-17,-24,-17,-109V175c0,0,0,-93,21,-116c0,0,28,-32,87,-32h35V0H898V27h36c0,0,64,0,90,39c0,0,17,24,17,109V852L649,0H625L234,852V175c0,0,0,-93,20,-116c0,0,27,-32,87,-32h35V0Z" 
id="f0_16"
transform="scale(0.001,-0.001)" />

<path d="M394,23c0,0,80,0,129,45c0,0,48,45,48,110c0,0,0,54,-28,97c0,0,-53,79,-214,206c0,0,-62,-52,-92,-114c0,0,-30,-61,-30,-133c0,0,0,-96,53,-154c0,0,52,-57,134,-57Zm17,566c0,0,90,81,114,128c0,0,24,46,24,105c0,0,0,79,-44,123c0,0,-44,45,-121,45c0,0,-76,0,-124,-45c0,0,-48,-44,-48,-103c0,0,0,-38,20,-77c0,0,20,-39,56,-74L411,589ZM382,-17c0,0,-144,0,-225,90c0,0,-64,72,-64,158c0,0,0,67,45,133c0,0,45,66,156,146c0,0,-121,98,-156,158c0,0,-34,59,-34,124c0,0,0,98,76,169c0,0,76,72,202,72c0,0,123,0,198,-67c0,0,74,-66,74,-151c0,0,0,-57,-40,-116c0,0,-40,-59,-168,-139c0,0,132,-101,174,-159c0,0,57,-76,57,-161c0,0,0,-106,-82,-182c0,0,-81,-75,-213,-75Z" 
id="f0_n"
transform="scale(0.001,-0.001)" />

<path d="M548,-21c0,0,-251,0,-389,185C159,164,56,303,56,490c0,0,0,152,68,278c0,0,67,127,186,197c0,0,119,69,260,69c0,0,109,0,216,-53c0,0,31,-17,44,-17c0,0,20,0,35,14c0,0,20,21,28,56h26L943,690H919c0,0,-46,155,-131,224c0,0,-86,68,-206,68c0,0,-100,0,-181,-51c0,0,-81,-52,-128,-163c0,0,-46,-112,-46,-279c0,0,0,-137,44,-238c0,0,44,-101,132,-154c0,0,88,-54,201,-54c0,0,99,0,174,42c0,0,75,42,165,167l23,-14C966,238,890,103,789,40c0,0,-102,-61,-241,-61Z" 
id="f0_w"
transform="scale(0.001,-0.001)" />

<path d="M379,437c0,0,34,0,81,16c0,0,47,17,83,47c0,0,14,97,14,155c0,0,0,72,-25,156c0,0,-25,83,-70,128c0,0,-45,45,-103,45c0,0,-66,0,-116,-60c0,0,-50,-59,-50,-177c0,0,0,-157,66,-246c0,0,49,-64,120,-64ZM80,-20V7c0,0,97,1,181,45c0,0,83,44,161,153c0,0,78,109,109,240c0,0,-117,-75,-212,-75c0,0,-107,0,-183,82c0,0,-76,82,-76,219c0,0,0,132,76,236c0,0,92,126,240,126c0,0,124,0,213,-103c0,0,109,-128,109,-315c0,0,0,-169,-82,-314C616,301,533,155,385,59c0,0,-120,-79,-262,-79Z" 
id="f0_o"
transform="scale(0.001,-0.001)" />

<path d="M37,0V16c0,0,275,327,333,439c0,0,59,113,59,220c0,0,0,79,-49,131c0,0,-49,52,-119,52c0,0,-115,0,-178,-115l-28,9c0,0,40,143,123,212c0,0,82,69,189,69c0,0,77,0,141,-36c0,0,63,-36,99,-98c0,0,36,-63,36,-117c0,0,0,-99,-56,-202c0,0,-75,-138,-329,-384H477c0,0,81,0,105,6c0,0,24,7,40,23c0,0,15,16,41,67h27L633,0Z" 
id="f1_d"
transform="scale(0.001,-0.001)" />

<path d="M450,515c0,0,91,0,141,54c0,0,49,54,49,167c0,0,0,113,-49,165c0,0,-50,52,-148,52H413V516c0,0,24,-1,37,-1ZM39,0V27c0,0,70,0,95,13c0,0,25,14,35,35c0,0,10,21,10,103V834c0,0,0,82,-10,104c0,0,-10,21,-36,34c0,0,-25,13,-94,13v27H480c0,0,218,0,313,-78c0,0,94,-77,94,-194c0,0,0,-99,-61,-169c0,0,-61,-70,-169,-95c0,0,-72,-18,-244,-18V178c0,0,0,-82,10,-104c0,0,10,-21,35,-34c0,0,26,-13,94,-13V0Z" 
id="f1_12"
transform="scale(0.001,-0.001)" />

<path d="M397,69c0,0,65,0,123,103V539c0,0,-55,105,-134,105c0,0,-28,0,-46,-15c0,0,-27,-23,-45,-81c0,0,-17,-58,-17,-178c0,0,0,-132,19,-195c0,0,19,-63,53,-91c0,0,17,-15,47,-15ZM332,-20c0,0,-133,0,-211,119c0,0,-62,97,-62,238c0,0,0,112,38,202c0,0,39,89,107,134c0,0,67,46,145,46c0,0,50,0,88,-20c0,0,39,-19,83,-67V842c0,0,0,80,-7,96c0,0,-8,22,-26,32c0,0,-18,11,-68,11v31H729V209c0,0,0,-81,5,-96c0,0,6,-25,22,-36c0,0,17,-12,58,-15V37L520,-20V90C520,90,467,26,426,3c0,0,-42,-23,-94,-23Z" 
id="f1_1d"
transform="scale(0.001,-0.001)" />

<path d="M597,33c0,0,77,0,129,38c0,0,65,47,102,152c0,0,36,105,36,273c0,0,0,201,-37,300c0,0,-37,100,-95,141c0,0,-58,41,-133,41c0,0,-139,0,-211,-142c0,0,-59,-116,-59,-334c0,0,0,-259,91,-382c0,0,63,-87,177,-87Zm3,-54c0,0,-273,0,-423,183C177,162,60,309,60,509c0,0,0,225,153,375c0,0,144,142,358,142c6,0,12,0,19,0c0,0,3,0,8,0c42,0,250,-7,385,-141c0,0,151,-150,151,-375c0,0,0,-193,-113,-339c0,0,-149,-192,-421,-192Z" 
id="f1_11"
transform="scale(0.001,-0.001)" />

<path d="M325,-20L139,484c0,0,-42,116,-71,151c0,0,-18,24,-56,35v27H364V670c0,0,-35,0,-49,-11c0,0,-13,-10,-13,-24c0,0,0,-12,24,-76L428,287l98,272l-7,18c0,0,-22,56,-39,72c0,0,-17,15,-52,21v27H785V670c0,0,-42,-2,-53,-12c0,0,-11,-9,-11,-26c0,0,0,-17,22,-73L841,287l90,251c0,0,19,53,19,73c0,0,0,29,-14,42c0,0,-14,14,-55,17v27h207V670c0,0,-35,-5,-55,-24c0,0,-20,-20,-52,-113L785,-20H743L551,491L364,-20Z" 
id="f1_1w"
transform="scale(0.001,-0.001)" />

<path d="M38,0V27H74c0,0,63,0,91,37c0,0,18,24,18,115V833c0,0,0,77,-10,102c0,0,-7,18,-30,32c0,0,-33,18,-69,18H38v27H470V985H434c0,0,-62,0,-90,-37c0,0,-18,-24,-18,-115V179c0,0,0,-77,9,-102c0,0,8,-18,31,-32c0,0,32,-18,68,-18h36V0Z" 
id="f0_12"
transform="scale(0.001,-0.001)" />

<path d="M24,0V27H60c0,0,63,0,91,37c0,0,18,24,18,115V833c0,0,0,77,-10,102c0,0,-7,18,-30,32c0,0,-32,18,-69,18H24v27H776L787,790H761c0,0,-20,71,-45,104c0,0,-26,33,-64,48c0,0,-37,15,-117,15H312V558H497c0,0,63,0,93,28c0,0,29,28,39,111h27V355H629c0,0,-1,59,-16,87c0,0,-14,27,-40,41c0,0,-26,14,-76,14H312V179c0,0,0,-77,10,-102c0,0,7,-18,31,-32c0,0,33,-18,69,-18h37V0Z" 
id="f0_z"
transform="scale(0.001,-0.001)" />

<path d="M356,519c0,0,145,0,218,63c0,0,74,63,74,160c0,0,0,95,-60,154c0,0,-59,59,-157,59c0,0,-43,0,-117,-13V520c0,0,14,0,25,0c0,0,10,-1,17,-1ZM26,0V27H64c0,0,64,0,92,42c0,0,15,23,15,110V833c0,0,0,96,-21,119c0,0,-29,33,-86,33H26v27H395c0,0,161,0,238,-24c0,0,76,-23,129,-86c0,0,54,-63,54,-151c0,0,0,-93,-61,-162c0,0,-61,-68,-189,-97L775,202c0,0,72,-100,123,-133c0,0,52,-33,134,-42V0H762L419,473c0,0,-38,-1,-61,-1c0,0,-10,0,-21,0c0,0,-11,0,-23,1V179c0,0,0,-96,21,-119c0,0,28,-33,84,-33h40V0Z" 
id="f0_1b"
transform="scale(0.001,-0.001)" />

<path d="M376,-20L133,556c0,0,-17,41,-31,58c0,0,-15,18,-39,30c0,0,-12,7,-50,13v26H335V657H314c0,0,-29,0,-44,-14c0,0,-16,-14,-15,-38c0,0,-1,-26,15,-62L429,165L588,557c0,0,17,42,17,64c0,0,0,10,-6,17c0,0,-8,11,-21,15c0,0,-13,4,-52,4v26H750V657c0,0,-39,-3,-54,-16c0,0,-26,-23,-47,-76L409,-20Z" 
id="f0_25"
transform="scale(0.001,-0.001)" />

<path d="M678,393L506,802L330,393ZM11,0V27c0,0,63,12,82,30c0,0,38,35,84,145l356,832h27L912,193c0,0,43,-101,77,-132c0,0,35,-30,97,-34V0H687V27c0,0,60,3,82,21c0,0,21,17,21,41c0,0,0,33,-30,104L700,338H307L239,179c0,0,-26,-59,-26,-88c0,0,0,-23,22,-41c0,0,22,-17,95,-23V0Z" 
id="f0_u"
transform="scale(0.001,-0.001)" />

<path d="M30,0V27L485,632H260c0,0,-72,0,-94,-10c0,0,-22,-9,-36,-35c0,0,-20,-37,-23,-92H76l5,188H654V656L196,51H445c0,0,79,0,106,13c0,0,28,13,45,46c0,0,12,23,21,100h25L634,0Z" 
id="f0_29"
transform="scale(0.001,-0.001)" />

<path d="M31,0V27H67c0,0,36,0,68,18c0,0,24,12,32,36c0,0,9,24,9,98V836c0,0,0,96,-19,119c0,0,-27,30,-90,30H31v27H811L822,790H792c0,0,-15,80,-34,110c0,0,-19,30,-57,46c0,0,-29,11,-105,11H319V557H541c0,0,87,0,116,26c0,0,39,35,44,121h27V352H701c0,0,-11,74,-21,95c0,0,-14,26,-45,41c0,0,-30,15,-94,15H319V168c0,0,0,-67,6,-81c0,0,6,-15,21,-24c0,0,15,-8,56,-8H574c0,0,86,0,124,12c0,0,39,12,75,47c0,0,46,46,95,139h30L811,0Z" 
id="f0_y"
transform="scale(0.001,-0.001)" />

<path d="M253,0V27h36c0,0,64,0,91,39c0,0,16,24,16,109V948H274c0,0,-71,0,-100,-10c0,0,-39,-14,-67,-54c0,0,-27,-41,-33,-109H46l12,237H883L894,775H865c0,0,-8,62,-22,89c0,0,-23,43,-61,64c0,0,-39,20,-101,20H539V175c0,0,0,-93,20,-116c0,0,28,-32,87,-32h36V0Z" 
id="f0_1d"
transform="scale(0.001,-0.001)" />

<path d="M911,-16L244,799V175c0,0,0,-93,21,-116c0,0,28,-32,86,-32h36V0H36V27H71c0,0,65,0,92,39c0,0,16,24,16,109V879c0,0,-44,52,-67,68c0,0,-23,17,-67,31c0,0,-21,7,-64,7v27H253L873,253V837c0,0,0,93,-21,116c0,0,-28,32,-87,32H730v27h351V985h-36c0,0,-64,0,-91,-39c0,0,-16,-24,-16,-109V-16Z" 
id="f0_17"
transform="scale(0.001,-0.001)" />

<path d="M537,651c0,0,-49,0,-89,43c0,0,-39,42,-39,105c0,0,0,78,50,142c0,0,50,65,142,92v-29c0,0,-76,-43,-100,-77c0,0,-24,-35,-24,-81c0,0,0,-21,8,-31c0,0,9,-10,18,-10c0,0,8,0,24,6c0,0,17,5,33,5c0,0,31,0,54,-21c0,0,23,-22,23,-54c0,0,0,-36,-29,-63c0,0,-29,-27,-71,-27ZM181,650c0,0,-50,0,-91,44c0,0,-40,43,-40,106c0,0,0,75,50,139c0,0,49,65,144,95v-30c0,0,-66,-35,-95,-72c0,0,-29,-37,-29,-81c0,0,0,-27,8,-36c0,0,7,-11,16,-11c0,0,10,0,27,6c0,0,16,5,30,5c0,0,31,0,54,-22c0,0,23,-23,23,-56c0,0,0,-35,-28,-61c0,0,-28,-26,-69,-26Z" 
id="f0_2d"
transform="scale(0.001,-0.001)" />

<path d="M86,650v31c0,0,75,42,99,77c0,0,23,35,23,80c0,0,0,21,-7,32c0,0,-9,10,-18,10c0,0,-8,0,-24,-6c0,0,-17,-6,-33,-6c0,0,-31,0,-54,23c0,0,-22,22,-22,54c0,0,0,36,29,63c0,0,28,26,69,26c0,0,50,0,90,-42c0,0,40,-43,40,-107c0,0,0,-79,-51,-144c0,0,-50,-65,-141,-91Zm356,0v31c0,0,65,33,93,71c0,0,29,38,29,82c0,0,0,26,-7,36c0,0,-8,10,-17,10c0,0,-10,0,-26,-6c0,0,-17,-6,-30,-6c0,0,-30,0,-53,23c0,0,-23,23,-23,55c0,0,0,36,28,62c0,0,27,26,68,26c0,0,50,0,91,-43c0,0,40,-44,40,-107c0,0,0,-75,-50,-139c0,0,-49,-65,-143,-95Z" 
id="f0_2e"
transform="scale(0.001,-0.001)" />

<path d="M473,53c0,0,173,0,287,121c0,0,114,122,114,330c0,0,0,210,-114,330c0,0,-114,121,-293,121c0,0,-67,0,-153,-21V74c0,0,95,-21,159,-21ZM26,0V27H64c0,0,64,0,91,41c0,0,16,25,16,111V833c0,0,0,95,-21,119c0,0,-29,33,-86,33H26v27H438c0,0,226,0,345,-51c0,0,118,-52,190,-172c0,0,72,-120,72,-278c0,0,0,-211,-129,-353C916,158,773,0,478,0Z" 
id="f0_x"
transform="scale(0.001,-0.001)" />

<path d="M411,-239c0,0,134,0,198,48c0,0,64,47,64,100c0,0,0,39,-38,55c0,0,-39,16,-154,19c0,0,-167,5,-258,17c0,0,-35,-37,-53,-70c0,0,-17,-32,-17,-60c0,0,0,-36,43,-62c0,0,74,-47,215,-47ZM380,257c0,0,56,0,93,43c0,0,36,42,36,133c0,0,0,118,-51,185c0,0,-38,49,-98,49c0,0,-55,0,-92,-44c0,0,-37,-44,-37,-135c0,0,0,-117,50,-182c0,0,39,-49,99,-49ZM345,-328c0,0,-144,0,-243,64c0,0,-56,38,-56,78c0,0,0,18,8,36c0,0,13,27,52,76c0,0,5,7,76,80c0,0,-39,23,-55,41c0,0,-16,19,-16,42c0,0,0,26,22,61c0,0,21,35,98,100c0,0,-63,30,-97,85c0,0,-33,55,-33,121c0,0,0,101,76,174c0,0,77,73,196,73c0,0,98,0,170,-48H688c0,0,32,0,37,-2c0,0,6,-2,8,-6c0,0,4,-7,4,-24c0,0,0,-20,-4,-27c0,0,-2,-4,-7,-6c0,0,-6,-2,-38,-2H599c0,0,41,-54,41,-137c0,0,0,-96,-73,-163c0,0,-73,-68,-196,-68c0,0,-51,0,-104,15c0,0,-33,-28,-44,-49c0,0,-12,-22,-12,-37c0,0,0,-12,13,-24c0,0,12,-12,48,-17c0,0,21,-4,104,-6c0,0,154,-4,199,-11c0,0,70,-10,111,-51c0,0,42,-41,42,-102c0,0,0,-84,-79,-158c0,0,-117,-108,-304,-108Z" 
id="f0_1q"
transform="scale(0.001,-0.001)" />

<path d="M254,-20c0,0,-128,0,-187,41C67,21,24,51,24,98c0,0,0,34,25,59c0,0,25,24,57,24c0,0,25,0,46,-11c0,0,12,-6,85,-65c0,0,73,-59,136,-59c0,0,56,0,95,44c0,0,40,43,40,110c0,0,0,102,-72,189c0,0,-72,86,-210,118v27c0,0,85,24,118,46c0,0,33,21,57,64c0,0,24,44,24,89c0,0,0,61,-46,106c0,0,-45,44,-112,44c0,0,-105,0,-178,-110l-27,9c0,0,53,125,137,188c0,0,84,63,187,63c0,0,105,0,174,-65c0,0,68,-64,68,-150c0,0,0,-56,-32,-107c0,0,-32,-52,-100,-92c0,0,88,-42,134,-105c0,0,46,-62,46,-156c0,0,0,-158,-115,-269C561,89,447,-20,254,-20Z" 
id="f1_e"
transform="scale(0.001,-0.001)" />

<path d="M549,-22c0,0,-132,0,-203,34c0,0,-98,47,-138,122c0,0,-41,75,-41,201V830c0,0,0,87,-9,109c0,0,-10,21,-34,34c0,0,-22,12,-82,12c-2,0,-4,0,-6,0v27H558V985H532c0,0,-59,0,-81,-13c0,0,-22,-12,-31,-34c0,0,-9,-21,-9,-108V335c0,0,0,-136,20,-180c0,0,21,-44,68,-73c0,0,47,-29,118,-29c0,0,82,0,140,37c0,0,58,37,87,102c0,0,29,64,29,226V830c0,0,0,68,-15,97c0,0,-14,29,-35,40c0,0,-34,18,-95,18v27h350V985h-21c0,0,-43,0,-71,-18c0,0,-28,-17,-41,-51c0,0,-10,-24,-10,-86V446c0,0,0,-178,-23,-258c0,0,-24,-79,-115,-145c0,0,-91,-65,-248,-65Z" 
id="f1_16"
transform="scale(0.001,-0.001)" />

<path d="M34,0V27H68c0,0,44,0,71,16c0,0,19,11,30,36c0,0,8,18,8,94V839c0,0,0,78,-8,97c0,0,-8,20,-33,34c0,0,-26,15,-68,15H34v27H887V722H857c0,0,-10,102,-53,151c0,0,-43,49,-125,69c0,0,-44,11,-165,11H420V538h29c0,0,67,0,109,20c0,0,43,20,72,68c0,0,30,48,39,129h26V247H669c0,0,-14,144,-77,190c0,0,-63,46,-143,46H420V173c0,0,0,-78,9,-97c0,0,9,-20,33,-34c0,0,25,-15,68,-15h33V0Z" 
id="f1_s"
transform="scale(0.001,-0.001)" />

<path d="M404,381V781L110,381ZM404,0V227H38V381l480,652h91V381h93V227H609V0Z" 
id="f1_f"
transform="scale(0.001,-0.001)" />

<path d="M459,56c0,0,40,0,66,42c0,0,39,63,39,239c0,0,0,180,-42,247c0,0,-29,44,-76,44c0,0,-76,0,-124,-109V147c0,0,64,-91,137,-91ZM29,-326v28c0,0,46,1,69,26c0,0,14,17,14,89V551c0,0,0,75,-17,95c0,0,-17,21,-66,24v27H322V605c0,0,36,54,74,78c0,0,55,36,119,36c0,0,77,0,140,-49c0,0,63,-48,95,-134c0,0,33,-85,33,-184c0,0,0,-106,-34,-193c0,0,-34,-88,-98,-134c0,0,-65,-45,-144,-45c0,0,-57,0,-107,25c0,0,-37,19,-78,66V-188c0,0,0,-53,8,-73c0,0,9,-19,27,-28c0,0,18,-9,70,-9v-28Z" 
id="f1_1p"
transform="scale(0.001,-0.001)" />

<path d="M553,-21L174,849c0,0,-29,67,-41,82c0,0,-19,24,-46,37c0,0,-27,13,-73,17v27H427V985c0,0,-70,-7,-91,-24c0,0,-21,-17,-21,-44c0,0,0,-38,34,-117L607,207L846,793c0,0,35,86,35,120c0,0,0,22,-22,41c0,0,-21,20,-73,28c0,0,-4,1,-13,3v27h311V985c0,0,-53,-10,-81,-35c0,0,-39,-37,-70,-112L581,-21Z" 
id="f0_1f"
transform="scale(0.001,-0.001)" />

<path d="M292,-20c0,0,-124,0,-190,46c0,0,-46,33,-46,74c0,0,0,33,24,57c0,0,24,25,56,25c0,0,29,0,59,-12c0,0,30,-12,102,-63c0,0,46,-31,78,-43c0,0,23,-9,52,-9c0,0,62,0,104,45c0,0,43,44,43,107c0,0,0,131,-131,213c0,0,-131,82,-331,82c0,0,-20,0,-60,0l181,510H707L632,819H233L195,719c0,0,257,-10,396,-129c0,0,114,-97,114,-243c0,0,0,-93,-53,-182C652,165,599,76,503,28c0,0,-96,-48,-211,-48Z" 
id="f1_g"
transform="scale(0.001,-0.001)" />

<path d="M32,0V27H66c0,0,44,0,71,16c0,0,19,11,30,36c0,0,8,18,8,94V839c0,0,0,78,-8,97c0,0,-8,20,-33,34c0,0,-25,15,-68,15H32v27H561V985H528c0,0,-44,0,-71,-16c0,0,-19,-11,-30,-36c0,0,-9,-18,-9,-94V552H775V839c0,0,0,78,-8,97c0,0,-9,20,-34,34c0,0,-25,15,-68,15H632v27h529V985h-33c0,0,-45,0,-71,-16c0,0,-19,-11,-31,-36c0,0,-8,-18,-8,-94V173c0,0,0,-78,8,-97c0,0,9,-20,34,-34c0,0,26,-15,68,-15h33V0H632V27h33c0,0,45,0,71,16c0,0,19,11,31,36c0,0,8,18,8,94V487H418V173c0,0,0,-78,9,-97c0,0,9,-20,33,-34c0,0,25,-15,68,-15h33V0Z" 
id="f1_u"
transform="scale(0.001,-0.001)" />

<path d="M393,-277c0,0,104,0,164,28c0,0,59,27,59,77c0,0,0,19,-11,32c0,0,-20,22,-61,30c0,0,-41,8,-218,8c0,0,-76,0,-101,-12c0,0,-42,-23,-42,-63c0,0,0,-38,44,-69c0,0,44,-31,166,-31ZM366,253c0,0,45,0,75,41c0,0,30,41,30,160c0,0,0,134,-33,183c0,0,-24,36,-68,36c0,0,-43,0,-73,-44c0,0,-30,-44,-30,-181c0,0,0,-112,29,-153c0,0,30,-42,70,-42Zm8,-581c0,0,-94,0,-171,18c0,0,-78,18,-112,51c0,0,-33,32,-33,68c0,0,0,34,25,61c0,0,26,28,96,46c0,0,-97,48,-97,132c0,0,0,51,40,100c0,0,39,48,125,84c0,0,-100,36,-145,96c0,0,-44,60,-44,138c0,0,0,103,83,178c0,0,84,75,215,75c0,0,70,0,144,-30H734V607H601c0,0,37,-36,51,-66c0,0,18,-40,18,-85c0,0,0,-74,-42,-129c0,0,-41,-55,-112,-86c0,0,-72,-31,-127,-31c0,0,-5,0,-90,4c0,0,-33,0,-56,-22c0,0,-23,-22,-23,-52c0,0,0,-27,21,-44c0,0,20,-17,66,-17l130,1c0,0,157,0,216,-34c0,0,84,-47,84,-146c0,0,0,-64,-39,-115c0,0,-38,-52,-102,-77c0,0,-96,-36,-222,-36Z" 
id="f1_1g"
transform="scale(0.001,-0.001)" />

<path d="M379,29c0,0,41,0,84,37c0,0,43,36,65,121c0,0,34,128,34,362c0,0,0,173,-35,288c0,0,-27,86,-69,122c0,0,-31,25,-74,25c0,0,-51,0,-90,-46c0,0,-54,-62,-73,-195c0,0,-20,-132,-20,-261c0,0,0,-209,52,-341c0,0,42,-112,126,-112Zm-2,-46c0,0,-145,0,-241,170c0,0,-81,144,-81,347c0,0,0,173,52,298c0,0,52,125,139,186c0,0,67,49,139,49c0,0,116,0,208,-119c0,0,116,-147,116,-398c0,0,0,-176,-51,-299C658,217,608,94,529,38c0,0,-79,-55,-152,-55Z" 
id="f0_f"
transform="scale(0.001,-0.001)" />

<path d="M415,27c0,0,35,0,62,40c0,0,27,40,27,163c0,0,0,206,-50,284c0,0,-33,51,-88,51c0,0,-30,0,-78,-24c0,0,-5,-104,-5,-151c0,0,0,-103,19,-200c0,0,20,-96,55,-135c0,0,25,-28,58,-28ZM397,-20c0,0,-93,0,-172,51c0,0,-79,51,-124,149c0,0,-44,99,-44,214c0,0,0,170,81,317c0,0,82,146,233,233c0,0,150,87,347,89v-21c0,0,-135,-34,-217,-88c0,0,-82,-54,-129,-132c0,0,-48,-77,-74,-191c0,0,33,23,55,29c0,0,48,15,98,15c0,0,113,0,189,-82c0,0,76,-83,76,-225c0,0,0,-100,-41,-184C675,154,634,71,558,25c0,0,-75,-45,-161,-45Z" 
id="f1_h"
transform="scale(0.001,-0.001)" />

<path d="M30,0V27H40c0,0,1,0,2,0c6,0,36,1,62,11c0,0,29,12,44,31c0,0,15,20,23,55c0,0,2,8,2,76V841c0,0,0,77,-9,96c0,0,-8,19,-33,33c0,0,-26,15,-69,15H30v27H445L729,346l274,666h412V985h-33c0,0,-45,0,-72,-16c0,0,-19,-10,-30,-35c0,0,-8,-18,-8,-93V173c0,0,0,-78,8,-97c0,0,8,-20,34,-34c0,0,25,-15,68,-15h33V0H886V27h33c0,0,44,0,71,16c0,0,19,11,30,36c0,0,8,18,8,94V923L641,0H623L229,916V203c0,0,0,-74,4,-91c0,0,10,-38,42,-61c0,0,33,-24,102,-24V0Z" 
id="f1_z"
transform="scale(0.001,-0.001)" />

<path d="M528,92c0,0,28,0,64,12c0,0,35,13,77,37c0,0,-180,184,-276,383c0,0,-60,-25,-84,-54c0,0,-35,-42,-35,-93c0,0,0,-70,40,-140c0,0,41,-69,99,-107c0,0,57,-38,115,-38Zm45,558c0,0,78,29,104,62c0,0,27,33,27,80c0,0,0,84,-44,141c0,0,-29,38,-72,38c0,0,-35,0,-59,-28c0,0,-25,-27,-25,-74c0,0,0,-37,12,-78c0,0,12,-42,57,-141ZM370,-22c0,0,-142,0,-226,75c0,0,-83,77,-83,181c0,0,0,112,79,195c0,0,80,82,232,143c0,0,-19,48,-29,95c0,0,-10,46,-10,89c0,0,0,120,84,199c0,0,84,79,214,79c0,0,106,0,167,-52c0,0,61,-53,61,-123c0,0,0,-84,-62,-144c0,0,-63,-60,-199,-110c0,0,85,-148,247,-320c0,0,109,123,109,210c0,0,0,32,-21,54c0,0,-22,21,-64,26v29h311V575c0,0,-52,-7,-82,-31c0,0,-30,-23,-78,-109c0,0,-48,-86,-134,-191c0,0,76,-69,124,-96c0,0,33,-19,65,-19c0,0,55,0,100,72l31,-16c0,0,-62,-120,-131,-171c0,0,-53,-36,-121,-36c0,0,-58,0,-110,23c0,0,-53,25,-128,94C716,95,623,32,541,4c0,0,-83,-26,-171,-26Z" 
id="f1_4"
transform="scale(0.001,-0.001)" />

<path d="M271,-20L546,815H337c0,0,-123,0,-185,-33c0,0,-43,-22,-71,-84H52l73,314H729L388,-20Z" 
id="f1_i"
transform="scale(0.001,-0.001)" />

<path d="M62,286V399H448V286Z" 
id="f0_c"
transform="scale(0.001,-0.001)" />

<path d="M474,-326c0,0,-112,57,-188,133c0,0,-107,108,-165,254c0,0,-58,147,-58,305c0,0,0,231,114,421c0,0,114,191,297,273v-31c0,0,-92,-51,-151,-139c0,0,-59,-88,-88,-223c0,0,-30,-135,-30,-281c0,0,0,-160,25,-290c0,0,20,-102,47,-164c0,0,28,-62,75,-120c0,0,47,-57,122,-109v-29Z" 
id="f0_8"
transform="scale(0.001,-0.001)" />

<path d="M182,-21c0,0,-70,0,-110,33C72,12,31,47,31,92c0,0,0,37,19,56c0,0,25,23,58,23c0,0,24,0,43,-16c0,0,19,-15,48,-84c0,0,17,-41,44,-41c0,0,20,0,38,25c0,0,17,25,17,87V833c0,0,0,77,-9,102c0,0,-8,18,-31,32c0,0,-32,18,-68,18H154v27H586V985H549c0,0,-62,0,-90,-37c0,0,-18,-24,-18,-115V339c0,0,0,-115,-25,-185c0,0,-25,-71,-86,-124c0,0,-61,-51,-148,-51Z" 
id="f0_13"
transform="scale(0.001,-0.001)" />

<path d="M-12,338v55H777V338Z" 
id="f0_2c"
transform="scale(0.001,-0.001)" />

<path d="M35,-326v29c0,0,92,51,151,139c0,0,60,87,89,221c0,0,28,136,28,282c0,0,0,159,-24,290c0,0,-19,103,-47,165c0,0,-28,62,-75,119c0,0,-46,57,-122,110v31c0,0,113,-56,188,-132c0,0,107,-109,165,-255c0,0,58,-147,58,-306c0,0,0,-231,-114,-420c0,0,-113,-191,-297,-273Z" 
id="f0_9"
transform="scale(0.001,-0.001)" />


</defs>
</svg>