<?xml version="1.0" standalone="no"?>
<!DOCTYPE svg PUBLIC "-//W3C//DTD SVG 1.1//EN" "http://www.w3.org/Graphics/SVG/1.1/DTD/svg11.dtd" >
<svg>
<metadata>
Created by FontForge 20090914 at Thu Jul 14 20:12:57 2016
 By www-data
29-7-95 \251 Manfred Klein
</metadata>
<defs>
<font id="Folks-Bold" horiz-adv-x="287" >
  <font-face 
    font-family="Folks"
    font-weight="700"
    font-stretch="normal"
    units-per-em="1000"
    panose-1="2 0 8 3 4 0 0 2 0 4"
    ascent="800"
    descent="-200"
    x-height="537"
    cap-height="870"
    bbox="-33.999 -241.999 956 942"
    underline-thickness="20"
    underline-position="-123"
    unicode-range="U+0005-U+2122"
  />
<missing-glyph horiz-adv-x="1000" 
 />
    <glyph glyph-name=".notdef" horiz-adv-x="1000" 
 />
    <glyph glyph-name="breve" horiz-adv-x="408" 
d="M388 681c0 15.333 -4.33691 29.001 -13.0039 41.001s-21 18 -37 18c-2.66699 0 -5.66699 -0.333008 -9 -1s-6.66602 -2.33398 -9.99902 -5.00098c-15.333 -10.667 -32.666 -20.334 -51.999 -29.001s-41.333 -13 -66 -13c-19.333 0 -36.833 2.5 -52.5 7.5
s-29.5 10.667 -41.5 17s-22.333 12 -31 17s-16 7.5 -22 7.5c-14.667 0 -26.5 -6.5 -35.5 -19.5s-13.5 -26.167 -13.5 -39.5c0 -18.667 7 -34.667 21 -48s31 -24.166 51 -32.499s40.833 -14.5 62.5 -18.5s39.834 -6 54.501 -6s33 2 55 6s43.333 10.167 64 18.5
s38.334 19 53.001 32s22 28.833 22 47.5z" />
    <glyph glyph-name="dotaccent" 
 />
    <glyph glyph-name="ring" horiz-adv-x="234" 
d="M218 673c0 14 -3 26.8311 -9 38.498s-14 21.5 -24 29.5s-21.333 14.333 -34 19s-25.667 7 -39 7s-26.333 -2.16699 -39 -6.5s-23.834 -10.666 -33.501 -18.999s-17.5 -18.333 -23.5 -30s-9 -24.5 -9 -38.5s3 -26.833 9 -38.5s14 -21.667 24 -30
s21.333 -14.666 34 -18.999s25.667 -6.5 39 -6.5s26.333 2.33301 39 7s23.834 11 33.501 19s17.5 17.833 23.5 29.5s9 24.5 9 38.5zM144 671.998c0 -8 -3.00098 -15.166 -9.00098 -21.499s-13 -9.5 -21 -9.5c-9.33301 0 -17.333 2.83301 -24 8.5s-10 13.5 -10 23.5
c0 9.33301 3.33301 17 10 23s14.334 9 23.001 9s16 -3.33301 22 -10s9 -14.334 9 -23.001z" />
    <glyph glyph-name="hungarumlaut" unicode="&#xa;" horiz-adv-x="449" 
d="M369 551l-58.999 -59.9971c-27.333 20 -58 30 -92 30c-34.667 0 -66 -10.333 -94 -31l-60 60c-6.66699 -6 -12.834 -12.333 -18.501 -19s-11.167 -13.667 -16.5 -21l57 -56c-19.333 -27.333 -29 -58.333 -29 -93c0 -33.333 9.66699 -64.333 29 -93l-59 -57
c12 -15.333 24.333 -28.333 37 -39l61 58c26.667 -20.667 57.667 -31 93 -31c33.333 0 64 10.333 92 31l58 -59l20 18.5c6.66699 6.33301 12.667 13.166 18 20.499l-58 57c20.667 28 31 59.333 31 94c0 35.333 -10 67 -30 95l58 54
c-5.33301 7.33301 -11.333 14.666 -18 21.999s-13.667 13.666 -21 18.999h1zM324.001 360.003c0 -30 -10.167 -55.1729 -30.5 -75.5059s-45.5 -30.5 -75.5 -30.5c-14.667 0 -28.5 2.83301 -41.5 8.5s-24.333 13.334 -34 23.001s-17.334 20.834 -23.001 33.501
s-8.5 26.334 -8.5 41.001s2.83301 28.334 8.5 41.001s13.334 23.834 23.001 33.501s21 17.334 34 23.001s26.833 8.5 41.5 8.5c30 0 55.167 -10.167 75.5 -30.5s30.5 -45.5 30.5 -75.5z" />
    <glyph glyph-name="ogonek" 
 />
    <glyph glyph-name="caron" horiz-adv-x="399" 
d="M380 692c0 16 -5.50098 29.5 -16.501 40.5s-24.167 16.5 -39.5 16.5c-7.33301 0 -16.833 -2 -28.5 -6s-24 -8.66699 -37 -14s-25.5 -10.833 -37.5 -16.5s-21.333 -9.83398 -28 -12.501c-6.66699 2.66699 -16 6.83398 -28 12.501s-24.667 11.167 -38 16.5
s-26.166 10.166 -38.499 14.499s-21.833 6.5 -28.5 6.5c-15.333 0 -28.333 -5.66699 -39 -17s-16 -24.666 -16 -39.999c0 -11.333 3 -21.833 9 -31.5s14.333 -16.5 25 -20.5l124 -50c5.33301 -1.33301 10.5 -3 15.5 -5s10.167 -3 15.5 -3s10.5 1 15.5 3l15.5 6l120 48
c10.667 4 19.167 10.833 25.5 20.5s9.5 20.167 9.5 31.5z" />
    <glyph glyph-name="dotlessi" unicode="&#xd;" horiz-adv-x="230" 
d="M188 0l-0.000976562 468c0 10 -2 19.667 -6 29s-9.5 17.5 -16.5 24.5s-15 12.667 -24 17s-18.833 6.5 -29.5 6.5c-21.333 0 -39.666 -7.33301 -54.999 -22s-23 -33 -23 -55v-468h154z" />
    <glyph glyph-name="fraction" horiz-adv-x="412" 
d="M405 688c0 15.333 -5.16895 28.666 -15.502 39.999s-23.166 17 -38.499 17c-10 0 -19.5 -2.66699 -28.5 -8s-15.5 -12.666 -19.5 -21.999l-304 -671c-0.666992 -1.33301 -1.83398 -4 -3.50098 -8s-2.5 -6.66699 -2.5 -8c0 -2 3.66699 -6 11 -12
s15.833 -12.167 25.5 -18.5s18.834 -12 27.501 -17s14.334 -7.5 17.001 -7.5c3.33301 0 7.83301 3.83301 13.5 11.5s9.16699 13.167 10.5 16.5l301 661c4 8 6 16.667 6 26z" />
    <glyph glyph-name="fi" horiz-adv-x="462" 
d="M93 506c-17.333 0 -31.834 -5.99902 -43.501 -17.999s-17.5 -26.333 -17.5 -43c0 -17.333 6 -32 18 -44l94 -94l-111 -108l-14 -16l85 -85l15 14l111 108l92 -93c5.33301 -6 12 -10.5 20 -13.5s16.333 -4.5 25 -4.5c16.667 0 30.834 5.83301 42.501 17.5
s17.5 26.167 17.5 43.5c0 8 -2 15.667 -6 23c-1.33301 5.33301 -6.83301 13.5 -16.5 24.5s-20.5 22.5 -32.5 34.5l-34 33l-22 21l94 94c12 12 18 26.333 18 43c0 17.333 -5.83301 32 -17.5 44s-26.167 18 -43.5 18c-7.33301 0 -15 -2.33301 -23 -7
c-5.33301 -1.33301 -13.5 -6.83301 -24.5 -16.5s-22.5 -20.334 -34.5 -32.001l-33.5 -33.5l-21.5 -22l-93 94c-12 12 -26.667 18 -44 18z" />
    <glyph glyph-name="fl" 
 />
    <glyph glyph-name="Lslash" 
 />
    <glyph glyph-name="lslash" 
 />
    <glyph glyph-name="Zcaron" 
 />
    <glyph glyph-name="zcaron" 
 />
    <glyph glyph-name="space" unicode=" " 
 />
    <glyph glyph-name="exclam" unicode="!" horiz-adv-x="243" 
d="M194 251v466h-153v-29v-436c0 -8 2.5 -15.333 7.5 -22s11.333 -12.5 19 -17.5s16 -9 25 -12s17.5 -4.5 25.5 -4.5c7.33301 0 15.5 1.5 24.5 4.5s17.333 7 25 12s14 10.833 19 17.5s7.5 13.667 7.5 21zM205 71c0 24.667 -8.66699 45.333 -26 62s-38.333 25 -63 25
c-24 0 -44.333 -8.66699 -61 -26s-25 -38 -25 -62s8.66699 -44.333 26 -61s38 -25 62 -25s44.5 8.5 61.5 25.5s25.5 37.5 25.5 61.5z" />
    <glyph glyph-name="quotedbl" unicode="&#x22;" horiz-adv-x="346" 
d="M306 720h-104l-21 -239h94zM153 720h-104l-21 -239h94z" />
    <glyph glyph-name="numbersign" unicode="#" horiz-adv-x="584" 
d="M548 483c0 7.33301 -2.5 13.665 -7.5 18.998s-11.167 8 -18.5 8l-100 -2l45 203h-61l-43 -203h-100l44 203h-61l-43 -203l-97 2c-9.33301 0 -18 -3.16699 -26 -9.5s-12 -14.5 -12 -24.5c0 -7.33301 2.5 -13.666 7.5 -18.999s11.167 -8 18.5 -8h96l-37 -178h-100
c-9.33301 0 -17.833 -3.16699 -25.5 -9.5s-11.5 -14.5 -11.5 -24.5c0 -7.33301 2.33301 -13.5 7 -18.5s10.667 -7.5 18 -7.5h99c-1.33301 -6.66699 -4.16602 -20 -8.49902 -40l-13 -63l-12 -61.5c-3.66699 -19 -5.5 -30.5 -5.5 -34.5c0 -7.33301 2.33301 -13.166 7 -17.499
s10.667 -6.5 18 -6.5c8 0 15 3 21 9s9.66699 12.667 11 20l42 195h101l-9 -40l-14.5 -65l-13.5 -62.5c-4 -19 -6 -30.167 -6 -33.5c0 -6.66699 2.33301 -12.167 7 -16.5s10 -6.5 16 -6.5c9.33301 0 17.333 2.5 24 7.5s11 11.833 13 20.5l42 195h101c10 0 18.667 3.5 26 10.5
s11 15.5 11 25.5c0 6.66699 -2.5 12.5 -7.5 17.5s-11.167 7.5 -18.5 7.5h-100l38 177h99c9.33301 0 18.166 3.16699 26.499 9.5s12.5 14.5 12.5 24.5zM350 448.999l-37 -178h-101l38 178h100z" />
    <glyph glyph-name="dollar" unicode="$" horiz-adv-x="523" 
d="M512 234c0 32.667 -6.83789 60.668 -20.5049 84.001s-31.334 43 -53.001 59s-45.834 29.333 -72.501 40s-53.334 20 -80.001 28c-3.33301 1.33301 -6.66602 2.33301 -9.99902 3s-6.66602 1.66699 -9.99902 3l1 137c10.667 -2 21.834 -5.16699 33.501 -9.5l34.5 -13
c11.333 -4.33301 22.333 -8.33301 33 -12s20 -5.5 28 -5.5c19.333 0 35.333 6.66699 48 20s19 29.666 19 48.999c0 14.667 -6.66699 28 -20 40s-29.166 22.167 -47.499 30.5s-37.166 15.333 -56.499 21s-35 9.83398 -47 12.501s-18.667 4 -20 4
c0 1.33301 -0.333008 5.16602 -1 11.499s-1.5 13.666 -2.5 21.999s-1.83301 13.166 -2.5 14.499v13c0 5.33301 -0.5 10.5 -1.5 15.5s-2.83301 9.16699 -5.5 12.5s-6.66699 5 -12 5c-9.33301 0 -14.666 -5.33301 -15.999 -16c-1.33301 -2 -2.16602 -6.83301 -2.49902 -14.5
s-0.333008 -15.834 0 -24.501s0.666016 -16.834 0.999023 -24.501s0.5 -12.167 0.5 -13.5c-28.667 -1.33301 -56.834 -7.66602 -84.501 -18.999s-52.5 -26.5 -74.5 -45.5s-39.833 -41.5 -53.5 -67.5s-20.5 -54 -20.5 -84c0 -24.667 4.16699 -46.5 12.5 -65.5
s19.5 -35.833 33.5 -50.5s30.333 -27.167 49 -37.5s38.667 -19.166 60 -26.499c13.333 -4.66699 26.333 -8.83398 39 -12.501l38 -10.5v-171l-6 -1c-15.333 0 -30.666 1.83301 -45.999 5.5s-30.666 8.5 -45.999 14.5s-30.166 12.667 -44.499 20l-40.5 21l-54 -130
c14.667 -12 31.667 -22.5 51 -31.5s39.5 -16.667 60.5 -23s42.333 -11.166 64 -14.499s42.167 -5 61.5 -5v-77h37v78c31.333 1.33301 61.833 8.5 91.5 21.5s56 30.333 79 52s41.333 46.834 55 75.501s20.5 59.334 20.5 92.001zM231.995 595.001
c0 -0.666992 -0.334961 -3.16602 -1.00195 -7.49902s-1.16699 -9.16602 -1.5 -14.499s-0.166016 -8 0.500977 -8v-104c-7.33301 2.66699 -15.333 6.16699 -24 10.5s-16.667 9.16602 -24 14.499s-13.333 11.666 -18 18.999s-7 16 -7 26
c0.666992 8.66699 3.83398 18.5 9.50098 29.5s12.167 19.167 19.5 24.5c10.667 7.33301 21 10.833 31 10.5zM345.993 224.002c0 -22 -8.16797 -41.166 -24.501 -57.499s-34.833 -26.5 -55.5 -30.5v161l27.5 -10.5c9.66699 -3.66699 18.334 -8.33398 26.001 -14.001
s14 -12.5 19 -20.5s7.5 -17.333 7.5 -28z" />
    <glyph glyph-name="percent" unicode="%" horiz-adv-x="657" 
d="M299 562c0 21.333 -3.16309 42.502 -9.49609 63.502s-15.833 39.667 -28.5 56s-28 29.666 -46 39.999s-38.667 15.5 -62 15.5c-24 0 -45.167 -5.33301 -63.5 -16s-33.833 -24.5 -46.5 -41.5s-22.334 -36.167 -29.001 -57.5s-10 -42.666 -10 -63.999
s3.33301 -42.333 10 -63s16.167 -39.5 28.5 -56.5s27.666 -30.667 45.999 -41s39.166 -15.5 62.499 -15.5c24 0 45.167 5.33301 63.5 16s33.666 24.667 45.999 42s21.833 36.666 28.5 57.999s10 42.666 10 63.999zM516.004 678.002c0 15.333 -4.99902 28.332 -14.999 38.999
s-22.667 16 -38 16c-10 0 -19.333 -2.5 -28 -7.5s-15 -12.167 -19 -21.5l-297 -651c-0.666992 -1.33301 -1.83398 -4.16602 -3.50098 -8.49902l-2.5 -6.5l90 -55l6 11.5l8 15.5l293 643l4 12c1.33301 4 2 8.33301 2 13zM631.005 162.001
c0 21.333 -3.16309 42.333 -9.49609 63s-15.666 39 -27.999 55s-27.5 29 -45.5 39s-38.667 15 -62 15s-44.333 -5.16699 -63 -15.5s-34.334 -23.666 -47.001 -39.999s-22.334 -35 -29.001 -56s-10 -42.167 -10 -63.5s3.16699 -42.5 9.5 -63.5s15.833 -39.833 28.5 -56.5
s28.167 -30.167 46.5 -40.5s39.166 -15.5 62.499 -15.5c24 0 45.167 5.33301 63.5 16s33.666 24.5 45.999 41.5s21.666 36.167 27.999 57.5s9.5 42.666 9.5 63.999zM152.009 631.001c9.33301 0 17.165 -2.16699 23.498 -6.5s11.5 -10 15.5 -17s7 -14.5 9 -22.5s3 -16 3 -24
s-1 -16.333 -3 -25s-5 -16.667 -9 -24s-9.33301 -13.5 -16 -18.5s-14.667 -7.5 -24 -7.5s-17.166 2.33301 -23.499 7s-11.666 10.667 -15.999 18s-7.5 15.333 -9.5 24s-3 16.667 -3 24c0 8 1 16.167 3 24.5s5.16699 16 9.5 23s9.83301 12.833 16.5 17.5s14.667 7 24 7z
M485.008 231.001c18.667 0 32.167 -7.33301 40.5 -22s12.5 -30 12.5 -46c0 -8.66699 -0.833008 -17.5 -2.5 -26.5s-4.66699 -17.167 -9 -24.5s-10 -13.333 -17 -18s-15.5 -7 -25.5 -7c-9.33301 0 -17.333 2.16699 -24 6.5s-12 10 -16 17s-7 14.833 -9 23.5s-3 17 -3 25
s1 16.167 3 24.5s5 16 9 23s9.33301 12.833 16 17.5s15 7 25 7z" />
    <glyph glyph-name="ampersand" unicode="&#x26;" horiz-adv-x="711" 
d="M554 168l60.9961 71.999l13.5 16.5l19.5 23l17.5 20.5l7.5 9l-75 79l3 -6c-4 0 -9.5 -3 -16.5 -9s-14 -12.833 -21 -20.5s-13.5 -15.167 -19.5 -22.5s-10 -12.333 -12 -15c-1.33301 -2.66699 -4 -6.16699 -8 -10.5s-8.33301 -8.66602 -13 -12.999
s-9 -8.66602 -13 -12.999s-7 -7.83301 -9 -10.5l-129 125l13 6.5c8.66699 4.33301 18.667 10.166 30 17.499s23 16.333 35 27s21.333 22.334 28 35.001c16 29.333 24.833 57 26.5 83s-3.83301 53.667 -16.5 83c-12.667 30 -35 52.5 -67 67.5s-66.333 22.5 -103 22.5
c-25.333 0 -50.666 -3.33301 -75.999 -10s-48.166 -17 -68.499 -31s-37 -31.667 -50 -53s-19.5 -46.333 -19.5 -75c0 -25.333 6.16699 -48.833 18.5 -70.5s26.5 -41.834 42.5 -60.501c-20 -11.333 -38.5 -24.666 -55.5 -39.999s-32 -32.333 -45 -51
s-23.167 -38.667 -30.5 -60s-11 -43.666 -11 -66.999c0 -37.333 7.33301 -70.333 22 -99s34.334 -52.834 59.001 -72.501s53 -34.667 85 -45s65 -15.5 99 -15.5c40.667 0 77.834 8.16699 111.501 24.5s65.167 36.833 94.5 61.5l20 -19.5l34 -33l34.5 -32.5
c11 -10 18.167 -16.333 21.5 -19c11.333 -8.66699 24.833 -11 40.5 -7s27.834 12.667 36.501 26c5.33301 8 7.33301 16.667 6 26s-4.33301 18.166 -9 26.499s-9.83398 16 -15.501 23s-10.5 12.167 -14.5 15.5zM372.996 562.999c0 -8 -2.00195 -15.832 -6.00195 -23.499
s-9.16699 -14.667 -15.5 -21s-13.166 -12 -20.499 -17l-20 -13.5l-16.5 16c-6.33301 6 -12.166 12.167 -17.499 18.5s-10 13.166 -14 20.499s-6 15 -6 23c0 16 6.16699 28.167 18.5 36.5s25.5 12.5 39.5 12.5c14.667 0 28 -4.83301 40 -14.5s18 -22.167 18 -37.5z
M385.994 175c-13.333 -14.667 -29.667 -27.332 -49 -37.999s-39.333 -16 -60 -16c-14 0 -27.5 2.83301 -40.5 8.5s-24.5 13.167 -34.5 22.5s-18 20.5 -24 33.5s-9 26.5 -9 40.5c0 23.333 7.66699 44.666 23 63.999s33.333 34 54 44z" />
    <glyph glyph-name="quotesingle" unicode="'" horiz-adv-x="188" 
d="M153 720h-104l-21 -239h94z" />
    <glyph glyph-name="parenleft" unicode="(" horiz-adv-x="226" 
d="M10 365c0 -20.667 1.16406 -45.499 3.49707 -74.499s6.16602 -59.5 11.499 -91.5c3.33301 -22.667 7.5 -48.5 12.5 -77.5s11.5 -56.833 19.5 -83.5s17.833 -50.167 29.5 -70.5s25.5 -33.166 41.5 -38.499c2.66699 -0.666992 5 -1.33398 7 -2.00098s4.33301 -1 7 -1
c8 0 15.833 1.5 23.5 4.5s14.5 7.33301 20.5 13s11 12.167 15 19.5s6 15 6 23c0 11.333 -1.5 22.5 -4.5 33.5l-9.5 33.5c-14.667 51.333 -27 102.666 -37 153.999s-15 104 -15 158c0 27.333 1.83301 58.166 5.5 92.499s8.83398 67.166 15.501 98.499l10.5 49.5l11.5 53
l12 51c4 16.333 8.33301 30.5 13 42.5c0.666992 0 -4.66602 1.33301 -15.999 4s-24 5.83398 -38 9.50098s-26.833 6.83398 -38.5 9.50098l-17.5 4l-20.5 -55.5c-7 -19.667 -13.667 -40 -20 -61s-12.166 -42 -17.499 -63s-10 -41.167 -14 -60.5
c-5.33301 -28.667 -9.66602 -57.5 -12.999 -86.5s-5 -58.5 -5 -88.5z" />
    <glyph glyph-name="parenright" unicode=")" horiz-adv-x="219" 
d="M45 783c-12.667 -3.33301 -23 -10.002 -31 -20.002s-11.333 -21 -10 -33c0.666992 -6.66699 2.16699 -13.5 4.5 -20.5l7.5 -21.5c8 -26 15.667 -54 23 -84s13.666 -60.333 18.999 -91s9.5 -60.5 12.5 -89.5s4.5 -55.5 4.5 -79.5c0 -38.667 -2.5 -79.167 -7.5 -121.5
s-12.833 -82.166 -23.5 -119.499c-2.66699 -9.33301 -5.5 -20 -8.5 -32l-9 -37l-9 -37.5c-3 -12.333 -5.83301 -22.833 -8.5 -31.5c0 -2.66699 5 -6.16699 15 -10.5s21 -8.66602 33 -12.999s23.167 -8 33.5 -11l15.5 -4.5l11 24.5c7.33301 16.333 15.833 36.5 25.5 60.5
s19 50.167 28 78.5s15.5 54.5 19.5 78.5c5.33301 36 9.5 70 12.5 102s4.5 58.667 4.5 80c0 27.333 -1.33301 54.333 -4 81s-6.66699 53.334 -12 80.001l-13.5 67.5c-5 25 -11.5 50 -19.5 75s-17.5 48.333 -28.5 70s-23.833 38.834 -38.5 51.501
c-0.666992 0.666992 -2.66699 1.66699 -6 3s-7.16602 2.66602 -11.499 3.99902s-9 2.16602 -14 2.49902s-9.83301 -0.166992 -14.5 -1.5z" />
    <glyph glyph-name="asterisk" unicode="*" horiz-adv-x="393" 
d="M189 734c-11.333 0 -22.665 -3.83203 -33.998 -11.499s-17 -18.167 -17 -31.5c0 -14 2.66699 -28.667 8 -44s9.66602 -29.666 12.999 -42.999l-62 49l-5.5 3.5c-3.66699 2.33301 -6.5 3.5 -8.5 3.5c-2.66699 0 -7.66699 -1 -15 -3s-15 -4.33301 -23 -7s-15 -5.5 -21 -8.5
s-9 -5.83301 -9 -8.5c0 -1.33301 1.66699 -4.66602 5 -9.99902s7.16602 -11 11.499 -17s8.66602 -11.5 12.999 -16.5s7.16602 -7.83301 8.49902 -8.5l75 -32l-72 -33c-2 -0.666992 -5.16699 -3.5 -9.5 -8.5s-8.83301 -10.5 -13.5 -16.5s-8.83398 -11.667 -12.501 -17
s-5.5 -9 -5.5 -11c0 -2.66699 3.16699 -5.33398 9.5 -8.00098s13.5 -5.16699 21.5 -7.5s15.667 -4.33301 23 -6s12.333 -2.5 15 -2.5s7.66699 2.66699 15 8s14.833 11.166 22.5 17.499l21.5 18.5c6.66699 6 11.334 10 14.001 12c-1.33301 -2.66699 -3 -8.5 -5 -17.5
s-4 -18.833 -6 -29.5s-3.66699 -20.667 -5 -30s-2 -15.333 -2 -18c0 -4 1.83301 -8 5.5 -12s8 -7.33301 13 -10s10.5 -4.83398 16.5 -6.50098s11 -2.5 15 -2.5s9 0.833008 15 2.5s11.667 3.83398 17 6.50098s9.83301 6 13.5 10s5.5 8 5.5 12
c0 2.66699 -0.833008 8.66699 -2.5 18l-5.5 30c-2 10.667 -4 20.5 -6 29.5s-3.33301 14.833 -4 17.5c2 -2 6.5 -6 13.5 -12l22 -18.5l22 -17.5c7 -5.33301 12.167 -8 15.5 -8c2 0 6.83301 1.16699 14.5 3.5s15.5 5 23.5 8s15.167 5.83301 21.5 8.5l9.5 4l-5.5 8
c-3.66699 5.33301 -8 11.166 -13 17.499l-14 18c-4.33301 5.66699 -7.5 8.83398 -9.5 9.50098l-71 34l75 32c2 0.666992 6.16699 5.33398 12.5 14.001s11.833 16.667 16.5 24s7.33398 11.666 8.00098 12.999c-1.33301 0.666992 -6.5 3 -15.5 7l-30.5 13
c-11.333 4.66699 -18.666 7 -21.999 7c-1.33301 0 -4 -1.16699 -8 -3.5l-6 -3.5l-62 -49c3.33301 13.333 7.83301 27.666 13.5 42.999s8.5 30 8.5 44c0 13.333 -5.66699 23.833 -17 31.5s-23 11.5 -35 11.5z" />
    <glyph glyph-name="plus" unicode="+" horiz-adv-x="500" 
d="M232 602c-17.333 0 -31.999 -6.00195 -43.999 -18.002s-18 -26.667 -18 -44v-131h-173v-123h173v-134c0 -8.66699 1.66699 -16.667 5 -24s7.66602 -13.666 12.999 -18.999c12 -12 26.667 -18 44 -18c16.667 0 30.667 5.66699 42 17c12.667 11.333 19 26 19 44v133h32
c16 0 32.833 0.166992 50.5 0.5s34 1.5 49 3.5s25.167 5 30.5 9c8 6 15 12.833 21 20.5s9 16.834 9 27.501c0 10 -3 19 -9 27s-13 15 -21 21c-5.33301 4 -15.5 7 -30.5 9s-31.333 3.16699 -49 3.5s-34.5 0.5 -50.5 0.5h-32v133c0 16.667 -6 31.167 -18 43.5
s-26.333 18.5 -43 18.5z" />
    <glyph glyph-name="comma" unicode="," horiz-adv-x="244" 
d="M236 92l-136.999 63.998l-93 -210c-2.66699 -5.33301 -4.33398 -10.666 -5.00098 -15.999s-1 -10.666 -1 -15.999c-0 -19.333 6.83301 -36.333 20.5 -51s30.5 -22 50.5 -22c14 0 27.333 4 40 12s22 18.333 28 31z" />
    <glyph glyph-name="hyphen" unicode="-" horiz-adv-x="405" 
d="M347 369h-254.999c-6 0 -13.5 -1.16699 -22.5 -3.5s-17.5 -5.66602 -25.5 -9.99902s-15.167 -10 -21.5 -17s-10.166 -15.167 -11.499 -24.5c-1.33301 -8.66699 -0.833008 -17.334 1.5 -26.001s5.66602 -16.5 9.99902 -23.5s9.66602 -12.833 15.999 -17.5s12.5 -7 18.5 -7
h291z" />
    <glyph glyph-name="period" unicode="." horiz-adv-x="228" 
d="M170 71c0 24 -8.66699 44.5 -26 61.5s-38 25.5 -62 25.5s-44.667 -8.5 -62 -25.5s-26 -37.5 -26 -61.5c0 -12 2.33301 -23.333 7 -34s11.167 -19.834 19.5 -27.501s17.833 -13.834 28.5 -18.501s22 -7 34 -7s23.167 2.33301 33.5 7s19.5 10.834 27.5 18.501
s14.333 16.834 19 27.501s7 22 7 34z" />
    <glyph glyph-name="slash" unicode="/" horiz-adv-x="433" 
d="M414 726c0 2 -5.83301 5.83203 -17.5 11.499s-24.5 11.5 -38.5 17.5s-26.833 11.167 -38.5 15.5l-17.5 6.5c0 -0.666992 -1 -2.83398 -3 -6.50098l-7 -13.5c-2.66699 -5.33301 -4.33398 -9 -5.00098 -11l-272 -676c-1.33301 -2.66699 -3.5 -8.5 -6.5 -17.5
s-4.5 -15.167 -4.5 -18.5c0 -13.333 1.83301 -24 5.5 -32s9 -14 16 -18s15.333 -6.5 25 -7.5s20.5 -1.5 32.5 -1.5c2.66699 0 9.33398 9.83301 20.001 29.5s23 44.167 37 73.5l44.5 96.5l43.5 98l33.5 77.5c9 21.333 14.167 33.333 15.5 36
c0 0.666992 0.333008 1.33398 1 2.00098l10.5 25.5l25.5 62.5l32.5 80.5l32.5 81l25 62.5c6.66699 16.667 10 25.334 10 26.001z" />
    <glyph glyph-name="zero" unicode="0" horiz-adv-x="588" 
d="M8 360c0 -28 2.33203 -57 6.99902 -87s12.334 -59.167 23.001 -87.5s24.334 -54.833 41.001 -79.5s36.667 -46 60 -64c20.667 -15.333 43 -27.666 67 -36.999s50 -14 78 -14c28.667 0 55.167 4.66699 79.5 14s46.833 21.666 67.5 36.999c23.333 18 43.333 39.5 60 64.5
s30.167 51.833 40.5 80.5s17.833 58.167 22.5 88.5s7 59.833 7 88.5c0 28 -2.5 57 -7.5 87s-12.833 59.167 -23.5 87.5s-24.334 54.833 -41.001 79.5s-36.667 45.667 -60 63c-20.667 15.333 -43 27.333 -67 36s-50 13 -78 13s-54 -4.5 -78 -13.5s-46.333 -21.167 -67 -36.5
c-24 -18 -44.333 -39.5 -61 -64.5s-30.167 -51.667 -40.5 -80s-18 -57.5 -23 -87.5s-7.5 -59.333 -7.5 -88h1zM408.999 361c0 -19.333 -1.66504 -42.501 -4.99805 -69.501s-9.5 -52.833 -18.5 -77.5s-21.667 -45.667 -38 -63s-37.5 -26 -63.5 -26s-47.167 8.66699 -63.5 26
s-29 38.166 -38 62.499s-15 50 -18 77s-4.5 50.167 -4.5 69.5c0 18.667 1.66699 41.167 5 67.5s9.66602 51.833 18.999 76.5s22 45.667 38 63s36.667 26 62 26c26 0 47 -8.66699 63 -26s28.667 -38.166 38 -62.499s15.666 -49.666 18.999 -75.999s5 -48.833 5 -67.5z" />
    <glyph glyph-name="one" unicode="1" horiz-adv-x="391" 
d="M342 0l-0.000976562 642.999c0 22 -6.66699 40.333 -20 55s-31.666 22 -54.999 22h-162c-19.333 0 -35.833 -6.66699 -49.5 -20s-20.5 -29.666 -20.5 -48.999s7 -35.833 21 -49.5s30.667 -20.5 50 -20.5h77v-581h159z" />
    <glyph glyph-name="two" unicode="2" horiz-adv-x="580" 
d="M530 0l-0.000976562 140.001h-254l58.5 67c19.667 23.333 39.167 47.666 58.5 72.999l42 56c14.667 20 28 40.5 40 61.5s22 42.333 30 64s12 43.5 12 65.5c0 32 -6.66699 60.667 -20 86s-31 46.5 -53 63.5s-47.167 30 -75.5 39s-57.166 13.5 -86.499 13.5
c-70.667 0 -131.334 -23 -182.001 -69c-19.333 -18 -36 -39.5 -50 -64.5s-21 -52.5 -21 -82.5c0 -22 6.33301 -40.667 19 -56s30.667 -23 54 -23c12.667 0 24 4.33301 34 13c3.33301 2.66699 6 5.83398 8 9.50098s4.33301 7.16699 7 10.5c8 14 15.667 28.333 23 43
s15.833 28 25.5 40s21 21.833 34 29.5s29.167 11.5 48.5 11.5s36.5 -6.16699 51.5 -18.5s22.5 -28.5 22.5 -48.5c0 -12 -4.16699 -26.5 -12.5 -43.5s-18.666 -34.667 -30.999 -53s-25.5 -36.166 -39.5 -53.499l-38 -46l-14.5 -18l-22 -28l-26 -32.5l-24.5 -30.5l-18.5 -23.5
c-5 -6.33301 -7.83301 -9.83301 -8.5 -10.5l-34 -35.5l-34 -36.5c-5.33301 -6.66699 -9.83301 -13.834 -13.5 -21.501s-5.5 -16.167 -5.5 -25.5c0 -22.667 8.5 -39.334 25.5 -50.001s35.5 -16 55.5 -16h415z" />
    <glyph glyph-name="three" unicode="3" horiz-adv-x="587" 
d="M535 223c0 38.667 -10.3359 72.5 -31.0029 101.5s-48.334 51.833 -83.001 68.5c23.333 17.333 41.333 39.333 54 66s19 54.334 19 83.001s-5.83301 54.667 -17.5 78s-27.167 43 -46.5 59s-41.666 28.333 -66.999 37s-51.666 13 -78.999 13
c-49.333 0 -91.833 -10.5 -127.5 -31.5s-68.5 -47.833 -98.5 -80.5l1 -1c0.666992 -0.666992 1 -1.33398 1 -2.00098c0.666992 0 1.83398 -1.16699 3.50098 -3.5l5.5 -7.5c2 -2.66699 3.83301 -5.33398 5.5 -8.00098s2.83398 -4 3.50098 -4c0.666992 -0.666992 4 -5 10 -13
l19 -26.5l18.5 -26c5.66699 -7.66699 8.83398 -11.5 9.50098 -11.5l1 -1c4.66699 7.33301 13 15.5 25 24.5s25 17.333 39 25s27.833 14 41.5 19s25.167 7.5 34.5 7.5c18.667 0 34.5 -6.5 47.5 -19.5s19.5 -28.833 19.5 -47.5c0 -6 -1.33301 -11.5 -4 -16.5
s-5 -9.16699 -7 -12.5c-11.333 -14.667 -25.333 -25.667 -42 -33l-47.5 -20.5c-15 -6.33301 -27.167 -13.833 -36.5 -22.5s-12 -21.334 -8 -38.001c-1.33301 -1.33301 -1.5 -3.5 -0.5 -6.5s2.16699 -5.16699 3.5 -6.5c2 -11.333 6 -19.666 12 -24.999s12.667 -10.333 20 -15
c14.667 -9.33301 30.167 -16.5 46.5 -21.5s31.5 -10.667 45.5 -17s25.667 -14.5 35 -24.5s14 -24.333 14 -43c0 -27.333 -9.5 -49 -28.5 -65s-41.5 -24 -67.5 -24c-24.667 0 -44.5 5.66699 -59.5 17s-28.167 24 -39.5 38s-22.5 26.667 -33.5 38s-24.833 17 -41.5 17
c-20 0 -37 -7.33301 -51 -22s-21 -31.667 -21 -51c0 -8.66699 1.16699 -17.167 3.5 -25.5s5.16602 -16.166 8.49902 -23.499c9.33301 -20.667 22.5 -39 39.5 -55s36 -29.5 57 -40.5s43 -19.333 66 -25s45.167 -8.5 66.5 -8.5c32.667 0 64.667 5.66699 96 17
s59.333 27.166 84 47.499s44.5 44.833 59.5 73.5s22.5 60.334 22.5 95.001z" />
    <glyph glyph-name="four" unicode="4" horiz-adv-x="608" 
d="M581 229c0 13.333 -2.83008 24.333 -8.49707 33s-13 15.667 -22 21s-19.167 9.16602 -30.5 11.499s-22.333 3.5 -33 3.5v299c0 18.667 -2 36 -6 52s-10.333 30 -19 42s-20.334 21.333 -35.001 28s-32.334 10 -53.001 10c-23.333 0 -42.833 -5.5 -58.5 -16.5
s-29.834 -26.167 -42.501 -45.5l-247 -384c-5.33301 -7.33301 -10 -15.5 -14 -24.5s-6 -18.167 -6 -27.5c0 -13.333 2.66699 -24.5 8 -33.5s12.166 -16.167 20.499 -21.5s17.833 -9.16602 28.5 -11.499s21.667 -3.5 33 -3.5h233v-162h156v162c10.667 0 21.834 1 33.501 3
s22 5.66699 31 11s16.5 12.333 22.5 21s9 19.667 9 33zM328.003 299h-160l161 272z" />
    <glyph glyph-name="five" unicode="5" horiz-adv-x="568" 
d="M524 250c0 29.333 -5 57.001 -15 83.001s-24 48.667 -42 68s-39.667 34.666 -65 45.999s-53 17 -83 17c-13.333 0 -26.833 -1 -40.5 -3s-26.834 -5.33301 -39.501 -10l22 128h228l25 141h-308c-21.333 0 -38.666 -5.33301 -51.999 -16s-21.666 -26.667 -24.999 -48
l-42 -262c-0.666992 -3.33301 -1.16699 -6.83301 -1.5 -10.5s-0.5 -7.16699 -0.5 -10.5c0 -16.667 6.16699 -31.167 18.5 -43.5s26.833 -18.5 43.5 -18.5c8.66699 0 17.667 1.66699 27 5l28.5 10.5c9.66699 3.66699 19.5 7.16699 29.5 10.5s20.667 5 32 5
c29.333 0 53 -9 71 -27s27 -42 27 -72c0 -14 -2.5 -27.667 -7.5 -41s-12 -25.166 -21 -35.499s-19.833 -18.666 -32.5 -24.999s-26.334 -9.5 -41.001 -9.5c-17.333 0 -33.5 3 -48.5 9s-29.333 12.5 -43 19.5l-38.5 19.5c-12 6 -23 9 -33 9c-19.333 0 -36.333 -6.5 -51 -19.5
s-22 -29.833 -22 -50.5c0 -14 4 -27 12 -39s18.167 -22.667 30.5 -32s25.833 -17.5 40.5 -24.5s28.667 -12.5 42 -16.5c19.333 -6 38.833 -10.5 58.5 -13.5s38.167 -4.5 55.5 -4.5c56.667 0 106 13.833 148 41.5s73.333 67.167 94 118.5
c6.66699 15.333 11.5 31.666 14.5 48.999s4.5 34.666 4.5 51.999z" />
    <glyph glyph-name="six" unicode="6" horiz-adv-x="574" 
d="M529 243c0 28 -4.16699 54.668 -12.5 80.001s-20.166 47.833 -35.499 67.5s-34.5 35.834 -57.5 48.501s-48.833 20.334 -77.5 23.001c-14.667 1.33301 -28.834 1.16602 -42.501 -0.500977s-27.167 -4.5 -40.5 -8.5c8 15.333 17.5 32.166 28.5 50.499s23.333 37.333 37 57
s28.334 39.5 44.001 59.5l47.5 58l-21 10c-12.667 6 -26.334 12.833 -41.001 20.5l-40.5 21c-12.333 6.33301 -18.833 10.166 -19.5 11.499l-50 -63l-50 -63l-27.5 -35l-25.5 -35c-16 -22 -31.167 -44.833 -45.5 -68.5s-27 -48 -38 -73s-19.667 -50.833 -26 -77.5
s-9.5 -53.667 -9.5 -81c0 -37.333 6.16699 -71.666 18.5 -102.999s29.833 -58.333 52.5 -81s49.5 -40.334 80.5 -53.001s65.167 -19 102.5 -19c36 0 69.333 6.5 100 19.5s57 30.833 79 53.5s39.167 49.5 51.5 80.5s18.5 64.5 18.5 100.5zM275 132.001
c-14.667 0 -27.667 3.16602 -39 9.49902s-20.833 14.5 -28.5 24.5s-13.5 21.5 -17.5 34.5s-6 26.167 -6 39.5s2 26.333 6 39s9.83301 23.834 17.5 33.501s17.167 17.334 28.5 23.001s24.333 8.5 39 8.5s27.834 -3 39.501 -9s21.5 -14 29.5 -24s14.167 -21.5 18.5 -34.5
s6.5 -26.5 6.5 -40.5s-2.16699 -27.167 -6.5 -39.5s-10.5 -23.333 -18.5 -33s-17.833 -17.334 -29.5 -23.001s-24.834 -8.5 -39.501 -8.5z" />
    <glyph glyph-name="seven" unicode="7" horiz-adv-x="581" 
d="M537 650c0 21.333 -7.83008 38.166 -23.4971 50.499s-33.5 18.5 -53.5 18.5l-437 1v-140h326l-250 -475c-2.66699 -5.33301 -5 -11.166 -7 -17.499s-3 -12.833 -3 -19.5c0 -21.333 7.66699 -39.166 23 -53.499s33.666 -21.5 54.999 -21.5
c15.333 0 29.666 3.83301 42.999 11.5s23.666 18.5 30.999 32.5l288 582c5.33301 9.33301 8 19.666 8 30.999z" />
    <glyph glyph-name="eight" unicode="8" horiz-adv-x="596" 
d="M545 225c0 18 -2.33496 36 -7.00195 54s-11.667 34.833 -21 50.5s-21 29.334 -35 41.001s-30.333 20.5 -49 26.5c22.667 16 40.834 36.667 54.501 62s20.5 52 20.5 80c0 22 -3.66699 42.833 -11 62.5s-17.333 37.5 -30 53.5c-20.667 26.667 -46.834 46 -78.501 58
s-64.5 18 -98.5 18c-35.333 0 -69.333 -6 -102 -18s-59.667 -31.667 -81 -59c-12.667 -16 -22.667 -33.833 -30 -53.5s-11 -40.167 -11 -61.5c0 -29.333 6.83301 -56 20.5 -80s31.834 -44.667 54.501 -62c-18 -6 -34 -14.833 -48 -26.5s-25.667 -25.334 -35 -41.001
s-16.333 -32.5 -21 -50.5s-7 -36 -7 -54c0 -36.667 6.83301 -69.5 20.5 -98.5s32.334 -53.5 56.001 -73.5s51 -35.333 82 -46s63.833 -16 98.5 -16s67.5 5.33301 98.5 16s58.333 26 82 46s42.5 44.5 56.5 73.5s21 61.833 21 98.5zM211.998 530
c0 20.667 7.16699 38.334 21.5 53.001s32.166 22 53.499 22c20.667 0 38.5 -7.16699 53.5 -21.5s22.5 -32.166 22.5 -53.499c0 -20.667 -7.16699 -38.834 -21.5 -54.501s-32.166 -23.5 -53.499 -23.5s-39.333 7.66699 -54 23s-22 33.666 -22 54.999zM286.998 341
c14 0 27.002 -2.66699 39.002 -8s22.5 -12.5 31.5 -21.5s16 -19.667 21 -32s7.5 -25.5 7.5 -39.5s-2.33301 -27.5 -7 -40.5s-11.334 -24.5 -20.001 -34.5s-19.167 -18 -31.5 -24s-25.833 -9 -40.5 -9s-28 3 -40 9s-22.333 14 -31 24s-15.334 21.333 -20.001 34s-7 26 -7 40
c0 28 9 52 27 72s41.667 30 71 30z" />
    <glyph glyph-name="nine" unicode="9" horiz-adv-x="580" 
d="M532 473c0 37.333 -6.1709 71.6689 -18.5039 103.002s-29.666 58.333 -51.999 81s-49.166 40.334 -80.499 53.001s-65.666 19 -102.999 19s-71.333 -6.66699 -102 -20s-56.834 -31.5 -78.501 -54.5s-38.5 -50.333 -50.5 -82s-18 -65.834 -18 -102.501
c0 -28.667 4.16699 -55.334 12.5 -80.001s20.166 -46.334 35.499 -65.001s34 -33.834 56 -45.501s46.667 -19.167 74 -22.5c30.667 -3.33301 60.334 -1 89.001 7c-17.333 -25.333 -35.333 -50 -54 -74l-57 -71c-2 -2.66699 -5.5 -6.66699 -10.5 -12l-15.5 -17
c-5.33301 -6 -10.166 -12 -14.499 -18l-9.5 -13l68 -54c0.666992 0 2.83398 -1.83301 6.50098 -5.5l11.5 -11.5l11 -11c3.33301 -3.33301 5.33301 -4.66602 6 -3.99902c6 6.66699 18.167 19.334 36.5 38.001l59.5 62l61.5 68.5c19.667 23 34.5 42.167 44.5 57.5
c25.333 41.333 47 85.166 65 131.499s27 93.833 27 142.5zM374.996 481.003c0 -14 -1.83203 -27.501 -5.49902 -40.501s-9.33398 -24.5 -17.001 -34.5s-17.334 -18 -29.001 -24s-25.167 -9 -40.5 -9s-28.833 3 -40.5 9s-21.5 14 -29.5 24s-14 21.5 -18 34.5s-6 26.5 -6 40.5
s2.16699 27.333 6.5 40s10.5 23.834 18.5 33.501s17.833 17.5 29.5 23.5s24.834 9 39.501 9c14 0 26.667 -3 38 -9s21 -14 29 -24s14.167 -21.333 18.5 -34s6.5 -25.667 6.5 -39z" />
    <glyph glyph-name="colon" unicode=":" horiz-adv-x="229" 
d="M197 407c0 24.667 -8.66699 45.333 -26 62s-38 25 -62 25c-12 0 -23.167 -2.16699 -33.5 -6.5s-19.5 -10.5 -27.5 -18.5s-14.333 -17.333 -19 -28s-7 -22 -7 -34c0 -24 8.5 -44.5 25.5 -61.5s37.5 -25.5 61.5 -25.5s44.667 8.5 62 25.5s26 37.5 26 61.5zM198 70.999
c0 24 -8.66699 44.5 -26 61.5s-38 25.5 -62 25.5s-44.667 -8.5 -62 -25.5s-26 -37.5 -26 -61.5c0 -12 2.33301 -23.333 7 -34s11.167 -19.834 19.5 -27.501s17.833 -13.834 28.5 -18.501s22 -7 34 -7s23.167 2.33301 33.5 7s19.5 10.834 27.5 18.501
s14.333 16.834 19 27.501s7 22 7 34z" />
    <glyph glyph-name="semicolon" unicode=";" horiz-adv-x="242" 
d="M144 496c-24.667 0 -45.6689 -8.5 -63.002 -25.5s-26 -37.833 -26 -62.5c0 -25.333 8.83301 -46.333 26.5 -63s38.834 -25 63.501 -25c12 0 23.167 2.33301 33.5 7s19.333 11 27 19s13.834 17.333 18.501 28s7 22 7 34c0 24 -8.5 44.667 -25.5 62s-37.5 26 -61.5 26z
M238.998 101l-137.001 64l-101 -219c-4.66699 -10.667 -7 -21 -7 -31c0 -20 6.83301 -37.333 20.5 -52s30.834 -22 51.501 -22c14 0 27.333 4 40 12s22 18.333 28 31z" />
    <glyph glyph-name="less" unicode="&#x3c;" horiz-adv-x="488" 
d="M447 125v117l-225 118l225 119v117l-422 -236z" />
    <glyph glyph-name="equal" unicode="=" horiz-adv-x="590" 
d="M538 258c0 17.333 -6 32.001 -18 44.001s-26.667 18 -44 18h-445v-122h445c16.667 0 31.167 5.66699 43.5 17s18.5 25.666 18.5 42.999zM538 428.001c0 17.333 -6 32.001 -18 44.001s-26.667 18 -44 18h-445v-122h445c16.667 0 31.167 5.66699 43.5 17
s18.5 25.666 18.5 42.999z" />
    <glyph glyph-name="greater" unicode="&#x3e;" horiz-adv-x="455" 
d="M431 360l-422 236v-118l225 -118l-225 -119v-117z" />
    <glyph glyph-name="question" unicode="?" horiz-adv-x="478" 
d="M463 536c0 34 -6.82812 63.4971 -20.4951 88.4971s-31.834 46 -54.501 63s-48.5 29.667 -77.5 38s-58.833 12.5 -89.5 12.5c-14.667 0 -30.167 -1.5 -46.5 -4.5s-32.333 -7.33301 -48 -13s-30.834 -12.834 -45.501 -21.501s-28 -19 -40 -31s-22.167 -25.5 -30.5 -40.5
s-12.5 -31.167 -12.5 -48.5c0 -18 5.5 -34 16.5 -48s26.167 -21 45.5 -21c13.333 0 23.666 3.33301 30.999 10s14.333 14.334 21 23.001l1 1c13.333 17.333 29.333 31 48 41s39.667 15 63 15c21.333 0 40.166 -5.83301 56.499 -17.5s24.5 -29.167 24.5 -52.5
c0 -16 -3.83301 -28.5 -11.5 -37.5s-17.334 -16.333 -29.001 -22s-24.167 -10.334 -37.5 -14.001s-25.833 -8.16699 -37.5 -13.5s-21.334 -12.333 -29.001 -21s-11.5 -20.667 -11.5 -36v-190l42 1h111l-1 154c23.333 4.66699 44.833 12.334 64.5 23.001
s36.834 23.834 51.501 39.501s26 33.834 34 54.501s12 43.334 12 68.001zM224.005 156.997c-24 0 -44.5 -8.50195 -61.5 -25.502s-25.5 -37.5 -25.5 -61.5s8.66699 -44.333 26 -61s38 -25 62 -25s44.5 8.33301 61.5 25s25.5 37.334 25.5 62.001s-8.5 45.334 -25.5 62.001
s-37.833 25 -62.5 25v-1z" />
    <glyph glyph-name="at" unicode="@" horiz-adv-x="706" 
d="M653 272c0 44.667 -7.83301 85.668 -23.5 123.001s-37.5 69.666 -65.5 96.999s-61 48.666 -99 63.999s-79 23 -123 23c-52.667 0 -101.334 -9.83301 -146.001 -29.5s-83.5 -46.334 -116.5 -80.001s-58.833 -73.334 -77.5 -119.001s-28 -94.5 -28 -146.5
c0 -50 9 -97.667 27 -143s42.833 -85.166 74.5 -119.499s69.334 -61.666 113.001 -81.999s91.167 -30.5 142.5 -30.5v51h-8c-4 0 -9.33301 0.333008 -16 1s-11.667 1.66699 -15 3c-58.667 9.33301 -106.334 30.833 -143.001 64.5s-65.667 78.5 -87 134.5
c-14 36.667 -21 75.667 -21 117c0 44 7.33301 85.5 22 124.5s35.5 73.333 62.5 103s59 53.167 96 70.5s78.167 26 123.5 26c37.333 0 71.333 -6.33301 102 -19s57 -30.5 79 -53.5s39 -50.167 51 -81.5s18 -65.333 18 -102c0 -15.333 -1.16699 -31.333 -3.5 -48
s-6 -33.334 -11 -50.001s-11.167 -32.5 -18.5 -47.5s-16.333 -28.167 -27 -39.5c-8.66699 -9.33301 -18.667 -19.166 -30 -29.499s-24 -15.5 -38 -15.5c-15.333 0 -26.166 5.66699 -32.499 17s-9.5 23.666 -9.5 36.999c0 20 1.66699 40.333 5 61l10 60l18.5 105l19.5 105
h-52l-8 -52c-6 19.333 -17.667 34.166 -35 44.499s-35.666 15.5 -54.999 15.5c-30.667 0 -57.5 -9 -80.5 -27s-42.167 -40.167 -57.5 -66.5s-26.833 -54.833 -34.5 -85.5s-11.5 -59 -11.5 -85c0 -19.333 2.33301 -39.166 7 -59.499s12 -38.833 22 -55.5s23 -30.167 39 -40.5
s35.667 -15.5 59 -15.5c24 0 45.167 7.33301 63.5 22s31.833 32.667 40.5 54c-0.666992 -12 1.16602 -23.167 5.49902 -33.5s10.5 -19 18.5 -26s17.167 -12.5 27.5 -16.5s21.5 -6 33.5 -6c32 0 60 9.66699 84 29s44.167 43.333 60.5 72s28.5 59.334 36.5 92.001
s12 62.334 12 89.001zM397 308.001c0 -13.333 -1.66797 -31.6689 -5.00098 -55.002s-8.16602 -47.333 -14.499 -72s-14.166 -48.167 -23.499 -70.5s-20.333 -39.5 -33 -51.5c-6 -5.33301 -12.833 -9.83301 -20.5 -13.5s-15.834 -5.5 -24.501 -5.5
c-14.667 0 -26.667 3.5 -36 10.5s-16.5 15.833 -21.5 26.5s-8.33301 22.334 -10 35.001s-2.5 25 -2.5 37c0 18 2.16699 40.333 6.5 67s11.5 52.667 21.5 78s23 47 39 65s35.667 27 59 27c22 0 38.333 -8.16699 49 -24.5s16 -34.166 16 -53.499z" />
    <glyph glyph-name="A" unicode="A" horiz-adv-x="652" 
d="M654 24l-230.001 613c-10.667 28 -25.667 50 -45 66s-44.666 24 -75.999 24c-29.333 0 -53.666 -8.5 -72.999 -25.5s-34 -38.5 -44 -64.5l-201 -530c-2.66699 -6.66699 -4.83398 -13.5 -6.50098 -20.5s-2.5 -14.167 -2.5 -21.5c0 -22 7.83301 -40.167 23.5 -54.5
s34.167 -21.5 55.5 -21.5c9.33301 0 17.833 2 25.5 6s14.167 9 19.5 15c4.66699 2 10.167 8.33301 16.5 19s12.5 22.5 18.5 35.5s11.5 25.667 16.5 38s8.5 21.5 10.5 27.5h287l49 -147zM401.999 267h-195l98 293z" />
    <glyph glyph-name="B" unicode="B" horiz-adv-x="593" 
d="M551 215c0 32 -7.33398 61.499 -22.001 88.499s-35.334 48.167 -62.001 63.5c-5.33301 3.33301 -12.833 7 -22.5 11s-17.167 6.66699 -22.5 8c22.667 14.667 39.834 33.5 51.501 56.5s17.5 48.5 17.5 76.5c0 31.333 -6.33301 59.5 -19 84.5s-29.5 46.167 -50.5 63.5
s-45.167 30.5 -72.5 39.5s-55.666 13.5 -84.999 13.5h-160c-23.333 0 -42.833 -7.66699 -58.5 -23s-23.5 -34.666 -23.5 -57.999v-640c15.333 0.666992 36.666 1 63.999 1h86h86h65c31.333 0 60.833 5.16699 88.5 15.5s51.834 24.833 72.501 43.5s37 41.167 49 67.5
s18 55.833 18 88.5zM181.999 581.999l76 0.000976562c10 0 19.833 -1.83301 29.5 -5.5s18.167 -8.66699 25.5 -15s13.333 -13.833 18 -22.5s7 -18.334 7 -29.001c0 -11.333 -2.5 -21.5 -7.5 -30.5s-11.5 -16.833 -19.5 -23.5s-17 -11.667 -27 -15s-20.333 -5 -31 -5h-71v146
zM180.999 305l124.001 -0.000976562c11.333 0 22.166 -2.16699 32.499 -6.5s19.5 -10.333 27.5 -18s14.333 -16.5 19 -26.5s7 -21 7 -33s-2.33301 -23 -7 -33s-11 -18.667 -19 -26s-17.333 -13.166 -28 -17.499s-21.667 -6.5 -33 -6.5h-123v167z" />
    <glyph glyph-name="C" unicode="C" horiz-adv-x="616" 
d="M592 117c0 19.333 -6.66504 35.499 -19.998 48.499s-29.666 19.5 -48.999 19.5c-10.667 0 -21.667 -2.5 -33 -7.5l-38 -16.5c-14 -6 -29.333 -11.5 -46 -16.5s-35.334 -7.5 -56.001 -7.5c-31.333 0 -58.833 6.33301 -82.5 19s-43.334 29.334 -59.001 50.001
s-27.334 44.5 -35.001 71.5s-11.5 55.167 -11.5 84.5c0 27.333 3.83301 53.5 11.5 78.5s18.834 47.333 33.501 67s32.5 36.167 53.5 49.5s45.167 22.666 72.5 27.999c10 2 20.667 3 32 3c31.333 0 59.833 -5.66699 85.5 -17s50.167 -26.333 73.5 -45l56 113
c-14 12 -30.667 23.333 -50 34s-40 20 -62 28s-44.167 14.333 -66.5 19s-43.166 7 -62.499 7h-11c-4 0 -7.66699 -0.333008 -11 -1c-47.333 -4.66699 -90.166 -17.667 -128.499 -39s-71.333 -48.5 -99 -81.5s-49 -70.833 -64 -113.5s-22.5 -87.334 -22.5 -134.001
c0 -40 6.16699 -78.667 18.5 -116s29.166 -71.666 50.499 -102.999c32 -47.333 72.833 -83.666 122.5 -108.999s105.167 -38 166.5 -38c15.333 0 31.666 1 48.999 3s34.666 5.33301 51.999 10s34 10.667 50 18s30.333 16.333 43 27c9.33301 8 17.833 17.5 25.5 28.5
s11.5 23.833 11.5 38.5z" />
    <glyph glyph-name="D" unicode="D" horiz-adv-x="661" 
d="M627 364c0 13.333 -0.500977 26.5 -1.50098 39.5s-2.83301 26.167 -5.5 39.5c-9.33301 44 -24.5 83.167 -45.5 117.5s-47 63.333 -78 87s-66 41.667 -105 54s-81.167 18.5 -126.5 18.5h-54h-73h-73c-23.333 0 -41 0.333008 -53 1v-642c0 -22.667 8 -41.5 24 -56.5
s35.333 -22.5 58 -22.5h187c52.667 -0 100.334 9.33301 143.001 28s79 44.334 109 77.001s53.167 71.167 69.5 115.5s24.5 92.166 24.5 143.499zM262.999 581c31.333 0 59.501 -5.66699 84.501 -17s46.333 -27 64 -47s31.167 -43.333 40.5 -70s14 -55 14 -85
c0 -30.667 -4.33301 -59.5 -13 -86.5s-21.5 -50.667 -38.5 -71s-37.833 -36.5 -62.5 -48.5s-53.334 -18 -86.001 -18h-95v443h92z" />
    <glyph glyph-name="E" unicode="E" horiz-adv-x="484" 
d="M100 0h346v140h-266v151h165c19.333 0 36.166 6.5 50.499 19.5s21.5 29.5 21.5 49.5c0 19.333 -6.66699 35 -20 47c-7.33301 6.66699 -15.5 12 -24.5 16s-18.833 6 -29.5 6h-163v151h183c19.333 0 35.833 6.83301 49.5 20.5s20.5 30.167 20.5 49.5
s-6.66699 35.833 -20 49.5s-29.666 20.5 -48.999 20.5h-154h-32h-63c-22.667 0 -43.5 0.166992 -62.5 0.5s-29.5 0.5 -31.5 0.5v-639c0 -10.667 2 -21 6 -31s9.5 -18.667 16.5 -26s15.333 -13.333 25 -18s20.167 -7 31.5 -7z" />
    <glyph glyph-name="F" unicode="F" horiz-adv-x="452" 
d="M418 580v141h-316c-23.333 0 -43 -7.66699 -59 -23s-24 -35 -24 -59v-639h160v284h162c19.333 0 36 6.5 50 19.5s21 29.167 21 48.5s-7 36 -21 50s-30.667 21 -50 21h-161v157h238z" />
    <glyph glyph-name="G" unicode="G" horiz-adv-x="736" 
d="M701 325c0 32 -6.1709 56.666 -18.5039 73.999s-35.5 26 -69.5 26h-170c-18.667 0 -35.167 -6.83301 -49.5 -20.5s-21.5 -30.167 -21.5 -49.5c0 -20 7 -36.833 21 -50.5s31 -20.5 51 -20.5h93c-3.33301 -20.667 -9.33301 -40.334 -18 -59.001
s-19.834 -35.167 -33.501 -49.5s-30 -25.666 -49 -33.999s-40.167 -12.5 -63.5 -12.5c-33.333 0 -62.666 6.16699 -87.999 18.5s-46.666 29 -63.999 50s-30.333 45.333 -39 73s-13 57.167 -13 88.5c0 30 4.33301 59 13 87s21.5 52.667 38.5 74s37.833 38.5 62.5 51.5
s53.334 19.5 86.001 19.5c18 0 34.5 -1.83301 49.5 -5.5s29.5 -8.5 43.5 -14.5s27.667 -12.833 41 -20.5l41 -24.5l63 126c-34 23.333 -70.167 41.833 -108.5 55.5s-78.166 20.5 -119.499 20.5c-53.333 0 -102.666 -9.33301 -147.999 -28s-84.333 -44.667 -117 -78
s-58.167 -72.833 -76.5 -118.5s-27.5 -95.167 -27.5 -148.5c0 -54 9.16699 -103.333 27.5 -148s43.833 -83 76.5 -115s71.5 -56.833 116.5 -74.5s94.5 -26.5 148.5 -26.5c49.333 0 93.833 8.5 133.5 25.5s73.5 40.333 101.5 70s49.5 64.834 64.5 105.501s22.5 85 22.5 133z
" />
    <glyph glyph-name="H" unicode="H" horiz-adv-x="709" 
d="M654 70l-0.000976562 650.999l-160 -2v-283h-305v212c0 22.667 -7.33301 41.334 -22 56.001c-14.667 16 -33.667 24 -57 24c-22 0 -40.833 -7.83301 -56.5 -23.5s-23.5 -34.5 -23.5 -56.5v-648h159v299h306v-230c0 -10.667 2.16699 -20.667 6.5 -30s10 -17.5 17 -24.5
s15.333 -12.667 25 -17s19.834 -6.5 30.501 -6.5c22 0 40.833 7.66699 56.5 23s23.5 34 23.5 56z" />
    <glyph glyph-name="I" unicode="I" horiz-adv-x="210" 
d="M97 870c-15.333 0 -28.5 -5.5 -39.5 -16.5s-16.5 -24.167 -16.5 -39.5c0 -16 5.66699 -29.5 17 -40.5s24.666 -16.5 39.999 -16.5s28.5 5.5 39.5 16.5s16.5 24.5 16.5 40.5c0 15.333 -5.66699 28.5 -17 39.5s-24.666 16.5 -39.999 16.5zM181 -1v649
c0 21.333 -7.66699 39.833 -23 55.5s-34 23.5 -56 23.5c-21.333 0 -40 -7.66699 -56 -23s-24 -34 -24 -56v-649h159z" />
    <glyph glyph-name="J" unicode="J" horiz-adv-x="417" 
d="M387 217l-0.000976562 430.999c0 21.333 -7.5 40 -22.5 56s-33.5 24 -55.5 24s-40.667 -7.83301 -56 -23.5s-23 -34.167 -23 -55.5v-437c0 -10.667 -1 -21.167 -3 -31.5s-5.33301 -19.666 -10 -27.999s-11.167 -15.166 -19.5 -20.499s-18.833 -8 -31.5 -8
c-7.33301 0 -16 1.5 -26 4.5s-20.5 6.66699 -31.5 11l-32 13c-10.333 4.33301 -19.166 7.5 -26.499 9.5l-35 -127c25.333 -10.667 51.833 -20.834 79.5 -30.501s55.5 -14.5 83.5 -14.5c34 0 64 5.83301 90 17.5s47.833 27.667 65.5 48s31 44.333 40 72s13.5 57.5 13.5 89.5z
" />
    <glyph glyph-name="K" unicode="K" horiz-adv-x="677" 
d="M618 69c0 20.667 -7.33301 39 -22 55l-253 259l255 242l-116 106l-287 -289v207c0 22 -7.66699 40.833 -23 56.5s-34 23.5 -56 23.5s-40.833 -7.66699 -56.5 -23s-23.5 -34 -23.5 -56v-650h159v323l284 -305c16 -17.333 36 -26 60 -26c21.333 0 39.833 7.33301 55.5 22
s23.5 33 23.5 55z" />
    <glyph glyph-name="L" unicode="L" horiz-adv-x="462" 
d="M418 0l-1 140h-230v508c0 22 -7.66699 41 -23 57s-34 24 -56 24s-40.833 -8 -56.5 -24s-23.5 -35 -23.5 -57v-603c0 -10 3.16699 -18.167 9.5 -24.5s13.833 -11 22.5 -14s17 -5 25 -6s14 -1.5 18 -1.5z" />
    <glyph glyph-name="M" unicode="M" horiz-adv-x="908" 
d="M865 18l-102.005 619.999c-4.66699 28 -17.167 50.167 -37.5 66.5s-44.5 24.5 -72.5 24.5c-25.333 0 -47.166 -7.33301 -65.499 -22s-31.166 -34 -38.499 -58l-115 -393l-114 393c-7.33301 24 -20.166 43.333 -38.499 58s-40.166 22 -65.499 22
c-28 0 -52.167 -8.16699 -72.5 -24.5s-32.833 -38.5 -37.5 -66.5l-93 -551c-0.666992 -3.33301 -1 -6.66602 -1 -9.99902v-9c0 -22 7.5 -40.167 22.5 -54.5s33.167 -21.5 54.5 -21.5c20.667 0 38.334 6.5 53.001 19.5s23.667 29.5 27 49.5l61 437l134 -448h142l134 448
l70 -506z" />
    <glyph glyph-name="N" unicode="N" horiz-adv-x="720" 
d="M661 70l0.000976562 577.998c0 10.667 -2.16699 20.834 -6.5 30.501s-10 18.167 -17 25.5s-15.5 13.166 -25.5 17.499s-20.333 6.5 -31 6.5s-20.834 -2.16699 -30.501 -6.5s-18 -10.166 -25 -17.499s-12.667 -16 -17 -26s-6.5 -20.333 -6.5 -31v-385l-320 430
c-8 10.667 -17.833 19.5 -29.5 26.5s-24.167 10.5 -37.5 10.5c-22.667 0 -41.667 -8 -57 -24s-23 -35 -23 -57v-648h159v462l325 -441c7.33301 -9.33301 16.5 -16.666 27.5 -21.999s22.5 -8 34.5 -8c22.667 0 41.667 7.66699 57 23s23 34 23 56z" />
    <glyph glyph-name="O" unicode="O" horiz-adv-x="761" 
d="M369 730c-51.333 0 -98.333 -9.99902 -141 -29.999s-79.5 -46.833 -110.5 -80.5s-55.167 -72.834 -72.5 -117.501s-26 -92 -26 -142c0 -49.333 8.66699 -96.333 26 -141s41.333 -84 72 -118s67.334 -61 110.001 -81s89.667 -30 141 -30c50.667 0 97.334 10 140.001 30
s79.5 47 110.5 81s55 73.333 72 118s25.5 91.667 25.5 141s-8.5 96.333 -25.5 141s-40.833 84 -71.5 118s-67.334 61 -110.001 81s-89.334 30 -140.001 30zM555 355.001c0 -28.667 -3.99805 -56.501 -11.998 -83.501s-19.833 -51 -35.5 -72s-35.334 -38 -59.001 -51
s-51.167 -19.5 -82.5 -19.5s-58.666 6.83301 -81.999 20.5s-42.666 31.5 -57.999 53.5s-26.666 46.667 -33.999 74s-11 55 -11 83s3.66699 55.667 11 83s18.666 52 33.999 74s34.666 39.833 57.999 53.5s50.666 20.5 81.999 20.5c32.667 0 61 -6.83301 85 -20.5
s43.667 -31.667 59 -54s26.666 -47.666 33.999 -75.999s11 -56.833 11 -85.5z" />
    <glyph glyph-name="P" unicode="P" horiz-adv-x="558" 
d="M535 480c0 12.667 -1.00293 25.6641 -3.00293 38.9971c-8 48.667 -28 88.834 -60 120.501s-70.333 52.167 -115 61.5c-60.667 13.333 -123.334 20 -188.001 20l-165 -1v-647c0 -22 7.83301 -41 23.5 -57s34.834 -24 57.501 -24c13.333 0 25 3.83301 35 11.5
s18.667 16.5 26 26.5c4.66699 6.66699 8.33398 19.834 11.001 39.501s4.33398 40.834 5.00098 63.501s1 44 1 64v42h27h40c14.667 0 28.334 0.166992 41.001 0.5s22 0.833008 28 1.5c33.333 2 64.5 9.16699 93.5 21.5s54 28.833 75 49.5s37.5 45.167 49.5 73.5
s18 59.833 18 94.5zM163.997 579.997l112 -0.000976562c14 0 27.167 -2.66699 39.5 -8s23.166 -12.5 32.499 -21.5s16.666 -19.667 21.999 -32s8 -25.5 8 -39.5s-2.66699 -27 -8 -39s-12.666 -22.667 -21.999 -32s-20.166 -16.666 -32.499 -21.999s-25.5 -8 -39.5 -8h-112
v202z" />
    <glyph glyph-name="Q" unicode="Q" horiz-adv-x="834" 
d="M779 30l-118.999 117.003c22 32 38 65.667 48 101s15 72.333 15 111c0 49.333 -8.5 96.333 -25.5 141s-40.833 84 -71.5 118s-67.334 61 -110.001 81s-89.667 30 -141 30s-98.166 -9.83301 -140.499 -29.5s-79 -46.334 -110 -80.001s-55 -72.834 -72 -117.501
s-25.5 -91.667 -25.5 -141s8.5 -96.333 25.5 -141s41 -84 72 -118s67.667 -61.167 110 -81.5s89.166 -30.5 140.499 -30.5c34 0 66.5 5.16699 97.5 15.5s60.5 25.166 88.5 44.499l120 -121zM562.001 363.003c0 -20.667 -1.67676 -40.6699 -5.00977 -60.0029
s-9 -38.666 -17 -57.999c-3.33301 0 -7.16602 1.16699 -11.499 3.5l-14.5 7.5c-5.33301 2.66699 -10.666 4.66699 -15.999 6s-10.333 1.33301 -15 0c-6.66699 -1.33301 -12.5 -4.66602 -17.5 -9.99902s-8.16699 -11.333 -9.5 -18
c-1.33301 -5.33301 -1.16602 -11.166 0.500977 -17.499s3.83398 -12.5 6.50098 -18.5s5.33398 -11.5 8.00098 -16.5s4.33398 -9.5 5.00098 -13.5c-27.333 -26 -60.666 -39 -99.999 -39c-32.667 0 -60.834 6.83301 -84.501 20.5s-43.167 31.667 -58.5 54
s-26.666 47.5 -33.999 75.5s-11 56.333 -11 85c0 28 3.83301 55.5 11.5 82.5s19.334 51.167 35.001 72.5s35 38.666 58 51.999s50.167 20 81.5 20s58.833 -6.5 82.5 -19.5s43.334 -30.167 59.001 -51.5s27.334 -45.666 35.001 -72.999s11.5 -55.333 11.5 -84z" />
    <glyph glyph-name="R" unicode="R" horiz-adv-x="645" 
d="M586 59l-209 245.004l11.5 2c3.66699 0.666992 7.5 1.66699 11.5 3c22 6 42.5 14.167 61.5 24.5s35.5 23.166 49.5 38.499s25 33 33 53s12 43 12 69c0 35.333 -6.33301 66.166 -19 92.499s-30 48.5 -52 66.5s-47.667 32.5 -77 43.5s-60.666 19.167 -93.999 24.5
c-6 0.666992 -16 1.16699 -30 1.5s-30.333 0.333008 -49 0l-58.5 -1l-58.5 -1c-18.667 -0.333008 -35.334 -0.5 -50.001 -0.5c-14 0 -24 0.333008 -30 1v-650c0 -10.667 2.16699 -20.834 6.5 -30.501s10 -18.334 17 -26.001s15.333 -13.667 25 -18s20.167 -6.5 31.5 -6.5
c21.333 0 39.833 7.83301 55.5 23.5s23.5 34.167 23.5 55.5v227l259 -325zM397 493.004c0 -22.667 -8.16895 -42.167 -24.502 -58.5s-35.833 -24.5 -58.5 -24.5h-117v170h113c12 0 23.333 -2.33301 34 -7s19.834 -11 27.501 -19s13.834 -17.167 18.501 -27.5
s7 -21.5 7 -33.5z" />
    <glyph glyph-name="S" unicode="S" horiz-adv-x="553" 
d="M538 230c0 36 -8.1709 66.1631 -24.5039 90.4961s-37.166 44.666 -62.499 60.999s-53.166 29.833 -83.499 40.5s-59.5 20.334 -87.5 29.001c-9.33301 2.66699 -19.5 6 -30.5 10s-21.333 8.83301 -31 14.5s-17.667 12.667 -24 21s-9.5 18.5 -9.5 30.5
c0 10 2.5 18.833 7.5 26.5s11.333 14.334 19 20.001s16.167 9.83398 25.5 12.501s18.333 4 27 4c16 0 31.167 -2.16699 45.5 -6.5s28.166 -9 41.499 -14l38.5 -14c12.333 -4.33301 24.5 -6.5 36.5 -6.5c18.667 0 34.167 6.83301 46.5 20.5s18.5 29.5 18.5 47.5
c0 20.667 -7.5 38.167 -22.5 52.5s-33.167 25.833 -54.5 34.5s-43.666 14.834 -66.999 18.501s-43 5.5 -59 5.5c-31.333 0 -62.666 -4.66699 -93.999 -14s-59.5 -23.333 -84.5 -42s-45.333 -41.5 -61 -68.5s-23.5 -57.833 -23.5 -92.5c0 -39.333 8.66699 -70.833 26 -94.5
s39.333 -43 66 -58s55.5 -27.167 86.5 -36.5s60.167 -19.333 87.5 -30c6.66699 -2.66699 14.834 -6.16699 24.501 -10.5s18.834 -9.33301 27.501 -15s16.167 -12.167 22.5 -19.5s9.5 -15.333 9.5 -24c0 -13.333 -3 -25.666 -9 -36.999s-14 -21 -24 -29
s-21.333 -14.167 -34 -18.5s-25.334 -6.5 -38.001 -6.5c-21.333 0 -42.5 3.16699 -63.5 9.5s-42.5 13.5 -64.5 21.5c-6.66699 2 -15 4.83301 -25 8.5l-30.5 11l-29 10.5c-9 3.33301 -15.5 6 -19.5 8v-1c-1.33301 -1.33301 -2 -3.33301 -2 -6
c-1.33301 -3.33301 -2.83301 -8 -4.5 -14s-3.16699 -10.667 -4.5 -14c-1.33301 -5.33301 -3.5 -12.833 -6.5 -22.5l-9 -30.5l-9 -30.5c-3 -9.66699 -4.83301 -17.167 -5.5 -22.5c16 -8 35.833 -16 59.5 -24s48.167 -15.333 73.5 -22s50 -12.167 74 -16.5
s44.667 -6.5 62 -6.5c44.667 0 86.5 8.66699 125.5 26s72.167 43.666 99.5 78.999c14.667 19.333 26.167 40.333 34.5 63s12.5 46.334 12.5 71.001z" />
    <glyph glyph-name="T" unicode="T" horiz-adv-x="515" 
d="M498 649c0 19.333 -6.66699 36 -20 50s-30 21 -50 21h-429l1 -139h158v-510c0 -21.333 7.83301 -39.833 23.5 -55.5s34.167 -23.5 55.5 -23.5c22 0 40.667 7.66699 56 23s23 34 23 56v510h112c18.667 0 35 6.5 49 19.5s21 29.167 21 48.5z" />
    <glyph glyph-name="U" unicode="U" horiz-adv-x="724" 
d="M666 289v358c0 22 -7.83301 41 -23.5 57s-34.5 24 -56.5 24s-40.667 -7.83301 -56 -23.5s-23 -34.5 -23 -56.5v-363c0 -48 -14.333 -86.333 -43 -115s-67 -43 -115 -43s-86.333 14.333 -115 43s-43 67 -43 115v437h-159v-433c0 -46.667 8 -88.334 24 -125.001
s38.167 -67.834 66.5 -93.501s61.833 -45.334 100.5 -59.001s80.667 -20.5 126 -20.5s87.333 6.83301 126 20.5s72.167 33.334 100.5 59.001s50.5 56.834 66.5 93.501s24 78.334 24 125.001z" />
    <glyph glyph-name="V" unicode="V" horiz-adv-x="595" 
d="M606 650c0 10.667 -2.16504 20.833 -6.49805 30.5s-10.333 18 -18 25s-16.334 12.5 -26.001 16.5s-19.834 6 -30.501 6c-17.333 0 -32.5 -5.16699 -45.5 -15.5s-22.5 -23.5 -28.5 -39.5l-154 -439l-181 496l-148 -56l251 -623c7.33301 -17.333 16.833 -31.833 28.5 -43.5
s27.5 -17.5 47.5 -17.5c22 0 38.833 5.33301 50.5 16s21.167 25.667 28.5 45l225 567c4.66699 11.333 7 22 7 32z" />
    <glyph glyph-name="W" unicode="W" horiz-adv-x="913" 
d="M896 648c0 22.667 -8.00293 41.666 -24.0029 56.999s-35 23 -57 23c-21.333 0 -38.666 -6.83301 -51.999 -20.5s-22 -30.167 -26 -49.5l-91 -438l-127 447h-145l-127 -447l-106 507l-156 -26l136 -620c6 -28 18.167 -50 36.5 -66s42.5 -24 72.5 -24
c24.667 0 46.334 7 65.001 21s31.667 33 39 57l113 388l113 -388c7.33301 -23.333 20.333 -42.166 39 -56.499s40.334 -21.5 65.001 -21.5c30 0 54.167 8.16699 72.5 24.5s30.5 38.5 36.5 66.5l121 550c1.33301 6.66699 2 12 2 16z" />
    <glyph glyph-name="X" unicode="X" horiz-adv-x="669" 
d="M628 69c0 18 -5.66406 34.667 -16.9971 50l-197 268l164 212c12.667 16 19 33 19 51c0 20.667 -7.83301 38.834 -23.5 54.501s-33.834 23.5 -54.501 23.5c-15.333 0 -29 -4.33301 -41 -13s-22.333 -19 -31 -31l-125 -176l-161 225l-121 -98l190 -249l-197 -268
c-10.667 -14.667 -16 -30.667 -16 -48c0 -21.333 7.83301 -39.833 23.5 -55.5s34.167 -23.5 55.5 -23.5c14.667 0 28 4.16699 40 12.5s22 18.5 30 30.5l157 229l157 -229c8.66699 -12 18.667 -22.167 30 -30.5s24.666 -12.5 39.999 -12.5c21.333 0 39.666 7.66699 54.999 23
s23 33.666 23 54.999z" />
    <glyph glyph-name="Y" unicode="Y" horiz-adv-x="587" 
d="M576 648c0 10.667 -2.00098 20.666 -6.00098 29.999s-9.5 17.666 -16.5 24.999s-15.333 13.166 -25 17.499s-19.834 6.5 -30.501 6.5c-14 0 -27.333 -3.66699 -40 -11s-22.667 -16.666 -30 -27.999l-142 -209l-170 253l-124 -95
c0 -1.33301 0.833008 -3.16602 2.5 -5.49902s2.83398 -4.16602 3.50098 -5.49902l209 -288v-266c0 -22 7.66699 -41 23 -57s34.333 -24 57 -24c22 0 40.833 8 56.5 24s23.5 35 23.5 57v266l194 266c4.66699 6.66699 8.33398 13.667 11.001 21s4 15 4 23z" />
    <glyph glyph-name="Z" unicode="Z" horiz-adv-x="595" 
d="M584 69c0 19.333 -7.16895 35.8311 -21.502 49.498s-31.166 20.5 -50.499 20.5h-304l329 458c5.33301 8 10.333 16.333 15 25s7 18.334 7 29.001c0 12 -3 22.333 -9 31s-13.667 15.834 -23 21.501s-19.666 9.83398 -30.999 12.501s-22 4 -32 4h-461v-138h332l-329 -461
c-5.33301 -6.66699 -9.16602 -14.167 -11.499 -22.5s-3.5 -16.5 -3.5 -24.5c0 -25.333 9 -44 27 -56s38.333 -18 61 -18h433c19.333 0 36.166 6.66699 50.499 20s21.5 29.666 21.5 48.999z" />
    <glyph glyph-name="bracketleft" unicode="[" horiz-adv-x="280" 
d="M208 798h-138.999c-16.667 0 -30.167 -6 -40.5 -18s-15.5 -26 -15.5 -42v-756c0 -16 5.16699 -30 15.5 -42s23.833 -18 40.5 -18h175l-1 134l-9.5 0.5c-6.33301 0.333008 -13.833 0.5 -22.5 0.5c-8 0 -16 0.166992 -24 0.5s-13.667 0.5 -17 0.5v605h15
c6.66699 0 14 1.33301 22 4s15.5 6.66699 22.5 12s13 11.5 18 18.5s8.16699 15.167 9.5 24.5c1.33301 8.66699 0.833008 17.5 -1.5 26.5s-6 17.167 -11 24.5s-10.833 13.333 -17.5 18s-13.334 7 -20.001 7h1z" />
    <glyph glyph-name="backslash" unicode="\" horiz-adv-x="308" 
d="M264 0l-126 720h-104l127 -720h103z" />
    <glyph glyph-name="bracketright" unicode="]" horiz-adv-x="286" 
d="M265 -18v756.002c0 15.333 -5.16699 29.166 -15.5 41.499s-23.833 18.5 -40.5 18.5h-129c-18.667 0 -34.667 -6.66699 -48 -20s-20 -29.333 -20 -48c0 -22 8 -38.833 24 -50.5s34 -17.5 54 -17.5c1.33301 -0.666992 4.33301 -0.666992 9 0s7.66699 1 9 1v-606h-79v-135
h180c16.667 0 30.167 6.16699 40.5 18.5s15.5 26.166 15.5 41.499z" />
    <glyph glyph-name="asciicircum" unicode="^" horiz-adv-x="527" 
d="M491 162l-237 421l-236 -422h119l117 225l119 -225z" />
    <glyph glyph-name="underscore" unicode="_" horiz-adv-x="387" 
d="M367 -227v35h-361v-35h361z" />
    <glyph glyph-name="grave" unicode="`" 
 />
    <glyph glyph-name="a" unicode="a" horiz-adv-x="602" 
d="M554 -2v471.998c0 17.333 -4.5 32.333 -13.5 45s-22.5 19.667 -40.5 21c-10.667 1.33301 -22 1.16602 -34 -0.500977s-24.667 -6.83398 -38 -15.501c-13.333 -8 -21.833 -16.667 -25.5 -26l-5.5 -14l-18 9.5c-12 6.33301 -27.5 12.5 -46.5 18.5s-40.667 10.5 -65 13.5
s-48.5 1.5 -72.5 -4.5c-26.667 -7.33301 -50.334 -19.166 -71.001 -35.499s-38.167 -35.666 -52.5 -57.999s-25.333 -47.166 -33 -74.499s-11.5 -55 -11.5 -83c0 -36.667 5.83301 -71.5 17.5 -104.5s28.334 -62.167 50.001 -87.5s48 -45.5 79 -60.5s65.5 -22.5 103.5 -22.5
c28.667 0 55 6 79 18s43.667 30.667 59 56l-0.5 -8.5c-0.333008 -5.66699 -0.5 -12.167 -0.5 -19.5s0.166992 -14.666 0.5 -21.999s0.5 -13 0.5 -17h139zM406 270.998c0 -18 -1.83105 -35.833 -5.49805 -53.5s-10 -33.667 -19 -48s-20.667 -26 -35 -35
s-31.833 -13.5 -52.5 -13.5c-20 0 -37 4.33301 -51 13s-25.5 20 -34.5 34s-15.667 29.667 -20 47s-6.5 34.666 -6.5 51.999c0 16.667 2.16699 33.667 6.5 51s11.166 33 20.499 47s21.166 25.333 35.499 34s31.5 13 51.5 13s37 -4.16699 51 -12.5s25.333 -19.166 34 -32.499
s15 -28.333 19 -45s6 -33.667 6 -51z" />
    <glyph glyph-name="b" unicode="b" horiz-adv-x="553" 
d="M530 273c0 35.333 -5.6709 69.334 -17.0039 102.001s-27.5 61.667 -48.5 87s-46.667 45.666 -77 60.999s-64.166 23 -101.499 23c-23.333 0 -46.166 -4.16699 -68.499 -12.5s-42.166 -20.166 -59.499 -35.499v266h-154v-695c0 -23.333 6.83301 -42.333 20.5 -57
s32.5 -22 56.5 -22c21.333 0 36.166 7.16699 44.499 21.5s13.5 30.166 15.5 47.499c17.333 -23.333 38.333 -40.5 63 -51.5s51.334 -16.5 80.001 -16.5c38.667 0 73.334 7.83301 104.001 23.5s56.5 36.667 77.5 63s37 56.5 48 90.5s16.5 69 16.5 105zM374.996 268.001
c0 -16.667 -2 -33.499 -6 -50.499s-10.333 -32.5 -19 -46.5s-20 -25.333 -34 -34s-30.667 -13 -50 -13c-20.667 0 -38.167 4 -52.5 12s-26 18.833 -35 32.5s-15.5 29.167 -19.5 46.5s-6 35 -6 53c0 17.333 2 34.5 6 51.5s10.5 32.167 19.5 45.5s20.5 24.166 34.5 32.499
s31 12.5 51 12.5s37 -4.16699 51 -12.5s25.5 -19.333 34.5 -33s15.5 -29 19.5 -46s6 -33.833 6 -50.5z" />
    <glyph glyph-name="c" unicode="c" horiz-adv-x="468" 
d="M293 540c-48.667 0 -93.8311 -8.49902 -135.498 -25.499s-76.167 -44.5 -103.5 -82.5c-16 -22.667 -29 -48.167 -39 -76.5s-15 -57.5 -15 -87.5c0 -39.333 6.66699 -75.666 20 -108.999s32 -62.5 56 -87.5s52.333 -44.5 85 -58.5s68.667 -21 108 -21
c0.666992 -0.666992 1.66699 -1 3 -1c2 0 3.33301 0.333008 4 1c15.333 0 33 1.16699 53 3.5s39 7 57 14s33.333 16.833 46 29.5s19 29 19 49c0 17.333 -6.66699 32.666 -20 45.999s-29 20 -47 20c-6.66699 0 -14.334 -1.33301 -23.001 -4l-28 -8.5
c-10 -3 -20.167 -5.66699 -30.5 -8s-20.5 -3.5 -30.5 -3.5c-18.667 0 -35.167 4.16699 -49.5 12.5s-26.5 19 -36.5 32s-17.5 27.833 -22.5 44.5s-7.5 33.334 -7.5 50.001c0 18 2.66699 35.167 8 51.5s13 30.666 23 42.999s22.5 22.166 37.5 29.499s32.167 11 51.5 11
c21.333 0 43.166 -4.16699 65.499 -12.5s43.833 -15.833 64.5 -22.5c1.33301 8 3.83301 18 7.5 30l11.5 37.5c4 13 7.66699 25.5 11 37.5s5.33301 22 6 30c-24.667 12 -48.667 21 -72 27s-49 9 -77 9z" />
    <glyph glyph-name="d" unicode="d" horiz-adv-x="573" 
d="M540 70l-0.000976562 694.999h-154v-270c-34 34 -75.667 51 -125 51c-38 0 -72.333 -7.5 -103 -22.5s-56.667 -35.333 -78 -61s-37.833 -55 -49.5 -88s-17.5 -67.5 -17.5 -103.5c0 -34.667 5.66699 -68.667 17 -102s27.5 -63.166 48.5 -89.499s46.5 -47.5 76.5 -63.5
s63.667 -24 101 -24c28.667 0 55.834 6 81.501 18s47.167 29.667 64.5 53c1.33301 -18 6.5 -34.5 15.5 -49.5s24.5 -22.5 46.5 -22.5c23.333 0 41.833 7.33301 55.5 22s20.5 33.667 20.5 57zM389.999 259.999c0 -17.333 -2.33203 -34 -6.99902 -50
s-11.5 -30.167 -20.5 -42.5s-20.667 -22.333 -35 -30s-30.833 -11.5 -49.5 -11.5c-19.333 0 -36 4.33301 -50 13s-25.5 19.667 -34.5 33s-15.667 28.5 -20 45.5s-6.5 34.167 -6.5 51.5c0 16.667 2.33301 33.334 7 50.001s11.667 31.667 21 45s21 24.166 35 32.499
s30.667 12.5 50 12.5c20.667 0 38.167 -4.5 52.5 -13.5s25.666 -20.5 33.999 -34.5s14.333 -29.833 18 -47.5s5.5 -35.5 5.5 -53.5z" />
    <glyph glyph-name="e" unicode="e" horiz-adv-x="582" 
d="M545 288c0 34.667 -7 67.501 -21 98.501s-32.667 58.167 -56 81.5s-50.666 41.833 -81.999 55.5s-64 20.5 -98 20.5c-38.667 0 -74.5 -7.16699 -107.5 -21.5s-61.667 -33.833 -86 -58.5s-43.333 -53.667 -57 -87s-20.5 -69.333 -20.5 -108c0 -42 7.33301 -80 22 -114
s35 -63.167 61 -87.5s56.5 -43.166 91.5 -56.499s72.833 -20 113.5 -20c25.333 0 49.5 2.16699 72.5 6.5s46.167 11.166 69.5 20.499l-21 118c-18 -4 -36.167 -7.83301 -54.5 -11.5s-36.5 -5.5 -54.5 -5.5c-34 0 -63.333 9.66699 -88 29s-40.667 45 -48 77h292
c23.333 0 41.166 4.16699 53.499 12.5s18.5 25.166 18.5 50.499zM385 312.001h-203.999c2 14.667 5.5 28.834 10.5 42.501s11.667 25.834 20 36.501s18.666 19.167 30.999 25.5s26.833 9.5 43.5 9.5c15.333 0 29 -3.33301 41 -10s22.167 -15.334 30.5 -26.001
s15 -22.834 20 -36.501s7.83301 -27.5 8.5 -41.5h-1z" />
    <glyph glyph-name="f" unicode="f" horiz-adv-x="331" 
d="M339 707c0 12 -2.83008 22.6709 -8.49707 32.0039s-13 17 -22 23s-19.167 10.5 -30.5 13.5s-22.333 4.5 -33 4.5h-43c-35.333 0 -62.833 -10.333 -82.5 -31s-31.834 -46 -36.501 -76c-2 -5.33301 -3.5 -14.333 -4.5 -27s-1.83301 -26.167 -2.5 -40.5
s-1.16699 -27.833 -1.5 -40.5s-0.5 -22 -0.5 -28c-10 0 -20.5 -0.833008 -31.5 -2.5s-21 -4.83398 -30 -9.50098s-16.5 -11.334 -22.5 -20.001s-9 -19.334 -9 -32.001c0 -12 2.66699 -22.5 8 -31.5s12.166 -16.333 20.499 -22s17.833 -9.83398 28.5 -12.501s21 -4 31 -4
c0.666992 -0.666992 1.5 -0.833984 2.5 -0.500977s1.83301 0.5 2.5 0.5v-628h153v628c10.667 0 22 0.833008 34 2.5s23 5 33 10s18.333 11.833 25 20.5s10 19.667 10 33c0 14 -3.33301 25.333 -10 34s-15 15.667 -25 21s-21 9 -33 11s-23.333 3 -34 3v78
c0 8 3.16699 14 9.5 18s13.166 6.66699 20.499 8c20 -1.33301 38.667 3.33398 56 14.001s26 27.667 26 51z" />
    <glyph glyph-name="g" unicode="g" horiz-adv-x="598" 
d="M552 55l0.000976562 413c0 23.333 -6.16699 42.333 -18.5 57s-30.833 22 -55.5 22c-22 0 -37.5 -7.16699 -46.5 -21.5s-14.5 -31.166 -16.5 -50.499c-16 23.333 -36.333 40.833 -61 52.5s-51 17.5 -79 17.5c-39.333 0 -74.333 -8.16699 -105 -24.5
s-56.667 -37.833 -78 -64.5s-37.666 -57.167 -48.999 -91.5s-17 -69.5 -17 -105.5s5.66699 -70.5 17 -103.5s27.666 -62 48.999 -87s47.166 -44.833 77.499 -59.5s64.5 -22 102.5 -22c24.667 0 48 4.66699 70 14s41 23 57 41c0.666992 -3.33301 1 -8.33301 1 -15
c0 -38 -10.167 -70 -30.5 -96s-51.166 -39 -92.499 -39c-18.667 0 -37.167 1.83301 -55.5 5.5s-36.5 7.83398 -54.5 12.501c0 -3.33301 -0.833008 -11.333 -2.5 -24s-3.33398 -26.334 -5.00098 -41.001s-3.16699 -28.5 -4.5 -41.5s-2 -20.833 -2 -23.5
c1.33301 -0.666992 2.66602 -1.66699 3.99902 -3s2.66602 -2.33301 3.99902 -3c18 -5.33301 36.5 -9.33301 55.5 -12s37.833 -4 56.5 -4c44.667 0 84.334 7.5 119.001 22.5s63.834 35.667 87.501 62s41.667 57.666 54 93.999s18.5 75.833 18.5 118.5zM406.001 263
c0 -16 -2.33398 -32.333 -7.00098 -49s-11.5 -31.5 -20.5 -44.5s-20.333 -23.667 -34 -32s-29.834 -12.5 -48.501 -12.5c-20 0 -37.333 4.16699 -52 12.5s-26.667 19.333 -36 33s-16.166 29.167 -20.499 46.5s-6.5 35 -6.5 53c0 17.333 2.33301 34.333 7 51
s11.834 31.5 21.501 44.5s21.834 23.5 36.501 31.5s31.667 12 51 12c17.333 0 33.666 -4 48.999 -12c12 -6.66699 22 -15 30 -25s14.167 -20.833 18.5 -32.5s7.33301 -24 9 -37s2.5 -26.167 2.5 -39.5z" />
    <glyph glyph-name="h" unicode="h" horiz-adv-x="518" 
d="M495 66l0.00195312 283.002c0 28.667 -4.83301 55 -14.5 79s-23.167 44.667 -40.5 62s-38 30.833 -62 40.5s-50.333 14.5 -79 14.5c-25.333 0 -50.333 -4.5 -75 -13.5s-46.334 -21.833 -65.001 -38.5v212c0 21.333 -7.33301 39.333 -22 54s-32.667 22 -54 22
c-10.667 0 -20.667 -2 -30 -6s-17.5 -9.5 -24.5 -16.5s-12.667 -15.167 -17 -24.5s-6.5 -19.333 -6.5 -30v-705h154v327c0 25.333 8.83301 46.666 26.5 63.999s39.167 26 64.5 26c12.667 0 24.5 -2.5 35.5 -7.5s20.667 -11.667 29 -20s14.833 -18 19.5 -29
s7 -22.833 7 -35.5v-258c0 -20.667 7.16699 -38.834 21.5 -54.501s32.166 -23.5 53.499 -23.5c22 0 40.667 7.5 56 22.5s23 33.5 23 55.5z" />
    <glyph glyph-name="i" unicode="i" horiz-adv-x="254" 
d="M119 730c-15.333 0 -28.5 -5.5 -39.5 -16.5s-16.5 -24.167 -16.5 -39.5c0 -16 5.66699 -29.5 17 -40.5s24.666 -16.5 39.999 -16.5s28.5 5.5 39.5 16.5s16.5 24.5 16.5 40.5c0 15.333 -5.66699 28.5 -17 39.5s-24.666 16.5 -39.999 16.5zM200 0l-0.000976562 468
c0 10 -2 19.667 -6 29s-9.5 17.5 -16.5 24.5s-15 12.667 -24 17s-18.833 6.5 -29.5 6.5c-21.333 0 -39.666 -7.33301 -54.999 -22s-23 -33 -23 -55v-468h154z" />
    <glyph glyph-name="j" unicode="j" horiz-adv-x="252" 
d="M117 730c-15.333 0 -28.5 -5.5 -39.5 -16.5s-16.5 -24.167 -16.5 -39.5c0 -16 5.66699 -29.5 17 -40.5s24.666 -16.5 39.999 -16.5s28.5 5.5 39.5 16.5s16.5 24.5 16.5 40.5c0 15.333 -5.66699 28.5 -17 39.5s-24.666 16.5 -39.999 16.5zM198 -181v690h-154v-691
c0 -15.333 7.5 -27.333 22.5 -36s31.167 -13.667 48.5 -15c9.33301 -0.666992 19 0.166016 29 2.49902s19 5.83301 27 10.5s14.5 10.334 19.5 17.001s7.5 14 7.5 22z" />
    <glyph glyph-name="k" unicode="k" horiz-adv-x="514" 
d="M491 73l-212.001 228c2.66699 2.66699 8.16699 7.5 16.5 14.5l29 24.5l34.5 29c12 10 23 19.833 33 29.5s18.5 18.5 25.5 26.5s11.167 14 12.5 18c3.33301 4 6 8.5 8 13.5s3 10.167 3 15.5c0 20 -7.33301 37 -22 51s-32 21 -52 21c-12 0 -23.167 -3 -33.5 -9
s-20.166 -13.333 -29.499 -22l-146 -139v332c0 21.333 -7.33301 39.5 -22 54.5s-32.667 22.5 -54 22.5s-39.5 -7.5 -54.5 -22.5s-22.5 -33.167 -22.5 -54.5v-705l153 -1v232l210 -248z" />
    <glyph glyph-name="l" unicode="l" horiz-adv-x="205" 
d="M176 0l-0.000976562 705c0 20.667 -7.33301 38.667 -22 54s-32.667 23 -54 23s-39.666 -7.33301 -54.999 -22s-23 -33 -23 -55v-706z" />
    <glyph glyph-name="m" unicode="m" horiz-adv-x="916" 
d="M837 68v289.998c0 28.667 -5 54.5 -15 77.5s-23.833 42.667 -41.5 59s-38.5 28.833 -62.5 37.5s-50 13 -78 13c-32 0 -62.5 -6.5 -91.5 -19.5s-53.5 -31.5 -73.5 -55.5c-17.333 24.667 -39.833 43.667 -67.5 57s-56.834 20 -87.501 20c-26 0 -51.167 -5.5 -75.5 -16.5
s-44.166 -27.5 -59.499 -49.5c-1.33301 18 -6.66602 33.167 -15.999 45.5s-24 18.5 -44 18.5c-23.333 0 -42.166 -7.16699 -56.499 -21.5s-21.5 -33.166 -21.5 -56.499v-467h153v332c0 23.333 8.16699 42.833 24.5 58.5s36.166 23.5 59.499 23.5
c22.667 0 42.167 -8.16699 58.5 -24.5s24.5 -36.166 24.5 -59.499v-330h151v330c0 22.667 8 42 24 58s35.667 24 59 24s42.833 -8.16699 58.5 -24.5s23.5 -35.833 23.5 -58.5v-261c0 -21.333 7.66699 -39.5 23 -54.5s33.666 -22.5 54.999 -22.5s39.333 7.5 54 22.5
s22 33.167 22 54.5z" />
    <glyph glyph-name="n" unicode="n" horiz-adv-x="575" 
d="M522 68v280.996c0 30 -5.33301 57 -16 81s-25.5 44.5 -44.5 61.5s-41.167 30.167 -66.5 39.5s-52.333 14 -81 14c-28 0 -54.667 -5.66699 -80 -17s-46 -28.666 -62 -51.999c-2.66699 18 -8.66699 34.333 -18 49s-24.666 22 -45.999 22
c-10.667 0 -20.667 -2.16699 -30 -6.5s-17.333 -10.166 -24 -17.499s-12 -15.666 -16 -24.999s-6 -19.333 -6 -30v-468h154v325c0 25.333 8.66699 46.833 26 64.5s38.666 26.5 63.999 26.5s47 -9 65 -27s27 -39.667 27 -65v-258c0 -21.333 7.5 -39.333 22.5 -54
s33.167 -22 54.5 -22c10.667 0 20.667 2 30 6s17.5 9.5 24.5 16.5s12.5 15.333 16.5 25s6 19.834 6 30.501z" />
    <glyph glyph-name="o" unicode="o" horiz-adv-x="597" 
d="M554 269c0 37.333 -6.66699 72.832 -20 106.499s-31.833 63.167 -55.5 88.5s-51.667 45.333 -84 60s-67.833 22 -106.5 22s-74.167 -7.5 -106.5 -22.5s-60.333 -35.167 -84 -60.5s-42.167 -54.833 -55.5 -88.5s-20 -69.5 -20 -107.5c0 -37.333 6.66699 -72.833 20 -106.5
s31.833 -63.167 55.5 -88.5s51.834 -45.5 84.501 -60.5s68.334 -22.5 107.001 -22.5s74.167 7.5 106.5 22.5s60.166 35.333 83.499 61s41.666 55.334 54.999 89.001s20 69.5 20 107.5zM401 267.999c0 -17.333 -2.16504 -34.833 -6.49805 -52.5s-11 -33.5 -20 -47.5
s-20.667 -25.5 -35 -34.5s-31.5 -13.5 -51.5 -13.5c-19.333 0 -36.166 4.5 -50.499 13.5s-26 20.667 -35 35s-15.667 30.333 -20 48s-6.5 34.834 -6.5 51.501s2.33301 33.5 7 50.5s11.5 32.5 20.5 46.5s20.5 25.333 34.5 34s30.667 13 50 13s36.166 -4.33301 50.499 -13
s26.166 -19.834 35.499 -33.501s16.166 -29.167 20.499 -46.5s6.5 -34.333 6.5 -51z" />
    <glyph glyph-name="p" unicode="p" horiz-adv-x="613" 
d="M33 466l-0.00195312 -694.998h153v269c34 -34 75.667 -51 125 -51c38 0 72.333 7.66699 103 23s56.667 35.666 78 60.999s37.833 54.5 49.5 87.5s17.5 67.5 17.5 103.5c0 34.667 -5.66699 68.667 -17 102s-27.5 63.166 -48.5 89.499s-46.5 47.5 -76.5 63.5
s-63.667 24 -101 24c-28.667 0 -55.667 -6 -81 -18s-46.666 -29.667 -63.999 -53c-2 18 -7.5 34.667 -16.5 50s-24.5 23 -46.5 23c-23.333 0 -41.666 -7.33301 -54.999 -22s-20 -33.667 -20 -57zM181.998 275.002c0 16.667 2.33203 33.167 6.99902 49.5
s11.5 30.666 20.5 42.999s20.5 22.333 34.5 30s30.667 11.5 50 11.5s36 -4.33301 50 -13s25.5 -19.667 34.5 -33s15.667 -28.666 20 -45.999s6.5 -34.333 6.5 -51s-2.33301 -33.334 -7 -50.001s-11.667 -31.667 -21 -45s-21.166 -24.166 -35.499 -32.499
s-30.833 -12.5 -49.5 -12.5c-21.333 0 -39 4.5 -53 13.5s-25.167 20.5 -33.5 34.5s-14.333 29.833 -18 47.5s-5.5 35.5 -5.5 53.5z" />
    <glyph glyph-name="q" unicode="q" horiz-adv-x="616" 
d="M561 -229l0.000976562 694.998c0 23.333 -6.83301 42.333 -20.5 57s-32.167 22 -55.5 22c-22 0 -37.5 -7.66699 -46.5 -23s-14.167 -32 -15.5 -50c-17.333 23.333 -38.833 41 -64.5 53s-52.834 18 -81.501 18c-37.333 0 -71 -8 -101 -24s-55.5 -37.167 -76.5 -63.5
s-37.167 -56.166 -48.5 -89.499s-17 -67.333 -17 -102c0 -36 5.83301 -70.5 17.5 -103.5s28.167 -62.167 49.5 -87.5s47.333 -45.666 78 -60.999s65 -23 103 -23c49.333 0 91 17 125 51v-269h154zM411.001 274.998c0 -18 -1.83398 -35.833 -5.50098 -53.5
s-9.66699 -33.5 -18 -47.5s-19.666 -25.5 -33.999 -34.5s-31.833 -13.5 -52.5 -13.5c-19.333 0 -36 4.16699 -50 12.5s-25.667 19.166 -35 32.499s-16.333 28.333 -21 45s-7 33.334 -7 50.001s2.16699 33.667 6.5 51s11 32.666 20 45.999s20.5 24.333 34.5 33
s30.667 13 50 13c18.667 0 35.167 -3.83301 49.5 -11.5s26 -17.667 35 -30s15.833 -26.666 20.5 -42.999s7 -32.833 7 -49.5z" />
    <glyph glyph-name="r" unicode="r" horiz-adv-x="360" 
d="M338 470c0 16.667 -5.49805 30.999 -16.498 42.999s-24.167 19 -39.5 21c-13.333 1.33301 -27.333 -1.33398 -42 -8.00098s-27.667 -13.667 -39 -21c-14 -9.33301 -27.333 -20.166 -40 -32.499s-22.334 -22.333 -29.001 -30s-10.334 -12.167 -11.001 -13.5
c-4 11.333 -8.83301 22.833 -14.5 34.5s-12.167 21.834 -19.5 30.501s-15.333 14.5 -24 17.5s-17.667 1.16699 -27 -5.5c-7.33301 -5.33301 -13.333 -10.833 -18 -16.5s-7 -13.167 -7 -22.5v-469l154 1v242c0 15.333 0.666992 29.833 2 43.5s5 26.167 11 37.5
c7.33301 14 16.333 25.5 27 34.5s22 16.667 34 23s23.833 11.833 35.5 16.5s22.167 10.167 31.5 16.5s17 14 23 23s9 20.5 9 34.5z" />
    <glyph glyph-name="s" unicode="s" horiz-adv-x="481" 
d="M449 159c0 28.667 -6.66699 52.8311 -20 72.498s-30.166 36.167 -50.499 49.5s-42.333 24.5 -66 33.5l-66 24.5c-20.333 7.33301 -37.166 14.666 -50.499 21.999s-20 16.333 -20 27c0 7.33301 1.66699 13.666 5 18.999s7.66602 9.66602 12.999 12.999
c5.33301 4 11.5 6.83301 18.5 8.5s13.833 2.5 20.5 2.5c14.667 0 28.667 -2 42 -6s26 -8.5 38 -13.5s23.333 -9.5 34 -13.5s21 -6 31 -6c15.333 0 28.666 5.5 39.999 16.5s17 24.5 17 40.5c0 18 -7.66699 33.333 -23 46s-33.5 22.667 -54.5 30s-42.5 12.666 -64.5 15.999
s-39.667 5 -53 5c-24 0 -48.5 -3.33301 -73.5 -10s-47.833 -16.667 -68.5 -30s-37.667 -30.166 -51 -50.499s-20 -44.166 -20 -71.499c0 -28 6.66699 -51.167 20 -69.5s30 -33.666 50 -45.999s41.667 -22.333 65 -30l65 -22c20 -7 36.667 -14.667 50 -23
s20 -19.166 20 -32.499c0 -8.66699 -2.16699 -16 -6.5 -22s-9.83301 -11 -16.5 -15s-14 -6.83301 -22 -8.5s-15.667 -2.5 -23 -2.5c-12 0 -25.5 1.83301 -40.5 5.5s-30 8.33398 -45 14.001s-29.833 11.834 -44.5 18.501s-27.334 13 -38.001 19l-45 -111
c29.333 -20 63.333 -36.333 102 -49s76.334 -19 113.001 -19c24.667 0 50 3.33301 76 10s49.5 17 70.5 31s38.167 31.5 51.5 52.5s20 45.833 20 74.5z" />
    <glyph glyph-name="t" unicode="t" horiz-adv-x="347" 
d="M339 472c0 14 -3 25.167 -9 33.5s-13.667 15 -23 20s-19.666 8.33301 -30.999 10s-22.333 2.5 -33 2.5v82c0 21.333 -7.5 40 -22.5 56s-33.167 24 -54.5 24s-39.5 -7.83301 -54.5 -23.5s-22.5 -34.167 -22.5 -55.5v-84c-10.667 0 -21.5 -0.833008 -32.5 -2.5
s-21 -4.83398 -30 -9.50098s-16.5 -11.167 -22.5 -19.5s-9 -19.166 -9 -32.499s3 -24.166 9 -32.499s13.667 -14.833 23 -19.5s19.5 -8 30.5 -10s21.833 -3 32.5 -3v-408h153v407c10.667 0 21.667 0.833008 33 2.5s21.666 5 30.999 10s17 11.667 23 20s9 19.166 9 32.499z
" />
    <glyph glyph-name="u" unicode="u" horiz-adv-x="578" 
d="M523 221l0.000976562 246.002c0 21.333 -7.5 39.5 -22.5 54.5s-33.167 22.5 -54.5 22.5c-10.667 0 -20.667 -2 -30 -6s-17.5 -9.5 -24.5 -16.5s-12.5 -15.333 -16.5 -25s-6 -19.834 -6 -30.501v-244c0 -30 -7.33301 -53.667 -22 -71s-37.334 -26 -68.001 -26
c-31.333 0 -54.333 8.83301 -69 26.5s-22 41.167 -22 70.5v308h-111h-43v-310c0 -78.667 21.667 -136.667 65 -174s103.333 -56 180 -56s136.5 18.667 179.5 56s64.5 95.666 64.5 174.999z" />
    <glyph glyph-name="v" unicode="v" horiz-adv-x="478" 
d="M479 468c0 20.667 -7.5 38.5 -22.5 53.5s-33.167 22.5 -54.5 22.5c-16.667 0 -31.834 -4.66699 -45.501 -14s-23.167 -22 -28.5 -38l-91 -277l-122 327l-132 -59l179 -435c7.33301 -17.333 17 -30.833 29 -40.5s28 -14.5 48 -14.5c18 0 33 5.5 45 16.5
s21.333 24.167 28 39.5c2.66699 2 7.83398 10.833 15.501 26.5s16.5 35 26.5 58l32 76l32.5 80c10.333 25.667 19.333 49 27 70s13.167 36.833 16.5 47.5c11.333 26.667 17 47 17 61z" />
    <glyph glyph-name="w" unicode="w" horiz-adv-x="777" 
d="M780 469c0 21.333 -7.66602 39.498 -22.999 54.498s-33.666 22.5 -54.999 22.5c-16 0 -30.833 -4.66699 -44.5 -14s-23.167 -21.666 -28.5 -36.999l-90 -274l-92 279h-141l-93 -279l-109 328l-133 -62l163 -433c6.66699 -17.333 16.167 -31.666 28.5 -42.999
s28.833 -17 49.5 -17c19.333 0 35.5 5.5 48.5 16.5s22.5 25.167 28.5 42.5l88 255l87 -256c5.33301 -17.333 14.666 -31.333 27.999 -42s29.666 -16 48.999 -16c20.667 0 37 5.83301 49 17.5s21.667 26.167 29 43.5l153 378c2 5.33301 3.83301 11 5.5 17s2.5 12.333 2.5 19z
" />
    <glyph glyph-name="x" unicode="x" horiz-adv-x="590" 
d="M548 69c0 10 -1.99805 19.666 -5.99805 28.999s-9.66699 17.666 -17 24.999l-143 160l119 130c7.33301 7.33301 13.166 15.833 17.499 25.5s6.5 19.834 6.5 30.501c0 21.333 -7.33301 39.333 -22 54s-32.667 22 -54 22c-13.333 0 -25.5 -3 -36.5 -9
s-20.167 -14.333 -27.5 -25l-100 -136l-144 174l-110 -93l156 -174l-143 -159c-6.66699 -7.33301 -12.167 -15.666 -16.5 -24.999s-6.5 -19 -6.5 -29s2 -19.667 6 -29s9.5 -17.5 16.5 -24.5s15.167 -12.667 24.5 -17s19 -6.5 29 -6.5c13.333 0 25.833 3.33301 37.5 10
s21.5 15.334 29.5 26.001l121 162l121 -162c8 -10.667 17.667 -19.334 29 -26.001s23.666 -10 36.999 -10c20.667 0 38.5 7.66699 53.5 23s22.5 33.333 22.5 54z" />
    <glyph glyph-name="y" unicode="y" horiz-adv-x="474" 
d="M473 471c0 21.333 -7.6709 39.0039 -23.0039 53.0039s-33.333 21 -54 21c-20 0 -35.667 -6.16699 -47 -18.5s-20 -27.166 -26 -44.499l-87 -263l-112 317l-139 -57l173 -444c-1.33301 -2.66699 -5.33301 -11.334 -12 -26.001l-22 -48.5
c-8 -17.667 -15.333 -34.834 -22 -51.501s-11 -28.334 -13 -35.001c-7.33301 -18 -11 -33 -11 -45c0 -20 7.83301 -36.5 23.5 -49.5s33.167 -19.5 52.5 -19.5c18.667 0 33.834 5.5 45.501 16.5s20.834 24.833 27.501 41.5c2.66699 2 7.83398 11.167 15.501 27.5
s16.834 37.333 27.501 63l35.5 87l39.5 100l39 103l34.5 95.5l26.5 76.5c7.33301 21.667 12.333 37.5 15 47.5c4.66699 11.333 8 21.666 10 30.999s3 16.666 3 21.999z" />
    <glyph glyph-name="z" unicode="z" horiz-adv-x="521" 
d="M492 68c0 19.333 -7.00098 35.502 -21.001 48.502s-30.667 19.5 -50 19.5h-187l227 308c4 5.33301 7.33301 11.166 10 17.499s4 13.166 4 20.499c0 19.333 -6.5 33.333 -19.5 42s-28.167 13 -45.5 13h-379v-136h220l-226 -305c-9.33301 -12.667 -14 -26 -14 -40
c0 -20.667 7 -35.167 21 -43.5s30 -12.5 48 -12.5h343c18.667 0 34.834 6.5 48.501 19.5s20.5 29.167 20.5 48.5z" />
    <glyph glyph-name="braceleft" unicode="{" horiz-adv-x="315" 
d="M296 805c0 8.66699 -2.66699 16.166 -8 22.499s-12.666 9.5 -21.999 9.5h-104c-26 0 -47.167 -6.83301 -63.5 -20.5s-24.5 -34.5 -24.5 -62.5v-323c0 -9.33301 -3.33301 -16.5 -10 -21.5s-14.167 -9.66699 -22.5 -14s-15.833 -9 -22.5 -14s-10 -12.167 -10 -21.5
s3.33301 -16.5 10 -21.5s14.167 -9.66699 22.5 -14s15.833 -9 22.5 -14s10 -12.5 10 -22.5v-322c0 -28 8.16699 -48.833 24.5 -62.5s37.833 -20.5 64.5 -20.5h121v61h-25c-10 0 -19.667 1.83301 -29 5.5s-17.333 10 -24 19s-10 22.5 -10 40.5v265
c0 22.667 -7.33301 42 -22 58s-33.334 25.333 -56.001 28c22.667 2.66699 41.5 12 56.5 28s22.5 35.333 22.5 58v275c0 15.333 2.5 26.833 7.5 34.5s11.167 12.834 18.5 15.501s15 4 23 4c8.66699 0 16.667 0.666992 24 2s13.5 3.83301 18.5 7.5s7.5 10.5 7.5 20.5z" />
    <glyph glyph-name="bar" unicode="|" horiz-adv-x="167" 
d="M133 0v720h-104v-720h104z" />
    <glyph glyph-name="braceright" unicode="}" horiz-adv-x="315" 
d="M10 -85c0 -8.66699 2.66797 -16.167 8.00098 -22.5s12.666 -9.5 21.999 -9.5h103c26.667 0 48.167 6.83301 64.5 20.5s24.5 34.5 24.5 62.5v323c0 9.33301 3.33301 16.5 10 21.5s14 9.66699 22 14s15.333 9 22 14s10 12.167 10 21.5s-3.33301 16.5 -10 21.5
s-14.167 9.66699 -22.5 14s-15.833 9 -22.5 14s-10 12.5 -10 22.5v322c0 28 -8 48.833 -24 62.5s-37.333 20.5 -64 20.5h-121v-61h24c10 0 19.667 -1.83301 29 -5.5s17.333 -10 24 -19s10 -22.5 10 -40.5v-265c0 -22.667 7.33301 -42 22 -58s33.334 -25.333 56.001 -28
c-22.667 -2.66699 -41.334 -12 -56.001 -28s-22 -35.333 -22 -58v-275c0 -16 -2.5 -27.667 -7.5 -35s-11.167 -12.333 -18.5 -15s-15.333 -4 -24 -4s-16.667 -0.666992 -24 -2s-13.5 -3.83301 -18.5 -7.5s-7.5 -10.5 -7.5 -20.5h1z" />
    <glyph glyph-name="asciitilde" unicode="~" horiz-adv-x="482" 
d="M438 442l-10.001 -0.999023h-68c0 -5.33301 -0.666992 -11.333 -2 -18s-3.5 -12.834 -6.5 -18.501s-6.66699 -10.334 -11 -14.001s-9.83301 -5.5 -16.5 -5.5c-12.667 0 -26.334 2.83301 -41.001 8.5s-29.834 12 -45.501 19s-31.667 13.5 -48 19.5s-32.5 9 -48.5 9
c-20 0 -37.167 -4.5 -51.5 -13.5s-26 -20.5 -35 -34.5s-15.667 -29.833 -20 -47.5s-6.5 -35.167 -6.5 -52.5c-0.666992 -1.33301 -1 -4 -1 -8v-7h78c0 5.33301 0.666992 11.333 2 18s3.5 12.834 6.5 18.501s6.66699 10.5 11 14.5s9.83301 6 16.5 6
c12 0 25.333 -2.83301 40 -8.5s29.834 -12 45.501 -19s31.834 -13.333 48.501 -19s33 -8.5 49 -8.5c20.667 0 38.334 5.16699 53.001 15.5s26.5 23.333 35.5 39s15.5 33 19.5 52s6 37.5 6 55.5z" />
    <glyph glyph-name="exclamdown" unicode="&#xa1;" horiz-adv-x="240" 
d="M39 450v-465l153 -1v29v436c0 8 -2.5 15.333 -7.5 22s-11.333 12.5 -19 17.5s-16 9 -25 12s-17.5 4.5 -25.5 4.5c-7.33301 0 -15.5 -1.5 -24.5 -4.5s-17.333 -7 -25 -12s-14 -10.833 -19 -17.5s-7.5 -13.667 -7.5 -21zM28 630c0 -24.667 8.66602 -45.333 25.999 -62
s38 -25 62 -25c24.667 0 45.334 8.66699 62.001 26s25 38 25 62s-8.66699 44.333 -26 61s-38 25 -62 25s-44.5 -8.5 -61.5 -25.5s-25.5 -37.5 -25.5 -61.5z" />
    <glyph glyph-name="cent" unicode="&#xa2;" horiz-adv-x="498" 
d="M466 450c0 16.667 -5.33691 30.6699 -16.0039 42.0029s-23.834 20.5 -39.501 27.5s-32.334 12.333 -50.001 16s-33.5 5.83398 -47.5 6.50098c-5.33301 0.666992 -10.333 1 -15 1h-14c0 1.33301 0.166992 4.66602 0.5 9.99902s0.833008 11.166 1.5 17.499
s0.833984 12.166 0.500977 17.499s-0.833008 8.66602 -1.5 9.99902c0.666992 5.33301 -0.5 11.5 -3.5 18.5s-8.16699 10.5 -15.5 10.5s-12.5 -3.33301 -15.5 -10s-4.5 -13 -4.5 -19c-1.33301 -2 -2 -5.66699 -2 -11s0.333008 -11.333 1 -18s1.16699 -12.667 1.5 -18
s0.5 -9 0.5 -11c-33.333 -4 -64.333 -14.167 -93 -30.5s-53.334 -36.666 -74.001 -60.999s-36.834 -51.833 -48.501 -82.5s-17.5 -63 -17.5 -97c0 -33.333 5.83301 -65.833 17.5 -97.5s27.834 -60.167 48.501 -85.5s45.334 -46.333 74.001 -63s60.334 -26 95.001 -28
c0 -1.33301 -0.333008 -5.33301 -1 -12s-1.16699 -13.834 -1.5 -21.501s-0.5 -14.5 -0.5 -20.5c0 -6.66699 0.333008 -10.667 1 -12c0 -6 1.5 -12.667 4.5 -20s8.16699 -11 15.5 -11s12.333 3.5 15 10.5s4 13.5 4 19.5v9v17v17v9c4 5.33301 8.33301 10 13 14
c10.667 0.666992 23.334 2.5 38.001 5.5s29.834 6.5 45.501 10.5s30.334 8 44.001 12l33.5 10l-25 129l-32 -12c-0.666992 0 -3 -0.5 -7 -1.5s-6.66699 -1.5 -8 -1.5c-15.333 -2.66699 -30.666 -5.5 -45.999 -8.5s-30.666 -5.16699 -45.999 -6.5c-2 0 -4 1.66699 -6 5
s-4 5.33301 -6 6v263c4 -0.666992 7.66699 -1 11 -1c4 0 7.66699 -0.333008 11 -1c14.667 -2 29 -5 43 -9s28 -7.66699 42 -11h1c7.33301 -1.33301 15.666 -1 24.999 1c14.667 3.33301 26.5 11.333 35.5 24s13.5 26.667 13.5 42zM247.996 139.003
c-27.333 13.333 -47.166 31.833 -59.499 55.5s-18.5 50.167 -18.5 79.5c0 28 6.16699 53.333 18.5 76s32.166 39 59.499 49v-260z" />
    <glyph glyph-name="sterling" unicode="&#xa3;" horiz-adv-x="639" 
d="M344 735c-31.333 0 -61.835 -4.1709 -91.502 -12.5039s-56 -21 -79 -38s-41.5 -38.333 -55.5 -64s-21 -55.834 -21 -90.501c0 -18.667 2.5 -36.167 7.5 -52.5s11.5 -32.833 19.5 -49.5c-4 0 -10.167 -0.333008 -18.5 -1s-17 -1.66699 -26 -3s-17.167 -3 -24.5 -5
s-12.333 -4.33301 -15 -7c-9.33301 -4 -17.333 -10.667 -24 -20s-10 -20.666 -10 -33.999c0 -11.333 2.83301 -21.166 8.5 -29.499s12.5 -14.5 20.5 -18.5c2.66699 -3.33301 8.16699 -6.16602 16.5 -8.49902s17.666 -4.5 27.999 -6.5s20.166 -3.5 29.499 -4.5
s16.333 -1.16699 21 -0.5c4.66699 -1.33301 10.167 -1.33301 16.5 0l9.5 2l-7 -22c-4.66699 -14.667 -10.5 -31.667 -17.5 -51s-14.667 -38.333 -23 -57s-15.833 -32.334 -22.5 -41.001l-1 -1c-7.33301 -9.33301 -13 -18.333 -17 -27s-6 -16.667 -6 -24
c0 -8 1.66699 -16.167 5 -24.5s7.83301 -15.833 13.5 -22.5s12.334 -12 20.001 -16s15.834 -6 24.501 -6h-1h475v139h-332c12.667 14.667 23.334 32.5 32.001 53.5s13.667 41.5 15 61.5v18c0 6 -0.666992 12 -2 18h128v138h-151l-20 42
c-6.66699 14.667 -10 29.334 -10 44.001c0 13.333 2.66699 24.833 8 34.5s12.5 17.834 21.5 24.501s19.167 11.5 30.5 14.5s23 4.5 35 4.5c28 0 52.5 -6.33301 73.5 -19s40.833 -28.334 59.5 -47.001l14.5 -16c5 -5.33301 10.167 -9.66602 15.5 -12.999
c7.33301 -6.66699 17.333 -10 30 -10c19.333 0 35 7.5 47 22.5s18 31.5 18 49.5c0 16.667 -5 31.834 -15 45.501s-22.167 26 -36.5 37s-29.666 20.833 -45.999 29.5l-42.5 23c-20 10.667 -40.5 20.167 -61.5 28.5s-43.167 12.5 -66.5 12.5z" />
    <glyph glyph-name="currency" unicode="&#xa4;" horiz-adv-x="707" 
d="M640 435c0 15.333 -7.49609 28.168 -22.4961 38.501s-33.167 15.5 -54.5 15.5h-287c14.667 24.667 33.5 45.334 56.5 62.001s50.167 28 81.5 34c10.667 2 21.334 3 32.001 3c31.333 0 59.833 -5.66699 85.5 -17s50.167 -26.333 73.5 -45l56 113
c-14 12 -30.667 23.333 -50 34s-40 20 -62 28s-44.167 14.333 -66.5 19s-43.166 7 -62.499 7h-11c-3.33301 0 -7 -0.333008 -11 -1c-35.333 -3.33301 -68.333 -11.666 -99 -24.999s-58.5 -30.333 -83.5 -51s-46.833 -44.667 -65.5 -72s-33.334 -57 -44.001 -89h-96v-107h75
c0 -4 -0.166992 -8 -0.5 -12s-0.5 -8 -0.5 -12c0 -3.33301 0.166992 -6.33301 0.5 -9s0.5 -5.66699 0.5 -9h-75v-106h96c5.33301 -17.333 12.166 -33.833 20.499 -49.5s17.166 -30.834 26.499 -45.501c32.667 -47.333 73.667 -83.666 123 -108.999s104.666 -38 165.999 -38
c15.333 0 31.666 1 48.999 3s34.666 5.33301 51.999 10s34 10.667 50 18s30.333 16.333 43 27c10 8 18.667 17.5 26 28.5s11 23.833 11 38.5c0 19.333 -6.66699 35.5 -20 48.5s-29.666 19.5 -48.999 19.5c-10.667 0 -21.667 -2.5 -33 -7.5l-38 -16.5
c-14 -6 -29.333 -11.5 -46 -16.5s-35.334 -7.5 -56.001 -7.5c-38 0 -70.167 9 -96.5 27s-46.833 41.333 -61.5 70h290c20.667 0 38.667 5 54 15s23 22.333 23 37c0 15.333 -7.5 28.166 -22.5 38.499s-33.167 15.5 -54.5 15.5h-319c0 4 -0.166992 7.83301 -0.5 11.5
s-0.5 7.16699 -0.5 10.5s0.166992 6.66602 0.5 9.99902s0.5 6.66602 0.5 9.99902h319c20.667 0 38.667 5 54 15s23 22.667 23 38z" />
    <glyph glyph-name="yen" unicode="&#xa5;" horiz-adv-x="627" 
d="M592 648c0 10.667 -1.99805 20.6719 -5.99805 30.0049s-9.5 17.666 -16.5 24.999s-15.333 13.166 -25 17.499s-19.834 6.5 -30.501 6.5c-14 0 -27.167 -3.66699 -39.5 -11s-22.5 -16.666 -30.5 -27.999l-142 -209l-141 209c-7.33301 11.333 -17.333 20.666 -30 27.999
s-26 11 -40 11c-10.667 0 -20.834 -2.16699 -30.501 -6.5s-18 -10.166 -25 -17.499s-12.5 -15.833 -16.5 -25.5s-6 -19.834 -6 -30.501c0 -7.33301 1.5 -14.833 4.5 -22.5s6.5 -14.5 10.5 -20.5l134 -184h-106c-2.66699 0 -5.16699 -1.83301 -7.5 -5.5
s-4.5 -7.83398 -6.5 -12.501s-3.5 -9.5 -4.5 -14.5s-1.5 -8.83301 -1.5 -11.5s1.66699 -5.16699 5 -7.5s7.33301 -4.33301 12 -6s9.5 -3 14.5 -4s8.83301 -1.5 11.5 -1.5h130l13 -19l2 -23h-168c-2.66699 0 -5.16699 -1.83301 -7.5 -5.5s-4.5 -7.83398 -6.5 -12.501
s-3.5 -9.33398 -4.5 -14.001s-1.5 -8.33398 -1.5 -11.001s1.66699 -5.16699 5 -7.5s7.33301 -4.33301 12 -6s9.5 -3 14.5 -4s8.83301 -1.5 11.5 -1.5h145v-253h159v254h165c8 0 14.833 3.33301 20.5 10s8.5 14 8.5 22s-2.83301 15 -8.5 21s-12.834 9 -21.501 9h-164v22
l13 20h151c9.33301 0 16.5 3.16699 21.5 9.5s7.5 13.833 7.5 22.5s-2.66699 16 -8 22s-12.666 9 -21.999 9h-101l132 183c10 12.667 15 27.334 15 44.001z" />
    <glyph glyph-name="brokenbar" unicode="&#xa6;" horiz-adv-x="619" 
d="M341 729c0 21.333 -7.33301 39.168 -22 53.501s-32.334 21.5 -53.001 21.5s-38 -7.33301 -52 -22s-21 -32.334 -21 -53.001c0 -20 7.16699 -37.167 21.5 -51.5s31.5 -21.5 51.5 -21.5c20.667 0 38.334 7 53.001 21s22 31.333 22 52zM140 730.002
c0 20 -7.16602 37.332 -21.499 51.999s-31.5 22 -51.5 22c-20.667 0 -38.334 -7 -53.001 -21s-22 -31.333 -22 -52c0 -21.333 7 -39.166 21 -53.499s31.667 -21.5 53 -21.5c20.667 0 38.167 7.16699 52.5 21.5s21.5 31.833 21.5 52.5zM610.001 123.001
c0 9.33301 -2.16699 17.999 -6.5 25.999s-9.16602 15.667 -14.499 23l-85 115l87 113c5.33301 7.33301 9.83301 14.833 13.5 22.5s5.5 16.167 5.5 25.5c0 16 -5.5 30.167 -16.5 42.5s-24.833 18.5 -41.5 18.5c-11.333 0 -22.333 -3.16699 -33 -9.5
s-19.667 -14.166 -27 -23.499l-111 -142c-0.666992 -0.666992 -1.16699 -5 -1.5 -13s-0.5 -16.667 -0.5 -26v-26v-14c0 -1.33301 0.833008 -3.5 2.5 -6.5s3.66699 -6 6 -9s4.5 -6 6.5 -9s3.33301 -5.16699 4 -6.5l95 -131c6.66699 -9.33301 14.667 -16.833 24 -22.5
s19.666 -8.5 30.999 -8.5c16.667 0 31.167 6 43.5 18s18.5 26.333 18.5 43zM252.001 74l-0.000976562 468c0 10 -2 19.667 -6 29s-9.5 17.5 -16.5 24.5s-15 12.667 -24 17s-18.833 6.5 -29.5 6.5c-21.333 0 -39.666 -7.33301 -54.999 -22s-23 -33 -23 -55v-467zM363 -27
c0 15.333 -4.83789 28.498 -14.5049 39.498s-22.5 16.5 -38.5 16.5c-2.66699 0 -5.5 -0.166992 -8.5 -0.5s-6.16699 -1.16602 -9.5 -2.49902l-56.5 -29.5c-20.333 -10.333 -39.166 -15.5 -56.499 -15.5c-14 0 -27.833 2.66699 -41.5 8s-26.5 11 -38.5 17l-33.5 16.5
c-10.333 5 -19.166 7.5 -26.499 7.5c-15.333 0 -27.833 -6.16699 -37.5 -18.5s-14.5 -25.833 -14.5 -40.5c0 -21.333 8.66699 -38 26 -50c4.66699 -4.66699 13 -9.66699 25 -15s24.667 -10.5 38 -15.5s26.333 -9.5 39 -13.5s22.334 -6.33301 29.001 -7
c5.33301 -0.666992 10.333 -1.66699 15 -3s9.33398 -2 14.001 -2c5.33301 0 10.833 0.666992 16.5 2s11.167 2.33301 16.5 3c6.66699 0.666992 16.5 3 29.5 7s26.167 8.5 39.5 13.5s25.833 10.333 37.5 16s19.834 10.834 24.501 15.501c17.333 12.667 26 29.667 26 51z
M296.995 702.998c0 -7.33301 -3.66699 -11 -11 -11s-11 3.66699 -11 11s3.66699 11 11 11s11 -3.66699 11 -11zM100.995 702.998c0 -7.33301 -3.66699 -11 -11 -11s-11 3.66699 -11 11s3.66699 11 11 11s11 -3.66699 11 -11z" />
    <glyph glyph-name="section" unicode="&#xa7;" horiz-adv-x="600" 
d="M12 274c0 -41.333 8.83203 -74.835 26.499 -100.502s39.834 -47 66.501 -64s55.834 -31.167 87.501 -42.5s61.834 -23.666 90.501 -36.999c0 -0.666992 0.666992 -1 2 -1c16.667 -8.66699 31 -17.667 43 -27s18 -23.666 18 -42.999c0 -10 -2.33301 -18.333 -7 -25
s-10.667 -11.834 -18 -15.501s-15.5 -6.33398 -24.5 -8.00098s-17.5 -2.5 -25.5 -2.5c-20 0 -36.167 2.66699 -48.5 8s-22.833 12 -31.5 20s-15.834 16.833 -21.501 26.5s-11.5 18.5 -17.5 26.5s-12.667 14.667 -20 20s-17 8 -29 8c-20 0 -37.333 -7.33301 -52 -22
s-22 -32 -22 -52c0 -22 6 -42 18 -60s27.333 -33.667 46 -47s38.667 -24.333 60 -33s41.666 -14.667 60.999 -18l30.5 -4c10.333 -1.33301 20.5 -2 30.5 -2c27.333 0 54.833 3.16699 82.5 9.5s52.5 16.333 74.5 30s40 31.667 54 54s21 49.5 21 81.5
c0 21.333 -4.5 42 -13.5 62s-21.833 37 -38.5 51c32.667 17.333 59.667 42 81 74s32 67 32 105c0 34.667 -8.66699 63.5 -26 86.5s-39 42.667 -65 59s-54.333 30.333 -85 42s-59 23 -85 34s-47.667 23.167 -65 36.5s-26 29.666 -26 48.999c0 10 2.33301 18.5 7 25.5
s10.667 12.833 18 17.5s15.5 8 24.5 10s17.833 3 26.5 3c16 0 31.667 -2.83301 47 -8.5s30.166 -13 44.499 -22s27.833 -19.167 40.5 -30.5s24 -23 34 -35l83 96c-30.667 44 -68 76.333 -112 97s-93.667 31 -149 31c-25.333 0 -50.833 -2.66699 -76.5 -8
s-48.5 -14.666 -68.5 -27.999c-23.333 -15.333 -42.666 -34.666 -57.999 -57.999s-23 -51 -23 -83c0 -21.333 4.66699 -42.166 14 -62.499s22 -38.166 38 -53.499c-27.333 -18.667 -49.833 -43.334 -67.5 -74.001s-26.5 -62.667 -26.5 -96zM406.999 227.998
c0 -16.667 -5.83398 -30.5 -17.501 -41.5s-24.5 -19.833 -38.5 -26.5c-0.666992 0 -1.16699 -0.166992 -1.5 -0.5s-0.833008 -0.5 -1.5 -0.5c-1.33301 -0.666992 -2.33301 -1.33398 -3 -2.00098s-1.66699 -1 -3 -1l-109 48c-8.66699 4 -17.167 8.33301 -25.5 13
s-15.833 10 -22.5 16s-12 13 -16 21s-6 17 -6 27c0 16.667 5.83301 32.167 17.5 46.5s24.167 25.833 37.5 34.5l123 -55c16.667 -7.33301 31.834 -17.166 45.501 -29.499s20.5 -28.833 20.5 -49.5z" />
    <glyph glyph-name="dieresis" unicode="&#xa8;" horiz-adv-x="440" 
d="M425 737c0 17.333 -5.83301 32 -17.5 44s-26.167 18 -43.5 18s-31.833 -6.16699 -43.5 -18.5s-17.5 -27.166 -17.5 -44.499c0 -16 6.16699 -29.833 18.5 -41.5s26.5 -17.5 42.5 -17.5c17.333 0 31.833 5.66699 43.5 17s17.5 25.666 17.5 42.999zM122 738
c0 16.667 -5.83301 31 -17.5 43s-25.834 18 -42.501 18c-17.333 0 -32 -6.16699 -44 -18.5s-18 -27.166 -18 -44.499c0 -16.667 6 -30.834 18 -42.501s26.667 -17.5 44 -17.5c16.667 0 30.834 6.16699 42.501 18.5s17.5 26.833 17.5 43.5z" />
    <glyph glyph-name="copyright" unicode="&#xa9;" horiz-adv-x="832" 
d="M775 361c0 51.333 -9.83301 99.666 -29.5 144.999s-46.334 84.833 -80.001 118.5s-73.167 60.334 -118.5 80.001s-93.666 29.5 -144.999 29.5s-99.666 -9.83301 -144.999 -29.5s-84.833 -46.5 -118.5 -80.5s-60.334 -73.667 -80.001 -119s-29.5 -93.666 -29.5 -144.999
s9.83301 -99.666 29.5 -144.999s46.334 -84.833 80.001 -118.5s73.167 -60.334 118.5 -80.001s93.666 -29.5 144.999 -29.5s99.666 9.83301 144.999 29.5s84.833 46.5 118.5 80.5s60.334 73.667 80.001 119s29.5 93.666 29.5 144.999zM402 681c44 0 85.167 -8.5 123.5 -25.5
s71.666 -40 99.999 -69s50.666 -63 66.999 -102s24.5 -80.167 24.5 -123.5c0 -44 -8.16699 -85.333 -24.5 -124s-38.666 -72.667 -66.999 -102s-61.666 -52.5 -99.999 -69.5s-79.5 -25.5 -123.5 -25.5s-85.167 8.5 -123.5 25.5s-71.666 40.167 -99.999 69.5
s-50.666 63.333 -66.999 102s-24.5 80 -24.5 124c0 43.333 8.16699 84.5 24.5 123.5s38.666 73 66.999 102s61.666 52 99.999 69s79.5 25.5 123.5 25.5zM555 200c0 9.33301 -3.00098 17.502 -9.00098 24.502s-13.667 10.5 -23 10.5c-6 0 -12.5 -1.66699 -19.5 -5l-23 -10.5
c-8.33301 -3.66699 -17.5 -7.16699 -27.5 -10.5s-21 -5 -33 -5c-21.333 0 -40 4.33301 -56 13s-29.333 20 -40 34s-18.667 30.167 -24 48.5s-8 37.166 -8 56.499c0 18.667 2.33301 37.5 7 56.5s12 36.167 22 51.5s22.833 27.666 38.5 36.999s34.5 14 56.5 14
c18 0 33.333 -3 46 -9l36 -17c0.666992 0 1 -0.333008 1 -1h1c6.66699 -2.66699 12.334 -4 17.001 -4c9.33301 0 16.833 3.5 22.5 10.5s8.5 14.833 8.5 23.5c0 13.333 -4.83301 24.333 -14.5 33s-21.334 15.667 -35.001 21s-27.834 9 -42.501 11s-26.667 3 -36 3
c-33.333 0 -62.833 -6 -88.5 -18s-47.334 -28.5 -65.001 -49.5s-31.167 -45.333 -40.5 -73s-14 -57.5 -14 -89.5c0 -30.667 4.66699 -59.5 14 -86.5s22.833 -50.667 40.5 -71s39.334 -36.5 65.001 -48.5s54.5 -18 86.5 -18c9.33301 0 21.833 1 37.5 3
s30.834 5.66699 45.501 11s27.334 12.333 38.001 21s16 19.667 16 33z" />
    <glyph glyph-name="ordfeminine" unicode="&#xaa;" horiz-adv-x="414" 
d="M359 366l-0.00195312 325.002c0 11.333 -4.16699 20.833 -12.5 28.5s-18.166 11.5 -29.499 11.5c-13.333 0 -22.666 -4.16699 -27.999 -12.5s-8 -18.833 -8 -31.5c-12 14.667 -26.333 25.667 -43 33s-34.334 11 -53.001 11c-25.333 0 -47.666 -5.33301 -66.999 -16
s-35.666 -24.834 -48.999 -42.501s-23.5 -37.5 -30.5 -59.5s-10.5 -44.333 -10.5 -67s3.5 -45 10.5 -67s17.167 -41.833 30.5 -59.5s29.666 -31.834 48.999 -42.501s41.333 -16 66 -16c9.33301 0 19.666 2.5 30.999 7.5s21.833 10.667 31.5 17s17.834 12 24.501 17l10 7.5
l3 -45zM371.998 284.002c0 10 -3.16699 18.668 -9.5 26.001s-14.5 11 -24.5 11h-283v-72h283c9.33301 0 17.333 3.66699 24 11s10 15.666 10 24.999v-1zM279.998 548.003c0 -13.333 -1.49805 -26.999 -4.49805 -40.999s-7.66699 -26.667 -14 -38s-15 -20.5 -26 -27.5
s-24.5 -10.5 -40.5 -10.5c-15.333 0 -28.666 3.5 -39.999 10.5s-20.5 16 -27.5 27s-12.167 23.333 -15.5 37s-5 27.167 -5 40.5s1.66699 26.666 5 39.999s8.66602 25.5 15.999 36.5s16.666 20 27.999 27s24.666 10.5 39.999 10.5c16 0 29.333 -3.33301 40 -10
s19.167 -15.334 25.5 -26.001s11 -22.667 14 -36s4.5 -26.666 4.5 -39.999z" />
    <glyph glyph-name="guillemotleft" unicode="&#xab;" horiz-adv-x="497" 
d="M399 500c-12 0 -22.999 -3.16504 -32.999 -9.49805s-18.333 -14.166 -25 -23.499l-97 -143c-4.66699 -6.66699 -8.83398 -13.834 -12.501 -21.501s-5.5 -15.834 -5.5 -24.501c0 -8 3 -18.5 9 -31.5s13.833 -27.333 23.5 -43s20.167 -31.834 31.5 -48.501l33.5 -47
c11 -14.667 21.167 -27.5 30.5 -38.5s16.333 -18.833 21 -23.5l87 74c-4.66699 6 -12 16.5 -22 31.5l-32 47.5l-32.5 47.5c-10.333 15 -18.166 25.167 -23.499 30.5l87 114c5.33301 7.33301 10 14.833 14 22.5s6 16.167 6 25.5c0 16.667 -5.83301 31 -17.5 43
s-25.834 18 -42.501 18zM189.001 500.002c-11.333 0 -22.167 -3.16699 -32.5 -9.5s-18.833 -14.166 -25.5 -23.499l-96 -143c-4.66699 -6.66699 -8.83398 -14 -12.501 -22s-5.5 -16.333 -5.5 -25c0 -7.33301 3 -17.5 9 -30.5s13.833 -27.333 23.5 -43
s20.334 -31.834 32.001 -48.501l34 -47c11 -14.667 21.167 -27.5 30.5 -38.5s16.333 -18.833 21 -23.5l85 74l-21 31.5l-32 47.5l-32.5 47.5c-10.333 15 -18.166 25.167 -23.499 30.5l87 114c5.33301 7.33301 9.83301 14.833 13.5 22.5s5.5 16.167 5.5 25.5
c0 16 -5.83301 30.167 -17.5 42.5s-25.834 18.5 -42.501 18.5z" />
    <glyph glyph-name="logicalnot" unicode="&#xac;" horiz-adv-x="603" 
d="M553 216v248h-524v-104h443v-144h81z" />
    <glyph glyph-name="registered" unicode="&#xae;" horiz-adv-x="832" 
d="M775 361c0 51.333 -9.83301 99.666 -29.5 144.999s-46.334 84.833 -80.001 118.5s-73.167 60.334 -118.5 80.001s-93.666 29.5 -144.999 29.5s-99.666 -9.83301 -144.999 -29.5s-84.833 -46.5 -118.5 -80.5s-60.334 -73.667 -80.001 -119s-29.5 -93.666 -29.5 -144.999
s9.83301 -99.666 29.5 -144.999s46.334 -84.833 80.001 -118.5s73.167 -60.334 118.5 -80.001s93.666 -29.5 144.999 -29.5s99.666 9.83301 144.999 29.5s84.833 46.5 118.5 80.5s60.334 73.667 80.001 119s29.5 93.666 29.5 144.999zM402 681c44 0 85.167 -8.5 123.5 -25.5
s71.666 -40 99.999 -69s50.666 -63 66.999 -102s24.5 -80.167 24.5 -123.5c0 -44 -8.16699 -85.333 -24.5 -124s-38.666 -72.667 -66.999 -102s-61.666 -52.5 -99.999 -69.5s-79.5 -25.5 -123.5 -25.5s-85.167 8.5 -123.5 25.5s-71.666 40.167 -99.999 69.5
s-50.666 63.333 -66.999 102s-24.5 80 -24.5 124c0 43.333 8.16699 84.5 24.5 123.5s38.666 73 66.999 102s61.666 52 99.999 69s79.5 25.5 123.5 25.5zM586 178c0 1.33301 -0.999023 3.83301 -2.99902 7.5s-3.66699 6.16699 -5 7.5l-112 131
c28.667 5.33301 53.5 17.666 74.5 36.999s31.5 46 31.5 80c0 21.333 -3.83301 40.5 -11.5 57.5s-18.167 31.333 -31.5 43s-29 20.667 -47 27s-37.333 9.5 -58 9.5h-153c-2 0 -3.83301 -1.5 -5.5 -4.5s-3.33398 -6.5 -5.00098 -10.5s-2.83398 -8 -3.50098 -12s-1 -7 -1 -9
v-357c0 -13.333 4.83301 -25 14.5 -35s21.167 -15 34.5 -15s24.833 4.66699 34.5 14s14.5 20.666 14.5 33.999v136l142 -178c1.33301 -1.33301 3.83301 -4 7.5 -8s6.83398 -6 9.50098 -6c2 0 7 2.33301 15 7s16.167 9.83398 24.5 15.501s16 11.334 23 17.001
s10.5 9.5 10.5 11.5zM355.001 491h67.001c13.333 0 25.166 -5 35.499 -15s15.5 -21.667 15.5 -35c0 -14 -4.5 -26 -13.5 -36s-20.833 -15 -35.5 -15h-69v101z" />
    <glyph glyph-name="macron" unicode="&#xaf;" horiz-adv-x="378" 
d="M356 647c0 15.333 -5.33301 28.168 -16 38.501s-23.667 15.5 -39 15.5h-241c-14.667 0 -27 -5.33301 -37 -16s-15 -23 -15 -37c0 -15.333 4.83301 -28.333 14.5 -39s22.167 -16 37.5 -16h241c15.333 0 28.333 5.16699 39 15.5s16 23.166 16 38.499z" />
    <glyph glyph-name="degree" unicode="&#xb0;" horiz-adv-x="344" 
d="M305 596c0 18.667 -3.66797 36.5029 -11.001 53.5029s-17.166 31.667 -29.499 44s-27 22.166 -44 29.499s-35.167 11 -54.5 11s-37.333 -3.66699 -54 -11s-31.334 -17.166 -44.001 -29.499s-22.667 -27 -30 -44s-11 -35.167 -11 -54.5
c0 -18.667 3.66699 -36.334 11 -53.001s17.333 -31.334 30 -44.001s27.334 -22.667 44.001 -30s34.667 -11 54 -11c18.667 0 36.5 3.66699 53.5 11s31.833 17.166 44.5 29.499s22.667 27 30 44s11 35.167 11 54.5zM257.999 596.003c0 -12.667 -2.33203 -24.667 -6.99902 -36
s-11.167 -21.166 -19.5 -29.499s-18.166 -14.833 -29.499 -19.5s-23.333 -7 -36 -7s-24.5 2.33301 -35.5 7s-20.667 11.167 -29 19.5s-15 18.166 -20 29.499s-7.5 23.333 -7.5 36s2.33301 24.5 7 35.5s11.167 20.667 19.5 29s18.166 15 29.499 20s23.333 7.5 36 7.5
s24.667 -2.5 36 -7.5s21.166 -11.667 29.499 -20s14.833 -18 19.5 -29s7 -22.833 7 -35.5z" />
    <glyph glyph-name="plusminus" unicode="&#xb1;" 
 />
    <glyph glyph-name="twosuperior" unicode="&#xb2;" 
 />
    <glyph glyph-name="threesuperior" unicode="&#xb3;" 
 />
    <glyph glyph-name="acute" unicode="&#xb4;" horiz-adv-x="304" 
d="M228 758c-2 0 -5.83203 -0.667969 -11.499 -2.00098s-9.5 -2.66602 -11.5 -3.99902l-165 -65c-11.333 -4.66699 -20.333 -11.834 -27 -21.501s-10 -20.167 -10 -31.5c0 -16 5.83301 -29.333 17.5 -40s25.167 -16 40.5 -16c7.33301 0 14.666 1.33301 21.999 4
c3.33301 0.666992 12.5 3.33398 27.5 8.00098s31 10.167 48 16.5s32.667 12.666 47 18.999s23.166 11.833 26.499 16.5c6 2.66699 13 6.66699 21 12s15.333 11.833 22 19.5s11.5 15.834 14.5 24.501s2.5 17.667 -1.5 27c-5.33301 12 -14.166 20.5 -26.499 25.5
s-23.5 7.5 -33.5 7.5z" />
    <glyph glyph-name="mu" unicode="&#xb5;" 
 />
    <glyph glyph-name="paragraph" unicode="&#xb6;" horiz-adv-x="607" 
d="M566 687c0 9.33301 -3.33301 17.166 -10 23.499s-14.667 9.5 -24 9.5h-305c-28.667 0 -55.5 -5.5 -80.5 -16.5s-46.833 -26 -65.5 -45s-33.334 -41 -44.001 -66s-16 -51.833 -16 -80.5s5.33301 -55.5 16 -80.5s25.334 -47 44.001 -66s40.5 -34 65.5 -45
s51.833 -16.5 80.5 -16.5h65v-521h70l1 871h61v-872l72 1l-1 871h21c8.66699 0 16.667 0.833008 24 2.5s13.5 4.83398 18.5 9.50098s7.5 11.667 7.5 21z" />
    <glyph glyph-name="periodcentered" unicode="&#xb7;" horiz-adv-x="243" 
d="M205 268c0 24.667 -8.66699 45.502 -26 62.502s-38 25.5 -62 25.5s-44.667 -8.5 -62 -25.5s-26 -37.833 -26 -62.5c0 -12 2.33301 -23.333 7 -34s11.167 -19.834 19.5 -27.501s17.833 -13.834 28.5 -18.501s22 -7 34 -7s23.167 2.33301 33.5 7s19.5 11 27.5 19
s14.333 17.167 19 27.5s7 21.5 7 33.5z" />
    <glyph glyph-name="periodcentered" unicode="&#x2219;" horiz-adv-x="243" 
d="M205 268c0 24.667 -8.66699 45.502 -26 62.502s-38 25.5 -62 25.5s-44.667 -8.5 -62 -25.5s-26 -37.833 -26 -62.5c0 -12 2.33301 -23.333 7 -34s11.167 -19.834 19.5 -27.501s17.833 -13.834 28.5 -18.501s22 -7 34 -7s23.167 2.33301 33.5 7s19.5 11 27.5 19
s14.333 17.167 19 27.5s7 21.5 7 33.5z" />
    <glyph glyph-name="cedilla" unicode="&#xb8;" horiz-adv-x="210" 
d="M187 31h-108l-10.5 -18l-16 -27.5l-16 -28c-5 -9 -8.5 -15.5 -10.5 -19.5c-6.66699 -13.333 -10 -28 -10 -44c0 -13.333 4.16699 -25.833 12.5 -37.5s19.5 -17.5 33.5 -17.5c7.33301 0 14.5 1.83301 21.5 5.5s12.167 9.16699 15.5 16.5z" />
    <glyph glyph-name="onesuperior" unicode="&#xb9;" 
 />
    <glyph glyph-name="ordmasculine" unicode="&#xba;" horiz-adv-x="401" 
d="M194 732c-25.333 0 -48.333 -5.16406 -69 -15.4971s-38.334 -24 -53.001 -41s-26 -36.667 -34 -59s-12 -45.5 -12 -69.5s3.83301 -47.333 11.5 -70s18.834 -42.834 33.501 -60.501s32.167 -31.667 52.5 -42s43.5 -15.5 69.5 -15.5c25.333 0 48.333 5.16699 69 15.5
s38.167 24.166 52.5 41.499s25.5 37.166 33.5 59.499s12 45.5 12 69.5s-3.83301 47.167 -11.5 69.5s-18.667 42.333 -33 60s-31.833 31.667 -52.5 42s-43.667 15.5 -69 15.5zM342 321.003l-278 -0.000976562c-6.66699 0 -12.834 -4.16699 -18.501 -12.5
s-8.5 -16.166 -8.5 -23.499s2.83301 -15.166 8.5 -23.499s12.167 -12.5 19.5 -12.5h260c3.33301 0 9 1.16699 17 3.5s12 5.16602 12 8.49902c0 2 -0.333008 6.16699 -1 12.5s-1.66699 13 -3 20s-2.66602 13.333 -3.99902 19s-3 8.5 -5 8.5h1zM107 548.002
c0 12.667 1.66699 25.6641 5 38.9971s8.5 25.333 15.5 36s16 19.5 27 26.5s23.833 10.5 38.5 10.5c15.333 0 28.5 -3.66699 39.5 -11s20 -16.666 27 -27.999s12 -23.833 15 -37.5s4.5 -27.167 4.5 -40.5s-1.66699 -26.666 -5 -39.999s-8.5 -25.5 -15.5 -36.5
s-16 -19.833 -27 -26.5s-24.167 -10 -39.5 -10s-28.5 3.66699 -39.5 11s-19.833 16.833 -26.5 28.5s-11.5 24.334 -14.5 38.001s-4.5 27.167 -4.5 40.5z" />
    <glyph glyph-name="guillemotright" unicode="&#xbb;" horiz-adv-x="488" 
d="M460 259c0 7.33301 -3.16602 17.667 -9.49902 31s-14.333 27.833 -24 43.5s-20.5 32 -32.5 49l-35 48l-31 39.5c-9.33301 11.333 -16.333 19.333 -21 24l-86 -75c4.66699 -6 12.167 -16.667 22.5 -32l33 -48.5l33.5 -48.5c10.667 -15.333 18.667 -25.666 24 -30.999
l-87 -114c-5.33301 -7.33301 -9.83301 -14.833 -13.5 -22.5s-5.5 -16.167 -5.5 -25.5c0 -16.667 5.66699 -31 17 -43s25.666 -18 42.999 -18c11.333 0 22.166 3.16699 32.499 9.5s18.833 14.166 25.5 23.499l96 142c4.66699 7.33301 8.83398 14.833 12.501 22.5
s5.5 16.167 5.5 25.5zM251.001 258.001c0 8 -3.16504 18.666 -9.49805 31.999s-14.333 27.833 -24 43.5s-20.334 32 -32.001 49l-34.5 48c-11.333 15 -21.833 28.167 -31.5 39.5s-16.834 19.333 -21.501 24l-86 -75c4.66699 -6 12.167 -16.667 22.5 -32l33 -48.5l33 -48.5
c10.333 -15.333 18.166 -25.666 23.499 -30.999l-86 -114c-5.33301 -7.33301 -10 -14.833 -14 -22.5s-6 -16.167 -6 -25.5c0 -16.667 5.83301 -31 17.5 -43s25.834 -18 42.501 -18c12 0 23 3.16699 33 9.5s18.333 14.166 25 23.499l96 142c4.66699 7.33301 9 14.833 13 22.5
s6 15.834 6 24.501z" />
    <glyph glyph-name="onequarter" unicode="&#xbc;" 
 />
    <glyph glyph-name="onehalf" unicode="&#xbd;" 
 />
    <glyph glyph-name="threequarters" unicode="&#xbe;" 
 />
    <glyph glyph-name="questiondown" unicode="&#xbf;" horiz-adv-x="485" 
d="M2 186c0 -34 6.83203 -63.5039 20.499 -88.5039s31.834 -46 54.501 -63s48.5 -29.667 77.5 -38s58.833 -12.5 89.5 -12.5c14.667 0 30.167 1.33301 46.5 4s32.5 6.83398 48.5 12.501s31.333 12.834 46 21.501s28 19 40 31s22 25.667 30 41s12 31.666 12 48.999
c0 18 -5.5 33.833 -16.5 47.5s-26.167 20.5 -45.5 20.5c-13.333 0 -23.5 -3.33301 -30.5 -10s-13.833 -14 -20.5 -22c-0.666992 0 -1 -0.333008 -1 -1v0c-14 -17.333 -30.333 -31.166 -49 -41.499s-39.667 -15.5 -63 -15.5c-21.333 0 -40 5.83301 -56 17.5
s-24 29.167 -24 52.5c0 16 3.83301 28.5 11.5 37.5s17.167 16.333 28.5 22s23.833 10.334 37.5 14.001s26.167 8.33398 37.5 14.001s20.833 12.834 28.5 21.501s11.5 20.667 11.5 36v189h-41h-112l2 -154c-23.333 -4.66699 -45 -12.334 -65 -23.001s-37.333 -24 -52 -40
s-26 -34.333 -34 -55s-12 -43 -12 -67zM240.999 563.996c24.667 0 45.333 8.5 62 25.5s25 37.833 25 62.5c0 12 -2.33301 23.167 -7 33.5s-11 19.333 -19 27s-17.167 13.834 -27.5 18.501s-21.5 7 -33.5 7c-24 0 -44.667 -8.5 -62 -25.5s-26 -37.5 -26 -61.5
c0 -24.667 8.66699 -45.334 26 -62.001s38 -25 62 -25z" />
    <glyph glyph-name="Agrave" unicode="&#xc0;" horiz-adv-x="652" 
d="M442 817c0 11.333 -3.16602 21.668 -9.49902 31.001s-15.166 16.333 -26.499 21c-2 2.66699 -10.333 7.33398 -25 14.001s-31.167 13.5 -49.5 20.5s-35.833 13.333 -52.5 19s-27.334 9.16699 -32.001 10.5c-7.33301 3.33301 -15.333 5 -24 5
c-15.333 0 -28.5 -5.5 -39.5 -16.5s-16.5 -24.167 -16.5 -39.5c0 -11.333 3.33301 -21.833 10 -31.5s15.667 -16.834 27 -21.501c2 -2.66699 10.333 -7.16699 25 -13.5s31.167 -13 49.5 -20s35.666 -13.333 51.999 -19s27.166 -8.83398 32.499 -9.50098
c4.66699 -2 8.83398 -3.33301 12.501 -4s7.16699 -1 10.5 -1c15.333 0 28.5 5.33301 39.5 16s16.5 23.667 16.5 39zM654.001 24.002l-230.001 613c-10.667 28 -25.667 50 -45 66s-44.666 24 -75.999 24c-29.333 0 -53.666 -8.5 -72.999 -25.5s-34 -38.5 -44 -64.5l-201 -530
c-2.66699 -6.66699 -4.83398 -13.5 -6.50098 -20.5s-2.5 -14.167 -2.5 -21.5c0 -22 7.83301 -40.167 23.5 -54.5s34.167 -21.5 55.5 -21.5c9.33301 0 17.833 2 25.5 6s14.167 9 19.5 15c4.66699 2 10.167 8.33301 16.5 19s12.5 22.5 18.5 35.5s11.5 25.667 16.5 38
s8.5 21.5 10.5 27.5h287l49 -147zM402 267.002h-195l98 293z" />
    <glyph glyph-name="Aacute" unicode="&#xc1;" horiz-adv-x="652" 
d="M445 881c0 15.333 -5.50195 28.5029 -16.502 39.5029s-24.167 16.5 -39.5 16.5c-8.66699 0 -16.334 -1.66699 -23.001 -5c-5.33301 -0.666992 -16.166 -3.83398 -32.499 -9.50098s-33.666 -12 -51.999 -19s-35 -13.833 -50 -20.5s-23.5 -11.334 -25.5 -14.001
c-11.333 -4.66699 -20.333 -11.834 -27 -21.501s-10 -20.167 -10 -31.5c0 -15.333 5.83301 -28.5 17.5 -39.5s25.167 -16.5 40.5 -16.5c6.66699 0 14.334 1.66699 23.001 5c3.33301 0.666992 9.33301 2.5 18 5.5l30.5 10.5c11.667 4 23.667 8.5 36 13.5l34.5 14.5l27 12
c7.33301 3.33301 11.666 6 12.999 8c10.667 4 19.334 10.833 26.001 20.5s10 20.167 10 31.5zM653.998 24.0029l-230.001 613c-10.667 28 -25.667 50 -45 66s-44.666 24 -75.999 24c-29.333 0 -53.666 -8.5 -72.999 -25.5s-34 -38.5 -44 -64.5l-201 -530
c-2.66699 -6.66699 -4.83398 -13.5 -6.50098 -20.5s-2.5 -14.167 -2.5 -21.5c0 -22 7.83301 -40.167 23.5 -54.5s34.167 -21.5 55.5 -21.5c9.33301 0 17.833 2 25.5 6s14.167 9 19.5 15c4.66699 2 10.167 8.33301 16.5 19s12.5 22.5 18.5 35.5s11.5 25.667 16.5 38
s8.5 21.5 10.5 27.5h287l49 -147zM401.997 267.003h-195l98 293z" />
    <glyph glyph-name="Acircumflex" unicode="&#xc2;" horiz-adv-x="652" 
d="M494 818c0 11.333 -3.16992 21.832 -9.50293 31.499s-15.166 16.834 -26.499 21.501l-123 48c-4 1.33301 -8.66699 3 -14 5s-10.666 3 -15.999 3c-4.66699 0 -9.5 -1 -14.5 -3l-15.5 -6l-123 -49c-10.667 -4 -19.167 -10.833 -25.5 -20.5s-9.5 -20.167 -9.5 -31.5
c0 -15.333 5.5 -28.666 16.5 -39.999s24.167 -17 39.5 -17c6.66699 0 16.167 2.16699 28.5 6.5s25 9.16602 38 14.499s25.667 10.833 38 16.5s21.833 9.83398 28.5 12.501c6.66699 -2.66699 15.834 -6.66699 27.501 -12l37 -16.5c13 -5.66699 25.333 -10.5 37 -14.5
s21.167 -6 28.5 -6c15.333 0 28.833 5.66699 40.5 17s17.5 24.666 17.5 39.999zM653.997 23.999l-230.001 613c-10.667 28 -25.667 50 -45 66s-44.666 24 -75.999 24c-29.333 0 -53.666 -8.5 -72.999 -25.5s-34 -38.5 -44 -64.5l-201 -530
c-2.66699 -6.66699 -4.83398 -13.5 -6.50098 -20.5s-2.5 -14.167 -2.5 -21.5c0 -22 7.83301 -40.167 23.5 -54.5s34.167 -21.5 55.5 -21.5c9.33301 0 17.833 2 25.5 6s14.167 9 19.5 15c4.66699 2 10.167 8.33301 16.5 19s12.5 22.5 18.5 35.5s11.5 25.667 16.5 38
s8.5 21.5 10.5 27.5h287l49 -147zM401.996 266.999h-195l98 293z" />
    <glyph glyph-name="Atilde" unicode="&#xc3;" horiz-adv-x="652" 
d="M654 24l-230.001 613c-10.667 28 -25.667 50 -45 66s-44.666 24 -75.999 24c-29.333 0 -53.666 -8.5 -72.999 -25.5s-34 -38.5 -44 -64.5l-201 -530c-2.66699 -6.66699 -4.83398 -13.5 -6.50098 -20.5s-2.5 -14.167 -2.5 -21.5c0 -22 7.83301 -40.167 23.5 -54.5
s34.167 -21.5 55.5 -21.5c9.33301 0 17.833 2 25.5 6s14.167 9 19.5 15c4.66699 2 10.167 8.33301 16.5 19s12.5 22.5 18.5 35.5s11.5 25.667 16.5 38s8.5 21.5 10.5 27.5h287l49 -147zM401.999 267h-195l98 293zM485.999 942h-9.00293h-58
c0 -4.66699 -0.666992 -9.83398 -2 -15.501s-3.16602 -11 -5.49902 -16s-5.5 -9.16699 -9.5 -12.5s-8.66699 -5 -14 -5c-11.333 0 -23.333 2.5 -36 7.5s-25.667 10.5 -39 16.5s-27 11.5 -41 16.5s-28 7.5 -42 7.5c-17.333 0 -32 -3.83301 -44 -11.5s-22 -17.667 -30 -30
s-13.833 -26 -17.5 -41s-5.83398 -29.833 -6.50098 -44.5v-12h67c0 4.66699 0.5 9.83398 1.5 15.501s2.83301 11 5.5 16s5.83398 9.16699 9.50098 12.5s8.5 5 14.5 5c10 0 21.333 -2.5 34 -7.5s25.834 -10.5 39.501 -16.5s27.667 -11.5 42 -16.5s28.5 -7.5 42.5 -7.5
c18 0 33.167 4.33301 45.5 13s22.333 19.834 30 33.501s13.334 28.667 17.001 45s5.5 32.166 5.5 47.499z" />
    <glyph glyph-name="Adieresis" unicode="&#xc4;" horiz-adv-x="652" 
d="M517 737c0 17.333 -5.83301 32 -17.5 44s-26.167 18 -43.5 18s-31.833 -6.16699 -43.5 -18.5s-17.5 -27.166 -17.5 -44.499c0 -16 6.16699 -29.833 18.5 -41.5s26.5 -17.5 42.5 -17.5c17.333 0 31.833 5.66699 43.5 17s17.5 25.666 17.5 42.999zM214 738
c0 16.667 -5.83301 31 -17.5 43s-25.834 18 -42.501 18c-17.333 0 -32 -6.16699 -44 -18.5s-18 -27.166 -18 -44.499c0 -16.667 6 -30.834 18 -42.501s26.667 -17.5 44 -17.5c16.667 0 30.834 6.16699 42.501 18.5s17.5 26.833 17.5 43.5zM654 24l-230.001 613
c-10.667 28 -25.667 50 -45 66s-44.666 24 -75.999 24c-29.333 0 -53.666 -8.5 -72.999 -25.5s-34 -38.5 -44 -64.5l-201 -530c-2.66699 -6.66699 -4.83398 -13.5 -6.50098 -20.5s-2.5 -14.167 -2.5 -21.5c0 -22 7.83301 -40.167 23.5 -54.5s34.167 -21.5 55.5 -21.5
c9.33301 0 17.833 2 25.5 6s14.167 9 19.5 15c4.66699 2 10.167 8.33301 16.5 19s12.5 22.5 18.5 35.5s11.5 25.667 16.5 38s8.5 21.5 10.5 27.5h287l49 -147zM401.999 267h-195l98 293z" />
    <glyph glyph-name="Aring" unicode="&#xc5;" horiz-adv-x="652" 
d="M654 43l-229.998 593.998c-7.33301 18 -16.833 34.333 -28.5 49s-26.834 25.667 -45.501 33c19.333 6.66699 35.333 17.667 48 33s19 33.333 19 54c0 14.667 -3.16699 27.834 -9.5 39.501s-14.833 21.834 -25.5 30.501s-22.5 15.334 -35.5 20.001s-26.5 7 -40.5 7
s-27.5 -2.33301 -40.5 -7s-24.667 -11.334 -35 -20.001s-18.666 -19 -24.999 -31s-9.5 -25.333 -9.5 -40c0 -20 5.83301 -37.833 17.5 -53.5s27.167 -26.834 46.5 -33.501c-18.667 -7.33301 -33.834 -18.166 -45.501 -32.499s-21.167 -30.5 -28.5 -48.5l-201 -530
c-2.66699 -6.66699 -4.83398 -13.5 -6.50098 -20.5s-2.5 -14.167 -2.5 -21.5c0 -22 7.83301 -40.167 23.5 -54.5s34.167 -21.5 55.5 -21.5c9.33301 0 17.833 2 25.5 6s14.167 9 19.5 15c4.66699 2 10.167 8.33301 16.5 19s12.5 22.5 18.5 35.5s11.5 25.667 16.5 38
s8.5 21.5 10.5 27.5h287l55 -144zM274.002 807.998c0 8.66699 3.16699 16 9.5 22s13.833 9 22.5 9c9.33301 0 17 -3 23 -9s9 -13.667 9 -23s-3 -16.833 -9 -22.5s-13.667 -8.5 -23 -8.5s-17 3.16699 -23 9.5s-9 13.833 -9 22.5zM403.002 266.998h-196l98 293z" />
    <glyph glyph-name="AE" unicode="&#xc6;" horiz-adv-x="849" 
d="M819 20c0 2.66699 -0.500977 10.5029 -1.50098 23.5029s-2.5 26.667 -4.5 41s-4.33301 27.166 -7 38.499s-5.33398 17 -8.00098 17h-239v149h169c19.333 0 35.833 7 49.5 21s20.5 30.667 20.5 50s-6.83301 35.666 -20.5 48.999s-30.167 20 -49.5 20h-169v152h186
c14 0 25.333 6.5 34 19.5s13 26.167 13 39.5c0 6.66699 -1.33301 14.667 -4 24s-6.16699 18.166 -10.5 26.499s-9.66602 15.333 -15.999 21s-12.833 8.5 -19.5 8.5h-391c-21.333 0 -37.333 -4.5 -48 -13.5s-20.667 -23.167 -30 -42.5l-273 -609l141 -68l68 152l194 3l2 -14
l4.5 -32l5 -34.5c1.66699 -11 2.83398 -17.833 3.50098 -20.5c4 -11.333 12.667 -21 26 -29s26.333 -12 39 -12h280c2.66699 0 7 0.5 13 1.5s12.167 2.5 18.5 4.5s12 4.16699 17 6.5s7.5 4.83301 7.5 7.5zM399.999 266.003h-141l141 314v-314z" />
    <glyph glyph-name="Ccedilla" unicode="&#xc7;" horiz-adv-x="639" 
d="M603 117c0 19.333 -6.66602 35.499 -19.999 48.499s-29.666 19.5 -48.999 19.5c-10 0 -20.833 -2.5 -32.5 -7.5l-38.5 -16.5c-14 -6 -29.333 -11.5 -46 -16.5s-35.334 -7.5 -56.001 -7.5c-31.333 0 -58.833 6.33301 -82.5 19s-43.334 29.334 -59.001 50.001
s-27.334 44.5 -35.001 71.5s-11.5 55.167 -11.5 84.5c0 27.333 3.83301 53.5 11.5 78.5s18.834 47.333 33.501 67s32.5 36.167 53.5 49.5s45.167 22.666 72.5 27.999c10 2 20.667 3 32 3c30.667 0 59 -5.66699 85 -17s50.667 -26.333 74 -45l56 113
c-14 12 -30.667 23.333 -50 34s-40 20 -62 28s-44.167 14.333 -66.5 19s-43.166 7 -62.499 7h-11c-4 0 -7.66699 -0.333008 -11 -1c-47.333 -4.66699 -90.166 -17.667 -128.499 -39s-71.333 -48.5 -99 -81.5s-49 -70.833 -64 -113.5s-22.5 -87.334 -22.5 -134.001
c0 -44 7 -86.333 21 -127s33.833 -77.167 59.5 -109.5s56.667 -59.5 93 -81.5s76.833 -36.333 121.5 -43c-4.66699 -5.33301 -10.667 -11.5 -18 -18.5s-14.5 -14.667 -21.5 -23s-13.167 -16.666 -18.5 -24.999s-8 -15.833 -8 -22.5c0 -11.333 4.5 -21.166 13.5 -29.499
s19.167 -12.5 30.5 -12.5c15.333 0 27.666 5.66699 36.999 17l81 99l-5 11c16 0.666992 35.667 3.66699 59 9s45.666 13 66.999 23s39.5 22.667 54.5 38s22.5 33.333 22.5 54z" />
    <glyph glyph-name="Egrave" unicode="&#xc8;" horiz-adv-x="456" 
d="M341 817c0 11.333 -3.33008 21.668 -9.99707 31.001s-15.334 16.333 -26.001 21c-2 2.66699 -10.333 7.33398 -25 14.001s-31.167 13.5 -49.5 20.5s-35.833 13.333 -52.5 19s-27.334 9.16699 -32.001 10.5c-7.33301 3.33301 -15.333 5 -24 5
c-15.333 0 -28.5 -5.5 -39.5 -16.5s-16.5 -24.167 -16.5 -39.5c0 -11.333 3.33301 -21.833 10 -31.5s15.667 -16.834 27 -21.501c1.33301 -2.66699 9.5 -7.16699 24.5 -13.5s31.667 -13 50 -20s35.666 -13.333 51.999 -19s27.166 -8.83398 32.499 -9.50098
c4.66699 -2 8.83398 -3.33301 12.501 -4s7.16699 -1 10.5 -1c15.333 0 28.5 5.33301 39.5 16s16.5 23.667 16.5 39zM87.0029 0.00195312h346v140h-266v151h165c19.333 0 36.166 6.5 50.499 19.5s21.5 29.5 21.5 49.5c0 19.333 -6.66699 35 -20 47
c-7.33301 6.66699 -15.5 12 -24.5 16s-18.833 6 -29.5 6h-163v151h183c19.333 0 35.833 6.83301 49.5 20.5s20.5 30.167 20.5 49.5s-6.66699 35.833 -20 49.5s-29.666 20.5 -48.999 20.5h-154h-32h-63c-22.667 0 -43.5 0.166992 -62.5 0.5s-29.5 0.5 -31.5 0.5v-639
c0 -10.667 2 -21 6 -31s9.5 -18.667 16.5 -26s15.333 -13.333 25 -18s20.167 -7 31.5 -7z" />
    <glyph glyph-name="Eacute" unicode="&#xc9;" horiz-adv-x="467" 
d="M349 881c0 15.333 -5.50195 28.5029 -16.502 39.5029s-24.167 16.5 -39.5 16.5c-8.66699 0 -16.334 -1.66699 -23.001 -5c-5.33301 -0.666992 -16.166 -3.83398 -32.499 -9.50098s-33.666 -12 -51.999 -19s-35 -13.833 -50 -20.5s-23.5 -11.334 -25.5 -14.001
c-11.333 -4.66699 -20.333 -11.834 -27 -21.501s-10 -20.167 -10 -31.5c0 -15.333 5.83301 -28.5 17.5 -39.5s25.167 -16.5 40.5 -16.5c6.66699 0 14.334 1.66699 23.001 5c3.33301 0.666992 9.33301 2.5 18 5.5l30.5 10.5c11.667 4 23.667 8.5 36 13.5l34.5 14.5l27 12
c7.33301 3.33301 11.666 6 12.999 8c10.667 4 19.334 10.833 26.001 20.5s10 20.167 10 31.5zM91.998 0.00292969h346v140h-266v151h165c19.333 0 36.166 6.5 50.499 19.5s21.5 29.5 21.5 49.5c0 19.333 -6.66699 35 -20 47c-7.33301 6.66699 -15.5 12 -24.5 16
s-18.833 6 -29.5 6h-163v151h183c19.333 0 35.833 6.83301 49.5 20.5s20.5 30.167 20.5 49.5s-6.66699 35.833 -20 49.5s-29.666 20.5 -48.999 20.5h-154h-32h-63c-22.667 0 -43.5 0.166992 -62.5 0.5s-29.5 0.5 -31.5 0.5v-639c0 -10.667 2 -21 6 -31s9.5 -18.667 16.5 -26
s15.333 -13.333 25 -18s20.167 -7 31.5 -7z" />
    <glyph glyph-name="Ecircumflex" unicode="&#xca;" horiz-adv-x="456" 
d="M393 818c0 11.333 -3.16992 21.832 -9.50293 31.499s-15.166 16.834 -26.499 21.501l-123 48c-4 1.33301 -8.66699 3 -14 5s-10.666 3 -15.999 3c-4.66699 0 -9.5 -1 -14.5 -3l-15.5 -6l-123 -49c-10.667 -4 -19.167 -10.833 -25.5 -20.5s-9.5 -20.167 -9.5 -31.5
c0 -15.333 5.5 -28.666 16.5 -39.999s24.167 -17 39.5 -17c6.66699 0 16.167 2.16699 28.5 6.5s25 9.16602 38 14.499s25.667 10.833 38 16.5s21.833 9.83398 28.5 12.501c6.66699 -2.66699 15.834 -6.66699 27.501 -12l37 -16.5c13 -5.66699 25.333 -10.5 37 -14.5
s21.167 -6 28.5 -6c15.333 0 28.833 5.66699 40.5 17s17.5 24.666 17.5 39.999zM86.9971 -0.000976562h346v140h-266v151h165c19.333 0 36.166 6.5 50.499 19.5s21.5 29.5 21.5 49.5c0 19.333 -6.66699 35 -20 47c-7.33301 6.66699 -15.5 12 -24.5 16s-18.833 6 -29.5 6
h-163v151h183c19.333 0 35.833 6.83301 49.5 20.5s20.5 30.167 20.5 49.5s-6.66699 35.833 -20 49.5s-29.666 20.5 -48.999 20.5h-154h-32h-63c-22.667 0 -43.5 0.166992 -62.5 0.5s-29.5 0.5 -31.5 0.5v-639c0 -10.667 2 -21 6 -31s9.5 -18.667 16.5 -26
s15.333 -13.333 25 -18s20.167 -7 31.5 -7z" />
    <glyph glyph-name="Edieresis" unicode="&#xcb;" horiz-adv-x="456" 
d="M380 838c0 20.667 -7.33301 38.168 -22 52.501s-32.334 21.5 -53.001 21.5s-38 -7.33301 -52 -22s-21 -32.334 -21 -53.001c0 -19.333 7.16699 -36.333 21.5 -51s31.5 -22 51.5 -22c20.667 0 38.334 7 53.001 21s22 31.667 22 53zM106 912.001
c-20.667 0 -38.333 -7.00098 -53 -21.001s-22 -31.333 -22 -52c0 -21.333 7 -39.166 21 -53.499s31.667 -21.5 53 -21.5c20.667 0 38.167 7.33301 52.5 22s21.5 32 21.5 52c0 20.667 -7.16699 38.167 -21.5 52.5s-31.5 21.5 -51.5 21.5zM87.001 0h346v140h-266v151h165
c19.333 0 36.166 6.5 50.499 19.5s21.5 29.5 21.5 49.5c0 19.333 -6.66699 35 -20 47c-7.33301 6.66699 -15.5 12 -24.5 16s-18.833 6 -29.5 6h-163v151h183c19.333 0 35.833 6.83301 49.5 20.5s20.5 30.167 20.5 49.5s-6.66699 35.833 -20 49.5s-29.666 20.5 -48.999 20.5
h-154h-32h-63c-22.667 0 -43.5 0.166992 -62.5 0.5s-29.5 0.5 -31.5 0.5v-639c0 -10.667 2 -21 6 -31s9.5 -18.667 16.5 -26s15.333 -13.333 25 -18s20.167 -7 31.5 -7z" />
    <glyph glyph-name="Igrave" unicode="&#xcc;" horiz-adv-x="252" 
d="M259 817c0 11.333 -3.16602 21.834 -9.49902 31.501s-14.833 16.5 -25.5 20.5c-2 2.66699 -10.333 7.33398 -25 14.001s-31.167 13.5 -49.5 20.5s-35.833 13.333 -52.5 19s-27.667 9.16699 -33 10.5c-8.66699 3.33301 -16.667 5 -24 5c-15.333 0 -28.5 -5.5 -39.5 -16.5
s-16.5 -24.167 -16.5 -39.5c0 -11.333 3.33301 -21.833 10 -31.5s15.667 -16.834 27 -21.501c2 -2.66699 10.5 -7.16699 25.5 -13.5s31.667 -13 50 -20s35.666 -13.333 51.999 -19s27.166 -8.83398 32.499 -9.50098c6.66699 -3.33301 14.334 -5 23.001 -5
c15.333 0 28.333 5.33301 39 16s16 23.667 16 39zM203.001 -0.999023v649c0 21.333 -7.66699 39.833 -23 55.5s-34 23.5 -56 23.5c-21.333 0 -40 -7.66699 -56 -23s-24 -34 -24 -56v-649h159z" />
    <glyph glyph-name="Iacute" unicode="&#xcd;" horiz-adv-x="255" 
d="M261 881c0 15.333 -5.49805 28.5 -16.498 39.5s-24.167 16.5 -39.5 16.5c-3.33301 0 -6.83301 -0.333008 -10.5 -1s-7.83398 -2 -12.501 -4c-5.33301 -1.33301 -16.166 -4.66602 -32.499 -9.99902s-33.666 -11.5 -51.999 -18.5s-35 -13.833 -50 -20.5
s-23.5 -11.334 -25.5 -14.001c-10.667 -4 -19.334 -11 -26.001 -21s-10 -20.667 -10 -32c0 -15.333 5.66699 -28.5 17 -39.5s24.666 -16.5 39.999 -16.5c8.66699 0 16.667 1.66699 24 5c3.33301 0.666992 9.33301 2.5 18 5.5l30.5 10.5c11.667 4 23.667 8.5 36 13.5
l34.5 14.5l27 12c7.33301 3.33301 11.666 6 12.999 8c10.667 4 19.167 10.833 25.5 20.5s9.5 20.167 9.5 31.5zM202.002 -1v649c0 21.333 -7.66699 39.833 -23 55.5s-34 23.5 -56 23.5c-21.333 0 -40 -7.66699 -56 -23s-24 -34 -24 -56v-649h159z" />
    <glyph glyph-name="Icircumflex" unicode="&#xce;" horiz-adv-x="372" 
d="M368 818c0 11.333 -3.16699 21.832 -9.5 31.499s-15.166 16.834 -26.499 21.501l-122 48c-4.66699 1.33301 -9.5 3 -14.5 5s-10.167 3 -15.5 3s-10.5 -1 -15.5 -3l-14.5 -6l-124 -49c-10.667 -4 -19 -10.833 -25 -20.5s-9 -20.167 -9 -31.5
c0 -15.333 5.33301 -28.666 16 -39.999s23.667 -17 39 -17c6.66699 0 16.167 2.16699 28.5 6.5s25.166 9.16602 38.499 14.499s26 10.833 38 16.5s21.333 9.83398 28 12.501c6.66699 -2.66699 15.834 -6.66699 27.501 -12l37 -16.5c13 -5.66699 25.5 -10.5 37.5 -14.5
s21.667 -6 29 -6c15.333 0 28.666 5.66699 39.999 17s17 24.666 17 39.999zM260 -1.00098v649c0 21.333 -7.66699 39.833 -23 55.5s-34 23.5 -56 23.5c-21.333 0 -40 -7.66699 -56 -23s-24 -34 -24 -56v-649h159z" />
    <glyph glyph-name="Idieresis" unicode="&#xcf;" horiz-adv-x="290" 
d="M315 838c0 20.667 -7.16699 38.168 -21.5 52.501s-32.166 21.5 -53.499 21.5c-20.667 0 -38 -7.33301 -52 -22s-21 -32.334 -21 -53.001c0 -19.333 7.33301 -36.333 22 -51s31.667 -22 51 -22c21.333 0 39.166 7 53.499 21s21.5 31.667 21.5 53zM41 912.001
c-20 0 -37.499 -7.00098 -52.499 -21.001s-22.5 -31.333 -22.5 -52c0 -21.333 7.16699 -39.166 21.5 -53.499s32.166 -21.5 53.499 -21.5c20.667 0 38 7.33301 52 22s21 32 21 52c0 20.667 -7 38.167 -21 52.5s-31.333 21.5 -52 21.5zM220.001 -1v649
c0 21.333 -7.66699 39.833 -23 55.5s-34 23.5 -56 23.5c-21.333 0 -40 -7.66699 -56 -23s-24 -34 -24 -56v-649h159z" />
    <glyph glyph-name="Eth" unicode="&#xd0;" 
 />
    <glyph glyph-name="Ntilde" unicode="&#xd1;" horiz-adv-x="693" 
d="M648 70l0.000976562 577.998c0 10.667 -2.16699 20.834 -6.5 30.501s-10 18.167 -17 25.5s-15.5 13.166 -25.5 17.499s-20.333 6.5 -31 6.5s-20.834 -2.16699 -30.501 -6.5s-18 -10.166 -25 -17.499s-12.667 -16 -17 -26s-6.5 -20.333 -6.5 -31v-385l-320 430
c-8 10.667 -17.833 19.5 -29.5 26.5s-24.167 10.5 -37.5 10.5c-22.667 0 -41.667 -8 -57 -24s-23 -35 -23 -57v-648h159v462l325 -441c7.33301 -9.33301 16.5 -16.666 27.5 -21.999s22.5 -8 34.5 -8c22.667 0 41.667 7.66699 57 23s23 34 23 56zM523.001 841.998h-9.00293
h-58c0 -4.66699 -0.666992 -9.83398 -2 -15.501s-3.16602 -11 -5.49902 -16s-5.5 -9.16699 -9.5 -12.5s-8.66699 -5 -14 -5c-11.333 0 -23.333 2.5 -36 7.5s-25.667 10.5 -39 16.5s-27 11.5 -41 16.5s-28 7.5 -42 7.5c-17.333 0 -32 -3.83301 -44 -11.5s-22 -17.667 -30 -30
s-13.833 -26 -17.5 -41s-5.83398 -29.833 -6.50098 -44.5v-12h67c0 4.66699 0.5 9.83398 1.5 15.501s2.83301 11 5.5 16s5.83398 9.16699 9.50098 12.5s8.5 5 14.5 5c10 0 21.333 -2.5 34 -7.5s25.834 -10.5 39.501 -16.5s27.667 -11.5 42 -16.5s28.5 -7.5 42.5 -7.5
c18 0 33.167 4.33301 45.5 13s22.333 19.834 30 33.501s13.334 28.667 17.001 45s5.5 32.166 5.5 47.499z" />
    <glyph glyph-name="Ograve" unicode="&#xd2;" horiz-adv-x="734" 
d="M491 817c0 11.333 -3.16602 21.668 -9.49902 31.001s-15.166 16.333 -26.499 21c-2 2.66699 -10.333 7.33398 -25 14.001s-31.167 13.5 -49.5 20.5s-35.833 13.333 -52.5 19s-27.334 9.16699 -32.001 10.5c-7.33301 3.33301 -15.333 5 -24 5
c-15.333 0 -28.5 -5.5 -39.5 -16.5s-16.5 -24.167 -16.5 -39.5c0 -11.333 3.33301 -21.833 10 -31.5s15.667 -16.834 27 -21.501c2 -2.66699 10.333 -7.16699 25 -13.5s31.167 -13 49.5 -20s35.666 -13.333 51.999 -19s27.166 -8.83398 32.499 -9.50098
c4.66699 -2 8.83398 -3.33301 12.501 -4s7.16699 -1 10.5 -1c15.333 0 28.5 5.33301 39.5 16s16.5 23.667 16.5 39zM356.001 730.002c-51.333 0 -98.333 -9.99902 -141 -29.999s-79.5 -46.833 -110.5 -80.5s-55.167 -72.834 -72.5 -117.501s-26 -92 -26 -142
c0 -49.333 8.66699 -96.333 26 -141s41.333 -84 72 -118s67.334 -61 110.001 -81s89.667 -30 141 -30c50.667 0 97.334 10 140.001 30s79.5 47 110.5 81s55 73.333 72 118s25.5 91.667 25.5 141s-8.5 96.333 -25.5 141s-40.833 84 -71.5 118s-67.334 61 -110.001 81
s-89.334 30 -140.001 30zM542.001 355.003c0 -28.667 -3.99805 -56.501 -11.998 -83.501s-19.833 -51 -35.5 -72s-35.334 -38 -59.001 -51s-51.167 -19.5 -82.5 -19.5s-58.666 6.83301 -81.999 20.5s-42.666 31.5 -57.999 53.5s-26.666 46.667 -33.999 74s-11 55 -11 83
s3.66699 55.667 11 83s18.666 52 33.999 74s34.666 39.833 57.999 53.5s50.666 20.5 81.999 20.5c32.667 0 61 -6.83301 85 -20.5s43.667 -31.667 59 -54s26.666 -47.666 33.999 -75.999s11 -56.833 11 -85.5z" />
    <glyph glyph-name="Oacute" unicode="&#xd3;" horiz-adv-x="744" 
d="M499 881c0 15.333 -5.50195 28.5029 -16.502 39.5029s-24.167 16.5 -39.5 16.5c-8.66699 0 -16.334 -1.66699 -23.001 -5c-5.33301 -0.666992 -16.166 -3.83398 -32.499 -9.50098s-33.666 -12 -51.999 -19s-35 -13.833 -50 -20.5s-23.5 -11.334 -25.5 -14.001
c-11.333 -4.66699 -20.333 -11.834 -27 -21.501s-10 -20.167 -10 -31.5c0 -15.333 5.83301 -28.5 17.5 -39.5s25.167 -16.5 40.5 -16.5c6.66699 0 14.334 1.66699 23.001 5c3.33301 0.666992 9.33301 2.5 18 5.5l30.5 10.5c11.667 4 23.667 8.5 36 13.5l34.5 14.5l27 12
c7.33301 3.33301 11.666 6 12.999 8c10.667 4 19.334 10.833 26.001 20.5s10 20.167 10 31.5zM360.998 730.003c-51.333 0 -98.333 -9.99902 -141 -29.999s-79.5 -46.833 -110.5 -80.5s-55.167 -72.834 -72.5 -117.501s-26 -92 -26 -142c0 -49.333 8.66699 -96.333 26 -141
s41.333 -84 72 -118s67.334 -61 110.001 -81s89.667 -30 141 -30c50.667 0 97.334 10 140.001 30s79.5 47 110.5 81s55 73.333 72 118s25.5 91.667 25.5 141s-8.5 96.333 -25.5 141s-40.833 84 -71.5 118s-67.334 61 -110.001 81s-89.334 30 -140.001 30zM546.998 355.004
c0 -28.667 -3.99805 -56.501 -11.998 -83.501s-19.833 -51 -35.5 -72s-35.334 -38 -59.001 -51s-51.167 -19.5 -82.5 -19.5s-58.666 6.83301 -81.999 20.5s-42.666 31.5 -57.999 53.5s-26.666 46.667 -33.999 74s-11 55 -11 83s3.66699 55.667 11 83s18.666 52 33.999 74
s34.666 39.833 57.999 53.5s50.666 20.5 81.999 20.5c32.667 0 61 -6.83301 85 -20.5s43.667 -31.667 59 -54s26.666 -47.666 33.999 -75.999s11 -56.833 11 -85.5z" />
    <glyph glyph-name="Ocircumflex" unicode="&#xd4;" horiz-adv-x="734" 
d="M543 818c0 11.333 -3.16992 21.832 -9.50293 31.499s-15.166 16.834 -26.499 21.501l-123 48c-4 1.33301 -8.66699 3 -14 5s-10.666 3 -15.999 3c-4.66699 0 -9.5 -1 -14.5 -3l-15.5 -6l-123 -49c-10.667 -4 -19.167 -10.833 -25.5 -20.5s-9.5 -20.167 -9.5 -31.5
c0 -15.333 5.5 -28.666 16.5 -39.999s24.167 -17 39.5 -17c6.66699 0 16.167 2.16699 28.5 6.5s25 9.16602 38 14.499s25.667 10.833 38 16.5s21.833 9.83398 28.5 12.501c6.66699 -2.66699 15.834 -6.66699 27.501 -12l37 -16.5c13 -5.66699 25.333 -10.5 37 -14.5
s21.167 -6 28.5 -6c15.333 0 28.833 5.66699 40.5 17s17.5 24.666 17.5 39.999zM355.997 729.999c-51.333 0 -98.333 -9.99902 -141 -29.999s-79.5 -46.833 -110.5 -80.5s-55.167 -72.834 -72.5 -117.501s-26 -92 -26 -142c0 -49.333 8.66699 -96.333 26 -141
s41.333 -84 72 -118s67.334 -61 110.001 -81s89.667 -30 141 -30c50.667 0 97.334 10 140.001 30s79.5 47 110.5 81s55 73.333 72 118s25.5 91.667 25.5 141s-8.5 96.333 -25.5 141s-40.833 84 -71.5 118s-67.334 61 -110.001 81s-89.334 30 -140.001 30zM541.997 355
c0 -28.667 -3.99805 -56.501 -11.998 -83.501s-19.833 -51 -35.5 -72s-35.334 -38 -59.001 -51s-51.167 -19.5 -82.5 -19.5s-58.666 6.83301 -81.999 20.5s-42.666 31.5 -57.999 53.5s-26.666 46.667 -33.999 74s-11 55 -11 83s3.66699 55.667 11 83s18.666 52 33.999 74
s34.666 39.833 57.999 53.5s50.666 20.5 81.999 20.5c32.667 0 61 -6.83301 85 -20.5s43.667 -31.667 59 -54s26.666 -47.666 33.999 -75.999s11 -56.833 11 -85.5z" />
    <glyph glyph-name="Otilde" unicode="&#xd5;" horiz-adv-x="734" 
d="M356 730c-51.333 0 -98.333 -9.99902 -141 -29.999s-79.5 -46.833 -110.5 -80.5s-55.167 -72.834 -72.5 -117.501s-26 -92 -26 -142c0 -49.333 8.66699 -96.333 26 -141s41.333 -84 72 -118s67.334 -61 110.001 -81s89.667 -30 141 -30c50.667 0 97.334 10 140.001 30
s79.5 47 110.5 81s55 73.333 72 118s25.5 91.667 25.5 141s-8.5 96.333 -25.5 141s-40.833 84 -71.5 118s-67.334 61 -110.001 81s-89.334 30 -140.001 30zM542 355.001c0 -28.667 -3.99805 -56.501 -11.998 -83.501s-19.833 -51 -35.5 -72s-35.334 -38 -59.001 -51
s-51.167 -19.5 -82.5 -19.5s-58.666 6.83301 -81.999 20.5s-42.666 31.5 -57.999 53.5s-26.666 46.667 -33.999 74s-11 55 -11 83s3.66699 55.667 11 83s18.666 52 33.999 74s34.666 39.833 57.999 53.5s50.666 20.5 81.999 20.5c32.667 0 61 -6.83301 85 -20.5
s43.667 -31.667 59 -54s26.666 -47.666 33.999 -75.999s11 -56.833 11 -85.5zM545.002 942h-9.00293h-58c0 -4.66699 -0.666992 -9.83398 -2 -15.501s-3.16602 -11 -5.49902 -16s-5.5 -9.16699 -9.5 -12.5s-8.66699 -5 -14 -5c-11.333 0 -23.333 2.5 -36 7.5
s-25.667 10.5 -39 16.5s-27 11.5 -41 16.5s-28 7.5 -42 7.5c-17.333 0 -32 -3.83301 -44 -11.5s-22 -17.667 -30 -30s-13.833 -26 -17.5 -41s-5.83398 -29.833 -6.50098 -44.5v-12h67c0 4.66699 0.5 9.83398 1.5 15.501s2.83301 11 5.5 16s5.83398 9.16699 9.50098 12.5
s8.5 5 14.5 5c10 0 21.333 -2.5 34 -7.5s25.834 -10.5 39.501 -16.5s27.667 -11.5 42 -16.5s28.5 -7.5 42.5 -7.5c18 0 33.167 4.33301 45.5 13s22.333 19.834 30 33.501s13.334 28.667 17.001 45s5.5 32.166 5.5 47.499z" />
    <glyph glyph-name="Odieresis" unicode="&#xd6;" horiz-adv-x="753" 
d="M569 737c0 -16.667 6.16602 -31.001 18.499 -43.001s26.5 -18 42.5 -18c16.667 0 31 6 43 18s18 26.667 18 44s-6 31.833 -18 43.5s-26.667 17.5 -44 17.5s-31.666 -6.16699 -42.999 -18.5s-17 -27.166 -17 -44.499v1zM158.999 736.999
c0 16.667 -5.83203 30.999 -17.499 42.999s-25.834 18 -42.501 18c-17.333 0 -32 -5.66699 -44 -17s-18 -25.666 -18 -42.999s5.83301 -32 17.5 -44s26.167 -18 43.5 -18s31.833 6 43.5 18s17.5 26.333 17.5 43zM365 729.998c-51.333 0 -98.333 -9.99902 -141 -29.999
s-79.5 -46.833 -110.5 -80.5s-55.167 -72.834 -72.5 -117.501s-26 -92 -26 -142c0 -49.333 8.66699 -96.333 26 -141s41.333 -84 72 -118s67.334 -61 110.001 -81s89.667 -30 141 -30c50.667 0 97.334 10 140.001 30s79.5 47 110.5 81s55 73.333 72 118
s25.5 91.667 25.5 141s-8.5 96.333 -25.5 141s-40.833 84 -71.5 118s-67.334 61 -110.001 81s-89.334 30 -140.001 30zM551 354.999c0 -28.667 -3.99805 -56.501 -11.998 -83.501s-19.833 -51 -35.5 -72s-35.334 -38 -59.001 -51s-51.167 -19.5 -82.5 -19.5
s-58.666 6.83301 -81.999 20.5s-42.666 31.5 -57.999 53.5s-26.666 46.667 -33.999 74s-11 55 -11 83s3.66699 55.667 11 83s18.666 52 33.999 74s34.666 39.833 57.999 53.5s50.666 20.5 81.999 20.5c32.667 0 61 -6.83301 85 -20.5s43.667 -31.667 59 -54
s26.666 -47.666 33.999 -75.999s11 -56.833 11 -85.5z" />
    <glyph glyph-name="multiply" unicode="&#xd7;" 
 />
    <glyph glyph-name="Oslash" unicode="&#xd8;" horiz-adv-x="765" 
d="M726 706c0 7.33301 -2.83301 13.834 -8.5 19.501s-12.5 8.5 -20.5 8.5c-6 0 -13.667 -3.83301 -23 -11.5s-18.833 -16.667 -28.5 -27s-18.834 -20.666 -27.501 -30.999s-15.334 -17.833 -20.001 -22.5c-32 28.667 -67.667 50.667 -107 66s-80.666 23 -123.999 23
c-51.333 0 -98.333 -10.167 -141 -30.5s-79.167 -47.5 -109.5 -81.5s-54 -73.5 -71 -118.5s-25.5 -92.167 -25.5 -141.5c0 -44.667 7 -87.5 21 -128.5s35.667 -78.833 65 -113.5l-92 -99l41 -41l90 98c30 -28 64 -49.167 102 -63.5s77.667 -21.5 119 -21.5
c50.667 0 97.334 9.83301 140.001 29.5s79.5 46.167 110.5 79.5s55.333 72.166 73 116.499s26.5 91.166 26.5 140.499c0 43.333 -6.66699 86 -20 128s-32.333 81 -57 117c4 4.66699 10.833 11.667 20.5 21l29.5 29.5c10 10.333 18.667 20.5 26 30.5s11 18 11 24z
M496 537.001l-283.999 -309.999c-11.333 20.667 -19.333 41.667 -24 63s-7 43.666 -7 66.999c0 28 3.66699 55.833 11 83.5s18.5 52.667 33.5 75s34.167 40.333 57.5 54s50.666 20.5 81.999 20.5c50.667 0 94.667 -17.667 132 -53h-1zM555.001 356.002
c0 -27.333 -4 -54.5 -12 -81.5s-19.833 -51.167 -35.5 -72.5s-35 -38.5 -58 -51.5s-49.833 -19.5 -80.5 -19.5c-23.333 0 -45.333 4 -66 12s-39 20.667 -55 38l281 307c9.33301 -21.333 16 -43 20 -65s6 -44.333 6 -67z" />
    <glyph glyph-name="Ugrave" unicode="&#xd9;" horiz-adv-x="729" 
d="M487 817c0 11.333 -3.16602 21.834 -9.49902 31.501s-14.833 16.5 -25.5 20.5c-2 2.66699 -10.333 7.33398 -25 14.001s-31.167 13.5 -49.5 20.5s-35.833 13.333 -52.5 19s-27.667 9.16699 -33 10.5c-8.66699 3.33301 -16.667 5 -24 5c-15.333 0 -28.5 -5.5 -39.5 -16.5
s-16.5 -24.167 -16.5 -39.5c0 -11.333 3.33301 -21.833 10 -31.5s15.667 -16.834 27 -21.501c2 -2.66699 10.5 -7.16699 25.5 -13.5s31.667 -13 50 -20s35.666 -13.333 51.999 -19s27.166 -8.83398 32.499 -9.50098c6.66699 -3.33301 14.334 -5 23.001 -5
c15.333 0 28.333 5.33301 39 16s16 23.667 16 39zM669.001 289.001v358c0 22 -7.83301 41 -23.5 57s-34.5 24 -56.5 24s-40.667 -7.83301 -56 -23.5s-23 -34.5 -23 -56.5v-363c0 -48 -14.333 -86.333 -43 -115s-67 -43 -115 -43s-86.333 14.333 -115 43s-43 67 -43 115v437
h-159v-433c0 -46.667 8 -88.334 24 -125.001s38.167 -67.834 66.5 -93.501s61.833 -45.334 100.5 -59.001s80.667 -20.5 126 -20.5s87.333 6.83301 126 20.5s72.167 33.334 100.5 59.001s50.5 56.834 66.5 93.501s24 78.334 24 125.001z" />
    <glyph glyph-name="Uacute" unicode="&#xda;" horiz-adv-x="729" 
d="M490 881c0 15.333 -5.49805 28.5 -16.498 39.5s-24.167 16.5 -39.5 16.5c-3.33301 0 -6.83301 -0.333008 -10.5 -1s-7.83398 -2 -12.501 -4c-5.33301 -1.33301 -16.166 -4.66602 -32.499 -9.99902s-33.666 -11.5 -51.999 -18.5s-35 -13.833 -50 -20.5
s-23.5 -11.334 -25.5 -14.001c-10.667 -4 -19.334 -11 -26.001 -21s-10 -20.667 -10 -32c0 -15.333 5.66699 -28.5 17 -39.5s24.666 -16.5 39.999 -16.5c8.66699 0 16.667 1.66699 24 5c3.33301 0.666992 9.33301 2.5 18 5.5l30.5 10.5c11.667 4 23.667 8.5 36 13.5
l34.5 14.5l27 12c7.33301 3.33301 11.666 6 12.999 8c10.667 4 19.167 10.833 25.5 20.5s9.5 20.167 9.5 31.5zM669.002 289v358c0 22 -7.83301 41 -23.5 57s-34.5 24 -56.5 24s-40.667 -7.83301 -56 -23.5s-23 -34.5 -23 -56.5v-363c0 -48 -14.333 -86.333 -43 -115
s-67 -43 -115 -43s-86.333 14.333 -115 43s-43 67 -43 115v437h-159v-433c0 -46.667 8 -88.334 24 -125.001s38.167 -67.834 66.5 -93.501s61.833 -45.334 100.5 -59.001s80.667 -20.5 126 -20.5s87.333 6.83301 126 20.5s72.167 33.334 100.5 59.001
s50.5 56.834 66.5 93.501s24 78.334 24 125.001z" />
    <glyph glyph-name="Ucircumflex" unicode="&#xdb;" horiz-adv-x="729" 
d="M539 818c0 11.333 -3.16699 21.832 -9.5 31.499s-15.166 16.834 -26.499 21.501l-122 48c-4.66699 1.33301 -9.5 3 -14.5 5s-10.167 3 -15.5 3s-10.5 -1 -15.5 -3l-14.5 -6l-124 -49c-10.667 -4 -19 -10.833 -25 -20.5s-9 -20.167 -9 -31.5
c0 -15.333 5.33301 -28.666 16 -39.999s23.667 -17 39 -17c6.66699 0 16.167 2.16699 28.5 6.5s25.166 9.16602 38.499 14.499s26 10.833 38 16.5s21.333 9.83398 28 12.501c6.66699 -2.66699 15.834 -6.66699 27.501 -12l37 -16.5c13 -5.66699 25.5 -10.5 37.5 -14.5
s21.667 -6 29 -6c15.333 0 28.666 5.66699 39.999 17s17 24.666 17 39.999zM669 288.999v358c0 22 -7.83301 41 -23.5 57s-34.5 24 -56.5 24s-40.667 -7.83301 -56 -23.5s-23 -34.5 -23 -56.5v-363c0 -48 -14.333 -86.333 -43 -115s-67 -43 -115 -43s-86.333 14.333 -115 43
s-43 67 -43 115v437h-159v-433c0 -46.667 8 -88.334 24 -125.001s38.167 -67.834 66.5 -93.501s61.833 -45.334 100.5 -59.001s80.667 -20.5 126 -20.5s87.333 6.83301 126 20.5s72.167 33.334 100.5 59.001s50.5 56.834 66.5 93.501s24 78.334 24 125.001z" />
    <glyph glyph-name="Udieresis" unicode="&#xdc;" horiz-adv-x="697" 
d="M653 289l0.000976562 357.998c0 22 -7.83301 41 -23.5 57s-34.5 24 -56.5 24c-8.66699 0 -16.334 -1 -23.001 -3c0.666992 2.66699 1 6.66699 1 12c0 17.333 -5.83301 32 -17.5 44s-26.167 18 -43.5 18s-31.833 -6.16699 -43.5 -18.5s-17.5 -27.166 -17.5 -44.499
c0 -16 6.16699 -29.833 18.5 -41.5s26.5 -17.5 42.5 -17.5h9c-3.33301 -10 -5 -19.667 -5 -29v-363c0 -48 -14.333 -86.333 -43 -115s-67 -43 -115 -43s-86.333 14.333 -115 43s-43 67 -43 115v392c1.33301 0 2.83301 -0.166992 4.5 -0.5s3.5 -0.5 5.5 -0.5
c16.667 0 30.834 6.16699 42.501 18.5s17.5 26.833 17.5 43.5s-5.83301 31 -17.5 43s-25.834 18 -42.501 18c-17.333 0 -32 -6.16699 -44 -18.5s-18 -27.166 -18 -44.499c0 -2.66699 0.166992 -5 0.5 -7s0.833008 -4.33301 1.5 -7h-109v-433
c0 -46.667 8 -88.334 24 -125.001s38.167 -67.834 66.5 -93.501s61.833 -45.334 100.5 -59.001s80.667 -20.5 126 -20.5s87.333 6.83301 126 20.5s72.167 33.334 100.5 59.001s50.5 56.834 66.5 93.501s24 78.334 24 125.001z" />
    <glyph glyph-name="Yacute" unicode="&#xdd;" 
 />
    <glyph glyph-name="Thorn" unicode="&#xde;" 
 />
    <glyph glyph-name="germandbls" unicode="&#xdf;" horiz-adv-x="547" 
d="M524 239c0 20 -2.83496 39.8271 -8.50195 59.4941s-13.667 38 -24 55s-23.166 31.833 -38.499 44.5s-33 22.334 -53 29.001c22 17.333 38.667 38.5 50 63.5s17 51.5 17 79.5c0 30.667 -5.83301 58.667 -17.5 84s-27.334 47 -47.001 65s-42.834 32 -69.501 42
s-55 15 -85 15c-38 0 -72 -6.16699 -102 -18.5s-55.5 -29.666 -76.5 -51.999s-37.167 -49 -48.5 -80s-17 -64.833 -17 -101.5v-749h154v760c0 14 1.5 27.5 4.5 40.5s7.83301 24.333 14.5 34s15.5 17.5 26.5 23.5s24.5 9 40.5 9c23.333 0 42.666 -8.16699 57.999 -24.5
s23 -36.166 23 -59.499c0 -14 -2.83301 -25.667 -8.5 -35s-13.167 -17.666 -22.5 -24.999s-19.666 -14.666 -30.999 -21.999s-22.333 -16 -33 -26c-4.66699 -6 -8.33398 -11.333 -11.001 -16s-4 -11.667 -4 -21c0 -16 3.83301 -28 11.5 -36s17.334 -14.5 29.001 -19.5
s24.334 -9.33301 38.001 -13s26.334 -9.16699 38.001 -16.5s21.334 -17.5 29.001 -30.5s11.5 -30.833 11.5 -53.5c0 -24 -3.83301 -42.667 -11.5 -56s-17.167 -23.666 -28.5 -30.999s-23.5 -13 -36.5 -17s-25.167 -8.5 -36.5 -13.5s-20.833 -11.667 -28.5 -20
s-11.5 -20.5 -11.5 -36.5c0 -26 9.16699 -45.667 27.5 -59s39.5 -20 63.5 -20c30.667 0 59 7.66699 85 23s48.5 35 67.5 59s34 50.667 45 80s16.5 58 16.5 86z" />
    <glyph glyph-name="agrave" unicode="&#xe0;" horiz-adv-x="562" 
d="M416 635c0 11.333 -3.16504 21.834 -9.49805 31.501s-14.833 16.5 -25.5 20.5c-2 2.66699 -10.333 7.33398 -25 14.001s-31.167 13.5 -49.5 20.5s-35.833 13.333 -52.5 19s-27.667 9.16699 -33 10.5c-7.33301 2.66699 -15.333 4 -24 4
c-15.333 0 -28.5 -5.33301 -39.5 -16s-16.5 -24 -16.5 -40c0 -11.333 3.33301 -21.833 10 -31.5s15.667 -16.834 27 -21.501c2 -2.66699 10.5 -7.16699 25.5 -13.5s31.667 -13 50 -20s35.666 -13.333 51.999 -19s27.166 -8.83398 32.499 -9.50098
c7.33301 -2.66699 15 -4 23 -4c15.333 0 28.333 5.33301 39 16s16 23.667 16 39zM535.002 -1.99902v471.998c0 17.333 -4.5 32.333 -13.5 45s-22.5 19.667 -40.5 21c-10.667 1.33301 -22 1.16602 -34 -0.500977s-24.667 -6.83398 -38 -15.501
c-13.333 -8 -21.833 -16.667 -25.5 -26l-5.5 -14l-18 9.5c-12 6.33301 -27.5 12.5 -46.5 18.5s-40.667 10.5 -65 13.5s-48.5 1.5 -72.5 -4.5c-26.667 -7.33301 -50.334 -19.166 -71.001 -35.499s-38.167 -35.666 -52.5 -57.999s-25.333 -47.166 -33 -74.499
s-11.5 -55 -11.5 -83c0 -36.667 5.83301 -71.5 17.5 -104.5s28.334 -62.167 50.001 -87.5s48 -45.5 79 -60.5s65.5 -22.5 103.5 -22.5c28.667 0 55 6 79 18s43.667 30.667 59 56l-0.5 -8.5c-0.333008 -5.66699 -0.5 -12.167 -0.5 -19.5s0.166992 -14.666 0.5 -21.999
s0.5 -13 0.5 -17h139zM387.002 270.999c0 -18 -1.83105 -35.833 -5.49805 -53.5s-10 -33.667 -19 -48s-20.667 -26 -35 -35s-31.833 -13.5 -52.5 -13.5c-20 0 -37 4.33301 -51 13s-25.5 20 -34.5 34s-15.667 29.667 -20 47s-6.5 34.666 -6.5 51.999
c0 16.667 2.16699 33.667 6.5 51s11.166 33 20.499 47s21.166 25.333 35.499 34s31.5 13 51.5 13s37 -4.16699 51 -12.5s25.333 -19.166 34 -32.499s15 -28.333 19 -45s6 -33.667 6 -51z" />
    <glyph glyph-name="aacute" unicode="&#xe1;" horiz-adv-x="570" 
d="M423 699c0 15.333 -5.49707 28.335 -16.4971 39.002s-24.167 16 -39.5 16c-7.33301 0 -15 -1.33301 -23 -4c-3.33301 -0.666992 -9.5 -2.33398 -18.5 -5.00098s-19.167 -6.16699 -30.5 -10.5l-36 -13.5c-12.667 -4.66699 -24.334 -9.33398 -35.001 -14.001l-27 -12
c-7.33301 -3.33301 -11.666 -6 -12.999 -8c-10.667 -4 -19.334 -11 -26.001 -21s-10 -20.667 -10 -32c0 -16 5.66699 -29.333 17 -40s24.666 -16 39.999 -16c8.66699 0 16.667 1.66699 24 5c3.33301 0.666992 9.33301 2.5 18 5.5l30.5 10.5c11.667 4 23.667 8.5 36 13.5
l34.5 14.5l27 12c7.33301 3.33301 11.666 6 12.999 8c10.667 4 19.167 10.833 25.5 20.5s9.5 20.167 9.5 31.5zM539.003 -1.99805v471.998c0 17.333 -4.5 32.333 -13.5 45s-22.5 19.667 -40.5 21c-10.667 1.33301 -22 1.16602 -34 -0.500977s-24.667 -6.83398 -38 -15.501
c-13.333 -8 -21.833 -16.667 -25.5 -26l-5.5 -14l-18 9.5c-12 6.33301 -27.5 12.5 -46.5 18.5s-40.667 10.5 -65 13.5s-48.5 1.5 -72.5 -4.5c-26.667 -7.33301 -50.334 -19.166 -71.001 -35.499s-38.167 -35.666 -52.5 -57.999s-25.333 -47.166 -33 -74.499
s-11.5 -55 -11.5 -83c0 -36.667 5.83301 -71.5 17.5 -104.5s28.334 -62.167 50.001 -87.5s48 -45.5 79 -60.5s65.5 -22.5 103.5 -22.5c28.667 0 55 6 79 18s43.667 30.667 59 56l-0.5 -8.5c-0.333008 -5.66699 -0.5 -12.167 -0.5 -19.5s0.166992 -14.666 0.5 -21.999
s0.5 -13 0.5 -17h139zM391.003 271c0 -18 -1.83105 -35.833 -5.49805 -53.5s-10 -33.667 -19 -48s-20.667 -26 -35 -35s-31.833 -13.5 -52.5 -13.5c-20 0 -37 4.33301 -51 13s-25.5 20 -34.5 34s-15.667 29.667 -20 47s-6.5 34.666 -6.5 51.999
c0 16.667 2.16699 33.667 6.5 51s11.166 33 20.499 47s21.166 25.333 35.499 34s31.5 13 51.5 13s37 -4.16699 51 -12.5s25.333 -19.166 34 -32.499s15 -28.333 19 -45s6 -33.667 6 -51z" />
    <glyph glyph-name="acircumflex" unicode="&#xe2;" horiz-adv-x="612" 
d="M492 635c0 12 -3.16699 22.6631 -9.5 31.9961s-15.166 16.333 -26.499 21l-122 48c-4.66699 2 -9.5 3.83301 -14.5 5.5s-10.167 2.5 -15.5 2.5s-10.5 -0.833008 -15.5 -2.5s-9.83301 -3.5 -14.5 -5.5l-124 -50c-10.667 -4 -19 -10.667 -25 -20s-9 -19.666 -9 -30.999
c0 -15.333 5.33301 -28.666 16 -39.999s23.667 -17 39 -17c6.66699 0 16.167 2.16699 28.5 6.5s25.166 9.16602 38.499 14.499s26 10.833 38 16.5s21.333 9.83398 28 12.501c6.66699 -3.33301 15.834 -7.66602 27.501 -12.999s24 -10.666 37 -15.999s25.5 -10 37.5 -14
s21.667 -6 29 -6c15.333 0 28.666 5.5 39.999 16.5s17 24.167 17 39.5zM559 -2.00391v471.998c0 17.333 -4.5 32.333 -13.5 45s-22.5 19.667 -40.5 21c-10.667 1.33301 -22 1.16602 -34 -0.500977s-24.667 -6.83398 -38 -15.501c-13.333 -8 -21.833 -16.667 -25.5 -26
l-5.5 -14l-18 9.5c-12 6.33301 -27.5 12.5 -46.5 18.5s-40.667 10.5 -65 13.5s-48.5 1.5 -72.5 -4.5c-26.667 -7.33301 -50.334 -19.166 -71.001 -35.499s-38.167 -35.666 -52.5 -57.999s-25.333 -47.166 -33 -74.499s-11.5 -55 -11.5 -83
c0 -36.667 5.83301 -71.5 17.5 -104.5s28.334 -62.167 50.001 -87.5s48 -45.5 79 -60.5s65.5 -22.5 103.5 -22.5c28.667 0 55 6 79 18s43.667 30.667 59 56l-0.5 -8.5c-0.333008 -5.66699 -0.5 -12.167 -0.5 -19.5s0.166992 -14.666 0.5 -21.999s0.5 -13 0.5 -17h139z
M411 270.994c0 -18 -1.83105 -35.833 -5.49805 -53.5s-10 -33.667 -19 -48s-20.667 -26 -35 -35s-31.833 -13.5 -52.5 -13.5c-20 0 -37 4.33301 -51 13s-25.5 20 -34.5 34s-15.667 29.667 -20 47s-6.5 34.666 -6.5 51.999c0 16.667 2.16699 33.667 6.5 51
s11.166 33 20.499 47s21.166 25.333 35.499 34s31.5 13 51.5 13s37 -4.16699 51 -12.5s25.333 -19.166 34 -32.499s15 -28.333 19 -45s6 -33.667 6 -51z" />
    <glyph glyph-name="atilde" unicode="&#xe3;" horiz-adv-x="582" 
d="M486 742h-9.00293h-58c0 -4.66699 -0.666992 -9.83398 -2 -15.501s-3.16602 -11 -5.49902 -16s-5.5 -9.16699 -9.5 -12.5s-8.66699 -5 -14 -5c-11.333 0 -23.333 2.5 -36 7.5s-25.667 10.5 -39 16.5s-27 11.5 -41 16.5s-28 7.5 -42 7.5c-17.333 0 -32 -3.83301 -44 -11.5
s-22 -17.667 -30 -30s-13.833 -26 -17.5 -41s-5.83398 -29.833 -6.50098 -44.5v-12h67c0 4.66699 0.5 9.83398 1.5 15.501s2.83301 11 5.5 16s5.83398 9.16699 9.50098 12.5s8.5 5 14.5 5c10 0 21.333 -2.5 34 -7.5s25.834 -10.5 39.501 -16.5s27.667 -11.5 42 -16.5
s28.5 -7.5 42.5 -7.5c18 0 33.167 4.33301 45.5 13s22.333 19.834 30 33.501s13.334 28.667 17.001 45s5.5 32.166 5.5 47.499zM543.997 -2v471.998c0 17.333 -4.5 32.333 -13.5 45s-22.5 19.667 -40.5 21c-10.667 1.33301 -22 1.16602 -34 -0.500977
s-24.667 -6.83398 -38 -15.501c-12.667 -8 -21 -16.667 -25 -26l-6 -14l-18 9.5c-12 6.33301 -27.5 12.5 -46.5 18.5s-40.667 10.5 -65 13.5s-48.5 1.5 -72.5 -4.5c-26.667 -7.33301 -50.334 -19.166 -71.001 -35.499s-38.167 -35.666 -52.5 -57.999
s-25.333 -47.166 -33 -74.499s-11.5 -55 -11.5 -83c0 -36.667 5.83301 -71.5 17.5 -104.5s28.334 -62.167 50.001 -87.5s48 -45.5 79 -60.5s65.5 -22.5 103.5 -22.5c28.667 0 55 6 79 18s43.667 30.667 59 56l-0.5 -8.5c-0.333008 -5.66699 -0.5 -12.167 -0.5 -19.5
s0.166992 -14.666 0.5 -21.999s0.5 -13 0.5 -17h139zM395.997 270.998c0 -18 -1.83105 -35.833 -5.49805 -53.5s-10 -33.667 -19 -48s-20.667 -26 -35 -35s-31.833 -13.5 -52.5 -13.5c-20 0 -37 4.33301 -51 13s-25.5 20 -34.5 34s-15.667 29.667 -20 47
s-6.5 34.666 -6.5 51.999c0 16.667 2.16699 33.667 6.5 51s11.166 33 20.499 47s21.166 25.333 35.499 34s31.5 13 51.5 13s37 -4.16699 51 -12.5s25.333 -19.166 34 -32.499s15 -28.333 19 -45s6 -33.667 6 -51z" />
    <glyph glyph-name="adieresis" unicode="&#xe4;" horiz-adv-x="591" 
d="M404 734c-21.333 0 -38.999 -7.50098 -52.999 -22.501s-21 -32.833 -21 -53.5c0 -20 7.5 -37.167 22.5 -51.5s32.5 -21.5 52.5 -21.5c20.667 0 38.167 7.33301 52.5 22s21.5 32.334 21.5 53.001s-7.33301 38.167 -22 52.5s-32.334 21.5 -53.001 21.5zM206.001 733.999
c-20.667 0 -38.334 -7.33301 -53.001 -22s-22 -32.334 -22 -53.001s7.33301 -38.167 22 -52.5s32.334 -21.5 53.001 -21.5s38.167 7.16699 52.5 21.5s21.5 31.833 21.5 52.5s-7.16699 38.334 -21.5 53.001s-31.833 22 -52.5 22zM549.001 -2.00098v471.998
c0 17.333 -4.5 32.333 -13.5 45s-22.5 19.667 -40.5 21c-10.667 1.33301 -22 1.16602 -34 -0.500977s-24.667 -6.83398 -38 -15.501c-13.333 -8 -21.833 -16.667 -25.5 -26l-5.5 -14l-18 9.5c-12 6.33301 -27.5 12.5 -46.5 18.5s-40.667 10.5 -65 13.5s-48.5 1.5 -72.5 -4.5
c-26.667 -7.33301 -50.334 -19.166 -71.001 -35.499s-38.167 -35.666 -52.5 -57.999s-25.333 -47.166 -33 -74.499s-11.5 -55 -11.5 -83c0 -36.667 5.83301 -71.5 17.5 -104.5s28.334 -62.167 50.001 -87.5s48 -45.5 79 -60.5s65.5 -22.5 103.5 -22.5c28.667 0 55 6 79 18
s43.667 30.667 59 56l-0.5 -8.5c-0.333008 -5.66699 -0.5 -12.167 -0.5 -19.5s0.166992 -14.666 0.5 -21.999s0.5 -13 0.5 -17h139zM401.001 270.997c0 -18 -1.83105 -35.833 -5.49805 -53.5s-10 -33.667 -19 -48s-20.667 -26 -35 -35s-31.833 -13.5 -52.5 -13.5
c-20 0 -37 4.33301 -51 13s-25.5 20 -34.5 34s-15.667 29.667 -20 47s-6.5 34.666 -6.5 51.999c0 16.667 2.16699 33.667 6.5 51s11.166 33 20.499 47s21.166 25.333 35.499 34s31.5 13 51.5 13s37 -4.16699 51 -12.5s25.333 -19.166 34 -32.499s15 -28.333 19 -45
s6 -33.667 6 -51z" />
    <glyph glyph-name="aring" unicode="&#xe5;" horiz-adv-x="563" 
d="M290 762c-13.333 0 -26.334 -2.16797 -39.001 -6.50098s-24 -10.666 -34 -18.999s-18 -18.333 -24 -30s-9 -24.5 -9 -38.5s3 -26.833 9 -38.5s14 -21.667 24 -30s21.333 -14.666 34 -18.999s25.667 -6.5 39 -6.5c12.667 0 25.334 2.33301 38.001 7
s23.834 11.167 33.501 19.5s17.5 18.166 23.5 29.499s9 24 9 38s-3 26.833 -9 38.5s-13.833 21.5 -23.5 29.5s-20.834 14.333 -33.501 19s-25.667 7 -39 7h1zM320.999 667.999c0 -8.66699 -3.16504 -16.166 -9.49805 -22.499s-13.833 -9.5 -22.5 -9.5
s-16.334 3.16699 -23.001 9.5s-10 14.166 -10 23.499s3.16699 16.833 9.5 22.5s14.166 8.5 23.499 8.5c8.66699 0 16.167 -3 22.5 -9s9.5 -13.667 9.5 -23zM535.001 -2v471.998c0 17.333 -4.5 32.333 -13.5 45s-22.5 19.667 -40.5 21
c-10.667 1.33301 -22 1.16602 -34 -0.500977s-24.667 -6.83398 -38 -15.501c-13.333 -8 -21.833 -16.667 -25.5 -26l-5.5 -14l-18 9.5c-12 6.33301 -27.5 12.5 -46.5 18.5s-40.667 10.5 -65 13.5s-48.5 1.5 -72.5 -4.5c-26.667 -7.33301 -50.334 -19.166 -71.001 -35.499
s-38.167 -35.666 -52.5 -57.999s-25.333 -47.166 -33 -74.499s-11.5 -55 -11.5 -83c0 -36.667 5.83301 -71.5 17.5 -104.5s28.334 -62.167 50.001 -87.5s48 -45.5 79 -60.5s65.5 -22.5 103.5 -22.5c28.667 0 55 6 79 18s43.667 30.667 59 56l-0.5 -8.5
c-0.333008 -5.66699 -0.5 -12.167 -0.5 -19.5s0.166992 -14.666 0.5 -21.999s0.5 -13 0.5 -17h139zM387.001 270.998c0 -18 -1.83105 -35.833 -5.49805 -53.5s-10 -33.667 -19 -48s-20.667 -26 -35 -35s-31.833 -13.5 -52.5 -13.5c-20 0 -37 4.33301 -51 13
s-25.5 20 -34.5 34s-15.667 29.667 -20 47s-6.5 34.666 -6.5 51.999c0 16.667 2.16699 33.667 6.5 51s11.166 33 20.499 47s21.166 25.333 35.499 34s31.5 13 51.5 13s37 -4.16699 51 -12.5s25.333 -19.166 34 -32.499s15 -28.333 19 -45s6 -33.667 6 -51z" />
    <glyph glyph-name="ae" unicode="&#xe6;" horiz-adv-x="931" 
d="M895 290c0 10.667 -0.825195 21.335 -2.49219 32.002s-4.16699 21 -7.5 31c-8 27.333 -19.667 52.666 -35 75.999s-33.5 43.666 -54.5 60.999s-44.5 31 -70.5 41s-53.333 15 -82 15c-25.333 0 -50.166 -4.16699 -74.499 -12.5s-46.166 -20.5 -65.499 -36.5l-8 19.5
c-2.66699 6.33301 -6 11.833 -10 16.5s-9.16699 8.5 -15.5 11.5s-14.166 4.5 -23.499 4.5c-20.667 0 -35.834 -6.5 -45.501 -19.5s-14.5 -29.167 -14.5 -48.5c-6.66699 11.333 -15.334 21 -26.001 29s-22.334 14.667 -35.001 20s-25.834 9.16602 -39.501 11.499
s-26.834 3.5 -39.501 3.5c-38 0 -71.833 -8 -101.5 -24s-55 -37.333 -76 -64s-37 -56.834 -48 -90.501s-16.5 -67.834 -16.5 -102.501c0 -36 5.66699 -70.333 17 -103s27.666 -61.667 48.999 -87s47 -45.5 77 -60.5s64 -22.5 102 -22.5c27.333 0 53.5 5.16699 78.5 15.5
s45.167 27.166 60.5 50.499c0 -3.33301 0.5 -10 1.5 -20s1.83301 -18.667 2.5 -26s1 -11.666 1 -12.999h101l10 42c21.333 -17.333 44.666 -30 69.999 -38s52.333 -12 81 -12c29.333 0 55.166 2.33301 77.499 7s46.833 11.667 73.5 21
c-0.666992 5.33301 -1.83398 12.5 -3.50098 21.5s-3.5 18.333 -5.5 28s-4.16699 18.834 -6.5 27.501l-5.5 21c-0.666992 3.33301 -2.16699 5.83301 -4.5 7.5s-4.5 3.5 -6.5 5.5l-3 3h-1v1c-4.66699 -0.666992 -9.5 -1.66699 -14.5 -3s-9.83301 -2.33301 -14.5 -3
c-7.33301 -1.33301 -14.5 -2.33301 -21.5 -3l-21.5 -2c-4.66699 -0.666992 -9.33398 -1 -14.001 -1h-13c-34.667 0 -64.834 9.83301 -90.501 29.5s-42.167 45.834 -49.5 78.501h297c6 0 11.833 0.166992 17.5 0.5s11.167 1.16602 16.5 2.49902
c12 4.66699 20.5 11.834 25.5 21.501s7.5 21.834 7.5 36.501zM737.008 316.001l-201 0.00292969l-4 10c0.666992 13.333 3.83398 26.166 9.50098 38.499s13.167 23.166 22.5 32.499s20.166 16.833 32.499 22.5s25.5 8.5 39.5 8.5c16 0 30 -3.16699 42 -9.5
s22 -14.833 30 -25.5s14.5 -22.834 19.5 -36.501s8.5 -27.5 10.5 -41.5zM381.008 274.004c0 -17.333 -2.00098 -34.5 -6.00098 -51.5s-10.5 -32.333 -19.5 -46s-20.5 -24.834 -34.5 -33.501s-31 -13 -51 -13c-19.333 0 -36.166 4 -50.499 12s-26 18.5 -35 31.5
s-15.667 27.833 -20 44.5s-6.5 33.667 -6.5 51c0 16.667 2.33301 33.334 7 50.001s11.5 31.834 20.5 45.501s20.333 24.834 34 33.501s29.834 13 48.501 13c20 0 37 -3.83301 51 -11.5s25.667 -17.834 35 -30.501s16.166 -27.334 20.499 -44.001s6.5 -33.667 6.5 -51z" />
    <glyph glyph-name="ccedilla" unicode="&#xe7;" horiz-adv-x="493" 
d="M285 542c-39.333 0 -75.667 -6.99707 -109 -20.9971s-62.166 -33.5 -86.499 -58.5s-43.333 -54.333 -57 -88s-20.5 -70.167 -20.5 -109.5c0 -31.333 4.83301 -61.5 14.5 -90.5s23.5 -55.5 41.5 -79.5s39.833 -44.333 65.5 -61s54.167 -28.334 85.5 -35.001l-15.5 -18
c-6.33301 -7.33301 -12.5 -15.166 -18.5 -23.499s-11.167 -16.5 -15.5 -24.5s-6.5 -15 -6.5 -21c0 -11.333 4.5 -21.166 13.5 -29.499s19.167 -12.5 30.5 -12.5c6.66699 0 13.334 1.5 20.001 4.5s12.334 7.5 17.001 13.5l78 105c14 1.33301 29.167 3.66602 45.5 6.99902
s31.5 8.66602 45.5 15.999s25.833 16.833 35.5 28.5s14.5 26.167 14.5 43.5s-6.66699 32.666 -20 45.999s-29 20 -47 20c-6.66699 0 -14.334 -1.33301 -23.001 -4l-28 -8.5c-10 -3 -20.167 -5.66699 -30.5 -8s-20.5 -3.5 -30.5 -3.5c-18.667 0 -35.167 4.16699 -49.5 12.5
s-26.5 19 -36.5 32s-17.5 27.833 -22.5 44.5s-7.5 33.334 -7.5 50.001c0 18 2.66699 35.167 8 51.5s13 30.666 23 42.999s22.5 22.166 37.5 29.499s32.167 11 51.5 11c9.33301 0 19.666 -1.16699 30.999 -3.5s23 -5.16602 35 -8.49902s23.833 -7 35.5 -11l31.5 -11l41 130
c-30 11.333 -58.833 21.166 -86.5 29.499s-57.834 12.5 -90.501 12.5z" />
    <glyph glyph-name="egrave" unicode="&#xe8;" horiz-adv-x="544" 
d="M396 635c0 11.333 -3.16504 21.834 -9.49805 31.501s-14.833 16.5 -25.5 20.5c-2 2.66699 -10.333 7.33398 -25 14.001s-31.167 13.5 -49.5 20.5s-35.833 13.333 -52.5 19s-27.667 9.16699 -33 10.5c-7.33301 2.66699 -15.333 4 -24 4
c-15.333 0 -28.5 -5.33301 -39.5 -16s-16.5 -24 -16.5 -40c0 -11.333 3.33301 -21.833 10 -31.5s15.667 -16.834 27 -21.501c2 -2.66699 10.5 -7.16699 25.5 -13.5s31.667 -13 50 -20s35.666 -13.333 51.999 -19s27.166 -8.83398 32.499 -9.50098
c7.33301 -2.66699 15 -4 23 -4c15.333 0 28.333 5.33301 39 16s16 23.667 16 39zM527.002 288.001c0 34.667 -7 67.501 -21 98.501s-32.667 58.167 -56 81.5s-50.666 41.833 -81.999 55.5s-64 20.5 -98 20.5c-38.667 0 -74.5 -7.16699 -107.5 -21.5
s-61.667 -33.833 -86 -58.5s-43.333 -53.667 -57 -87s-20.5 -69.333 -20.5 -108c0 -42 7.33301 -80 22 -114s35 -63.167 61 -87.5s56.5 -43.166 91.5 -56.499s72.833 -20 113.5 -20c25.333 0 49.5 2.16699 72.5 6.5s46.167 11.166 69.5 20.499l-21 118
c-18 -4 -36.167 -7.83301 -54.5 -11.5s-36.5 -5.5 -54.5 -5.5c-34 0 -63.333 9.66699 -88 29s-40.667 45 -48 77h292c23.333 0 41.166 4.16699 53.499 12.5s18.5 25.166 18.5 50.499zM367.002 312.002h-203.999c2 14.667 5.5 28.834 10.5 42.501s11.667 25.834 20 36.501
s18.666 19.167 30.999 25.5s26.833 9.5 43.5 9.5c15.333 0 29 -3.33301 41 -10s22.167 -15.334 30.5 -26.001s15 -22.834 20 -36.501s7.83301 -27.5 8.5 -41.5h-1z" />
    <glyph glyph-name="eacute" unicode="&#xe9;" horiz-adv-x="537" 
d="M395 699c0 15.333 -5.5 28.335 -16.5 39.002s-24.167 16 -39.5 16c-7.33301 0 -15 -1.33301 -23 -4c-3.33301 -0.666992 -9.5 -2.33398 -18.5 -5.00098s-19.167 -6.16699 -30.5 -10.5l-36 -13.5c-12.667 -4.66699 -24.334 -9.33398 -35.001 -14.001l-27 -12
c-7.33301 -3.33301 -11.666 -6 -12.999 -8c-10 -4 -18.5 -11 -25.5 -21s-10.5 -20.667 -10.5 -32c0 -16 5.66699 -29.333 17 -40s24.666 -16 39.999 -16c8.66699 0 16.667 1.66699 24 5c3.33301 0.666992 9.5 2.5 18.5 5.5l30.5 10.5c11.333 4 23.333 8.5 36 13.5
s24.334 9.83301 35.001 14.5l27 12c7.33301 3.33301 11.333 6 12 8c10.667 4 19.167 10.833 25.5 20.5s9.5 20.167 9.5 31.5zM523 288.002c0 34.667 -7 67.501 -21 98.501s-32.667 58.167 -56 81.5s-50.666 41.833 -81.999 55.5s-64 20.5 -98 20.5
c-38.667 0 -74.5 -7.16699 -107.5 -21.5s-61.667 -33.833 -86 -58.5s-43.333 -53.667 -57 -87s-20.5 -69.333 -20.5 -108c0 -42 7.33301 -80 22 -114s35 -63.167 61 -87.5s56.5 -43.166 91.5 -56.499s72.833 -20 113.5 -20c25.333 0 49.5 2.16699 72.5 6.5
s46.167 11.166 69.5 20.499l-21 118c-18 -4 -36.167 -7.83301 -54.5 -11.5s-36.5 -5.5 -54.5 -5.5c-34 0 -63.333 9.66699 -88 29s-40.667 45 -48 77h292c23.333 0 41.166 4.16699 53.499 12.5s18.5 25.166 18.5 50.499zM363 312.003h-203.999
c2 14.667 5.5 28.834 10.5 42.501s11.667 25.834 20 36.501s18.666 19.167 30.999 25.5s26.833 9.5 43.5 9.5c15.333 0 29 -3.33301 41 -10s22.167 -15.334 30.5 -26.001s15 -22.834 20 -36.501s7.83301 -27.5 8.5 -41.5h-1z" />
    <glyph glyph-name="ecircumflex" unicode="&#xea;" horiz-adv-x="571" 
d="M460 635c0 12 -3.16699 22.6631 -9.5 31.9961s-15.166 16.333 -26.499 21l-122 48c-4.66699 2 -9.5 3.83301 -14.5 5.5s-10.167 2.5 -15.5 2.5s-10.333 -0.833008 -15 -2.5l-15 -5.5l-124 -50c-10 -4 -18.167 -10.667 -24.5 -20s-9.5 -19.666 -9.5 -30.999
c0 -15.333 5.33301 -28.666 16 -39.999s23.667 -17 39 -17c6.66699 0 16.167 2.16699 28.5 6.5s25.166 9.16602 38.499 14.499s26 10.833 38 16.5s21.333 9.83398 28 12.501c6.66699 -3.33301 15.834 -7.66602 27.501 -12.999s24 -10.666 37 -15.999s25.5 -10 37.5 -14
s21.667 -6 29 -6c15.333 0 28.666 5.5 39.999 16.5s17 24.167 17 39.5zM539 287.996c0 34.667 -7 67.501 -21 98.501s-32.667 58.167 -56 81.5s-50.666 41.833 -81.999 55.5s-64 20.5 -98 20.5c-38.667 0 -74.5 -7.16699 -107.5 -21.5s-61.667 -33.833 -86 -58.5
s-43.333 -53.667 -57 -87s-20.5 -69.333 -20.5 -108c0 -42 7.33301 -80 22 -114s35 -63.167 61 -87.5s56.5 -43.166 91.5 -56.499s72.833 -20 113.5 -20c25.333 0 49.5 2.16699 72.5 6.5s46.167 11.166 69.5 20.499l-21 118c-18 -4 -36.167 -7.83301 -54.5 -11.5
s-36.5 -5.5 -54.5 -5.5c-34 0 -63.333 9.66699 -88 29s-40.667 45 -48 77h292c23.333 0 41.166 4.16699 53.499 12.5s18.5 25.166 18.5 50.499zM379 311.997h-203.999c2 14.667 5.5 28.834 10.5 42.501s11.667 25.834 20 36.501s18.666 19.167 30.999 25.5
s26.833 9.5 43.5 9.5c15.333 0 29 -3.33301 41 -10s22.167 -15.334 30.5 -26.001s15 -22.834 20 -36.501s7.83301 -27.5 8.5 -41.5h-1z" />
    <glyph glyph-name="edieresis" unicode="&#xeb;" horiz-adv-x="566" 
d="M446 655c0 21.333 -7.16699 39.168 -21.5 53.501s-32.166 21.5 -53.499 21.5c-20.667 0 -38 -7.33301 -52 -22s-21 -32.334 -21 -53.001c0 -20 7.33301 -37.167 22 -51.5s31.667 -21.5 51 -21.5c21.333 0 39.166 7 53.499 21s21.5 31.333 21.5 52zM172 730.002
c-20 0 -37.499 -7.00098 -52.499 -21.001s-22.5 -31.333 -22.5 -52c0 -21.333 7.16699 -39.166 21.5 -53.499s32.166 -21.5 53.499 -21.5c20.667 0 38 7.16699 52 21.5s21 31.833 21 52.5c0 20 -7 37.333 -21 52s-31.333 22 -52 22zM538.001 288.001
c0 34.667 -7 67.501 -21 98.501s-32.667 58.167 -56 81.5s-50.666 41.833 -81.999 55.5s-64 20.5 -98 20.5c-38.667 0 -74.5 -7.16699 -107.5 -21.5s-61.667 -33.833 -86 -58.5s-43.333 -53.667 -57 -87s-20.5 -69.333 -20.5 -108c0 -42 7.33301 -80 22 -114
s35 -63.167 61 -87.5s56.5 -43.166 91.5 -56.499s72.833 -20 113.5 -20c25.333 0 49.5 2.16699 72.5 6.5s46.167 11.166 69.5 20.499l-21 118c-18 -4 -36.167 -7.83301 -54.5 -11.5s-36.5 -5.5 -54.5 -5.5c-34 0 -63.333 9.66699 -88 29s-40.667 45 -48 77h292
c23.333 0 41.166 4.16699 53.499 12.5s18.5 25.166 18.5 50.499zM378.001 312.002h-203.999c2 14.667 5.5 28.834 10.5 42.501s11.667 25.834 20 36.501s18.666 19.167 30.999 25.5s26.833 9.5 43.5 9.5c15.333 0 29 -3.33301 41 -10s22.167 -15.334 30.5 -26.001
s15 -22.834 20 -36.501s7.83301 -27.5 8.5 -41.5h-1z" />
    <glyph glyph-name="igrave" unicode="&#xec;" horiz-adv-x="244" 
d="M255 635c0 11.333 -3.16504 21.668 -9.49805 31.001s-15.166 16.333 -26.499 21c-2 2.66699 -10.333 7.33398 -25 14.001s-31.167 13.5 -49.5 20.5l-52.5 19.5c-16.667 6 -27.334 9.33301 -32.001 10c-4.66699 2 -9 3.16699 -13 3.5s-7.66699 0.5 -11 0.5
c-15.333 0 -28.5 -5.33301 -39.5 -16s-16.5 -24 -16.5 -40c0 -11.333 3.33301 -21.833 10 -31.5s15.667 -16.834 27 -21.501c2 -2.66699 10.333 -7.16699 25 -13.5s31.167 -13 49.5 -20s35.666 -13.333 51.999 -19s27.166 -8.83398 32.499 -9.50098
c8 -2.66699 15.667 -4 23 -4c15.333 0 28.5 5.33301 39.5 16s16.5 23.667 16.5 39zM205.002 0.00195312l-0.000976562 468c0 10 -2 19.667 -6 29s-9.5 17.5 -16.5 24.5s-15 12.667 -24 17s-18.833 6.5 -29.5 6.5c-21.333 0 -39.666 -7.33301 -54.999 -22s-23 -33 -23 -55
v-468h154z" />
    <glyph glyph-name="iacute" unicode="&#xed;" horiz-adv-x="246" 
d="M257 699c0 15.333 -5.50098 28.3359 -16.501 39.0029s-24.167 16 -39.5 16c-8 0 -15.667 -1.33301 -23 -4c-3.33301 -0.666992 -9.5 -2.33398 -18.5 -5.00098s-19.167 -6.16699 -30.5 -10.5l-36 -13.5c-12.667 -4.66699 -24.334 -9.33398 -35.001 -14.001l-27 -12
c-7.33301 -3.33301 -11.666 -6 -12.999 -8c-11.333 -4.66699 -20.333 -11.834 -27 -21.501s-10 -20.167 -10 -31.5c0 -16 5.83301 -29.333 17.5 -40s25.167 -16 40.5 -16c6.66699 0 14.334 1.66699 23.001 5c3.33301 0.666992 9.33301 2.5 18 5.5l30.5 10.5
c11.667 4 23.667 8.5 36 13.5l34.5 14.5l27 12c7.33301 3.33301 11.666 6 12.999 8c10.667 4 19.334 10.833 26.001 20.5s10 20.167 10 31.5zM203.999 0.00292969l-0.000976562 468c0 10 -2 19.667 -6 29s-9.5 17.5 -16.5 24.5s-15 12.667 -24 17s-18.833 6.5 -29.5 6.5
c-21.333 0 -39.666 -7.33301 -54.999 -22s-23 -33 -23 -55v-468h154z" />
    <glyph glyph-name="icircumflex" unicode="&#xee;" horiz-adv-x="396" 
d="M380 635c0 12 -3.16992 22.6631 -9.50293 31.9961s-15.166 16.333 -26.499 21l-123 48c-4 2 -8.66699 3.83301 -14 5.5s-10.666 2.5 -15.999 2.5c-4.66699 0 -9.5 -0.833008 -14.5 -2.5s-10.167 -3.5 -15.5 -5.5l-123 -50c-10.667 -4 -19.167 -10.667 -25.5 -20
s-9.5 -19.666 -9.5 -30.999c0 -15.333 5.5 -28.666 16.5 -39.999s24.167 -17 39.5 -17c6.66699 0 16.167 2.16699 28.5 6.5s25 9.16602 38 14.499s25.667 10.833 38 16.5s21.833 9.83398 28.5 12.501c6.66699 -3.33301 15.834 -7.66602 27.501 -12.999
s24 -10.666 37 -15.999s25.333 -10 37 -14s21.167 -6 28.5 -6c15.333 0 28.833 5.5 40.5 16.5s17.5 24.167 17.5 39.5zM277.997 -0.00390625l-0.000976562 468c0 10 -2 19.667 -6 29s-9.5 17.5 -16.5 24.5s-15 12.667 -24 17s-18.833 6.5 -29.5 6.5
c-21.333 0 -39.666 -7.33301 -54.999 -22s-23 -33 -23 -55v-468h154z" />
    <glyph glyph-name="idieresis" unicode="&#xef;" horiz-adv-x="350" 
d="M343 655c0 21.333 -7.33301 39.168 -22 53.501s-32.334 21.5 -53.001 21.5s-38 -7.33301 -52 -22s-21 -32.334 -21 -53.001c0 -20 7.16699 -37.167 21.5 -51.5s31.5 -21.5 51.5 -21.5c20.667 0 38.334 7 53.001 21s22 31.333 22 52zM69 730.002
c-20.667 0 -38.333 -7.00098 -53 -21.001s-22 -31.333 -22 -52c0 -21.333 7 -39.166 21 -53.499s31.667 -21.5 53 -21.5c20.667 0 38.167 7.16699 52.5 21.5s21.5 31.833 21.5 52.5c0 20 -7.16699 37.333 -21.5 52s-31.5 22 -51.5 22zM254.001 0.000976562l-0.000976562 468
c0 10 -2 19.667 -6 29s-9.5 17.5 -16.5 24.5s-15 12.667 -24 17s-18.833 6.5 -29.5 6.5c-21.333 0 -39.666 -7.33301 -54.999 -22s-23 -33 -23 -55v-468h154z" />
    <glyph glyph-name="eth" unicode="&#xf0;" 
 />
    <glyph glyph-name="ntilde" unicode="&#xf1;" horiz-adv-x="594" 
d="M532 68v280.996c0 30 -5.33301 57 -16 81s-25.5 44.5 -44.5 61.5s-41.167 30.167 -66.5 39.5s-52.333 14 -81 14c-28 0 -54.667 -5.66699 -80 -17s-46 -28.666 -62 -51.999c-2.66699 18 -8.66699 34.333 -18 49s-24.666 22 -45.999 22
c-10.667 0 -20.667 -2.16699 -30 -6.5s-17.333 -10.166 -24 -17.499s-12 -15.666 -16 -24.999s-6 -19.333 -6 -30v-469h154v326c0 25.333 8.66699 46.833 26 64.5s38.666 26.5 63.999 26.5s47 -9 65 -27s27 -39.667 27 -65v-258c0 -21.333 7.5 -39.333 22.5 -54
s33.167 -22 54.5 -22c10.667 0 20.667 2 30 6s17.5 9.5 24.5 16.5s12.5 15.333 16.5 25s6 19.834 6 30.501zM463 721.996h-9.00293h-58c0 -4.66699 -0.666992 -9.83398 -2 -15.501s-3.16602 -11 -5.49902 -16s-5.5 -9.16699 -9.5 -12.5s-8.66699 -5 -14 -5
c-11.333 0 -23.333 2.5 -36 7.5s-25.667 10.5 -39 16.5s-27 11.5 -41 16.5s-28 7.5 -42 7.5c-17.333 0 -32 -3.83301 -44 -11.5s-22 -17.667 -30 -30s-13.833 -26 -17.5 -41s-5.83398 -29.833 -6.50098 -44.5v-12h67c0 4.66699 0.5 9.83398 1.5 15.501s2.83301 11 5.5 16
s5.83398 9.16699 9.50098 12.5s8.5 5 14.5 5c10 0 21.333 -2.5 34 -7.5s25.834 -10.5 39.501 -16.5s27.667 -11.5 42 -16.5s28.5 -7.5 42.5 -7.5c18 0 33.167 4.33301 45.5 13s22.333 19.834 30 33.501s13.334 28.667 17.001 45s5.5 32.166 5.5 47.499z" />
    <glyph glyph-name="ograve" unicode="&#xf2;" horiz-adv-x="541" 
d="M397 635c0 11.333 -2.99805 21.834 -8.99805 31.501s-14.667 16.5 -26 20.5c-1.33301 2.66699 -9.5 7.33398 -24.5 14.001s-31.667 13.5 -50 20.5s-35.833 13.333 -52.5 19s-27.667 9.16699 -33 10.5c-7.33301 2.66699 -15.333 4 -24 4
c-15.333 0 -28.5 -5.33301 -39.5 -16s-16.5 -24 -16.5 -40c0 -11.333 3.33301 -21.833 10 -31.5s15.667 -16.834 27 -21.501c2 -2.66699 10.5 -7.16699 25.5 -13.5s31.667 -13 50 -20s35.666 -13.333 51.999 -19s27.166 -8.83398 32.499 -9.50098
c7.33301 -2.66699 15 -4 23 -4c15.333 0 28.333 5.33301 39 16s16 23.667 16 39zM527.002 269.001c0 37.333 -6.66699 72.832 -20 106.499s-31.833 63.167 -55.5 88.5s-51.667 45.333 -84 60s-67.833 22 -106.5 22s-74.167 -7.5 -106.5 -22.5s-60.333 -35.167 -84 -60.5
s-42.167 -54.833 -55.5 -88.5s-20 -69.5 -20 -107.5c0 -37.333 6.66699 -72.833 20 -106.5s31.833 -63.167 55.5 -88.5s51.834 -45.5 84.501 -60.5s68.334 -22.5 107.001 -22.5s74.167 7.5 106.5 22.5s60.166 35.333 83.499 61s41.666 55.334 54.999 89.001
s20 69.5 20 107.5zM374.002 268c0 -17.333 -2.16504 -34.833 -6.49805 -52.5s-11 -33.5 -20 -47.5s-20.667 -25.5 -35 -34.5s-31.5 -13.5 -51.5 -13.5c-19.333 0 -36.166 4.5 -50.499 13.5s-26 20.667 -35 35s-15.667 30.333 -20 48s-6.5 34.834 -6.5 51.501
s2.33301 33.5 7 50.5s11.5 32.5 20.5 46.5s20.5 25.333 34.5 34s30.667 13 50 13s36.166 -4.33301 50.499 -13s26.166 -19.834 35.499 -33.501s16.166 -29.167 20.499 -46.5s6.5 -34.333 6.5 -51z" />
    <glyph glyph-name="oacute" unicode="&#xf3;" horiz-adv-x="541" 
d="M400 699c0 15.333 -5.49902 28.335 -16.499 39.002s-24.167 16 -39.5 16c-7.33301 0 -15 -1.33301 -23 -4c-3.33301 -0.666992 -9.5 -2.33398 -18.5 -5.00098s-19.167 -6.16699 -30.5 -10.5l-36 -13.5c-12.667 -4.66699 -24.334 -9.33398 -35.001 -14.001l-27 -12
c-7.33301 -3.33301 -11.666 -6 -12.999 -8c-10.667 -4 -19.334 -11 -26.001 -21s-10 -20.667 -10 -32c0 -16 5.66699 -29.333 17 -40s24.666 -16 39.999 -16c8.66699 0 16.667 1.66699 24 5c3.33301 0.666992 9.5 2.5 18.5 5.5l30.5 10.5c11.333 4 23.333 8.5 36 13.5
s24.334 9.83301 35.001 14.5s19.5 8.66699 26.5 12s11.167 6 12.5 8c10.667 4 19.167 10.833 25.5 20.5s9.5 20.167 9.5 31.5zM527.001 269.002c0 37.333 -6.66699 72.832 -20 106.499s-31.833 63.167 -55.5 88.5s-51.667 45.333 -84 60s-67.833 22 -106.5 22
s-74.167 -7.5 -106.5 -22.5s-60.333 -35.167 -84 -60.5s-42.167 -54.833 -55.5 -88.5s-20 -69.5 -20 -107.5c0 -37.333 6.66699 -72.833 20 -106.5s31.833 -63.167 55.5 -88.5s51.834 -45.5 84.501 -60.5s68.334 -22.5 107.001 -22.5s74.167 7.5 106.5 22.5
s60.166 35.333 83.499 61s41.666 55.334 54.999 89.001s20 69.5 20 107.5zM374.001 268.001c0 -17.333 -2.16504 -34.833 -6.49805 -52.5s-11 -33.5 -20 -47.5s-20.667 -25.5 -35 -34.5s-31.5 -13.5 -51.5 -13.5c-19.333 0 -36.166 4.5 -50.499 13.5s-26 20.667 -35 35
s-15.667 30.333 -20 48s-6.5 34.834 -6.5 51.501s2.33301 33.5 7 50.5s11.5 32.5 20.5 46.5s20.5 25.333 34.5 34s30.667 13 50 13s36.166 -4.33301 50.499 -13s26.166 -19.834 35.499 -33.501s16.166 -29.167 20.499 -46.5s6.5 -34.333 6.5 -51z" />
    <glyph glyph-name="ocircumflex" unicode="&#xf4;" horiz-adv-x="581" 
d="M469 635c0 12 -3.33105 22.6631 -9.99805 31.9961s-15.334 16.333 -26.001 21l-122 48l-15 5.5c-4.66699 1.66699 -9.66699 2.5 -15 2.5s-10.5 -0.833008 -15.5 -2.5s-9.83301 -3.5 -14.5 -5.5l-124 -50c-10.667 -4 -19 -10.667 -25 -20s-9 -19.666 -9 -30.999
c0 -15.333 5.33301 -28.666 16 -39.999s23.667 -17 39 -17c6.66699 0 16.167 2.16699 28.5 6.5s25.166 9.16602 38.499 14.499s26 10.833 38 16.5s21.333 9.83398 28 12.501c6.66699 -3.33301 15.834 -7.66602 27.501 -12.999s24 -10.666 37 -15.999s25.5 -10 37.5 -14
s21.667 -6 29 -6c15.333 0 28.666 5.5 39.999 16.5s17 24.167 17 39.5zM547.002 268.996c0 37.333 -6.66699 72.832 -20 106.499s-31.833 63.167 -55.5 88.5s-51.667 45.333 -84 60s-67.833 22 -106.5 22s-74.167 -7.5 -106.5 -22.5s-60.333 -35.167 -84 -60.5
s-42.167 -54.833 -55.5 -88.5s-20 -69.5 -20 -107.5c0 -37.333 6.66699 -72.833 20 -106.5s31.833 -63.167 55.5 -88.5s51.834 -45.5 84.501 -60.5s68.334 -22.5 107.001 -22.5s74.167 7.5 106.5 22.5s60.166 35.333 83.499 61s41.666 55.334 54.999 89.001
s20 69.5 20 107.5zM394.002 267.995c0 -17.333 -2.16504 -34.833 -6.49805 -52.5s-11 -33.5 -20 -47.5s-20.667 -25.5 -35 -34.5s-31.5 -13.5 -51.5 -13.5c-19.333 0 -36.166 4.5 -50.499 13.5s-26 20.667 -35 35s-15.667 30.333 -20 48s-6.5 34.834 -6.5 51.501
s2.33301 33.5 7 50.5s11.5 32.5 20.5 46.5s20.5 25.333 34.5 34s30.667 13 50 13s36.166 -4.33301 50.499 -13s26.166 -19.834 35.499 -33.501s16.166 -29.167 20.499 -46.5s6.5 -34.333 6.5 -51z" />
    <glyph glyph-name="otilde" unicode="&#xf5;" horiz-adv-x="579" 
d="M546 269c0 37.333 -6.66699 72.832 -20 106.499s-31.833 63.167 -55.5 88.5s-51.667 45.333 -84 60s-67.833 22 -106.5 22s-74.167 -7.5 -106.5 -22.5s-60.333 -35.167 -84 -60.5s-42.167 -54.833 -55.5 -88.5s-20 -69.5 -20 -107.5c0 -37.333 6.66699 -72.833 20 -106.5
s31.833 -63.167 55.5 -88.5s51.834 -45.5 84.501 -60.5s68.334 -22.5 107.001 -22.5s74.167 7.5 106.5 22.5s60.166 35.333 83.499 61s41.666 55.334 54.999 89.001s20 69.5 20 107.5zM393 267.999c0 -17.333 -2.16504 -34.833 -6.49805 -52.5s-11 -33.5 -20 -47.5
s-20.667 -25.5 -35 -34.5s-31.5 -13.5 -51.5 -13.5c-19.333 0 -36.166 4.5 -50.499 13.5s-26 20.667 -35 35s-15.667 30.333 -20 48s-6.5 34.834 -6.5 51.501s2.33301 33.5 7 50.5s11.5 32.5 20.5 46.5s20.5 25.333 34.5 34s30.667 13 50 13s36.166 -4.33301 50.499 -13
s26.166 -19.834 35.499 -33.501s16.166 -29.167 20.499 -46.5s6.5 -34.333 6.5 -51zM453.002 741.999h-9.00391h-58c0 -4.66699 -0.666992 -9.83398 -2 -15.501s-3.16602 -11 -5.49902 -16s-5.5 -9.16699 -9.5 -12.5s-8.66699 -5 -14 -5c-11.333 0 -23.333 2.5 -36 7.5
s-25.667 10.5 -39 16.5s-27 11.5 -41 16.5s-28 7.5 -42 7.5c-17.333 0 -32.166 -3.83301 -44.499 -11.5s-22.333 -17.667 -30 -30s-13.5 -26 -17.5 -41s-6 -29.833 -6 -44.5c-0.666992 -1.33301 -0.833984 -3.33301 -0.500977 -6s0.5 -4.66699 0.5 -6h67
c0 4.66699 0.5 9.83398 1.5 15.501s2.83301 11 5.5 16s5.83398 9.16699 9.50098 12.5s8.5 5 14.5 5c10 0 21.333 -2.5 34 -7.5s25.834 -10.5 39.501 -16.5s27.667 -11.5 42 -16.5s28.5 -7.5 42.5 -7.5c18 0 33.167 4.33301 45.5 13s22.333 19.834 30 33.501
s13.334 28.667 17.001 45s5.5 32.166 5.5 47.499z" />
    <glyph glyph-name="odieresis" unicode="&#xf6;" horiz-adv-x="573" 
d="M304 660c0 -20 7.16602 -37.166 21.499 -51.499s31.5 -21.5 51.5 -21.5c20.667 0 38.167 7.16699 52.5 21.5s21.5 31.833 21.5 52.5s-7.16699 38.167 -21.5 52.5s-31.5 21.5 -51.5 21.5c-21.333 0 -39.166 -7.33301 -53.499 -22s-21.5 -32.334 -21.5 -53.001h1z
M251.999 661.001c0 20 -7.16699 37.333 -21.5 52s-31.833 22 -52.5 22c-21.333 0 -39 -7.33301 -53 -22s-21 -32.667 -21 -54c0 -20 7.33301 -37 22 -51s32 -21 52 -21c20.667 0 38.167 7.16699 52.5 21.5s21.5 31.833 21.5 52.5zM542.999 269.001
c0 37.333 -6.66699 72.832 -20 106.499s-31.833 63.167 -55.5 88.5s-51.667 45.333 -84 60s-67.833 22 -106.5 22s-74.167 -7.33301 -106.5 -22s-60.333 -34.667 -84 -60s-42.167 -54.833 -55.5 -88.5s-20 -69.5 -20 -107.5s6.66699 -73.833 20 -107.5
s31.833 -63.167 55.5 -88.5s51.834 -45.5 84.501 -60.5s68.334 -22.5 107.001 -22.5s74.167 7.5 106.5 22.5s60.166 35.333 83.499 61s41.666 55.334 54.999 89.001s20 69.5 20 107.5zM164.999 266c0 16.667 2.1709 33.667 6.50391 51s11.166 33 20.499 47
s21.166 25.5 35.499 34.5s31.166 13.5 50.499 13.5s36 -4.33301 50 -13s25.667 -20 35 -34s16.166 -29.667 20.499 -47s6.5 -34.333 6.5 -51c0 -18 -2.16699 -35.667 -6.5 -53s-11 -33 -20 -47s-20.833 -25.333 -35.5 -34s-32 -13 -52 -13c-19.333 0 -36 4.5 -50 13.5
s-25.5 20.5 -34.5 34.5s-15.667 29.667 -20 47s-6.5 34.333 -6.5 51z" />
    <glyph glyph-name="divide" unicode="&#xf7;" 
 />
    <glyph glyph-name="oslash" unicode="&#xf8;" horiz-adv-x="600" 
d="M563 536c0 6.66699 -2.16699 12.668 -6.5 18.001s-10.166 8 -17.499 8c-6 0 -12.833 -3 -20.5 -9s-15.334 -13.167 -23.001 -21.5l-22 -25l-16.5 -19.5c-47.333 40 -102.333 60 -165 60c-38.667 0 -74.334 -7.33301 -107.001 -22s-61 -34.5 -85 -59.5
s-42.667 -54.333 -56 -88s-20 -69.5 -20 -107.5c0 -33.333 5.33301 -65.833 16 -97.5s26 -60.834 46 -87.501l-70 -83l36 -30l70 78c22.667 -20 48.167 -35.167 76.5 -45.5s57.5 -15.5 87.5 -15.5c38.667 0 74.334 7.33301 107.001 22s61 34.5 85 59.5s42.667 54.333 56 88
s20 69.5 20 107.5c0 34 -5.16699 66.5 -15.5 97.5s-25.833 59.833 -46.5 86.5l16.5 17l23.5 25c8 8.66699 15.167 17.167 21.5 25.5s9.5 14.5 9.5 18.5zM358 384.001l-167 -188.999c-4 11.333 -7.33301 23.166 -10 35.499s-4 24.833 -4 37.5c0 16.667 2.33301 33.5 7 50.5
s11.5 32.5 20.5 46.5s20.5 25.333 34.5 34s30.667 13 50 13c27.333 0 50.333 -9.33301 69 -28zM401 264.002c0 -17.333 -2.1709 -34.5 -6.50391 -51.5s-11.166 -32.333 -20.499 -46s-21.166 -24.667 -35.499 -33s-31.166 -12.5 -50.499 -12.5
c-12.667 0 -25.167 2.33301 -37.5 7s-23.166 11.667 -32.499 21l169 191c5.33301 -12 9 -24.333 11 -37s3 -25.667 3 -39z" />
    <glyph glyph-name="ugrave" unicode="&#xf9;" horiz-adv-x="539" 
d="M396 635c0 11.333 -3.16504 21.834 -9.49805 31.501s-14.833 16.5 -25.5 20.5c-2 2.66699 -10.333 7.33398 -25 14.001s-31.167 13.5 -49.5 20.5s-35.833 13.333 -52.5 19s-27.667 9.16699 -33 10.5c-7.33301 2.66699 -15.333 4 -24 4
c-15.333 0 -28.5 -5.33301 -39.5 -16s-16.5 -24 -16.5 -40c0 -11.333 3.33301 -21.833 10 -31.5s15.667 -16.834 27 -21.501c2 -2.66699 10.5 -7.16699 25.5 -13.5s31.667 -13 50 -20s35.666 -13.333 51.999 -19s27.166 -8.83398 32.499 -9.50098
c7.33301 -2.66699 15 -4 23 -4c15.333 0 28.333 5.33301 39 16s16 23.667 16 39zM505.002 220.001l0.000976562 247.002c0 21.333 -7.5 39.5 -22.5 54.5s-33.167 22.5 -54.5 22.5c-10.667 0 -20.667 -2 -30 -6s-17.5 -9.5 -24.5 -16.5s-12.5 -15.333 -16.5 -25
s-6 -19.834 -6 -30.501v-244c0 -30 -7.33301 -53.667 -22 -71s-37.334 -26 -68.001 -26c-31.333 0 -54.333 8.83301 -69 26.5s-22 41.167 -22 70.5v308h-111h-43v-310c0 -78.667 21.667 -136.667 65 -174s103.333 -56 180 -56s136.5 18.667 179.5 56
s64.5 95.666 64.5 174.999v-1z" />
    <glyph glyph-name="uacute" unicode="&#xfa;" horiz-adv-x="539" 
d="M399 699c0 15.333 -5.49707 28.335 -16.4971 39.002s-24.167 16 -39.5 16c-7.33301 0 -15 -1.33301 -23 -4c-3.33301 -0.666992 -9.5 -2.33398 -18.5 -5.00098s-19.167 -6.16699 -30.5 -10.5l-36 -13.5c-12.667 -4.66699 -24.334 -9.33398 -35.001 -14.001l-27 -12
c-7.33301 -3.33301 -11.666 -6 -12.999 -8c-10.667 -4 -19.334 -11 -26.001 -21s-10 -20.667 -10 -32c0 -16 5.66699 -29.333 17 -40s24.666 -16 39.999 -16c8.66699 0 16.667 1.66699 24 5c3.33301 0.666992 9.33301 2.5 18 5.5l30.5 10.5c11.667 4 23.667 8.5 36 13.5
l34.5 14.5l27 12c7.33301 3.33301 11.666 6 12.999 8c10.667 4 19.167 10.833 25.5 20.5s9.5 20.167 9.5 31.5zM505.003 220.002l0.000976562 247.002c0 21.333 -7.5 39.5 -22.5 54.5s-33.167 22.5 -54.5 22.5c-10.667 0 -20.667 -2 -30 -6s-17.5 -9.5 -24.5 -16.5
s-12.5 -15.333 -16.5 -25s-6 -19.834 -6 -30.501v-244c0 -30 -7.33301 -53.667 -22 -71s-37.334 -26 -68.001 -26c-31.333 0 -54.333 8.83301 -69 26.5s-22 41.167 -22 70.5v308h-111h-43v-310c0 -78.667 21.667 -136.667 65 -174s103.333 -56 180 -56
s136.5 18.667 179.5 56s64.5 95.666 64.5 174.999v-1z" />
    <glyph glyph-name="ucircumflex" unicode="&#xfb;" horiz-adv-x="570" 
d="M463 635c0 12 -3.33105 22.6631 -9.99805 31.9961s-15.334 16.333 -26.001 21l-122 48l-15 5.5c-4.66699 1.66699 -9.66699 2.5 -15 2.5s-10.5 -0.833008 -15.5 -2.5s-9.83301 -3.5 -14.5 -5.5l-124 -50c-10.667 -4 -19 -10.667 -25 -20s-9 -19.666 -9 -30.999
c0 -15.333 5.33301 -28.666 16 -39.999s23.667 -17 39 -17c6.66699 0 16.167 2.16699 28.5 6.5s25.166 9.16602 38.499 14.499s26 10.833 38 16.5s21.333 9.83398 28 12.501c6.66699 -3.33301 15.834 -7.66602 27.501 -12.999s24 -10.666 37 -15.999s25.5 -10 37.5 -14
s21.667 -6 29 -6c15.333 0 28.666 5.5 39.999 16.5s17 24.167 17 39.5zM520.002 219.996l0.000976562 247.002c0 21.333 -7.5 39.5 -22.5 54.5s-33.167 22.5 -54.5 22.5c-10.667 0 -20.667 -2 -30 -6s-17.5 -9.5 -24.5 -16.5s-12.5 -15.333 -16.5 -25s-6 -19.834 -6 -30.501
v-244c0 -30 -7.33301 -53.667 -22 -71s-37.334 -26 -68.001 -26c-31.333 0 -54.333 8.83301 -69 26.5s-22 41.167 -22 70.5v308h-111h-43v-310c0 -78.667 21.667 -136.667 65 -174s103.333 -56 180 -56s136.5 18.667 179.5 56s64.5 95.666 64.5 174.999v-1z" />
    <glyph glyph-name="udieresis" unicode="&#xfc;" horiz-adv-x="568" 
d="M449 660c0 20.667 -7.16797 38.168 -21.501 52.501s-31.833 21.5 -52.5 21.5c-21.333 0 -39 -7.33301 -53 -22s-21 -32.667 -21 -54c0 -20.667 7.33301 -37.834 22 -51.501s32.334 -20.5 53.001 -20.5c20 0 37.167 7.16699 51.5 21.5s21.5 31.833 21.5 52.5z
M100.999 658.001c0 -20 7.33301 -37 22 -51s32 -21 52 -21s37.333 7.16699 52 21.5s22 31.833 22 52.5c0 20 -7.33301 37.333 -22 52s-32 22 -52 22c-21.333 0 -39 -7.33301 -53 -22s-21 -32.667 -21 -54zM518.999 220.001l0.000976562 247.002
c0 21.333 -7.5 39.5 -22.5 54.5s-33.167 22.5 -54.5 22.5c-10.667 0 -20.667 -2 -30 -6s-17.5 -9.5 -24.5 -16.5s-12.5 -15.333 -16.5 -25s-6 -19.834 -6 -30.501v-244c0 -30 -7.33301 -53.667 -22 -71s-37.334 -26 -68.001 -26c-31.333 0 -54.333 8.83301 -69 26.5
s-22 41.167 -22 70.5v308h-111h-43v-310c0 -78.667 21.667 -136.667 65 -174s103.333 -56 180 -56s136.5 18.667 179.5 56s64.5 95.666 64.5 174.999v-1z" />
    <glyph glyph-name="yacute" unicode="&#xfd;" 
 />
    <glyph glyph-name="thorn" unicode="&#xfe;" 
 />
    <glyph glyph-name="ydieresis" unicode="&#xff;" horiz-adv-x="493" 
d="M419 655c0 21.333 -7.33301 39.168 -22 53.501s-32.334 21.5 -53.001 21.5s-38 -7.33301 -52 -22s-21 -32.334 -21 -53.001c0 -20 7.16699 -37.167 21.5 -51.5s31.5 -21.5 51.5 -21.5c20.667 0 38.334 7 53.001 21s22 31.333 22 52zM145 730.002
c-20.667 0 -38.333 -7.00098 -53 -21.001s-22 -31.333 -22 -52c0 -21.333 7 -39.166 21 -53.499s31.667 -21.5 53 -21.5c20.667 0 38.167 7.16699 52.5 21.5s21.5 31.833 21.5 52.5c0 20 -7.16699 37.333 -21.5 52s-31.5 22 -51.5 22zM482.001 471.001
c0 21.333 -7.6709 39.0029 -23.0039 53.0029s-33.333 21 -54 21c-20 0 -35.833 -6.16699 -47.5 -18.5s-20.167 -27.166 -25.5 -44.499l-87 -263l-112 317l-139 -57l173 -444c-1.33301 -2.66699 -5.33301 -11.334 -12 -26.001l-22 -48.5l-22.5 -51.5
c-7 -16.667 -11.167 -28.334 -12.5 -35.001c-7.33301 -18 -11 -33 -11 -45c0 -20 7.83301 -36.5 23.5 -49.5s33.167 -19.5 52.5 -19.5c18.667 0 33.834 5.5 45.501 16.5s20.834 24.833 27.501 41.5c2.66699 2 7.83398 11.167 15.501 27.5s16.834 37.333 27.501 63l35.5 87
l39.5 100l39 103l34.5 95.5l26.5 76.5c7.33301 21.667 12.333 37.5 15 47.5c4.66699 11.333 8 21.666 10 30.999s3 16.666 3 21.999z" />
    <glyph glyph-name="OE" unicode="&#x152;" horiz-adv-x="987" 
d="M956 68c0 19.333 -6.82715 35.8301 -20.4941 49.4971s-30.167 20.5 -49.5 20.5h-197v150h168c19.333 0 35.833 6.83301 49.5 20.5s20.5 30.167 20.5 49.5s-6.66699 35.833 -20 49.5s-30 20.5 -50 20.5h-168v151h220v139l-36 2h-264c-12 0 -21.5 -2.16699 -28.5 -6.5
s-12.333 -10.166 -16 -17.499s-6.16699 -15.833 -7.5 -25.5s-2 -19.5 -2 -29.5c-12 16 -25.667 29.833 -41 41.5s-32 21.334 -50 29.001s-36.833 13.167 -56.5 16.5s-39.167 5 -58.5 5c-24.667 0 -48.334 -2 -71.001 -6c-43.333 -7.33301 -82.333 -22.833 -117 -46.5
s-64 -52.5 -88 -86.5s-42.5 -71.833 -55.5 -113.5s-19.5 -84.167 -19.5 -127.5c0 -48 8.66699 -94.167 26 -138.5s41.166 -83.166 71.499 -116.499s66.666 -60 108.999 -80s88.5 -30 138.5 -30c18.667 0 38 1.83301 58 5.5s39.333 9.16699 58 16.5s36.167 16.5 52.5 27.5
s30.5 23.833 42.5 38.5v1c0.666992 -2.66699 1.66699 -7 3 -13s2.5 -12.167 3.5 -18.5s2.16699 -12 3.5 -17s2.66602 -7.83301 3.99902 -8.5c1.33301 -6.66699 5.66602 -11.667 12.999 -15s15.666 -5 24.999 -5l279 -2c19.333 0 36 6.83301 50 20.5s21 30.167 21 49.5z
M159.006 359.997c0 28.667 3.50098 57.001 10.501 85.001s18 53.167 33 75.5s34.167 40.333 57.5 54s51.333 20.5 84 20.5c32 0 59.833 -6.66699 83.5 -20s43.167 -31 58.5 -53s26.833 -46.833 34.5 -74.5s11.5 -55.834 11.5 -84.501c0 -29.333 -3.5 -57.833 -10.5 -85.5
s-18 -52.5 -33 -74.5s-34.167 -39.667 -57.5 -53s-51.333 -20 -84 -20c-32 0 -59.833 6.66699 -83.5 20s-43.334 30.666 -59.001 51.999s-27.167 45.833 -34.5 73.5s-11 55.834 -11 84.501z" />
    <glyph glyph-name="oe" unicode="&#x153;" horiz-adv-x="936" 
d="M898 287c0 26.667 -4.66797 53.334 -14.001 80.001s-22 51.167 -38 73.5s-34.667 41.166 -56 56.499s-45.166 27.333 -71.499 36s-54.166 13 -83.499 13c-39.333 0 -73 -7.16699 -101 -21.5s-55 -34.833 -81 -61.5c-23.333 25.333 -50.5 45.5 -81.5 60.5
s-64.5 22.5 -100.5 22.5c-38.667 0 -74.167 -7.33301 -106.5 -22s-60.333 -34.667 -84 -60s-42.167 -54.666 -55.5 -87.999s-20 -69 -20 -107s6.33301 -73.833 19 -107.5s30.667 -63.167 54 -88.5s51 -45.5 83 -60.5s67.667 -22.5 107 -22.5c36 0 70 7 102 21
s59.667 34.667 83 62c24.667 -28 54 -48.833 88 -62.5s70 -20.5 108 -20.5c12 0 25.167 0.666992 39.5 2s28.833 3 43.5 5s29 4.66699 43 8s26.333 7 37 11c-2.66699 12.667 -6 26.834 -10 42.501s-7.66699 31.167 -11 46.5c-0.666992 1.33301 -1.66699 5.16602 -3 11.499
s-2 10.166 -2 11.499c-1.33301 2.66699 -2 5.33398 -2 8.00098v1c-4.66699 -0.666992 -9.66699 -1.83398 -15 -3.50098l-14 -4.5c-15.333 -4 -30.333 -7.5 -45 -10.5s-29.667 -4.5 -45 -4.5c-36 0 -65.333 10.167 -88 30.5s-37.334 47.5 -44.001 81.5h297
c22 0 38.833 4.33301 50.5 13s17.5 24.667 17.5 48zM736.999 313h-204c2 14 5.5 27.833 10.5 41.5s11.5 25.667 19.5 36s18 18.833 30 25.5s26 10 42 10c15.333 0 29.333 -3.16699 42 -9.5s23.5 -14.666 32.5 -24.999s15.833 -22.333 20.5 -36s7 -27.834 7 -42.501z
M380.999 272c0 -17.333 -2 -34.833 -6 -52.5s-10.333 -33.667 -19 -48s-20 -26 -34 -35s-31.333 -13.5 -52 -13.5c-19.333 0 -36 4.16699 -50 12.5s-25.667 19.333 -35 33s-16.166 28.834 -20.499 45.501s-6.5 33.667 -6.5 51c0 16 2.16699 32.833 6.5 50.5s11 33.667 20 48
s20.333 26.166 34 35.499s30.167 14 49.5 14c20 0 37 -4 51 -12s25.667 -18.667 35 -32s16.166 -28.333 20.499 -45s6.5 -34 6.5 -52z" />
    <glyph glyph-name="Scaron" unicode="&#x160;" 
 />
    <glyph glyph-name="scaron" unicode="&#x161;" 
 />
    <glyph glyph-name="Ydieresis" unicode="&#x178;" horiz-adv-x="604" 
d="M469 838c0 20.667 -7.16699 38.168 -21.5 52.501s-32.166 21.5 -53.499 21.5c-20.667 0 -38 -7.33301 -52 -22s-21 -32.334 -21 -53.001c0 -19.333 7.33301 -36.333 22 -51s31.667 -22 51 -22c21.333 0 39.166 7 53.499 21s21.5 31.667 21.5 53zM195 912.001
c-20 0 -37.499 -7.00098 -52.499 -21.001s-22.5 -31.333 -22.5 -52c0 -21.333 7.16699 -39.166 21.5 -53.499s32.166 -21.5 53.499 -21.5c20.667 0 38 7.33301 52 22s21 32 21 52c0 20.667 -7 38.167 -21 52.5s-31.333 21.5 -52 21.5zM584.001 648
c0 10.667 -2.00098 20.666 -6.00098 29.999s-9.5 17.666 -16.5 24.999s-15.333 13.166 -25 17.499s-19.834 6.5 -30.501 6.5c-14 0 -27.333 -3.66699 -40 -11s-22.667 -16.666 -30 -27.999l-142 -209l-170 253l-124 -95c0 -1.33301 0.833008 -3.16602 2.5 -5.49902
s2.83398 -4.16602 3.50098 -5.49902l209 -288v-266c0 -22 7.66699 -41 23 -57s34.333 -24 57 -24c22 0 40.833 8 56.5 24s23.5 35 23.5 57v266l194 266c4.66699 6.66699 8.33398 13.667 11.001 21s4 15 4 23z" />
    <glyph glyph-name="florin" unicode="&#x192;" horiz-adv-x="408" 
d="M411 706c0 17.333 -4.67188 30.6611 -14.0049 39.9941s-20.666 16.166 -33.999 20.499s-27.833 6.83301 -43.5 7.5s-29.5 1 -41.5 1c-34.667 0 -62.667 -10.167 -84 -30.5s-35.666 -45.833 -42.999 -76.5c-2 -5.33301 -4.33301 -14.166 -7 -26.499s-5 -25.5 -7 -39.5
l-5.5 -40l-3.5 -27c-11.333 -1.33301 -22.833 -3.16602 -34.5 -5.49902s-22.167 -6.16602 -31.5 -11.499s-17.166 -12.5 -23.499 -21.5s-9.5 -20.5 -9.5 -34.5c0 -11.333 2.66699 -21 8 -29s12.166 -14.333 20.499 -19s17.5 -8 27.5 -10s20 -3 30 -3l-46 -451
c-1.33301 -13.333 -5.66602 -24.5 -12.999 -33.5s-19.666 -14.5 -36.999 -16.5c-6.66699 -1.33301 -13 -2.16602 -19 -2.49902s-11.667 -1.16602 -17 -2.49902l-1 -115c3.33301 -1.33301 7.83301 -2.83301 13.5 -4.5s11.667 -3.16699 18 -4.5s12.333 -2.5 18 -3.5
s10.5 -1.5 14.5 -1.5h30c21.333 0 40.5 4.16699 57.5 12.5s31.5 19.333 43.5 33s21.5 29.667 28.5 48s11.5 37.5 13.5 57.5l50 484c10.667 -0.666992 22.5 0.333008 35.5 3s25 7.16699 36 13.5s20.167 14.5 27.5 24.5s11 21.667 11 35c0 10.667 -2.66699 19.834 -8 27.501
s-12.166 13.667 -20.499 18s-17.5 7.5 -27.5 9.5s-19.667 3 -29 3c-1.33301 0.666992 -3.33301 0.833984 -6 0.500977s-4.66699 -0.5 -6 -0.5c1.33301 14 3.16602 27.5 5.49902 40.5s5.5 25.5 9.5 37.5c1.33301 1.33301 2 3 2 5s0.666992 3.66699 2 5
c8 9.33301 18.167 15.5 30.5 18.5s24.333 6.33301 36 10s21.834 9.16699 30.501 16.5s13 20 13 38z" />
    <glyph glyph-name="circumflex" unicode="&#x2c6;" horiz-adv-x="360" 
d="M362 635c0 12 -3.33105 22.6631 -9.99805 31.9961s-15.334 16.333 -26.001 21l-122 48l-15 5.5c-4.66699 1.66699 -9.66699 2.5 -15 2.5s-10.5 -0.833008 -15.5 -2.5s-9.83301 -3.5 -14.5 -5.5l-124 -50c-10.667 -4 -19 -10.667 -25 -20s-9 -19.666 -9 -30.999
c0 -15.333 5.33301 -28.666 16 -39.999s23.667 -17 39 -17c6.66699 0 16.167 2.16699 28.5 6.5s25.166 9.16602 38.499 14.499s26 10.833 38 16.5s21.333 9.83398 28 12.501c6.66699 -3.33301 15.834 -7.66602 27.501 -12.999s24 -10.666 37 -15.999s25.5 -10 37.5 -14
s21.667 -6 29 -6c15.333 0 28.666 5.5 39.999 16.5s17 24.167 17 39.5z" />
    <glyph glyph-name="tilde" unicode="&#x2dc;" horiz-adv-x="376" 
d="M359 712h-9.00293h-58c0 -4.66699 -0.666992 -9.83398 -2 -15.501s-3.16602 -11 -5.49902 -16s-5.5 -9.16699 -9.5 -12.5s-8.66699 -5 -14 -5c-11.333 0 -23.333 2.5 -36 7.5s-25.667 10.5 -39 16.5s-27 11.5 -41 16.5s-28 7.5 -42 7.5c-17.333 0 -32 -3.83301 -44 -11.5
s-22 -17.667 -30 -30s-13.833 -26 -17.5 -41s-5.83398 -29.833 -6.50098 -44.5v-12h67c0 4.66699 0.5 9.83398 1.5 15.501s2.83301 11 5.5 16s5.83398 9.16699 9.50098 12.5s8.5 5 14.5 5c10 0 21.333 -2.5 34 -7.5s25.834 -10.5 39.501 -16.5s27.667 -11.5 42 -16.5
s28.5 -7.5 42.5 -7.5c18 0 33.167 4.33301 45.5 13s22.333 19.834 30 33.501s13.334 28.667 17.001 45s5.5 32.166 5.5 47.499z" />
    <glyph glyph-name="endash" unicode="&#x2013;" horiz-adv-x="581" 
d="M527 410h-439c-16 0 -29.167 -6.33301 -39.5 -19s-15.5 -26.667 -15.5 -42s5 -29.5 15 -42.5s23.333 -19.5 40 -19.5h413h25z" />
    <glyph glyph-name="emdash" unicode="&#x2014;" horiz-adv-x="562" 
d="M513 224l-1 144h-483v-145z" />
    <glyph glyph-name="quoteleft" unicode="&#x2018;" horiz-adv-x="242" 
d="M-1 515l137 -64l92 209c4.66699 9.33301 7 20 7 32c0 20 -6.83301 37.333 -20.5 52s-30.5 22 -50.5 22c-14 0 -27.333 -4 -40 -12s-22 -18.667 -28 -32z" />
    <glyph glyph-name="quoteright" unicode="&#x2019;" horiz-adv-x="240" 
d="M234 692l-136.999 63.998l-93 -210c-2.66699 -5.33301 -4.33398 -10.666 -5.00098 -15.999s-1 -10.666 -1 -15.999c0 -19.333 6.83301 -36.333 20.5 -51s30.5 -22 50.5 -22c14 0 27.333 4 40 12s22 18.333 28 31z" />
    <glyph glyph-name="quotesinglbase" unicode="&#x201a;" horiz-adv-x="244" 
d="M236 97l-120 66.001l-11.5 -22l-26 -49l-26.5 -50.5c-8 -15.667 -12.333 -24.5 -13 -26.5c-2.66699 -4.66699 -6.16699 -11.667 -10.5 -21l-13 -29c-4.33301 -10 -8 -19.667 -11 -29s-4.5 -16.333 -4.5 -21c-0 -20 6.83301 -37.333 20.5 -52s30.5 -22 50.5 -22
c14 0 27.333 3.83301 40 11.5s22 18.167 28 31.5c2.66699 1.33301 7.66699 9.66602 15 24.999l24.5 53.5l27 62l21.5 51c5.33301 13 8.33301 20.167 9 21.5z" />
    <glyph glyph-name="quotedblleft" unicode="&#x201c;" horiz-adv-x="471" 
d="M-1 505l136.001 -64l106 233c4.66699 11.333 7 22 7 32c0 20 -6.83301 37.333 -20.5 52s-30.834 22 -51.501 22c-14 0 -27.333 -4 -40 -12s-21.667 -18.333 -27 -31zM208.001 505l137 -64l106 233c4 10 6 20.667 6 32c0 20 -6.66699 37.333 -20 52s-30.333 22 -51 22
c-14 0 -27.5 -4 -40.5 -12s-22.167 -18.333 -27.5 -31z" />
    <glyph glyph-name="quotedblright" unicode="&#x201d;" horiz-adv-x="468" 
d="M455 716l-136 64l-106 -234c-4.66699 -10.667 -7 -21 -7 -31c0 -20 7 -37.333 21 -52s31 -22 51 -22c14 0 27.333 3.83301 40 11.5s22 18.167 28 31.5zM246 716l-137 63.999l-106 -234c-4 -9.33301 -6 -19.666 -6 -30.999c0 -20 6.83301 -37.333 20.5 -52
s30.5 -22 50.5 -22c14 0 27.333 4 40 12s22 18.333 28 31z" />
    <glyph glyph-name="quotedblbase" unicode="&#x201e;" horiz-adv-x="472" 
d="M457 116l-136 64l-106 -234c-4.66699 -10.667 -7 -21 -7 -31c0 -20 7 -37.333 21 -52s31 -22 51 -22c14 0 27.333 3.83301 40 11.5s22 18.167 28 31.5zM248 116l-137 63.999l-106 -234c-4 -9.33301 -6 -19.666 -6 -30.999c0 -20 6.83301 -37.333 20.5 -52
s30.5 -22 50.5 -22c14 0 27.333 4 40 12s22 18.333 28 31z" />
    <glyph glyph-name="dagger" unicode="&#x2020;" horiz-adv-x="611" 
d="M592 417c0 22 -7.33398 39.667 -22.001 53c-7.33301 7.33301 -15.5 13 -24.5 17s-18.833 6 -29.5 6h-152v166c0 10.667 -1.83301 21 -5.5 31s-9.16699 18.667 -16.5 26c-14 15.333 -32.333 23 -55 23c-21.333 0 -39.666 -7.66699 -54.999 -23
c-7.33301 -8 -13 -16.833 -17 -26.5s-6 -20.167 -6 -31.5v-166h-212v-149h212v-556h156v557h152c21.333 0 39.333 7.33301 54 22c14 14 21 31 21 51z" />
    <glyph glyph-name="daggerdbl" unicode="&#x2021;" 
 />
    <glyph glyph-name="bullet" unicode="&#x2022;" horiz-adv-x="344" 
d="M288 360c0 18.667 -3.66699 36.5 -11 53.5s-17.333 31.833 -30 44.5s-27.5 22.667 -44.5 30s-34.833 11 -53.5 11c-19.333 0 -37.333 -3.66699 -54 -11s-31.334 -17.333 -44.001 -30s-22.667 -27.5 -30 -44.5s-11 -34.833 -11 -53.5c0 -19.333 3.66699 -37.333 11 -54
s17.333 -31.334 30 -44.001s27.334 -22.667 44.001 -30s34.667 -11 54 -11c18.667 0 36.5 3.66699 53.5 11s31.833 17.333 44.5 30s22.667 27.334 30 44.001s11 34.667 11 54z" />
    <glyph glyph-name="ellipsis" unicode="&#x2026;" horiz-adv-x="722" 
d="M670 70c0 22 -8 41 -24 57s-35.333 24 -58 24c-22 0 -41 -8 -57 -24s-24 -35.333 -24 -58c0 -22 8 -41 24 -57s35.333 -24 58 -24c22 0 41 8 57 24s24 35.333 24 58zM430 70c0 22 -7.83301 41 -23.5 57s-34.834 24 -57.501 24s-41.834 -8 -57.501 -24
s-23.5 -35.333 -23.5 -58c0 -22 7.83301 -41 23.5 -57s34.834 -24 57.501 -24s41.834 8 57.501 24s23.5 35.333 23.5 58zM190 70c0 22 -7.83203 41 -23.499 57s-34.834 24 -57.501 24c-22 0 -41 -8 -57 -24s-24 -35.333 -24 -58c0 -22 8 -41 24 -57s35.333 -24 58 -24
c22 0 41 8 57 24s24 35.333 24 58h-1z" />
    <glyph glyph-name="perthousand" unicode="&#x2030;" horiz-adv-x="948" 
d="M928 162c0 21.333 -3.16309 42.333 -9.49609 63s-15.5 39 -27.5 55s-27 29 -45 39s-38.667 15 -62 15s-44.333 -5.16699 -63 -15.5s-34.334 -23.666 -47.001 -39.999s-22.334 -35 -29.001 -56s-10 -42.167 -10 -63.5s3.16699 -42.5 9.5 -63.5s15.833 -39.833 28.5 -56.5
s28.167 -30.167 46.5 -40.5s39.166 -15.5 62.499 -15.5c24 0 45.167 5.33301 63.5 16s33.666 24.5 45.999 41.5s21.5 36.167 27.5 57.5s9 42.666 9 63.999zM282.004 562c0 21.333 -3.16309 42.502 -9.49609 63.502s-15.833 39.667 -28.5 56s-28 29.666 -46 39.999
s-38.667 15.5 -62 15.5c-24 0 -45.167 -5.33301 -63.5 -16s-33.833 -24.5 -46.5 -41.5s-22.334 -36.167 -29.001 -57.5s-10 -42.666 -10 -63.999s3.33301 -42.333 10 -63s16.167 -39.5 28.5 -56.5s27.666 -30.667 45.999 -41s39.166 -15.5 62.499 -15.5
c24 0 45.167 5.33301 63.5 16s33.666 24.667 45.999 42s21.833 36.666 28.5 57.999s10 42.666 10 63.999zM499.008 678.002c0 15.333 -5.00195 28.333 -15.002 39s-22.667 16 -38 16c-10 0 -19.333 -2.5 -28 -7.5s-15 -12.167 -19 -21.5l-297 -651
c-0.666992 -1.33301 -1.83398 -3.83301 -3.50098 -7.5s-2.5 -6.16699 -2.5 -7.5c0 -2 3.66699 -6 11 -12s15.833 -12.167 25.5 -18.5s18.834 -12 27.501 -17s14 -7.5 16 -7.5s4.16699 1.16699 6.5 3.5s4.83301 5 7.5 8s4.83398 6 6.50098 9s2.83398 5.16699 3.50098 6.5
l293 643c4 8 6 16.333 6 25zM614.006 162.002c0 21.333 -3.16309 42.333 -9.49609 63s-15.666 39 -27.999 55s-27.5 29 -45.5 39s-38.667 15 -62 15s-44.333 -5.16699 -63 -15.5s-34.334 -23.666 -47.001 -39.999s-22.334 -35 -29.001 -56s-10 -42.167 -10 -63.5
s3.16699 -42.5 9.5 -63.5s15.833 -39.833 28.5 -56.5s28.167 -30.167 46.5 -40.5s39.166 -15.5 62.499 -15.5c24 0 45.167 5.33301 63.5 16s33.666 24.5 45.999 41.5s21.666 36.167 27.999 57.5s9.5 42.666 9.5 63.999zM782.01 87.002c-9.33301 0 -17.333 2.16699 -24 6.5
s-12 10 -16 17s-7 14.833 -9 23.5s-3 17 -3 25s1 16.167 3 24.5s5 16 9 23s9.33301 12.833 16 17.5s15 7 25 7c18.667 0 32 -7.33301 40 -22s12 -30 12 -46c0 -8.66699 -0.833008 -17.5 -2.5 -26.5s-4.66699 -17.167 -9 -24.5s-9.83301 -13.333 -16.5 -18s-15 -7 -25 -7z
M135.01 631.002c9.33301 0 17.165 -2.16699 23.498 -6.5s11.5 -10 15.5 -17s7 -14.5 9 -22.5s3 -16 3 -24s-1 -16.333 -3 -25s-5 -16.667 -9 -24s-9.33301 -13.5 -16 -18.5s-14.667 -7.5 -24 -7.5s-17.166 2.33301 -23.499 7s-11.666 10.667 -15.999 18s-7.5 15.333 -9.5 24
s-3 16.667 -3 24c0 8 1 16.167 3 24.5s5.16699 16 9.5 23s9.83301 12.833 16.5 17.5s14.667 7 24 7zM468.009 231.002c18.667 0 32.167 -7.33301 40.5 -22s12.5 -30 12.5 -46c0 -8.66699 -0.833008 -17.5 -2.5 -26.5s-4.66699 -17.167 -9 -24.5s-10 -13.333 -17 -18
s-15.5 -7 -25.5 -7c-9.33301 0 -17.333 2.16699 -24 6.5s-12 10 -16 17s-7 14.833 -9 23.5s-3 17 -3 25s1 16.167 3 24.5s5 16 9 23s9.33301 12.833 16 17.5s15 7 25 7z" />
    <glyph glyph-name="guilsinglleft" unicode="&#x2039;" horiz-adv-x="288" 
d="M197 489c-11.333 0 -22.333 -3.16797 -33 -9.50098s-19.667 -14.166 -27 -23.499l-111 -142c-0.666992 -0.666992 -1.16699 -5 -1.5 -13s-0.5 -16.667 -0.5 -26v-26v-14c0 -1.33301 0.833008 -3.5 2.5 -6.5s3.66699 -6 6 -9s4.5 -6 6.5 -9s3.33301 -5.16699 4 -6.5
l95 -131c6.66699 -9.33301 14.667 -16.833 24 -22.5s19.666 -8.5 30.999 -8.5c16.667 0 31.167 6 43.5 18s18.5 26.333 18.5 43c0 9.33301 -2.16699 18 -6.5 26s-9.16602 15.667 -14.499 23l-85 115l87 113c5.33301 7.33301 9.83301 14.833 13.5 22.5s5.5 16.167 5.5 25.5
c0 16 -5.5 30.167 -16.5 42.5s-24.833 18.5 -41.5 18.5z" />
    <glyph glyph-name="guilsinglright" unicode="&#x203a;" horiz-adv-x="272" 
d="M83 488c-16.667 0 -31.167 -5.83008 -43.5 -17.4971s-18.5 -25.834 -18.5 -42.501c0 -9.33301 2 -18 6 -26s8.66699 -15.667 14 -23l85 -114l-86 -114c-5.33301 -7.33301 -10 -14.833 -14 -22.5s-6 -16.167 -6 -25.5c0 -16.667 5.83301 -31 17.5 -43
s25.834 -18 42.501 -18c11.333 0 22.166 3.16699 32.499 9.5s18.833 14.166 25.5 23.499l102 142c0.666992 0.666992 1.16699 5 1.5 13s0.5 16.667 0.5 26v26v14c0 3.33301 -2.66699 8.83301 -8 16.5l-10 14.5l-87 131c-5.33301 9.33301 -12.833 16.666 -22.5 21.999
s-20.167 8 -31.5 8z" />
    <glyph glyph-name="trademark" unicode="&#x2122;" horiz-adv-x="746" 
d="M696 369c0 1.33301 -0.167969 3.16602 -0.500977 5.49902s-0.5 4.16602 -0.5 5.49902l-52 308c-2 10.667 -7.16699 19.5 -15.5 26.5s-18.166 10.5 -29.499 10.5s-21 -3.16699 -29 -9.5s-13.667 -15.166 -17 -26.499l-72 -242l-71 242
c-3.33301 10.667 -8.83301 19.334 -16.5 26.001s-17.167 10 -28.5 10s-21.5 -3.5 -30.5 -10.5s-14.167 -16.167 -15.5 -27.5l-52 -307v-11l65 -5l39 259l77 -263h68l77 263l38 -259zM280.999 690c0 8 -2.83301 15.001 -8.5 21.001s-12.834 9 -21.501 9h-196
c-8 0 -15 -2.83301 -21 -8.5s-9 -12.834 -9 -21.501c0 -7.33301 2.16699 -13.5 6.5 -18.5s9.5 -8.16699 15.5 -9.5c2.66699 -1.33301 7.5 -2.16602 14.5 -2.49902s14.5 -0.5 22.5 -0.5s15.333 0.166992 22 0.5s11.334 0.5 14.001 0.5v-293h66v293
c2 0 6.5 -0.166992 13.5 -0.5s14.5 -0.5 22.5 -0.5s15.5 0.166992 22.5 0.5s11.833 1.16602 14.5 2.49902c6 1.33301 11.167 4.33301 15.5 9s6.5 11 6.5 19z" />
    </font>
</defs>
</svg>
