<?xml version="1.0" encoding="UTF-8" standalone="no"?>
<!DOCTYPE svg PUBLIC "-//W3C//DTD SVG 1.1//EN"
"http://www.w3.org/Graphics/SVG/1.1/DTD/svg11.dtd">
<svg viewBox="0 0 909 1286" version="1.1" xmlns="http://www.w3.org/2000/svg" xmlns:xlink="http://www.w3.org/1999/xlink">
<defs>
<clipPath id="c0_34"><path d="M760.8,1223.8v-18.9h18.4v18.9Z" /></clipPath>
<clipPath id="c1_34"><path d="M27.5,1223.8V27.5h854V1223.8Z" /></clipPath>
</defs>
<g clip-path="url(#c0_34)">
<g fill="#000000" >
<use xlink:href="#f0_i" transform="matrix(12,0,0,12,760.8,1221.7)" />
<use xlink:href="#f0_j" transform="matrix(12,0,0,12,770,1221.7)" />
</g>
</g>
<g clip-path="url(#c1_34)">
<g fill="#000000" >
<use xlink:href="#f1_15" transform="matrix(13.9,0,0,13.9,183.9,128)" />
<use xlink:href="#f1_1o" transform="matrix(13.9,0,0,13.9,198.1,128)" />
<use xlink:href="#f1_1k" transform="matrix(13.9,0,0,13.9,208.8,128)" />
<use xlink:href="#f1_1e" transform="matrix(13.9,0,0,13.9,220.7,128)" />
<use xlink:href="#f1_1n" transform="matrix(13.9,0,0,13.9,230.2,128)" />
<use xlink:href="#f1_14" transform="matrix(13.9,0,0,13.9,247.5,128)" />
<use xlink:href="#f1_1a" transform="matrix(13.9,0,0,13.9,259.4,128)" />
<use xlink:href="#f1_1l" transform="matrix(13.9,0,0,13.9,270,128)" />
<use xlink:href="#f1_1e" transform="matrix(13.9,0,0,13.9,276,128)" />
<use xlink:href="#f1_5" transform="matrix(13.9,0,0,13.9,290.9,128)" />
<use xlink:href="#f1_w" transform="matrix(13.9,0,0,13.9,298,128)" />
<use xlink:href="#f1_1u" transform="matrix(13.9,0,0,13.9,308.7,128)" />
<use xlink:href="#f1_1l" transform="matrix(13.9,0,0,13.9,320.6,128)" />
<use xlink:href="#f1_1y" transform="matrix(13.9,0,0,13.9,326.5,128)" />
<use xlink:href="#f1_c" transform="matrix(13.9,0,0,13.9,342.5,128)" />
<use xlink:href="#f1_1s" transform="matrix(13.9,0,0,13.9,353.2,128)" />
<use xlink:href="#f1_1t" transform="matrix(13.9,0,0,13.9,361.5,128)" />
<use xlink:href="#f1_20" transform="matrix(13.9,0,0,13.9,374,128)" />
<use xlink:href="#f1_1w" transform="matrix(13.9,0,0,13.9,390.1,128)" />
<use xlink:href="#f1_1i" transform="matrix(13.9,0,0,13.9,405.5,128)" />
<use xlink:href="#f1_1l" transform="matrix(13.9,0,0,13.9,411.5,128)" />
<use xlink:href="#f1_1l" transform="matrix(13.9,0,0,13.9,417.4,128)" />
<use xlink:href="#f1_1l" transform="matrix(13.9,0,0,13.9,428.7,128)" />
<use xlink:href="#f1_1a" transform="matrix(13.9,0,0,13.9,434.6,128)" />
<use xlink:href="#f1_1s" transform="matrix(13.9,0,0,13.9,445.3,128)" />
<use xlink:href="#f1_1t" transform="matrix(13.9,0,0,13.9,453.6,128)" />
<use xlink:href="#f1_1t" transform="matrix(13.9,0,0,13.9,466.1,128)" />
<use xlink:href="#f1_1i" transform="matrix(13.9,0,0,13.9,473.3,128)" />
<use xlink:href="#f1_1l" transform="matrix(13.9,0,0,13.9,479.2,128)" />
<use xlink:href="#f1_1l" transform="matrix(13.9,0,0,13.9,485.1,128)" />
<use xlink:href="#f1_16" transform="matrix(13.9,0,0,13.9,496.4,128)" />
<use xlink:href="#f1_15" transform="matrix(13.9,0,0,13.9,511.9,128)" />
<use xlink:href="#f1_p" transform="matrix(13.9,0,0,13.9,526.1,128)" />
<use xlink:href="#f1_11" transform="matrix(13.9,0,0,13.9,546.9,128)" />
<use xlink:href="#f1_1c" transform="matrix(13.9,0,0,13.9,563.6,128)" />
<use xlink:href="#f1_1t" transform="matrix(13.9,0,0,13.9,573.1,128)" />
<use xlink:href="#f1_1o" transform="matrix(13.9,0,0,13.9,580.2,128)" />
<use xlink:href="#f1_1b" transform="matrix(13.9,0,0,13.9,590.9,128)" />
<use xlink:href="#f1_1e" transform="matrix(13.9,0,0,13.9,602.8,128)" />
<use xlink:href="#f1_1r" transform="matrix(13.9,0,0,13.9,612.3,128)" />
<use xlink:href="#f1_c" transform="matrix(13.9,0,0,13.9,627.1,128)" />
<use xlink:href="#f1_7" transform="matrix(13.9,0,0,13.9,637.8,128)" />
<use xlink:href="#f1_d" transform="matrix(13.9,0,0,13.9,648.5,128)" />
<use xlink:href="#f1_b" transform="matrix(13.9,0,0,13.9,659.2,128)" />
<use xlink:href="#f1_c" transform="matrix(13.9,0,0,13.9,669.9,128)" />
<use xlink:href="#f1_j" transform="matrix(13.9,0,0,13.9,680.6,128)" />
<use xlink:href="#f1_1o" transform="matrix(13.9,0,0,13.9,696.7,128)" />
<use xlink:href="#f1_1r" transform="matrix(13.9,0,0,13.9,707.4,128)" />
<use xlink:href="#f1_1w" transform="matrix(13.9,0,0,13.9,722.2,128)" />
<use xlink:href="#f1_1h" transform="matrix(13.9,0,0,13.9,737.7,128)" />
<use xlink:href="#f1_1e" transform="matrix(13.9,0,0,13.9,749.6,128)" />
<use xlink:href="#f1_1n" transform="matrix(13.9,0,0,13.9,759,128)" />
<use xlink:href="#f1_1t" transform="matrix(13.9,0,0,13.9,183.9,152.5)" />
<use xlink:href="#f1_1h" transform="matrix(13.9,0,0,13.9,191,152.5)" />
<use xlink:href="#f1_1e" transform="matrix(13.9,0,0,13.9,202.9,152.5)" />
<use xlink:href="#f1_u" transform="matrix(13.9,0,0,13.9,217.7,152.5)" />
<use xlink:href="#f1_1a" transform="matrix(13.9,0,0,13.9,234.4,152.5)" />
<use xlink:href="#f1_1r" transform="matrix(13.9,0,0,13.9,245.1,152.5)" />
<use xlink:href="#f1_1d" transform="matrix(13.9,0,0,13.9,254.6,152.5)" />
<use xlink:href="#f1_p" transform="matrix(13.9,0,0,13.9,266.5,152.5)" />
<use xlink:href="#f1_1a" transform="matrix(13.9,0,0,13.9,281.9,152.5)" />
<use xlink:href="#f1_1p" transform="matrix(13.9,0,0,13.9,292.6,152.5)" />
<use xlink:href="#f1_1i" transform="matrix(13.9,0,0,13.9,309.9,152.5)" />
<use xlink:href="#f1_1s" transform="matrix(13.9,0,0,13.9,315.8,152.5)" />
<use xlink:href="#f1_1a" transform="matrix(13.9,0,0,13.9,329.5,152.5)" />
<use xlink:href="#f1_1c" transform="matrix(13.9,0,0,13.9,340.2,152.5)" />
<use xlink:href="#f1_1h" transform="matrix(13.9,0,0,13.9,349.7,152.5)" />
<use xlink:href="#f1_1i" transform="matrix(13.9,0,0,13.9,361.6,152.5)" />
<use xlink:href="#f1_1e" transform="matrix(13.9,0,0,13.9,367.5,152.5)" />
<use xlink:href="#f1_1v" transform="matrix(13.9,0,0,13.9,377,152.5)" />
<use xlink:href="#f1_1e" transform="matrix(13.9,0,0,13.9,387.7,152.5)" />
<use xlink:href="#f1_1d" transform="matrix(13.9,0,0,13.9,397.2,152.5)" />
<use xlink:href="#f1_9" transform="matrix(13.9,0,0,13.9,409.1,152.5)" />
<use xlink:href="#f1_6" transform="matrix(13.9,0,0,13.9,414.4,152.5)" />
<use xlink:href="#f0_16" transform="matrix(13.9,0,0,13.9,183.9,177.1)" />
<use xlink:href="#f0_1s" transform="matrix(13.9,0,0,13.9,202.9,177.1)" />
<use xlink:href="#f0_1x" transform="matrix(13.9,0,0,13.9,208.8,177.1)" />
<use xlink:href="#f0_1s" transform="matrix(13.9,0,0,13.9,219.5,177.1)" />
<use xlink:href="#f0_1w" transform="matrix(13.9,0,0,13.9,225.5,177.1)" />
<use xlink:href="#f0_24" transform="matrix(13.9,0,0,13.9,242.1,177.1)" />
<use xlink:href="#f0_1w" transform="matrix(13.9,0,0,13.9,252.8,177.1)" />
<use xlink:href="#f0_f" transform="matrix(13.9,0,0,13.9,274.8,177.1)" />
<use xlink:href="#f0_b" transform="matrix(13.9,0,0,13.9,285.5,177.1)" />
<use xlink:href="#f0_g" transform="matrix(13.9,0,0,13.9,290.9,177.1)" />
<use xlink:href="#f0_1e" transform="matrix(13.9,0,0,13.9,306.9,177.1)" />
<use xlink:href="#f0_1c" transform="matrix(13.9,0,0,13.9,322.3,177.1)" />
<use xlink:href="#f0_x" transform="matrix(13.9,0,0,13.9,334.2,177.1)" />
<use xlink:href="#f0_r" transform="matrix(13.9,0,0,13.9,355,177.1)" />
<use xlink:href="#f0_g" transform="matrix(13.9,0,0,13.9,372.4,177.1)" />
<use xlink:href="#f0_h" transform="matrix(13.9,0,0,13.9,383.1,177.1)" />
<use xlink:href="#f0_11" transform="matrix(13.9,0,0,13.9,399.2,177.1)" />
<use xlink:href="#f0_1k" transform="matrix(13.9,0,0,13.9,414.6,177.1)" />
<use xlink:href="#f0_1x" transform="matrix(13.9,0,0,13.9,424.1,177.1)" />
<use xlink:href="#f0_1n" transform="matrix(13.9,0,0,13.9,434.8,177.1)" />
<use xlink:href="#f0_22" transform="matrix(13.9,0,0,13.9,445.5,177.1)" />
<use xlink:href="#f0_1m" transform="matrix(13.9,0,0,13.9,459.2,177.1)" />
<use xlink:href="#f0_1y" transform="matrix(13.9,0,0,13.9,468.7,177.1)" />
<use xlink:href="#f0_1s" transform="matrix(13.9,0,0,13.9,479.4,177.1)" />
<use xlink:href="#f0_1x" transform="matrix(13.9,0,0,13.9,485.3,177.1)" />
<use xlink:href="#f0_8" transform="matrix(13.9,0,0,13.9,501.3,177.1)" />
<use xlink:href="#f0_h" transform="matrix(13.9,0,0,13.9,508.5,177.1)" />
<use xlink:href="#f0_f" transform="matrix(13.9,0,0,13.9,519.2,177.1)" />
<use xlink:href="#f0_5" transform="matrix(13.9,0,0,13.9,529.8,177.1)" />
<use xlink:href="#f0_1l" transform="matrix(13.9,0,0,13.9,553,177.1)" />
<use xlink:href="#f0_1y" transform="matrix(13.9,0,0,13.9,563.7,177.1)" />
<use xlink:href="#f0_1x" transform="matrix(13.9,0,0,13.9,574.4,177.1)" />
<use xlink:href="#f0_24" transform="matrix(13.9,0,0,13.9,585.1,177.1)" />
<use xlink:href="#f0_22" transform="matrix(13.9,0,0,13.9,595.8,177.1)" />
<use xlink:href="#f0_1s" transform="matrix(13.9,0,0,13.9,609.5,177.1)" />
<use xlink:href="#f0_1x" transform="matrix(13.9,0,0,13.9,615.4,177.1)" />
<use xlink:href="#f0_1m" transform="matrix(13.9,0,0,13.9,626.1,177.1)" />
<use xlink:href="#f0_1v" transform="matrix(13.9,0,0,13.9,635.6,177.1)" />
<use xlink:href="#f0_24" transform="matrix(13.9,0,0,13.9,641.5,177.1)" />
<use xlink:href="#f0_1n" transform="matrix(13.9,0,0,13.9,652.2,177.1)" />
<use xlink:href="#f0_1o" transform="matrix(13.9,0,0,13.9,662.9,177.1)" />
<use xlink:href="#f0_1n" transform="matrix(13.9,0,0,13.9,672.4,177.1)" />
<use xlink:href="#f0_9" transform="matrix(13.9,0,0,13.9,683.1,177.1)" />
<use xlink:href="#f0_d" transform="matrix(13.9,0,0,13.9,690.2,177.1)" />
</g>
</g>
<defs>
<path d="M238,-17c0,0,-103,0,-139,25C99,8,62,33,62,62c0,0,0,22,17,38c0,0,18,16,42,16c0,0,19,0,38,-6c0,0,13,-3,58,-27c0,0,45,-23,62,-28c0,0,27,-8,59,-8c0,0,76,0,132,59c0,0,56,59,56,140c0,0,0,59,-26,115c0,0,-19,41,-42,63c0,0,-32,30,-88,54c0,0,-56,25,-114,25H232v22c0,0,59,8,118,42c0,0,59,35,86,85c0,0,27,49,27,108c0,0,0,76,-48,124c0,0,-48,47,-120,47c0,0,-116,0,-193,-124L77,819c0,0,44,102,110,158c0,0,66,56,164,56c0,0,122,0,187,-80c0,0,49,-58,49,-126c0,0,0,-110,-139,-228c0,0,93,-36,141,-104c0,0,48,-68,48,-160c0,0,0,-131,-84,-227C553,108,444,-17,238,-17Z" 
id="f0_i"
transform="scale(0.001,-0.001)" />

<path d="M452,373V875L97,373ZM452,0V267H23v95l470,671h82V373H711V267H575V0Z" 
id="f0_j"
transform="scale(0.001,-0.001)" />

<path d="M244,0V27h34c0,0,44,0,71,16c0,0,19,11,30,36c0,0,8,18,8,94V953H314c0,0,-103,0,-149,-43c0,0,-66,-60,-83,-172H55v274H965V738H938c0,0,-24,95,-53,136c0,0,-29,41,-80,66c0,0,-28,13,-99,13H631V173c0,0,0,-78,8,-97c0,0,9,-20,34,-34c0,0,25,-15,68,-15h33V0Z" 
id="f1_15"
transform="scale(0.001,-0.001)" />

<path d="M381,31c0,0,33,0,56,19c0,0,29,25,38,71c0,0,15,71,15,286c0,0,0,127,-14,174c0,0,-14,48,-42,69c0,0,-19,16,-50,16c0,0,-38,0,-65,-29c0,0,-27,-29,-36,-113c0,0,-8,-85,-8,-235c0,0,0,-80,10,-150c0,0,8,-53,35,-80c0,0,27,-28,61,-28Zm2,-51c0,0,-157,0,-242,110c0,0,-85,110,-85,256c0,0,0,150,87,261c0,0,86,112,238,112c0,0,90,0,169,-47c0,0,78,-47,119,-134c0,0,40,-86,40,-189c0,0,0,-149,-75,-249c0,0,-91,-120,-251,-120Z" 
id="f1_1o"
transform="scale(0.001,-0.001)" />

<path d="M50,0V26c0,0,44,5,63,29c0,0,13,16,13,97V860c0,0,0,80,-15,99c0,0,-14,20,-61,26v27H335V346L497,505c0,0,50,49,62,70c0,0,13,22,13,42c0,0,0,20,-17,33c0,0,-16,14,-64,20v27H804V670c0,0,-45,-2,-78,-21c0,0,-34,-19,-132,-114L519,460L682,219c0,0,99,-146,118,-164c0,0,25,-26,64,-29V0H504V26c0,0,24,0,35,9c0,0,10,9,10,20c0,0,0,17,-31,64L380,322L335,277V152c0,0,0,-81,15,-100c0,0,15,-20,61,-26V0Z" 
id="f1_1k"
transform="scale(0.001,-0.001)" />

<path d="M458,424c0,0,0,120,-13,165c0,0,-13,44,-40,67c0,0,-16,14,-42,14c0,0,-39,0,-63,-38c0,0,-44,-66,-44,-182V424ZM358,-20c0,0,-155,0,-235,119c0,0,-64,96,-64,239c0,0,0,174,94,277c0,0,94,104,221,104c0,0,106,0,184,-87c0,0,78,-87,84,-257H259c0,0,7,-139,74,-220c0,0,51,-62,124,-62c0,0,45,0,81,25c0,0,37,25,79,90l25,-16C642,192,585,76,517,28c0,0,-69,-48,-159,-48Z" 
id="f1_1e"
transform="scale(0.001,-0.001)" />

<path d="M52,0V26c0,0,44,5,62,29c0,0,13,16,13,97V546c0,0,0,79,-14,98c0,0,-15,20,-61,26v27H336V607c0,0,54,59,104,85c0,0,49,27,106,27c0,0,68,0,113,-38c0,0,44,-38,59,-94c0,0,12,-42,12,-163V152c0,0,0,-81,15,-101c0,0,14,-19,61,-25V0H452V26c0,0,40,6,57,33c0,0,12,19,12,93V462c0,0,0,86,-7,109c0,0,-6,22,-22,35c0,0,-16,12,-36,12c0,0,-64,0,-120,-92V152c0,0,0,-79,15,-100c0,0,15,-20,55,-26V0Z" 
id="f1_1n"
transform="scale(0.001,-0.001)" />

<path d="M78,-22V359h28c0,0,32,-161,126,-246c0,0,94,-85,202,-85c0,0,84,0,133,46c0,0,50,45,50,106c0,0,0,36,-19,69c0,0,-19,34,-58,64c0,0,-39,30,-138,79c0,0,-138,68,-198,115c0,0,-60,48,-92,107c0,0,-33,59,-33,130c0,0,0,120,89,205c0,0,89,85,224,85c0,0,49,0,96,-11c0,0,35,-9,85,-34c0,0,51,-24,71,-24c0,0,19,0,30,12c0,0,12,12,21,57h23l8,-337H695c0,0,-21,127,-106,204c0,0,-85,78,-184,78c0,0,-76,0,-121,-41c0,0,-44,-41,-44,-94c0,0,0,-33,15,-59c0,0,22,-35,70,-70c0,0,35,-24,162,-87c0,0,178,-87,240,-165c0,0,61,-77,61,-177c0,0,0,-127,-99,-218c0,0,-99,-90,-251,-90c0,0,-48,0,-90,9c0,0,-43,10,-107,36c0,0,-36,15,-59,15c0,0,-20,0,-41,-15c0,0,-22,-15,-35,-45Z" 
id="f1_14"
transform="scale(0.001,-0.001)" />

<path d="M350,115c0,0,37,0,86,42V391c0,0,-90,-53,-134,-113c0,0,-29,-41,-29,-82c0,0,0,-34,24,-60c0,0,19,-21,53,-21ZM207,-9c0,0,-59,0,-99,38c0,0,-40,40,-40,99c0,0,0,80,69,143c0,0,69,64,299,170v70c0,0,0,79,-8,100c0,0,-9,20,-33,36c0,0,-23,15,-53,15c0,0,-49,0,-80,-22c0,0,-19,-13,-19,-31c0,0,0,-16,21,-39c0,0,28,-32,28,-62c0,0,0,-36,-27,-62c0,0,-27,-26,-71,-26c0,0,-47,0,-79,29c0,0,-32,28,-32,66c0,0,0,54,43,103c0,0,42,48,118,75c0,0,76,26,158,26c0,0,99,0,157,-42c0,0,58,-43,75,-92c0,0,11,-31,11,-144V170c0,0,0,-47,3,-60c0,0,4,-12,11,-18c0,0,8,-6,18,-6c0,0,19,0,39,28L738,96c0,0,-37,-56,-77,-81c0,0,-40,-24,-90,-24c0,0,-60,0,-94,27c0,0,-33,28,-41,85C436,103,309,-9,207,-9Z" 
id="f1_1a"
transform="scale(0.001,-0.001)" />

<path d="M32,0V26c0,0,46,2,69,27c0,0,14,18,14,92V867c0,0,0,74,-17,94c0,0,-17,21,-66,24v27H325V145c0,0,0,-74,17,-95c0,0,17,-21,68,-24V0Z" 
id="f1_1l"
transform="scale(0.001,-0.001)" />

<path d="M491,-305c0,0,-180,60,-305,247C186,-58,61,127,61,368c0,0,0,239,124,423c0,0,125,184,306,243v-34c0,0,-78,-50,-115,-99c0,0,-50,-67,-79,-172c0,0,-36,-131,-36,-365c0,0,0,-221,33,-343c0,0,32,-122,88,-197c0,0,39,-52,109,-92v-37Z" 
id="f1_5"
transform="scale(0.001,-0.001)" />

<path d="M302,-21c0,0,-127,0,-206,66c0,0,-78,67,-78,148c0,0,0,52,32,85c0,0,32,32,78,32c0,0,46,0,77,-29c0,0,31,-29,31,-72c0,0,0,-20,-6,-36c0,0,-3,-8,-23,-38c0,0,-20,-30,-20,-42c0,0,0,-20,19,-34c0,0,28,-21,73,-21c0,0,32,0,52,17c0,0,21,16,29,51c0,0,9,34,9,192V839c0,0,0,78,-9,97c0,0,-8,20,-33,34c0,0,-25,15,-68,15H216v27H755V985H722c0,0,-45,0,-72,-16c0,0,-18,-11,-29,-36c0,0,-9,-18,-9,-94V344c0,0,0,-146,-29,-212C583,132,554,66,480,22c0,0,-74,-43,-178,-43Z" 
id="f1_w"
transform="scale(0.001,-0.001)" />

<path d="M304,-20c0,0,-59,0,-105,36c0,0,-45,36,-61,84c0,0,-16,49,-16,169V546c0,0,0,79,-14,98c0,0,-15,20,-61,26v27H331V221c0,0,0,-74,8,-96c0,0,7,-21,22,-33c0,0,15,-11,35,-11c0,0,27,0,49,14c0,0,30,20,71,78V546c0,0,0,79,-14,98c0,0,-15,20,-61,26v27H726V152c0,0,0,-81,14,-100c0,0,15,-20,61,-26V0H516V93C516,93,466,34,416,7c0,0,-50,-27,-112,-27Z" 
id="f1_1u"
transform="scale(0.001,-0.001)" />

<path d="M182,-328c0,0,-62,0,-101,35c0,0,-38,35,-38,85c0,0,0,44,26,72c0,0,27,28,66,28c0,0,37,0,60,-23c0,0,22,-24,23,-74c0,0,1,-29,7,-37c0,0,6,-8,17,-8c0,0,18,0,38,21c0,0,30,32,70,144l22,57L146,488c0,0,-50,118,-74,144c0,0,-25,27,-59,38v27H384V670c0,0,-36,-2,-51,-14c0,0,-15,-13,-15,-31c0,0,0,-28,37,-112L475,239l81,212c0,0,44,113,44,157c0,0,0,27,-18,44c0,0,-18,16,-65,18v27H750V670c0,0,-34,-4,-56,-27c0,0,-22,-22,-72,-155L422,-27c0,0,-75,-194,-111,-239c0,0,-52,-62,-129,-62Z" 
id="f1_1y"
transform="scale(0.001,-0.001)" />

<path d="M114,0V27h27c0,0,65,0,93,15c0,0,27,15,37,41c0,0,10,27,10,122V729c0,0,0,71,-7,89c0,0,-7,17,-25,30c0,0,-18,12,-42,12c0,0,-38,0,-93,-24l-13,26l372,171h25V205c0,0,0,-93,8,-119c0,0,8,-26,34,-42c0,0,27,-17,84,-17h23V0Z" 
id="f1_c"
transform="scale(0.001,-0.001)" />

<path d="M312,-20c0,0,-50,0,-134,30c0,0,-22,9,-30,9c0,0,-25,0,-41,-37H82L70,232H97c0,0,33,-99,91,-148c0,0,59,-49,111,-49c0,0,35,0,58,22c0,0,22,22,22,54c0,0,0,35,-22,61c0,0,-22,27,-100,80c0,0,-114,79,-147,120c0,0,-49,62,-49,136c0,0,0,80,55,145c0,0,56,66,161,66c0,0,56,0,109,-28c0,0,20,-11,33,-11c0,0,13,0,21,5c0,0,9,6,27,32h26L504,479H477c0,0,-45,106,-94,145c0,0,-48,39,-96,39c0,0,-31,0,-52,-21c0,0,-22,-20,-22,-47c0,0,0,-20,15,-39c0,0,24,-30,133,-105c0,0,110,-74,144,-126c0,0,35,-52,35,-116c0,0,0,-58,-29,-114C511,95,482,39,429,9c0,0,-53,-29,-117,-29Z" 
id="f1_1s"
transform="scale(0.001,-0.001)" />

<path d="M298,-9c0,0,-67,0,-113,36c0,0,-46,37,-58,83c0,0,-8,25,-8,137V624H28v26c0,0,94,66,161,139c0,0,66,73,115,163h25V697H494V624H329V193c0,0,0,-60,5,-78c0,0,6,-17,20,-28c0,0,14,-11,26,-11c0,0,48,0,92,75l22,-17C494,134,434,-9,298,-9Z" 
id="f1_1t"
transform="scale(0.001,-0.001)" />

<path d="M-12,307v90H776V307Z" 
id="f1_20"
transform="scale(0.001,-0.001)" />

<path d="M325,-20L139,484c0,0,-42,116,-71,151c0,0,-18,24,-56,35v27H364V670c0,0,-35,0,-49,-11c0,0,-13,-10,-13,-24c0,0,0,-12,24,-76L428,287l98,272l-7,18c0,0,-22,56,-39,72c0,0,-17,15,-52,21v27H785V670c0,0,-42,-2,-53,-12c0,0,-11,-9,-11,-26c0,0,0,-17,22,-73L841,287l90,251c0,0,19,53,19,73c0,0,0,29,-14,42c0,0,-14,14,-55,17v27h207V670c0,0,-35,-5,-55,-24c0,0,-20,-20,-52,-113L785,-20H743L551,491L364,-20Z" 
id="f1_1w"
transform="scale(0.001,-0.001)" />

<path d="M32,0V26c0,0,46,2,69,27c0,0,14,18,14,92V551c0,0,0,75,-17,95c0,0,-17,21,-66,24v27H325V145c0,0,0,-74,17,-95c0,0,17,-21,68,-24V0ZM220,804c0,0,-48,0,-82,33c0,0,-33,34,-33,82c0,0,0,48,33,82c0,0,34,33,82,33c0,0,48,0,82,-33c0,0,33,-34,33,-82c0,0,0,-48,-34,-82c0,0,-34,-33,-81,-33Z" 
id="f1_1i"
transform="scale(0.001,-0.001)" />

<path d="M549,-22c0,0,-132,0,-203,34c0,0,-98,47,-138,122c0,0,-41,75,-41,201V830c0,0,0,87,-9,109c0,0,-10,21,-34,34c0,0,-22,12,-82,12c-2,0,-4,0,-6,0v27H558V985H532c0,0,-59,0,-81,-13c0,0,-22,-12,-31,-34c0,0,-9,-21,-9,-108V335c0,0,0,-136,20,-180c0,0,21,-44,68,-73c0,0,47,-29,118,-29c0,0,82,0,140,37c0,0,58,37,87,102c0,0,29,64,29,226V830c0,0,0,68,-15,97c0,0,-14,29,-35,40c0,0,-34,18,-95,18v27h350V985h-21c0,0,-43,0,-71,-18c0,0,-28,-17,-41,-51c0,0,-10,-24,-10,-86V446c0,0,0,-178,-23,-258c0,0,-24,-79,-115,-145c0,0,-91,-65,-248,-65Z" 
id="f1_16"
transform="scale(0.001,-0.001)" />

<path d="M610,-21c0,0,-162,0,-287,63c0,0,-126,65,-194,187c0,0,-68,121,-68,258c0,0,0,145,75,275c0,0,76,129,205,201c0,0,128,71,273,71c0,0,107,0,225,-46c0,0,69,-27,88,-27c0,0,24,0,41,18c0,0,18,17,23,55h29V683H991c0,0,-33,138,-122,211c0,0,-90,73,-203,73c0,0,-95,0,-174,-54c0,0,-79,-55,-116,-143c0,0,-47,-112,-47,-250c0,0,0,-135,34,-247c0,0,35,-111,108,-168c0,0,73,-57,189,-57c0,0,96,0,175,42c0,0,80,41,168,144V146c0,0,-85,-89,-178,-129c0,0,-92,-38,-215,-38Z" 
id="f1_p"
transform="scale(0.001,-0.001)" />

<path d="M597,33c0,0,77,0,129,38c0,0,65,47,102,152c0,0,36,105,36,273c0,0,0,201,-37,300c0,0,-37,100,-95,141c0,0,-58,41,-133,41c0,0,-139,0,-211,-142c0,0,-59,-116,-59,-334c0,0,0,-259,91,-382c0,0,63,-87,177,-87Zm3,-54c0,0,-273,0,-423,183C177,162,60,309,60,509c0,0,0,225,153,375c0,0,144,142,358,142c6,0,12,0,19,0c0,0,3,0,8,0c42,0,250,-7,385,-141c0,0,151,-150,151,-375c0,0,0,-193,-113,-339c0,0,-149,-192,-421,-192Z" 
id="f1_11"
transform="scale(0.001,-0.001)" />

<path d="M365,-20c0,0,-139,0,-223,105c0,0,-83,105,-83,253c0,0,0,142,76,250c0,0,92,131,253,131c0,0,108,0,172,-55c0,0,63,-54,63,-121c0,0,0,-43,-25,-68c0,0,-26,-25,-68,-25c0,0,-44,0,-73,29c0,0,-28,29,-35,104c0,0,-5,47,-22,65c0,0,-17,19,-40,19c0,0,-36,0,-61,-38c0,0,-39,-58,-39,-176c0,0,0,-99,31,-188c0,0,32,-90,86,-134c0,0,41,-32,97,-32c0,0,36,0,69,17c0,0,33,17,78,65l23,-18C644,163,595,70,521,25c0,0,-73,-45,-156,-45Z" 
id="f1_1c"
transform="scale(0.001,-0.001)" />

<path d="M434,31c0,0,38,0,65,22c0,0,28,22,46,86c0,0,18,64,18,231c0,0,0,161,-40,220c0,0,-29,44,-78,44c0,0,-64,0,-123,-73V251c0,0,0,-95,4,-121c0,0,8,-44,36,-71c0,0,28,-28,72,-28ZM115,-20V867c0,0,0,61,-5,75c0,0,-7,21,-23,31c0,0,-17,10,-55,12v27H322V628c0,0,88,91,192,91c0,0,72,0,135,-42c0,0,64,-43,99,-120c0,0,36,-78,36,-179c0,0,0,-114,-45,-208C739,170,693,77,617,28c0,0,-76,-48,-174,-48c0,0,-56,0,-100,18c0,0,-44,17,-87,57L141,-20Z" 
id="f1_1b"
transform="scale(0.001,-0.001)" />

<path d="M57,0V26c0,0,45,4,61,25c0,0,16,22,16,113V550c0,0,0,59,-6,76c0,0,-7,21,-22,30c0,0,-14,10,-49,14v27H342l1,-158c0,0,69,109,121,144c0,0,52,36,100,36c0,0,42,0,66,-26c0,0,25,-26,25,-73c0,0,0,-50,-24,-77c0,0,-25,-28,-59,-28c0,0,-39,0,-68,25c0,0,-28,26,-33,29c0,0,-8,4,-17,4c0,0,-22,0,-41,-16c0,0,-31,-26,-46,-73c0,0,-24,-72,-24,-159V122c0,0,0,-42,5,-54c0,0,9,-21,27,-30c0,0,17,-9,59,-12V0Z" 
id="f1_1r"
transform="scale(0.001,-0.001)" />

<path d="M75,-267v33c0,0,87,38,126,97c0,0,40,59,40,121c0,0,0,12,-6,18c0,0,-5,6,-10,6c0,0,-5,0,-14,-5C211,3,190,-9,158,-9c0,0,-44,0,-77,34c0,0,-32,34,-32,80c0,0,0,49,37,87c0,0,37,37,90,37c0,0,64,0,110,-50c0,0,45,-49,45,-136c0,0,0,-106,-64,-188c0,0,-65,-83,-192,-122Z" 
id="f1_7"
transform="scale(0.001,-0.001)" />

<path d="M37,0V16c0,0,275,327,333,439c0,0,59,113,59,220c0,0,0,79,-49,131c0,0,-49,52,-119,52c0,0,-115,0,-178,-115l-28,9c0,0,40,143,123,212c0,0,82,69,189,69c0,0,77,0,141,-36c0,0,63,-36,99,-98c0,0,36,-63,36,-117c0,0,0,-99,-56,-202c0,0,-75,-138,-329,-384H477c0,0,81,0,105,6c0,0,24,7,40,23c0,0,15,16,41,67h27L633,0Z" 
id="f1_d"
transform="scale(0.001,-0.001)" />

<path d="M383,34c0,0,38,0,56,24c0,0,32,42,36,129l3,320c0,0,0,266,-3,310c0,0,-7,103,-36,140c0,0,-18,24,-60,24c0,0,-32,0,-51,-18c0,0,-28,-26,-38,-92c0,0,-9,-66,-9,-460c0,0,0,-215,15,-288c0,0,11,-53,32,-71c0,0,21,-18,55,-18Zm-2,-54c0,0,-73,0,-132,37c0,0,-59,37,-105,106c0,0,-33,51,-57,135c0,0,-32,114,-32,236c0,0,0,165,46,303c0,0,38,114,116,175c0,0,77,61,164,61c0,0,88,0,165,-61c0,0,76,-60,112,-161c0,0,50,-139,50,-305c0,0,0,-151,-42,-283c0,0,-26,-80,-69,-132c0,0,-43,-51,-97,-81c0,0,-55,-30,-119,-30Z" 
id="f1_b"
transform="scale(0.001,-0.001)" />

<path d="M381,27c0,0,54,0,91,40c0,0,38,40,38,110c0,0,0,144,-194,276c0,0,-23,-21,-33,-38c0,0,-15,-26,-27,-76c0,0,-13,-50,-13,-105c0,0,0,-70,18,-117c0,0,18,-48,51,-69c0,0,34,-21,69,-21Zm83,582c0,0,27,37,40,83c0,0,14,47,14,102c0,0,0,97,-42,149c0,0,-31,40,-86,40c0,0,-50,0,-84,-37c0,0,-35,-36,-35,-90c0,0,0,-54,39,-113c0,0,39,-58,154,-134ZM368,-20c0,0,-150,0,-232,73c0,0,-82,74,-82,181c0,0,0,81,47,142c0,0,48,62,159,112c0,0,-121,92,-155,150c0,0,-34,58,-34,135c0,0,0,101,86,178c0,0,86,78,236,78c0,0,144,0,222,-69c0,0,78,-68,78,-163c0,0,0,-72,-43,-127c0,0,-42,-54,-130,-98c0,0,107,-79,149,-146c0,0,41,-68,41,-155c0,0,0,-122,-92,-207c0,0,-92,-84,-250,-84Z" 
id="f1_j"
transform="scale(0.001,-0.001)" />

<path d="M52,0V26c0,0,44,5,62,29c0,0,13,16,13,97V860c0,0,0,80,-14,99c0,0,-15,20,-61,26v27H336V608c0,0,58,61,106,86c0,0,47,25,99,25c0,0,65,0,112,-38c0,0,47,-37,62,-87c0,0,15,-51,15,-170V152c0,0,0,-81,15,-100c0,0,15,-20,61,-26V0H452V26c0,0,37,6,56,30c0,0,13,20,13,96V463c0,0,0,86,-7,108c0,0,-6,22,-22,35c0,0,-16,12,-36,12c0,0,-30,0,-59,-21c0,0,-28,-20,-61,-72V152c0,0,0,-75,12,-94c0,0,14,-26,58,-32V0Z" 
id="f1_1h"
transform="scale(0.001,-0.001)" />

<path d="M32,0V27H66c0,0,44,0,71,16c0,0,19,11,30,36c0,0,8,18,8,94V839c0,0,0,78,-8,97c0,0,-8,20,-33,34c0,0,-25,15,-68,15H32v27H561V985H528c0,0,-44,0,-71,-16c0,0,-19,-11,-30,-36c0,0,-9,-18,-9,-94V552H775V839c0,0,0,78,-8,97c0,0,-9,20,-34,34c0,0,-25,15,-68,15H632v27h529V985h-33c0,0,-45,0,-71,-16c0,0,-19,-11,-31,-36c0,0,-8,-18,-8,-94V173c0,0,0,-78,8,-97c0,0,9,-20,34,-34c0,0,26,-15,68,-15h33V0H632V27h33c0,0,45,0,71,16c0,0,19,11,31,36c0,0,8,18,8,94V487H418V173c0,0,0,-78,9,-97c0,0,9,-20,33,-34c0,0,25,-15,68,-15h33V0Z" 
id="f1_u"
transform="scale(0.001,-0.001)" />

<path d="M397,69c0,0,65,0,123,103V539c0,0,-55,105,-134,105c0,0,-28,0,-46,-15c0,0,-27,-23,-45,-81c0,0,-17,-58,-17,-178c0,0,0,-132,19,-195c0,0,19,-63,53,-91c0,0,17,-15,47,-15ZM332,-20c0,0,-133,0,-211,119c0,0,-62,97,-62,238c0,0,0,112,38,202c0,0,39,89,107,134c0,0,67,46,145,46c0,0,50,0,88,-20c0,0,39,-19,83,-67V842c0,0,0,80,-7,96c0,0,-8,22,-26,32c0,0,-18,11,-68,11v31H729V209c0,0,0,-81,5,-96c0,0,6,-25,22,-36c0,0,17,-12,58,-15V37L520,-20V90C520,90,467,26,426,3c0,0,-42,-23,-94,-23Z" 
id="f1_1d"
transform="scale(0.001,-0.001)" />

<path d="M459,56c0,0,40,0,66,42c0,0,39,63,39,239c0,0,0,180,-42,247c0,0,-29,44,-76,44c0,0,-76,0,-124,-109V147c0,0,64,-91,137,-91ZM29,-326v28c0,0,46,1,69,26c0,0,14,17,14,89V551c0,0,0,75,-17,95c0,0,-17,21,-66,24v27H322V605c0,0,36,54,74,78c0,0,55,36,119,36c0,0,77,0,140,-49c0,0,63,-48,95,-134c0,0,33,-85,33,-184c0,0,0,-106,-34,-193c0,0,-34,-88,-98,-134c0,0,-65,-45,-144,-45c0,0,-57,0,-107,25c0,0,-37,19,-78,66V-188c0,0,0,-53,8,-73c0,0,9,-19,27,-28c0,0,18,-9,70,-9v-28Z" 
id="f1_1p"
transform="scale(0.001,-0.001)" />

<path d="M367,-20L133,520c0,0,-43,98,-67,124c0,0,-17,19,-50,26v27H386V670c0,0,-35,0,-48,-13c0,0,-18,-16,-18,-39c0,0,0,-27,33,-103L468,253l91,226c0,0,40,97,40,137c0,0,0,23,-17,38c0,0,-17,14,-59,16v27H750V670c0,0,-33,-5,-54,-25c0,0,-20,-20,-62,-118L402,-20Z" 
id="f1_1v"
transform="scale(0.001,-0.001)" />

<path d="M191,-18c0,0,-51,0,-87,36c0,0,-37,36,-37,87c0,0,0,52,37,88c0,0,36,37,87,37c0,0,52,0,89,-37c0,0,36,-36,36,-88c0,0,0,-51,-37,-87c0,0,-36,-36,-88,-36Z" 
id="f1_9"
transform="scale(0.001,-0.001)" />

<path d="M19,-305v34c0,0,77,52,114,100c0,0,50,67,79,171c0,0,36,131,36,365c0,0,0,221,-33,343c0,0,-32,122,-88,198c0,0,-39,52,-108,91v37c0,0,179,-60,304,-246c0,0,125,-186,125,-428c0,0,0,-238,-125,-421c0,0,-125,-184,-304,-244Z" 
id="f1_6"
transform="scale(0.001,-0.001)" />

<path d="M25,0V27H61c0,0,64,0,91,39c0,0,16,24,16,109V837c0,0,0,67,-15,97c0,0,-10,22,-38,36c0,0,-28,15,-90,15v27H312L678,220l363,792h285V985h-35c0,0,-64,0,-91,-39c0,0,-17,-24,-17,-109V175c0,0,0,-93,21,-116c0,0,28,-32,87,-32h35V0H898V27h36c0,0,64,0,90,39c0,0,17,24,17,109V852L649,0H625L234,852V175c0,0,0,-93,20,-116c0,0,27,-32,87,-32h35V0Z" 
id="f0_16"
transform="scale(0.001,-0.001)" />

<path d="M55,0V26c0,0,50,0,67,10c0,0,17,10,27,32c0,0,10,23,10,86V418c0,0,0,111,-6,144c0,0,-6,24,-17,33c0,0,-11,10,-30,10c0,0,-21,0,-51,-11L45,620l206,83h33V154c0,0,0,-64,9,-85c0,0,9,-22,27,-32c0,0,19,-11,67,-11V0ZM222,909c0,0,-32,0,-54,23c0,0,-22,22,-22,53c0,0,0,32,22,54c0,0,22,22,54,22c0,0,31,0,53,-22c0,0,22,-22,22,-54c0,0,0,-31,-22,-53c0,0,-22,-23,-53,-23Z" 
id="f0_1s"
transform="scale(0.001,-0.001)" />

<path d="M21,0V26H35c0,0,53,0,71,27c0,0,18,27,18,101V408c0,0,0,123,-5,150c0,0,-6,27,-17,37c0,0,-12,10,-31,10c0,0,-21,0,-50,-11L10,620l206,83h32V558c0,0,120,145,229,145c0,0,56,0,96,-28c0,0,40,-28,64,-92c0,0,16,-45,16,-137V154c0,0,0,-65,11,-88c0,0,8,-19,26,-29c0,0,18,-11,68,-11V0H419V26h14c0,0,47,0,66,15c0,0,20,15,27,43c0,0,3,11,3,70V434c0,0,0,93,-24,135c0,0,-24,42,-81,42c0,0,-88,0,-176,-97V154c0,0,0,-69,9,-86c0,0,10,-21,28,-31c0,0,19,-11,75,-11V0Z" 
id="f0_1x"
transform="scale(0.001,-0.001)" />

<path d="M23,0V26c0,0,47,0,66,10c0,0,19,11,28,33c0,0,10,22,10,85V416c0,0,0,112,-7,145c0,0,-5,25,-16,34c0,0,-11,10,-31,10c0,0,-21,0,-50,-11L12,620l207,83h32V557c0,0,75,75,88,86c0,0,34,29,72,44c0,0,39,16,77,16c0,0,64,0,110,-37c0,0,47,-38,62,-109c0,0,77,90,130,118c0,0,53,28,109,28c0,0,54,0,96,-28c0,0,42,-28,67,-91c0,0,16,-43,16,-136V154c0,0,0,-64,10,-88c0,0,8,-16,28,-28c0,0,20,-12,65,-12V0H844V26h14c0,0,44,0,69,18c0,0,17,12,24,38c0,0,3,13,3,72V448c0,0,0,83,-20,117c0,0,-29,48,-93,48c0,0,-39,0,-79,-20c0,0,-40,-19,-97,-73l-1,-8l2,-32V154c0,0,0,-70,8,-87c0,0,7,-17,29,-29c0,0,21,-12,73,-12V0H431V26c0,0,57,0,78,14c0,0,21,13,29,40c0,0,4,13,4,74V448c0,0,0,83,-25,120c0,0,-33,48,-91,48c0,0,-40,0,-80,-22c0,0,-61,-33,-95,-74V154c0,0,0,-67,10,-87c0,0,9,-20,27,-30c0,0,18,-11,74,-11V0Z" 
id="f0_1w"
transform="scale(0.001,-0.001)" />

<path d="M292,-20c0,0,-57,0,-100,33c0,0,-42,33,-58,85c0,0,-17,52,-17,148V551c0,0,0,49,-10,68c0,0,-11,18,-31,29c0,0,-19,9,-68,9c-2,0,-4,0,-6,0v26H242V226c0,0,0,-95,33,-125c0,0,33,-30,80,-30c0,0,32,0,73,21c0,0,40,20,96,76V555c0,0,0,59,-21,80c0,0,-22,21,-89,22v26H647V269c0,0,0,-119,6,-145c0,0,6,-27,18,-37c0,0,12,-11,29,-11c0,0,23,0,52,13L763,63L558,-20H524V124C524,124,436,29,390,4c0,0,-47,-24,-98,-24Z" 
id="f0_24"
transform="scale(0.001,-0.001)" />

<path d="M379,29c0,0,41,0,84,37c0,0,43,36,65,121c0,0,34,128,34,362c0,0,0,173,-35,288c0,0,-27,86,-69,122c0,0,-31,25,-74,25c0,0,-51,0,-90,-46c0,0,-54,-62,-73,-195c0,0,-20,-132,-20,-261c0,0,0,-209,52,-341c0,0,42,-112,126,-112Zm-2,-46c0,0,-145,0,-241,170c0,0,-81,144,-81,347c0,0,0,173,52,298c0,0,52,125,139,186c0,0,67,49,139,49c0,0,116,0,208,-119c0,0,116,-147,116,-398c0,0,0,-176,-51,-299C658,217,608,94,529,38c0,0,-79,-55,-152,-55Z" 
id="f0_f"
transform="scale(0.001,-0.001)" />

<path d="M82,-253v33c0,0,77,25,119,78c0,0,42,54,42,114c0,0,0,14,-7,23c0,0,-5,6,-11,6c0,0,-8,0,-35,-14c0,0,-14,-7,-28,-7c0,0,-37,0,-58,21C104,1,82,23,82,61c0,0,0,36,28,62c0,0,28,27,68,27c0,0,49,0,88,-43c0,0,38,-43,38,-113c0,0,0,-77,-53,-143c0,0,-53,-66,-169,-104Z" 
id="f0_b"
transform="scale(0.001,-0.001)" />

<path d="M197,0V27c0,0,71,2,92,13c0,0,21,10,29,29c0,0,9,18,9,109V725c0,0,0,110,-8,141c0,0,-5,24,-19,35c0,0,-14,11,-33,11c0,0,-28,0,-77,-23l-11,23l246,121h25V178c0,0,0,-85,7,-106c0,0,7,-21,29,-32c0,0,23,-11,91,-13V0Z" 
id="f0_g"
transform="scale(0.001,-0.001)" />

<path d="M551,-22c0,0,-165,0,-251,56c0,0,-86,57,-122,154c0,0,-24,67,-24,250V833c0,0,0,93,-25,123c0,0,-26,29,-83,29H8v27H444V985H405c0,0,-62,0,-89,-40c0,0,-19,-27,-19,-112V392c0,0,0,-59,11,-135c0,0,11,-76,39,-118c0,0,29,-43,82,-70c0,0,53,-28,131,-28c0,0,99,0,178,43c0,0,78,44,107,111c0,0,29,68,29,229V833c0,0,0,95,-21,119c0,0,-29,33,-86,33H729v27h357V985h-38c0,0,-59,0,-91,-50c0,0,-16,-23,-16,-108V417c0,0,0,-152,-30,-236C911,181,881,97,792,37c0,0,-88,-59,-241,-59Z" 
id="f0_1e"
transform="scale(0.001,-0.001)" />

<path d="M107,-21V325h27c0,0,19,-109,52,-163c0,0,33,-54,100,-90c0,0,68,-36,148,-36c0,0,93,0,148,49c0,0,54,50,54,117c0,0,0,37,-21,75c0,0,-20,38,-64,71c0,0,-29,22,-159,95c0,0,-130,72,-185,115c0,0,-55,44,-83,96c0,0,-28,52,-28,114c0,0,0,109,83,188c0,0,84,78,213,78c0,0,81,0,171,-39c0,0,42,-19,59,-19c0,0,20,0,32,11c0,0,12,12,20,47h27V684H674c0,0,-14,101,-48,161c0,0,-35,60,-100,95c0,0,-64,35,-133,35c0,0,-77,0,-128,-47c0,0,-51,-48,-51,-108c0,0,0,-46,32,-84c0,0,47,-56,221,-149c0,0,142,-76,194,-117c0,0,51,-41,80,-96c0,0,28,-55,28,-115c0,0,0,-115,-90,-198c0,0,-89,-82,-229,-82c0,0,-44,0,-83,6c0,0,-23,4,-95,27c0,0,-73,24,-93,24c0,0,-18,0,-29,-11c0,0,-11,-12,-16,-46Z" 
id="f0_1c"
transform="scale(0.001,-0.001)" />

<path d="M473,53c0,0,173,0,287,121c0,0,114,122,114,330c0,0,0,210,-114,330c0,0,-114,121,-293,121c0,0,-67,0,-153,-21V74c0,0,95,-21,159,-21ZM26,0V27H64c0,0,64,0,91,41c0,0,16,25,16,111V833c0,0,0,95,-21,119c0,0,-29,33,-86,33H26v27H438c0,0,226,0,345,-51c0,0,118,-52,190,-172c0,0,72,-120,72,-278c0,0,0,-211,-129,-353C916,158,773,0,478,0Z" 
id="f0_x"
transform="scale(0.001,-0.001)" />

<path d="M27,354v62H831V354Zm0,243v62H831V597Z" 
id="f0_r"
transform="scale(0.001,-0.001)" />

<path d="M33,0V27c0,0,264,241,371,393c0,0,108,152,108,278c0,0,0,96,-59,158c0,0,-59,62,-141,62c0,0,-75,0,-134,-43c0,0,-59,-44,-88,-128H63c0,0,18,138,95,212c0,0,77,74,193,74c0,0,123,0,205,-80c0,0,83,-79,83,-186c0,0,0,-77,-36,-154c0,0,-55,-121,-179,-256C424,357,238,154,191,112H455c0,0,81,0,114,6c0,0,32,6,58,25c0,0,27,18,46,52h27L630,0Z" 
id="f0_h"
transform="scale(0.001,-0.001)" />

<path d="M26,0V27H62c0,0,63,0,91,37c0,0,18,24,18,115V833c0,0,0,77,-10,102c0,0,-7,18,-30,32c0,0,-33,18,-69,18H26v27H459V985H422c0,0,-35,0,-67,-17c0,0,-23,-12,-32,-36c0,0,-9,-25,-9,-99V542H784V833c0,0,0,77,-10,102c0,0,-8,18,-31,32c0,0,-33,18,-68,18H639v27h432V985h-36c0,0,-36,0,-68,-17c0,0,-24,-12,-32,-36c0,0,-9,-25,-9,-99V179c0,0,0,-77,10,-102c0,0,7,-18,31,-32c0,0,32,-18,68,-18h36V0H639V27h36c0,0,62,0,90,37c0,0,19,24,19,115V487H314V179c0,0,0,-77,9,-102c0,0,8,-18,32,-32c0,0,32,-18,67,-18h37V0Z" 
id="f0_11"
transform="scale(0.001,-0.001)" />

<path d="M286,72c0,0,57,0,149,75V407c0,0,-113,-45,-145,-64c0,0,-59,-32,-85,-68c0,0,-25,-36,-25,-78c0,0,0,-54,32,-89c0,0,32,-36,74,-36ZM217,-13c0,0,-71,0,-116,48c0,0,-46,48,-46,127c0,0,0,50,22,87c0,0,31,50,106,95c0,0,76,45,252,109v26c0,0,0,102,-32,140c0,0,-32,38,-94,38c0,0,-47,0,-74,-25c0,0,-28,-25,-28,-58l1,-43c0,0,0,-34,-17,-53c0,0,-18,-18,-47,-18c0,0,-28,0,-45,19c0,0,-18,19,-18,53c0,0,0,64,66,117c0,0,65,54,184,54c0,0,91,0,149,-31c0,0,44,-23,65,-72c0,0,13,-32,13,-131V238c0,0,0,-98,4,-120c0,0,4,-22,12,-29c0,0,9,-8,20,-8c0,0,12,0,21,5c0,0,16,10,61,55V99C676,99,592,-12,516,-12c0,0,-37,0,-58,24c0,0,-22,26,-23,86C435,98,330,17,303,5c0,0,-40,-18,-86,-18Z" 
id="f0_1k"
transform="scale(0.001,-0.001)" />

<path d="M399,62c0,0,68,0,131,68V481c0,0,-5,51,-27,93c0,0,-22,42,-59,63c0,0,-37,21,-72,21c0,0,-65,0,-117,-59c0,0,-67,-77,-67,-226c0,0,0,-151,65,-231c0,0,66,-80,146,-80ZM330,-20c0,0,-112,0,-196,93c0,0,-83,94,-83,240c0,0,0,147,92,269c0,0,93,122,238,122c0,0,90,0,149,-58V773c0,0,0,117,-6,144c0,0,-5,27,-17,37c0,0,-12,9,-30,9c0,0,-20,0,-52,-12l-9,27l204,83h33V270c0,0,0,-120,6,-146c0,0,5,-27,18,-37c0,0,12,-11,28,-11c0,0,21,0,54,13l9,-26L564,-20H530V78C530,78,480,25,432,2c0,0,-47,-22,-102,-22Z" 
id="f0_1n"
transform="scale(0.001,-0.001)" />

<path d="M312,-20c0,0,-62,0,-143,22c0,0,-25,8,-40,8c0,0,-18,0,-27,-19H77V234h25c0,0,21,-105,80,-158c0,0,59,-53,132,-53c0,0,51,0,84,31c0,0,32,30,32,72c0,0,0,52,-36,87c0,0,-36,35,-144,88c0,0,-109,54,-142,97c0,0,-34,43,-34,107c0,0,0,85,58,141c0,0,58,57,150,57c0,0,40,0,97,-17c0,0,38,-11,51,-11c0,0,12,0,19,5c0,0,7,5,15,23h25V470H464c0,0,-28,110,-72,149c0,0,-45,40,-113,40c0,0,-53,0,-85,-28c0,0,-32,-27,-32,-61c0,0,0,-41,24,-71c0,0,23,-31,94,-65L389,381c0,0,152,-74,152,-194c0,0,0,-94,-71,-151c0,0,-70,-56,-158,-56Z" 
id="f0_22"
transform="scale(0.001,-0.001)" />

<path d="M342,-20c0,0,-116,0,-203,97c0,0,-86,98,-86,264c0,0,0,161,96,261c0,0,95,101,230,101c0,0,100,0,165,-53c0,0,65,-54,65,-111c0,0,0,-29,-18,-46c0,0,-18,-18,-51,-18c0,0,-44,0,-66,29c0,0,-13,15,-17,59c0,0,-4,45,-30,68c0,0,-26,22,-73,22c0,0,-74,0,-120,-55c0,0,-60,-73,-60,-193c0,0,0,-122,60,-216c0,0,60,-93,162,-93c0,0,73,0,131,49c0,0,41,35,80,126l22,-10C629,261,601,125,521,52c0,0,-81,-72,-179,-72Z" 
id="f0_1m"
transform="scale(0.001,-0.001)" />

<path d="M406,32c0,0,72,0,119,60c0,0,47,59,47,205c0,0,0,181,-78,286c0,0,-53,71,-135,71c0,0,-40,0,-79,-23c0,0,-40,-24,-65,-83c0,0,-24,-58,-24,-151c0,0,0,-149,59,-257c0,0,59,-108,156,-108ZM374,-20c0,0,-154,0,-245,122c0,0,-77,104,-77,233c0,0,0,94,46,187c0,0,47,92,123,137c0,0,76,44,161,44c0,0,155,0,249,-118c0,0,80,-100,80,-231c0,0,0,-91,-44,-185C667,169,623,75,546,27c0,0,-77,-47,-172,-47Z" 
id="f0_1y"
transform="scale(0.001,-0.001)" />

<path d="M474,-326c0,0,-112,57,-188,133c0,0,-107,108,-165,254c0,0,-58,147,-58,305c0,0,0,231,114,421c0,0,114,191,297,273v-31c0,0,-92,-51,-151,-139c0,0,-59,-88,-88,-223c0,0,-30,-135,-30,-281c0,0,0,-160,25,-290c0,0,20,-102,47,-164c0,0,28,-62,75,-120c0,0,47,-57,122,-109v-29Z" 
id="f0_8"
transform="scale(0.001,-0.001)" />

<path d="M1005,0c0,0,34,0,61,41c0,0,36,55,36,187c0,0,0,141,-36,196c0,0,-25,39,-61,39c0,0,-36,0,-62,-41c0,0,-34,-52,-34,-197c0,0,0,-134,35,-187c0,0,25,-38,61,-38Zm2,-41c0,0,-55,0,-106,34c0,0,-51,32,-80,94c0,0,-30,63,-30,142c0,0,0,79,29,144c0,0,30,64,81,97c0,0,51,32,104,32c0,0,53,0,105,-34c0,0,53,-33,82,-98c0,0,28,-64,28,-141c0,0,0,-132,-63,-201c0,0,-64,-69,-150,-69ZM267,524c0,0,36,0,61,39c0,0,38,57,38,192c0,0,0,142,-37,199c0,0,-24,38,-60,38c0,0,-38,0,-67,-44c0,0,-30,-45,-30,-189c0,0,0,-103,17,-158c0,0,12,-41,39,-63c0,0,16,-14,39,-14Zm3,-37c0,0,-59,0,-108,32c0,0,-49,33,-79,97c0,0,-29,64,-29,143c0,0,0,78,30,144c0,0,30,66,81,99c0,0,52,32,107,32c0,0,101,0,156,-83c0,0,56,-84,56,-192c0,0,0,-130,-63,-201c0,0,-62,-71,-151,-71ZM235,-41L972,1034h67L301,-41Z" 
id="f0_5"
transform="scale(0.001,-0.001)" />

<path d="M397,34c0,0,67,0,126,75c0,0,58,74,58,216c0,0,0,131,-58,201c0,0,-59,70,-133,70c0,0,-39,0,-79,-20c0,0,-29,-14,-75,-59V109c0,0,37,-37,78,-56c0,0,40,-19,83,-19ZM358,-20c0,0,-59,0,-121,21c0,0,-61,22,-126,65V773c0,0,0,117,-5,144c0,0,-6,27,-18,37c0,0,-12,9,-29,9c0,0,-21,0,-53,-12l-9,27l205,83h34V564c0,0,98,139,213,139c0,0,105,0,183,-90c0,0,78,-90,78,-245c0,0,0,-182,-121,-293c0,0,-103,-95,-231,-95Z" 
id="f0_1l"
transform="scale(0.001,-0.001)" />

<path d="M58,0V26c0,0,47,0,64,10c0,0,18,10,28,32c0,0,9,23,9,86V775c0,0,0,116,-5,142c0,0,-5,27,-17,37c0,0,-11,9,-29,9c0,0,-20,0,-49,-12L46,978l204,83h34V154c0,0,0,-64,9,-85c0,0,9,-21,29,-32c0,0,19,-11,72,-11V0Z" 
id="f0_1v"
transform="scale(0.001,-0.001)" />

<path d="M479,469c0,0,-4,66,-16,93c0,0,-18,42,-55,65c0,0,-37,24,-78,24c0,0,-62,0,-111,-48c0,0,-48,-48,-57,-134ZM355,-20c0,0,-123,0,-211,95c0,0,-87,96,-87,258c0,0,0,175,90,273c0,0,89,98,225,98c0,0,115,0,189,-76c0,0,74,-75,74,-202H162c0,0,0,-152,74,-239c0,0,75,-86,175,-86c0,0,67,0,117,36c0,0,50,37,83,127l24,-15c0,0,-16,-102,-91,-186c0,0,-76,-83,-189,-83Z" 
id="f0_1o"
transform="scale(0.001,-0.001)" />

<path d="M35,-326v29c0,0,92,51,151,139c0,0,60,87,89,221c0,0,28,136,28,282c0,0,0,159,-24,290c0,0,-19,103,-47,165c0,0,-28,62,-75,119c0,0,-46,57,-122,110v31c0,0,113,-56,188,-132c0,0,107,-109,165,-255c0,0,58,-147,58,-306c0,0,0,-231,-114,-420c0,0,-113,-191,-297,-273Z" 
id="f0_9"
transform="scale(0.001,-0.001)" />

<path d="M191,-20c0,0,-34,0,-58,24c0,0,-24,24,-24,58c0,0,0,35,24,59c0,0,24,24,58,24c0,0,35,0,59,-24c0,0,24,-25,24,-59c0,0,0,-34,-24,-58c0,0,-25,-24,-59,-24Z" 
id="f0_d"
transform="scale(0.001,-0.001)" />


</defs>
</svg>