<?xml version="1.0" encoding="UTF-8" standalone="no"?>
<!DOCTYPE svg PUBLIC "-//W3C//DTD SVG 1.1//EN"
"http://www.w3.org/Graphics/SVG/1.1/DTD/svg11.dtd">
<svg viewBox="0 0 909 1286" version="1.1" xmlns="http://www.w3.org/2000/svg" xmlns:xlink="http://www.w3.org/1999/xlink">
<defs>
<clipPath id="c0_27"><path d="M760.8,1223.8v-18.9h18.4v18.9Z" /></clipPath>
<clipPath id="c1_27"><path d="M27.5,1223.8V27.5h854V1223.8Z" /></clipPath>
<style type="text/css"><![CDATA[
.g0_27{
}
]]></style>
</defs>
<g clip-path="url(#c0_27)">
<g fill="#000000" >
<use xlink:href="#f0_h" transform="matrix(12,0,0,12,760.8,1221.7)" />
<use xlink:href="#f0_m" transform="matrix(12,0,0,12,770,1221.7)" />
</g>
</g>
<g clip-path="url(#c1_27)">
<g fill="#000000" >
<use xlink:href="#f0_26" transform="matrix(13.9,0,0,13.9,183.9,128)" />
<use xlink:href="#f0_1o" transform="matrix(13.9,0,0,13.9,199.3,128)" />
<use xlink:href="#f0_26" transform="matrix(13.9,0,0,13.9,214.2,128)" />
<use xlink:href="#f0_1s" transform="matrix(13.9,0,0,13.9,229.6,128)" />
<use xlink:href="#f0_1v" transform="matrix(13.9,0,0,13.9,235.6,128)" />
<use xlink:href="#f0_1v" transform="matrix(13.9,0,0,13.9,241.5,128)" />
<use xlink:href="#f0_1m" transform="matrix(13.9,0,0,13.9,252.8,128)" />
<use xlink:href="#f0_1y" transform="matrix(13.9,0,0,13.9,262.3,128)" />
<use xlink:href="#f0_1x" transform="matrix(13.9,0,0,13.9,273,128)" />
<use xlink:href="#f0_23" transform="matrix(13.9,0,0,13.9,283.7,128)" />
<use xlink:href="#f0_1s" transform="matrix(13.9,0,0,13.9,289.6,128)" />
<use xlink:href="#f0_1x" transform="matrix(13.9,0,0,13.9,295.6,128)" />
<use xlink:href="#f0_24" transform="matrix(13.9,0,0,13.9,306.3,128)" />
<use xlink:href="#f0_1o" transform="matrix(13.9,0,0,13.9,317,128)" />
<use xlink:href="#f0_23" transform="matrix(13.9,0,0,13.9,331.8,128)" />
<use xlink:href="#f0_1y" transform="matrix(13.9,0,0,13.9,337.7,128)" />
<use xlink:href="#f0_22" transform="matrix(13.9,0,0,13.9,353.8,128)" />
<use xlink:href="#f0_1m" transform="matrix(13.9,0,0,13.9,362.1,128)" />
<use xlink:href="#f0_1k" transform="matrix(13.9,0,0,13.9,371.6,128)" />
<use xlink:href="#f0_1v" transform="matrix(13.9,0,0,13.9,381.1,128)" />
<use xlink:href="#f0_1o" transform="matrix(13.9,0,0,13.9,387,128)" />
<use xlink:href="#f0_1y" transform="matrix(13.9,0,0,13.9,401.9,128)" />
<use xlink:href="#f0_24" transform="matrix(13.9,0,0,13.9,412.6,128)" />
<use xlink:href="#f0_21" transform="matrix(13.9,0,0,13.9,423.3,128)" />
<use xlink:href="#f0_1q" transform="matrix(13.9,0,0,13.9,435.7,128)" />
<use xlink:href="#f0_21" transform="matrix(13.9,0,0,13.9,446.4,128)" />
<use xlink:href="#f0_1y" transform="matrix(13.9,0,0,13.9,453.6,128)" />
<use xlink:href="#f0_26" transform="matrix(13.9,0,0,13.9,464.3,128)" />
<use xlink:href="#f0_23" transform="matrix(13.9,0,0,13.9,479.7,128)" />
<use xlink:href="#f0_1r" transform="matrix(13.9,0,0,13.9,485.7,128)" />
<use xlink:href="#f0_23" transform="matrix(13.9,0,0,13.9,501.7,128)" />
<use xlink:href="#f0_1o" transform="matrix(13.9,0,0,13.9,507.7,128)" />
<use xlink:href="#f0_1k" transform="matrix(13.9,0,0,13.9,517.1,128)" />
<use xlink:href="#f0_1w" transform="matrix(13.9,0,0,13.9,526.6,128)" />
<use xlink:href="#f0_1l" transform="matrix(13.9,0,0,13.9,548.6,128)" />
<use xlink:href="#f0_28" transform="matrix(13.9,0,0,13.9,559.3,128)" />
<use xlink:href="#f0_1k" transform="matrix(13.9,0,0,13.9,575.3,128)" />
<use xlink:href="#f0_1n" transform="matrix(13.9,0,0,13.9,584.8,128)" />
<use xlink:href="#f0_1n" transform="matrix(13.9,0,0,13.9,595.5,128)" />
<use xlink:href="#f0_1s" transform="matrix(13.9,0,0,13.9,606.2,128)" />
<use xlink:href="#f0_1x" transform="matrix(13.9,0,0,13.9,612.2,128)" />
<use xlink:href="#f0_1q" transform="matrix(13.9,0,0,13.9,622.9,128)" />
<use xlink:href="#f0_h" transform="matrix(13.9,0,0,13.9,638.9,128)" />
<use xlink:href="#f0_g" transform="matrix(13.9,0,0,13.9,649.6,128)" />
<use xlink:href="#f0_1x" transform="matrix(13.9,0,0,13.9,665.6,128)" />
<use xlink:href="#f0_1o" transform="matrix(13.9,0,0,13.9,676.3,128)" />
<use xlink:href="#f0_26" transform="matrix(13.9,0,0,13.9,685.8,128)" />
<use xlink:href="#f0_1r" transform="matrix(13.9,0,0,13.9,706.6,128)" />
<use xlink:href="#f0_1s" transform="matrix(13.9,0,0,13.9,717.3,128)" />
<use xlink:href="#f0_21" transform="matrix(13.9,0,0,13.9,723.2,128)" />
<use xlink:href="#f0_1o" transform="matrix(13.9,0,0,13.9,730.3,128)" />
<use xlink:href="#f0_22" transform="matrix(13.9,0,0,13.9,739.8,128)" />
<use xlink:href="#f0_1s" transform="matrix(13.9,0,0,13.9,753.4,128)" />
<use xlink:href="#f0_1x" transform="matrix(13.9,0,0,13.9,759.4,128)" />
<use xlink:href="#f0_h" transform="matrix(13.9,0,0,13.9,183.9,152.5)" />
<use xlink:href="#f0_f" transform="matrix(13.9,0,0,13.9,194.6,152.5)" />
<use xlink:href="#f0_g" transform="matrix(13.9,0,0,13.9,205.3,152.5)" />
<use xlink:href="#f0_o" transform="matrix(13.9,0,0,13.9,216,152.5)" />
<use xlink:href="#f0_d" transform="matrix(13.9,0,0,13.9,226.7,152.5)" />
<use xlink:href="#f1_r" transform="matrix(13.9,0,0,13.9,183.9,201.7)" />
<use xlink:href="#f1_1x" transform="matrix(13.9,0,0,13.9,198.1,201.7)" />
<use xlink:href="#f1_1e" transform="matrix(13.9,0,0,13.9,208.8,201.7)" />
<use xlink:href="#f1_1c" transform="matrix(13.9,0,0,13.9,218.3,201.7)" />
<use xlink:href="#f1_1u" transform="matrix(13.9,0,0,13.9,227.8,201.7)" />
<use xlink:href="#f1_1t" transform="matrix(13.9,0,0,13.9,239.7,201.7)" />
<use xlink:href="#f1_1i" transform="matrix(13.9,0,0,13.9,246.8,201.7)" />
<use xlink:href="#f1_1v" transform="matrix(13.9,0,0,13.9,252.8,201.7)" />
<use xlink:href="#f1_1e" transform="matrix(13.9,0,0,13.9,263.5,201.7)" />
<use xlink:href="#f1_15" transform="matrix(13.9,0,0,13.9,278.3,201.7)" />
<use xlink:href="#f1_1e" transform="matrix(13.9,0,0,13.9,292.6,201.7)" />
<use xlink:href="#f1_1a" transform="matrix(13.9,0,0,13.9,302.1,201.7)" />
<use xlink:href="#f1_1m" transform="matrix(13.9,0,0,13.9,312.8,201.7)" />
<use xlink:href="#f0_g" transform="matrix(13.9,0,0,13.9,238,251.2)" />
<use xlink:href="#f0_d" transform="matrix(13.9,0,0,13.9,248.7,251.2)" />
<use xlink:href="#f0_1f" transform="matrix(13.9,0,0,13.9,265.5,251.2)" />
<use xlink:href="#f0_19" transform="matrix(13.9,0,0,13.9,280.9,251.2)" />
<use xlink:href="#f0_1y" transform="matrix(13.9,0,0,13.9,298.2,251.2)" />
<use xlink:href="#f0_1p" transform="matrix(13.9,0,0,13.9,308.9,251.2)" />
<use xlink:href="#f0_y" transform="matrix(13.9,0,0,13.9,321.3,251.2)" />
<use xlink:href="#f0_1x" transform="matrix(13.9,0,0,13.9,334.4,251.2)" />
<use xlink:href="#f0_1q" transform="matrix(13.9,0,0,13.9,345.1,251.2)" />
<use xlink:href="#f0_1s" transform="matrix(13.9,0,0,13.9,355.8,251.2)" />
<use xlink:href="#f0_1x" transform="matrix(13.9,0,0,13.9,361.7,251.2)" />
<use xlink:href="#f0_1o" transform="matrix(13.9,0,0,13.9,372.4,251.2)" />
<use xlink:href="#f0_1o" transform="matrix(13.9,0,0,13.9,381.9,251.2)" />
<use xlink:href="#f0_21" transform="matrix(13.9,0,0,13.9,391.4,251.2)" />
<use xlink:href="#f0_1s" transform="matrix(13.9,0,0,13.9,398.6,251.2)" />
<use xlink:href="#f0_1x" transform="matrix(13.9,0,0,13.9,404.5,251.2)" />
<use xlink:href="#f0_1q" transform="matrix(13.9,0,0,13.9,415.2,251.2)" />
<use xlink:href="#f0_h" transform="matrix(13.9,0,0,13.9,238,275.7)" />
<use xlink:href="#f0_d" transform="matrix(13.9,0,0,13.9,248.7,275.7)" />
<use xlink:href="#f0_1f" transform="matrix(13.9,0,0,13.9,265.5,275.7)" />
<use xlink:href="#f0_19" transform="matrix(13.9,0,0,13.9,280.9,275.7)" />
<use xlink:href="#f0_1y" transform="matrix(13.9,0,0,13.9,298.2,275.7)" />
<use xlink:href="#f0_1p" transform="matrix(13.9,0,0,13.9,308.9,275.7)" />
<use xlink:href="#f0_10" transform="matrix(13.9,0,0,13.9,321.3,275.7)" />
<use xlink:href="#f0_21" transform="matrix(13.9,0,0,13.9,336.8,275.7)" />
<use xlink:href="#f0_1y" transform="matrix(13.9,0,0,13.9,343.9,275.7)" />
<use xlink:href="#f0_26" transform="matrix(13.9,0,0,13.9,354.6,275.7)" />
<use xlink:href="#f0_23" transform="matrix(13.9,0,0,13.9,370.1,275.7)" />
<use xlink:href="#f0_1r" transform="matrix(13.9,0,0,13.9,376,275.7)" />
<use xlink:href="#f0_i" transform="matrix(13.9,0,0,13.9,238,300.3)" />
<use xlink:href="#f0_d" transform="matrix(13.9,0,0,13.9,248.7,300.3)" />
<use xlink:href="#f0_19" transform="matrix(13.9,0,0,13.9,265.5,300.3)" />
<use xlink:href="#f0_1v" transform="matrix(13.9,0,0,13.9,277.4,300.3)" />
<use xlink:href="#f0_1k" transform="matrix(13.9,0,0,13.9,283.3,300.3)" />
<use xlink:href="#f0_23" transform="matrix(13.9,0,0,13.9,292.8,300.3)" />
<use xlink:href="#f0_1p" transform="matrix(13.9,0,0,13.9,298.7,300.3)" />
<use xlink:href="#f0_1y" transform="matrix(13.9,0,0,13.9,305.9,300.3)" />
<use xlink:href="#f0_21" transform="matrix(13.9,0,0,13.9,316.6,300.3)" />
<use xlink:href="#f0_1w" transform="matrix(13.9,0,0,13.9,323.7,300.3)" />
<use xlink:href="#f0_x" transform="matrix(13.9,0,0,13.9,345.7,300.3)" />
<use xlink:href="#f0_1s" transform="matrix(13.9,0,0,13.9,361.1,300.3)" />
<use xlink:href="#f0_21" transform="matrix(13.9,0,0,13.9,367.1,300.3)" />
<use xlink:href="#f0_1o" transform="matrix(13.9,0,0,13.9,374.2,300.3)" />
<use xlink:href="#f0_1m" transform="matrix(13.9,0,0,13.9,383.7,300.3)" />
<use xlink:href="#f0_23" transform="matrix(13.9,0,0,13.9,393.2,300.3)" />
<use xlink:href="#f0_1y" transform="matrix(13.9,0,0,13.9,399.1,300.3)" />
<use xlink:href="#f0_21" transform="matrix(13.9,0,0,13.9,409.8,300.3)" />
<use xlink:href="#f1_r" transform="matrix(13.9,0,0,13.9,183.9,349.4)" />
<use xlink:href="#f1_1n" transform="matrix(13.9,0,0,13.9,198.1,349.4)" />
<use xlink:href="#f1_1g" transform="matrix(13.9,0,0,13.9,210,349.4)" />
<use xlink:href="#f1_1i" transform="matrix(13.9,0,0,13.9,220.7,349.4)" />
<use xlink:href="#f1_1n" transform="matrix(13.9,0,0,13.9,226.7,349.4)" />
<use xlink:href="#f1_1e" transform="matrix(13.9,0,0,13.9,238.6,349.4)" />
<use xlink:href="#f1_1e" transform="matrix(13.9,0,0,13.9,248.1,349.4)" />
<use xlink:href="#f1_1r" transform="matrix(13.9,0,0,13.9,257.6,349.4)" />
<use xlink:href="#f1_1i" transform="matrix(13.9,0,0,13.9,267.1,349.4)" />
<use xlink:href="#f1_1n" transform="matrix(13.9,0,0,13.9,273,349.4)" />
<use xlink:href="#f1_1g" transform="matrix(13.9,0,0,13.9,284.9,349.4)" />
<use xlink:href="#f1_4" transform="matrix(13.9,0,0,13.9,300.9,349.4)" />
<use xlink:href="#f1_12" transform="matrix(13.9,0,0,13.9,324.1,349.4)" />
<use xlink:href="#f1_1r" transform="matrix(13.9,0,0,13.9,337.2,349.4)" />
<use xlink:href="#f1_1o" transform="matrix(13.9,0,0,13.9,346.7,349.4)" />
<use xlink:href="#f1_1d" transform="matrix(13.9,0,0,13.9,357.4,349.4)" />
<use xlink:href="#f1_1u" transform="matrix(13.9,0,0,13.9,369.3,349.4)" />
<use xlink:href="#f1_1c" transform="matrix(13.9,0,0,13.9,381.2,349.4)" />
<use xlink:href="#f1_1t" transform="matrix(13.9,0,0,13.9,390.7,349.4)" />
<use xlink:href="#f1_15" transform="matrix(13.9,0,0,13.9,403.1,349.4)" />
<use xlink:href="#f1_1e" transform="matrix(13.9,0,0,13.9,417.4,349.4)" />
<use xlink:href="#f1_1a" transform="matrix(13.9,0,0,13.9,426.9,349.4)" />
<use xlink:href="#f1_1m" transform="matrix(13.9,0,0,13.9,437.6,349.4)" />
<use xlink:href="#f0_g" transform="matrix(13.9,0,0,13.9,238,398.6)" />
<use xlink:href="#f0_d" transform="matrix(13.9,0,0,13.9,248.7,398.6)" />
<use xlink:href="#f0_16" transform="matrix(13.9,0,0,13.9,265.5,398.6)" />
<use xlink:href="#f0_1k" transform="matrix(13.9,0,0,13.9,284.5,398.6)" />
<use xlink:href="#f0_1m" transform="matrix(13.9,0,0,13.9,294,398.6)" />
<use xlink:href="#f0_1r" transform="matrix(13.9,0,0,13.9,303.5,398.6)" />
<use xlink:href="#f0_1s" transform="matrix(13.9,0,0,13.9,314.2,398.6)" />
<use xlink:href="#f0_1x" transform="matrix(13.9,0,0,13.9,320.1,398.6)" />
<use xlink:href="#f0_1o" transform="matrix(13.9,0,0,13.9,330.8,398.6)" />
<use xlink:href="#f0_15" transform="matrix(13.9,0,0,13.9,345.7,398.6)" />
<use xlink:href="#f0_1o" transform="matrix(13.9,0,0,13.9,358.7,398.6)" />
<use xlink:href="#f0_1k" transform="matrix(13.9,0,0,13.9,368.2,398.6)" />
<use xlink:href="#f0_21" transform="matrix(13.9,0,0,13.9,377.7,398.6)" />
<use xlink:href="#f0_1x" transform="matrix(13.9,0,0,13.9,384.8,398.6)" />
<use xlink:href="#f0_1s" transform="matrix(13.9,0,0,13.9,395.5,398.6)" />
<use xlink:href="#f0_1x" transform="matrix(13.9,0,0,13.9,401.5,398.6)" />
<use xlink:href="#f0_1q" transform="matrix(13.9,0,0,13.9,412.2,398.6)" />
<use xlink:href="#f0_y" transform="matrix(13.9,0,0,13.9,428.2,398.6)" />
<use xlink:href="#f0_1x" transform="matrix(13.9,0,0,13.9,441.3,398.6)" />
<use xlink:href="#f0_1q" transform="matrix(13.9,0,0,13.9,452,398.6)" />
<use xlink:href="#f0_1s" transform="matrix(13.9,0,0,13.9,462.7,398.6)" />
<use xlink:href="#f0_1x" transform="matrix(13.9,0,0,13.9,468.6,398.6)" />
<use xlink:href="#f0_1o" transform="matrix(13.9,0,0,13.9,479.3,398.6)" />
<use xlink:href="#f0_1o" transform="matrix(13.9,0,0,13.9,488.8,398.6)" />
<use xlink:href="#f0_21" transform="matrix(13.9,0,0,13.9,498.3,398.6)" />
<use xlink:href="#f0_8" transform="matrix(13.9,0,0,13.9,510.7,398.6)" />
<use xlink:href="#f0_27" transform="matrix(13.9,0,0,13.9,517.9,398.6)" />
<use xlink:href="#f0_h" transform="matrix(13.9,0,0,13.9,528.6,398.6)" />
<use xlink:href="#f0_9" transform="matrix(13.9,0,0,13.9,539.3,398.6)" />
<use xlink:href="#f0_h" transform="matrix(13.9,0,0,13.9,238,423.1)" />
<use xlink:href="#f0_d" transform="matrix(13.9,0,0,13.9,248.7,423.1)" />
<use xlink:href="#f0_v" transform="matrix(13.9,0,0,13.9,265.5,423.1)" />
<use xlink:href="#f0_1k" transform="matrix(13.9,0,0,13.9,279.7,423.1)" />
<use xlink:href="#f0_1m" transform="matrix(13.9,0,0,13.9,289.2,423.1)" />
<use xlink:href="#f0_1u" transform="matrix(13.9,0,0,13.9,298.7,423.1)" />
<use xlink:href="#f0_1o" transform="matrix(13.9,0,0,13.9,309.4,423.1)" />
<use xlink:href="#f0_1x" transform="matrix(13.9,0,0,13.9,318.9,423.1)" />
<use xlink:href="#f0_1n" transform="matrix(13.9,0,0,13.9,329.6,423.1)" />
<use xlink:href="#f0_y" transform="matrix(13.9,0,0,13.9,345.7,423.1)" />
<use xlink:href="#f0_1x" transform="matrix(13.9,0,0,13.9,358.7,423.1)" />
<use xlink:href="#f0_1q" transform="matrix(13.9,0,0,13.9,369.4,423.1)" />
<use xlink:href="#f0_1s" transform="matrix(13.9,0,0,13.9,380.1,423.1)" />
<use xlink:href="#f0_1x" transform="matrix(13.9,0,0,13.9,386.1,423.1)" />
<use xlink:href="#f0_1o" transform="matrix(13.9,0,0,13.9,396.8,423.1)" />
<use xlink:href="#f0_1o" transform="matrix(13.9,0,0,13.9,406.2,423.1)" />
<use xlink:href="#f0_21" transform="matrix(13.9,0,0,13.9,415.7,423.1)" />
<use xlink:href="#f0_i" transform="matrix(13.9,0,0,13.9,238,447.7)" />
<use xlink:href="#f0_d" transform="matrix(13.9,0,0,13.9,248.7,447.7)" />
<use xlink:href="#f0_z" transform="matrix(13.9,0,0,13.9,265.5,447.7)" />
<use xlink:href="#f0_21" transform="matrix(13.9,0,0,13.9,277.4,447.7)" />
<use xlink:href="#f0_1y" transform="matrix(13.9,0,0,13.9,284.5,447.7)" />
<use xlink:href="#f0_1x" transform="matrix(13.9,0,0,13.9,295.2,447.7)" />
<use xlink:href="#f0_23" transform="matrix(13.9,0,0,13.9,305.9,447.7)" />
<use xlink:href="#f0_1o" transform="matrix(13.9,0,0,13.9,311.8,447.7)" />
<use xlink:href="#f0_1x" transform="matrix(13.9,0,0,13.9,321.3,447.7)" />
<use xlink:href="#f0_1n" transform="matrix(13.9,0,0,13.9,332,447.7)" />
<use xlink:href="#f0_y" transform="matrix(13.9,0,0,13.9,348.1,447.7)" />
<use xlink:href="#f0_1x" transform="matrix(13.9,0,0,13.9,361.1,447.7)" />
<use xlink:href="#f0_1q" transform="matrix(13.9,0,0,13.9,371.8,447.7)" />
<use xlink:href="#f0_1s" transform="matrix(13.9,0,0,13.9,382.6,447.7)" />
<use xlink:href="#f0_1x" transform="matrix(13.9,0,0,13.9,388.5,447.7)" />
<use xlink:href="#f0_1o" transform="matrix(13.9,0,0,13.9,399.2,447.7)" />
<use xlink:href="#f0_1o" transform="matrix(13.9,0,0,13.9,408.7,447.7)" />
<use xlink:href="#f0_21" transform="matrix(13.9,0,0,13.9,418.2,447.7)" />
<use xlink:href="#f0_j" transform="matrix(13.9,0,0,13.9,238,472.3)" />
<use xlink:href="#f0_d" transform="matrix(13.9,0,0,13.9,248.7,472.3)" />
<use xlink:href="#f0_v" transform="matrix(13.9,0,0,13.9,265.5,472.3)" />
<use xlink:href="#f0_1v" transform="matrix(13.9,0,0,13.9,279.7,472.3)" />
<use xlink:href="#f0_1y" transform="matrix(13.9,0,0,13.9,285.7,472.3)" />
<use xlink:href="#f0_1m" transform="matrix(13.9,0,0,13.9,296.4,472.3)" />
<use xlink:href="#f0_1u" transform="matrix(13.9,0,0,13.9,305.9,472.3)" />
<use xlink:href="#f0_1m" transform="matrix(13.9,0,0,13.9,316.6,472.3)" />
<use xlink:href="#f0_1r" transform="matrix(13.9,0,0,13.9,326.1,472.3)" />
<use xlink:href="#f0_1k" transform="matrix(13.9,0,0,13.9,336.8,472.3)" />
<use xlink:href="#f0_1s" transform="matrix(13.9,0,0,13.9,346.3,472.3)" />
<use xlink:href="#f0_1x" transform="matrix(13.9,0,0,13.9,352.2,472.3)" />
<use xlink:href="#f0_y" transform="matrix(13.9,0,0,13.9,368.3,472.3)" />
<use xlink:href="#f0_1x" transform="matrix(13.9,0,0,13.9,381.3,472.3)" />
<use xlink:href="#f0_1q" transform="matrix(13.9,0,0,13.9,392,472.3)" />
<use xlink:href="#f0_1s" transform="matrix(13.9,0,0,13.9,402.7,472.3)" />
<use xlink:href="#f0_1x" transform="matrix(13.9,0,0,13.9,408.7,472.3)" />
<use xlink:href="#f0_1o" transform="matrix(13.9,0,0,13.9,419.4,472.3)" />
<use xlink:href="#f0_1o" transform="matrix(13.9,0,0,13.9,428.9,472.3)" />
<use xlink:href="#f0_21" transform="matrix(13.9,0,0,13.9,438.4,472.3)" />
<use xlink:href="#f0_8" transform="matrix(13.9,0,0,13.9,450.8,472.3)" />
<use xlink:href="#f0_27" transform="matrix(13.9,0,0,13.9,457.9,472.3)" />
<use xlink:href="#f0_h" transform="matrix(13.9,0,0,13.9,468.6,472.3)" />
<use xlink:href="#f0_9" transform="matrix(13.9,0,0,13.9,479.3,472.3)" />
<use xlink:href="#f0_k" transform="matrix(13.9,0,0,13.9,238,496.8)" />
<use xlink:href="#f0_d" transform="matrix(13.9,0,0,13.9,248.7,496.8)" />
<use xlink:href="#f0_x" transform="matrix(13.9,0,0,13.9,265.5,496.8)" />
<use xlink:href="#f0_1o" transform="matrix(13.9,0,0,13.9,280.9,496.8)" />
<use xlink:href="#f0_25" transform="matrix(13.9,0,0,13.9,290.4,496.8)" />
<use xlink:href="#f0_c" transform="matrix(13.9,0,0,13.9,301.1,496.8)" />
<use xlink:href="#f0_1y" transform="matrix(13.9,0,0,13.9,308.2,496.8)" />
<use xlink:href="#f0_1z" transform="matrix(13.9,0,0,13.9,318.9,496.8)" />
<use xlink:href="#f0_22" transform="matrix(13.9,0,0,13.9,329.6,496.8)" />
<use xlink:href="#f0_1c" transform="matrix(13.9,0,0,13.9,343.3,496.8)" />
<use xlink:href="#f0_y" transform="matrix(13.9,0,0,13.9,355.1,496.8)" />
<use xlink:href="#f0_1b" transform="matrix(13.9,0,0,13.9,368.2,496.8)" />
<use xlink:href="#f0_l" transform="matrix(13.9,0,0,13.9,238,521.4)" />
<use xlink:href="#f0_d" transform="matrix(13.9,0,0,13.9,248.7,521.4)" />
<use xlink:href="#f0_1a" transform="matrix(13.9,0,0,13.9,265.5,521.4)" />
<use xlink:href="#f0_6" transform="matrix(13.9,0,0,13.9,280.9,521.4)" />
<use xlink:href="#f0_u" transform="matrix(13.9,0,0,13.9,297.6,521.4)" />
<use xlink:href="#f0_1d" transform="matrix(13.9,0,0,13.9,318.3,521.4)" />
<use xlink:href="#f0_1o" transform="matrix(13.9,0,0,13.9,331.4,521.4)" />
<use xlink:href="#f0_22" transform="matrix(13.9,0,0,13.9,340.9,521.4)" />
<use xlink:href="#f0_23" transform="matrix(13.9,0,0,13.9,349.2,521.4)" />
<use xlink:href="#f0_y" transform="matrix(13.9,0,0,13.9,360.5,521.4)" />
<use xlink:href="#f0_1x" transform="matrix(13.9,0,0,13.9,373.6,521.4)" />
<use xlink:href="#f0_1q" transform="matrix(13.9,0,0,13.9,384.3,521.4)" />
<use xlink:href="#f0_1s" transform="matrix(13.9,0,0,13.9,395,521.4)" />
<use xlink:href="#f0_1x" transform="matrix(13.9,0,0,13.9,400.9,521.4)" />
<use xlink:href="#f0_1o" transform="matrix(13.9,0,0,13.9,411.6,521.4)" />
<use xlink:href="#f0_1o" transform="matrix(13.9,0,0,13.9,421.1,521.4)" />
<use xlink:href="#f0_21" transform="matrix(13.9,0,0,13.9,430.6,521.4)" />
<use xlink:href="#f0_m" transform="matrix(13.9,0,0,13.9,238,546.3)" />
<use xlink:href="#f0_d" transform="matrix(13.9,0,0,13.9,248.7,546.3)" />
<use xlink:href="#f0_19" transform="matrix(13.9,0,0,13.9,265.5,546.3)" />
<use xlink:href="#f0_21" transform="matrix(13.9,0,0,13.9,277.4,546.3)" />
<use xlink:href="#f0_1y" transform="matrix(13.9,0,0,13.9,284.5,546.3)" />
<use xlink:href="#f0_1n" transform="matrix(13.9,0,0,13.9,295.2,546.3)" />
<use xlink:href="#f0_24" transform="matrix(13.9,0,0,13.9,305.9,546.3)" />
<use xlink:href="#f0_1m" transform="matrix(13.9,0,0,13.9,316.6,546.3)" />
<use xlink:href="#f0_23" transform="matrix(13.9,0,0,13.9,326.1,546.3)" />
<use xlink:href="#f0_16" transform="matrix(13.9,0,0,13.9,337.4,546.3)" />
<use xlink:href="#f0_1k" transform="matrix(13.9,0,0,13.9,356.4,546.3)" />
<use xlink:href="#f0_1x" transform="matrix(13.9,0,0,13.9,365.9,546.3)" />
<use xlink:href="#f0_1k" transform="matrix(13.9,0,0,13.9,376.6,546.3)" />
<use xlink:href="#f0_1q" transform="matrix(13.9,0,0,13.9,386.1,546.3)" />
<use xlink:href="#f0_1o" transform="matrix(13.9,0,0,13.9,396.8,546.3)" />
<use xlink:href="#f0_21" transform="matrix(13.9,0,0,13.9,406.3,546.3)" />
<use xlink:href="#f0_8" transform="matrix(13.9,0,0,13.9,418.7,546.3)" />
<use xlink:href="#f0_27" transform="matrix(13.9,0,0,13.9,425.8,546.3)" />
<use xlink:href="#f0_h" transform="matrix(13.9,0,0,13.9,436.5,546.3)" />
<use xlink:href="#f0_9" transform="matrix(13.9,0,0,13.9,447.2,546.3)" />
<use xlink:href="#f1_t" transform="matrix(13.9,0,0,13.9,183.9,595.5)" />
<use xlink:href="#f1_1r" transform="matrix(13.9,0,0,13.9,200.5,595.5)" />
<use xlink:href="#f1_1o" transform="matrix(13.9,0,0,13.9,210,595.5)" />
<use xlink:href="#f1_1w" transform="matrix(13.9,0,0,13.9,220.7,595.5)" />
<use xlink:href="#f1_1t" transform="matrix(13.9,0,0,13.9,236.2,595.5)" />
<use xlink:href="#f1_1h" transform="matrix(13.9,0,0,13.9,243.3,595.5)" />
<use xlink:href="#f1_15" transform="matrix(13.9,0,0,13.9,260.5,595.5)" />
<use xlink:href="#f1_1e" transform="matrix(13.9,0,0,13.9,274.8,595.5)" />
<use xlink:href="#f1_1a" transform="matrix(13.9,0,0,13.9,284.3,595.5)" />
<use xlink:href="#f1_1m" transform="matrix(13.9,0,0,13.9,295,595.5)" />
<use xlink:href="#f0_g" transform="matrix(13.9,0,0,13.9,238,644.6)" />
<use xlink:href="#f0_d" transform="matrix(13.9,0,0,13.9,248.7,644.6)" />
<use xlink:href="#f0_v" transform="matrix(13.9,0,0,13.9,259.3,644.6)" />
<use xlink:href="#f0_24" transform="matrix(13.9,0,0,13.9,273.6,644.6)" />
<use xlink:href="#f0_22" transform="matrix(13.9,0,0,13.9,284.3,644.6)" />
<use xlink:href="#f0_1s" transform="matrix(13.9,0,0,13.9,292.6,644.6)" />
<use xlink:href="#f0_1x" transform="matrix(13.9,0,0,13.9,298.5,644.6)" />
<use xlink:href="#f0_1o" transform="matrix(13.9,0,0,13.9,309.2,644.6)" />
<use xlink:href="#f0_22" transform="matrix(13.9,0,0,13.9,318.7,644.6)" />
<use xlink:href="#f0_22" transform="matrix(13.9,0,0,13.9,327,644.6)" />
<use xlink:href="#f0_u" transform="matrix(13.9,0,0,13.9,340.7,644.6)" />
<use xlink:href="#f0_1x" transform="matrix(13.9,0,0,13.9,356.1,644.6)" />
<use xlink:href="#f0_1k" transform="matrix(13.9,0,0,13.9,366.8,644.6)" />
<use xlink:href="#f0_1v" transform="matrix(13.9,0,0,13.9,376.3,644.6)" />
<use xlink:href="#f0_28" transform="matrix(13.9,0,0,13.9,382.2,644.6)" />
<use xlink:href="#f0_22" transform="matrix(13.9,0,0,13.9,392.9,644.6)" />
<use xlink:href="#f0_23" transform="matrix(13.9,0,0,13.9,401.2,644.6)" />
<use xlink:href="#f0_h" transform="matrix(13.9,0,0,13.9,238,669.2)" />
<use xlink:href="#f0_d" transform="matrix(13.9,0,0,13.9,248.7,669.2)" />
<use xlink:href="#f0_v" transform="matrix(13.9,0,0,13.9,259.3,669.2)" />
<use xlink:href="#f0_24" transform="matrix(13.9,0,0,13.9,273.6,669.2)" />
<use xlink:href="#f0_22" transform="matrix(13.9,0,0,13.9,284.3,669.2)" />
<use xlink:href="#f0_1s" transform="matrix(13.9,0,0,13.9,292.6,669.2)" />
<use xlink:href="#f0_1x" transform="matrix(13.9,0,0,13.9,298.5,669.2)" />
<use xlink:href="#f0_1o" transform="matrix(13.9,0,0,13.9,309.2,669.2)" />
<use xlink:href="#f0_22" transform="matrix(13.9,0,0,13.9,318.7,669.2)" />
<use xlink:href="#f0_22" transform="matrix(13.9,0,0,13.9,327,669.2)" />
<use xlink:href="#f0_x" transform="matrix(13.9,0,0,13.9,340.7,669.2)" />
<use xlink:href="#f0_1o" transform="matrix(13.9,0,0,13.9,356.1,669.2)" />
<use xlink:href="#f0_25" transform="matrix(13.9,0,0,13.9,365.6,669.2)" />
<use xlink:href="#f0_1o" transform="matrix(13.9,0,0,13.9,376.3,669.2)" />
<use xlink:href="#f0_1v" transform="matrix(13.9,0,0,13.9,385.8,669.2)" />
<use xlink:href="#f0_1y" transform="matrix(13.9,0,0,13.9,391.7,669.2)" />
<use xlink:href="#f0_1z" transform="matrix(13.9,0,0,13.9,402.4,669.2)" />
<use xlink:href="#f0_1w" transform="matrix(13.9,0,0,13.9,413.1,669.2)" />
<use xlink:href="#f0_1o" transform="matrix(13.9,0,0,13.9,429.7,669.2)" />
<use xlink:href="#f0_1x" transform="matrix(13.9,0,0,13.9,439.2,669.2)" />
<use xlink:href="#f0_23" transform="matrix(13.9,0,0,13.9,449.9,669.2)" />
<use xlink:href="#f0_16" transform="matrix(13.9,0,0,13.9,461.2,669.2)" />
<use xlink:href="#f0_1k" transform="matrix(13.9,0,0,13.9,480.2,669.2)" />
<use xlink:href="#f0_1x" transform="matrix(13.9,0,0,13.9,489.7,669.2)" />
<use xlink:href="#f0_1k" transform="matrix(13.9,0,0,13.9,500.4,669.2)" />
<use xlink:href="#f0_1q" transform="matrix(13.9,0,0,13.9,509.8,669.2)" />
<use xlink:href="#f0_1o" transform="matrix(13.9,0,0,13.9,520.5,669.2)" />
<use xlink:href="#f0_21" transform="matrix(13.9,0,0,13.9,530,669.2)" />
<use xlink:href="#f0_i" transform="matrix(13.9,0,0,13.9,238,693.7)" />
<use xlink:href="#f0_d" transform="matrix(13.9,0,0,13.9,248.7,693.7)" />
<use xlink:href="#f0_1c" transform="matrix(13.9,0,0,13.9,259.3,693.7)" />
<use xlink:href="#f0_1k" transform="matrix(13.9,0,0,13.9,271.2,693.7)" />
<use xlink:href="#f0_1v" transform="matrix(13.9,0,0,13.9,280.7,693.7)" />
<use xlink:href="#f0_1o" transform="matrix(13.9,0,0,13.9,286.6,693.7)" />
<use xlink:href="#f0_22" transform="matrix(13.9,0,0,13.9,296.1,693.7)" />
<use xlink:href="#f0_y" transform="matrix(13.9,0,0,13.9,309.8,693.7)" />
<use xlink:href="#f0_27" transform="matrix(13.9,0,0,13.9,322.8,693.7)" />
<use xlink:href="#f0_1o" transform="matrix(13.9,0,0,13.9,333.5,693.7)" />
<use xlink:href="#f0_1m" transform="matrix(13.9,0,0,13.9,343,693.7)" />
<use xlink:href="#f0_24" transform="matrix(13.9,0,0,13.9,352.5,693.7)" />
<use xlink:href="#f0_23" transform="matrix(13.9,0,0,13.9,363.2,693.7)" />
<use xlink:href="#f0_1s" transform="matrix(13.9,0,0,13.9,369.1,693.7)" />
<use xlink:href="#f0_25" transform="matrix(13.9,0,0,13.9,375.1,693.7)" />
<use xlink:href="#f0_1o" transform="matrix(13.9,0,0,13.9,385.8,693.7)" />
<use xlink:href="#f0_j" transform="matrix(13.9,0,0,13.9,238,718.3)" />
<use xlink:href="#f0_d" transform="matrix(13.9,0,0,13.9,248.7,718.3)" />
<use xlink:href="#f0_x" transform="matrix(13.9,0,0,13.9,259.3,718.3)" />
<use xlink:href="#f0_1o" transform="matrix(13.9,0,0,13.9,274.8,718.3)" />
<use xlink:href="#f0_1w" transform="matrix(13.9,0,0,13.9,284.3,718.3)" />
<use xlink:href="#f0_1k" transform="matrix(13.9,0,0,13.9,300.9,718.3)" />
<use xlink:href="#f0_1x" transform="matrix(13.9,0,0,13.9,310.4,718.3)" />
<use xlink:href="#f0_1n" transform="matrix(13.9,0,0,13.9,321.1,718.3)" />
<use xlink:href="#f0_10" transform="matrix(13.9,0,0,13.9,337.1,718.3)" />
<use xlink:href="#f0_1o" transform="matrix(13.9,0,0,13.9,352.5,718.3)" />
<use xlink:href="#f0_1x" transform="matrix(13.9,0,0,13.9,362,718.3)" />
<use xlink:href="#f0_1o" transform="matrix(13.9,0,0,13.9,372.7,718.3)" />
<use xlink:href="#f0_21" transform="matrix(13.9,0,0,13.9,382.2,718.3)" />
<use xlink:href="#f0_1k" transform="matrix(13.9,0,0,13.9,389.3,718.3)" />
<use xlink:href="#f0_23" transform="matrix(13.9,0,0,13.9,398.8,718.3)" />
<use xlink:href="#f0_1s" transform="matrix(13.9,0,0,13.9,404.7,718.3)" />
<use xlink:href="#f0_1y" transform="matrix(13.9,0,0,13.9,410.7,718.3)" />
<use xlink:href="#f0_1x" transform="matrix(13.9,0,0,13.9,421.4,718.3)" />
<use xlink:href="#f0_16" transform="matrix(13.9,0,0,13.9,437.4,718.3)" />
<use xlink:href="#f0_1k" transform="matrix(13.9,0,0,13.9,456.4,718.3)" />
<use xlink:href="#f0_1x" transform="matrix(13.9,0,0,13.9,465.9,718.3)" />
<use xlink:href="#f0_1k" transform="matrix(13.9,0,0,13.9,476.6,718.3)" />
<use xlink:href="#f0_1q" transform="matrix(13.9,0,0,13.9,486.1,718.3)" />
<use xlink:href="#f0_1o" transform="matrix(13.9,0,0,13.9,496.7,718.3)" />
<use xlink:href="#f0_21" transform="matrix(13.9,0,0,13.9,506.2,718.3)" />
<use xlink:href="#f0_k" transform="matrix(13.9,0,0,13.9,238,742.9)" />
<use xlink:href="#f0_d" transform="matrix(13.9,0,0,13.9,248.7,742.9)" />
<use xlink:href="#f0_1g" transform="matrix(13.9,0,0,13.9,259.3,742.9)" />
<use xlink:href="#f0_1o" transform="matrix(13.9,0,0,13.9,279.5,742.9)" />
<use xlink:href="#f0_1l" transform="matrix(13.9,0,0,13.9,289,742.9)" />
<use xlink:href="#f0_x" transform="matrix(13.9,0,0,13.9,305,742.9)" />
<use xlink:href="#f0_1o" transform="matrix(13.9,0,0,13.9,320.5,742.9)" />
<use xlink:href="#f0_25" transform="matrix(13.9,0,0,13.9,329.9,742.9)" />
<use xlink:href="#f0_1o" transform="matrix(13.9,0,0,13.9,340.6,742.9)" />
<use xlink:href="#f0_1v" transform="matrix(13.9,0,0,13.9,350.1,742.9)" />
<use xlink:href="#f0_1y" transform="matrix(13.9,0,0,13.9,356.1,742.9)" />
<use xlink:href="#f0_1z" transform="matrix(13.9,0,0,13.9,366.8,742.9)" />
<use xlink:href="#f0_1o" transform="matrix(13.9,0,0,13.9,377.4,742.9)" />
<use xlink:href="#f0_21" transform="matrix(13.9,0,0,13.9,386.9,742.9)" />
<use xlink:href="#f0_l" transform="matrix(13.9,0,0,13.9,238,767.4)" />
<use xlink:href="#f0_d" transform="matrix(13.9,0,0,13.9,248.7,767.4)" />
<use xlink:href="#f0_1c" transform="matrix(13.9,0,0,13.9,259.3,767.4)" />
<use xlink:href="#f0_1y" transform="matrix(13.9,0,0,13.9,271.2,767.4)" />
<use xlink:href="#f0_1m" transform="matrix(13.9,0,0,13.9,281.9,767.4)" />
<use xlink:href="#f0_1s" transform="matrix(13.9,0,0,13.9,291.4,767.4)" />
<use xlink:href="#f0_1k" transform="matrix(13.9,0,0,13.9,297.3,767.4)" />
<use xlink:href="#f0_1v" transform="matrix(13.9,0,0,13.9,306.8,767.4)" />
<use xlink:href="#f0_16" transform="matrix(13.9,0,0,13.9,318.1,767.4)" />
<use xlink:href="#f0_1o" transform="matrix(13.9,0,0,13.9,337.1,767.4)" />
<use xlink:href="#f0_1n" transform="matrix(13.9,0,0,13.9,346.6,767.4)" />
<use xlink:href="#f0_1s" transform="matrix(13.9,0,0,13.9,357.3,767.4)" />
<use xlink:href="#f0_1k" transform="matrix(13.9,0,0,13.9,363.2,767.4)" />
<use xlink:href="#f0_16" transform="matrix(13.9,0,0,13.9,378,767.4)" />
<use xlink:href="#f0_1k" transform="matrix(13.9,0,0,13.9,397,767.4)" />
<use xlink:href="#f0_1x" transform="matrix(13.9,0,0,13.9,406.5,767.4)" />
<use xlink:href="#f0_1k" transform="matrix(13.9,0,0,13.9,417.2,767.4)" />
<use xlink:href="#f0_1q" transform="matrix(13.9,0,0,13.9,426.9,767.4)" />
<use xlink:href="#f0_1o" transform="matrix(13.9,0,0,13.9,437.5,767.4)" />
<use xlink:href="#f0_21" transform="matrix(13.9,0,0,13.9,447,767.4)" />
<use xlink:href="#f0_m" transform="matrix(13.9,0,0,13.9,238,792)" />
<use xlink:href="#f0_d" transform="matrix(13.9,0,0,13.9,248.7,792)" />
<use xlink:href="#f0_19" transform="matrix(13.9,0,0,13.9,259.3,792)" />
<use xlink:href="#f0_1k" transform="matrix(13.9,0,0,13.9,271.2,792)" />
<use xlink:href="#f0_1s" transform="matrix(13.9,0,0,13.9,280.7,792)" />
<use xlink:href="#f0_1n" transform="matrix(13.9,0,0,13.9,286.6,792)" />
<use xlink:href="#f0_x" transform="matrix(13.9,0,0,13.9,302.7,792)" />
<use xlink:href="#f0_1s" transform="matrix(13.9,0,0,13.9,318.1,792)" />
<use xlink:href="#f0_1q" transform="matrix(13.9,0,0,13.9,324,792)" />
<use xlink:href="#f0_1s" transform="matrix(13.9,0,0,13.9,334.7,792)" />
<use xlink:href="#f0_23" transform="matrix(13.9,0,0,13.9,340.7,792)" />
<use xlink:href="#f0_1k" transform="matrix(13.9,0,0,13.9,346.6,792)" />
<use xlink:href="#f0_1v" transform="matrix(13.9,0,0,13.9,356.1,792)" />
<use xlink:href="#f0_16" transform="matrix(13.9,0,0,13.9,367.3,792)" />
<use xlink:href="#f0_1k" transform="matrix(13.9,0,0,13.9,386.4,792)" />
<use xlink:href="#f0_1x" transform="matrix(13.9,0,0,13.9,395.8,792)" />
<use xlink:href="#f0_1k" transform="matrix(13.9,0,0,13.9,406.5,792)" />
<use xlink:href="#f0_1q" transform="matrix(13.9,0,0,13.9,416,792)" />
<use xlink:href="#f0_1o" transform="matrix(13.9,0,0,13.9,426.7,792)" />
<use xlink:href="#f0_21" transform="matrix(13.9,0,0,13.9,436.2,792)" />
<use xlink:href="#f0_n" transform="matrix(13.9,0,0,13.9,238,816.6)" />
<use xlink:href="#f0_d" transform="matrix(13.9,0,0,13.9,248.7,816.6)" />
<use xlink:href="#f0_u" transform="matrix(13.9,0,0,13.9,259.3,816.6)" />
<use xlink:href="#f0_1w" transform="matrix(13.9,0,0,13.9,274.8,816.6)" />
<use xlink:href="#f0_1l" transform="matrix(13.9,0,0,13.9,291.4,816.6)" />
<use xlink:href="#f0_1k" transform="matrix(13.9,0,0,13.9,302.1,816.6)" />
<use xlink:href="#f0_22" transform="matrix(13.9,0,0,13.9,311.6,816.6)" />
<use xlink:href="#f0_22" transform="matrix(13.9,0,0,13.9,319.9,816.6)" />
<use xlink:href="#f0_1k" transform="matrix(13.9,0,0,13.9,328.2,816.6)" />
<use xlink:href="#f0_1n" transform="matrix(13.9,0,0,13.9,337.7,816.6)" />
<use xlink:href="#f0_1y" transform="matrix(13.9,0,0,13.9,348.4,816.6)" />
<use xlink:href="#f0_21" transform="matrix(13.9,0,0,13.9,359.1,816.6)" />
<use xlink:href="#f0_22" transform="matrix(13.9,0,0,13.9,366.2,816.6)" />
<use xlink:href="#f0_1y" transform="matrix(13.9,0,0,13.9,379.8,816.6)" />
<use xlink:href="#f0_1p" transform="matrix(13.9,0,0,13.9,390.5,816.6)" />
<use xlink:href="#f0_23" transform="matrix(13.9,0,0,13.9,403,816.6)" />
<use xlink:href="#f0_1r" transform="matrix(13.9,0,0,13.9,408.9,816.6)" />
<use xlink:href="#f0_1o" transform="matrix(13.9,0,0,13.9,419.6,816.6)" />
<use xlink:href="#f0_1z" transform="matrix(13.9,0,0,13.9,434.4,816.6)" />
<use xlink:href="#f0_1v" transform="matrix(13.9,0,0,13.9,445.1,816.6)" />
<use xlink:href="#f0_1k" transform="matrix(13.9,0,0,13.9,451.1,816.6)" />
<use xlink:href="#f0_23" transform="matrix(13.9,0,0,13.9,460.6,816.6)" />
<use xlink:href="#f0_1p" transform="matrix(13.9,0,0,13.9,466.5,816.6)" />
<use xlink:href="#f0_1y" transform="matrix(13.9,0,0,13.9,473.6,816.6)" />
<use xlink:href="#f0_21" transform="matrix(13.9,0,0,13.9,484.3,816.6)" />
<use xlink:href="#f0_1w" transform="matrix(13.9,0,0,13.9,491.4,816.6)" />
<use xlink:href="#f1_g" transform="matrix(13.9,0,0,13.9,157.3,862.4)" />
<use xlink:href="#f1_9" transform="matrix(13.9,0,0,13.9,168,862.4)" />
<use xlink:href="#f1_e" transform="matrix(13.9,0,0,13.9,173.3,862.4)" />
<use xlink:href="#f1_9" transform="matrix(13.9,0,0,13.9,184,862.4)" />
<use xlink:href="#f1_d" transform="matrix(13.9,0,0,13.9,190.3,862.4)" />
<use xlink:href="#f1_b" transform="matrix(13.9,0,0,13.9,201,862.4)" />
<use xlink:href="#f1_d" transform="matrix(13.9,0,0,13.9,211.7,862.4)" />
<use xlink:href="#f1_b" transform="matrix(13.9,0,0,13.9,222.4,862.4)" />
<use xlink:href="#f1_u" transform="matrix(13.9,0,0,13.9,238.4,862.4)" />
<use xlink:href="#f1_1i" transform="matrix(13.9,0,0,13.9,255.1,862.4)" />
<use xlink:href="#f1_1r" transform="matrix(13.9,0,0,13.9,261,862.4)" />
<use xlink:href="#f1_1i" transform="matrix(13.9,0,0,13.9,270.5,862.4)" />
<use xlink:href="#f1_1n" transform="matrix(13.9,0,0,13.9,276.4,862.4)" />
<use xlink:href="#f1_1g" transform="matrix(13.9,0,0,13.9,288.3,862.4)" />
<use xlink:href="#f1_12" transform="matrix(13.9,0,0,13.9,304.4,862.4)" />
<use xlink:href="#f1_1l" transform="matrix(13.9,0,0,13.9,317.4,862.4)" />
<use xlink:href="#f1_1a" transform="matrix(13.9,0,0,13.9,323.4,862.4)" />
<use xlink:href="#f1_1n" transform="matrix(13.9,0,0,13.9,334.1,862.4)" />
</g>
</g>
<path d="M190.3,865.3H346.1v1.9H190.3Z" class="g0_27" />
<g clip-path="url(#c1_27)">
<g fill="#000000" >
<use xlink:href="#f0_h" transform="matrix(13.9,0,0,13.9,183.9,908.2)" />
<use xlink:href="#f0_f" transform="matrix(13.9,0,0,13.9,194.6,908.2)" />
<use xlink:href="#f0_h" transform="matrix(13.9,0,0,13.9,205.3,908.2)" />
<use xlink:href="#f0_f" transform="matrix(13.9,0,0,13.9,216,908.2)" />
<use xlink:href="#f0_26" transform="matrix(13.9,0,0,13.9,232,908.2)" />
<use xlink:href="#f0_1s" transform="matrix(13.9,0,0,13.9,247.5,908.2)" />
<use xlink:href="#f0_1v" transform="matrix(13.9,0,0,13.9,253.4,908.2)" />
<use xlink:href="#f0_1v" transform="matrix(13.9,0,0,13.9,259.3,908.2)" />
<use xlink:href="#f0_1l" transform="matrix(13.9,0,0,13.9,270.6,908.2)" />
<use xlink:href="#f0_1o" transform="matrix(13.9,0,0,13.9,281.3,908.2)" />
<use xlink:href="#f0_1k" transform="matrix(13.9,0,0,13.9,296.2,908.2)" />
<use xlink:href="#f0_1m" transform="matrix(13.9,0,0,13.9,311,908.2)" />
<use xlink:href="#f0_21" transform="matrix(13.9,0,0,13.9,320.5,908.2)" />
<use xlink:href="#f0_1s" transform="matrix(13.9,0,0,13.9,327.6,908.2)" />
<use xlink:href="#f0_23" transform="matrix(13.9,0,0,13.9,333.6,908.2)" />
<use xlink:href="#f0_1s" transform="matrix(13.9,0,0,13.9,339.5,908.2)" />
<use xlink:href="#f0_1m" transform="matrix(13.9,0,0,13.9,345.4,908.2)" />
<use xlink:href="#f0_1k" transform="matrix(13.9,0,0,13.9,354.9,908.2)" />
<use xlink:href="#f0_1v" transform="matrix(13.9,0,0,13.9,364.4,908.2)" />
<use xlink:href="#f0_28" transform="matrix(13.9,0,0,13.9,375.7,908.2)" />
<use xlink:href="#f0_1o" transform="matrix(13.9,0,0,13.9,386.4,908.2)" />
<use xlink:href="#f0_1k" transform="matrix(13.9,0,0,13.9,395.9,908.2)" />
<use xlink:href="#f0_21" transform="matrix(13.9,0,0,13.9,405.4,908.2)" />
<use xlink:href="#f0_1p" transform="matrix(13.9,0,0,13.9,417.9,908.2)" />
<use xlink:href="#f0_1y" transform="matrix(13.9,0,0,13.9,425,908.2)" />
<use xlink:href="#f0_21" transform="matrix(13.9,0,0,13.9,435.7,908.2)" />
<use xlink:href="#f0_1r" transform="matrix(13.9,0,0,13.9,448.1,908.2)" />
<use xlink:href="#f0_1s" transform="matrix(13.9,0,0,13.9,458.8,908.2)" />
<use xlink:href="#f0_21" transform="matrix(13.9,0,0,13.9,464.8,908.2)" />
<use xlink:href="#f0_1s" transform="matrix(13.9,0,0,13.9,471.9,908.2)" />
<use xlink:href="#f0_1x" transform="matrix(13.9,0,0,13.9,477.8,908.2)" />
<use xlink:href="#f0_1q" transform="matrix(13.9,0,0,13.9,488.5,908.2)" />
<use xlink:href="#f0_b" transform="matrix(13.9,0,0,13.9,499.2,908.2)" />
<use xlink:href="#f0_26" transform="matrix(13.9,0,0,13.9,509.9,908.2)" />
<use xlink:href="#f0_1r" transform="matrix(13.9,0,0,13.9,525.4,908.2)" />
<use xlink:href="#f0_1s" transform="matrix(13.9,0,0,13.9,536.1,908.2)" />
<use xlink:href="#f0_1v" transform="matrix(13.9,0,0,13.9,542,908.2)" />
<use xlink:href="#f0_1o" transform="matrix(13.9,0,0,13.9,548,908.2)" />
<use xlink:href="#f0_26" transform="matrix(13.9,0,0,13.9,562.8,908.2)" />
<use xlink:href="#f0_1o" transform="matrix(13.9,0,0,13.9,578.3,908.2)" />
<use xlink:href="#f0_1q" transform="matrix(13.9,0,0,13.9,593.1,908.2)" />
<use xlink:href="#f0_21" transform="matrix(13.9,0,0,13.9,603.8,908.2)" />
<use xlink:href="#f0_1y" transform="matrix(13.9,0,0,13.9,610.9,908.2)" />
<use xlink:href="#f0_26" transform="matrix(13.9,0,0,13.9,621.6,908.2)" />
<use xlink:href="#f0_1y" transform="matrix(13.9,0,0,13.9,642.4,908.2)" />
<use xlink:href="#f0_24" transform="matrix(13.9,0,0,13.9,653.1,908.2)" />
<use xlink:href="#f0_21" transform="matrix(13.9,0,0,13.9,663.8,908.2)" />
<use xlink:href="#f0_1z" transform="matrix(13.9,0,0,13.9,676.3,908.2)" />
<use xlink:href="#f0_21" transform="matrix(13.9,0,0,13.9,687,908.2)" />
<use xlink:href="#f0_1y" transform="matrix(13.9,0,0,13.9,694.1,908.2)" />
<use xlink:href="#f0_1n" transform="matrix(13.9,0,0,13.9,704.8,908.2)" />
<use xlink:href="#f0_24" transform="matrix(13.9,0,0,13.9,715.5,908.2)" />
<use xlink:href="#f0_1m" transform="matrix(13.9,0,0,13.9,726.3,908.2)" />
<use xlink:href="#f0_23" transform="matrix(13.9,0,0,13.9,735.7,908.2)" />
<use xlink:href="#f0_1y" transform="matrix(13.9,0,0,13.9,747,908.2)" />
<use xlink:href="#f0_24" transform="matrix(13.9,0,0,13.9,757.7,908.2)" />
<use xlink:href="#f0_23" transform="matrix(13.9,0,0,13.9,768.4,908.2)" />
<use xlink:href="#f0_1y" transform="matrix(13.9,0,0,13.9,183.9,932.8)" />
<use xlink:href="#f0_1p" transform="matrix(13.9,0,0,13.9,194.6,932.8)" />
<use xlink:href="#f0_23" transform="matrix(13.9,0,0,13.9,207,932.8)" />
<use xlink:href="#f0_1r" transform="matrix(13.9,0,0,13.9,213,932.8)" />
<use xlink:href="#f0_1o" transform="matrix(13.9,0,0,13.9,223.7,932.8)" />
<use xlink:href="#f0_v" transform="matrix(13.9,0,0,13.9,238.5,932.8)" />
<use xlink:href="#f0_1o" transform="matrix(13.9,0,0,13.9,252.8,932.8)" />
<use xlink:href="#f0_23" transform="matrix(13.9,0,0,13.9,262.3,932.8)" />
<use xlink:href="#f0_1k" transform="matrix(13.9,0,0,13.9,268.2,932.8)" />
<use xlink:href="#f0_25" transform="matrix(13.9,0,0,13.9,283.1,932.8)" />
<use xlink:href="#f0_1o" transform="matrix(13.9,0,0,13.9,293.8,932.8)" />
<use xlink:href="#f0_21" transform="matrix(13.9,0,0,13.9,303.2,932.8)" />
<use xlink:href="#f0_22" transform="matrix(13.9,0,0,13.9,310.4,932.8)" />
<use xlink:href="#f0_1s" transform="matrix(13.9,0,0,13.9,318.7,932.8)" />
<use xlink:href="#f0_1y" transform="matrix(13.9,0,0,13.9,324.6,932.8)" />
<use xlink:href="#f0_1x" transform="matrix(13.9,0,0,13.9,335.3,932.8)" />
<use xlink:href="#f0_d" transform="matrix(13.9,0,0,13.9,346,932.8)" />
<use xlink:href="#f0_1g" transform="matrix(13.9,0,0,13.9,356.7,932.8)" />
<use xlink:href="#f0_1o" transform="matrix(13.9,0,0,13.9,376.9,932.8)" />
<use xlink:href="#f0_26" transform="matrix(13.9,0,0,13.9,391.7,932.8)" />
<use xlink:href="#f0_1s" transform="matrix(13.9,0,0,13.9,407.1,932.8)" />
<use xlink:href="#f0_1v" transform="matrix(13.9,0,0,13.9,413,932.8)" />
<use xlink:href="#f0_1v" transform="matrix(13.9,0,0,13.9,419,932.8)" />
<use xlink:href="#f0_1s" transform="matrix(13.9,0,0,13.9,430.2,932.8)" />
<use xlink:href="#f0_1x" transform="matrix(13.9,0,0,13.9,436.2,932.8)" />
<use xlink:href="#f0_1m" transform="matrix(13.9,0,0,13.9,446.9,932.8)" />
<use xlink:href="#f0_21" transform="matrix(13.9,0,0,13.9,456.3,932.8)" />
<use xlink:href="#f0_1o" transform="matrix(13.9,0,0,13.9,463.5,932.8)" />
<use xlink:href="#f0_1k" transform="matrix(13.9,0,0,13.9,473,932.8)" />
<use xlink:href="#f0_22" transform="matrix(13.9,0,0,13.9,482.4,932.8)" />
<use xlink:href="#f0_1o" transform="matrix(13.9,0,0,13.9,490.7,932.8)" />
<use xlink:href="#f0_16" transform="matrix(13.9,0,0,13.9,505.6,932.8)" />
<use xlink:href="#f0_u" transform="matrix(13.9,0,0,13.9,524.6,932.8)" />
<use xlink:href="#f0_1e" transform="matrix(13.9,0,0,13.9,540,932.8)" />
<use xlink:href="#f0_22" transform="matrix(13.9,0,0,13.9,555.5,932.8)" />
<use xlink:href="#f0_1k" transform="matrix(13.9,0,0,13.9,569.4,932.8)" />
<use xlink:href="#f0_1x" transform="matrix(13.9,0,0,13.9,578.9,932.8)" />
<use xlink:href="#f0_1n" transform="matrix(13.9,0,0,13.9,589.6,932.8)" />
<use xlink:href="#f0_1s" transform="matrix(13.9,0,0,13.9,605.6,932.8)" />
<use xlink:href="#f0_1x" transform="matrix(13.9,0,0,13.9,611.5,932.8)" />
<use xlink:href="#f0_1m" transform="matrix(13.9,0,0,13.9,622.2,932.8)" />
<use xlink:href="#f0_21" transform="matrix(13.9,0,0,13.9,631.7,932.8)" />
<use xlink:href="#f0_1o" transform="matrix(13.9,0,0,13.9,638.9,932.8)" />
<use xlink:href="#f0_1k" transform="matrix(13.9,0,0,13.9,648.4,932.8)" />
<use xlink:href="#f0_22" transform="matrix(13.9,0,0,13.9,657.9,932.8)" />
<use xlink:href="#f0_1o" transform="matrix(13.9,0,0,13.9,666.2,932.8)" />
<use xlink:href="#f0_1y" transform="matrix(13.9,0,0,13.9,681,932.8)" />
<use xlink:href="#f0_24" transform="matrix(13.9,0,0,13.9,691.7,932.8)" />
<use xlink:href="#f0_21" transform="matrix(13.9,0,0,13.9,702.4,932.8)" />
<use xlink:href="#f0_21" transform="matrix(13.9,0,0,13.9,183.9,957.4)" />
<use xlink:href="#f0_1o" transform="matrix(13.9,0,0,13.9,191,957.4)" />
<use xlink:href="#f0_25" transform="matrix(13.9,0,0,13.9,200.5,957.4)" />
<use xlink:href="#f0_1o" transform="matrix(13.9,0,0,13.9,211.2,957.4)" />
<use xlink:href="#f0_1x" transform="matrix(13.9,0,0,13.9,220.7,957.4)" />
<use xlink:href="#f0_24" transform="matrix(13.9,0,0,13.9,231.4,957.4)" />
<use xlink:href="#f0_1o" transform="matrix(13.9,0,0,13.9,242.1,957.4)" />
<use xlink:href="#f0_22" transform="matrix(13.9,0,0,13.9,251.6,957.4)" />
<use xlink:href="#f0_d" transform="matrix(13.9,0,0,13.9,259.9,957.4)" />
<use xlink:href="#f0_1d" transform="matrix(13.9,0,0,13.9,270.6,957.4)" />
<use xlink:href="#f0_1r" transform="matrix(13.9,0,0,13.9,283.7,957.4)" />
<use xlink:href="#f0_1o" transform="matrix(13.9,0,0,13.9,294.4,957.4)" />
<use xlink:href="#f0_1p" transform="matrix(13.9,0,0,13.9,309.2,957.4)" />
<use xlink:href="#f0_1y" transform="matrix(13.9,0,0,13.9,316.3,957.4)" />
<use xlink:href="#f0_1v" transform="matrix(13.9,0,0,13.9,327,957.4)" />
<use xlink:href="#f0_1v" transform="matrix(13.9,0,0,13.9,333,957.4)" />
<use xlink:href="#f0_1y" transform="matrix(13.9,0,0,13.9,338.9,957.4)" />
<use xlink:href="#f0_26" transform="matrix(13.9,0,0,13.9,349.6,957.4)" />
<use xlink:href="#f0_1s" transform="matrix(13.9,0,0,13.9,365.1,957.4)" />
<use xlink:href="#f0_1x" transform="matrix(13.9,0,0,13.9,371,957.4)" />
<use xlink:href="#f0_1q" transform="matrix(13.9,0,0,13.9,381.7,957.4)" />
<use xlink:href="#f0_1k" transform="matrix(13.9,0,0,13.9,397.8,957.4)" />
<use xlink:href="#f0_21" transform="matrix(13.9,0,0,13.9,407.3,957.4)" />
<use xlink:href="#f0_1o" transform="matrix(13.9,0,0,13.9,414.4,957.4)" />
<use xlink:href="#f0_1u" transform="matrix(13.9,0,0,13.9,429.2,957.4)" />
<use xlink:href="#f0_1o" transform="matrix(13.9,0,0,13.9,439.9,957.4)" />
<use xlink:href="#f0_28" transform="matrix(13.9,0,0,13.9,449.4,957.4)" />
<use xlink:href="#f0_21" transform="matrix(13.9,0,0,13.9,465.5,957.4)" />
<use xlink:href="#f0_1y" transform="matrix(13.9,0,0,13.9,472.6,957.4)" />
<use xlink:href="#f0_1v" transform="matrix(13.9,0,0,13.9,483.3,957.4)" />
<use xlink:href="#f0_1o" transform="matrix(13.9,0,0,13.9,489.3,957.4)" />
<use xlink:href="#f0_22" transform="matrix(13.9,0,0,13.9,498.8,957.4)" />
<use xlink:href="#f0_23" transform="matrix(13.9,0,0,13.9,512.4,957.4)" />
<use xlink:href="#f0_1r" transform="matrix(13.9,0,0,13.9,518.4,957.4)" />
<use xlink:href="#f0_1k" transform="matrix(13.9,0,0,13.9,529.1,957.4)" />
<use xlink:href="#f0_23" transform="matrix(13.9,0,0,13.9,538.6,957.4)" />
<use xlink:href="#f0_26" transform="matrix(13.9,0,0,13.9,549.9,957.4)" />
<use xlink:href="#f0_1s" transform="matrix(13.9,0,0,13.9,565.3,957.4)" />
<use xlink:href="#f0_1v" transform="matrix(13.9,0,0,13.9,571.3,957.4)" />
<use xlink:href="#f0_1v" transform="matrix(13.9,0,0,13.9,577.1,957.4)" />
<use xlink:href="#f0_1l" transform="matrix(13.9,0,0,13.9,588.4,957.4)" />
<use xlink:href="#f0_1o" transform="matrix(13.9,0,0,13.9,599.1,957.4)" />
<use xlink:href="#f0_21" transform="matrix(13.9,0,0,13.9,613.9,957.4)" />
<use xlink:href="#f0_1o" transform="matrix(13.9,0,0,13.9,621,957.4)" />
<use xlink:href="#f0_20" transform="matrix(13.9,0,0,13.9,630.5,957.4)" />
<use xlink:href="#f0_24" transform="matrix(13.9,0,0,13.9,641.2,957.4)" />
<use xlink:href="#f0_1s" transform="matrix(13.9,0,0,13.9,651.9,957.4)" />
<use xlink:href="#f0_21" transform="matrix(13.9,0,0,13.9,657.9,957.4)" />
<use xlink:href="#f0_1o" transform="matrix(13.9,0,0,13.9,665,957.4)" />
<use xlink:href="#f0_1n" transform="matrix(13.9,0,0,13.9,674.5,957.4)" />
<use xlink:href="#f0_23" transform="matrix(13.9,0,0,13.9,690.6,957.4)" />
<use xlink:href="#f0_1y" transform="matrix(13.9,0,0,13.9,696.5,957.4)" />
<use xlink:href="#f0_1k" transform="matrix(13.9,0,0,13.9,712.6,957.4)" />
<use xlink:href="#f0_1m" transform="matrix(13.9,0,0,13.9,722.1,957.4)" />
<use xlink:href="#f0_1r" transform="matrix(13.9,0,0,13.9,731.5,957.4)" />
<use xlink:href="#f0_1s" transform="matrix(13.9,0,0,13.9,742.2,957.4)" />
<use xlink:href="#f0_1o" transform="matrix(13.9,0,0,13.9,748.2,957.4)" />
<use xlink:href="#f0_25" transform="matrix(13.9,0,0,13.9,757.7,957.4)" />
<use xlink:href="#f0_1o" transform="matrix(13.9,0,0,13.9,768.4,957.4)" />
<use xlink:href="#f0_1y" transform="matrix(13.9,0,0,13.9,183.9,981.9)" />
<use xlink:href="#f0_24" transform="matrix(13.9,0,0,13.9,194.6,981.9)" />
<use xlink:href="#f0_21" transform="matrix(13.9,0,0,13.9,205.3,981.9)" />
<use xlink:href="#f0_1q" transform="matrix(13.9,0,0,13.9,217.7,981.9)" />
<use xlink:href="#f0_21" transform="matrix(13.9,0,0,13.9,228.4,981.9)" />
<use xlink:href="#f0_1y" transform="matrix(13.9,0,0,13.9,235.5,981.9)" />
<use xlink:href="#f0_26" transform="matrix(13.9,0,0,13.9,246.2,981.9)" />
<use xlink:href="#f0_23" transform="matrix(13.9,0,0,13.9,261.7,981.9)" />
<use xlink:href="#f0_1r" transform="matrix(13.9,0,0,13.9,267.6,981.9)" />
<use xlink:href="#f0_1y" transform="matrix(13.9,0,0,13.9,283.6,981.9)" />
<use xlink:href="#f0_1l" transform="matrix(13.9,0,0,13.9,294.3,981.9)" />
<use xlink:href="#f0_1t" transform="matrix(13.9,0,0,13.9,305,981.9)" />
<use xlink:href="#f0_1o" transform="matrix(13.9,0,0,13.9,311,981.9)" />
<use xlink:href="#f0_1m" transform="matrix(13.9,0,0,13.9,320.4,981.9)" />
<use xlink:href="#f0_23" transform="matrix(13.9,0,0,13.9,329.9,981.9)" />
<use xlink:href="#f0_1s" transform="matrix(13.9,0,0,13.9,335.9,981.9)" />
<use xlink:href="#f0_25" transform="matrix(13.9,0,0,13.9,341.8,981.9)" />
<use xlink:href="#f0_1o" transform="matrix(13.9,0,0,13.9,352.5,981.9)" />
<use xlink:href="#f0_22" transform="matrix(13.9,0,0,13.9,362,981.9)" />
<use xlink:href="#f0_d" transform="matrix(13.9,0,0,13.9,370.3,981.9)" />
<use xlink:href="#f1_r" transform="matrix(13.9,0,0,13.9,183.9,1031.1)" />
<use xlink:href="#f1_1x" transform="matrix(13.9,0,0,13.9,198.1,1031.1)" />
<use xlink:href="#f1_1e" transform="matrix(13.9,0,0,13.9,208.8,1031.1)" />
<use xlink:href="#f1_1c" transform="matrix(13.9,0,0,13.9,218.3,1031.1)" />
<use xlink:href="#f1_1u" transform="matrix(13.9,0,0,13.9,227.8,1031.1)" />
<use xlink:href="#f1_1t" transform="matrix(13.9,0,0,13.9,239.7,1031.1)" />
<use xlink:href="#f1_1i" transform="matrix(13.9,0,0,13.9,246.8,1031.1)" />
<use xlink:href="#f1_1v" transform="matrix(13.9,0,0,13.9,252.8,1031.1)" />
<use xlink:href="#f1_1e" transform="matrix(13.9,0,0,13.9,263.5,1031.1)" />
<use xlink:href="#f1_15" transform="matrix(13.9,0,0,13.9,278.3,1031.1)" />
<use xlink:href="#f1_1e" transform="matrix(13.9,0,0,13.9,292.6,1031.1)" />
<use xlink:href="#f1_1a" transform="matrix(13.9,0,0,13.9,302.1,1031.1)" />
<use xlink:href="#f1_1m" transform="matrix(13.9,0,0,13.9,312.8,1031.1)" />
<use xlink:href="#f0_g" transform="matrix(13.9,0,0,13.9,238,1080.2)" />
<use xlink:href="#f0_d" transform="matrix(13.9,0,0,13.9,248.7,1080.2)" />
<use xlink:href="#f0_w" transform="matrix(13.9,0,0,13.9,265.5,1080.2)" />
<use xlink:href="#f0_1r" transform="matrix(13.9,0,0,13.9,279.7,1080.2)" />
<use xlink:href="#f0_1s" transform="matrix(13.9,0,0,13.9,290.4,1080.2)" />
<use xlink:href="#f0_1o" transform="matrix(13.9,0,0,13.9,296.4,1080.2)" />
<use xlink:href="#f0_1p" transform="matrix(13.9,0,0,13.9,305.9,1080.2)" />
<use xlink:href="#f0_18" transform="matrix(13.9,0,0,13.9,318.4,1080.2)" />
<use xlink:href="#f0_1z" transform="matrix(13.9,0,0,13.9,333.8,1080.2)" />
<use xlink:href="#f0_1o" transform="matrix(13.9,0,0,13.9,344.5,1080.2)" />
<use xlink:href="#f0_21" transform="matrix(13.9,0,0,13.9,354,1080.2)" />
<use xlink:href="#f0_1k" transform="matrix(13.9,0,0,13.9,361.1,1080.2)" />
<use xlink:href="#f0_23" transform="matrix(13.9,0,0,13.9,370.6,1080.2)" />
<use xlink:href="#f0_1s" transform="matrix(13.9,0,0,13.9,376.6,1080.2)" />
<use xlink:href="#f0_1x" transform="matrix(13.9,0,0,13.9,382.5,1080.2)" />
<use xlink:href="#f0_1q" transform="matrix(13.9,0,0,13.9,393.2,1080.2)" />
<use xlink:href="#f0_18" transform="matrix(13.9,0,0,13.9,409.3,1080.2)" />
<use xlink:href="#f0_1p" transform="matrix(13.9,0,0,13.9,424.7,1080.2)" />
<use xlink:href="#f0_1p" transform="matrix(13.9,0,0,13.9,431.8,1080.2)" />
<use xlink:href="#f0_1s" transform="matrix(13.9,0,0,13.9,439,1080.2)" />
<use xlink:href="#f0_1m" transform="matrix(13.9,0,0,13.9,444.9,1080.2)" />
<use xlink:href="#f0_1o" transform="matrix(13.9,0,0,13.9,454.4,1080.2)" />
<use xlink:href="#f0_21" transform="matrix(13.9,0,0,13.9,463.9,1080.2)" />
<use xlink:href="#f0_h" transform="matrix(13.9,0,0,13.9,238,1104.8)" />
<use xlink:href="#f0_d" transform="matrix(13.9,0,0,13.9,248.7,1104.8)" />
<use xlink:href="#f0_1f" transform="matrix(13.9,0,0,13.9,265.5,1104.8)" />
<use xlink:href="#f0_19" transform="matrix(13.9,0,0,13.9,280.9,1104.8)" />
<use xlink:href="#f0_1y" transform="matrix(13.9,0,0,13.9,298.2,1104.8)" />
<use xlink:href="#f0_1p" transform="matrix(13.9,0,0,13.9,308.9,1104.8)" />
<use xlink:href="#f0_z" transform="matrix(13.9,0,0,13.9,321.3,1104.8)" />
<use xlink:href="#f0_1s" transform="matrix(13.9,0,0,13.9,333.2,1104.8)" />
<use xlink:href="#f0_1x" transform="matrix(13.9,0,0,13.9,339.2,1104.8)" />
<use xlink:href="#f0_1k" transform="matrix(13.9,0,0,13.9,349.9,1104.8)" />
<use xlink:href="#f0_1x" transform="matrix(13.9,0,0,13.9,359.4,1104.8)" />
<use xlink:href="#f0_1m" transform="matrix(13.9,0,0,13.9,370.1,1104.8)" />
<use xlink:href="#f0_1o" transform="matrix(13.9,0,0,13.9,379.6,1104.8)" />
<use xlink:href="#f0_i" transform="matrix(13.9,0,0,13.9,238,1129.3)" />
<use xlink:href="#f0_d" transform="matrix(13.9,0,0,13.9,248.7,1129.3)" />
<use xlink:href="#f0_1f" transform="matrix(13.9,0,0,13.9,265.5,1129.3)" />
<use xlink:href="#f0_19" transform="matrix(13.9,0,0,13.9,280.9,1129.3)" />
<use xlink:href="#f0_1y" transform="matrix(13.9,0,0,13.9,298.2,1129.3)" />
<use xlink:href="#f0_1p" transform="matrix(13.9,0,0,13.9,308.9,1129.3)" />
<use xlink:href="#f0_1c" transform="matrix(13.9,0,0,13.9,321.3,1129.3)" />
<use xlink:href="#f0_1k" transform="matrix(13.9,0,0,13.9,333.2,1129.3)" />
<use xlink:href="#f0_1v" transform="matrix(13.9,0,0,13.9,342.7,1129.3)" />
<use xlink:href="#f0_1o" transform="matrix(13.9,0,0,13.9,348.7,1129.3)" />
<use xlink:href="#f0_22" transform="matrix(13.9,0,0,13.9,358.1,1129.3)" />
<use xlink:href="#f0_e" transform="matrix(13.9,0,0,13.9,371.8,1129.3)" />
<use xlink:href="#f0_v" transform="matrix(13.9,0,0,13.9,383.1,1129.3)" />
<use xlink:href="#f0_24" transform="matrix(13.9,0,0,13.9,397.4,1129.3)" />
<use xlink:href="#f0_22" transform="matrix(13.9,0,0,13.9,408.1,1129.3)" />
<use xlink:href="#f0_1s" transform="matrix(13.9,0,0,13.9,416.4,1129.3)" />
<use xlink:href="#f0_1x" transform="matrix(13.9,0,0,13.9,422.3,1129.3)" />
<use xlink:href="#f0_1o" transform="matrix(13.9,0,0,13.9,433,1129.3)" />
<use xlink:href="#f0_22" transform="matrix(13.9,0,0,13.9,442.5,1129.3)" />
<use xlink:href="#f0_22" transform="matrix(13.9,0,0,13.9,450.8,1129.3)" />
<use xlink:href="#f0_x" transform="matrix(13.9,0,0,13.9,464.5,1129.3)" />
<use xlink:href="#f0_1o" transform="matrix(13.9,0,0,13.9,479.9,1129.3)" />
<use xlink:href="#f0_25" transform="matrix(13.9,0,0,13.9,489.4,1129.3)" />
<use xlink:href="#f0_1o" transform="matrix(13.9,0,0,13.9,500.1,1129.3)" />
<use xlink:href="#f0_1v" transform="matrix(13.9,0,0,13.9,509.6,1129.3)" />
<use xlink:href="#f0_1y" transform="matrix(13.9,0,0,13.9,515.6,1129.3)" />
<use xlink:href="#f0_1z" transform="matrix(13.9,0,0,13.9,526.3,1129.3)" />
<use xlink:href="#f0_1w" transform="matrix(13.9,0,0,13.9,537,1129.3)" />
<use xlink:href="#f0_1o" transform="matrix(13.9,0,0,13.9,553.6,1129.3)" />
<use xlink:href="#f0_1x" transform="matrix(13.9,0,0,13.9,563.1,1129.3)" />
<use xlink:href="#f0_23" transform="matrix(13.9,0,0,13.9,573.8,1129.3)" />
</g>
</g>
<defs>
<path d="M33,0V27c0,0,264,241,371,393c0,0,108,152,108,278c0,0,0,96,-59,158c0,0,-59,62,-141,62c0,0,-75,0,-134,-43c0,0,-59,-44,-88,-128H63c0,0,18,138,95,212c0,0,77,74,193,74c0,0,123,0,205,-80c0,0,83,-79,83,-186c0,0,0,-77,-36,-154c0,0,-55,-121,-179,-256C424,357,238,154,191,112H455c0,0,81,0,114,6c0,0,32,6,58,25c0,0,27,18,46,52h27L630,0Z" 
id="f0_h"
transform="scale(0.001,-0.001)" />

<path d="M275,-20L578,891H299c0,0,-84,0,-120,-20c0,0,-63,-35,-101,-106l-21,8l97,239H696V983L359,-20Z" 
id="f0_m"
transform="scale(0.001,-0.001)" />

<path d="M336,-20L117,554c0,0,-21,55,-42,74c0,0,-21,19,-66,29v26H296V657c0,0,-40,-3,-52,-14c0,0,-13,-12,-13,-33c0,0,0,-23,13,-56L390,162L537,481L498,581c0,0,-18,46,-47,63c0,0,-17,11,-61,13v26H716V657c0,0,-54,-2,-77,-20c0,0,-15,-12,-15,-39c0,0,0,-15,6,-30L785,177L929,554c0,0,15,40,15,65c0,0,0,14,-15,25c0,0,-14,12,-57,13v26h216V657c0,0,-65,-10,-95,-89L764,-20H733L563,415L363,-20Z" 
id="f0_26"
transform="scale(0.001,-0.001)" />

<path d="M479,469c0,0,-4,66,-16,93c0,0,-18,42,-55,65c0,0,-37,24,-78,24c0,0,-62,0,-111,-48c0,0,-48,-48,-57,-134ZM355,-20c0,0,-123,0,-211,95c0,0,-87,96,-87,258c0,0,0,175,90,273c0,0,89,98,225,98c0,0,115,0,189,-76c0,0,74,-75,74,-202H162c0,0,0,-152,74,-239c0,0,75,-86,175,-86c0,0,67,0,117,36c0,0,50,37,83,127l24,-15c0,0,-16,-102,-91,-186c0,0,-76,-83,-189,-83Z" 
id="f0_1o"
transform="scale(0.001,-0.001)" />

<path d="M55,0V26c0,0,50,0,67,10c0,0,17,10,27,32c0,0,10,23,10,86V418c0,0,0,111,-6,144c0,0,-6,24,-17,33c0,0,-11,10,-30,10c0,0,-21,0,-51,-11L45,620l206,83h33V154c0,0,0,-64,9,-85c0,0,9,-22,27,-32c0,0,19,-11,67,-11V0ZM222,909c0,0,-32,0,-54,23c0,0,-22,22,-22,53c0,0,0,32,22,54c0,0,22,22,54,22c0,0,31,0,53,-22c0,0,22,-22,22,-54c0,0,0,-31,-22,-53c0,0,-22,-23,-53,-23Z" 
id="f0_1s"
transform="scale(0.001,-0.001)" />

<path d="M58,0V26c0,0,47,0,64,10c0,0,18,10,28,32c0,0,9,23,9,86V775c0,0,0,116,-5,142c0,0,-5,27,-17,37c0,0,-11,9,-29,9c0,0,-20,0,-49,-12L46,978l204,83h34V154c0,0,0,-64,9,-85c0,0,9,-21,29,-32c0,0,19,-11,72,-11V0Z" 
id="f0_1v"
transform="scale(0.001,-0.001)" />

<path d="M342,-20c0,0,-116,0,-203,97c0,0,-86,98,-86,264c0,0,0,161,96,261c0,0,95,101,230,101c0,0,100,0,165,-53c0,0,65,-54,65,-111c0,0,0,-29,-18,-46c0,0,-18,-18,-51,-18c0,0,-44,0,-66,29c0,0,-13,15,-17,59c0,0,-4,45,-30,68c0,0,-26,22,-73,22c0,0,-74,0,-120,-55c0,0,-60,-73,-60,-193c0,0,0,-122,60,-216c0,0,60,-93,162,-93c0,0,73,0,131,49c0,0,41,35,80,126l22,-10C629,261,601,125,521,52c0,0,-81,-72,-179,-72Z" 
id="f0_1m"
transform="scale(0.001,-0.001)" />

<path d="M406,32c0,0,72,0,119,60c0,0,47,59,47,205c0,0,0,181,-78,286c0,0,-53,71,-135,71c0,0,-40,0,-79,-23c0,0,-40,-24,-65,-83c0,0,-24,-58,-24,-151c0,0,0,-149,59,-257c0,0,59,-108,156,-108ZM374,-20c0,0,-154,0,-245,122c0,0,-77,104,-77,233c0,0,0,94,46,187c0,0,47,92,123,137c0,0,76,44,161,44c0,0,155,0,249,-118c0,0,80,-100,80,-231c0,0,0,-91,-44,-185C667,169,623,75,546,27c0,0,-77,-47,-172,-47Z" 
id="f0_1y"
transform="scale(0.001,-0.001)" />

<path d="M21,0V26H35c0,0,53,0,71,27c0,0,18,27,18,101V408c0,0,0,123,-5,150c0,0,-6,27,-17,37c0,0,-12,10,-31,10c0,0,-21,0,-50,-11L10,620l206,83h32V558c0,0,120,145,229,145c0,0,56,0,96,-28c0,0,40,-28,64,-92c0,0,16,-45,16,-137V154c0,0,0,-65,11,-88c0,0,8,-19,26,-29c0,0,18,-11,68,-11V0H419V26h14c0,0,47,0,66,15c0,0,20,15,27,43c0,0,3,11,3,70V434c0,0,0,93,-24,135c0,0,-24,42,-81,42c0,0,-88,0,-176,-97V154c0,0,0,-69,9,-86c0,0,10,-21,28,-31c0,0,19,-11,75,-11V0Z" 
id="f0_1x"
transform="scale(0.001,-0.001)" />

<path d="M255,-10c0,0,-35,0,-68,18c0,0,-32,19,-48,55c0,0,-16,35,-16,109V632H15v24c0,0,41,16,84,56c0,0,43,39,77,92c0,0,17,29,48,104h23V683H407V632H247V188c0,0,0,-66,19,-90c0,0,19,-23,49,-23c0,0,24,0,47,16c0,0,23,15,36,45h29c0,0,-26,-73,-74,-110c0,0,-47,-36,-98,-36Z" 
id="f0_23"
transform="scale(0.001,-0.001)" />

<path d="M292,-20c0,0,-57,0,-100,33c0,0,-42,33,-58,85c0,0,-17,52,-17,148V551c0,0,0,49,-10,68c0,0,-11,18,-31,29c0,0,-19,9,-68,9c-2,0,-4,0,-6,0v26H242V226c0,0,0,-95,33,-125c0,0,33,-30,80,-30c0,0,32,0,73,21c0,0,40,20,96,76V555c0,0,0,59,-21,80c0,0,-22,21,-89,22v26H647V269c0,0,0,-119,6,-145c0,0,6,-27,18,-37c0,0,12,-11,29,-11c0,0,23,0,52,13L763,63L558,-20H524V124C524,124,436,29,390,4c0,0,-47,-24,-98,-24Z" 
id="f0_24"
transform="scale(0.001,-0.001)" />

<path d="M312,-20c0,0,-62,0,-143,22c0,0,-25,8,-40,8c0,0,-18,0,-27,-19H77V234h25c0,0,21,-105,80,-158c0,0,59,-53,132,-53c0,0,51,0,84,31c0,0,32,30,32,72c0,0,0,52,-36,87c0,0,-36,35,-144,88c0,0,-109,54,-142,97c0,0,-34,43,-34,107c0,0,0,85,58,141c0,0,58,57,150,57c0,0,40,0,97,-17c0,0,38,-11,51,-11c0,0,12,0,19,5c0,0,7,5,15,23h25V470H464c0,0,-28,110,-72,149c0,0,-45,40,-113,40c0,0,-53,0,-85,-28c0,0,-32,-27,-32,-61c0,0,0,-41,24,-71c0,0,23,-31,94,-65L389,381c0,0,152,-74,152,-194c0,0,0,-94,-71,-151c0,0,-70,-56,-158,-56Z" 
id="f0_22"
transform="scale(0.001,-0.001)" />

<path d="M286,72c0,0,57,0,149,75V407c0,0,-113,-45,-145,-64c0,0,-59,-32,-85,-68c0,0,-25,-36,-25,-78c0,0,0,-54,32,-89c0,0,32,-36,74,-36ZM217,-13c0,0,-71,0,-116,48c0,0,-46,48,-46,127c0,0,0,50,22,87c0,0,31,50,106,95c0,0,76,45,252,109v26c0,0,0,102,-32,140c0,0,-32,38,-94,38c0,0,-47,0,-74,-25c0,0,-28,-25,-28,-58l1,-43c0,0,0,-34,-17,-53c0,0,-18,-18,-47,-18c0,0,-28,0,-45,19c0,0,-18,19,-18,53c0,0,0,64,66,117c0,0,65,54,184,54c0,0,91,0,149,-31c0,0,44,-23,65,-72c0,0,13,-32,13,-131V238c0,0,0,-98,4,-120c0,0,4,-22,12,-29c0,0,9,-8,20,-8c0,0,12,0,21,5c0,0,16,10,61,55V99C676,99,592,-12,516,-12c0,0,-37,0,-58,24c0,0,-22,26,-23,86C435,98,330,17,303,5c0,0,-40,-18,-86,-18Z" 
id="f0_1k"
transform="scale(0.001,-0.001)" />

<path d="M17,0V26c0,0,52,0,77,17c0,0,19,12,26,38c0,0,4,13,4,73V419c0,0,0,119,-5,142c0,0,-4,23,-17,33c0,0,-13,11,-33,11c0,0,-23,0,-52,-11l-7,26l207,83h31V549c0,0,86,154,176,154c0,0,41,0,68,-25c0,0,27,-25,27,-58c0,0,0,-29,-20,-49c0,0,-19,-20,-46,-20c0,0,-26,0,-58,25c0,0,-33,26,-48,26c0,0,-14,0,-29,-15c0,0,-34,-30,-70,-101V159c0,0,0,-56,15,-85c0,0,9,-20,34,-34c0,0,24,-14,71,-14V0Z" 
id="f0_21"
transform="scale(0.001,-0.001)" />

<path d="M411,-239c0,0,134,0,198,48c0,0,64,47,64,100c0,0,0,39,-38,55c0,0,-39,16,-154,19c0,0,-167,5,-258,17c0,0,-35,-37,-53,-70c0,0,-17,-32,-17,-60c0,0,0,-36,43,-62c0,0,74,-47,215,-47ZM380,257c0,0,56,0,93,43c0,0,36,42,36,133c0,0,0,118,-51,185c0,0,-38,49,-98,49c0,0,-55,0,-92,-44c0,0,-37,-44,-37,-135c0,0,0,-117,50,-182c0,0,39,-49,99,-49ZM345,-328c0,0,-144,0,-243,64c0,0,-56,38,-56,78c0,0,0,18,8,36c0,0,13,27,52,76c0,0,5,7,76,80c0,0,-39,23,-55,41c0,0,-16,19,-16,42c0,0,0,26,22,61c0,0,21,35,98,100c0,0,-63,30,-97,85c0,0,-33,55,-33,121c0,0,0,101,76,174c0,0,77,73,196,73c0,0,98,0,170,-48H688c0,0,32,0,37,-2c0,0,6,-2,8,-6c0,0,4,-7,4,-24c0,0,0,-20,-4,-27c0,0,-2,-4,-7,-6c0,0,-6,-2,-38,-2H599c0,0,41,-54,41,-137c0,0,0,-96,-73,-163c0,0,-73,-68,-196,-68c0,0,-51,0,-104,15c0,0,-33,-28,-44,-49c0,0,-12,-22,-12,-37c0,0,0,-12,13,-24c0,0,12,-12,48,-17c0,0,21,-4,104,-6c0,0,154,-4,199,-11c0,0,70,-10,111,-51c0,0,42,-41,42,-102c0,0,0,-84,-79,-158c0,0,-117,-108,-304,-108Z" 
id="f0_1q"
transform="scale(0.001,-0.001)" />

<path d="M20,0V26c0,0,45,0,71,15c0,0,15,7,24,28c0,0,9,21,9,85V773c0,0,0,117,-5,144c0,0,-6,27,-17,37c0,0,-12,9,-31,9c0,0,-16,0,-51,-12L10,978l204,83h34V561c0,0,83,91,131,116c0,0,49,26,97,26c0,0,58,0,100,-32c0,0,42,-32,62,-101c0,0,14,-47,14,-174V154c0,0,0,-65,11,-89c0,0,7,-18,25,-28c0,0,18,-11,66,-11V0H418V26h15c0,0,48,0,67,15c0,0,18,15,26,43c0,0,2,12,2,70V396c0,0,0,112,-12,147c0,0,-11,35,-36,53c0,0,-26,17,-61,17c0,0,-37,0,-76,-19c0,0,-40,-20,-95,-79V154c0,0,0,-70,8,-87c0,0,8,-17,29,-29c0,0,22,-12,74,-12V0Z" 
id="f0_1r"
transform="scale(0.001,-0.001)" />

<path d="M23,0V26c0,0,47,0,66,10c0,0,19,11,28,33c0,0,10,22,10,85V416c0,0,0,112,-7,145c0,0,-5,25,-16,34c0,0,-11,10,-31,10c0,0,-21,0,-50,-11L12,620l207,83h32V557c0,0,75,75,88,86c0,0,34,29,72,44c0,0,39,16,77,16c0,0,64,0,110,-37c0,0,47,-38,62,-109c0,0,77,90,130,118c0,0,53,28,109,28c0,0,54,0,96,-28c0,0,42,-28,67,-91c0,0,16,-43,16,-136V154c0,0,0,-64,10,-88c0,0,8,-16,28,-28c0,0,20,-12,65,-12V0H844V26h14c0,0,44,0,69,18c0,0,17,12,24,38c0,0,3,13,3,72V448c0,0,0,83,-20,117c0,0,-29,48,-93,48c0,0,-39,0,-79,-20c0,0,-40,-19,-97,-73l-1,-8l2,-32V154c0,0,0,-70,8,-87c0,0,7,-17,29,-29c0,0,21,-12,73,-12V0H431V26c0,0,57,0,78,14c0,0,21,13,29,40c0,0,4,13,4,74V448c0,0,0,83,-25,120c0,0,-33,48,-91,48c0,0,-40,0,-80,-22c0,0,-61,-33,-95,-74V154c0,0,0,-67,10,-87c0,0,9,-20,27,-30c0,0,18,-11,74,-11V0Z" 
id="f0_1w"
transform="scale(0.001,-0.001)" />

<path d="M397,34c0,0,67,0,126,75c0,0,58,74,58,216c0,0,0,131,-58,201c0,0,-59,70,-133,70c0,0,-39,0,-79,-20c0,0,-29,-14,-75,-59V109c0,0,37,-37,78,-56c0,0,40,-19,83,-19ZM358,-20c0,0,-59,0,-121,21c0,0,-61,22,-126,65V773c0,0,0,117,-5,144c0,0,-6,27,-18,37c0,0,-12,9,-29,9c0,0,-21,0,-53,-12l-9,27l205,83h34V564c0,0,98,139,213,139c0,0,105,0,183,-90c0,0,78,-90,78,-245c0,0,0,-182,-121,-293c0,0,-103,-95,-231,-95Z" 
id="f0_1l"
transform="scale(0.001,-0.001)" />

<path d="M145,-328c0,0,-44,0,-73,25c0,0,-28,25,-28,58c0,0,0,31,21,50c0,0,20,19,56,19c0,0,25,0,67,-16c0,0,30,-11,38,-11c0,0,22,0,49,23c0,0,26,23,53,89L376,28L131,542c0,0,-11,24,-36,58c0,0,-19,27,-30,36c0,0,-18,12,-56,21v26H328V657H312c0,0,-33,0,-50,-15c0,0,-17,-14,-17,-36c0,0,0,-30,25,-81L437,179L589,557c0,0,12,31,12,62c0,0,0,13,-5,20c0,0,-6,8,-19,13c0,0,-12,5,-44,5v26H754V657c0,0,-27,-3,-42,-12c0,0,-15,-9,-33,-34c0,0,-7,-10,-25,-58L376,-128c0,0,-40,-99,-105,-150c0,0,-66,-50,-126,-50Z" 
id="f0_28"
transform="scale(0.001,-0.001)" />

<path d="M399,62c0,0,68,0,131,68V481c0,0,-5,51,-27,93c0,0,-22,42,-59,63c0,0,-37,21,-72,21c0,0,-65,0,-117,-59c0,0,-67,-77,-67,-226c0,0,0,-151,65,-231c0,0,66,-80,146,-80ZM330,-20c0,0,-112,0,-196,93c0,0,-83,94,-83,240c0,0,0,147,92,269c0,0,93,122,238,122c0,0,90,0,149,-58V773c0,0,0,117,-6,144c0,0,-5,27,-17,37c0,0,-12,9,-30,9c0,0,-20,0,-52,-12l-9,27l204,83h33V270c0,0,0,-120,6,-146c0,0,5,-27,18,-37c0,0,12,-11,28,-11c0,0,21,0,54,13l9,-26L564,-20H530V78C530,78,480,25,432,2c0,0,-47,-22,-102,-22Z" 
id="f0_1n"
transform="scale(0.001,-0.001)" />

<path d="M197,0V27c0,0,71,2,92,13c0,0,21,10,29,29c0,0,9,18,9,109V725c0,0,0,110,-8,141c0,0,-5,24,-19,35c0,0,-14,11,-33,11c0,0,-28,0,-77,-23l-11,23l246,121h25V178c0,0,0,-85,7,-106c0,0,7,-21,29,-32c0,0,23,-11,91,-13V0Z" 
id="f0_g"
transform="scale(0.001,-0.001)" />

<path d="M379,29c0,0,41,0,84,37c0,0,43,36,65,121c0,0,34,128,34,362c0,0,0,173,-35,288c0,0,-27,86,-69,122c0,0,-31,25,-74,25c0,0,-51,0,-90,-46c0,0,-54,-62,-73,-195c0,0,-20,-132,-20,-261c0,0,0,-209,52,-341c0,0,42,-112,126,-112Zm-2,-46c0,0,-145,0,-241,170c0,0,-81,144,-81,347c0,0,0,173,52,298c0,0,52,125,139,186c0,0,67,49,139,49c0,0,116,0,208,-119c0,0,116,-147,116,-398c0,0,0,-176,-51,-299C658,217,608,94,529,38c0,0,-79,-55,-152,-55Z" 
id="f0_f"
transform="scale(0.001,-0.001)" />

<path d="M379,437c0,0,34,0,81,16c0,0,47,17,83,47c0,0,14,97,14,155c0,0,0,72,-25,156c0,0,-25,83,-70,128c0,0,-45,45,-103,45c0,0,-66,0,-116,-60c0,0,-50,-59,-50,-177c0,0,0,-157,66,-246c0,0,49,-64,120,-64ZM80,-20V7c0,0,97,1,181,45c0,0,83,44,161,153c0,0,78,109,109,240c0,0,-117,-75,-212,-75c0,0,-107,0,-183,82c0,0,-76,82,-76,219c0,0,0,132,76,236c0,0,92,126,240,126c0,0,124,0,213,-103c0,0,109,-128,109,-315c0,0,0,-169,-82,-314C616,301,533,155,385,59c0,0,-120,-79,-262,-79Z" 
id="f0_o"
transform="scale(0.001,-0.001)" />

<path d="M191,-20c0,0,-34,0,-58,24c0,0,-24,24,-24,58c0,0,0,35,24,59c0,0,24,24,58,24c0,0,35,0,59,-24c0,0,24,-25,24,-59c0,0,0,-34,-24,-58c0,0,-25,-24,-59,-24Z" 
id="f0_d"
transform="scale(0.001,-0.001)" />

<path d="M29,0V27H63c0,0,44,0,71,16c0,0,19,11,30,36c0,0,8,18,8,94V839c0,0,0,69,-4,84c0,0,-7,27,-27,41c0,0,-29,21,-78,21H29v27H877V713H850c0,0,-22,109,-61,157c0,0,-39,48,-111,70c0,0,-42,13,-158,13H416V542h20c0,0,97,0,140,60c0,0,44,60,56,178h27V251H632c0,0,-9,87,-38,142c0,0,-29,55,-67,74c0,0,-39,19,-111,19V201c0,0,0,-84,7,-103c0,0,7,-18,26,-30c0,0,20,-12,63,-12h60c0,0,142,0,228,65c0,0,86,66,123,201h28L905,0Z" 
id="f1_r"
transform="scale(0.001,-0.001)" />

<path d="M34,0V26c0,0,51,0,93,28c0,0,42,28,123,147l58,85L188,509c0,0,-59,109,-88,133c0,0,-29,25,-65,28v27H419V669L362,656c0,0,-6,-6,-6,-18c0,0,0,-11,4,-23c0,0,2,-5,20,-40L435,473l27,41c0,0,60,82,60,115c0,0,0,15,-13,26c0,0,-13,11,-47,15v27H710V670c0,0,-46,-2,-85,-28c0,0,-40,-27,-89,-103L460,427L584,198c0,0,62,-121,99,-153c0,0,20,-17,55,-19V0H349V26c0,0,46,4,57,12c0,0,11,9,11,23c0,0,0,21,-24,66L332,240L281,165c0,0,-35,-52,-39,-62c0,0,-6,-14,-6,-25c0,0,0,-17,7,-29c0,0,7,-11,19,-17c0,0,13,-6,45,-6V0Z" 
id="f1_1x"
transform="scale(0.001,-0.001)" />

<path d="M458,424c0,0,0,120,-13,165c0,0,-13,44,-40,67c0,0,-16,14,-42,14c0,0,-39,0,-63,-38c0,0,-44,-66,-44,-182V424ZM358,-20c0,0,-155,0,-235,119c0,0,-64,96,-64,239c0,0,0,174,94,277c0,0,94,104,221,104c0,0,106,0,184,-87c0,0,78,-87,84,-257H259c0,0,7,-139,74,-220c0,0,51,-62,124,-62c0,0,45,0,81,25c0,0,37,25,79,90l25,-16C642,192,585,76,517,28c0,0,-69,-48,-159,-48Z" 
id="f1_1e"
transform="scale(0.001,-0.001)" />

<path d="M365,-20c0,0,-139,0,-223,105c0,0,-83,105,-83,253c0,0,0,142,76,250c0,0,92,131,253,131c0,0,108,0,172,-55c0,0,63,-54,63,-121c0,0,0,-43,-25,-68c0,0,-26,-25,-68,-25c0,0,-44,0,-73,29c0,0,-28,29,-35,104c0,0,-5,47,-22,65c0,0,-17,19,-40,19c0,0,-36,0,-61,-38c0,0,-39,-58,-39,-176c0,0,0,-99,31,-188c0,0,32,-90,86,-134c0,0,41,-32,97,-32c0,0,36,0,69,17c0,0,33,17,78,65l23,-18C644,163,595,70,521,25c0,0,-73,-45,-156,-45Z" 
id="f1_1c"
transform="scale(0.001,-0.001)" />

<path d="M304,-20c0,0,-59,0,-105,36c0,0,-45,36,-61,84c0,0,-16,49,-16,169V546c0,0,0,79,-14,98c0,0,-15,20,-61,26v27H331V221c0,0,0,-74,8,-96c0,0,7,-21,22,-33c0,0,15,-11,35,-11c0,0,27,0,49,14c0,0,30,20,71,78V546c0,0,0,79,-14,98c0,0,-15,20,-61,26v27H726V152c0,0,0,-81,14,-100c0,0,15,-20,61,-26V0H516V93C516,93,466,34,416,7c0,0,-50,-27,-112,-27Z" 
id="f1_1u"
transform="scale(0.001,-0.001)" />

<path d="M298,-9c0,0,-67,0,-113,36c0,0,-46,37,-58,83c0,0,-8,25,-8,137V624H28v26c0,0,94,66,161,139c0,0,66,73,115,163h25V697H494V624H329V193c0,0,0,-60,5,-78c0,0,6,-17,20,-28c0,0,14,-11,26,-11c0,0,48,0,92,75l22,-17C494,134,434,-9,298,-9Z" 
id="f1_1t"
transform="scale(0.001,-0.001)" />

<path d="M32,0V26c0,0,46,2,69,27c0,0,14,18,14,92V551c0,0,0,75,-17,95c0,0,-17,21,-66,24v27H325V145c0,0,0,-74,17,-95c0,0,17,-21,68,-24V0ZM220,804c0,0,-48,0,-82,33c0,0,-33,34,-33,82c0,0,0,48,33,82c0,0,34,33,82,33c0,0,48,0,82,-33c0,0,33,-34,33,-82c0,0,0,-48,-34,-82c0,0,-34,-33,-81,-33Z" 
id="f1_1i"
transform="scale(0.001,-0.001)" />

<path d="M367,-20L133,520c0,0,-43,98,-67,124c0,0,-17,19,-50,26v27H386V670c0,0,-35,0,-48,-13c0,0,-18,-16,-18,-39c0,0,0,-27,33,-103L468,253l91,226c0,0,40,97,40,137c0,0,0,23,-17,38c0,0,-17,14,-59,16v27H750V670c0,0,-33,-5,-54,-25c0,0,-20,-20,-62,-118L402,-20Z" 
id="f1_1v"
transform="scale(0.001,-0.001)" />

<path d="M244,0V27h34c0,0,44,0,71,16c0,0,19,11,30,36c0,0,8,18,8,94V953H314c0,0,-103,0,-149,-43c0,0,-66,-60,-83,-172H55v274H965V738H938c0,0,-24,95,-53,136c0,0,-29,41,-80,66c0,0,-28,13,-99,13H631V173c0,0,0,-78,8,-97c0,0,9,-20,34,-34c0,0,25,-15,68,-15h33V0Z" 
id="f1_15"
transform="scale(0.001,-0.001)" />

<path d="M350,115c0,0,37,0,86,42V391c0,0,-90,-53,-134,-113c0,0,-29,-41,-29,-82c0,0,0,-34,24,-60c0,0,19,-21,53,-21ZM207,-9c0,0,-59,0,-99,38c0,0,-40,40,-40,99c0,0,0,80,69,143c0,0,69,64,299,170v70c0,0,0,79,-8,100c0,0,-9,20,-33,36c0,0,-23,15,-53,15c0,0,-49,0,-80,-22c0,0,-19,-13,-19,-31c0,0,0,-16,21,-39c0,0,28,-32,28,-62c0,0,0,-36,-27,-62c0,0,-27,-26,-71,-26c0,0,-47,0,-79,29c0,0,-32,28,-32,66c0,0,0,54,43,103c0,0,42,48,118,75c0,0,76,26,158,26c0,0,99,0,157,-42c0,0,58,-43,75,-92c0,0,11,-31,11,-144V170c0,0,0,-47,3,-60c0,0,4,-12,11,-18c0,0,8,-6,18,-6c0,0,19,0,39,28L738,96c0,0,-37,-56,-77,-81c0,0,-40,-24,-90,-24c0,0,-60,0,-94,27c0,0,-33,28,-41,85C436,103,309,-9,207,-9Z" 
id="f1_1a"
transform="scale(0.001,-0.001)" />

<path d="M56,0V26c0,0,44,5,63,29c0,0,13,16,13,97V546c0,0,0,79,-15,98c0,0,-14,20,-61,26v27H341V606c0,0,57,63,106,88c0,0,49,25,108,25c0,0,67,0,112,-32c0,0,46,-31,71,-95c0,0,59,67,114,97c0,0,55,30,115,30c0,0,72,0,115,-34c0,0,43,-33,60,-84c0,0,16,-51,16,-163V152c0,0,0,-81,15,-100c0,0,14,-20,61,-26V0H873V26c0,0,42,4,63,33c0,0,13,20,13,93V452c0,0,0,93,-7,119c0,0,-8,25,-24,38c0,0,-16,12,-37,12c0,0,-32,0,-65,-24c0,0,-33,-23,-66,-70V152c0,0,0,-76,12,-95c0,0,17,-28,66,-31V0H466V26c0,0,29,2,46,15c0,0,17,13,23,31c0,0,5,18,5,80V452c0,0,0,95,-7,119c0,0,-8,24,-25,37c0,0,-18,14,-38,14c0,0,-30,0,-54,-16c0,0,-35,-23,-75,-79V152c0,0,0,-74,14,-98c0,0,15,-23,61,-28V0Z" 
id="f1_1m"
transform="scale(0.001,-0.001)" />

<path d="M553,-21L174,849c0,0,-29,67,-41,82c0,0,-19,24,-46,37c0,0,-27,13,-73,17v27H427V985c0,0,-70,-7,-91,-24c0,0,-21,-17,-21,-44c0,0,0,-38,34,-117L607,207L846,793c0,0,35,86,35,120c0,0,0,22,-22,41c0,0,-21,20,-73,28c0,0,-4,1,-13,3v27h311V985c0,0,-53,-10,-81,-35c0,0,-39,-37,-70,-112L581,-21Z" 
id="f0_1f"
transform="scale(0.001,-0.001)" />

<path d="M435,502c0,0,78,0,134,60c0,0,57,60,57,155c0,0,0,66,-27,122c0,0,-27,56,-76,84c0,0,-50,28,-112,28c0,0,-38,0,-98,-14V517c0,0,39,-8,70,-12c0,0,31,-3,52,-3ZM25,0V27H63c0,0,65,0,92,42c0,0,15,23,15,110V833c0,0,0,96,-20,119c0,0,-29,33,-87,33H25v27H396c0,0,136,0,214,-28c0,0,78,-28,132,-94c0,0,54,-67,54,-158c0,0,0,-124,-82,-202c0,0,-82,-77,-231,-77c0,0,-36,0,-79,5c0,0,-43,5,-91,16V179c0,0,0,-96,21,-119c0,0,28,-33,85,-33h39V0Z" 
id="f0_19"
transform="scale(0.001,-0.001)" />

<path d="M63,0V26H93c0,0,30,0,54,15c0,0,25,15,34,41c0,0,10,25,10,99V630H58v53H191v45c0,0,0,102,33,173c0,0,32,71,100,114c0,0,68,44,152,44c0,0,79,0,145,-51c0,0,43,-33,43,-75c0,0,0,-22,-19,-42c0,0,-20,-20,-42,-20c0,0,-17,0,-36,12c0,0,-19,13,-47,53c0,0,-28,41,-51,55c0,0,-23,14,-51,14c0,0,-35,0,-58,-18c0,0,-24,-18,-35,-57c0,0,-10,-38,-10,-197V683H491V630H315V181c0,0,0,-96,21,-122c0,0,27,-33,73,-33h62V0Z" 
id="f0_1p"
transform="scale(0.001,-0.001)" />

<path d="M31,0V27H67c0,0,36,0,68,18c0,0,24,12,32,36c0,0,9,24,9,98V836c0,0,0,96,-19,119c0,0,-27,30,-90,30H31v27H811L822,790H792c0,0,-15,80,-34,110c0,0,-19,30,-57,46c0,0,-29,11,-105,11H319V557H541c0,0,87,0,116,26c0,0,39,35,44,121h27V352H701c0,0,-11,74,-21,95c0,0,-14,26,-45,41c0,0,-30,15,-94,15H319V168c0,0,0,-67,6,-81c0,0,6,-15,21,-24c0,0,15,-8,56,-8H574c0,0,86,0,124,12c0,0,39,12,75,47c0,0,46,46,95,139h30L811,0Z" 
id="f0_y"
transform="scale(0.001,-0.001)" />

<path d="M613,-21c0,0,-293,0,-445,186C168,165,54,306,54,490c0,0,0,134,64,256c0,0,76,145,209,224c0,0,111,64,262,64c0,0,55,0,100,-9c0,0,45,-9,128,-39c0,0,42,-16,56,-16c0,0,14,0,24,13c0,0,10,13,12,51h28L963,715H937c0,0,-40,119,-102,179c0,0,-91,88,-232,88c0,0,-193,0,-294,-153c0,0,-84,-129,-84,-307c0,0,0,-144,56,-263c0,0,56,-120,146,-175c0,0,91,-56,186,-56c0,0,56,0,109,15c0,0,52,14,100,41V376c0,0,0,77,-11,101c0,0,-12,23,-36,36c0,0,-24,12,-86,12v27h392V525h-18c0,0,-58,0,-80,-39c0,0,-15,-28,-15,-110V67C968,67,882,21,799,0c0,0,-84,-21,-186,-21Z" 
id="f0_10"
transform="scale(0.001,-0.001)" />

<path d="M238,-17c0,0,-103,0,-139,25C99,8,62,33,62,62c0,0,0,22,17,38c0,0,18,16,42,16c0,0,19,0,38,-6c0,0,13,-3,58,-27c0,0,45,-23,62,-28c0,0,27,-8,59,-8c0,0,76,0,132,59c0,0,56,59,56,140c0,0,0,59,-26,115c0,0,-19,41,-42,63c0,0,-32,30,-88,54c0,0,-56,25,-114,25H232v22c0,0,59,8,118,42c0,0,59,35,86,85c0,0,27,49,27,108c0,0,0,76,-48,124c0,0,-48,47,-120,47c0,0,-116,0,-193,-124L77,819c0,0,44,102,110,158c0,0,66,56,164,56c0,0,122,0,187,-80c0,0,49,-58,49,-126c0,0,0,-110,-139,-228c0,0,93,-36,141,-104c0,0,48,-68,48,-160c0,0,0,-131,-84,-227C553,108,444,-17,238,-17Z" 
id="f0_i"
transform="scale(0.001,-0.001)" />

<path d="M473,53c0,0,173,0,287,121c0,0,114,122,114,330c0,0,0,210,-114,330c0,0,-114,121,-293,121c0,0,-67,0,-153,-21V74c0,0,95,-21,159,-21ZM26,0V27H64c0,0,64,0,91,41c0,0,16,25,16,111V833c0,0,0,95,-21,119c0,0,-29,33,-86,33H26v27H438c0,0,226,0,345,-51c0,0,118,-52,190,-172c0,0,72,-120,72,-278c0,0,0,-211,-129,-353C916,158,773,0,478,0Z" 
id="f0_x"
transform="scale(0.001,-0.001)" />

<path d="M52,0V26c0,0,44,5,62,29c0,0,13,16,13,97V546c0,0,0,79,-14,98c0,0,-15,20,-61,26v27H336V607c0,0,54,59,104,85c0,0,49,27,106,27c0,0,68,0,113,-38c0,0,44,-38,59,-94c0,0,12,-42,12,-163V152c0,0,0,-81,15,-101c0,0,14,-19,61,-25V0H452V26c0,0,40,6,57,33c0,0,12,19,12,93V462c0,0,0,86,-7,109c0,0,-6,22,-22,35c0,0,-16,12,-36,12c0,0,-64,0,-120,-92V152c0,0,0,-79,15,-100c0,0,15,-20,55,-26V0Z" 
id="f1_1n"
transform="scale(0.001,-0.001)" />

<path d="M393,-277c0,0,104,0,164,28c0,0,59,27,59,77c0,0,0,19,-11,32c0,0,-20,22,-61,30c0,0,-41,8,-218,8c0,0,-76,0,-101,-12c0,0,-42,-23,-42,-63c0,0,0,-38,44,-69c0,0,44,-31,166,-31ZM366,253c0,0,45,0,75,41c0,0,30,41,30,160c0,0,0,134,-33,183c0,0,-24,36,-68,36c0,0,-43,0,-73,-44c0,0,-30,-44,-30,-181c0,0,0,-112,29,-153c0,0,30,-42,70,-42Zm8,-581c0,0,-94,0,-171,18c0,0,-78,18,-112,51c0,0,-33,32,-33,68c0,0,0,34,25,61c0,0,26,28,96,46c0,0,-97,48,-97,132c0,0,0,51,40,100c0,0,39,48,125,84c0,0,-100,36,-145,96c0,0,-44,60,-44,138c0,0,0,103,83,178c0,0,84,75,215,75c0,0,70,0,144,-30H734V607H601c0,0,37,-36,51,-66c0,0,18,-40,18,-85c0,0,0,-74,-42,-129c0,0,-41,-55,-112,-86c0,0,-72,-31,-127,-31c0,0,-5,0,-90,4c0,0,-33,0,-56,-22c0,0,-23,-22,-23,-52c0,0,0,-27,21,-44c0,0,20,-17,66,-17l130,1c0,0,157,0,216,-34c0,0,84,-47,84,-146c0,0,0,-64,-39,-115c0,0,-38,-52,-102,-77c0,0,-96,-36,-222,-36Z" 
id="f1_1g"
transform="scale(0.001,-0.001)" />

<path d="M57,0V26c0,0,45,4,61,25c0,0,16,22,16,113V550c0,0,0,59,-6,76c0,0,-7,21,-22,30c0,0,-14,10,-49,14v27H342l1,-158c0,0,69,109,121,144c0,0,52,36,100,36c0,0,42,0,66,-26c0,0,25,-26,25,-73c0,0,0,-50,-24,-77c0,0,-25,-28,-59,-28c0,0,-39,0,-68,25c0,0,-28,26,-33,29c0,0,-8,4,-17,4c0,0,-22,0,-41,-16c0,0,-31,-26,-46,-73c0,0,-24,-72,-24,-159V122c0,0,0,-42,5,-54c0,0,9,-21,27,-30c0,0,17,-9,59,-12V0Z" 
id="f1_1r"
transform="scale(0.001,-0.001)" />

<path d="M528,92c0,0,28,0,64,12c0,0,35,13,77,37c0,0,-180,184,-276,383c0,0,-60,-25,-84,-54c0,0,-35,-42,-35,-93c0,0,0,-70,40,-140c0,0,41,-69,99,-107c0,0,57,-38,115,-38Zm45,558c0,0,78,29,104,62c0,0,27,33,27,80c0,0,0,84,-44,141c0,0,-29,38,-72,38c0,0,-35,0,-59,-28c0,0,-25,-27,-25,-74c0,0,0,-37,12,-78c0,0,12,-42,57,-141ZM370,-22c0,0,-142,0,-226,75c0,0,-83,77,-83,181c0,0,0,112,79,195c0,0,80,82,232,143c0,0,-19,48,-29,95c0,0,-10,46,-10,89c0,0,0,120,84,199c0,0,84,79,214,79c0,0,106,0,167,-52c0,0,61,-53,61,-123c0,0,0,-84,-62,-144c0,0,-63,-60,-199,-110c0,0,85,-148,247,-320c0,0,109,123,109,210c0,0,0,32,-21,54c0,0,-22,21,-64,26v29h311V575c0,0,-52,-7,-82,-31c0,0,-30,-23,-78,-109c0,0,-48,-86,-134,-191c0,0,76,-69,124,-96c0,0,33,-19,65,-19c0,0,55,0,100,72l31,-16c0,0,-62,-120,-131,-171c0,0,-53,-36,-121,-36c0,0,-58,0,-110,23c0,0,-53,25,-128,94C716,95,623,32,541,4c0,0,-83,-26,-171,-26Z" 
id="f1_4"
transform="scale(0.001,-0.001)" />

<path d="M450,515c0,0,91,0,141,54c0,0,49,54,49,167c0,0,0,113,-49,165c0,0,-50,52,-148,52H413V516c0,0,24,-1,37,-1ZM39,0V27c0,0,70,0,95,13c0,0,25,14,35,35c0,0,10,21,10,103V834c0,0,0,82,-10,104c0,0,-10,21,-36,34c0,0,-25,13,-94,13v27H480c0,0,218,0,313,-78c0,0,94,-77,94,-194c0,0,0,-99,-61,-169c0,0,-61,-70,-169,-95c0,0,-72,-18,-244,-18V178c0,0,0,-82,10,-104c0,0,10,-21,35,-34c0,0,26,-13,94,-13V0Z" 
id="f1_12"
transform="scale(0.001,-0.001)" />

<path d="M381,31c0,0,33,0,56,19c0,0,29,25,38,71c0,0,15,71,15,286c0,0,0,127,-14,174c0,0,-14,48,-42,69c0,0,-19,16,-50,16c0,0,-38,0,-65,-29c0,0,-27,-29,-36,-113c0,0,-8,-85,-8,-235c0,0,0,-80,10,-150c0,0,8,-53,35,-80c0,0,27,-28,61,-28Zm2,-51c0,0,-157,0,-242,110c0,0,-85,110,-85,256c0,0,0,150,87,261c0,0,86,112,238,112c0,0,90,0,169,-47c0,0,78,-47,119,-134c0,0,40,-86,40,-189c0,0,0,-149,-75,-249c0,0,-91,-120,-251,-120Z" 
id="f1_1o"
transform="scale(0.001,-0.001)" />

<path d="M397,69c0,0,65,0,123,103V539c0,0,-55,105,-134,105c0,0,-28,0,-46,-15c0,0,-27,-23,-45,-81c0,0,-17,-58,-17,-178c0,0,0,-132,19,-195c0,0,19,-63,53,-91c0,0,17,-15,47,-15ZM332,-20c0,0,-133,0,-211,119c0,0,-62,97,-62,238c0,0,0,112,38,202c0,0,39,89,107,134c0,0,67,46,145,46c0,0,50,0,88,-20c0,0,39,-19,83,-67V842c0,0,0,80,-7,96c0,0,-8,22,-26,32c0,0,-18,11,-68,11v31H729V209c0,0,0,-81,5,-96c0,0,6,-25,22,-36c0,0,17,-12,58,-15V37L520,-20V90C520,90,467,26,426,3c0,0,-42,-23,-94,-23Z" 
id="f1_1d"
transform="scale(0.001,-0.001)" />

<path d="M25,0V27H61c0,0,64,0,91,39c0,0,16,24,16,109V837c0,0,0,67,-15,97c0,0,-10,22,-38,36c0,0,-28,15,-90,15v27H312L678,220l363,792h285V985h-35c0,0,-64,0,-91,-39c0,0,-17,-24,-17,-109V175c0,0,0,-93,21,-116c0,0,28,-32,87,-32h35V0H898V27h36c0,0,64,0,90,39c0,0,17,24,17,109V852L649,0H625L234,852V175c0,0,0,-93,20,-116c0,0,27,-32,87,-32h35V0Z" 
id="f0_16"
transform="scale(0.001,-0.001)" />

<path d="M31,0V27H69c0,0,64,0,91,42c0,0,16,24,16,110V833c0,0,0,95,-21,119c0,0,-29,33,-86,33H31v27H488V985c0,0,-1,0,-2,0c-12,0,-81,-1,-111,-15c0,0,-32,-16,-44,-40c0,0,-12,-24,-12,-115V180c0,0,0,-62,12,-85c0,0,9,-16,27,-23c0,0,19,-7,117,-7h74c0,0,116,0,163,17c0,0,48,17,86,61c0,0,39,43,78,138l25,-6L814,0Z" 
id="f0_15"
transform="scale(0.001,-0.001)" />

<path d="M474,-326c0,0,-112,57,-188,133c0,0,-107,108,-165,254c0,0,-58,147,-58,305c0,0,0,231,114,421c0,0,114,191,297,273v-31c0,0,-92,-51,-151,-139c0,0,-59,-88,-88,-223c0,0,-30,-135,-30,-281c0,0,0,-160,25,-290c0,0,20,-102,47,-164c0,0,28,-62,75,-120c0,0,47,-57,122,-109v-29Z" 
id="f0_8"
transform="scale(0.001,-0.001)" />

<path d="M25,0V26c0,0,27,4,47,19c0,0,29,22,96,111L311,346L182,535c0,0,-55,81,-86,102c0,0,-30,20,-75,20v26H341V657c0,0,-30,0,-42,-10c0,0,-13,-11,-13,-28c0,0,0,-19,27,-56c0,0,8,-12,25,-37l48,-78l56,77c0,0,55,74,55,94c0,0,0,16,0,27c0,0,0,11,0,11v26H674V657c0,0,-37,-2,-64,-20c0,0,-37,-26,-100,-111L416,402L587,156c0,0,63,-91,89,-109c0,0,27,-18,70,-21V0H423V26c0,0,34,0,53,15c0,0,14,11,14,28c0,0,0,17,-48,87L341,302L232,157c0,0,-50,-69,-50,-82c0,0,0,-18,17,-32c0,0,17,-15,50,-17V0Z" 
id="f0_27"
transform="scale(0.001,-0.001)" />

<path d="M35,-326v29c0,0,92,51,151,139c0,0,60,87,89,221c0,0,28,136,28,282c0,0,0,159,-24,290c0,0,-19,103,-47,165c0,0,-28,62,-75,119c0,0,-46,57,-122,110v31c0,0,113,-56,188,-132c0,0,107,-109,165,-255c0,0,58,-147,58,-306c0,0,0,-231,-114,-420c0,0,-113,-191,-297,-273Z" 
id="f0_9"
transform="scale(0.001,-0.001)" />

<path d="M485,53c0,0,135,0,206,61c0,0,71,60,71,150c0,0,0,59,-32,114c0,0,-33,54,-105,85c0,0,-72,32,-179,32c0,0,-46,0,-79,-2c0,0,-33,-1,-53,-5V73c0,0,86,-20,171,-20ZM455,547c0,0,109,0,164,23c0,0,55,24,84,72c0,0,29,49,29,106c0,0,0,89,-72,151c0,0,-73,63,-212,63c0,0,-74,0,-134,-16V557c0,0,27,-5,63,-8c0,0,35,-2,78,-2ZM24,0V27H63c0,0,63,0,91,41c0,0,17,26,17,111V833c0,0,0,94,-22,119c0,0,-29,33,-86,33H24v27H462c0,0,122,0,196,-18c0,0,112,-27,171,-95c0,0,59,-68,59,-157c0,0,0,-76,-46,-136c0,0,-47,-60,-137,-89c0,0,105,-23,157,-72c0,0,73,-69,73,-168c0,0,0,-75,-48,-145C887,132,839,63,756,32C756,32,673,0,502,0Z" 
id="f0_v"
transform="scale(0.001,-0.001)" />

<path d="M441,0V26c0,0,28,1,38,9c0,0,10,8,10,22c0,0,0,17,-29,56L250,381L424,540c0,0,55,50,64,64c0,0,6,9,6,18c0,0,0,15,-12,26c0,0,-13,11,-41,12v23H738V660c0,0,-62,-1,-102,-19c0,0,-41,-17,-89,-61L372,418L547,196c0,0,73,-92,98,-117c0,0,36,-35,63,-45c0,0,18,-8,65,-8V0ZM13,0V26c0,0,52,0,78,13c0,0,16,8,24,25c0,0,11,25,11,86V773c0,0,0,118,-5,145c0,0,-5,26,-17,36c0,0,-12,10,-32,10c0,0,-15,0,-47,-13L13,978l203,83h34V154c0,0,0,-67,10,-88c0,0,9,-21,26,-30c0,0,17,-9,75,-10V0Z" 
id="f0_1u"
transform="scale(0.001,-0.001)" />

<path d="M24,0V27H60c0,0,63,0,91,37c0,0,18,24,18,115V833c0,0,0,77,-10,102c0,0,-7,18,-30,32c0,0,-32,18,-69,18H24v27H776L787,790H761c0,0,-20,71,-45,104c0,0,-26,33,-64,48c0,0,-37,15,-117,15H312V558H497c0,0,63,0,93,28c0,0,29,28,39,111h27V355H629c0,0,-1,59,-16,87c0,0,-14,27,-40,41c0,0,-26,14,-76,14H312V179c0,0,0,-77,10,-102c0,0,7,-18,31,-32c0,0,33,-18,69,-18h37V0Z" 
id="f0_z"
transform="scale(0.001,-0.001)" />

<path d="M452,373V875L97,373ZM452,0V267H23v95l470,671h82V373H711V267H575V0Z" 
id="f0_j"
transform="scale(0.001,-0.001)" />

<path d="M247,-17c0,0,-91,0,-132,30c0,0,-42,31,-42,68c0,0,0,21,17,37c0,0,18,16,44,17c0,0,19,0,34,-6c0,0,14,-7,49,-31c0,0,56,-39,113,-39c0,0,88,0,154,66c0,0,66,66,66,161c0,0,0,92,-59,171c0,0,-59,80,-163,123c0,0,-81,34,-221,39l194,393H663L605,885H301L234,750c0,0,198,-29,313,-147c0,0,100,-102,100,-239c0,0,0,-80,-33,-148c0,0,-32,-68,-81,-116c0,0,-50,-47,-110,-77c0,0,-86,-40,-176,-40Z" 
id="f0_k"
transform="scale(0.001,-0.001)" />

<path d="M376,-20L133,556c0,0,-17,41,-31,58c0,0,-15,18,-39,30c0,0,-12,7,-50,13v26H335V657H314c0,0,-29,0,-44,-14c0,0,-16,-14,-15,-38c0,0,-1,-26,15,-62L429,165L588,557c0,0,17,42,17,64c0,0,0,10,-6,17c0,0,-8,11,-21,15c0,0,-13,4,-52,4v26H750V657c0,0,-39,-3,-54,-16c0,0,-26,-23,-47,-76L409,-20Z" 
id="f0_25"
transform="scale(0.001,-0.001)" />

<path d="M62,286V399H448V286Z" 
id="f0_c"
transform="scale(0.001,-0.001)" />

<path d="M398,24c0,0,74,0,120,58c0,0,61,76,61,214c0,0,0,156,-69,240c0,0,-47,59,-113,59c0,0,-36,0,-71,-18c0,0,-27,-14,-88,-81V242c0,0,0,-83,6,-109c0,0,11,-43,51,-76c0,0,41,-33,103,-33ZM-4,-326v27H15c5,0,42,0,69,16c0,0,14,8,22,26c0,0,7,19,7,94V481c0,0,0,67,-6,85c0,0,-5,18,-18,27c0,0,-13,9,-36,9c0,0,-18,0,-45,-10L0,615l209,85h29V540c0,0,53,91,106,127c0,0,53,36,112,36c0,0,103,0,172,-80c0,0,84,-99,84,-257c0,0,0,-176,-102,-292c0,0,-83,-94,-210,-94c0,0,-55,0,-95,16c0,0,-30,10,-67,44V-167c0,0,0,-71,8,-90c0,0,9,-20,30,-31c0,0,21,-11,77,-11v-27Z" 
id="f0_1z"
transform="scale(0.001,-0.001)" />

<path d="M107,-21V325h27c0,0,19,-109,52,-163c0,0,33,-54,100,-90c0,0,68,-36,148,-36c0,0,93,0,148,49c0,0,54,50,54,117c0,0,0,37,-21,75c0,0,-20,38,-64,71c0,0,-29,22,-159,95c0,0,-130,72,-185,115c0,0,-55,44,-83,96c0,0,-28,52,-28,114c0,0,0,109,83,188c0,0,84,78,213,78c0,0,81,0,171,-39c0,0,42,-19,59,-19c0,0,20,0,32,11c0,0,12,12,20,47h27V684H674c0,0,-14,101,-48,161c0,0,-35,60,-100,95c0,0,-64,35,-133,35c0,0,-77,0,-128,-47c0,0,-51,-48,-51,-108c0,0,0,-46,32,-84c0,0,47,-56,221,-149c0,0,142,-76,194,-117c0,0,51,-41,80,-96c0,0,28,-55,28,-115c0,0,0,-115,-90,-198c0,0,-89,-82,-229,-82c0,0,-44,0,-83,6c0,0,-23,4,-95,27c0,0,-73,24,-93,24c0,0,-18,0,-29,-11c0,0,-11,-12,-16,-46Z" 
id="f0_1c"
transform="scale(0.001,-0.001)" />

<path d="M356,519c0,0,145,0,218,63c0,0,74,63,74,160c0,0,0,95,-60,154c0,0,-59,59,-157,59c0,0,-43,0,-117,-13V520c0,0,14,0,25,0c0,0,10,-1,17,-1ZM26,0V27H64c0,0,64,0,92,42c0,0,15,23,15,110V833c0,0,0,96,-21,119c0,0,-29,33,-86,33H26v27H395c0,0,161,0,238,-24c0,0,76,-23,129,-86c0,0,54,-63,54,-151c0,0,0,-93,-61,-162c0,0,-61,-68,-189,-97L775,202c0,0,72,-100,123,-133c0,0,52,-33,134,-42V0H762L419,473c0,0,-38,-1,-61,-1c0,0,-10,0,-21,0c0,0,-11,0,-23,1V179c0,0,0,-96,21,-119c0,0,28,-33,84,-33h40V0Z" 
id="f0_1b"
transform="scale(0.001,-0.001)" />

<path d="M405,24c0,0,65,0,116,62c0,0,51,61,51,174c0,0,0,128,-50,221c0,0,-51,93,-144,93c0,0,-29,0,-61,-12c0,0,-33,-12,-96,-51c0,0,-14,-101,-14,-163c0,0,0,-72,27,-155c0,0,26,-84,79,-134c0,0,38,-35,92,-35ZM384,-17c0,0,-104,0,-177,68C207,51,66,185,66,397c0,0,0,136,54,258c0,0,54,122,156,217c0,0,101,95,193,128c0,0,93,33,172,33h44v-28c0,0,-99,-10,-161,-39c0,0,-62,-29,-123,-90c0,0,-61,-60,-101,-135c0,0,-39,-74,-66,-176c0,0,107,73,215,73c0,0,104,0,180,-83c0,0,76,-84,76,-215c0,0,0,-126,-77,-231c0,0,-92,-126,-244,-126Z" 
id="f0_l"
transform="scale(0.001,-0.001)" />

<path d="M547,28c0,0,140,0,226,102c0,0,101,121,101,357c0,0,0,181,-56,304c0,0,-42,96,-112,141c0,0,-71,45,-159,45c0,0,-135,0,-218,-97C329,880,225,758,225,508c0,0,0,-245,106,-378c0,0,82,-102,216,-102Zm491,-326c0,0,-103,4,-220,41c0,0,-117,38,-222,105c0,0,-104,67,-180,142c0,0,-108,42,-171,91c0,0,-91,72,-141,178c0,0,-50,105,-50,249c0,0,0,227,147,377c0,0,147,149,355,149c0,0,199,0,344,-150c0,0,145,-150,145,-379c0,0,0,-185,-104,-326C941,179,838,39,673,-10c0,0,76,-131,164,-194c0,0,88,-62,201,-71v-23Z" 
id="f0_1a"
transform="scale(0.001,-0.001)" />

<path d="M400,67c0,0,47,0,91,18c0,0,44,19,119,80c0,0,-98,134,-136,196c0,0,-38,62,-84,154c0,0,-89,-51,-135,-113c0,0,-45,-62,-45,-135c0,0,0,-80,52,-140c0,0,51,-60,138,-60Zm95,565c0,0,92,44,138,100c0,0,46,56,46,124c0,0,0,54,-34,89c0,0,-33,35,-82,35c0,0,-65,0,-99,-45c0,0,-33,-45,-33,-89c0,0,0,-36,13,-81c0,0,13,-45,51,-133ZM324,-22c0,0,-124,0,-196,64c0,0,-72,66,-72,157c0,0,0,90,65,180c0,0,65,90,244,186c0,0,-35,78,-48,127c0,0,-13,50,-13,96c0,0,0,127,94,194c0,0,73,52,167,52c0,0,89,0,145,-52c0,0,56,-53,56,-130c0,0,0,-79,-54,-138c0,0,-55,-60,-192,-131c0,0,95,-169,198,-309c0,0,131,157,131,264c0,0,0,34,-23,61c0,0,-16,20,-47,24v28h313V623c0,0,-65,-5,-96,-29c0,0,-30,-23,-96,-142c0,0,-65,-119,-147,-221c0,0,66,-78,118,-109c0,0,52,-31,105,-31c0,0,52,0,88,28c0,0,36,28,50,82l28,-20c0,0,-28,-105,-89,-155c0,0,-61,-48,-142,-48c0,0,-61,0,-124,32c0,0,-63,33,-138,112C649,122,556,40,482,8c0,0,-74,-30,-158,-30Z" 
id="f0_6"
transform="scale(0.001,-0.001)" />

<path d="M678,393L506,802L330,393ZM11,0V27c0,0,63,12,82,30c0,0,38,35,84,145l356,832h27L912,193c0,0,43,-101,77,-132c0,0,35,-30,97,-34V0H687V27c0,0,60,3,82,21c0,0,21,17,21,41c0,0,0,33,-30,104L700,338H307L239,179c0,0,-26,-59,-26,-88c0,0,0,-23,22,-41c0,0,22,-17,95,-23V0Z" 
id="f0_u"
transform="scale(0.001,-0.001)" />

<path d="M253,0V27h36c0,0,64,0,91,39c0,0,16,24,16,109V948H274c0,0,-71,0,-100,-10c0,0,-39,-14,-67,-54c0,0,-27,-41,-33,-109H46l12,237H883L894,775H865c0,0,-8,62,-22,89c0,0,-23,43,-61,64c0,0,-39,20,-101,20H539V175c0,0,0,-93,20,-116c0,0,28,-32,87,-32h36V0Z" 
id="f0_1d"
transform="scale(0.001,-0.001)" />

<path d="M635,-22c0,0,-144,0,-239,38c0,0,-96,39,-168,102c0,0,-73,64,-114,144c0,0,-52,103,-52,230c0,0,0,228,160,385c0,0,161,157,404,157c0,0,75,0,136,-12c0,0,33,-6,106,-34c0,0,74,-28,87,-28c0,0,21,0,39,16c0,0,18,15,33,58h27V678h-27c0,0,-50,146,-150,222c0,0,-100,76,-219,76c0,0,-113,0,-189,-64c0,0,-75,-64,-107,-178c0,0,-31,-114,-31,-234c0,0,0,-145,34,-255c0,0,35,-110,111,-161c0,0,76,-52,181,-52c0,0,37,0,75,8c0,0,39,8,79,23V274c0,0,0,60,-8,77c0,0,-9,18,-34,32c0,0,-26,14,-63,14H680v27h493V397c0,0,-56,-4,-78,-15c0,0,-22,-12,-34,-39c0,0,-6,-14,-6,-69L1054,63c0,0,-97,-43,-201,-64c0,0,-105,-21,-218,-21Z" 
id="f1_t"
transform="scale(0.001,-0.001)" />

<path d="M325,-20L139,484c0,0,-42,116,-71,151c0,0,-18,24,-56,35v27H364V670c0,0,-35,0,-49,-11c0,0,-13,-10,-13,-24c0,0,0,-12,24,-76L428,287l98,272l-7,18c0,0,-22,56,-39,72c0,0,-17,15,-52,21v27H785V670c0,0,-42,-2,-53,-12c0,0,-11,-9,-11,-26c0,0,0,-17,22,-73L841,287l90,251c0,0,19,53,19,73c0,0,0,29,-14,42c0,0,-14,14,-55,17v27h207V670c0,0,-35,-5,-55,-24c0,0,-20,-20,-52,-113L785,-20H743L551,491L364,-20Z" 
id="f1_1w"
transform="scale(0.001,-0.001)" />

<path d="M52,0V26c0,0,44,5,62,29c0,0,13,16,13,97V860c0,0,0,80,-14,99c0,0,-15,20,-61,26v27H336V608c0,0,58,61,106,86c0,0,47,25,99,25c0,0,65,0,112,-38c0,0,47,-37,62,-87c0,0,15,-51,15,-170V152c0,0,0,-81,15,-100c0,0,15,-20,61,-26V0H452V26c0,0,37,6,56,30c0,0,13,20,13,96V463c0,0,0,86,-7,108c0,0,-6,22,-22,35c0,0,-16,12,-36,12c0,0,-30,0,-59,-21c0,0,-28,-20,-61,-72V152c0,0,0,-75,12,-94c0,0,14,-26,58,-32V0Z" 
id="f1_1h"
transform="scale(0.001,-0.001)" />

<path d="M474,-21L174,817c0,0,-34,94,-42,112c0,0,-15,28,-41,42c0,0,-26,14,-70,14v27H395V985H377c0,0,-40,0,-60,-18c0,0,-21,-18,-21,-44c0,0,0,-26,33,-120L528,235L696,718l-30,85l-24,68c0,0,-16,37,-35,66c0,0,-10,14,-24,24c0,0,-19,13,-38,19c0,0,-14,5,-44,5v27H894V985H867c0,0,-41,0,-61,-18c0,0,-19,-18,-19,-49c0,0,0,-38,33,-133L1015,235l193,557c0,0,32,93,32,129c0,0,0,17,-10,32c0,0,-11,15,-28,21c0,0,-28,11,-74,11v27h302V985c0,0,-39,0,-64,-15c0,0,-25,-14,-47,-53c0,0,-15,-26,-47,-124L990,-21H960L729,624L501,-21Z" 
id="f0_1g"
transform="scale(0.001,-0.001)" />

<path d="M394,23c0,0,80,0,129,45c0,0,48,45,48,110c0,0,0,54,-28,97c0,0,-53,79,-214,206c0,0,-62,-52,-92,-114c0,0,-30,-61,-30,-133c0,0,0,-96,53,-154c0,0,52,-57,134,-57Zm17,566c0,0,90,81,114,128c0,0,24,46,24,105c0,0,0,79,-44,123c0,0,-44,45,-121,45c0,0,-76,0,-124,-45c0,0,-48,-44,-48,-103c0,0,0,-38,20,-77c0,0,20,-39,56,-74L411,589ZM382,-17c0,0,-144,0,-225,90c0,0,-64,72,-64,158c0,0,0,67,45,133c0,0,45,66,156,146c0,0,-121,98,-156,158c0,0,-34,59,-34,124c0,0,0,98,76,169c0,0,76,72,202,72c0,0,123,0,198,-67c0,0,74,-66,74,-151c0,0,0,-57,-40,-116c0,0,-40,-59,-168,-139c0,0,132,-101,174,-159c0,0,57,-76,57,-161c0,0,0,-106,-82,-182c0,0,-81,-75,-213,-75Z" 
id="f0_n"
transform="scale(0.001,-0.001)" />

<path d="M292,-20c0,0,-124,0,-190,46c0,0,-46,33,-46,74c0,0,0,33,24,57c0,0,24,25,56,25c0,0,29,0,59,-12c0,0,30,-12,102,-63c0,0,46,-31,78,-43c0,0,23,-9,52,-9c0,0,62,0,104,45c0,0,43,44,43,107c0,0,0,131,-131,213c0,0,-131,82,-331,82c0,0,-20,0,-60,0l181,510H707L632,819H233L195,719c0,0,257,-10,396,-129c0,0,114,-97,114,-243c0,0,0,-93,-53,-182C652,165,599,76,503,28c0,0,-96,-48,-211,-48Z" 
id="f1_g"
transform="scale(0.001,-0.001)" />

<path d="M191,-18c0,0,-51,0,-87,36c0,0,-37,36,-37,87c0,0,0,52,37,88c0,0,36,37,87,37c0,0,52,0,89,-37c0,0,36,-36,36,-88c0,0,0,-51,-37,-87c0,0,-36,-36,-88,-36Z" 
id="f1_9"
transform="scale(0.001,-0.001)" />

<path d="M254,-20c0,0,-128,0,-187,41C67,21,24,51,24,98c0,0,0,34,25,59c0,0,25,24,57,24c0,0,25,0,46,-11c0,0,12,-6,85,-65c0,0,73,-59,136,-59c0,0,56,0,95,44c0,0,40,43,40,110c0,0,0,102,-72,189c0,0,-72,86,-210,118v27c0,0,85,24,118,46c0,0,33,21,57,64c0,0,24,44,24,89c0,0,0,61,-46,106c0,0,-45,44,-112,44c0,0,-105,0,-178,-110l-27,9c0,0,53,125,137,188c0,0,84,63,187,63c0,0,105,0,174,-65c0,0,68,-64,68,-150c0,0,0,-56,-32,-107c0,0,-32,-52,-100,-92c0,0,88,-42,134,-105c0,0,46,-62,46,-156c0,0,0,-158,-115,-269C561,89,447,-20,254,-20Z" 
id="f1_e"
transform="scale(0.001,-0.001)" />

<path d="M37,0V16c0,0,275,327,333,439c0,0,59,113,59,220c0,0,0,79,-49,131c0,0,-49,52,-119,52c0,0,-115,0,-178,-115l-28,9c0,0,40,143,123,212c0,0,82,69,189,69c0,0,77,0,141,-36c0,0,63,-36,99,-98c0,0,36,-63,36,-117c0,0,0,-99,-56,-202c0,0,-75,-138,-329,-384H477c0,0,81,0,105,6c0,0,24,7,40,23c0,0,15,16,41,67h27L633,0Z" 
id="f1_d"
transform="scale(0.001,-0.001)" />

<path d="M383,34c0,0,38,0,56,24c0,0,32,42,36,129l3,320c0,0,0,266,-3,310c0,0,-7,103,-36,140c0,0,-18,24,-60,24c0,0,-32,0,-51,-18c0,0,-28,-26,-38,-92c0,0,-9,-66,-9,-460c0,0,0,-215,15,-288c0,0,11,-53,32,-71c0,0,21,-18,55,-18Zm-2,-54c0,0,-73,0,-132,37c0,0,-59,37,-105,106c0,0,-33,51,-57,135c0,0,-32,114,-32,236c0,0,0,165,46,303c0,0,38,114,116,175c0,0,77,61,164,61c0,0,88,0,165,-61c0,0,76,-60,112,-161c0,0,50,-139,50,-305c0,0,0,-151,-42,-283c0,0,-26,-80,-69,-132c0,0,-43,-51,-97,-81c0,0,-55,-30,-119,-30Z" 
id="f1_b"
transform="scale(0.001,-0.001)" />

<path d="M32,0V27H66c0,0,44,0,71,16c0,0,19,11,30,36c0,0,8,18,8,94V839c0,0,0,78,-8,97c0,0,-8,20,-33,34c0,0,-25,15,-68,15H32v27H561V985H528c0,0,-44,0,-71,-16c0,0,-19,-11,-30,-36c0,0,-9,-18,-9,-94V552H775V839c0,0,0,78,-8,97c0,0,-9,20,-34,34c0,0,-25,15,-68,15H632v27h529V985h-33c0,0,-45,0,-71,-16c0,0,-19,-11,-31,-36c0,0,-8,-18,-8,-94V173c0,0,0,-78,8,-97c0,0,9,-20,34,-34c0,0,26,-15,68,-15h33V0H632V27h33c0,0,45,0,71,16c0,0,19,11,31,36c0,0,8,18,8,94V487H418V173c0,0,0,-78,9,-97c0,0,9,-20,33,-34c0,0,25,-15,68,-15h33V0Z" 
id="f1_u"
transform="scale(0.001,-0.001)" />

<path d="M32,0V26c0,0,46,2,69,27c0,0,14,18,14,92V867c0,0,0,74,-17,94c0,0,-17,21,-66,24v27H325V145c0,0,0,-74,17,-95c0,0,17,-21,68,-24V0Z" 
id="f1_1l"
transform="scale(0.001,-0.001)" />

<path d="M82,-253v33c0,0,77,25,119,78c0,0,42,54,42,114c0,0,0,14,-7,23c0,0,-5,6,-11,6c0,0,-8,0,-35,-14c0,0,-14,-7,-28,-7c0,0,-37,0,-58,21C104,1,82,23,82,61c0,0,0,36,28,62c0,0,28,27,68,27c0,0,49,0,88,-43c0,0,38,-43,38,-113c0,0,0,-77,-53,-143c0,0,-53,-66,-169,-104Z" 
id="f0_b"
transform="scale(0.001,-0.001)" />

<path d="M551,-22c0,0,-165,0,-251,56c0,0,-86,57,-122,154c0,0,-24,67,-24,250V833c0,0,0,93,-25,123c0,0,-26,29,-83,29H8v27H444V985H405c0,0,-62,0,-89,-40c0,0,-19,-27,-19,-112V392c0,0,0,-59,11,-135c0,0,11,-76,39,-118c0,0,29,-43,82,-70c0,0,53,-28,131,-28c0,0,99,0,178,43c0,0,78,44,107,111c0,0,29,68,29,229V833c0,0,0,95,-21,119c0,0,-29,33,-86,33H729v27h357V985h-38c0,0,-59,0,-91,-50c0,0,-16,-23,-16,-108V417c0,0,0,-152,-30,-236C911,181,881,97,792,37c0,0,-88,-59,-241,-59Z" 
id="f0_1e"
transform="scale(0.001,-0.001)" />

<path d="M384,85c0,0,44,0,78,19c0,0,35,19,68,62V487c0,0,0,55,-15,87c0,0,-14,33,-51,55c0,0,-38,22,-85,22c0,0,-84,0,-143,-71c0,0,-60,-70,-60,-214c0,0,0,-138,61,-209c0,0,61,-72,147,-72Zm35,-411v27h15c0,0,41,0,63,12c0,0,15,8,24,30c0,0,9,21,9,83V119C530,119,462,39,411,9c0,0,-50,-29,-105,-29c0,0,-99,0,-177,90c0,0,-78,90,-78,241c0,0,0,174,103,283c0,0,103,109,248,109c0,0,43,0,78,-12c0,0,36,-12,65,-35c0,0,43,20,83,47h25V-174c0,0,0,-66,9,-85c0,0,9,-19,28,-30c0,0,19,-10,74,-10v-27Z" 
id="f0_20"
transform="scale(0.001,-0.001)" />

<path d="M17,-328c0,0,-67,0,-100,24c0,0,-33,25,-33,51c0,0,0,26,18,45c0,0,18,18,43,18c0,0,19,0,40,-9c0,0,12,-6,48,-38c0,0,37,-33,61,-33c0,0,18,0,35,14c0,0,17,14,25,46c0,0,8,33,8,141V416c0,0,0,113,-6,145c0,0,-6,25,-17,34c0,0,-11,10,-31,10c0,0,-21,0,-51,-11L47,620l207,83h32V16c0,0,0,-175,-74,-260c0,0,-75,-84,-195,-84ZM223,908c0,0,-32,0,-54,23c0,0,-22,22,-22,53c0,0,0,32,22,55c0,0,22,22,54,22c0,0,32,0,54,-22c0,0,22,-23,22,-55c0,0,0,-31,-22,-53c0,0,-22,-23,-54,-23Z" 
id="f0_1t"
transform="scale(0.001,-0.001)" />

<path d="M548,-21c0,0,-251,0,-389,185C159,164,56,303,56,490c0,0,0,152,68,278c0,0,67,127,186,197c0,0,119,69,260,69c0,0,109,0,216,-53c0,0,31,-17,44,-17c0,0,20,0,35,14c0,0,20,21,28,56h26L943,690H919c0,0,-46,155,-131,224c0,0,-86,68,-206,68c0,0,-100,0,-181,-51c0,0,-81,-52,-128,-163c0,0,-46,-112,-46,-279c0,0,0,-137,44,-238c0,0,44,-101,132,-154c0,0,88,-54,201,-54c0,0,99,0,174,42c0,0,75,42,165,167l23,-14C966,238,890,103,789,40c0,0,-102,-61,-241,-61Z" 
id="f0_w"
transform="scale(0.001,-0.001)" />

<path d="M545,30c0,0,143,0,236,111c0,0,93,111,93,351c0,0,0,259,-103,386c0,0,-82,102,-226,102c0,0,-136,0,-218,-101C327,879,225,754,225,512c0,0,0,-247,106,-380c0,0,81,-102,214,-102Zm2,-51c0,0,-209,0,-351,147C196,126,54,274,54,510c0,0,0,240,164,393c0,0,142,131,341,131c0,0,197,0,341,-149c0,0,145,-149,145,-373c0,0,0,-230,-146,-382C899,130,754,-21,547,-21Z" 
id="f0_18"
transform="scale(0.001,-0.001)" />

<path d="M2,-20L369,1061h59L62,-20Z" 
id="f0_e"
transform="scale(0.001,-0.001)" />


</defs>
</svg>