<?xml version="1.0" encoding="UTF-8" standalone="no"?>
<!DOCTYPE svg PUBLIC "-//W3C//DTD SVG 1.1//EN"
"http://www.w3.org/Graphics/SVG/1.1/DTD/svg11.dtd">
<svg viewBox="0 0 909 1286" version="1.1" xmlns="http://www.w3.org/2000/svg" xmlns:xlink="http://www.w3.org/1999/xlink">
<defs>
<clipPath id="c0_20"><path d="M27.5,1223.8L27.5,27.5l854,0l0,1196.3Z" /></clipPath>
<style type="text/css"><![CDATA[
.g1_20{
}
.g2_20{
fill: #A5A5A5;
}
]]></style>
</defs>
<g clip-path="url(#c0_20)">
<g fill="#000000" >
<use xlink:href="#f0_15" transform="matrix(14.9,0,0,14.9,183.9,129.1)" />
<use xlink:href="#f0_1q" transform="matrix(14.9,0,0,14.9,200.4,129.1)" />
<use xlink:href="#f0_1d" transform="matrix(14.9,0,0,14.9,209.3,129.1)" />
<use xlink:href="#f0_1n" transform="matrix(14.9,0,0,14.9,225.2,129.1)" />
<use xlink:href="#f0_1e" transform="matrix(14.9,0,0,14.9,236.7,129.1)" />
<use xlink:href="#f0_r" transform="matrix(14.9,0,0,14.9,250.1,129.1)" />
<use xlink:href="#f0_1s" transform="matrix(14.9,0,0,14.9,264.1,129.1)" />
<use xlink:href="#f0_1m" transform="matrix(14.9,0,0,14.9,276.8,129.1)" />
<use xlink:href="#f0_1c" transform="matrix(14.9,0,0,14.9,289.6,129.1)" />
<use xlink:href="#f0_1q" transform="matrix(14.9,0,0,14.9,302.3,129.1)" />
<use xlink:href="#f0_o" transform="matrix(14.9,0,0,14.9,183.9,608.3)" />
<use xlink:href="#f0_1n" transform="matrix(14.9,0,0,14.9,200.4,608.3)" />
<use xlink:href="#f0_1l" transform="matrix(14.9,0,0,14.9,211.9,608.3)" />
<use xlink:href="#f0_1o" transform="matrix(14.9,0,0,14.9,231,608.3)" />
<use xlink:href="#f0_19" transform="matrix(14.9,0,0,14.9,243.7,608.3)" />
<use xlink:href="#f0_1m" transform="matrix(14.9,0,0,14.9,255.2,608.3)" />
<use xlink:href="#f0_1w" transform="matrix(14.9,0,0,14.9,268,608.3)" />
<use xlink:href="#f0_z" transform="matrix(12,0,0,12,183.9,675.4)" />
<use xlink:href="#f0_1t" transform="matrix(12,0,0,12,198.1,675.4)" />
<use xlink:href="#f0_1d" transform="matrix(12,0,0,12,207.3,675.4)" />
<use xlink:href="#f0_1p" transform="matrix(12,0,0,12,215.4,675.4)" />
<use xlink:href="#f0_1t" transform="matrix(12,0,0,12,223.6,675.4)" />
<use xlink:href="#f0_1h" transform="matrix(12,0,0,12,232.7,675.4)" />
<use xlink:href="#f0_1d" transform="matrix(12,0,0,12,237.8,675.4)" />
<use xlink:href="#f0_1u" transform="matrix(12,0,0,12,246,675.4)" />
</g>
</g>
<path d="M183.7,679.4l75.5,0l0,-1.4l-75.5,0l0,1.4Z" class="g1_20" />
<g clip-path="url(#c0_20)">
<g fill="#000000" >
<use xlink:href="#f1_12" transform="matrix(12,0,0,12,183.9,738.5)" />
<use xlink:href="#f1_1l" transform="matrix(12,0,0,12,197.1,738.5)" />
<use xlink:href="#f1_1y" transform="matrix(12,0,0,12,205.3,738.5)" />
<use xlink:href="#f1_1o" transform="matrix(12,0,0,12,214.4,738.5)" />
<use xlink:href="#f1_23" transform="matrix(12,0,0,12,223.6,738.5)" />
<use xlink:href="#f1_2i" transform="matrix(12,0,0,12,230.7,738.5)" />
<use xlink:href="#f1_23" transform="matrix(12,0,0,12,236.8,738.5)" />
<use xlink:href="#f1_1q" transform="matrix(12,0,0,12,248.6,738.5)" />
<use xlink:href="#f1_1z" transform="matrix(12,0,0,12,254.7,738.5)" />
<use xlink:href="#f1_25" transform="matrix(12,0,0,12,263.8,738.5)" />
<use xlink:href="#f1_1y" transform="matrix(12,0,0,12,273,738.5)" />
<use xlink:href="#f1_1o" transform="matrix(12,0,0,12,282.2,738.5)" />
<use xlink:href="#f1_1t" transform="matrix(12,0,0,12,291.3,738.5)" />
<use xlink:href="#f1_1y" transform="matrix(12,0,0,12,296.4,738.5)" />
<use xlink:href="#f1_1r" transform="matrix(12,0,0,12,305.6,738.5)" />
<use xlink:href="#f1_24" transform="matrix(12,0,0,12,319.3,738.5)" />
<use xlink:href="#f1_1p" transform="matrix(12,0,0,12,324.4,738.5)" />
<use xlink:href="#f1_1l" transform="matrix(12,0,0,12,332.6,738.5)" />
<use xlink:href="#f1_1x" transform="matrix(12,0,0,12,340.7,738.5)" />
<use xlink:href="#f1_1l" transform="matrix(12,0,0,12,359.5,738.5)" />
<use xlink:href="#f1_1y" transform="matrix(12,0,0,12,367.7,738.5)" />
<use xlink:href="#f1_1o" transform="matrix(12,0,0,12,376.8,738.5)" />
<use xlink:href="#f1_1l" transform="matrix(12,0,0,12,390.6,738.5)" />
<use xlink:href="#f1_1o" transform="matrix(12,0,0,12,398.7,738.5)" />
<use xlink:href="#f1_26" transform="matrix(12,0,0,12,407.9,738.5)" />
<use xlink:href="#f1_1t" transform="matrix(12,0,0,12,417.1,738.5)" />
<use xlink:href="#f1_23" transform="matrix(12,0,0,12,422.2,738.5)" />
<use xlink:href="#f1_1z" transform="matrix(12,0,0,12,429.3,738.5)" />
<use xlink:href="#f1_22" transform="matrix(12,0,0,12,438.5,738.5)" />
<use xlink:href="#f1_29" transform="matrix(12,0,0,12,444.6,738.5)" />
<use xlink:href="#f1_1m" transform="matrix(12,0,0,12,458.3,738.5)" />
<use xlink:href="#f1_1z" transform="matrix(12,0,0,12,467.5,738.5)" />
<use xlink:href="#f1_1l" transform="matrix(12,0,0,12,476.6,738.5)" />
<use xlink:href="#f1_22" transform="matrix(12,0,0,12,484.8,738.5)" />
<use xlink:href="#f1_1o" transform="matrix(12,0,0,12,490.9,738.5)" />
<use xlink:href="#f1_1t" transform="matrix(12,0,0,12,504.6,738.5)" />
<use xlink:href="#f1_23" transform="matrix(12,0,0,12,509.7,738.5)" />
<use xlink:href="#f1_1n" transform="matrix(12,0,0,12,521.5,738.5)" />
<use xlink:href="#f1_1z" transform="matrix(12,0,0,12,529.6,738.5)" />
<use xlink:href="#f1_1x" transform="matrix(12,0,0,12,538.8,738.5)" />
<use xlink:href="#f1_20" transform="matrix(12,0,0,12,553,738.5)" />
<use xlink:href="#f1_22" transform="matrix(12,0,0,12,562.2,738.5)" />
<use xlink:href="#f1_1t" transform="matrix(12,0,0,12,568.3,738.5)" />
<use xlink:href="#f1_23" transform="matrix(12,0,0,12,573.4,738.5)" />
<use xlink:href="#f1_1p" transform="matrix(12,0,0,12,580.5,738.5)" />
<use xlink:href="#f1_1o" transform="matrix(12,0,0,12,588.7,738.5)" />
<use xlink:href="#f1_1z" transform="matrix(12,0,0,12,602.4,738.5)" />
<use xlink:href="#f1_1q" transform="matrix(12,0,0,12,611.6,738.5)" />
<use xlink:href="#f1_23" transform="matrix(12,0,0,12,622.3,738.5)" />
<use xlink:href="#f1_1z" transform="matrix(12,0,0,12,629.4,738.5)" />
<use xlink:href="#f1_1x" transform="matrix(12,0,0,12,638.6,738.5)" />
<use xlink:href="#f1_1p" transform="matrix(12,0,0,12,652.8,738.5)" />
<use xlink:href="#f1_1z" transform="matrix(12,0,0,12,665.5,738.5)" />
<use xlink:href="#f1_1q" transform="matrix(12,0,0,12,674.7,738.5)" />
<use xlink:href="#f1_24" transform="matrix(12,0,0,12,685.4,738.5)" />
<use xlink:href="#f1_1s" transform="matrix(12,0,0,12,690.5,738.5)" />
<use xlink:href="#f1_1p" transform="matrix(12,0,0,12,699.7,738.5)" />
<use xlink:href="#f1_1m" transform="matrix(12,0,0,12,712.4,738.5)" />
<use xlink:href="#f1_1p" transform="matrix(12,0,0,12,721.5,738.5)" />
<use xlink:href="#f1_23" transform="matrix(12,0,0,12,729.7,738.5)" />
<use xlink:href="#f1_24" transform="matrix(12,0,0,12,736.8,738.5)" />
<use xlink:href="#f1_24" transform="matrix(12,0,0,12,183.9,770.4)" />
<use xlink:href="#f1_1l" transform="matrix(12,0,0,12,189,770.4)" />
<use xlink:href="#f1_1w" transform="matrix(12,0,0,12,197.1,770.4)" />
<use xlink:href="#f1_1p" transform="matrix(12,0,0,12,202.2,770.4)" />
<use xlink:href="#f1_1y" transform="matrix(12,0,0,12,210.3,770.4)" />
<use xlink:href="#f1_24" transform="matrix(12,0,0,12,219.5,770.4)" />
<use xlink:href="#f1_1t" transform="matrix(12,0,0,12,229.2,770.4)" />
<use xlink:href="#f1_1y" transform="matrix(12,0,0,12,234.3,770.4)" />
<use xlink:href="#f1_24" transform="matrix(12,0,0,12,248,770.4)" />
<use xlink:href="#f1_1s" transform="matrix(12,0,0,12,253.1,770.4)" />
<use xlink:href="#f1_1p" transform="matrix(12,0,0,12,262.3,770.4)" />
<use xlink:href="#f1_24" transform="matrix(12,0,0,12,275,770.4)" />
<use xlink:href="#f1_1p" transform="matrix(12,0,0,12,280.1,770.4)" />
<use xlink:href="#f1_1n" transform="matrix(12,0,0,12,288.2,770.4)" />
<use xlink:href="#f1_1s" transform="matrix(12,0,0,12,296.4,770.4)" />
<use xlink:href="#f1_d" transform="matrix(12,0,0,12,305.5,770.4)" />
<use xlink:href="#f1_20" transform="matrix(12,0,0,12,314.7,770.4)" />
<use xlink:href="#f1_25" transform="matrix(12,0,0,12,323.9,770.4)" />
<use xlink:href="#f1_1m" transform="matrix(12,0,0,12,333,770.4)" />
<use xlink:href="#f1_1w" transform="matrix(12,0,0,12,342.2,770.4)" />
<use xlink:href="#f1_1t" transform="matrix(12,0,0,12,347.3,770.4)" />
<use xlink:href="#f1_23" transform="matrix(12,0,0,12,352.4,770.4)" />
<use xlink:href="#f1_1s" transform="matrix(12,0,0,12,359.5,770.4)" />
<use xlink:href="#f1_1t" transform="matrix(12,0,0,12,368.7,770.4)" />
<use xlink:href="#f1_1y" transform="matrix(12,0,0,12,373.8,770.4)" />
<use xlink:href="#f1_1r" transform="matrix(12,0,0,12,383,770.4)" />
<use xlink:href="#f1_d" transform="matrix(12,0,0,12,392.1,770.4)" />
<use xlink:href="#f1_1l" transform="matrix(12,0,0,12,401.3,770.4)" />
<use xlink:href="#f1_1y" transform="matrix(12,0,0,12,409.4,770.4)" />
<use xlink:href="#f1_1o" transform="matrix(12,0,0,12,418.6,770.4)" />
<use xlink:href="#f1_1r" transform="matrix(12,0,0,12,432.3,770.4)" />
<use xlink:href="#f1_22" transform="matrix(12,0,0,12,441.5,770.4)" />
<use xlink:href="#f1_1z" transform="matrix(12,0,0,12,447.6,770.4)" />
<use xlink:href="#f1_27" transform="matrix(12,0,0,12,456.8,770.4)" />
<use xlink:href="#f1_24" transform="matrix(12,0,0,12,470,770.4)" />
<use xlink:href="#f1_1s" transform="matrix(12,0,0,12,475.1,770.4)" />
<use xlink:href="#f1_f" transform="matrix(12,0,0,12,484.3,770.4)" />
<use xlink:href="#f1_1h" transform="matrix(12,0,0,12,493.4,770.4)" />
<use xlink:href="#f1_1t" transform="matrix(12,0,0,12,510.7,770.4)" />
<use xlink:href="#f1_24" transform="matrix(12,0,0,12,515.8,770.4)" />
<use xlink:href="#f1_1s" transform="matrix(12,0,0,12,520.9,770.4)" />
<use xlink:href="#f1_1w" transform="matrix(12,0,0,12,534.7,770.4)" />
<use xlink:href="#f1_1z" transform="matrix(12,0,0,12,539.8,770.4)" />
<use xlink:href="#f1_1n" transform="matrix(12,0,0,12,548.9,770.4)" />
<use xlink:href="#f1_1l" transform="matrix(12,0,0,12,557.1,770.4)" />
<use xlink:href="#f1_24" transform="matrix(12,0,0,12,565.2,770.4)" />
<use xlink:href="#f1_1t" transform="matrix(12,0,0,12,570.3,770.4)" />
<use xlink:href="#f1_1z" transform="matrix(12,0,0,12,575.4,770.4)" />
<use xlink:href="#f1_1y" transform="matrix(12,0,0,12,584.6,770.4)" />
<use xlink:href="#f1_23" transform="matrix(12,0,0,12,593.7,770.4)" />
<use xlink:href="#f1_1t" transform="matrix(12,0,0,12,605.5,770.4)" />
<use xlink:href="#f1_1y" transform="matrix(12,0,0,12,610.5,770.4)" />
<use xlink:href="#f1_1d" transform="matrix(12,0,0,12,624.3,770.4)" />
<use xlink:href="#f1_1l" transform="matrix(12,0,0,12,634.5,770.4)" />
<use xlink:href="#f1_1y" transform="matrix(12,0,0,12,642.6,770.4)" />
<use xlink:href="#f1_10" transform="matrix(12,0,0,12,656.4,770.4)" />
<use xlink:href="#f1_22" transform="matrix(12,0,0,12,666.6,770.4)" />
<use xlink:href="#f1_1l" transform="matrix(12,0,0,12,672.7,770.4)" />
<use xlink:href="#f1_1y" transform="matrix(12,0,0,12,680.8,770.4)" />
<use xlink:href="#f1_1n" transform="matrix(12,0,0,12,690,770.4)" />
<use xlink:href="#f1_1t" transform="matrix(12,0,0,12,698.1,770.4)" />
<use xlink:href="#f1_23" transform="matrix(12,0,0,12,703.2,770.4)" />
<use xlink:href="#f1_1n" transform="matrix(12,0,0,12,710.4,770.4)" />
<use xlink:href="#f1_1z" transform="matrix(12,0,0,12,718.5,770.4)" />
<use xlink:href="#f1_1l" transform="matrix(12,0,0,12,732.3,770.4)" />
<use xlink:href="#f1_1y" transform="matrix(12,0,0,12,740.4,770.4)" />
<use xlink:href="#f1_1o" transform="matrix(12,0,0,12,749.6,770.4)" />
<use xlink:href="#f1_v" transform="matrix(12,0,0,12,183.9,801.9)" />
<use xlink:href="#f1_22" transform="matrix(12,0,0,12,197.1,801.9)" />
<use xlink:href="#f1_1r" transform="matrix(12,0,0,12,203.2,801.9)" />
<use xlink:href="#f1_1p" transform="matrix(12,0,0,12,212.4,801.9)" />
<use xlink:href="#f1_1y" transform="matrix(12,0,0,12,220.5,801.9)" />
<use xlink:href="#f1_24" transform="matrix(12,0,0,12,229.7,801.9)" />
<use xlink:href="#f1_1t" transform="matrix(12,0,0,12,234.8,801.9)" />
<use xlink:href="#f1_1y" transform="matrix(12,0,0,12,239.9,801.9)" />
<use xlink:href="#f1_1l" transform="matrix(12,0,0,12,249.1,801.9)" />
<use xlink:href="#f1_f" transform="matrix(12,0,0,12,257.2,801.9)" />
<use xlink:href="#f1_12" transform="matrix(12,0,0,12,266.4,801.9)" />
<use xlink:href="#f1_1l" transform="matrix(12,0,0,12,279.6,801.9)" />
<use xlink:href="#f1_1o" transform="matrix(12,0,0,12,287.7,801.9)" />
<use xlink:href="#f1_23" transform="matrix(12,0,0,12,296.9,801.9)" />
<use xlink:href="#f1_1s" transform="matrix(12,0,0,12,308.6,801.9)" />
<use xlink:href="#f1_1l" transform="matrix(12,0,0,12,317.8,801.9)" />
<use xlink:href="#f1_23" transform="matrix(12,0,0,12,325.9,801.9)" />
<use xlink:href="#f1_1l" transform="matrix(12,0,0,12,337.6,801.9)" />
<use xlink:href="#f1_1n" transform="matrix(12,0,0,12,345.8,801.9)" />
<use xlink:href="#f1_1n" transform="matrix(12,0,0,12,353.9,801.9)" />
<use xlink:href="#f1_1p" transform="matrix(12,0,0,12,362,801.9)" />
<use xlink:href="#f1_23" transform="matrix(12,0,0,12,370.2,801.9)" />
<use xlink:href="#f1_23" transform="matrix(12,0,0,12,377.3,801.9)" />
<use xlink:href="#f1_24" transform="matrix(12,0,0,12,389,801.9)" />
<use xlink:href="#f1_1z" transform="matrix(12,0,0,12,394.1,801.9)" />
<use xlink:href="#f1_27" transform="matrix(12,0,0,12,407.9,801.9)" />
<use xlink:href="#f1_1z" transform="matrix(12,0,0,12,421.1,801.9)" />
<use xlink:href="#f1_22" transform="matrix(12,0,0,12,430.3,801.9)" />
<use xlink:href="#f1_1w" transform="matrix(12,0,0,12,436.4,801.9)" />
<use xlink:href="#f1_1o" transform="matrix(12,0,0,12,441.5,801.9)" />
<use xlink:href="#f1_e" transform="matrix(12,0,0,12,450.7,801.9)" />
<use xlink:href="#f1_1n" transform="matrix(12,0,0,12,456.8,801.9)" />
<use xlink:href="#f1_1w" transform="matrix(12,0,0,12,464.9,801.9)" />
<use xlink:href="#f1_1l" transform="matrix(12,0,0,12,470,801.9)" />
<use xlink:href="#f1_23" transform="matrix(12,0,0,12,478.1,801.9)" />
<use xlink:href="#f1_23" transform="matrix(12,0,0,12,485.3,801.9)" />
<use xlink:href="#f1_1p" transform="matrix(12,0,0,12,497,801.9)" />
<use xlink:href="#f1_1y" transform="matrix(12,0,0,12,505.1,801.9)" />
<use xlink:href="#f1_1r" transform="matrix(12,0,0,12,514.3,801.9)" />
<use xlink:href="#f1_1t" transform="matrix(12,0,0,12,523.5,801.9)" />
<use xlink:href="#f1_1y" transform="matrix(12,0,0,12,528.5,801.9)" />
<use xlink:href="#f1_1p" transform="matrix(12,0,0,12,537.7,801.9)" />
<use xlink:href="#f1_1p" transform="matrix(12,0,0,12,545.8,801.9)" />
<use xlink:href="#f1_22" transform="matrix(12,0,0,12,554,801.9)" />
<use xlink:href="#f1_1t" transform="matrix(12,0,0,12,560.1,801.9)" />
<use xlink:href="#f1_1y" transform="matrix(12,0,0,12,565.2,801.9)" />
<use xlink:href="#f1_1r" transform="matrix(12,0,0,12,574.3,801.9)" />
<use xlink:href="#f1_d" transform="matrix(12,0,0,12,583.5,801.9)" />
<use xlink:href="#f1_1r" transform="matrix(12,0,0,12,592.7,801.9)" />
<use xlink:href="#f1_22" transform="matrix(12,0,0,12,601.8,801.9)" />
<use xlink:href="#f1_1z" transform="matrix(12,0,0,12,608,801.9)" />
<use xlink:href="#f1_27" transform="matrix(12,0,0,12,617.1,801.9)" />
<use xlink:href="#f1_24" transform="matrix(12,0,0,12,630.4,801.9)" />
<use xlink:href="#f1_1s" transform="matrix(12,0,0,12,635.5,801.9)" />
<use xlink:href="#f1_d" transform="matrix(12,0,0,12,644.6,801.9)" />
<use xlink:href="#f1_1l" transform="matrix(12,0,0,12,653.8,801.9)" />
<use xlink:href="#f1_1y" transform="matrix(12,0,0,12,661.9,801.9)" />
<use xlink:href="#f1_1o" transform="matrix(12,0,0,12,671.1,801.9)" />
<use xlink:href="#f1_1x" transform="matrix(12,0,0,12,183.9,833.4)" />
<use xlink:href="#f1_1p" transform="matrix(12,0,0,12,198.1,833.4)" />
<use xlink:href="#f1_1o" transform="matrix(12,0,0,12,206.3,833.4)" />
<use xlink:href="#f1_1t" transform="matrix(12,0,0,12,215.4,833.4)" />
<use xlink:href="#f1_1l" transform="matrix(12,0,0,12,220.5,833.4)" />
<use xlink:href="#f1_g" transform="matrix(12,0,0,12,228.7,833.4)" />
<use xlink:href="#f1_20" transform="matrix(12,0,0,12,233.8,833.4)" />
<use xlink:href="#f1_25" transform="matrix(12,0,0,12,242.9,833.4)" />
<use xlink:href="#f1_1m" transform="matrix(12,0,0,12,252.1,833.4)" />
<use xlink:href="#f1_1w" transform="matrix(12,0,0,12,261.3,833.4)" />
<use xlink:href="#f1_1t" transform="matrix(12,0,0,12,266.4,833.4)" />
<use xlink:href="#f1_23" transform="matrix(12,0,0,12,271.5,833.4)" />
<use xlink:href="#f1_1s" transform="matrix(12,0,0,12,278.6,833.4)" />
<use xlink:href="#f1_1t" transform="matrix(12,0,0,12,287.8,833.4)" />
<use xlink:href="#f1_1y" transform="matrix(12,0,0,12,292.8,833.4)" />
<use xlink:href="#f1_1r" transform="matrix(12,0,0,12,302,833.4)" />
<use xlink:href="#f1_24" transform="matrix(12,0,0,12,315.8,833.4)" />
<use xlink:href="#f1_1l" transform="matrix(12,0,0,12,320.9,833.4)" />
<use xlink:href="#f1_1w" transform="matrix(12,0,0,12,329,833.4)" />
<use xlink:href="#f1_1p" transform="matrix(12,0,0,12,334.1,833.4)" />
<use xlink:href="#f1_1y" transform="matrix(12,0,0,12,342.2,833.4)" />
<use xlink:href="#f1_24" transform="matrix(12,0,0,12,351.4,833.4)" />
<use xlink:href="#f1_1l" transform="matrix(12,0,0,12,361.1,833.4)" />
<use xlink:href="#f1_1y" transform="matrix(12,0,0,12,369.2,833.4)" />
<use xlink:href="#f1_1o" transform="matrix(12,0,0,12,378.4,833.4)" />
<use xlink:href="#f1_1t" transform="matrix(12,0,0,12,392.1,833.4)" />
<use xlink:href="#f1_23" transform="matrix(12,0,0,12,397.2,833.4)" />
<use xlink:href="#f1_20" transform="matrix(12,0,0,12,408.9,833.4)" />
<use xlink:href="#f1_1z" transform="matrix(12,0,0,12,418.1,833.4)" />
<use xlink:href="#f1_23" transform="matrix(12,0,0,12,427.3,833.4)" />
<use xlink:href="#f1_1t" transform="matrix(12,0,0,12,434.4,833.4)" />
<use xlink:href="#f1_24" transform="matrix(12,0,0,12,439.5,833.4)" />
<use xlink:href="#f1_1t" transform="matrix(12,0,0,12,444.6,833.4)" />
<use xlink:href="#f1_1z" transform="matrix(12,0,0,12,449.7,833.4)" />
<use xlink:href="#f1_1y" transform="matrix(12,0,0,12,458.8,833.4)" />
<use xlink:href="#f1_1p" transform="matrix(12,0,0,12,468,833.4)" />
<use xlink:href="#f1_1o" transform="matrix(12,0,0,12,476.1,833.4)" />
<use xlink:href="#f1_24" transform="matrix(12,0,0,12,489.9,833.4)" />
<use xlink:href="#f1_1z" transform="matrix(12,0,0,12,495,833.4)" />
<use xlink:href="#f1_1o" transform="matrix(12,0,0,12,508.7,833.4)" />
<use xlink:href="#f1_1t" transform="matrix(12,0,0,12,517.9,833.4)" />
<use xlink:href="#f1_23" transform="matrix(12,0,0,12,523,833.4)" />
<use xlink:href="#f1_22" transform="matrix(12,0,0,12,530.1,833.4)" />
<use xlink:href="#f1_25" transform="matrix(12,0,0,12,536.2,833.4)" />
<use xlink:href="#f1_20" transform="matrix(12,0,0,12,545.4,833.4)" />
<use xlink:href="#f1_24" transform="matrix(12,0,0,12,554.6,833.4)" />
<use xlink:href="#f1_1n" transform="matrix(12,0,0,12,564.3,833.4)" />
<use xlink:href="#f1_25" transform="matrix(12,0,0,12,572.4,833.4)" />
<use xlink:href="#f1_22" transform="matrix(12,0,0,12,581.6,833.4)" />
<use xlink:href="#f1_22" transform="matrix(12,0,0,12,587.7,833.4)" />
<use xlink:href="#f1_1p" transform="matrix(12,0,0,12,593.8,833.4)" />
<use xlink:href="#f1_1y" transform="matrix(12,0,0,12,601.9,833.4)" />
<use xlink:href="#f1_24" transform="matrix(12,0,0,12,611.1,833.4)" />
<use xlink:href="#f1_1w" transform="matrix(12,0,0,12,620.7,833.4)" />
<use xlink:href="#f1_1p" transform="matrix(12,0,0,12,625.8,833.4)" />
<use xlink:href="#f1_1l" transform="matrix(12,0,0,12,634,833.4)" />
<use xlink:href="#f1_1o" transform="matrix(12,0,0,12,642.1,833.4)" />
<use xlink:href="#f1_1p" transform="matrix(12,0,0,12,651.3,833.4)" />
<use xlink:href="#f1_22" transform="matrix(12,0,0,12,659.4,833.4)" />
<use xlink:href="#f1_23" transform="matrix(12,0,0,12,665.5,833.4)" />
<use xlink:href="#f1_1t" transform="matrix(12,0,0,12,677.2,833.4)" />
<use xlink:href="#f1_1y" transform="matrix(12,0,0,12,682.3,833.4)" />
<use xlink:href="#f1_24" transform="matrix(12,0,0,12,696.1,833.4)" />
<use xlink:href="#f1_1s" transform="matrix(12,0,0,12,701.2,833.4)" />
<use xlink:href="#f1_1p" transform="matrix(12,0,0,12,710.3,833.4)" />
<use xlink:href="#f1_1z" transform="matrix(12,0,0,12,723.1,833.4)" />
<use xlink:href="#f1_1y" transform="matrix(12,0,0,12,732.2,833.4)" />
<use xlink:href="#f1_1w" transform="matrix(12,0,0,12,741.4,833.4)" />
<use xlink:href="#f1_1t" transform="matrix(12,0,0,12,746.5,833.4)" />
<use xlink:href="#f1_1y" transform="matrix(12,0,0,12,751.6,833.4)" />
<use xlink:href="#f1_1p" transform="matrix(12,0,0,12,760.7,833.4)" />
<use xlink:href="#f1_20" transform="matrix(12,0,0,12,183.9,865)" />
<use xlink:href="#f1_25" transform="matrix(12,0,0,12,193,865)" />
<use xlink:href="#f1_1m" transform="matrix(12,0,0,12,202.2,865)" />
<use xlink:href="#f1_1w" transform="matrix(12,0,0,12,211.4,865)" />
<use xlink:href="#f1_1t" transform="matrix(12,0,0,12,216.5,865)" />
<use xlink:href="#f1_23" transform="matrix(12,0,0,12,221.6,865)" />
<use xlink:href="#f1_1s" transform="matrix(12,0,0,12,228.7,865)" />
<use xlink:href="#f1_1t" transform="matrix(12,0,0,12,237.9,865)" />
<use xlink:href="#f1_1y" transform="matrix(12,0,0,12,243,865)" />
<use xlink:href="#f1_1r" transform="matrix(12,0,0,12,252.1,865)" />
<use xlink:href="#f1_23" transform="matrix(12,0,0,12,265.9,865)" />
<use xlink:href="#f1_20" transform="matrix(12,0,0,12,273,865)" />
<use xlink:href="#f1_1l" transform="matrix(12,0,0,12,282.2,865)" />
<use xlink:href="#f1_1n" transform="matrix(12,0,0,12,290.3,865)" />
<use xlink:href="#f1_1p" transform="matrix(12,0,0,12,298.5,865)" />
<use xlink:href="#f1_f" transform="matrix(12,0,0,12,306.6,865)" />
<use xlink:href="#f1_1h" transform="matrix(12,0,0,12,315.8,865)" />
<use xlink:href="#f1_1p" transform="matrix(12,0,0,12,333.1,865)" />
<use xlink:href="#f1_27" transform="matrix(12,0,0,12,345.8,865)" />
<use xlink:href="#f1_1t" transform="matrix(12,0,0,12,359,865)" />
<use xlink:href="#f1_1w" transform="matrix(12,0,0,12,364.1,865)" />
<use xlink:href="#f1_1w" transform="matrix(12,0,0,12,369.2,865)" />
<use xlink:href="#f1_1m" transform="matrix(12,0,0,12,378.9,865)" />
<use xlink:href="#f1_1p" transform="matrix(12,0,0,12,388.1,865)" />
<use xlink:href="#f1_27" transform="matrix(12,0,0,12,400.8,865)" />
<use xlink:href="#f1_1z" transform="matrix(12,0,0,12,414,865)" />
<use xlink:href="#f1_22" transform="matrix(12,0,0,12,423.2,865)" />
<use xlink:href="#f1_1v" transform="matrix(12,0,0,12,429.3,865)" />
<use xlink:href="#f1_1t" transform="matrix(12,0,0,12,438.4,865)" />
<use xlink:href="#f1_1y" transform="matrix(12,0,0,12,443.5,865)" />
<use xlink:href="#f1_1r" transform="matrix(12,0,0,12,452.7,865)" />
<use xlink:href="#f1_27" transform="matrix(12,0,0,12,466.5,865)" />
<use xlink:href="#f1_1t" transform="matrix(12,0,0,12,479.7,865)" />
<use xlink:href="#f1_24" transform="matrix(12,0,0,12,484.8,865)" />
<use xlink:href="#f1_1s" transform="matrix(12,0,0,12,489.9,865)" />
<use xlink:href="#f1_1z" transform="matrix(12,0,0,12,503.6,865)" />
<use xlink:href="#f1_25" transform="matrix(12,0,0,12,512.8,865)" />
<use xlink:href="#f1_22" transform="matrix(12,0,0,12,522,865)" />
<use xlink:href="#f1_23" transform="matrix(12,0,0,12,532.7,865)" />
<use xlink:href="#f1_20" transform="matrix(12,0,0,12,539.8,865)" />
<use xlink:href="#f1_1p" transform="matrix(12,0,0,12,549,865)" />
<use xlink:href="#f1_1n" transform="matrix(12,0,0,12,557.1,865)" />
<use xlink:href="#f1_1t" transform="matrix(12,0,0,12,565.2,865)" />
<use xlink:href="#f1_1l" transform="matrix(12,0,0,12,570.3,865)" />
<use xlink:href="#f1_1w" transform="matrix(12,0,0,12,578.5,865)" />
<use xlink:href="#f1_1t" transform="matrix(12,0,0,12,583.6,865)" />
<use xlink:href="#f1_23" transform="matrix(12,0,0,12,588.6,865)" />
<use xlink:href="#f1_24" transform="matrix(12,0,0,12,595.8,865)" />
<use xlink:href="#f1_1w" transform="matrix(12,0,0,12,605.5,865)" />
<use xlink:href="#f1_1l" transform="matrix(12,0,0,12,610.6,865)" />
<use xlink:href="#f1_27" transform="matrix(12,0,0,12,618.7,865)" />
<use xlink:href="#f1_1q" transform="matrix(12,0,0,12,636.5,865)" />
<use xlink:href="#f1_1t" transform="matrix(12,0,0,12,642.6,865)" />
<use xlink:href="#f1_22" transform="matrix(12,0,0,12,647.7,865)" />
<use xlink:href="#f1_1x" transform="matrix(12,0,0,12,653.8,865)" />
<use xlink:href="#f1_24" transform="matrix(12,0,0,12,672.7,865)" />
<use xlink:href="#f1_1z" transform="matrix(12,0,0,12,677.8,865)" />
<use xlink:href="#f1_1p" transform="matrix(12,0,0,12,691.5,865)" />
<use xlink:href="#f1_23" transform="matrix(12,0,0,12,699.6,865)" />
<use xlink:href="#f1_24" transform="matrix(12,0,0,12,706.8,865)" />
<use xlink:href="#f1_1l" transform="matrix(12,0,0,12,711.9,865)" />
<use xlink:href="#f1_1m" transform="matrix(12,0,0,12,720,865)" />
<use xlink:href="#f1_1w" transform="matrix(12,0,0,12,729.2,865)" />
<use xlink:href="#f1_1t" transform="matrix(12,0,0,12,734.3,865)" />
<use xlink:href="#f1_23" transform="matrix(12,0,0,12,739.4,865)" />
<use xlink:href="#f1_1s" transform="matrix(12,0,0,12,746.5,865)" />
<use xlink:href="#f1_1m" transform="matrix(12,0,0,12,183.9,896.5)" />
<use xlink:href="#f1_25" transform="matrix(12,0,0,12,193,896.5)" />
<use xlink:href="#f1_23" transform="matrix(12,0,0,12,202.2,896.5)" />
<use xlink:href="#f1_1t" transform="matrix(12,0,0,12,209.4,896.5)" />
<use xlink:href="#f1_1y" transform="matrix(12,0,0,12,214.4,896.5)" />
<use xlink:href="#f1_1p" transform="matrix(12,0,0,12,223.6,896.5)" />
<use xlink:href="#f1_23" transform="matrix(12,0,0,12,231.7,896.5)" />
<use xlink:href="#f1_23" transform="matrix(12,0,0,12,238.9,896.5)" />
<use xlink:href="#f1_1z" transform="matrix(12,0,0,12,250.6,896.5)" />
<use xlink:href="#f1_20" transform="matrix(12,0,0,12,259.8,896.5)" />
<use xlink:href="#f1_1p" transform="matrix(12,0,0,12,268.9,896.5)" />
<use xlink:href="#f1_22" transform="matrix(12,0,0,12,277.1,896.5)" />
<use xlink:href="#f1_1l" transform="matrix(12,0,0,12,283.2,896.5)" />
<use xlink:href="#f1_24" transform="matrix(12,0,0,12,291.3,896.5)" />
<use xlink:href="#f1_1t" transform="matrix(12,0,0,12,296.4,896.5)" />
<use xlink:href="#f1_1z" transform="matrix(12,0,0,12,301.5,896.5)" />
<use xlink:href="#f1_1y" transform="matrix(12,0,0,12,310.7,896.5)" />
<use xlink:href="#f1_23" transform="matrix(12,0,0,12,319.8,896.5)" />
<use xlink:href="#f1_27" transform="matrix(12,0,0,12,331.6,896.5)" />
<use xlink:href="#f1_1t" transform="matrix(12,0,0,12,344.8,896.5)" />
<use xlink:href="#f1_24" transform="matrix(12,0,0,12,349.9,896.5)" />
<use xlink:href="#f1_1s" transform="matrix(12,0,0,12,355,896.5)" />
<use xlink:href="#f1_1t" transform="matrix(12,0,0,12,364.1,896.5)" />
<use xlink:href="#f1_1y" transform="matrix(12,0,0,12,369.2,896.5)" />
<use xlink:href="#f1_24" transform="matrix(12,0,0,12,383,896.5)" />
<use xlink:href="#f1_1s" transform="matrix(12,0,0,12,388.1,896.5)" />
<use xlink:href="#f1_1p" transform="matrix(12,0,0,12,397.2,896.5)" />
<use xlink:href="#f1_x" transform="matrix(12,0,0,12,410,896.5)" />
<use xlink:href="#f1_1l" transform="matrix(12,0,0,12,422.2,896.5)" />
<use xlink:href="#f1_1y" transform="matrix(12,0,0,12,430.3,896.5)" />
<use xlink:href="#f1_24" transform="matrix(12,0,0,12,439.5,896.5)" />
<use xlink:href="#f1_1z" transform="matrix(12,0,0,12,444.6,896.5)" />
<use xlink:href="#f1_1y" transform="matrix(12,0,0,12,453.8,896.5)" />
<use xlink:href="#f1_1z" transform="matrix(12,0,0,12,467.5,896.5)" />
<use xlink:href="#f1_1q" transform="matrix(12,0,0,12,476.7,896.5)" />
<use xlink:href="#f1_1k" transform="matrix(12,0,0,12,487.4,896.5)" />
<use xlink:href="#f1_25" transform="matrix(12,0,0,12,498.6,896.5)" />
<use xlink:href="#f1_1r" transform="matrix(12,0,0,12,507.7,896.5)" />
<use xlink:href="#f1_1t" transform="matrix(12,0,0,12,521.5,896.5)" />
<use xlink:href="#f1_1y" transform="matrix(12,0,0,12,526.6,896.5)" />
<use xlink:href="#f1_1d" transform="matrix(12,0,0,12,540.3,896.5)" />
<use xlink:href="#f1_27" transform="matrix(12,0,0,12,550.5,896.5)" />
<use xlink:href="#f1_1t" transform="matrix(12,0,0,12,563.8,896.5)" />
<use xlink:href="#f1_24" transform="matrix(12,0,0,12,568.9,896.5)" />
<use xlink:href="#f1_2a" transform="matrix(12,0,0,12,573.9,896.5)" />
<use xlink:href="#f1_1p" transform="matrix(12,0,0,12,582.1,896.5)" />
<use xlink:href="#f1_22" transform="matrix(12,0,0,12,590.2,896.5)" />
<use xlink:href="#f1_1w" transform="matrix(12,0,0,12,596.3,896.5)" />
<use xlink:href="#f1_1l" transform="matrix(12,0,0,12,601.4,896.5)" />
<use xlink:href="#f1_1y" transform="matrix(12,0,0,12,609.6,896.5)" />
<use xlink:href="#f1_1o" transform="matrix(12,0,0,12,618.7,896.5)" />
<use xlink:href="#f1_1z" transform="matrix(12,0,0,12,632.5,896.5)" />
<use xlink:href="#f1_1y" transform="matrix(12,0,0,12,641.6,896.5)" />
<use xlink:href="#f1_1n" transform="matrix(12,0,0,12,650.8,896.5)" />
<use xlink:href="#f1_1p" transform="matrix(12,0,0,12,658.9,896.5)" />
<use xlink:href="#f1_1z" transform="matrix(12,0,0,12,671.7,896.5)" />
<use xlink:href="#f1_25" transform="matrix(12,0,0,12,680.8,896.5)" />
<use xlink:href="#f1_22" transform="matrix(12,0,0,12,690,896.5)" />
<use xlink:href="#f1_23" transform="matrix(12,0,0,12,700.7,896.5)" />
<use xlink:href="#f1_1p" transform="matrix(12,0,0,12,707.8,896.5)" />
<use xlink:href="#f1_1p" transform="matrix(12,0,0,12,716,896.5)" />
<use xlink:href="#f1_1o" transform="matrix(12,0,0,12,724.1,896.5)" />
<use xlink:href="#f1_1q" transform="matrix(12,0,0,12,183.9,928.4)" />
<use xlink:href="#f1_25" transform="matrix(12,0,0,12,190,928.4)" />
<use xlink:href="#f1_1y" transform="matrix(12,0,0,12,199.2,928.4)" />
<use xlink:href="#f1_1o" transform="matrix(12,0,0,12,208.3,928.4)" />
<use xlink:href="#f1_1t" transform="matrix(12,0,0,12,217.5,928.4)" />
<use xlink:href="#f1_1y" transform="matrix(12,0,0,12,222.6,928.4)" />
<use xlink:href="#f1_1r" transform="matrix(12,0,0,12,231.7,928.4)" />
<use xlink:href="#f1_22" transform="matrix(12,0,0,12,245.5,928.4)" />
<use xlink:href="#f1_1z" transform="matrix(12,0,0,12,251.6,928.4)" />
<use xlink:href="#f1_25" transform="matrix(12,0,0,12,260.8,928.4)" />
<use xlink:href="#f1_1y" transform="matrix(12,0,0,12,269.9,928.4)" />
<use xlink:href="#f1_1o" transform="matrix(12,0,0,12,279.1,928.4)" />
<use xlink:href="#f1_1t" transform="matrix(12,0,0,12,292.9,928.4)" />
<use xlink:href="#f1_23" transform="matrix(12,0,0,12,297.9,928.4)" />
<use xlink:href="#f1_1n" transform="matrix(12,0,0,12,309.7,928.4)" />
<use xlink:href="#f1_1w" transform="matrix(12,0,0,12,317.8,928.4)" />
<use xlink:href="#f1_1z" transform="matrix(12,0,0,12,322.9,928.4)" />
<use xlink:href="#f1_23" transform="matrix(12,0,0,12,332.1,928.4)" />
<use xlink:href="#f1_1p" transform="matrix(12,0,0,12,339.2,928.4)" />
<use xlink:href="#f1_1o" transform="matrix(12,0,0,12,347.3,928.4)" />
<use xlink:href="#f1_f" transform="matrix(12,0,0,12,356.5,928.4)" />
<use xlink:href="#f0_14" transform="matrix(12,0,0,12,183.9,991.5)" />
<use xlink:href="#f0_1d" transform="matrix(12,0,0,12,196.1,991.5)" />
<use xlink:href="#f0_19" transform="matrix(12,0,0,12,204.2,991.5)" />
<use xlink:href="#f0_1l" transform="matrix(12,0,0,12,213.4,991.5)" />
</g>
</g>
<path d="M183.7,995.5l45.1,0l0,-1.5l-45.1,0l0,1.5Z" class="g1_20" />
<g clip-path="url(#c0_20)">
<g fill="#000000" >
<use xlink:href="#f0_x" transform="matrix(12,0,0,12,183.9,1054.9)" />
<use xlink:href="#f0_19" transform="matrix(12,0,0,12,201.2,1054.9)" />
<use xlink:href="#f0_1m" transform="matrix(12,0,0,12,210.4,1054.9)" />
<use xlink:href="#f0_19" transform="matrix(12,0,0,12,220.5,1054.9)" />
<use xlink:href="#f0_1f" transform="matrix(12,0,0,12,229.7,1054.9)" />
<use xlink:href="#f0_1d" transform="matrix(12,0,0,12,238.9,1054.9)" />
<use xlink:href="#f0_1l" transform="matrix(12,0,0,12,247,1054.9)" />
<use xlink:href="#f0_1d" transform="matrix(12,0,0,12,262.3,1054.9)" />
<use xlink:href="#f0_1m" transform="matrix(12,0,0,12,270.4,1054.9)" />
<use xlink:href="#f0_1r" transform="matrix(12,0,0,12,280.6,1054.9)" />
<use xlink:href="#f0_14" transform="matrix(12,0,0,12,291.3,1054.9)" />
<use xlink:href="#f0_1d" transform="matrix(12,0,0,12,303.5,1054.9)" />
<use xlink:href="#f0_19" transform="matrix(12,0,0,12,311.7,1054.9)" />
<use xlink:href="#f0_1l" transform="matrix(12,0,0,12,320.8,1054.9)" />
<use xlink:href="#f0_o" transform="matrix(12,0,0,12,183.9,1118)" />
<use xlink:href="#f0_19" transform="matrix(12,0,0,12,197.1,1118)" />
<use xlink:href="#f0_1p" transform="matrix(12,0,0,12,206.3,1118)" />
<use xlink:href="#f0_1k" transform="matrix(12,0,0,12,214.4,1118)" />
<use xlink:href="#f0_1n" transform="matrix(12,0,0,12,219.5,1118)" />
<use xlink:href="#f0_1q" transform="matrix(12,0,0,12,228.7,1118)" />
<use xlink:href="#f0_x" transform="matrix(12,0,0,12,240.4,1118)" />
<use xlink:href="#f0_19" transform="matrix(12,0,0,12,257.7,1118)" />
<use xlink:href="#f0_1r" transform="matrix(12,0,0,12,266.9,1118)" />
<use xlink:href="#f0_1h" transform="matrix(12,0,0,12,273,1118)" />
<use xlink:href="#f0_19" transform="matrix(12,0,0,12,278.1,1118)" />
<use xlink:href="#f0_1q" transform="matrix(12,0,0,12,287.2,1118)" />
<use xlink:href="#f0_n" transform="matrix(12,0,0,12,299,1118)" />
<use xlink:href="#f0_19" transform="matrix(12,0,0,12,311.2,1118)" />
<use xlink:href="#f0_1f" transform="matrix(12,0,0,12,320.4,1118)" />
<use xlink:href="#f0_1k" transform="matrix(12,0,0,12,329.5,1118)" />
<use xlink:href="#f0_1h" transform="matrix(12,0,0,12,334.6,1118)" />
<use xlink:href="#f0_1d" transform="matrix(12,0,0,12,339.7,1118)" />
<use xlink:href="#f0_1p" transform="matrix(12,0,0,12,347.8,1118)" />
<use xlink:href="#f0_1h" transform="matrix(12,0,0,12,356,1118)" />
<use xlink:href="#f0_1y" transform="matrix(12,0,0,12,365.7,1118)" />
<use xlink:href="#f0_o" transform="matrix(12,0,0,12,379.4,1118)" />
<use xlink:href="#f0_q" transform="matrix(12,0,0,12,392.6,1118)" />
<use xlink:href="#f0_z" transform="matrix(12,0,0,12,404.9,1118)" />
</g>
</g>
<path d="M184.1,542.7l358.6,0l0,-355.3l-358.6,0l0,355.3Z" class="g2_20" />
<image preserveAspectRatio="none" x="184" y="187" width="359" height="356" xlink:href="img/1.png" />
<defs>
	<path d="M548.5,-23.4c0,0,-131.3,0,-202.9,35c0,0,-97.8,47.8,-138.1,122.4c0,0,-40.3,74.6,-40.3,200.7l0,495.4c0,0,0,87.4,-9.7,108.6c0,0,-9.7,21.3,-33.5,34c0,0,-22.5,12,-82.4,12c-1.8,0,-3.6,0,-5.4,-0.1l0,27.4l522.1,0l0,-27.4l-26.1,0c0,0,-58.9,0,-80.9,-12.3c0,0,-22,-12.3,-31.3,-33.9c0,0,-9.3,-21.7,-9.3,-108.3l0,-495.3c0,0,0,-135.8,20.5,-179.8c0,0,20.5,-44,67.5,-73.1c0,0,47,-29.1,118.7,-29.1c0,0,82.1,0,139.9,36.9c0,0,57.8,37,86.6,101.9c0,0,28.7,64.9,28.7,226l0,412.5c0,0,0,68,-14.2,97.1c0,0,-14.1,29.1,-35.8,40.3c0,0,-33.5,17.1,-94.7,17.1l0,27.4l350,0l0,-27.4l-20.9,0c0,0,-42.6,0,-71,-17.1c0,0,-28.4,-17.2,-41.1,-51.5c0,0,-9.7,-23.9,-9.7,-85.9l0,-384.2c0,0,0,-178.4,-23.6,-257.4c0,0,-23.5,-79.1,-114.5,-145.5c0,0,-91.1,-66.4,-248.6,-66.4Z" 
	id="f0_15"
	transform="scale(0.001,-0.001)" />

	<path d="M311.6,-20.4c0,0,-49.9,0,-133.4,30.9c0,0,-22.4,8.1,-30.6,8.1c0,0,-24.6,0,-41,-37.1l-24.5,0L70.4,231.7l26.4,0c0,0,33.4,-98.2,91.6,-147.4c0,0,58.2,-49.1,110.2,-49.1c0,0,35.6,0,58.2,22c0,0,22.7,22,22.7,53.4c0,0,0,35.8,-22.4,61.9c0,0,-22.3,26.1,-99.8,79.1c0,0,-114,79.1,-147.5,120.9c0,0,-49.2,61.1,-49.2,135c0,0,0,80.6,55.5,145.9c0,0,55.5,65.3,160.5,65.3c0,0,56.6,0,109.5,-27.9c0,0,20.1,-11.2,32.8,-11.2c0,0,13.4,0,21.5,5.5c0,0,8.2,5.6,26.1,31.6l26.4,0L503.6,479.1l-26.3,0c0,0,-45.3,106.1,-93.9,145c0,0,-48.6,38.8,-96.8,38.8c0,0,-30.4,0,-51.9,-20.5c0,0,-21.5,-20.5,-21.5,-47.4c0,0,0,-20.1,14.8,-38.8c0,0,23.8,-30.6,133.2,-104.8c0,0,109.4,-74.2,144,-126.1c0,0,34.6,-51.9,34.6,-116c0,0,0,-58.2,-29.1,-114.2c0,0,-29.1,-56,-82,-85.8c0,0,-53,-29.7,-117.1,-29.7Z" 
	id="f0_1q"
	transform="scale(0.001,-0.001)" />

	<path d="M458.1,424.4c0,0,0,119.7,-13,164.3c0,0,-13,44.6,-40.4,67.7c0,0,-15.6,13.4,-41.6,13.4c0,0,-38.6,0,-63.1,-38c0,0,-43.8,-66.1,-43.8,-181.4l0,-26ZM357.8,-20.4c0,0,-155.2,0,-235,119.2c0,0,-64.1,96.2,-64.1,238.7c0,0,0,174.6,94.3,277.9c0,0,94.4,103.3,221.2,103.3c0,0,105.9,0,183.8,-86.8c0,0,78,-86.8,83.9,-257.4l-382.8,0c0,0,6.7,-138.9,73.9,-219.6c0,0,51.5,-62,123.9,-62c0,0,44.7,0,81.3,25.1c0,0,36.6,25.1,78.4,90.3l25.3,-16.6c0,0,-56.7,-115.8,-125.3,-164c0,0,-68.6,-48.1,-158.8,-48.1Z" 
	id="f0_1d"
	transform="scale(0.001,-0.001)" />

	<path d="M381,31.3c0,0,33.4,0,55.7,18.6c0,0,28.9,25.4,38.6,70.9c0,0,14.8,70.8,14.8,286.3c0,0,0,126.8,-14.1,174.1c0,0,-14.1,47.4,-41.6,69c0,0,-19.3,15.7,-50.5,15.7c0,0,-37.9,0,-65,-28.7c0,0,-27.1,-28.7,-35.6,-113.4c0,0,-8.5,-84.6,-8.5,-235.2c0,0,0,-79.8,10.4,-149.2c0,0,8.1,-52.9,34.9,-80.5c0,0,26.7,-27.6,60.9,-27.6Zm1.8,-51.7c0,0,-157.2,0,-242.1,110.3c0,0,-85,110.3,-85,255.8c0,0,0,149.9,86.8,261.5c0,0,86.8,111.5,238.1,111.5c0,0,90.9,0,169.1,-47c0,0,78.2,-47,118.8,-133.5c0,0,40.6,-86.6,40.6,-189.5c0,0,0,-148.5,-75.2,-248.4c0,0,-90.9,-120.7,-251.1,-120.7Z" 
	id="f0_1n"
	transform="scale(0.001,-0.001)" />

	<path d="M49.4,0l0,26.4c0,0,47,0.7,66.9,10.8c0,0,19.8,10.1,27.3,28c0,0,7.4,17.9,7.4,74.6l-0.7,484l-100.9,0l0,73.4l100.8,0l0,51.8l-0.1,35c0,0,0,107.4,78.5,178.9c0,0,78.6,71.6,212.7,71.6c0,0,91.6,0,136,-34.4c0,0,44.3,-34.4,44.3,-76.2c0,0,0,-33.7,-27.6,-58.3c0,0,-27.6,-24.7,-73.1,-24.7c0,0,-38.8,0,-61.6,20.1c0,0,-22.7,20.2,-22.7,44.7c0,0,0,6.8,4.7,27.6c0,0,3.1,12.7,3.1,23.9c0,0,0,15.6,-9,23.1c0,0,-12,11.2,-29.2,11.2c0,0,-21.6,0,-36.2,-17.9c0,0,-14.6,-17.8,-14.6,-57.2l0.3,-130.1l0.2,-89.1l104.1,0l0,-73.4l-103.9,0l1.2,-484c0,0,0,-70.1,14.9,-88c0,0,22,-25.5,80.5,-25.5c2.4,0,4.8,0,7.3,0.1L460,0Z" 
	id="f0_1e"
	transform="scale(0.001,-0.001)" />

	<path d="M34.2,0l0,27.4l33.7,0c0,0,44.1,0,71,15.7c0,0,19.4,10.4,29.9,35.8c0,0,8.2,18,8.2,94.2l0,665.8c0,0,0,77.8,-8.2,97.2c0,0,-8.3,19.4,-33.3,34c0,0,-25,14.5,-67.6,14.5l-33.7,0l0,27.4l853.1,0l0,-290.4l-30.3,0c0,0,-10.5,102.1,-53.4,151.3c0,0,-42.9,49.2,-124.2,69.3c0,0,-44.7,11.1,-165.6,11.1l-93.4,0l0,-415.5l28.4,0c0,0,67.1,0,109.6,20.1c0,0,42.5,20.2,72,67.9c0,0,29.5,47.7,38.4,129l26.4,0l0,-507.4l-26.4,0c0,0,-14.2,143.9,-77.2,189.8c0,0,-63,45.8,-142.8,45.8l-28.4,0l0,-309.9c0,0,0,-77.8,8.6,-97.2c0,0,8.5,-19.4,33.4,-34c0,0,25,-14.5,67.3,-14.5l33.5,0L563.2,0Z" 
	id="f0_r"
	transform="scale(0.001,-0.001)" />

	<path d="M304.3,-20.4c0,0,-59,0,-104.8,36c0,0,-45.9,36.1,-61.6,84.5c0,0,-15.7,48.5,-15.7,169.1l0,276.4c0,0,0,79.3,-14.5,98.7c0,0,-14.6,19.5,-60.8,25.5l0,27.4l284.6,0l0,-476c0,0,0,-74.5,7,-96.1c0,0,7.1,-21.6,22.4,-32.8c0,0,15.3,-11.1,35.4,-11.1c0,0,26.8,0,48.4,14.1c0,0,29.8,19.4,71.6,78.2l0,372.1c0,0,0,79.3,-14.6,98.7c0,0,-14.5,19.5,-60.7,25.5l0,27.4l284.5,0l0,-545.6c0,0,0,-80.2,14.9,-100.1c0,0,14.9,-19.9,60.4,-25.1L800.8,0L516.3,0l0,93.3c0,0,-50,-59.7,-100,-86.8c0,0,-50,-26.9,-112,-26.9Z" 
	id="f0_1s"
	transform="scale(0.001,-0.001)" />

	<path d="M51.8,0l0,26.4c0,0,44,4.5,62.6,28.3c0,0,12.7,16.4,12.7,96.9l0,394c0,0,0,79.3,-14.5,98.7c0,0,-14.6,19.5,-60.8,25.5l0,27.4l284.6,0l0,-90c0,0,53.8,58.4,103.1,84.9c0,0,49.4,26.6,106.2,26.6c0,0,68.1,0,112.9,-37.8c0,0,44.9,-37.7,59.8,-93.7c0,0,12,-42.6,12,-163.7l0,-271.9c0,0,0,-80.5,14.5,-100.2c0,0,14.6,-19.8,60.8,-25L805.7,0l-354,0l0,26.4c0,0,40,5.2,57.4,32.8c0,0,12.1,18.6,12.1,92.4l0,310.9c0,0,0,86,-6.8,108.4c0,0,-6.7,22.4,-22.8,34.7c0,0,-16.1,12.4,-35.5,12.4c0,0,-64.4,0,-119.7,-91.9l0,-374.5c0,0,0,-78.3,14.7,-99.1c0,0,14.7,-20.9,54.7,-26.1L405.8,0Z" 
	id="f0_1m"
	transform="scale(0.001,-0.001)" />

	<path d="M396.7,69.4c0,0,65.5,0,123.5,102.8l0,366.6c0,0,-55.1,105.6,-134.7,105.6c0,0,-27.5,0,-45.3,-14.9c0,0,-27.6,-23.1,-45,-81.2c0,0,-17.5,-58.1,-17.5,-178c0,0,0,-131.8,19.3,-195.1c0,0,19.4,-63.3,52.8,-91.6c0,0,17.1,-14.2,46.9,-14.2ZM332.3,-20.4c0,0,-133.5,0,-211,119.2c0,0,-62.6,97,-62.6,238c0,0,0,112.6,38.7,201.7c0,0,38.8,89.2,106.3,134.7c0,0,67.5,45.5,145,45.5c0,0,50,0,88.7,-19.4c0,0,38.8,-19.3,82.8,-67.6l0,210.2c0,0,0,79.9,-6.7,96.3c0,0,-9,21.6,-26.9,32.1c0,0,-17.9,10.4,-67.1,10.4l0,31.3l309.9,0l0,-802.7c0,0,0,-81.3,4.5,-96.2c0,0,5.9,-24.6,22.5,-36.6c0,0,16.7,-11.9,58.1,-14.9l0,-24.4L520.2,-20.4l0,110.3c0,0,-53,-64.2,-94.3,-87.3c0,0,-41.4,-23,-93.6,-23Z" 
	id="f0_1c"
	transform="scale(0.001,-0.001)" />

	<path d="M610.3,-22.4c0,0,-161.8,0,-287.5,64.8c0,0,-125.7,64.8,-193.9,186.3c0,0,-68.3,121.5,-68.3,258.7c0,0,0,144.6,75.7,274.3c0,0,75.8,129.7,204.4,201.2c0,0,128.7,71.6,273.5,71.6c0,0,106.6,0,225.3,-46.4c0,0,68.6,-26.9,87.2,-26.9c0,0,23.9,0,41.4,17.5c0,0,17.6,17.6,22.8,55.8l29.3,0l0,-351l-29.3,0c0,0,-32.8,137.3,-122.4,210.4c0,0,-89.5,73.1,-202.9,73.1c0,0,-94.7,0,-173.8,-54.3c0,0,-79.1,-54.4,-115.6,-142.3c0,0,-47,-112.5,-47,-250.3c0,0,0,-135.5,34.3,-246.9c0,0,34.3,-111.3,107.4,-168.3c0,0,73.1,-57,189.4,-57c0,0,95.5,0,174.9,41.8c0,0,79.4,41.7,167.4,143.8l0,-87.3c0,0,-85,-88.8,-177.1,-128.7c0,0,-92.1,-39.9,-215.2,-39.9Z" 
	id="f0_o"
	transform="scale(0.001,-0.001)" />

	<path d="M56.4,0l0,26.4c0,0,44,4.5,62.6,28.3c0,0,12.7,16.4,12.7,96.9l0,394c0,0,0,79.3,-14.6,98.7c0,0,-14.5,19.5,-60.7,25.5l0,27.4l284.5,0l0,-91.2c0,0,57.6,62.7,106.5,87.7c0,0,48.9,25,107.2,25c0,0,67.3,0,112.8,-31.4c0,0,45.6,-31.3,70.3,-95.5c0,0,59.6,67.2,114.5,97c0,0,54.8,29.9,114.5,29.9c0,0,72.3,0,115.2,-33.3c0,0,42.9,-33.2,59.7,-84.4c0,0,16.7,-51.2,16.7,-163.3l0,-286.1c0,0,0,-80.5,14.6,-99.9c0,0,14.5,-19.4,60.7,-25.3l0,-26.4L872.9,0l0,26.4c0,0,42.6,3.7,62.7,32.8c0,0,13.5,20.1,13.5,92.4l0,300.4c0,0,0,93.4,-7.4,118.8c0,0,-7.5,25.4,-23.5,37.8c0,0,-16,12.3,-37.6,12.3c0,0,-32,0,-64.7,-23.5c0,0,-32.8,-23.5,-66.3,-70.5l0,-375.3c0,0,0,-75.3,12.7,-94.7c0,0,17.1,-27.5,65.6,-30.5L827.9,0L466.1,0l0,26.4c0,0,29.3,1.5,46.1,14.5c0,0,16.9,13,22.6,31.3c0,0,5.6,18.3,5.6,79.4l0,300.5c0,0,0,95,-7.5,118.9c0,0,-7.5,23.9,-25,37.4c0,0,-17.6,13.5,-37.7,13.5c0,0,-29.9,0,-54.6,-15.7c0,0,-35.1,-23.2,-74.7,-79.3l0,-375.3c0,0,0,-73.8,14.6,-97.3c0,0,14.5,-23.4,60.7,-27.9L416.2,0Z" 
	id="f0_1l"
	transform="scale(0.001,-0.001)" />

	<path d="M459,55.7c0,0,40.3,0,66.4,42.6c0,0,38.8,62.6,38.8,238.6c0,0,0,180.5,-42.5,246.8c0,0,-28.4,44,-76.2,44c0,0,-75.3,0,-123.8,-108.8l0,-372.2c0,0,64.2,-91,137.3,-91ZM29.3,-326.5l0,27.4c0,0,46.1,1.5,68.3,26.2c0,0,14.8,17.3,14.8,89.2l0,735.2c0,0,0,74.1,-17,94.7c0,0,-17.1,20.6,-66.1,23.6l0,27.4l292.4,0l0,-91.8c0,0,36.5,53.7,74.5,77.6c0,0,54.5,35.7,118.6,35.7c0,0,76.8,0,139.8,-48.5c0,0,63,-48.5,95.8,-133.9c0,0,32.8,-85.4,32.8,-183.9c0,0,0,-105.9,-33.9,-193.5c0,0,-34,-87.7,-98.5,-133.6c0,0,-64.4,-45.7,-143.5,-45.7c0,0,-57.4,0,-107.3,25.2c0,0,-37.3,19.4,-78.3,66.4l0,-259.8c0,0,0,-53.7,8.6,-73.2c0,0,8.6,-19.4,26.6,-28.3c0,0,18,-9,70.4,-9l0,-27.4Z" 
	id="f0_1o"
	transform="scale(0.001,-0.001)" />

	<path d="M349.7,115.4c0,0,37.4,0,86.6,42l0,233.9c0,0,-90.3,-53.1,-134.4,-113.7c0,0,-29.1,-40.3,-29.1,-81.4c0,0,0,-34.5,24.6,-60.6c0,0,18.7,-20.2,52.3,-20.2ZM207.2,-9.7c0,0,-59.7,0,-99.2,39.1c0,0,-39.6,39.2,-39.6,98.2c0,0,0,79.9,68.7,143.8c0,0,68.7,63.9,299.2,169.9l0,70.1c0,0,0,79,-8.5,99.5c0,0,-8.6,20.5,-32.4,35.8c0,0,-23.8,15.3,-53.6,15.3c0,0,-48.3,0,-79.6,-21.7c0,0,-19.5,-13.4,-19.5,-31.3c0,0,0,-15.6,20.9,-38.7c0,0,28.4,-32.1,28.4,-61.9c0,0,0,-36.5,-27.2,-62.2c0,0,-27.3,-25.8,-71.3,-25.8c0,0,-47,0,-78.7,28.4c0,0,-31.7,28.3,-31.7,66.3c0,0,0,53.7,42.5,102.5c0,0,42.5,48.9,118.6,75c0,0,76,26.1,158,26.1c0,0,99.2,0,157,-42.2c0,0,57.8,-42.1,75,-91.4c0,0,10.4,-31.3,10.4,-144l0,-270.7c0,0,0,-47.8,3.7,-60.1c0,0,3.8,-12.3,11.2,-18.3c0,0,7.5,-5.9,17.4,-5.9c0,0,19.2,0,39.2,28.1L738.5,95.9c0,0,-37.3,-55.4,-77.2,-80.5c0,0,-39.9,-25.1,-90.7,-25.1c0,0,-59.6,0,-93.2,27.9c0,0,-33.6,27.9,-41.1,84.5c0,0,-127.6,-112.4,-229.1,-112.4Z" 
	id="f0_19"
	transform="scale(0.001,-0.001)" />

	<path d="M181.6,-329.4c0,0,-61.8,0,-100.2,35.5c0,0,-38.4,35.4,-38.4,85.4c0,0,0,43.3,26.4,71.7c0,0,26.5,28.4,65.2,28.4c0,0,37.2,0,59.9,-23.9c0,0,22.8,-24,23.5,-74c0,0,0.8,-28.4,6.8,-36.7c0,0,5.9,-8.2,17.1,-8.2c0,0,17.9,0,38.1,21.7c0,0,29.8,31.3,70.1,143.3L372,-29L146.5,488.4c0,0,-50.7,117.2,-75,144c0,0,-24.2,26.9,-58.5,37.4l0,27.4l371.3,0l0,-27.4c0,0,-36.5,-1.5,-51.4,-14.2c0,0,-15,-12.6,-15,-30.5c0,0,0,-28.3,37.3,-111.8L474.8,239l81.3,211.8c0,0,44,112.8,44,156.9c0,0,0,27.7,-18.3,44.1c0,0,-18.3,16.5,-64.5,18l0,27.4l232.6,0l0,-27.4c0,0,-34.3,-3.7,-55.9,-26.5c0,0,-21.7,-22.8,-72.4,-154.9L422.4,-28.2c0,0,-75.3,-193.9,-111.8,-238.6c0,0,-51.5,-62.6,-129,-62.6Z" 
	id="f0_1w"
	transform="scale(0.001,-0.001)" />

	<path d="M597.4,33.3c0,0,76.8,0,128.2,37.2c0,0,65.6,47.8,102.2,152.5c0,0,36.5,104.7,36.5,273.2c0,0,0,200.5,-37.3,300c0,0,-37.3,99.6,-95,140.6c0,0,-57.8,41,-133.1,41c0,0,-138.7,0,-211,-141.7c0,0,-59,-116.3,-59,-333.9c0,0,0,-258.7,91,-382.5c0,0,63.4,-86.4,177.5,-86.4Zm2.2,-55.7c0,0,-273,0,-422.1,184.8c0,0,-117.9,146.1,-117.9,346.7c0,0,0,225.1,153.3,375.3c0,0,144.5,141.7,357.8,141.7c6.3,0,12.7,-0.2,19.2,-0.4c0,0,2.8,0.1,7.9,0.1c42.7,0,249.9,-7.2,384.8,-141c0,0,151,-149.9,151,-375c0,0,0,-192.3,-112.6,-338.5c0,0,-149.2,-193.7,-421.4,-193.7Z" 
	id="f0_z"
	transform="scale(0.001,-0.001)" />

	<path d="M367.4,-20.4L132.8,520.3c0,0,-42.5,97.4,-66.4,123.4c0,0,-17.1,19.4,-50.7,26.1l0,27.4l370.1,0l0,-27.4c0,0,-35.1,0,-47.7,-12.7c0,0,-17.9,-16.4,-17.9,-38.8c0,0,0,-27.6,32.8,-103.7L467.5,253l91.8,225.8c0,0,39.5,97,39.5,137.3c0,0,0,23.1,-16.8,37.6c0,0,-16.8,14.6,-59.3,16.1l0,27.4l227.4,0l0,-27.4c0,0,-32.8,-4.5,-53.7,-24.6c0,0,-20.9,-20.1,-62.6,-118.4L401.8,-20.4Z" 
	id="f0_1t"
	transform="scale(0.001,-0.001)" />

	<path d="M56.7,0l0,26.4c0,0,45.3,3.7,61.3,25.1c0,0,16,21.3,16,112.8l0,385.2c0,0,0,59.8,-6,76.2c0,0,-7.4,20.9,-21.5,30.6c0,0,-14.1,9.8,-49.8,13.5l0,27.4l285.5,0l0.3,-157.8c0,0,69.2,108.3,121.3,143.8c0,0,52,35.5,100.4,35.5c0,0,41.4,0,66.2,-25.7c0,0,24.7,-25.7,24.7,-72.7c0,0,0,-49.9,-24.3,-77.4c0,0,-24.3,-27.6,-58.8,-27.6c0,0,-38.9,0,-67.6,25.2c0,0,-28.6,25.1,-33.8,28c0,0,-7.3,4.5,-16.9,4.5c0,0,-21.6,0,-40.9,-16.4c0,0,-30.5,-25.4,-46.1,-72.4c0,0,-23.8,-72.4,-23.8,-159.7l0.2,-160.4l0.1,-41.9c0,0,0,-42.6,5.2,-54.6c0,0,9,-20.3,26.5,-29.6c0,0,17.5,-9.4,59.2,-11.6L434.1,0Z" 
	id="f0_1p"
	transform="scale(0.001,-0.001)" />

	<path d="M32.3,0l0,26.4c0,0,46,1.5,68.2,27c0,0,14.9,17.2,14.9,91.3l0,406.8c0,0,0,74.1,-17.1,94.7c0,0,-17.1,20.6,-66,23.6l0,27.4l292.3,0l0,-552.5c0,0,0,-74.1,17.3,-94.7c0,0,17.4,-20.6,67.8,-23.6L409.7,0ZM219.6,803.7c0,0,-47.8,0,-81.4,33.6c0,0,-33.6,33.6,-33.6,81.4c0,0,0,47.8,33.6,81.8c0,0,33.6,34,81.4,34c0,0,48.6,0,82.2,-34c0,0,33.6,-34,33.6,-81.8c0,0,0,-47.8,-34,-81.4c0,0,-34,-33.6,-81.8,-33.6Z" 
	id="f0_1h"
	transform="scale(0.001,-0.001)" />

	<path d="M325.4,-20.4L139.1,484.4c0,0,-41.8,115.9,-70.9,151c0,0,-18.7,23.9,-56.7,34.4l0,27.4l352.9,0l0,-27.4c0,0,-35.8,0,-49.2,-10.5c0,0,-13.5,-10.4,-13.5,-23.9c0,0,0,-12.7,23.9,-76.1l102.1,-272L526,558.7l-6.9,18.6c0,0,-22.4,55.9,-39.2,71.2c0,0,-16.8,15.3,-51.8,21.3l0,27.4l357.2,0l0,-27.4c0,0,-41.8,-2.3,-53,-11.6c0,0,-11.2,-9.3,-11.2,-26.5c0,0,0,-16.4,21.6,-72.4l98.6,-272l89.4,250.4c0,0,19.4,53.7,19.4,73.1c0,0,0,29.1,-14.2,42.6c0,0,-14.1,13.4,-55.2,16.4l0,27.4l207,0l0,-27.4c0,0,-34.3,-4.5,-54.4,-24.3c0,0,-20.2,-19.8,-52.2,-112.4L785.4,-20.4l-42.5,0L551.5,490.7L364.2,-20.4Z" 
	id="f0_1u"
	transform="scale(0.001,-0.001)" />

	<path d="M26.4,0l0,27.4l35.8,0c0,0,62.7,0,91,36.5c0,0,17.9,23.9,17.9,115l0,654.2c0,0,0,77.2,-9.7,101.8c0,0,-7.4,18.5,-30.6,31.9c0,0,-32.8,17.8,-68.6,17.8l-35.8,0l0,27.4l432.2,0l0,-27.4l-36.4,0c0,0,-35.6,0,-67.5,-17.1c0,0,-23,-11.8,-31.9,-36c0,0,-8.9,-24.1,-8.9,-98.4l0,-291.4l469.7,0l0,291.4c0,0,0,77.2,-9.7,101.8c0,0,-7.5,18.5,-31.3,31.9c0,0,-32.1,17.8,-67.9,17.8l-35.8,0l0,27.4l432.2,0l0,-27.4l-35.8,0c0,0,-35.8,0,-67.9,-17.1c0,0,-23.9,-11.8,-32.5,-36c0,0,-8.5,-24.1,-8.5,-98.4l0,-654.2c0,0,0,-76.9,9.6,-101.5c0,0,7.5,-18.7,30.6,-32.1c0,0,32.9,-17.9,68.7,-17.9l35.8,0l0,-27.4L638.9,0l0,27.4l35.8,0c0,0,61.9,0,90.3,36.5c0,0,18.6,23.9,18.6,115l0,308l-469.7,0l0,-308c0,0,0,-76.9,9.6,-101.5c0,0,7.4,-18.7,31.2,-32.1c0,0,31.9,-17.9,67.5,-17.9l36.4,0L458.6,0Z" 
	id="f1_12"
	transform="scale(0.001,-0.001)" />

	<path d="M285.9,72.4c0,0,56.7,0,149.2,74.5l0,259.9c0,0,-112.7,-44.7,-145.5,-63.3c0,0,-59,-32.8,-84.3,-68.5c0,0,-25.4,-35.8,-25.4,-78.3c0,0,0,-53.6,32.1,-88.9c0,0,32.1,-35.4,73.9,-35.4Zm-68.6,-86c0,0,-70.8,0,-116.7,48.3c0,0,-45.8,48.5,-45.8,127.4c0,0,0,50,22.3,86.5c0,0,30.6,50.6,106.3,95.3c0,0,75.7,44.7,251.7,108.8l0,26.7c0,0,0,101.9,-32.2,139.8c0,0,-32.3,37.9,-93.8,37.9c0,0,-46.7,0,-74.1,-25.3c0,0,-28.2,-25.2,-28.2,-57.9l1.5,-43c0,0,0,-34.2,-17.7,-52.8c0,0,-17.7,-18.5,-46.3,-18.5c0,0,-27.8,0,-45.5,19.3c0,0,-17.6,19.4,-17.6,52.9c0,0,0,64,65.6,117.6c0,0,65.6,53.6,184.1,53.6c0,0,91,0,149.1,-30.5c0,0,44,-23.1,64.9,-72.3c0,0,13.4,-32,13.4,-131l0,-231.6c0,0,0,-97.6,3.7,-119.6c0,0,3.8,-21.9,12.4,-29.4c0,0,8.6,-7.4,19.8,-7.4c0,0,11.9,0,20.9,5.2c0,0,15.7,9.7,60.5,54.4l0,-41.7c0,0,-83.6,-111.7,-159.8,-111.7c0,0,-36.6,0,-58.3,25.1c0,0,-21.6,25.2,-22.4,85.9c0,0,-105.1,-80.9,-132,-93.5c0,0,-40.3,-18.5,-85.8,-18.5Z" 
	id="f1_1l"
	transform="scale(0.001,-0.001)" />

	<path d="M20.5,0l0,26.4l15,0c0,0,52.1,0,70.4,26.6c0,0,18.3,26.6,18.3,101.5l0,253.3c0,0,0,123.6,-5.6,150.5c0,0,-5.6,27,-17.1,36.7c0,0,-11.5,9.7,-30.8,9.7c0,0,-20.8,0,-49.8,-11.2L9.8,619.9L216.2,703l32.2,0l0,-144.8c0,0,119.7,144.8,228.4,144.8c0,0,55.8,0,96,-27.9c0,0,40.2,-28,64,-92.1c0,0,16.4,-44.7,16.4,-137.1l0,-291.4c0,0,0,-65.2,10.4,-88.4c0,0,8.2,-18.7,26.5,-29.2c0,0,18.3,-10.5,67.7,-10.5L757.8,0L418.5,0l0,26.4l14.2,0c0,0,47.8,0,66.8,14.6c0,0,19,14.6,26.5,43.1c0,0,3,11.2,3,70.4l0,279.3c0,0,0,93.1,-24.1,135.2c0,0,-24,42.1,-81.1,42.1c0,0,-88.1,0,-175.4,-96.9l0,-359.7c0,0,0,-69.7,8.2,-86.2c0,0,10.5,-21.7,28.8,-31.8c0,0,18.3,-10.1,74.4,-10.1L359.8,0Z" 
	id="f1_1y"
	transform="scale(0.001,-0.001)" />

	<path d="M399,61.6c0,0,67.7,0,131,68.3l0,351c0,0,-4.5,51.1,-26.8,92.9c0,0,-22.3,41.8,-59.2,63c0,0,-36.8,21.3,-71.8,21.3c0,0,-65.4,0,-116.8,-58.9c0,0,-67.7,-77.6,-67.7,-226.7c0,0,0,-150.6,65.5,-230.7c0,0,65.5,-80.2,145.8,-80.2Zm-69.5,-82c0,0,-111.7,0,-195.2,93.4c0,0,-83.5,93.6,-83.5,240.4c0,0,0,146.8,92.4,268.7c0,0,92.4,121.9,237.7,121.9c0,0,90.2,0,149.1,-57.6l0,127.1c0,0,0,116.8,-5.6,143.6c0,0,-5.7,26.9,-17.6,36.5c0,0,-12,9.7,-29.9,9.7c0,0,-19.5,0,-51.6,-11.9l-9.7,26.4l203.9,83.1l33.7,0l0,-791c0,0,0,-119.9,5.6,-146.3c0,0,5.6,-26.4,17.9,-36.9c0,0,12.3,-10.4,28.8,-10.4c0,0,20.2,0,53.8,12.7l8.3,-26.4l-203.3,-83l-34.3,0l0,98.1C530,77.7,480,25,432.3,2.2c0,0,-47.7,-22.6,-102.8,-22.6Z" 
	id="f1_1o"
	transform="scale(0.001,-0.001)" />

	<path d="M312.2,-20.4c0,0,-62.7,0,-143.3,22.6c0,0,-24.6,7.6,-40.3,7.6c0,0,-17.2,0,-26.9,-19.5l-24.5,0l0,243.4l24.5,0c0,0,20.9,-104.4,79.9,-157.3c0,0,59,-52.9,132.1,-52.9c0,0,51.6,0,84.1,30.1c0,0,32.4,30.2,32.4,72.6c0,0,0,51.4,-36.2,86.4c0,0,-36.1,35.1,-144.4,88.6c0,0,-108.2,53.6,-141.8,96.8c0,0,-33.5,42.5,-33.5,107.4c0,0,0,84.3,57.8,140.9c0,0,57.8,56.7,149.6,56.7c0,0,40.3,0,97.7,-17.1c0,0,38.1,-11.2,50.7,-11.2c0,0,12,0,18.7,5.2c0,0,6.7,5.2,15.7,23.1l24.4,0l0,-232.7l-24.4,0c0,0,-28.4,109.7,-72.8,149.2c0,0,-44.4,39.5,-113,39.5c0,0,-52.2,0,-84.3,-27.5c0,0,-32.1,-27.6,-32.1,-61.1c0,0,0,-41.8,23.9,-71.6c0,0,23.2,-30.5,94.1,-64.8L389.2,381.1c0,0,151.5,-73.8,151.5,-194.5c0,0,0,-93.1,-70.5,-150.1c0,0,-70.6,-56.9,-158,-56.9Z" 
	id="f1_23"
	transform="scale(0.001,-0.001)" />

	<path d="M177.3,647.3l0,35.1c0,0,76.8,45.6,104.5,85.2c0,0,19.4,28.4,19.4,68c0,0,0,23.2,-8.3,34.4c0,0,-8.9,11.2,-19.4,11.2c0,0,-8.2,0,-21.6,-5.2c0,0,-19.4,-6.7,-32.1,-6.7c0,0,-29.8,0,-52.9,22.4c0,0,-23.2,22.4,-23.2,56.1c0,0,0,37.3,23.2,58.3c0,0,31.3,28.4,74.7,28.4c0,0,50,0,90,-42.2c0,0,40,-42.3,40,-105.1c0,0,0,-88.2,-66.5,-160.7c0,0,-44.1,-47.8,-127.8,-79.2Z" 
	id="f1_2i"
	transform="scale(0.001,-0.001)" />

	<path d="M62.6,0l0,26.4l30.5,0c0,0,29.8,0,54.4,15c0,0,24.5,15,33.8,40.5c0,0,9.4,25.5,9.4,99l0,448.8l-133,0l0,53.8l133,0l0,44.7c0,0,0,102,32.9,172.8c0,0,32.9,70.8,100.5,114.3c0,0,67.7,43.6,152.2,43.6c0,0,78.5,0,144.2,-50.6c0,0,43.4,-33.6,43.4,-75.3c0,0,0,-22.3,-19.4,-42.1c0,0,-19.4,-19.7,-41.8,-19.7c0,0,-17.1,0,-36.1,12.3c0,0,-19,12.3,-46.6,52.8c0,0,-27.6,40.6,-50.8,54.7c0,0,-23.1,14.2,-51.4,14.2c0,0,-34.3,0,-58.2,-18.3c0,0,-23.9,-18.2,-34.3,-56.6c0,0,-10.5,-38.3,-10.5,-197.7l0,-49.1l176,0l0,-53.8l-176,0l0,-448.8c0,0,0,-96,20.9,-121.5c0,0,27.6,-33,73.8,-33l61.8,0L471.3,0Z" 
	id="f1_1q"
	transform="scale(0.001,-0.001)" />

	<path d="M405.9,32.3c0,0,72.3,0,119.2,59.6c0,0,47,59.5,47,204.8c0,0,0,181.7,-78.3,285.9c0,0,-52.9,71.5,-134.8,71.5c0,0,-39.5,0,-79.4,-23.4c0,0,-39.8,-23.5,-64.4,-82.3c0,0,-24.6,-58.9,-24.6,-151.2c0,0,0,-149,59.2,-256.9c0,0,59.3,-108,156.1,-108Zm-32,-52.7c0,0,-154.4,0,-245.3,122.8c0,0,-76.8,103.6,-76.8,232.5c0,0,0,93.9,46.6,186.7c0,0,46.6,92.7,122.7,137.1c0,0,76,44.3,161,44.3c0,0,155,0,249,-117.7c0,0,79.7,-100.6,79.7,-231c0,0,0,-91.7,-43.9,-185.6c0,0,-44,-93.9,-121.2,-141.5c0,0,-77.1,-47.6,-171.8,-47.6Z" 
	id="f1_1z"
	transform="scale(0.001,-0.001)" />

	<path d="M292,-20.4c0,0,-57.5,0,-99.7,33.1c0,0,-42.1,33.1,-58.5,85.3c0,0,-16.5,52.2,-16.5,147.6l0,304.9c0,0,0,49.1,-10.4,68c0,0,-10.4,18.9,-30.9,29.1c0,0,-19,9.5,-68.5,9.5c-1.8,0,-3.6,0,-5.5,0l0,26.4l239.5,0l0,-457.1c0,0,0,-95.4,33.2,-125.2c0,0,33.2,-29.8,80.1,-29.8c0,0,32.1,0,72.7,20.1c0,0,40.7,20.1,96.6,76.8l0,387.1c0,0,0,58.7,-21.4,79.5c0,0,-21.4,20.7,-89.1,22.2l0,26.4l233.7,0l0,-414.6c0,0,0,-118.7,5.6,-145.2c0,0,5.6,-26.5,18,-36.9c0,0,12.3,-10.5,28.8,-10.5c0,0,23.2,0,52.5,12.7L762.7,62.6l-204.9,-83l-33.7,0l0,144.7c0,0,-88.1,-95.6,-134.3,-120.2c0,0,-46.3,-24.5,-97.8,-24.5Z" 
	id="f1_25"
	transform="scale(0.001,-0.001)" />

	<path d="M54.8,0l0,26.4c0,0,50,0,67.2,9.7c0,0,17.2,9.8,27.3,32.2c0,0,10.1,22.5,10.1,86.2l0,263c0,0,0,111.6,-6.7,144.6c0,0,-5.2,24,-16.3,33.3c0,0,-11.2,9.3,-30.5,9.3c0,0,-20.8,0,-50.5,-11.2L45,619.9L250.7,703l32.9,0l0,-548.5c0,0,0,-64.4,9.3,-85.8c0,0,9.3,-21.3,27.6,-31.8c0,0,18.2,-10.5,66.7,-10.5L387.2,0Zm167,909.3c0,0,-31.3,0,-53.7,22.4c0,0,-22.4,22.4,-22.4,53.8c0,0,0,31.3,22,53.4c0,0,22,22,54.1,22c0,0,31.4,0,53.4,-22c0,0,22,-22.1,22,-53.4c0,0,0,-31.4,-22,-53.8c0,0,-22,-22.4,-53.4,-22.4Z" 
	id="f1_1t"
	transform="scale(0.001,-0.001)" />

	<path d="M411.3,-239.4c0,0,134.2,0,197.9,47.1c0,0,63.8,47.1,63.8,100.6c0,0,0,38.6,-38.1,54.9c0,0,-38.7,16.3,-153.6,19.3c0,0,-167.8,4.6,-258,17.5c0,0,-35,-37.8,-52.9,-70.6c0,0,-17.9,-32.7,-17.9,-60.2c0,0,0,-35.8,43.3,-62.5c0,0,74.6,-46.1,215.5,-46.1ZM379.8,257.2c0,0,56.6,0,93.1,42.3c0,0,36.5,42.4,36.5,133.1c0,0,0,118.3,-51.4,185.2c0,0,-38,49.1,-97.6,49.1c0,0,-55.1,0,-92.4,-43.9c0,0,-37.2,-43.9,-37.2,-134.6c0,0,0,-117.5,50.6,-182.2c0,0,38.8,-49,98.4,-49ZM345.1,-329.4c0,0,-144,0,-243.2,64.9c0,0,-55.9,37.2,-55.9,77.5c0,0,0,17.9,8.1,35.8c0,0,12.7,27.6,52.2,76.8c0,0,5.2,6.7,75.9,80.4c0,0,-38.7,23.1,-54.7,41.4c0,0,-16,18.4,-16,41.5c0,0,0,26.2,21.2,61.3c0,0,21.2,35.1,97.9,99.4c0,0,-62.7,30.5,-96.3,85.2c0,0,-33.6,54.8,-33.6,121c0,0,0,101.3,76.6,174.3c0,0,76.6,72.9,196.1,72.9c0,0,97.9,0,169.6,-47.9l144.9,0c0,0,32.2,0,37.4,-1.8c0,0,5.2,-1.9,7.5,-6.4c0,0,4.4,-6.8,4.4,-24c0,0,0,-19.5,-3.7,-27c0,0,-2.3,-3.7,-7.9,-6c0,0,-5.6,-2.2,-37.9,-2.2l-89,0c0,0,41.7,-53.6,41.7,-137c0,0,0,-95.2,-73.1,-163c0,0,-73.2,-67.7,-196.4,-67.7c0,0,-50.7,0,-103.7,15.2c0,0,-32.9,-28.4,-44.4,-49.7c0,0,-11.6,-21.2,-11.6,-36.1c0,0,0,-12.7,12.3,-24.7c0,0,12.3,-11.9,48.2,-17.1c0,0,20.9,-3.2,104.5,-5.6c0,0,153.7,-3.9,199.3,-11.1c0,0,69.4,-9.6,110.8,-51.3c0,0,41.4,-41.6,41.4,-102.6c0,0,0,-84.1,-79,-157.8c0,0,-116.4,-108.6,-303.6,-108.6Z" 
	id="f1_1r"
	transform="scale(0.001,-0.001)" />

	<path d="M254.7,-10.6c0,0,-34.3,0,-67.2,18.9c0,0,-32.9,19,-48.6,54.4c0,0,-15.7,35.5,-15.7,109.3l0,459.7l-108.5,0l0,24.4c0,0,41.2,16.4,84.2,55.5c0,0,43.1,39.1,76.9,92.9c0,0,17.3,28.4,48.1,103.9l23.5,0l0,-224.9l159.6,0l0,-51.8l-159.6,0l0,-443.6c0,0,0,-66.5,18.9,-89.6c0,0,18.9,-23.2,48.6,-23.2c0,0,24.5,0,47.5,15.3c0,0,23.1,15.4,35.7,45.3l29.3,0c0,0,-26.2,-73,-74,-109.8c0,0,-47.8,-36.7,-98.7,-36.7Z" 
	id="f1_24"
	transform="scale(0.001,-0.001)" />

	<path d="M479.1,469.3c0,0,-3.7,65.6,-15.7,92.5c0,0,-18.6,41.7,-55.6,65.6c0,0,-37,23.8,-77.4,23.8c0,0,-62,0,-110.9,-48.1c0,0,-49,-48.1,-57.2,-133.8ZM354.9,-20.4c0,0,-123,0,-210.6,95.7c0,0,-87.6,95.7,-87.6,257.5c0,0,0,175.2,89.9,273.2c0,0,89.8,98,225.5,98c0,0,114.8,0,188.7,-75.6c0,0,73.8,-75.5,73.8,-202.1l-472.3,0c0,0,-0.7,-152.3,73.8,-238.9c0,0,74.6,-86.7,175.2,-86.7c0,0,67.1,0,116.7,36.7c0,0,49.6,36.6,83.1,126.6l23.5,-14.9c0,0,-15.7,-102.5,-91,-186.1c0,0,-75.3,-83.4,-188.7,-83.4Z" 
	id="f1_1p"
	transform="scale(0.001,-0.001)" />

	<path d="M23.5,0l0,26.4c0,0,46.9,0,65.6,10.1c0,0,18.6,10.1,28.3,32.2c0,0,9.7,22.1,9.7,85.8l0,261.1c0,0,0,112.9,-6.7,145.8c0,0,-5.3,24.7,-16.5,34c0,0,-11.3,9.3,-30.7,9.3c0,0,-21,0,-50.2,-11.2L11.7,619.9L219,703l32.3,0l0,-145.8c0,0,74.5,74.8,87.9,86c0,0,33.5,28.4,72.2,44.1c0,0,38.7,15.7,76.7,15.7c0,0,64.1,0,110.3,-37.4c0,0,46.1,-37.4,61.8,-108.4c0,0,76.8,89.7,129.7,117.8c0,0,53,28,108.9,28c0,0,54.4,0,96.5,-27.9c0,0,42.2,-28,66.8,-91.3c0,0,16.4,-43.3,16.4,-135.7l0,-293.6c0,0,0,-64.4,9.7,-88.4c0,0,7.4,-16.5,27.5,-28.1c0,0,20.1,-11.6,65.5,-11.6l0,-26.4L843.8,0l0,26.4l14.2,0c0,0,44.1,0,68.7,17.2c0,0,17.1,12,24.6,38.2c0,0,3,12.8,3,72.7l0,293.3c0,0,0,83.4,-20.1,117.6c0,0,-29,47.7,-93.1,47.7c0,0,-39.4,0,-79.3,-19.8c0,0,-39.8,-19.7,-96.4,-73.3l-1.5,-8.2l2,-32.1l0,-325.2c0,0,0,-70.4,7.7,-87.7c0,0,7.8,-17.2,29.3,-28.8c0,0,21.5,-11.6,73.5,-11.6L776.4,0L431.2,0l0,26.4c0,0,56.4,0,77.5,13.5c0,0,21.1,13.5,29.3,40.4c0,0,3.7,12.8,3.7,74.2l0,293.3c0,0,0,83.3,-24.5,120.1c0,0,-32.7,48.1,-91.4,48.1c0,0,-40.1,0,-79.5,-21.8c0,0,-61.6,-33,-95,-74.2l0,-365.5c0,0,0,-67.4,9.2,-87.7c0,0,9.3,-20.2,27.5,-30.3c0,0,18.2,-10.1,73.8,-10.1L361.8,0Z" 
	id="f1_1x"
	transform="scale(0.001,-0.001)" />

	<path d="M376.4,-20.4L132.8,555.7c0,0,-16.4,40.8,-31.3,58.6c0,0,-14.9,17.8,-38,29.9c0,0,-12.7,6.8,-50,12.9l0,26.4l321.1,0l0,-26.4l-20.8,0c0,0,-29.1,0,-44.3,-14.2c0,0,-15.1,-14.2,-14.5,-38c0,0,-0.6,-26.1,14.9,-62L428.8,165.5L587.6,557.1c0,0,17.2,41.8,17.2,63.4c0,0,0,10.5,-6,17.2c0,0,-8.2,11.2,-20.9,15.3c0,0,-12.6,4.1,-51.4,4.1l0,26.4l223.6,0l0,-26.4c0,0,-38.8,-3.1,-53.7,-15.9c0,0,-26.1,-22.8,-47,-75.8L408.6,-20.4Z" 
	id="f1_26"
	transform="scale(0.001,-0.001)" />

	<path d="M16.6,0l0,26.4c0,0,52.3,0,77.7,16.6c0,0,18.7,12,26.1,38.4c0,0,3.8,12.8,3.8,73.1l0,264c0,0,0,119.7,-4.8,142.5c0,0,-4.9,22.8,-17.9,33.3c0,0,-13,10.4,-32.3,10.4c0,0,-23,0,-52,-11.2L9.8,619.9L216.9,703l31.5,0l0,-154c0,0,85.5,154,175.6,154c0,0,40.9,0,67.7,-25c0,0,26.8,-25.1,26.8,-58c0,0,0,-29.1,-19.3,-49.3c0,0,-19.4,-20.2,-46.2,-20.2c0,0,-26.1,0,-58.4,25.9c0,0,-32.4,25.9,-48.1,25.9c0,0,-13.3,0,-29,-14.9c0,0,-33.4,-30.7,-69.1,-101l0,-327c0,0,0,-56.6,14.1,-85.7c0,0,9.7,-20.1,34.3,-33.7c0,0,24.6,-13.6,70.8,-13.6L367.6,0Z" 
	id="f1_22"
	transform="scale(0.001,-0.001)" />

	<path d="M144.9,-329.4c0,0,-44.1,0,-72.5,25.3c0,0,-28.4,25.3,-28.4,58c0,0,0,31.3,20.6,50.2c0,0,20.5,19,56.4,19c0,0,24.7,0,67.4,-16.2c0,0,29.9,-11.1,37.3,-11.1c0,0,22.4,0,48.9,23c0,0,26.5,23.1,53.4,89.4L376.1,28L131,542.4c0,0,-11.2,23.4,-35.8,58.1c0,0,-18.7,26.4,-30.6,35.5c0,0,-17.2,12,-55.2,21.1l0,26.4l318.7,0l0,-26.4l-15.7,0c0,0,-33.6,0,-50.4,-14.7c0,0,-16.7,-14.7,-16.7,-36.5c0,0,0,-29.4,24.6,-81.4L436.7,179.1L588.6,557.3c0,0,12.7,31,12.7,61.2c0,0,0,13.6,-5.2,20.4c0,0,-6,8.3,-18.7,13.3c0,0,-12.6,4.9,-44.7,4.9l0,26.4l221.5,0l0,-26.4c0,0,-27.6,-3,-42.5,-12.1c0,0,-14.9,-9,-32.8,-33.9c0,0,-6.7,-10.5,-25.4,-58L376.4,-129.1c0,0,-40.3,-99.1,-105.6,-149.7c0,0,-65.4,-50.6,-125.9,-50.6Z" 
	id="f1_29"
	transform="scale(0.001,-0.001)" />

	<path d="M396.7,34.2c0,0,67.6,0,125.8,74.4c0,0,58.3,74.4,58.3,216.4c0,0,0,130.9,-58.3,201.2c0,0,-58.2,70.3,-132.5,70.3c0,0,-39.3,0,-78.7,-20.1c0,0,-29.6,-14.9,-75.7,-59.5l0,-407.5c0,0,37.9,-37.2,78.3,-56.2c0,0,40.5,-19,82.8,-19ZM358.1,-20.4c0,0,-59.6,0,-121.1,21.6c0,0,-61.5,21.6,-125.5,65l0,707.3c0,0,0,116.6,-5.6,143.5c0,0,-5.6,26.9,-17.5,36.6c0,0,-11.9,9.7,-29.8,9.7c0,0,-20.8,0,-52.1,-11.9L-3.8,977.8L202,1060.9l33.6,0l0,-496.4c0,0,98.9,138.5,213.4,138.5c0,0,104.8,0,182.8,-89.8c0,0,78.1,-89.8,78.1,-245.5c0,0,0,-181.8,-120.8,-292.9c0,0,-103.5,-95.2,-231,-95.2Z" 
	id="f1_1m"
	transform="scale(0.001,-0.001)" />

	<path d="M342.2,-20.4c0,0,-116.3,0,-202.9,97.5c0,0,-86.5,97.6,-86.5,263.8c0,0,0,160.9,95.8,261.5c0,0,95.9,100.6,230.1,100.6c0,0,100.7,0,165.6,-53.4c0,0,64.9,-53.4,64.9,-110.9c0,0,0,-28.4,-18.3,-45.9c0,0,-18.3,-17.6,-51,-17.6c0,0,-44,0,-65.9,28.4c0,0,-13.1,15.7,-17.2,59.8c0,0,-4.1,44.2,-30.2,67.3c0,0,-26.1,22.5,-72.2,22.5c0,0,-74.6,0,-120,-55.2c0,0,-60.4,-73,-60.4,-192.9c0,0,0,-122.2,60.1,-215.7c0,0,60,-93.6,162.1,-93.6c0,0,73.1,0,131.2,49.6c0,0,41,34.5,79.8,125.5l21.5,-10c0,0,-27.6,-136,-108.2,-208.7c0,0,-80.5,-72.6,-178.3,-72.6Z" 
	id="f1_1n"
	transform="scale(0.001,-0.001)" />

	<path d="M397.8,24.5c0,0,74.5,0,120.7,58c0,0,60.4,75.9,60.4,213.6c0,0,0,156.3,-68.6,240.3c0,0,-47.7,58.1,-113.2,58.1c0,0,-35.8,0,-70.8,-17.9c0,0,-26.9,-13.4,-88.7,-80.3l0,-254.6c0,0,0,-82.6,6.7,-108.6c0,0,10.4,-43.2,51,-75.9c0,0,40.7,-32.7,102.5,-32.7ZM-4.8,-326.5l0,26.4l18.5,0c0,0,0.3,0,0.8,0c5.9,0,42.5,0.7,69.2,15.8c0,0,14.1,8.3,21.9,26.6c0,0,7.8,18.4,7.8,93.5l0,645.3c0,0,0,66.9,-5.9,84.9c0,0,-6,18.1,-19,27c0,0,-13,9,-35.3,9c0,0,-17.8,0,-45.3,-10.4L-0.9,615l210.2,85.1l28.3,0l0,-159.9c0,0,52.9,90.4,106.2,126.6c0,0,53.4,36.2,112.3,36.2c0,0,102.9,0,171.5,-80.5c0,0,84.2,-98.3,84.2,-256.3c0,0,0,-176.6,-101.4,-292.1c0,0,-83.5,-94.5,-210.3,-94.5c0,0,-55.1,0,-95.4,15.7c0,0,-29.8,11.1,-67.1,44.8l0,-208.2c0,0,0,-70.9,8.6,-90.1c0,0,8.5,-19.2,29.7,-30.5c0,0,21.3,-11.4,77.1,-11.4l0,-26.4Z" 
	id="f1_20"
	transform="scale(0.001,-0.001)" />

	<path d="M19.6,0l0,26.4c0,0,45.5,0,71.7,14.2c0,0,14.9,7.5,23.9,28.5c0,0,9,21,9,85.4l0,619c0,0,0,116.8,-5.6,143.6c0,0,-5.6,26.9,-17.1,36.5c0,0,-11.5,9.7,-30.8,9.7c0,0,-15.6,0,-50.5,-11.9L9.8,977.8l204.3,83.1l34.3,0l0,-500c0,0,82.7,90.8,131.1,116.4c0,0,48.4,25.7,96.8,25.7c0,0,58.1,0,99.9,-32c0,0,41.7,-32.1,61.8,-100.6c0,0,14.2,-47.7,14.2,-174.4l0,-241.5c0,0,0,-65.2,10.4,-89.2c0,0,7.5,-17.9,25.5,-28.4c0,0,17.9,-10.5,65.8,-10.5L753.9,0L417.5,0l0,26.4l15.7,0c0,0,47.8,0,66.4,14.6c0,0,18.7,14.6,26.2,43.1c0,0,2.2,12,2.2,70.4l0,241.6c0,0,0,111.8,-11.5,146.9c0,0,-11.6,35,-36.8,52.5c0,0,-25.3,17.6,-61,17.6c0,0,-36.5,0,-75.9,-19.4c0,0,-39.4,-19.4,-94.4,-78.3l0,-360.9c0,0,0,-70.4,7.8,-87.7c0,0,7.8,-17.2,29.1,-28.8c0,0,21.3,-11.6,73.5,-11.6L358.8,0Z" 
	id="f1_1s"
	transform="scale(0.001,-0.001)" />

	<path d="M57.7,0l0,26.4c0,0,47.4,0,64.8,9.7c0,0,17.3,9.8,27.1,32.2c0,0,9.8,22.5,9.8,86.2l0,620.9c0,0,0,115.6,-5.2,142.1c0,0,-5.3,26.5,-16.8,36.1c0,0,-11.6,9.7,-29.5,9.7c0,0,-19.4,0,-49.2,-11.9L46,977.8l203.9,83.1l33.7,0l0,-906.4c0,0,0,-64.4,9.3,-85.4c0,0,9.3,-21,28.7,-31.8c0,0,19.4,-10.9,72.4,-10.9L394,0Z" 
	id="f1_1w"
	transform="scale(0.001,-0.001)" />

	<path d="M82.1,-254.1l0,32.8c0,0,76.5,25.4,118.5,78.8c0,0,41.9,53.4,41.9,113.1c0,0,0,14.2,-6.7,23.9c0,0,-5.2,6.6,-10.4,6.6c0,0,-8.1,0,-35.6,-14.8c0,0,-13.4,-6.7,-28.2,-6.7c0,0,-36.4,0,-57.9,21.5c0,0,-21.6,21.6,-21.6,59.7c0,0,0,36.6,28,62.7c0,0,27.9,26.1,68.1,26.1c0,0,49.2,0,87.5,-42.9c0,0,38.4,-42.9,38.4,-113.7c0,0,0,-76.9,-53.3,-143c0,0,-53.2,-66,-168.7,-104.1Z" 
	id="f1_d"
	transform="scale(0.001,-0.001)" />

	<path d="M336.4,-20.4L117.3,553.7c0,0,-21.6,55.1,-42.5,74.3c0,0,-20.9,19.3,-65.6,29.1l0,26.4l286.4,0l0,-26.4c0,0,-39.5,-3,-51.8,-14.4c0,0,-12.3,-11.3,-12.3,-32.4c0,0,0,-23.5,12.7,-56.7L390.3,162.1L537,481L497.7,581.3c0,0,-17.9,45.5,-47,62.9c0,0,-16.4,10.6,-61.2,12.9l0,26.4l326.6,0l0,-26.4c0,0,-54.1,-2.3,-76.7,-19.9c0,0,-15,-12.3,-15,-39.1c0,0,0,-14.7,5.9,-30.2L785,177.2L928.9,553.7c0,0,14.7,40.7,14.7,64.9c0,0,0,14.3,-14.5,25.6c0,0,-14.5,11.4,-56.9,12.9l0,26.4l216,0l0,-26.4c0,0,-64.9,-9.9,-95.5,-89.3L763.8,-20.4l-30.5,0L562.8,415.2L363.5,-20.4Z" 
	id="f1_27"
	transform="scale(0.001,-0.001)" />

	<path d="M191.2,-20.4c0,0,-34.3,0,-58.5,24.1c0,0,-24.2,24.2,-24.2,58.4c0,0,0,35,24.2,58.8c0,0,24.2,23.8,58.5,23.8c0,0,34.9,0,58.7,-24.2c0,0,23.9,-24.2,23.9,-58.4c0,0,0,-34.2,-24.2,-58.4c0,0,-24.2,-24.1,-58.4,-24.1Z" 
	id="f1_f"
	transform="scale(0.001,-0.001)" />

	<path d="M473.5,-22.4L174,817.2c0,0,-33.5,94.2,-42.5,111.4c0,0,-14.9,28.4,-40.6,42.2c0,0,-25.8,13.8,-69.8,13.8l0,27.4l373.8,0l0,-27.4l-17.9,0c0,0,-39.5,0,-60.4,-17.9c0,0,-20.9,-18,-20.9,-43.4c0,0,0,-26.2,32.8,-120.5l199,-567.9L696.1,717.5l-30.4,85.3l-23.9,68.1c0,0,-15.7,37.4,-35.2,65.8c0,0,-9.7,14.3,-23.9,24c0,0,-18.6,13.5,-37.3,19.4c0,0,-14.2,4.5,-44.8,4.5l0,27.4l393.7,0l0,-27.4l-26.9,0c0,0,-41.7,0,-61.1,-17.9c0,0,-19.4,-18,-19.4,-48.7c0,0,0,-38.2,33.5,-133.3L1014.5,234.9l193.1,557.3c0,0,32.8,92.9,32.8,128.8c0,0,0,17.2,-10.8,32.2c0,0,-10.9,15,-27.3,21c0,0,-28.3,10.4,-73.8,10.4l0,27.4l301.7,0l0,-27.4c0,0,-39.5,0,-64.1,-14.1c0,0,-24.6,-14.2,-47,-53c0,0,-14.9,-26.1,-47,-124.6L989.9,-22.4l-30,0L729.5,623.8L500.9,-22.4Z" 
	id="f1_1h"
	transform="scale(0.001,-0.001)" />

	<path d="M106.6,-22.4l0,347l27.4,0c0,0,19.3,-108.8,52.1,-162.8c0,0,32.8,-54.1,100.3,-89.8c0,0,67.4,-35.8,147.9,-35.8c0,0,93.2,0,147.2,49.2c0,0,54.1,49.2,54.1,116.4c0,0,0,37.2,-20.5,75.3c0,0,-20.6,38,-63.8,70.8c0,0,-29.1,22.4,-159.3,94.8c0,0,-130.1,72.4,-184.8,115.6c0,0,-54.8,43.2,-83.1,95.4c0,0,-28.3,52.2,-28.3,114.8c0,0,0,108.8,83.6,187.4c0,0,83.7,78.6,212.8,78.6c0,0,80.6,0,171,-39.9c0,0,41.8,-18.8,59,-18.8c0,0,19.4,0,31.7,11.7c0,0,12.3,11.6,19.8,47l27.4,0l0,-350l-27.4,0c0,0,-13.5,100.7,-48.2,160.5c0,0,-34.8,59.7,-99,94.8c0,0,-64.3,35.1,-133,35.1c0,0,-77.8,0,-128.6,-47.3c0,0,-50.8,-47.4,-50.8,-107.7c0,0,0,-46.2,32.1,-84.2c0,0,46.4,-55.9,220.5,-149c0,0,142,-76,193.9,-116.6c0,0,51.9,-40.7,79.9,-95.8c0,0,28,-55.2,28,-115.6c0,0,0,-114.9,-89.1,-198c0,0,-89.1,-83.1,-229.3,-83.1c0,0,-44,0,-82.7,6.9c0,0,-23.2,3.8,-95.9,27.7c0,0,-72.7,24,-92.1,24c0,0,-18.6,0,-29.4,-11.4c0,0,-10.8,-11.5,-16,-47.2Z" 
	id="f1_1d"
	transform="scale(0.001,-0.001)" />

	<path d="M24.5,0l0,27.4l35.8,0c0,0,62.6,0,91,36.5c0,0,17.9,23.9,17.9,115l0,654.2c0,0,0,76.9,-9.7,101.5c0,0,-7.5,18.7,-30.6,32.1c0,0,-32.1,17.9,-68.6,17.9l-35.8,0l0,27.4l751.9,0L787.1,790.1l-26.4,0c0,0,-19.3,70.9,-45,104.1c0,0,-25.6,33.2,-63.4,48.1c0,0,-37.7,15,-116.9,15l-223.5,0l0,-399l184.8,0c0,0,63.4,0,92.9,28.1c0,0,29.4,28,39.1,110.8l27.4,0l0,-342.3l-27.4,0c0,0,-0.7,59,-15.3,86.6c0,0,-14.5,27.6,-40.2,41.4c0,0,-25.8,13.8,-76.5,13.8l-184.8,0l0,-317.8c0,0,0,-76.9,9.7,-101.5c0,0,7.5,-18.7,31.5,-32.1c0,0,32.9,-17.9,68.8,-17.9l36.7,0L458.6,0Z" 
	id="f1_10"
	transform="scale(0.001,-0.001)" />

	<path d="M677.8,393.1L506,801.9L330.3,393.1ZM11.1,0l0,27.4c0,0,63.4,11.2,82,29.1c0,0,38.1,35.9,84.3,145.9l355.7,832.1l27.4,0L912.3,193.2c0,0,42.5,-101.6,77.2,-131.8c0,0,34.7,-30.3,96.6,-34l0,-27.4L686.9,0l0,27.4c0,0,60.5,3,81.7,20.1c0,0,21.3,17.2,21.3,41.9c0,0,0,32.9,-29.9,103.9l-60.4,145l-392.7,0L238.6,179c0,0,-25.4,-59,-25.4,-88.1c0,0,0,-23.2,22,-40.8c0,0,22,-17.5,95.1,-22.7L330.3,0Z" 
	id="f1_v"
	transform="scale(0.001,-0.001)" />

	<path d="M61.6,286.5l0,112.4l386.2,0l0,-112.4Z" 
	id="f1_e"
	transform="scale(0.001,-0.001)" />

	<path d="M2,-20.4L368.6,1060.9l59.7,0L61.6,-20.4Z" 
	id="f1_g"
	transform="scale(0.001,-0.001)" />

	<path d="M440.9,0l0,26.4c0,0,28.3,0.7,38.4,8.6c0,0,10.1,7.9,10.1,22.2c0,0,0,17.2,-29.9,55.5l-209.2,268L423.7,539.6c0,0,55.2,50.8,64.2,64.3c0,0,5.9,9,5.9,18c0,0,0,14.9,-12.3,25.8c0,0,-12.3,10.8,-40.6,12.3l0,23.5l296.6,0l0,-23.5c0,0,-61.1,-1.5,-101.7,-18.7c0,0,-40.6,-17.3,-89,-61.5L371.8,418L546.9,196.2c0,0,72.9,-91.9,97.9,-116.7c0,0,35.9,-35.2,62.8,-45.6c0,0,18.7,-7.5,65.1,-7.5L772.7,0ZM12.7,0l0,26.4c0,0,52.2,0,78.4,12.7c0,0,15.6,8.2,23.8,25.4c0,0,11.2,24.6,11.2,85.1l0,623.9c0,0,0,117.8,-5.2,144.2c0,0,-5.2,26.3,-17.2,36.3c0,0,-11.9,10.1,-31.3,10.1c0,0,-15.7,0,-47,-12.7L12.7,977.8l203.2,83.1l34.4,0l0,-680.2l0,-226.2c0,0,0,-67.1,9.3,-88.2c0,0,9.4,-21.1,26.5,-30.1c0,0,17.2,-9.1,74.7,-9.8L360.8,0Z" 
	id="f1_1v"
	transform="scale(0.001,-0.001)" />

	<path d="M547.9,-22.4c0,0,-251.3,0,-389.3,186.3c0,0,-102.9,138.6,-102.9,326.4c0,0,0,151.4,67.8,278.1c0,0,67.8,126.7,186.6,196.4c0,0,118.8,69.7,259.6,69.7c0,0,109.5,0,216,-53.9c0,0,31.3,-16.5,44.7,-16.5c0,0,20.1,0,35,14.2c0,0,19.3,20.2,27.5,56.2l26.4,0L942.8,690.3l-23.5,0c0,0,-46.1,155.1,-131.6,223.2c0,0,-85.6,68.2,-205.3,68.2c0,0,-100.4,0,-181.5,-51.1c0,0,-81.1,-51.1,-127.6,-163c0,0,-46.5,-112,-46.5,-278.4c0,0,0,-137.3,44,-238c0,0,43.9,-100.7,132.1,-154.4c0,0,88.3,-53.8,201.4,-53.8c0,0,98.3,0,173.5,42.1c0,0,75.2,42.1,165.3,167.2l23.1,-14.7c0,0,-76,-134.9,-177.4,-197.5c0,0,-101.5,-62.5,-240.9,-62.5Z" 
	id="f1_x"
	transform="scale(0.001,-0.001)" />

	<path d="M19.6,0l0.1,27.6L668.6,951.4l-324,0c0,0,-80.6,0,-116.8,-17.5c0,0,-36.2,-17.6,-55.2,-50.8c0,0,-19.1,-33.2,-34.7,-124.2l-28.4,0L130,1012l749.8,0L214.7,61.6l414.5,0c0,0,95.4,0,146.6,41.8c0,0,51.2,41.7,90.8,169.3l24.6,-4.5L843.4,0Z" 
	id="f1_1k"
	transform="scale(0.001,-0.001)" />

	<path d="M30.3,0l0,27.3L485.2,631.7l-225.1,0c0,0,-72,0,-94.2,-9.3c0,0,-22.3,-9.3,-36.3,-35.4c0,0,-20.1,-37.2,-23,-92.2l-30.3,0l4.9,188.7l572.5,0l0,-27.4L195.7,50.8l249.7,0c0,0,78.2,0,106.1,13.1c0,0,27.8,13,45,45.8c0,0,11.9,23.8,20.1,100.5l25.4,0L634.2,0Z" 
	id="f1_2a"
	transform="scale(0.001,-0.001)" />

	<path d="M244.5,0l0,27.4l33.4,0c0,0,43.9,0,70.6,15.7c0,0,19.4,10.4,30.5,35.8c0,0,8.2,18,8.2,94.2l0,780.2l-73.3,0c0,0,-102.8,0,-149.3,-43.1c0,0,-65.2,-60.3,-82.5,-171.9l-27.3,0l0,273.7l910.3,0l0,-273.7l-27.4,0c0,0,-23.8,94.5,-52.9,135.8c0,0,-29.1,41.3,-79.7,65.8c0,0,-28.4,13.4,-99.1,13.4l-75.3,0l0,-780.2c0,0,0,-77.8,8.5,-97.2c0,0,8.6,-19.4,33.5,-34c0,0,25,-14.5,68.2,-14.5l33.5,0L774.4,0Z" 
	id="f0_14"
	transform="scale(0.001,-0.001)" />

	<path d="M30,0l0,27.4l10.5,0c0,0,0.4,0,1.3,0c6.4,0,35.8,0.6,61.8,10.8c0,0,29.3,11.6,44.3,31.1c0,0,15.1,19.5,23.3,54.7c0,0,1.5,8.3,1.5,76.4l0,640.5c0,0,0,76.7,-8.2,95.7c0,0,-8.3,19,-33.9,33.5c0,0,-25.5,14.5,-68.3,14.5l-32.3,0l0,27.4l414.5,0l284,-666L1003,1012l411.6,0l0,-27.4l-32.9,0c0,0,-44.8,0,-71.7,-15.6c0,0,-18.7,-10.4,-29.9,-35c0,0,-8.2,-17.9,-8.2,-93.1l0,-667.8c0,0,0,-77.8,8.2,-97.2c0,0,8.2,-19.4,33.6,-34c0,0,25.4,-14.5,68,-14.5l32.9,0l0,-27.4L885.7,0l0,27.4l32.8,0c0,0,44.9,0,71.8,15.7c0,0,18.7,10.4,29.9,35.8c0,0,8.2,18,8.2,94.2l0,749.7L640.8,0L622.9,0L229.4,915.8l0,-712.4c0,0,0,-74.6,3.7,-91.8c0,0,9.7,-37.2,42.2,-60.7c0,0,32.4,-23.5,101.8,-23.5L377.1,0Z" 
	id="f0_x"
	transform="scale(0.001,-0.001)" />

	<path d="M393.1,-277.6c0,0,104,0,163.4,27.6c0,0,59.5,27.5,59.5,77.4c0,0,0,18.7,-11.2,31.3c0,0,-20.2,22.3,-61,30.5c0,0,-40.8,8.2,-217.3,8.2c0,0,-76.3,0,-101,-12.6c0,0,-42.7,-23.1,-42.7,-62.6c0,0,0,-38,44.2,-68.9c0,0,44.1,-30.9,166.1,-30.9ZM366.5,253.2c0,0,44.9,0,74.8,41.2c0,0,30,41.1,30,160c0,0,0,133.8,-33.7,182.4c0,0,-23.9,35.9,-67.4,35.9c0,0,-43.4,0,-73.3,-43.7c0,0,-30,-43.8,-30,-181.3c0,0,0,-111.5,29.6,-153c0,0,29.6,-41.5,70,-41.5Zm7.8,-582.6c0,0,-94.1,0,-171.7,18.3c0,0,-77.7,18.3,-111.3,50.7c0,0,-33.6,32.5,-33.6,68.3c0,0,0,34.3,25.7,61.6c0,0,25.7,27.2,95.7,45.9c0,0,-97,47.6,-97,132.5c0,0,0,51.3,39.5,99.8c0,0,39.6,48.4,125.3,84.2c0,0,-99.8,36.5,-144.5,96.3c0,0,-44.7,59.7,-44.7,138.1c0,0,0,102.3,83.6,177.3c0,0,83.6,75.1,215,75.1c0,0,69.4,0,143.3,-29.4l234.7,0l0,-82.1l-133.2,0c0,0,36.6,-36.5,50.8,-66.4c0,0,17.9,-40.3,17.9,-84.3c0,0,0,-74.6,-41.5,-129.5c0,0,-41.4,-54.9,-112.8,-85.8c0,0,-71.3,-31,-126.6,-31c0,0,-4.5,0,-89.7,3.8c0,0,-33.6,0,-56.4,-22c0,0,-22.8,-21.9,-22.8,-52.4c0,0,0,-26.7,20.5,-43.8c0,0,20.6,-17.1,67,-17.1l129.3,1.5c0,0,156.9,0,216,-34.4c0,0,84.4,-47.6,84.4,-146.9c0,0,0,-63.4,-38.8,-115.2c0,0,-38.8,-51.9,-102.3,-76.5c0,0,-96.3,-36.6,-221.8,-36.6Z" 
	id="f0_1f"
	transform="scale(0.001,-0.001)" />

	<path d="M297.7,-9.7c0,0,-66.4,0,-112.3,36.9c0,0,-46,36.9,-58.7,82.4c0,0,-7.4,25.4,-7.4,137.4l0,376.8l-90.9,0l0,26.1c0,0,94.1,66.3,160.1,139.3c0,0,66.1,73,115.4,163.2l24.6,0l0,-255.2l165.3,0l0,-73.4l-165.3,0l0,-430.4c0,0,0,-60.4,5.6,-77.9c0,0,5.6,-17.6,19.8,-28.4c0,0,14.2,-10.8,26.1,-10.8c0,0,48.5,0,91.7,74.3l22.4,-16.5c0,0,-60.5,-143.8,-196.4,-143.8Z" 
	id="f0_1r"
	transform="scale(0.001,-0.001)" />

	<path d="M32.3,0l0,26.4c0,0,46,1.5,68.2,27c0,0,14.9,17.2,14.9,91.3l0,722.6c0,0,0,73.2,-17.1,93.8c0,0,-17.1,20.5,-66,23.5l0,27.4l292.3,0l0,-867.3c0,0,0,-74.1,17.3,-94.7c0,0,17.3,-20.6,67.8,-23.6L409.7,0Z" 
	id="f0_1k"
	transform="scale(0.001,-0.001)" />

	<path d="M488.2,55.7c0,0,59.8,0,110.2,26.5c0,0,50.4,26.4,77.4,76.7c0,0,26.9,50.3,26.9,112.2c0,0,0,70.7,-32.6,127c0,0,-32.5,56.3,-90.3,78.8L407.2,498.7L406.8,173.8l0,-37.1c0,0,0,-40.1,20.6,-60.5c0,0,20.5,-20.5,60.8,-20.5ZM407.3,557.3c0,0,106.5,0,157.2,23.9c0,0,50.6,24,77.6,67.3c0,0,26.9,43.3,26.9,110.5c0,0,0,67.3,-26.6,110.2c0,0,-26.5,43,-75.9,65.4c0,0,-47.8,21.7,-153.4,21.7c-1.7,0,-3.5,0,-5.3,0l-0.5,-399ZM32.3,0l0,27.4c0,0,69.9,0,94.8,13.1c0,0,25,13.1,35,34.1c0,0,10,20.9,10,103.4l0,656.1c0,0,0,82.4,-10,103.7c0,0,-10,21.4,-35.3,34.1c0,0,-25.3,12.7,-94.5,12.7l0,27.4l484.9,0c0,0,173.8,0,246.2,-31c0,0,72.4,-30.9,114.1,-92.4c0,0,41.8,-61.5,41.8,-130.9c0,0,0,-73.1,-52.9,-130.1c0,0,-53,-57.1,-186.4,-90.6c0,0,143.7,-33.6,201.8,-81.4c0,0,83.5,-68,83.5,-176.3c0,0,0,-114.3,-91.8,-188.9C873.5,90.4,760.9,0,546.1,0Z" 
	id="f0_n"
	transform="scale(0.001,-0.001)" />

	<path d="M-12.6,307l0,90l788.2,0l0,-90Z" 
	id="f0_1y"
	transform="scale(0.001,-0.001)" />

	<path d="M29.3,0l0,27.4l33.7,0c0,0,44.1,0,71,15.7c0,0,19.4,10.4,29.9,35.8c0,0,8.2,18,8.2,94.2l0,665.8c0,0,0,68.8,-3.8,84.5c0,0,-7.4,26.1,-27.6,40.3c0,0,-28.4,20.9,-77.7,20.9l-33.7,0l0,27.4l848,0l0,-299.2l-27.4,0c0,0,-21.7,109.5,-61,157.1c0,0,-39.4,47.7,-111.2,70c0,0,-42,13.4,-157.3,13.4l-104.8,0l0,-411.6l20.2,0c0,0,96.8,0,140.3,60.4c0,0,43.5,60.4,55.6,178.2l27.3,0l0,-529l-27.3,0c0,0,-9.1,86.4,-37.9,141.5c0,0,-28.9,55.2,-67.2,74.2c0,0,-38.3,19,-111,19l0,-285.4c0,0,0,-83.6,7,-102.3c0,0,7.1,-18.7,26.6,-30.6c0,0,19.4,-12,62.7,-12l60.6,0c0,0,141.9,0,227.5,65.8c0,0,85.5,65.7,122.9,200l27.7,0.2L905,0Z" 
	id="f0_q"
	transform="scale(0.001,-0.001)" />


</defs>
</svg>