<?xml version="1.0" encoding="UTF-8" standalone="no"?>
<!DOCTYPE svg PUBLIC "-//W3C//DTD SVG 1.1//EN"
"http://www.w3.org/Graphics/SVG/1.1/DTD/svg11.dtd">
<svg viewBox="0 0 909 1286" version="1.1" xmlns="http://www.w3.org/2000/svg" xmlns:xlink="http://www.w3.org/1999/xlink">
<defs>
<clipPath id="c0_20"><path d="M760.8,1223.8v-18.9h18.4v18.9Z" /></clipPath>
<clipPath id="c1_20"><path d="M27.5,1223.8V27.5h854V1223.8Z" /></clipPath>
<style type="text/css"><![CDATA[
.g0_20{
}
]]></style>
</defs>
<g clip-path="url(#c0_20)">
<g fill="#000000" >
<use xlink:href="#f0_h" transform="matrix(12,0,0,12,760.8,1221.7)" />
<use xlink:href="#f0_f" transform="matrix(12,0,0,12,770,1221.7)" />
</g>
</g>
<g clip-path="url(#c1_20)">
<g fill="#000000" >
<use xlink:href="#f1_d" transform="matrix(13.9,0,0,13.9,157.3,128)" />
<use xlink:href="#f1_9" transform="matrix(13.9,0,0,13.9,168,128)" />
<use xlink:href="#f1_i" transform="matrix(13.9,0,0,13.9,173.3,128)" />
<use xlink:href="#f1_9" transform="matrix(13.9,0,0,13.9,184,128)" />
<use xlink:href="#f1_13" transform="matrix(13.9,0,0,13.9,190.3,128)" />
<use xlink:href="#f1_1o" transform="matrix(13.9,0,0,13.9,205.7,128)" />
<use xlink:href="#f1_1y" transform="matrix(13.9,0,0,13.9,216.4,128)" />
<use xlink:href="#f1_1a" transform="matrix(13.9,0,0,13.9,227.2,128)" />
<use xlink:href="#f1_1l" transform="matrix(13.9,0,0,13.9,237.9,128)" />
<use xlink:href="#f1_1t" transform="matrix(13.9,0,0,13.9,243.8,128)" />
<use xlink:href="#f1_1y" transform="matrix(13.9,0,0,13.9,250.9,128)" />
<use xlink:href="#f1_q" transform="matrix(13.9,0,0,13.9,267,128)" />
<use xlink:href="#f1_1i" transform="matrix(13.9,0,0,13.9,282.4,128)" />
<use xlink:href="#f1_1s" transform="matrix(13.9,0,0,13.9,288.4,128)" />
<use xlink:href="#f1_1t" transform="matrix(13.9,0,0,13.9,296.7,128)" />
<use xlink:href="#f1_1r" transform="matrix(13.9,0,0,13.9,303.8,128)" />
<use xlink:href="#f1_1i" transform="matrix(13.9,0,0,13.9,313.3,128)" />
<use xlink:href="#f1_1b" transform="matrix(13.9,0,0,13.9,319.2,128)" />
<use xlink:href="#f1_1u" transform="matrix(13.9,0,0,13.9,331.1,128)" />
<use xlink:href="#f1_1t" transform="matrix(13.9,0,0,13.9,343,128)" />
<use xlink:href="#f1_1i" transform="matrix(13.9,0,0,13.9,350.2,128)" />
<use xlink:href="#f1_1o" transform="matrix(13.9,0,0,13.9,356.1,128)" />
<use xlink:href="#f1_1n" transform="matrix(13.9,0,0,13.9,366.8,128)" />
<use xlink:href="#f1_p" transform="matrix(13.9,0,0,13.9,384,128)" />
<use xlink:href="#f1_1o" transform="matrix(13.9,0,0,13.9,399.5,128)" />
<use xlink:href="#f1_1n" transform="matrix(13.9,0,0,13.9,410.2,128)" />
<use xlink:href="#f1_1t" transform="matrix(13.9,0,0,13.9,422.1,128)" />
<use xlink:href="#f1_1r" transform="matrix(13.9,0,0,13.9,429.2,128)" />
<use xlink:href="#f1_1a" transform="matrix(13.9,0,0,13.9,438.7,128)" />
<use xlink:href="#f1_1c" transform="matrix(13.9,0,0,13.9,449.4,128)" />
<use xlink:href="#f1_1t" transform="matrix(13.9,0,0,13.9,458.9,128)" />
<use xlink:href="#f1_n" transform="matrix(13.9,0,0,13.9,471.4,128)" />
<use xlink:href="#f1_1r" transform="matrix(13.9,0,0,13.9,486.8,128)" />
<use xlink:href="#f1_1c" transform="matrix(13.9,0,0,13.9,496.3,128)" />
<use xlink:href="#f1_1h" transform="matrix(13.9,0,0,13.9,505.8,128)" />
<use xlink:href="#f1_1i" transform="matrix(13.9,0,0,13.9,517.7,128)" />
<use xlink:href="#f1_1t" transform="matrix(13.9,0,0,13.9,523.6,128)" />
<use xlink:href="#f1_1e" transform="matrix(13.9,0,0,13.9,530.8,128)" />
<use xlink:href="#f1_1c" transform="matrix(13.9,0,0,13.9,540.3,128)" />
<use xlink:href="#f1_1t" transform="matrix(13.9,0,0,13.9,549.8,128)" />
<use xlink:href="#f1_1u" transform="matrix(13.9,0,0,13.9,556.9,128)" />
<use xlink:href="#f1_1r" transform="matrix(13.9,0,0,13.9,568.8,128)" />
<use xlink:href="#f1_1e" transform="matrix(13.9,0,0,13.9,578.3,128)" />
</g>
</g>
<path d="M190.3,130.9H587.8v1.8H190.3Z" class="g0_20" />
<g clip-path="url(#c1_20)">
<g fill="#000000" >
<use xlink:href="#f0_w" transform="matrix(13.9,0,0,13.9,183.9,173.8)" />
<use xlink:href="#f0_21" transform="matrix(13.9,0,0,13.9,198.1,173.8)" />
<use xlink:href="#f0_1o" transform="matrix(13.9,0,0,13.9,205.3,173.8)" />
<use xlink:href="#f0_1k" transform="matrix(13.9,0,0,13.9,214.8,173.8)" />
<use xlink:href="#f0_23" transform="matrix(13.9,0,0,13.9,224.3,173.8)" />
<use xlink:href="#f0_1o" transform="matrix(13.9,0,0,13.9,230.2,173.8)" />
<use xlink:href="#f0_1n" transform="matrix(13.9,0,0,13.9,239.7,173.8)" />
<use xlink:href="#f0_1k" transform="matrix(13.9,0,0,13.9,255.8,173.8)" />
<use xlink:href="#f0_23" transform="matrix(13.9,0,0,13.9,265.3,173.8)" />
<use xlink:href="#f0_23" transform="matrix(13.9,0,0,13.9,276.6,173.8)" />
<use xlink:href="#f0_1r" transform="matrix(13.9,0,0,13.9,282.5,173.8)" />
<use xlink:href="#f0_1o" transform="matrix(13.9,0,0,13.9,293.2,173.8)" />
<use xlink:href="#f0_1o" transform="matrix(13.9,0,0,13.9,308.1,173.8)" />
<use xlink:href="#f0_1x" transform="matrix(13.9,0,0,13.9,317.6,173.8)" />
<use xlink:href="#f0_1n" transform="matrix(13.9,0,0,13.9,328.3,173.8)" />
<use xlink:href="#f0_1y" transform="matrix(13.9,0,0,13.9,344.3,173.8)" />
<use xlink:href="#f0_1p" transform="matrix(13.9,0,0,13.9,355,173.8)" />
<use xlink:href="#f0_23" transform="matrix(13.9,0,0,13.9,367.5,173.8)" />
<use xlink:href="#f0_1r" transform="matrix(13.9,0,0,13.9,373.4,173.8)" />
<use xlink:href="#f0_1o" transform="matrix(13.9,0,0,13.9,384.1,173.8)" />
<use xlink:href="#f0_20" transform="matrix(13.9,0,0,13.9,399,173.8)" />
<use xlink:href="#f0_24" transform="matrix(13.9,0,0,13.9,409.7,173.8)" />
<use xlink:href="#f0_1k" transform="matrix(13.9,0,0,13.9,420.4,173.8)" />
<use xlink:href="#f0_21" transform="matrix(13.9,0,0,13.9,429.9,173.8)" />
<use xlink:href="#f0_23" transform="matrix(13.9,0,0,13.9,436.9,173.8)" />
<use xlink:href="#f0_1o" transform="matrix(13.9,0,0,13.9,442.8,173.8)" />
<use xlink:href="#f0_21" transform="matrix(13.9,0,0,13.9,452.3,173.8)" />
<use xlink:href="#f0_1y" transform="matrix(13.9,0,0,13.9,464.8,173.8)" />
<use xlink:href="#f0_1x" transform="matrix(13.9,0,0,13.9,475.5,173.8)" />
<use xlink:href="#f0_1m" transform="matrix(13.9,0,0,13.9,486.2,173.8)" />
<use xlink:href="#f0_1o" transform="matrix(13.9,0,0,13.9,495.7,173.8)" />
<use xlink:href="#f0_21" transform="matrix(13.9,0,0,13.9,510.5,173.8)" />
<use xlink:href="#f0_1o" transform="matrix(13.9,0,0,13.9,517.6,173.8)" />
<use xlink:href="#f0_25" transform="matrix(13.9,0,0,13.9,527.1,173.8)" />
<use xlink:href="#f0_1o" transform="matrix(13.9,0,0,13.9,537.8,173.8)" />
<use xlink:href="#f0_1x" transform="matrix(13.9,0,0,13.9,547.3,173.8)" />
<use xlink:href="#f0_24" transform="matrix(13.9,0,0,13.9,557.9,173.8)" />
<use xlink:href="#f0_1o" transform="matrix(13.9,0,0,13.9,568.6,173.8)" />
<use xlink:href="#f0_1k" transform="matrix(13.9,0,0,13.9,583.5,173.8)" />
<use xlink:href="#f0_1x" transform="matrix(13.9,0,0,13.9,592.9,173.8)" />
<use xlink:href="#f0_1n" transform="matrix(13.9,0,0,13.9,603.6,173.8)" />
<use xlink:href="#f0_21" transform="matrix(13.9,0,0,13.9,619.7,173.8)" />
<use xlink:href="#f0_1y" transform="matrix(13.9,0,0,13.9,626.8,173.8)" />
<use xlink:href="#f0_28" transform="matrix(13.9,0,0,13.9,637.5,173.8)" />
<use xlink:href="#f0_1k" transform="matrix(13.9,0,0,13.9,648.2,173.8)" />
<use xlink:href="#f0_1v" transform="matrix(13.9,0,0,13.9,657.7,173.8)" />
<use xlink:href="#f0_23" transform="matrix(13.9,0,0,13.9,663.6,173.8)" />
<use xlink:href="#f0_1s" transform="matrix(13.9,0,0,13.9,669.5,173.8)" />
<use xlink:href="#f0_1o" transform="matrix(13.9,0,0,13.9,675.5,173.8)" />
<use xlink:href="#f0_22" transform="matrix(13.9,0,0,13.9,684.9,173.8)" />
<use xlink:href="#f0_1k" transform="matrix(13.9,0,0,13.9,698.6,173.8)" />
<use xlink:href="#f0_21" transform="matrix(13.9,0,0,13.9,708.1,173.8)" />
<use xlink:href="#f0_1o" transform="matrix(13.9,0,0,13.9,715.2,173.8)" />
<use xlink:href="#f0_1u" transform="matrix(13.9,0,0,13.9,183.9,198.4)" />
<use xlink:href="#f0_1x" transform="matrix(13.9,0,0,13.9,194.6,198.4)" />
<use xlink:href="#f0_1y" transform="matrix(13.9,0,0,13.9,205.3,198.4)" />
<use xlink:href="#f0_26" transform="matrix(13.9,0,0,13.9,216,198.4)" />
<use xlink:href="#f0_1x" transform="matrix(13.9,0,0,13.9,231.4,198.4)" />
<use xlink:href="#f0_23" transform="matrix(13.9,0,0,13.9,247.4,198.4)" />
<use xlink:href="#f0_1y" transform="matrix(13.9,0,0,13.9,253.4,198.4)" />
<use xlink:href="#f0_1k" transform="matrix(13.9,0,0,13.9,269.4,198.4)" />
<use xlink:href="#f0_1v" transform="matrix(13.9,0,0,13.9,278.9,198.4)" />
<use xlink:href="#f0_1v" transform="matrix(13.9,0,0,13.9,284.8,198.4)" />
<use xlink:href="#f0_24" transform="matrix(13.9,0,0,13.9,296.1,198.4)" />
<use xlink:href="#f0_22" transform="matrix(13.9,0,0,13.9,306.8,198.4)" />
<use xlink:href="#f0_1o" transform="matrix(13.9,0,0,13.9,315.1,198.4)" />
<use xlink:href="#f0_21" transform="matrix(13.9,0,0,13.9,324.6,198.4)" />
<use xlink:href="#f0_22" transform="matrix(13.9,0,0,13.9,331.7,198.4)" />
<use xlink:href="#f0_d" transform="matrix(13.9,0,0,13.9,340,198.4)" />
<use xlink:href="#f1_z" transform="matrix(13.9,0,0,13.9,183.9,707.7)" />
<use xlink:href="#f1_1o" transform="matrix(13.9,0,0,13.9,204.1,707.7)" />
<use xlink:href="#f1_1n" transform="matrix(13.9,0,0,13.9,214.8,707.7)" />
<use xlink:href="#f1_1t" transform="matrix(13.9,0,0,13.9,226.7,707.7)" />
<use xlink:href="#f1_1h" transform="matrix(13.9,0,0,13.9,233.8,707.7)" />
<use xlink:href="#f1_1l" transform="matrix(13.9,0,0,13.9,245.7,707.7)" />
<use xlink:href="#f1_1y" transform="matrix(13.9,0,0,13.9,251.6,707.7)" />
<use xlink:href="#f1_n" transform="matrix(13.9,0,0,13.9,267.7,707.7)" />
<use xlink:href="#f1_1c" transform="matrix(13.9,0,0,13.9,283.1,707.7)" />
<use xlink:href="#f1_1t" transform="matrix(13.9,0,0,13.9,292.6,707.7)" />
<use xlink:href="#f1_1i" transform="matrix(13.9,0,0,13.9,299.8,707.7)" />
<use xlink:href="#f1_1v" transform="matrix(13.9,0,0,13.9,305.7,707.7)" />
<use xlink:href="#f1_1e" transform="matrix(13.9,0,0,13.9,316.4,707.7)" />
<use xlink:href="#f1_p" transform="matrix(13.9,0,0,13.9,331.2,707.7)" />
<use xlink:href="#f1_1o" transform="matrix(13.9,0,0,13.9,346.7,707.7)" />
<use xlink:href="#f1_1n" transform="matrix(13.9,0,0,13.9,357.4,707.7)" />
<use xlink:href="#f1_1t" transform="matrix(13.9,0,0,13.9,369.3,707.7)" />
<use xlink:href="#f1_1r" transform="matrix(13.9,0,0,13.9,376.4,707.7)" />
<use xlink:href="#f1_1i" transform="matrix(13.9,0,0,13.9,385.9,707.7)" />
<use xlink:href="#f1_1b" transform="matrix(13.9,0,0,13.9,391.8,707.7)" />
<use xlink:href="#f1_1u" transform="matrix(13.9,0,0,13.9,403.7,707.7)" />
<use xlink:href="#f1_1t" transform="matrix(13.9,0,0,13.9,415.6,707.7)" />
<use xlink:href="#f1_1o" transform="matrix(13.9,0,0,13.9,422.8,707.7)" />
<use xlink:href="#f1_1r" transform="matrix(13.9,0,0,13.9,433.5,707.7)" />
<use xlink:href="#f1_1s" transform="matrix(13.9,0,0,13.9,442.9,707.7)" />
<use xlink:href="#f1_21" transform="matrix(13.9,0,0,13.9,456.6,707.7)" />
<use xlink:href="#f1_z" transform="matrix(13.9,0,0,13.9,467.3,707.7)" />
<use xlink:href="#f1_n" transform="matrix(13.9,0,0,13.9,487.5,707.7)" />
<use xlink:href="#f1_p" transform="matrix(13.9,0,0,13.9,503,707.7)" />
<use xlink:href="#f1_1s" transform="matrix(13.9,0,0,13.9,518.4,707.7)" />
<use xlink:href="#f1_22" transform="matrix(13.9,0,0,13.9,526.7,707.7)" />
<use xlink:href="#f0_1d" transform="matrix(13.9,0,0,13.9,183.9,753.5)" />
<use xlink:href="#f0_1r" transform="matrix(13.9,0,0,13.9,196.9,753.5)" />
<use xlink:href="#f0_1o" transform="matrix(13.9,0,0,13.9,207.6,753.5)" />
<use xlink:href="#f0_1v" transform="matrix(13.9,0,0,13.9,222.5,753.5)" />
<use xlink:href="#f0_1s" transform="matrix(13.9,0,0,13.9,228.4,753.5)" />
<use xlink:href="#f0_1p" transform="matrix(13.9,0,0,13.9,234.4,753.5)" />
<use xlink:href="#f0_1o" transform="matrix(13.9,0,0,13.9,241.5,753.5)" />
<use xlink:href="#f0_1l" transform="matrix(13.9,0,0,13.9,251,753.5)" />
<use xlink:href="#f0_1v" transform="matrix(13.9,0,0,13.9,261.6,753.5)" />
<use xlink:href="#f0_1y" transform="matrix(13.9,0,0,13.9,267.6,753.5)" />
<use xlink:href="#f0_1y" transform="matrix(13.9,0,0,13.9,278.3,753.5)" />
<use xlink:href="#f0_1n" transform="matrix(13.9,0,0,13.9,289,753.5)" />
<use xlink:href="#f0_1y" transform="matrix(13.9,0,0,13.9,305,753.5)" />
<use xlink:href="#f0_1p" transform="matrix(13.9,0,0,13.9,315.7,753.5)" />
<use xlink:href="#f0_11" transform="matrix(13.9,0,0,13.9,328.2,753.5)" />
<use xlink:href="#f0_1k" transform="matrix(13.9,0,0,13.9,343.7,753.5)" />
<use xlink:href="#f0_1x" transform="matrix(13.9,0,0,13.9,353.2,753.5)" />
<use xlink:href="#f0_1n" transform="matrix(13.9,0,0,13.9,363.9,753.5)" />
<use xlink:href="#f0_22" transform="matrix(13.9,0,0,13.9,374.6,753.5)" />
<use xlink:href="#f0_2g" transform="matrix(13.9,0,0,13.9,382.9,753.5)" />
<use xlink:href="#f0_1z" transform="matrix(13.9,0,0,13.9,395.4,753.5)" />
<use xlink:href="#f0_1v" transform="matrix(13.9,0,0,13.9,406.1,753.5)" />
<use xlink:href="#f0_1k" transform="matrix(13.9,0,0,13.9,412,753.5)" />
<use xlink:href="#f0_23" transform="matrix(13.9,0,0,13.9,421.5,753.5)" />
<use xlink:href="#f0_1p" transform="matrix(13.9,0,0,13.9,427.4,753.5)" />
<use xlink:href="#f0_1y" transform="matrix(13.9,0,0,13.9,434.6,753.5)" />
<use xlink:href="#f0_21" transform="matrix(13.9,0,0,13.9,445.3,753.5)" />
<use xlink:href="#f0_1w" transform="matrix(13.9,0,0,13.9,452.4,753.5)" />
<use xlink:href="#f0_21" transform="matrix(13.9,0,0,13.9,474.4,753.5)" />
<use xlink:href="#f0_1o" transform="matrix(13.9,0,0,13.9,481.5,753.5)" />
<use xlink:href="#f0_1v" transform="matrix(13.9,0,0,13.9,491,753.5)" />
<use xlink:href="#f0_1k" transform="matrix(13.9,0,0,13.9,496.9,753.5)" />
<use xlink:href="#f0_28" transform="matrix(13.9,0,0,13.9,506.4,753.5)" />
<use xlink:href="#f0_22" transform="matrix(13.9,0,0,13.9,517.1,753.5)" />
<use xlink:href="#f0_1y" transform="matrix(13.9,0,0,13.9,530.8,753.5)" />
<use xlink:href="#f0_1x" transform="matrix(13.9,0,0,13.9,541.5,753.5)" />
<use xlink:href="#f0_1s" transform="matrix(13.9,0,0,13.9,557.6,753.5)" />
<use xlink:href="#f0_23" transform="matrix(13.9,0,0,13.9,563.5,753.5)" />
<use xlink:href="#f0_22" transform="matrix(13.9,0,0,13.9,569.4,753.5)" />
<use xlink:href="#f0_1w" transform="matrix(13.9,0,0,13.9,583.1,753.5)" />
<use xlink:href="#f0_1y" transform="matrix(13.9,0,0,13.9,599.7,753.5)" />
<use xlink:href="#f0_1x" transform="matrix(13.9,0,0,13.9,610.4,753.5)" />
<use xlink:href="#f0_23" transform="matrix(13.9,0,0,13.9,621.1,753.5)" />
<use xlink:href="#f0_1r" transform="matrix(13.9,0,0,13.9,627.1,753.5)" />
<use xlink:href="#f0_1v" transform="matrix(13.9,0,0,13.9,637.8,753.5)" />
<use xlink:href="#f0_28" transform="matrix(13.9,0,0,13.9,643.7,753.5)" />
<use xlink:href="#f0_1k" transform="matrix(13.9,0,0,13.9,659.8,753.5)" />
<use xlink:href="#f0_1m" transform="matrix(13.9,0,0,13.9,669.3,753.5)" />
<use xlink:href="#f0_23" transform="matrix(13.9,0,0,13.9,678.8,753.5)" />
<use xlink:href="#f0_1s" transform="matrix(13.9,0,0,13.9,684.7,753.5)" />
<use xlink:href="#f0_25" transform="matrix(13.9,0,0,13.9,690.6,753.5)" />
<use xlink:href="#f0_1o" transform="matrix(13.9,0,0,13.9,701.3,753.5)" />
<use xlink:href="#f0_24" transform="matrix(13.9,0,0,13.9,716.2,753.5)" />
<use xlink:href="#f0_22" transform="matrix(13.9,0,0,13.9,726.9,753.5)" />
<use xlink:href="#f0_1o" transform="matrix(13.9,0,0,13.9,735.2,753.5)" />
<use xlink:href="#f0_21" transform="matrix(13.9,0,0,13.9,744.7,753.5)" />
<use xlink:href="#f0_22" transform="matrix(13.9,0,0,13.9,751.8,753.5)" />
<use xlink:href="#f0_d" transform="matrix(13.9,0,0,13.9,760.1,753.5)" />
<use xlink:href="#f0_1d" transform="matrix(13.9,0,0,13.9,183.9,778.1)" />
<use xlink:href="#f0_1r" transform="matrix(13.9,0,0,13.9,196.9,778.1)" />
<use xlink:href="#f0_1o" transform="matrix(13.9,0,0,13.9,207.6,778.1)" />
<use xlink:href="#f0_22" transform="matrix(13.9,0,0,13.9,217.1,778.1)" />
<use xlink:href="#f0_1o" transform="matrix(13.9,0,0,13.9,225.5,778.1)" />
<use xlink:href="#f0_1k" transform="matrix(13.9,0,0,13.9,240.3,778.1)" />
<use xlink:href="#f0_21" transform="matrix(13.9,0,0,13.9,249.8,778.1)" />
<use xlink:href="#f0_1o" transform="matrix(13.9,0,0,13.9,256.9,778.1)" />
<use xlink:href="#f0_24" transform="matrix(13.9,0,0,13.9,271.7,778.1)" />
<use xlink:href="#f0_22" transform="matrix(13.9,0,0,13.9,282.4,778.1)" />
<use xlink:href="#f0_1o" transform="matrix(13.9,0,0,13.9,290.7,778.1)" />
<use xlink:href="#f0_21" transform="matrix(13.9,0,0,13.9,300.2,778.1)" />
<use xlink:href="#f0_22" transform="matrix(13.9,0,0,13.9,307.3,778.1)" />
<use xlink:href="#f0_26" transform="matrix(13.9,0,0,13.9,321,778.1)" />
<use xlink:href="#f0_1r" transform="matrix(13.9,0,0,13.9,336.5,778.1)" />
<use xlink:href="#f0_1y" transform="matrix(13.9,0,0,13.9,347.2,778.1)" />
<use xlink:href="#f0_1k" transform="matrix(13.9,0,0,13.9,363.2,778.1)" />
<use xlink:href="#f0_21" transform="matrix(13.9,0,0,13.9,372.7,778.1)" />
<use xlink:href="#f0_1o" transform="matrix(13.9,0,0,13.9,379.8,778.1)" />
<use xlink:href="#f0_1w" transform="matrix(13.9,0,0,13.9,394.6,778.1)" />
<use xlink:href="#f0_1k" transform="matrix(13.9,0,0,13.9,411.3,778.1)" />
<use xlink:href="#f0_1u" transform="matrix(13.9,0,0,13.9,420.8,778.1)" />
<use xlink:href="#f0_1s" transform="matrix(13.9,0,0,13.9,431.4,778.1)" />
<use xlink:href="#f0_1x" transform="matrix(13.9,0,0,13.9,437.4,778.1)" />
<use xlink:href="#f0_1q" transform="matrix(13.9,0,0,13.9,448.1,778.1)" />
<use xlink:href="#f0_g" transform="matrix(13.9,0,0,13.9,464.1,778.1)" />
<use xlink:href="#f0_c" transform="matrix(13.9,0,0,13.9,474.9,778.1)" />
<use xlink:href="#f0_i" transform="matrix(13.9,0,0,13.9,482,778.1)" />
<use xlink:href="#f0_23" transform="matrix(13.9,0,0,13.9,498.1,778.1)" />
<use xlink:href="#f0_21" transform="matrix(13.9,0,0,13.9,504,778.1)" />
<use xlink:href="#f0_1k" transform="matrix(13.9,0,0,13.9,511.1,778.1)" />
<use xlink:href="#f0_1x" transform="matrix(13.9,0,0,13.9,520.6,778.1)" />
<use xlink:href="#f0_22" transform="matrix(13.9,0,0,13.9,531.3,778.1)" />
<use xlink:href="#f0_1k" transform="matrix(13.9,0,0,13.9,539.6,778.1)" />
<use xlink:href="#f0_1m" transform="matrix(13.9,0,0,13.9,549.1,778.1)" />
<use xlink:href="#f0_23" transform="matrix(13.9,0,0,13.9,558.6,778.1)" />
<use xlink:href="#f0_1s" transform="matrix(13.9,0,0,13.9,564.5,778.1)" />
<use xlink:href="#f0_1y" transform="matrix(13.9,0,0,13.9,570.4,778.1)" />
<use xlink:href="#f0_1x" transform="matrix(13.9,0,0,13.9,581.1,778.1)" />
<use xlink:href="#f0_22" transform="matrix(13.9,0,0,13.9,591.8,778.1)" />
<use xlink:href="#f0_1y" transform="matrix(13.9,0,0,13.9,605.5,778.1)" />
<use xlink:href="#f0_1p" transform="matrix(13.9,0,0,13.9,616.2,778.1)" />
<use xlink:href="#f0_23" transform="matrix(13.9,0,0,13.9,628.6,778.1)" />
<use xlink:href="#f0_1r" transform="matrix(13.9,0,0,13.9,634.5,778.1)" />
<use xlink:href="#f0_1o" transform="matrix(13.9,0,0,13.9,645.2,778.1)" />
<use xlink:href="#f0_1s" transform="matrix(13.9,0,0,13.9,654.7,778.1)" />
<use xlink:href="#f0_21" transform="matrix(13.9,0,0,13.9,660.7,778.1)" />
<use xlink:href="#f0_1x" transform="matrix(13.9,0,0,13.9,673.1,778.1)" />
<use xlink:href="#f0_1o" transform="matrix(13.9,0,0,13.9,683.8,778.1)" />
<use xlink:href="#f0_1o" transform="matrix(13.9,0,0,13.9,693.3,778.1)" />
<use xlink:href="#f0_1n" transform="matrix(13.9,0,0,13.9,702.8,778.1)" />
<use xlink:href="#f0_22" transform="matrix(13.9,0,0,13.9,713.5,778.1)" />
<use xlink:href="#f0_b" transform="matrix(13.9,0,0,13.9,721.8,778.1)" />
<use xlink:href="#f0_22" transform="matrix(13.9,0,0,13.9,183.9,802.6)" />
<use xlink:href="#f0_1u" transform="matrix(13.9,0,0,13.9,192.2,802.6)" />
<use xlink:href="#f0_1s" transform="matrix(13.9,0,0,13.9,202.9,802.6)" />
<use xlink:href="#f0_1v" transform="matrix(13.9,0,0,13.9,208.9,802.6)" />
<use xlink:href="#f0_1v" transform="matrix(13.9,0,0,13.9,214.8,802.6)" />
<use xlink:href="#f0_22" transform="matrix(13.9,0,0,13.9,220.7,802.6)" />
<use xlink:href="#f0_b" transform="matrix(13.9,0,0,13.9,229.1,802.6)" />
<use xlink:href="#f0_1s" transform="matrix(13.9,0,0,13.9,239.8,802.6)" />
<use xlink:href="#f0_1x" transform="matrix(13.9,0,0,13.9,245.7,802.6)" />
<use xlink:href="#f0_23" transform="matrix(13.9,0,0,13.9,256.4,802.6)" />
<use xlink:href="#f0_1o" transform="matrix(13.9,0,0,13.9,262.3,802.6)" />
<use xlink:href="#f0_21" transform="matrix(13.9,0,0,13.9,271.8,802.6)" />
<use xlink:href="#f0_1o" transform="matrix(13.9,0,0,13.9,278.9,802.6)" />
<use xlink:href="#f0_22" transform="matrix(13.9,0,0,13.9,288.4,802.6)" />
<use xlink:href="#f0_23" transform="matrix(13.9,0,0,13.9,296.8,802.6)" />
<use xlink:href="#f0_22" transform="matrix(13.9,0,0,13.9,302.7,802.6)" />
<use xlink:href="#f0_b" transform="matrix(13.9,0,0,13.9,311,802.6)" />
<use xlink:href="#f0_1y" transform="matrix(13.9,0,0,13.9,321.7,802.6)" />
<use xlink:href="#f0_1l" transform="matrix(13.9,0,0,13.9,332.4,802.6)" />
<use xlink:href="#f0_1t" transform="matrix(13.9,0,0,13.9,343.1,802.6)" />
<use xlink:href="#f0_1o" transform="matrix(13.9,0,0,13.9,349.1,802.6)" />
<use xlink:href="#f0_1m" transform="matrix(13.9,0,0,13.9,358.6,802.6)" />
<use xlink:href="#f0_23" transform="matrix(13.9,0,0,13.9,368.1,802.6)" />
<use xlink:href="#f0_22" transform="matrix(13.9,0,0,13.9,374,802.6)" />
<use xlink:href="#f0_1y" transform="matrix(13.9,0,0,13.9,387.7,802.6)" />
<use xlink:href="#f0_21" transform="matrix(13.9,0,0,13.9,398.4,802.6)" />
<use xlink:href="#f0_22" transform="matrix(13.9,0,0,13.9,410.8,802.6)" />
<use xlink:href="#f0_1z" transform="matrix(13.9,0,0,13.9,419.2,802.6)" />
<use xlink:href="#f0_1k" transform="matrix(13.9,0,0,13.9,429.9,802.6)" />
<use xlink:href="#f0_1m" transform="matrix(13.9,0,0,13.9,439.4,802.6)" />
<use xlink:href="#f0_1o" transform="matrix(13.9,0,0,13.9,448.9,802.6)" />
<use xlink:href="#f0_22" transform="matrix(13.9,0,0,13.9,458.4,802.6)" />
<use xlink:href="#f0_23" transform="matrix(13.9,0,0,13.9,472,802.6)" />
<use xlink:href="#f0_1y" transform="matrix(13.9,0,0,13.9,478,802.6)" />
<use xlink:href="#f0_11" transform="matrix(13.9,0,0,13.9,494,802.6)" />
<use xlink:href="#f0_1k" transform="matrix(13.9,0,0,13.9,509.5,802.6)" />
<use xlink:href="#f0_1x" transform="matrix(13.9,0,0,13.9,519,802.6)" />
<use xlink:href="#f0_1n" transform="matrix(13.9,0,0,13.9,529.7,802.6)" />
<use xlink:href="#f0_22" transform="matrix(13.9,0,0,13.9,540.4,802.6)" />
<use xlink:href="#f0_1o" transform="matrix(13.9,0,0,13.9,554,802.6)" />
<use xlink:href="#f0_25" transform="matrix(13.9,0,0,13.9,563.5,802.6)" />
<use xlink:href="#f0_1o" transform="matrix(13.9,0,0,13.9,574.2,802.6)" />
<use xlink:href="#f0_21" transform="matrix(13.9,0,0,13.9,583.7,802.6)" />
<use xlink:href="#f0_28" transform="matrix(13.9,0,0,13.9,590.8,802.6)" />
<use xlink:href="#f0_1w" transform="matrix(13.9,0,0,13.9,606.9,802.6)" />
<use xlink:href="#f0_1y" transform="matrix(13.9,0,0,13.9,623.5,802.6)" />
<use xlink:href="#f0_1x" transform="matrix(13.9,0,0,13.9,634.2,802.6)" />
<use xlink:href="#f0_23" transform="matrix(13.9,0,0,13.9,644.9,802.6)" />
<use xlink:href="#f0_1r" transform="matrix(13.9,0,0,13.9,650.9,802.6)" />
<use xlink:href="#f0_d" transform="matrix(13.9,0,0,13.9,661.6,802.6)" />
<use xlink:href="#f0_y" transform="matrix(13.9,0,0,13.9,183.9,845.5)" />
<use xlink:href="#f0_1k" transform="matrix(13.9,0,0,13.9,196.9,845.5)" />
<use xlink:href="#f0_1m" transform="matrix(13.9,0,0,13.9,206.4,845.5)" />
<use xlink:href="#f0_1r" transform="matrix(13.9,0,0,13.9,215.9,845.5)" />
<use xlink:href="#f0_23" transform="matrix(13.9,0,0,13.9,232,845.5)" />
<use xlink:href="#f0_21" transform="matrix(13.9,0,0,13.9,237.9,845.5)" />
<use xlink:href="#f0_1k" transform="matrix(13.9,0,0,13.9,245,845.5)" />
<use xlink:href="#f0_1x" transform="matrix(13.9,0,0,13.9,254.5,845.5)" />
<use xlink:href="#f0_22" transform="matrix(13.9,0,0,13.9,265.2,845.5)" />
<use xlink:href="#f0_1k" transform="matrix(13.9,0,0,13.9,273.5,845.5)" />
<use xlink:href="#f0_1m" transform="matrix(13.9,0,0,13.9,283,845.5)" />
<use xlink:href="#f0_23" transform="matrix(13.9,0,0,13.9,292.5,845.5)" />
<use xlink:href="#f0_1s" transform="matrix(13.9,0,0,13.9,298.5,845.5)" />
<use xlink:href="#f0_1y" transform="matrix(13.9,0,0,13.9,304.4,845.5)" />
<use xlink:href="#f0_1x" transform="matrix(13.9,0,0,13.9,315.1,845.5)" />
<use xlink:href="#f0_26" transform="matrix(13.9,0,0,13.9,331.1,845.5)" />
<use xlink:href="#f0_1s" transform="matrix(13.9,0,0,13.9,346.6,845.5)" />
<use xlink:href="#f0_1v" transform="matrix(13.9,0,0,13.9,352.5,845.5)" />
<use xlink:href="#f0_1v" transform="matrix(13.9,0,0,13.9,358.4,845.5)" />
<use xlink:href="#f0_1l" transform="matrix(13.9,0,0,13.9,369.7,845.5)" />
<use xlink:href="#f0_1o" transform="matrix(13.9,0,0,13.9,380.4,845.5)" />
<use xlink:href="#f0_25" transform="matrix(13.9,0,0,13.9,395.3,845.5)" />
<use xlink:href="#f0_1k" transform="matrix(13.9,0,0,13.9,405.9,845.5)" />
<use xlink:href="#f0_1v" transform="matrix(13.9,0,0,13.9,415.4,845.5)" />
<use xlink:href="#f0_24" transform="matrix(13.9,0,0,13.9,421.4,845.5)" />
<use xlink:href="#f0_1o" transform="matrix(13.9,0,0,13.9,432.1,845.5)" />
<use xlink:href="#f0_1n" transform="matrix(13.9,0,0,13.9,441.6,845.5)" />
<use xlink:href="#f0_1l" transform="matrix(13.9,0,0,13.9,457.6,845.5)" />
<use xlink:href="#f0_28" transform="matrix(13.9,0,0,13.9,468.3,845.5)" />
<use xlink:href="#f0_1y" transform="matrix(13.9,0,0,13.9,484.3,845.5)" />
<use xlink:href="#f0_23" transform="matrix(13.9,0,0,13.9,495,845.5)" />
<use xlink:href="#f0_1r" transform="matrix(13.9,0,0,13.9,500.9,845.5)" />
<use xlink:href="#f0_1o" transform="matrix(13.9,0,0,13.9,511.6,845.5)" />
<use xlink:href="#f0_21" transform="matrix(13.9,0,0,13.9,521.1,845.5)" />
<use xlink:href="#f0_24" transform="matrix(13.9,0,0,13.9,533.6,845.5)" />
<use xlink:href="#f0_22" transform="matrix(13.9,0,0,13.9,544.2,845.5)" />
<use xlink:href="#f0_1o" transform="matrix(13.9,0,0,13.9,552.6,845.5)" />
<use xlink:href="#f0_21" transform="matrix(13.9,0,0,13.9,562.1,845.5)" />
<use xlink:href="#f0_22" transform="matrix(13.9,0,0,13.9,569.2,845.5)" />
<use xlink:href="#f0_b" transform="matrix(13.9,0,0,13.9,577.5,845.5)" />
<use xlink:href="#f0_1s" transform="matrix(13.9,0,0,13.9,588.2,845.5)" />
<use xlink:href="#f0_1x" transform="matrix(13.9,0,0,13.9,594.1,845.5)" />
<use xlink:href="#f0_23" transform="matrix(13.9,0,0,13.9,610.2,845.5)" />
<use xlink:href="#f0_1r" transform="matrix(13.9,0,0,13.9,616.1,845.5)" />
<use xlink:href="#f0_1s" transform="matrix(13.9,0,0,13.9,626.8,845.5)" />
<use xlink:href="#f0_22" transform="matrix(13.9,0,0,13.9,632.7,845.5)" />
<use xlink:href="#f0_26" transform="matrix(13.9,0,0,13.9,646.4,845.5)" />
<use xlink:href="#f0_1k" transform="matrix(13.9,0,0,13.9,661.8,845.5)" />
<use xlink:href="#f0_28" transform="matrix(13.9,0,0,13.9,671.3,845.5)" />
<use xlink:href="#f0_b" transform="matrix(13.9,0,0,13.9,682,845.5)" />
<use xlink:href="#f0_24" transform="matrix(13.9,0,0,13.9,692.7,845.5)" />
<use xlink:href="#f0_22" transform="matrix(13.9,0,0,13.9,703.4,845.5)" />
<use xlink:href="#f0_1o" transform="matrix(13.9,0,0,13.9,711.7,845.5)" />
<use xlink:href="#f0_21" transform="matrix(13.9,0,0,13.9,721.2,845.5)" />
<use xlink:href="#f0_22" transform="matrix(13.9,0,0,13.9,728.3,845.5)" />
<use xlink:href="#f0_26" transform="matrix(13.9,0,0,13.9,742,845.5)" />
<use xlink:href="#f0_1s" transform="matrix(13.9,0,0,13.9,757.4,845.5)" />
<use xlink:href="#f0_1v" transform="matrix(13.9,0,0,13.9,763.4,845.5)" />
<use xlink:href="#f0_1v" transform="matrix(13.9,0,0,13.9,769.3,845.5)" />
<use xlink:href="#f0_1r" transform="matrix(13.9,0,0,13.9,183.9,870.1)" />
<use xlink:href="#f0_1k" transform="matrix(13.9,0,0,13.9,194.6,870.1)" />
<use xlink:href="#f0_25" transform="matrix(13.9,0,0,13.9,204.1,870.1)" />
<use xlink:href="#f0_1o" transform="matrix(13.9,0,0,13.9,214.8,870.1)" />
<use xlink:href="#f0_1k" transform="matrix(13.9,0,0,13.9,229.6,870.1)" />
<use xlink:href="#f0_22" transform="matrix(13.9,0,0,13.9,244.4,870.1)" />
<use xlink:href="#f0_1m" transform="matrix(13.9,0,0,13.9,252.8,870.1)" />
<use xlink:href="#f0_1y" transform="matrix(13.9,0,0,13.9,262.3,870.1)" />
<use xlink:href="#f0_21" transform="matrix(13.9,0,0,13.9,273,870.1)" />
<use xlink:href="#f0_1o" transform="matrix(13.9,0,0,13.9,280.1,870.1)" />
<use xlink:href="#f0_1k" transform="matrix(13.9,0,0,13.9,294.9,870.1)" />
<use xlink:href="#f0_1x" transform="matrix(13.9,0,0,13.9,304.4,870.1)" />
<use xlink:href="#f0_1n" transform="matrix(13.9,0,0,13.9,315.1,870.1)" />
<use xlink:href="#f0_26" transform="matrix(13.9,0,0,13.9,331.2,870.1)" />
<use xlink:href="#f0_1s" transform="matrix(13.9,0,0,13.9,346.6,870.1)" />
<use xlink:href="#f0_1v" transform="matrix(13.9,0,0,13.9,352.6,870.1)" />
<use xlink:href="#f0_1v" transform="matrix(13.9,0,0,13.9,358.5,870.1)" />
<use xlink:href="#f0_1z" transform="matrix(13.9,0,0,13.9,369.8,870.1)" />
<use xlink:href="#f0_21" transform="matrix(13.9,0,0,13.9,380.5,870.1)" />
<use xlink:href="#f0_1y" transform="matrix(13.9,0,0,13.9,387.6,870.1)" />
<use xlink:href="#f0_1k" transform="matrix(13.9,0,0,13.9,398.3,870.1)" />
<use xlink:href="#f0_1m" transform="matrix(13.9,0,0,13.9,407.8,870.1)" />
<use xlink:href="#f0_23" transform="matrix(13.9,0,0,13.9,417.3,870.1)" />
<use xlink:href="#f0_1s" transform="matrix(13.9,0,0,13.9,423.2,870.1)" />
<use xlink:href="#f0_25" transform="matrix(13.9,0,0,13.9,429.2,870.1)" />
<use xlink:href="#f0_1o" transform="matrix(13.9,0,0,13.9,439.9,870.1)" />
<use xlink:href="#f0_1v" transform="matrix(13.9,0,0,13.9,449.4,870.1)" />
<use xlink:href="#f0_28" transform="matrix(13.9,0,0,13.9,455.3,870.1)" />
<use xlink:href="#f0_22" transform="matrix(13.9,0,0,13.9,471.4,870.1)" />
<use xlink:href="#f0_1o" transform="matrix(13.9,0,0,13.9,479.7,870.1)" />
<use xlink:href="#f0_1o" transform="matrix(13.9,0,0,13.9,489.2,870.1)" />
<use xlink:href="#f0_1u" transform="matrix(13.9,0,0,13.9,498.7,870.1)" />
<use xlink:href="#f0_23" transform="matrix(13.9,0,0,13.9,514.7,870.1)" />
<use xlink:href="#f0_1y" transform="matrix(13.9,0,0,13.9,520.7,870.1)" />
<use xlink:href="#f0_1l" transform="matrix(13.9,0,0,13.9,536.7,870.1)" />
<use xlink:href="#f0_1o" transform="matrix(13.9,0,0,13.9,547.4,870.1)" />
<use xlink:href="#f0_1l" transform="matrix(13.9,0,0,13.9,562.3,870.1)" />
<use xlink:href="#f0_1o" transform="matrix(13.9,0,0,13.9,573,870.1)" />
<use xlink:href="#f0_23" transform="matrix(13.9,0,0,13.9,582.5,870.1)" />
<use xlink:href="#f0_23" transform="matrix(13.9,0,0,13.9,588.4,870.1)" />
<use xlink:href="#f0_1o" transform="matrix(13.9,0,0,13.9,594.4,870.1)" />
<use xlink:href="#f0_21" transform="matrix(13.9,0,0,13.9,603.9,870.1)" />
<use xlink:href="#f0_1s" transform="matrix(13.9,0,0,13.9,616.3,870.1)" />
<use xlink:href="#f0_1x" transform="matrix(13.9,0,0,13.9,622.3,870.1)" />
<use xlink:href="#f0_23" transform="matrix(13.9,0,0,13.9,638.3,870.1)" />
<use xlink:href="#f0_1r" transform="matrix(13.9,0,0,13.9,644.3,870.1)" />
<use xlink:href="#f0_1o" transform="matrix(13.9,0,0,13.9,655,870.1)" />
<use xlink:href="#f0_1s" transform="matrix(13.9,0,0,13.9,664.5,870.1)" />
<use xlink:href="#f0_21" transform="matrix(13.9,0,0,13.9,670.4,870.1)" />
<use xlink:href="#f0_22" transform="matrix(13.9,0,0,13.9,682.9,870.1)" />
<use xlink:href="#f0_1u" transform="matrix(13.9,0,0,13.9,691.2,870.1)" />
<use xlink:href="#f0_1s" transform="matrix(13.9,0,0,13.9,701.9,870.1)" />
<use xlink:href="#f0_1v" transform="matrix(13.9,0,0,13.9,707.8,870.1)" />
<use xlink:href="#f0_1v" transform="matrix(13.9,0,0,13.9,713.8,870.1)" />
<use xlink:href="#f0_22" transform="matrix(13.9,0,0,13.9,719.7,870.1)" />
<use xlink:href="#f0_22" transform="matrix(13.9,0,0,13.9,733.4,870.1)" />
<use xlink:href="#f0_1s" transform="matrix(13.9,0,0,13.9,741.7,870.1)" />
<use xlink:href="#f0_1x" transform="matrix(13.9,0,0,13.9,747.6,870.1)" />
<use xlink:href="#f0_1m" transform="matrix(13.9,0,0,13.9,758.3,870.1)" />
<use xlink:href="#f0_1o" transform="matrix(13.9,0,0,13.9,767.8,870.1)" />
<use xlink:href="#f0_23" transform="matrix(13.9,0,0,13.9,183.9,894.7)" />
<use xlink:href="#f0_1r" transform="matrix(13.9,0,0,13.9,189.8,894.7)" />
<use xlink:href="#f0_1o" transform="matrix(13.9,0,0,13.9,200.5,894.7)" />
<use xlink:href="#f0_28" transform="matrix(13.9,0,0,13.9,210,894.7)" />
<use xlink:href="#f0_26" transform="matrix(13.9,0,0,13.9,226.1,894.7)" />
<use xlink:href="#f0_1s" transform="matrix(13.9,0,0,13.9,241.5,894.7)" />
<use xlink:href="#f0_1v" transform="matrix(13.9,0,0,13.9,247.5,894.7)" />
<use xlink:href="#f0_1v" transform="matrix(13.9,0,0,13.9,253.4,894.7)" />
<use xlink:href="#f0_1r" transform="matrix(13.9,0,0,13.9,264.7,894.7)" />
<use xlink:href="#f0_1k" transform="matrix(13.9,0,0,13.9,275.4,894.7)" />
<use xlink:href="#f0_25" transform="matrix(13.9,0,0,13.9,284.9,894.7)" />
<use xlink:href="#f0_1o" transform="matrix(13.9,0,0,13.9,295.6,894.7)" />
<use xlink:href="#f0_23" transform="matrix(13.9,0,0,13.9,310.4,894.7)" />
<use xlink:href="#f0_1y" transform="matrix(13.9,0,0,13.9,316.4,894.7)" />
<use xlink:href="#f0_1m" transform="matrix(13.9,0,0,13.9,332.4,894.7)" />
<use xlink:href="#f0_1y" transform="matrix(13.9,0,0,13.9,341.9,894.7)" />
<use xlink:href="#f0_1w" transform="matrix(13.9,0,0,13.9,352.6,894.7)" />
<use xlink:href="#f0_1z" transform="matrix(13.9,0,0,13.9,369.3,894.7)" />
<use xlink:href="#f0_1o" transform="matrix(13.9,0,0,13.9,380,894.7)" />
<use xlink:href="#f0_23" transform="matrix(13.9,0,0,13.9,389.5,894.7)" />
<use xlink:href="#f0_1o" transform="matrix(13.9,0,0,13.9,395.4,894.7)" />
<use xlink:href="#f0_26" transform="matrix(13.9,0,0,13.9,410.3,894.7)" />
<use xlink:href="#f0_1s" transform="matrix(13.9,0,0,13.9,425.7,894.7)" />
<use xlink:href="#f0_23" transform="matrix(13.9,0,0,13.9,431.6,894.7)" />
<use xlink:href="#f0_1r" transform="matrix(13.9,0,0,13.9,437.6,894.7)" />
<use xlink:href="#f0_23" transform="matrix(13.9,0,0,13.9,453.6,894.7)" />
<use xlink:href="#f0_1r" transform="matrix(13.9,0,0,13.9,459.6,894.7)" />
<use xlink:href="#f0_1o" transform="matrix(13.9,0,0,13.9,470.3,894.7)" />
<use xlink:href="#f0_1w" transform="matrix(13.9,0,0,13.9,479.8,894.7)" />
<use xlink:href="#f0_22" transform="matrix(13.9,0,0,13.9,496.4,894.7)" />
<use xlink:href="#f0_1o" transform="matrix(13.9,0,0,13.9,504.7,894.7)" />
<use xlink:href="#f0_1v" transform="matrix(13.9,0,0,13.9,514.2,894.7)" />
<use xlink:href="#f0_25" transform="matrix(13.9,0,0,13.9,520.2,894.7)" />
<use xlink:href="#f0_1o" transform="matrix(13.9,0,0,13.9,530.9,894.7)" />
<use xlink:href="#f0_22" transform="matrix(13.9,0,0,13.9,540.4,894.7)" />
<use xlink:href="#f0_d" transform="matrix(13.9,0,0,13.9,548.7,894.7)" />
</g>
</g>
<image preserveAspectRatio="none" x="275" y="266" width="413" height="315" xlink:href="img/1.png" />
<defs>
<path d="M33,0V27c0,0,264,241,371,393c0,0,108,152,108,278c0,0,0,96,-59,158c0,0,-59,62,-141,62c0,0,-75,0,-134,-43c0,0,-59,-44,-88,-128H63c0,0,18,138,95,212c0,0,77,74,193,74c0,0,123,0,205,-80c0,0,83,-79,83,-186c0,0,0,-77,-36,-154c0,0,-55,-121,-179,-256C424,357,238,154,191,112H455c0,0,81,0,114,6c0,0,32,6,58,25c0,0,27,18,46,52h27L630,0Z" 
id="f0_h"
transform="scale(0.001,-0.001)" />

<path d="M379,29c0,0,41,0,84,37c0,0,43,36,65,121c0,0,34,128,34,362c0,0,0,173,-35,288c0,0,-27,86,-69,122c0,0,-31,25,-74,25c0,0,-51,0,-90,-46c0,0,-54,-62,-73,-195c0,0,-20,-132,-20,-261c0,0,0,-209,52,-341c0,0,42,-112,126,-112Zm-2,-46c0,0,-145,0,-241,170c0,0,-81,144,-81,347c0,0,0,173,52,298c0,0,52,125,139,186c0,0,67,49,139,49c0,0,116,0,208,-119c0,0,116,-147,116,-398c0,0,0,-176,-51,-299C658,217,608,94,529,38c0,0,-79,-55,-152,-55Z" 
id="f0_f"
transform="scale(0.001,-0.001)" />

<path d="M37,0V16c0,0,275,327,333,439c0,0,59,113,59,220c0,0,0,79,-49,131c0,0,-49,52,-119,52c0,0,-115,0,-178,-115l-28,9c0,0,40,143,123,212c0,0,82,69,189,69c0,0,77,0,141,-36c0,0,63,-36,99,-98c0,0,36,-63,36,-117c0,0,0,-99,-56,-202c0,0,-75,-138,-329,-384H477c0,0,81,0,105,6c0,0,24,7,40,23c0,0,15,16,41,67h27L633,0Z" 
id="f1_d"
transform="scale(0.001,-0.001)" />

<path d="M191,-18c0,0,-51,0,-87,36c0,0,-37,36,-37,87c0,0,0,52,37,88c0,0,36,37,87,37c0,0,52,0,89,-37c0,0,36,-36,36,-88c0,0,0,-51,-37,-87c0,0,-36,-36,-88,-36Z" 
id="f1_9"
transform="scale(0.001,-0.001)" />

<path d="M271,-20L546,815H337c0,0,-123,0,-185,-33c0,0,-43,-22,-71,-84H52l73,314H729L388,-20Z" 
id="f1_i"
transform="scale(0.001,-0.001)" />

<path d="M448,514c0,0,104,0,155,19c0,0,52,19,81,69c0,0,30,50,30,129c0,0,0,116,-54,171c0,0,-54,55,-174,55H406V514ZM28,0V27c0,0,70,0,95,13c0,0,25,14,35,35c0,0,10,21,10,103V834c0,0,0,82,-10,104c0,0,-10,21,-35,34c0,0,-25,13,-95,13v27H498c0,0,184,0,269,-25c0,0,85,-26,138,-94c0,0,54,-68,54,-160c0,0,0,-112,-80,-185c0,0,-52,-46,-145,-69L977,135c0,0,48,-66,68,-82c0,0,31,-23,72,-26V0H798L472,462H406V178c0,0,0,-82,10,-104c0,0,10,-21,35,-34c0,0,25,-13,95,-13V0Z" 
id="f1_13"
transform="scale(0.001,-0.001)" />

<path d="M381,31c0,0,33,0,56,19c0,0,29,25,38,71c0,0,15,71,15,286c0,0,0,127,-14,174c0,0,-14,48,-42,69c0,0,-19,16,-50,16c0,0,-38,0,-65,-29c0,0,-27,-29,-36,-113c0,0,-8,-85,-8,-235c0,0,0,-80,10,-150c0,0,8,-53,35,-80c0,0,27,-28,61,-28Zm2,-51c0,0,-157,0,-242,110c0,0,-85,110,-85,256c0,0,0,150,87,261c0,0,86,112,238,112c0,0,90,0,169,-47c0,0,78,-47,119,-134c0,0,40,-86,40,-189c0,0,0,-149,-75,-249c0,0,-91,-120,-251,-120Z" 
id="f1_1o"
transform="scale(0.001,-0.001)" />

<path d="M182,-328c0,0,-62,0,-101,35c0,0,-38,35,-38,85c0,0,0,44,26,72c0,0,27,28,66,28c0,0,37,0,60,-23c0,0,22,-24,23,-74c0,0,1,-29,7,-37c0,0,6,-8,17,-8c0,0,18,0,38,21c0,0,30,32,70,144l22,57L146,488c0,0,-50,118,-74,144c0,0,-25,27,-59,38v27H384V670c0,0,-36,-2,-51,-14c0,0,-15,-13,-15,-31c0,0,0,-28,37,-112L475,239l81,212c0,0,44,113,44,157c0,0,0,27,-18,44c0,0,-18,16,-65,18v27H750V670c0,0,-34,-4,-56,-27c0,0,-22,-22,-72,-155L422,-27c0,0,-75,-194,-111,-239c0,0,-52,-62,-129,-62Z" 
id="f1_1y"
transform="scale(0.001,-0.001)" />

<path d="M350,115c0,0,37,0,86,42V391c0,0,-90,-53,-134,-113c0,0,-29,-41,-29,-82c0,0,0,-34,24,-60c0,0,19,-21,53,-21ZM207,-9c0,0,-59,0,-99,38c0,0,-40,40,-40,99c0,0,0,80,69,143c0,0,69,64,299,170v70c0,0,0,79,-8,100c0,0,-9,20,-33,36c0,0,-23,15,-53,15c0,0,-49,0,-80,-22c0,0,-19,-13,-19,-31c0,0,0,-16,21,-39c0,0,28,-32,28,-62c0,0,0,-36,-27,-62c0,0,-27,-26,-71,-26c0,0,-47,0,-79,29c0,0,-32,28,-32,66c0,0,0,54,43,103c0,0,42,48,118,75c0,0,76,26,158,26c0,0,99,0,157,-42c0,0,58,-43,75,-92c0,0,11,-31,11,-144V170c0,0,0,-47,3,-60c0,0,4,-12,11,-18c0,0,8,-6,18,-6c0,0,19,0,39,28L738,96c0,0,-37,-56,-77,-81c0,0,-40,-24,-90,-24c0,0,-60,0,-94,27c0,0,-33,28,-41,85C436,103,309,-9,207,-9Z" 
id="f1_1a"
transform="scale(0.001,-0.001)" />

<path d="M32,0V26c0,0,46,2,69,27c0,0,14,18,14,92V867c0,0,0,74,-17,94c0,0,-17,21,-66,24v27H325V145c0,0,0,-74,17,-95c0,0,17,-21,68,-24V0Z" 
id="f1_1l"
transform="scale(0.001,-0.001)" />

<path d="M298,-9c0,0,-67,0,-113,36c0,0,-46,37,-58,83c0,0,-8,25,-8,137V624H28v26c0,0,94,66,161,139c0,0,66,73,115,163h25V697H494V624H329V193c0,0,0,-60,5,-78c0,0,6,-17,20,-28c0,0,14,-11,26,-11c0,0,48,0,92,75l22,-17C494,134,434,-9,298,-9Z" 
id="f1_1t"
transform="scale(0.001,-0.001)" />

<path d="M490,56c0,0,124,0,190,85c0,0,89,115,89,356c0,0,0,195,-61,311c0,0,-48,91,-124,124c0,0,-52,22,-172,22c-2,0,-4,0,-6,0V165c0,0,0,-62,6,-76c0,0,6,-15,20,-22c0,0,20,-11,58,-11ZM20,0V27H53c0,0,44,0,68,14c0,0,23,14,35,38c0,0,6,16,6,94V839c0,0,0,78,-8,97c0,0,-8,20,-33,34c0,0,-25,15,-68,15H20v27H472c0,0,182,0,292,-49c0,0,135,-61,205,-183c0,0,70,-123,70,-277c0,0,0,-107,-35,-197c0,0,-34,-90,-88,-148c0,0,-55,-59,-126,-94C790,64,719,28,616,9C616,9,570,0,472,0Z" 
id="f1_q"
transform="scale(0.001,-0.001)" />

<path d="M32,0V26c0,0,46,2,69,27c0,0,14,18,14,92V551c0,0,0,75,-17,95c0,0,-17,21,-66,24v27H325V145c0,0,0,-74,17,-95c0,0,17,-21,68,-24V0ZM220,804c0,0,-48,0,-82,33c0,0,-33,34,-33,82c0,0,0,48,33,82c0,0,34,33,82,33c0,0,48,0,82,-33c0,0,33,-34,33,-82c0,0,0,-48,-34,-82c0,0,-34,-33,-81,-33Z" 
id="f1_1i"
transform="scale(0.001,-0.001)" />

<path d="M312,-20c0,0,-50,0,-134,30c0,0,-22,9,-30,9c0,0,-25,0,-41,-37H82L70,232H97c0,0,33,-99,91,-148c0,0,59,-49,111,-49c0,0,35,0,58,22c0,0,22,22,22,54c0,0,0,35,-22,61c0,0,-22,27,-100,80c0,0,-114,79,-147,120c0,0,-49,62,-49,136c0,0,0,80,55,145c0,0,56,66,161,66c0,0,56,0,109,-28c0,0,20,-11,33,-11c0,0,13,0,21,5c0,0,9,6,27,32h26L504,479H477c0,0,-45,106,-94,145c0,0,-48,39,-96,39c0,0,-31,0,-52,-21c0,0,-22,-20,-22,-47c0,0,0,-20,15,-39c0,0,24,-30,133,-105c0,0,110,-74,144,-126c0,0,35,-52,35,-116c0,0,0,-58,-29,-114C511,95,482,39,429,9c0,0,-53,-29,-117,-29Z" 
id="f1_1s"
transform="scale(0.001,-0.001)" />

<path d="M57,0V26c0,0,45,4,61,25c0,0,16,22,16,113V550c0,0,0,59,-6,76c0,0,-7,21,-22,30c0,0,-14,10,-49,14v27H342l1,-158c0,0,69,109,121,144c0,0,52,36,100,36c0,0,42,0,66,-26c0,0,25,-26,25,-73c0,0,0,-50,-24,-77c0,0,-25,-28,-59,-28c0,0,-39,0,-68,25c0,0,-28,26,-33,29c0,0,-8,4,-17,4c0,0,-22,0,-41,-16c0,0,-31,-26,-46,-73c0,0,-24,-72,-24,-159V122c0,0,0,-42,5,-54c0,0,9,-21,27,-30c0,0,17,-9,59,-12V0Z" 
id="f1_1r"
transform="scale(0.001,-0.001)" />

<path d="M434,31c0,0,38,0,65,22c0,0,28,22,46,86c0,0,18,64,18,231c0,0,0,161,-40,220c0,0,-29,44,-78,44c0,0,-64,0,-123,-73V251c0,0,0,-95,4,-121c0,0,8,-44,36,-71c0,0,28,-28,72,-28ZM115,-20V867c0,0,0,61,-5,75c0,0,-7,21,-23,31c0,0,-17,10,-55,12v27H322V628c0,0,88,91,192,91c0,0,72,0,135,-42c0,0,64,-43,99,-120c0,0,36,-78,36,-179c0,0,0,-114,-45,-208C739,170,693,77,617,28c0,0,-76,-48,-174,-48c0,0,-56,0,-100,18c0,0,-44,17,-87,57L141,-20Z" 
id="f1_1b"
transform="scale(0.001,-0.001)" />

<path d="M304,-20c0,0,-59,0,-105,36c0,0,-45,36,-61,84c0,0,-16,49,-16,169V546c0,0,0,79,-14,98c0,0,-15,20,-61,26v27H331V221c0,0,0,-74,8,-96c0,0,7,-21,22,-33c0,0,15,-11,35,-11c0,0,27,0,49,14c0,0,30,20,71,78V546c0,0,0,79,-14,98c0,0,-15,20,-61,26v27H726V152c0,0,0,-81,14,-100c0,0,15,-20,61,-26V0H516V93C516,93,466,34,416,7c0,0,-50,-27,-112,-27Z" 
id="f1_1u"
transform="scale(0.001,-0.001)" />

<path d="M52,0V26c0,0,44,5,62,29c0,0,13,16,13,97V546c0,0,0,79,-14,98c0,0,-15,20,-61,26v27H336V607c0,0,54,59,104,85c0,0,49,27,106,27c0,0,68,0,113,-38c0,0,44,-38,59,-94c0,0,12,-42,12,-163V152c0,0,0,-81,15,-101c0,0,14,-19,61,-25V0H452V26c0,0,40,6,57,33c0,0,12,19,12,93V462c0,0,0,86,-7,109c0,0,-6,22,-22,35c0,0,-16,12,-36,12c0,0,-64,0,-120,-92V152c0,0,0,-79,15,-100c0,0,15,-20,55,-26V0Z" 
id="f1_1n"
transform="scale(0.001,-0.001)" />

<path d="M610,-21c0,0,-162,0,-287,63c0,0,-126,65,-194,187c0,0,-68,121,-68,258c0,0,0,145,75,275c0,0,76,129,205,201c0,0,128,71,273,71c0,0,107,0,225,-46c0,0,69,-27,88,-27c0,0,24,0,41,18c0,0,18,17,23,55h29V683H991c0,0,-33,138,-122,211c0,0,-90,73,-203,73c0,0,-95,0,-174,-54c0,0,-79,-55,-116,-143c0,0,-47,-112,-47,-250c0,0,0,-135,34,-247c0,0,35,-111,108,-168c0,0,73,-57,189,-57c0,0,96,0,175,42c0,0,80,41,168,144V146c0,0,-85,-89,-178,-129c0,0,-92,-38,-215,-38Z" 
id="f1_p"
transform="scale(0.001,-0.001)" />

<path d="M365,-20c0,0,-139,0,-223,105c0,0,-83,105,-83,253c0,0,0,142,76,250c0,0,92,131,253,131c0,0,108,0,172,-55c0,0,63,-54,63,-121c0,0,0,-43,-25,-68c0,0,-26,-25,-68,-25c0,0,-44,0,-73,29c0,0,-28,29,-35,104c0,0,-5,47,-22,65c0,0,-17,19,-40,19c0,0,-36,0,-61,-38c0,0,-39,-58,-39,-176c0,0,0,-99,31,-188c0,0,32,-90,86,-134c0,0,41,-32,97,-32c0,0,36,0,69,17c0,0,33,17,78,65l23,-18C644,163,595,70,521,25c0,0,-73,-45,-156,-45Z" 
id="f1_1c"
transform="scale(0.001,-0.001)" />

<path d="M610,343L459,690L304,343ZM12,0V27c0,0,54,9,89,46c0,0,35,37,87,153l361,807h14L928,203c0,0,52,-118,86,-149c0,0,25,-23,71,-27V0H596V27h20c0,0,59,0,83,17c0,0,16,12,16,34c0,0,0,14,-4,28c0,0,-1,7,-22,56L634,288H279L235,190c0,0,-20,-50,-20,-82c0,0,0,-42,34,-63c0,0,20,-12,99,-18V0Z" 
id="f1_n"
transform="scale(0.001,-0.001)" />

<path d="M52,0V26c0,0,44,5,62,29c0,0,13,16,13,97V860c0,0,0,80,-14,99c0,0,-15,20,-61,26v27H336V608c0,0,58,61,106,86c0,0,47,25,99,25c0,0,65,0,112,-38c0,0,47,-37,62,-87c0,0,15,-51,15,-170V152c0,0,0,-81,15,-100c0,0,15,-20,61,-26V0H452V26c0,0,37,6,56,30c0,0,13,20,13,96V463c0,0,0,86,-7,108c0,0,-6,22,-22,35c0,0,-16,12,-36,12c0,0,-30,0,-59,-21c0,0,-28,-20,-61,-72V152c0,0,0,-75,12,-94c0,0,14,-26,58,-32V0Z" 
id="f1_1h"
transform="scale(0.001,-0.001)" />

<path d="M458,424c0,0,0,120,-13,165c0,0,-13,44,-40,67c0,0,-16,14,-42,14c0,0,-39,0,-63,-38c0,0,-44,-66,-44,-182V424ZM358,-20c0,0,-155,0,-235,119c0,0,-64,96,-64,239c0,0,0,174,94,277c0,0,94,104,221,104c0,0,106,0,184,-87c0,0,78,-87,84,-257H259c0,0,7,-139,74,-220c0,0,51,-62,124,-62c0,0,45,0,81,25c0,0,37,25,79,90l25,-16C642,192,585,76,517,28c0,0,-69,-48,-159,-48Z" 
id="f1_1e"
transform="scale(0.001,-0.001)" />

<path d="M548,-21c0,0,-251,0,-389,185C159,164,56,303,56,490c0,0,0,152,68,278c0,0,67,127,186,197c0,0,119,69,260,69c0,0,109,0,216,-53c0,0,31,-17,44,-17c0,0,20,0,35,14c0,0,20,21,28,56h26L943,690H919c0,0,-46,155,-131,224c0,0,-86,68,-206,68c0,0,-100,0,-181,-51c0,0,-81,-52,-128,-163c0,0,-46,-112,-46,-279c0,0,0,-137,44,-238c0,0,44,-101,132,-154c0,0,88,-54,201,-54c0,0,99,0,174,42c0,0,75,42,165,167l23,-14C966,238,890,103,789,40c0,0,-102,-61,-241,-61Z" 
id="f0_w"
transform="scale(0.001,-0.001)" />

<path d="M17,0V26c0,0,52,0,77,17c0,0,19,12,26,38c0,0,4,13,4,73V419c0,0,0,119,-5,142c0,0,-4,23,-17,33c0,0,-13,11,-33,11c0,0,-23,0,-52,-11l-7,26l207,83h31V549c0,0,86,154,176,154c0,0,41,0,68,-25c0,0,27,-25,27,-58c0,0,0,-29,-20,-49c0,0,-19,-20,-46,-20c0,0,-26,0,-58,25c0,0,-33,26,-48,26c0,0,-14,0,-29,-15c0,0,-34,-30,-70,-101V159c0,0,0,-56,15,-85c0,0,9,-20,34,-34c0,0,24,-14,71,-14V0Z" 
id="f0_21"
transform="scale(0.001,-0.001)" />

<path d="M479,469c0,0,-4,66,-16,93c0,0,-18,42,-55,65c0,0,-37,24,-78,24c0,0,-62,0,-111,-48c0,0,-48,-48,-57,-134ZM355,-20c0,0,-123,0,-211,95c0,0,-87,96,-87,258c0,0,0,175,90,273c0,0,89,98,225,98c0,0,115,0,189,-76c0,0,74,-75,74,-202H162c0,0,0,-152,74,-239c0,0,75,-86,175,-86c0,0,67,0,117,36c0,0,50,37,83,127l24,-15c0,0,-16,-102,-91,-186c0,0,-76,-83,-189,-83Z" 
id="f0_1o"
transform="scale(0.001,-0.001)" />

<path d="M286,72c0,0,57,0,149,75V407c0,0,-113,-45,-145,-64c0,0,-59,-32,-85,-68c0,0,-25,-36,-25,-78c0,0,0,-54,32,-89c0,0,32,-36,74,-36ZM217,-13c0,0,-71,0,-116,48c0,0,-46,48,-46,127c0,0,0,50,22,87c0,0,31,50,106,95c0,0,76,45,252,109v26c0,0,0,102,-32,140c0,0,-32,38,-94,38c0,0,-47,0,-74,-25c0,0,-28,-25,-28,-58l1,-43c0,0,0,-34,-17,-53c0,0,-18,-18,-47,-18c0,0,-28,0,-45,19c0,0,-18,19,-18,53c0,0,0,64,66,117c0,0,65,54,184,54c0,0,91,0,149,-31c0,0,44,-23,65,-72c0,0,13,-32,13,-131V238c0,0,0,-98,4,-120c0,0,4,-22,12,-29c0,0,9,-8,20,-8c0,0,12,0,21,5c0,0,16,10,61,55V99C676,99,592,-12,516,-12c0,0,-37,0,-58,24c0,0,-22,26,-23,86C435,98,330,17,303,5c0,0,-40,-18,-86,-18Z" 
id="f0_1k"
transform="scale(0.001,-0.001)" />

<path d="M255,-10c0,0,-35,0,-68,18c0,0,-32,19,-48,55c0,0,-16,35,-16,109V632H15v24c0,0,41,16,84,56c0,0,43,39,77,92c0,0,17,29,48,104h23V683H407V632H247V188c0,0,0,-66,19,-90c0,0,19,-23,49,-23c0,0,24,0,47,16c0,0,23,15,36,45h29c0,0,-26,-73,-74,-110c0,0,-47,-36,-98,-36Z" 
id="f0_23"
transform="scale(0.001,-0.001)" />

<path d="M399,62c0,0,68,0,131,68V481c0,0,-5,51,-27,93c0,0,-22,42,-59,63c0,0,-37,21,-72,21c0,0,-65,0,-117,-59c0,0,-67,-77,-67,-226c0,0,0,-151,65,-231c0,0,66,-80,146,-80ZM330,-20c0,0,-112,0,-196,93c0,0,-83,94,-83,240c0,0,0,147,92,269c0,0,93,122,238,122c0,0,90,0,149,-58V773c0,0,0,117,-6,144c0,0,-5,27,-17,37c0,0,-12,9,-30,9c0,0,-20,0,-52,-12l-9,27l204,83h33V270c0,0,0,-120,6,-146c0,0,5,-27,18,-37c0,0,12,-11,28,-11c0,0,21,0,54,13l9,-26L564,-20H530V78C530,78,480,25,432,2c0,0,-47,-22,-102,-22Z" 
id="f0_1n"
transform="scale(0.001,-0.001)" />

<path d="M20,0V26c0,0,45,0,71,15c0,0,15,7,24,28c0,0,9,21,9,85V773c0,0,0,117,-5,144c0,0,-6,27,-17,37c0,0,-12,9,-31,9c0,0,-16,0,-51,-12L10,978l204,83h34V561c0,0,83,91,131,116c0,0,49,26,97,26c0,0,58,0,100,-32c0,0,42,-32,62,-101c0,0,14,-47,14,-174V154c0,0,0,-65,11,-89c0,0,7,-18,25,-28c0,0,18,-11,66,-11V0H418V26h15c0,0,48,0,67,15c0,0,18,15,26,43c0,0,2,12,2,70V396c0,0,0,112,-12,147c0,0,-11,35,-36,53c0,0,-26,17,-61,17c0,0,-37,0,-76,-19c0,0,-40,-20,-95,-79V154c0,0,0,-70,8,-87c0,0,8,-17,29,-29c0,0,22,-12,74,-12V0Z" 
id="f0_1r"
transform="scale(0.001,-0.001)" />

<path d="M21,0V26H35c0,0,53,0,71,27c0,0,18,27,18,101V408c0,0,0,123,-5,150c0,0,-6,27,-17,37c0,0,-12,10,-31,10c0,0,-21,0,-50,-11L10,620l206,83h32V558c0,0,120,145,229,145c0,0,56,0,96,-28c0,0,40,-28,64,-92c0,0,16,-45,16,-137V154c0,0,0,-65,11,-88c0,0,8,-19,26,-29c0,0,18,-11,68,-11V0H419V26h14c0,0,47,0,66,15c0,0,20,15,27,43c0,0,3,11,3,70V434c0,0,0,93,-24,135c0,0,-24,42,-81,42c0,0,-88,0,-176,-97V154c0,0,0,-69,9,-86c0,0,10,-21,28,-31c0,0,19,-11,75,-11V0Z" 
id="f0_1x"
transform="scale(0.001,-0.001)" />

<path d="M406,32c0,0,72,0,119,60c0,0,47,59,47,205c0,0,0,181,-78,286c0,0,-53,71,-135,71c0,0,-40,0,-79,-23c0,0,-40,-24,-65,-83c0,0,-24,-58,-24,-151c0,0,0,-149,59,-257c0,0,59,-108,156,-108ZM374,-20c0,0,-154,0,-245,122c0,0,-77,104,-77,233c0,0,0,94,46,187c0,0,47,92,123,137c0,0,76,44,161,44c0,0,155,0,249,-118c0,0,80,-100,80,-231c0,0,0,-91,-44,-185C667,169,623,75,546,27c0,0,-77,-47,-172,-47Z" 
id="f0_1y"
transform="scale(0.001,-0.001)" />

<path d="M63,0V26H93c0,0,30,0,54,15c0,0,25,15,34,41c0,0,10,25,10,99V630H58v53H191v45c0,0,0,102,33,173c0,0,32,71,100,114c0,0,68,44,152,44c0,0,79,0,145,-51c0,0,43,-33,43,-75c0,0,0,-22,-19,-42c0,0,-20,-20,-42,-20c0,0,-17,0,-36,12c0,0,-19,13,-47,53c0,0,-28,41,-51,55c0,0,-23,14,-51,14c0,0,-35,0,-58,-18c0,0,-24,-18,-35,-57c0,0,-10,-38,-10,-197V683H491V630H315V181c0,0,0,-96,21,-122c0,0,27,-33,73,-33h62V0Z" 
id="f0_1p"
transform="scale(0.001,-0.001)" />

<path d="M384,85c0,0,44,0,78,19c0,0,35,19,68,62V487c0,0,0,55,-15,87c0,0,-14,33,-51,55c0,0,-38,22,-85,22c0,0,-84,0,-143,-71c0,0,-60,-70,-60,-214c0,0,0,-138,61,-209c0,0,61,-72,147,-72Zm35,-411v27h15c0,0,41,0,63,12c0,0,15,8,24,30c0,0,9,21,9,83V119C530,119,462,39,411,9c0,0,-50,-29,-105,-29c0,0,-99,0,-177,90c0,0,-78,90,-78,241c0,0,0,174,103,283c0,0,103,109,248,109c0,0,43,0,78,-12c0,0,36,-12,65,-35c0,0,43,20,83,47h25V-174c0,0,0,-66,9,-85c0,0,9,-19,28,-30c0,0,19,-10,74,-10v-27Z" 
id="f0_20"
transform="scale(0.001,-0.001)" />

<path d="M292,-20c0,0,-57,0,-100,33c0,0,-42,33,-58,85c0,0,-17,52,-17,148V551c0,0,0,49,-10,68c0,0,-11,18,-31,29c0,0,-19,9,-68,9c-2,0,-4,0,-6,0v26H242V226c0,0,0,-95,33,-125c0,0,33,-30,80,-30c0,0,32,0,73,21c0,0,40,20,96,76V555c0,0,0,59,-21,80c0,0,-22,21,-89,22v26H647V269c0,0,0,-119,6,-145c0,0,6,-27,18,-37c0,0,12,-11,29,-11c0,0,23,0,52,13L763,63L558,-20H524V124C524,124,436,29,390,4c0,0,-47,-24,-98,-24Z" 
id="f0_24"
transform="scale(0.001,-0.001)" />

<path d="M342,-20c0,0,-116,0,-203,97c0,0,-86,98,-86,264c0,0,0,161,96,261c0,0,95,101,230,101c0,0,100,0,165,-53c0,0,65,-54,65,-111c0,0,0,-29,-18,-46c0,0,-18,-18,-51,-18c0,0,-44,0,-66,29c0,0,-13,15,-17,59c0,0,-4,45,-30,68c0,0,-26,22,-73,22c0,0,-74,0,-120,-55c0,0,-60,-73,-60,-193c0,0,0,-122,60,-216c0,0,60,-93,162,-93c0,0,73,0,131,49c0,0,41,35,80,126l22,-10C629,261,601,125,521,52c0,0,-81,-72,-179,-72Z" 
id="f0_1m"
transform="scale(0.001,-0.001)" />

<path d="M376,-20L133,556c0,0,-17,41,-31,58c0,0,-15,18,-39,30c0,0,-12,7,-50,13v26H335V657H314c0,0,-29,0,-44,-14c0,0,-16,-14,-15,-38c0,0,-1,-26,15,-62L429,165L588,557c0,0,17,42,17,64c0,0,0,10,-6,17c0,0,-8,11,-21,15c0,0,-13,4,-52,4v26H750V657c0,0,-39,-3,-54,-16c0,0,-26,-23,-47,-76L409,-20Z" 
id="f0_25"
transform="scale(0.001,-0.001)" />

<path d="M145,-328c0,0,-44,0,-73,25c0,0,-28,25,-28,58c0,0,0,31,21,50c0,0,20,19,56,19c0,0,25,0,67,-16c0,0,30,-11,38,-11c0,0,22,0,49,23c0,0,26,23,53,89L376,28L131,542c0,0,-11,24,-36,58c0,0,-19,27,-30,36c0,0,-18,12,-56,21v26H328V657H312c0,0,-33,0,-50,-15c0,0,-17,-14,-17,-36c0,0,0,-30,25,-81L437,179L589,557c0,0,12,31,12,62c0,0,0,13,-5,20c0,0,-6,8,-19,13c0,0,-12,5,-44,5v26H754V657c0,0,-27,-3,-42,-12c0,0,-15,-9,-33,-34c0,0,-7,-10,-25,-58L376,-128c0,0,-40,-99,-105,-150c0,0,-66,-50,-126,-50Z" 
id="f0_28"
transform="scale(0.001,-0.001)" />

<path d="M58,0V26c0,0,47,0,64,10c0,0,18,10,28,32c0,0,9,23,9,86V775c0,0,0,116,-5,142c0,0,-5,27,-17,37c0,0,-11,9,-29,9c0,0,-20,0,-49,-12L46,978l204,83h34V154c0,0,0,-64,9,-85c0,0,9,-21,29,-32c0,0,19,-11,72,-11V0Z" 
id="f0_1v"
transform="scale(0.001,-0.001)" />

<path d="M55,0V26c0,0,50,0,67,10c0,0,17,10,27,32c0,0,10,23,10,86V418c0,0,0,111,-6,144c0,0,-6,24,-17,33c0,0,-11,10,-30,10c0,0,-21,0,-51,-11L45,620l206,83h33V154c0,0,0,-64,9,-85c0,0,9,-22,27,-32c0,0,19,-11,67,-11V0ZM222,909c0,0,-32,0,-54,23c0,0,-22,22,-22,53c0,0,0,32,22,54c0,0,22,22,54,22c0,0,31,0,53,-22c0,0,22,-22,22,-54c0,0,0,-31,-22,-53c0,0,-22,-23,-53,-23Z" 
id="f0_1s"
transform="scale(0.001,-0.001)" />

<path d="M312,-20c0,0,-62,0,-143,22c0,0,-25,8,-40,8c0,0,-18,0,-27,-19H77V234h25c0,0,21,-105,80,-158c0,0,59,-53,132,-53c0,0,51,0,84,31c0,0,32,30,32,72c0,0,0,52,-36,87c0,0,-36,35,-144,88c0,0,-109,54,-142,97c0,0,-34,43,-34,107c0,0,0,85,58,141c0,0,58,57,150,57c0,0,40,0,97,-17c0,0,38,-11,51,-11c0,0,12,0,19,5c0,0,7,5,15,23h25V470H464c0,0,-28,110,-72,149c0,0,-45,40,-113,40c0,0,-53,0,-85,-28c0,0,-32,-27,-32,-61c0,0,0,-41,24,-71c0,0,23,-31,94,-65L389,381c0,0,152,-74,152,-194c0,0,0,-94,-71,-151c0,0,-70,-56,-158,-56Z" 
id="f0_22"
transform="scale(0.001,-0.001)" />

<path d="M441,0V26c0,0,28,1,38,9c0,0,10,8,10,22c0,0,0,17,-29,56L250,381L424,540c0,0,55,50,64,64c0,0,6,9,6,18c0,0,0,15,-12,26c0,0,-13,11,-41,12v23H738V660c0,0,-62,-1,-102,-19c0,0,-41,-17,-89,-61L372,418L547,196c0,0,73,-92,98,-117c0,0,36,-35,63,-45c0,0,18,-8,65,-8V0ZM13,0V26c0,0,52,0,78,13c0,0,16,8,24,25c0,0,11,25,11,86V773c0,0,0,118,-5,145c0,0,-5,26,-17,36c0,0,-12,10,-32,10c0,0,-15,0,-47,-13L13,978l203,83h34V154c0,0,0,-67,10,-88c0,0,9,-21,26,-30c0,0,17,-9,75,-10V0Z" 
id="f0_1u"
transform="scale(0.001,-0.001)" />

<path d="M336,-20L117,554c0,0,-21,55,-42,74c0,0,-21,19,-66,29v26H296V657c0,0,-40,-3,-52,-14c0,0,-13,-12,-13,-33c0,0,0,-23,13,-56L390,162L537,481L498,581c0,0,-18,46,-47,63c0,0,-17,11,-61,13v26H716V657c0,0,-54,-2,-77,-20c0,0,-15,-12,-15,-39c0,0,0,-15,6,-30L785,177L929,554c0,0,15,40,15,65c0,0,0,14,-15,25c0,0,-14,12,-57,13v26h216V657c0,0,-65,-10,-95,-89L764,-20H733L563,415L363,-20Z" 
id="f0_26"
transform="scale(0.001,-0.001)" />

<path d="M191,-20c0,0,-34,0,-58,24c0,0,-24,24,-24,58c0,0,0,35,24,59c0,0,24,24,58,24c0,0,35,0,59,-24c0,0,24,-25,24,-59c0,0,0,-34,-24,-58c0,0,-25,-24,-59,-24Z" 
id="f0_d"
transform="scale(0.001,-0.001)" />

<path d="M30,0V27H40c0,0,1,0,2,0c6,0,36,1,62,11c0,0,29,12,44,31c0,0,15,20,23,55c0,0,2,8,2,76V841c0,0,0,77,-9,96c0,0,-8,19,-33,33c0,0,-26,15,-69,15H30v27H445L729,346l274,666h412V985h-33c0,0,-45,0,-72,-16c0,0,-19,-10,-30,-35c0,0,-8,-18,-8,-93V173c0,0,0,-78,8,-97c0,0,8,-20,34,-34c0,0,25,-15,68,-15h33V0H886V27h33c0,0,44,0,71,16c0,0,19,11,30,36c0,0,8,18,8,94V923L641,0H623L229,916V203c0,0,0,-74,4,-91c0,0,10,-38,42,-61c0,0,33,-24,102,-24V0Z" 
id="f1_z"
transform="scale(0.001,-0.001)" />

<path d="M367,-20L133,520c0,0,-43,98,-67,124c0,0,-17,19,-50,26v27H386V670c0,0,-35,0,-48,-13c0,0,-18,-16,-18,-39c0,0,0,-27,33,-103L468,253l91,226c0,0,40,97,40,137c0,0,0,23,-17,38c0,0,-17,14,-59,16v27H750V670c0,0,-33,-5,-54,-25c0,0,-20,-20,-62,-118L402,-20Z" 
id="f1_1v"
transform="scale(0.001,-0.001)" />

<path d="M214,536c0,0,-62,0,-108,51c0,0,-45,52,-45,138c0,0,0,101,61,181c0,0,62,80,196,128V998c0,0,-78,-28,-122,-89c0,0,-43,-61,-43,-127c0,0,0,-14,4,-21c0,0,3,-4,7,-4c0,0,3,0,11,5c0,0,24,17,60,17c0,0,43,0,75,-34c0,0,33,-35,33,-83c0,0,0,-50,-37,-88c0,0,-38,-38,-92,-38Zm359,0c0,0,-63,0,-108,51c0,0,-46,52,-46,138c0,0,0,101,62,181c0,0,62,80,196,128V998c0,0,-78,-28,-122,-89c0,0,-44,-61,-44,-127c0,0,0,-14,5,-21c0,0,3,-4,7,-4c0,0,3,0,11,5c0,0,24,17,60,17c0,0,42,0,75,-34c0,0,33,-35,33,-83c0,0,0,-50,-38,-88c0,0,-37,-38,-91,-38Z" 
id="f1_21"
transform="scale(0.001,-0.001)" />

<path d="M87,536v37c0,0,77,28,120,89c0,0,44,61,44,127c0,0,0,14,-4,21c0,0,-2,4,-6,4c0,0,-4,0,-12,-6c0,0,-24,-17,-60,-17c0,0,-43,0,-75,35c0,0,-32,34,-32,82c0,0,0,51,37,89c0,0,37,37,92,37c0,0,61,0,107,-51c0,0,46,-51,46,-137c0,0,0,-101,-62,-181c0,0,-62,-80,-195,-129Zm359,0v37c0,0,76,28,120,89c0,0,44,61,44,127c0,0,0,14,-4,21c0,0,-3,4,-6,4c0,0,-4,0,-12,-6c0,0,-24,-17,-60,-17c0,0,-43,0,-75,35c0,0,-33,34,-33,82c0,0,0,51,38,89c0,0,37,37,91,37c0,0,62,0,108,-51c0,0,46,-51,46,-137c0,0,0,-101,-62,-181c0,0,-62,-80,-195,-129Z" 
id="f1_22"
transform="scale(0.001,-0.001)" />

<path d="M253,0V27h36c0,0,64,0,91,39c0,0,16,24,16,109V948H274c0,0,-71,0,-100,-10c0,0,-39,-14,-67,-54c0,0,-27,-41,-33,-109H46l12,237H883L894,775H865c0,0,-8,62,-22,89c0,0,-23,43,-61,64c0,0,-39,20,-101,20H539V175c0,0,0,-93,20,-116c0,0,28,-32,87,-32h36V0Z" 
id="f0_1d"
transform="scale(0.001,-0.001)" />

<path d="M397,34c0,0,67,0,126,75c0,0,58,74,58,216c0,0,0,131,-58,201c0,0,-59,70,-133,70c0,0,-39,0,-79,-20c0,0,-29,-14,-75,-59V109c0,0,37,-37,78,-56c0,0,40,-19,83,-19ZM358,-20c0,0,-59,0,-121,21c0,0,-61,22,-126,65V773c0,0,0,117,-5,144c0,0,-6,27,-18,37c0,0,-12,9,-29,9c0,0,-21,0,-53,-12l-9,27l205,83h34V564c0,0,98,139,213,139c0,0,105,0,183,-90c0,0,78,-90,78,-245c0,0,0,-182,-121,-293c0,0,-103,-95,-231,-95Z" 
id="f0_1l"
transform="scale(0.001,-0.001)" />

<path d="M26,0V27H62c0,0,63,0,91,37c0,0,18,24,18,115V833c0,0,0,77,-10,102c0,0,-7,18,-30,32c0,0,-33,18,-69,18H26v27H459V985H422c0,0,-35,0,-67,-17c0,0,-23,-12,-32,-36c0,0,-9,-25,-9,-99V542H784V833c0,0,0,77,-10,102c0,0,-8,18,-31,32c0,0,-33,18,-68,18H639v27h432V985h-36c0,0,-36,0,-68,-17c0,0,-24,-12,-32,-36c0,0,-9,-25,-9,-99V179c0,0,0,-77,10,-102c0,0,7,-18,31,-32c0,0,32,-18,68,-18h36V0H639V27h36c0,0,62,0,90,37c0,0,19,24,19,115V487H314V179c0,0,0,-77,9,-102c0,0,8,-18,32,-32c0,0,32,-18,67,-18h37V0Z" 
id="f0_11"
transform="scale(0.001,-0.001)" />

<path d="M177,647v35c0,0,77,46,105,86c0,0,19,28,19,68c0,0,0,23,-8,34c0,0,-9,11,-19,11c0,0,-9,0,-22,-5c0,0,-19,-7,-32,-7c0,0,-30,0,-53,23c0,0,-23,22,-23,56c0,0,0,37,23,58c0,0,31,28,75,28c0,0,50,0,90,-42c0,0,40,-42,40,-105c0,0,0,-88,-67,-160c0,0,-44,-48,-128,-80Z" 
id="f0_2g"
transform="scale(0.001,-0.001)" />

<path d="M398,24c0,0,74,0,120,58c0,0,61,76,61,214c0,0,0,156,-69,240c0,0,-47,59,-113,59c0,0,-36,0,-71,-18c0,0,-27,-14,-88,-81V242c0,0,0,-83,6,-109c0,0,11,-43,51,-76c0,0,41,-33,103,-33ZM-4,-326v27H15c5,0,42,0,69,16c0,0,14,8,22,26c0,0,7,19,7,94V481c0,0,0,67,-6,85c0,0,-5,18,-18,27c0,0,-13,9,-36,9c0,0,-18,0,-45,-10L0,615l209,85h29V540c0,0,53,91,106,127c0,0,53,36,112,36c0,0,103,0,172,-80c0,0,84,-99,84,-257c0,0,0,-176,-102,-292c0,0,-83,-94,-210,-94c0,0,-55,0,-95,16c0,0,-30,10,-67,44V-167c0,0,0,-71,8,-90c0,0,9,-20,30,-31c0,0,21,-11,77,-11v-27Z" 
id="f0_1z"
transform="scale(0.001,-0.001)" />

<path d="M23,0V26c0,0,47,0,66,10c0,0,19,11,28,33c0,0,10,22,10,85V416c0,0,0,112,-7,145c0,0,-5,25,-16,34c0,0,-11,10,-31,10c0,0,-21,0,-50,-11L12,620l207,83h32V557c0,0,75,75,88,86c0,0,34,29,72,44c0,0,39,16,77,16c0,0,64,0,110,-37c0,0,47,-38,62,-109c0,0,77,90,130,118c0,0,53,28,109,28c0,0,54,0,96,-28c0,0,42,-28,67,-91c0,0,16,-43,16,-136V154c0,0,0,-64,10,-88c0,0,8,-16,28,-28c0,0,20,-12,65,-12V0H844V26h14c0,0,44,0,69,18c0,0,17,12,24,38c0,0,3,13,3,72V448c0,0,0,83,-20,117c0,0,-29,48,-93,48c0,0,-39,0,-79,-20c0,0,-40,-19,-97,-73l-1,-8l2,-32V154c0,0,0,-70,8,-87c0,0,7,-17,29,-29c0,0,21,-12,73,-12V0H431V26c0,0,57,0,78,14c0,0,21,13,29,40c0,0,4,13,4,74V448c0,0,0,83,-25,120c0,0,-33,48,-91,48c0,0,-40,0,-80,-22c0,0,-61,-33,-95,-74V154c0,0,0,-67,10,-87c0,0,9,-20,27,-30c0,0,18,-11,74,-11V0Z" 
id="f0_1w"
transform="scale(0.001,-0.001)" />

<path d="M411,-239c0,0,134,0,198,48c0,0,64,47,64,100c0,0,0,39,-38,55c0,0,-39,16,-154,19c0,0,-167,5,-258,17c0,0,-35,-37,-53,-70c0,0,-17,-32,-17,-60c0,0,0,-36,43,-62c0,0,74,-47,215,-47ZM380,257c0,0,56,0,93,43c0,0,36,42,36,133c0,0,0,118,-51,185c0,0,-38,49,-98,49c0,0,-55,0,-92,-44c0,0,-37,-44,-37,-135c0,0,0,-117,50,-182c0,0,39,-49,99,-49ZM345,-328c0,0,-144,0,-243,64c0,0,-56,38,-56,78c0,0,0,18,8,36c0,0,13,27,52,76c0,0,5,7,76,80c0,0,-39,23,-55,41c0,0,-16,19,-16,42c0,0,0,26,22,61c0,0,21,35,98,100c0,0,-63,30,-97,85c0,0,-33,55,-33,121c0,0,0,101,76,174c0,0,77,73,196,73c0,0,98,0,170,-48H688c0,0,32,0,37,-2c0,0,6,-2,8,-6c0,0,4,-7,4,-24c0,0,0,-20,-4,-27c0,0,-2,-4,-7,-6c0,0,-6,-2,-38,-2H599c0,0,41,-54,41,-137c0,0,0,-96,-73,-163c0,0,-73,-68,-196,-68c0,0,-51,0,-104,15c0,0,-33,-28,-44,-49c0,0,-12,-22,-12,-37c0,0,0,-12,13,-24c0,0,12,-12,48,-17c0,0,21,-4,104,-6c0,0,154,-4,199,-11c0,0,70,-10,111,-51c0,0,42,-41,42,-102c0,0,0,-84,-79,-158c0,0,-117,-108,-304,-108Z" 
id="f0_1q"
transform="scale(0.001,-0.001)" />

<path d="M197,0V27c0,0,71,2,92,13c0,0,21,10,29,29c0,0,9,18,9,109V725c0,0,0,110,-8,141c0,0,-5,24,-19,35c0,0,-14,11,-33,11c0,0,-28,0,-77,-23l-11,23l246,121h25V178c0,0,0,-85,7,-106c0,0,7,-21,29,-32c0,0,23,-11,91,-13V0Z" 
id="f0_g"
transform="scale(0.001,-0.001)" />

<path d="M62,286V399H448V286Z" 
id="f0_c"
transform="scale(0.001,-0.001)" />

<path d="M238,-17c0,0,-103,0,-139,25C99,8,62,33,62,62c0,0,0,22,17,38c0,0,18,16,42,16c0,0,19,0,38,-6c0,0,13,-3,58,-27c0,0,45,-23,62,-28c0,0,27,-8,59,-8c0,0,76,0,132,59c0,0,56,59,56,140c0,0,0,59,-26,115c0,0,-19,41,-42,63c0,0,-32,30,-88,54c0,0,-56,25,-114,25H232v22c0,0,59,8,118,42c0,0,59,35,86,85c0,0,27,49,27,108c0,0,0,76,-48,124c0,0,-48,47,-120,47c0,0,-116,0,-193,-124L77,819c0,0,44,102,110,158c0,0,66,56,164,56c0,0,122,0,187,-80c0,0,49,-58,49,-126c0,0,0,-110,-139,-228c0,0,93,-36,141,-104c0,0,48,-68,48,-160c0,0,0,-131,-84,-227C553,108,444,-17,238,-17Z" 
id="f0_i"
transform="scale(0.001,-0.001)" />

<path d="M82,-253v33c0,0,77,25,119,78c0,0,42,54,42,114c0,0,0,14,-7,23c0,0,-5,6,-11,6c0,0,-8,0,-35,-14c0,0,-14,-7,-28,-7c0,0,-37,0,-58,21C104,1,82,23,82,61c0,0,0,36,28,62c0,0,28,27,68,27c0,0,49,0,88,-43c0,0,38,-43,38,-113c0,0,0,-77,-53,-143c0,0,-53,-66,-169,-104Z" 
id="f0_b"
transform="scale(0.001,-0.001)" />

<path d="M17,-328c0,0,-67,0,-100,24c0,0,-33,25,-33,51c0,0,0,26,18,45c0,0,18,18,43,18c0,0,19,0,40,-9c0,0,12,-6,48,-38c0,0,37,-33,61,-33c0,0,18,0,35,14c0,0,17,14,25,46c0,0,8,33,8,141V416c0,0,0,113,-6,145c0,0,-6,25,-17,34c0,0,-11,10,-31,10c0,0,-21,0,-51,-11L47,620l207,83h32V16c0,0,0,-175,-74,-260c0,0,-75,-84,-195,-84ZM223,908c0,0,-32,0,-54,23c0,0,-22,22,-22,53c0,0,0,32,22,55c0,0,22,22,54,22c0,0,32,0,54,-22c0,0,22,-23,22,-55c0,0,0,-31,-22,-53c0,0,-22,-23,-54,-23Z" 
id="f0_1t"
transform="scale(0.001,-0.001)" />

<path d="M31,0V27H67c0,0,36,0,68,18c0,0,24,12,32,36c0,0,9,24,9,98V836c0,0,0,96,-19,119c0,0,-27,30,-90,30H31v27H811L822,790H792c0,0,-15,80,-34,110c0,0,-19,30,-57,46c0,0,-29,11,-105,11H319V557H541c0,0,87,0,116,26c0,0,39,35,44,121h27V352H701c0,0,-11,74,-21,95c0,0,-14,26,-45,41c0,0,-30,15,-94,15H319V168c0,0,0,-67,6,-81c0,0,6,-15,21,-24c0,0,15,-8,56,-8H574c0,0,86,0,124,12c0,0,39,12,75,47c0,0,46,46,95,139h30L811,0Z" 
id="f0_y"
transform="scale(0.001,-0.001)" />


</defs>
</svg>